<svg width="451" height="320" viewBox="0 0 451 320" fill="none" xmlns="http://www.w3.org/2000/svg">
<path d="M24.132 258.001C24.132 249.704 114.278 242.978 225.473 242.978C336.681 242.978 426.821 249.705 426.821 258.001C426.821 266.296 336.681 273.023 225.473 273.023C114.279 273.023 24.132 266.296 24.132 258.001Z" fill="#B4DDF4"/>
<path d="M34.2892 226.237V204.237L99.0939 101.847H117.439V133.168H106.253L62.6273 202.298V203.492H153.085V226.237H34.2892ZM107.148 254.575V219.525L107.446 209.681V101.847H133.547V254.575H107.148Z" fill="#4A4A4A"/>
<path d="M301.289 226.237V204.237L366.094 101.847H384.439V133.168H373.253L329.627 202.298V203.492H420.085V226.237H301.289ZM374.148 254.575V219.525L374.446 209.681V101.847H400.547V254.575H374.148Z" fill="#4A4A4A"/>
<mask id="mask0_8_872" style="mask-type:luminance" maskUnits="userSpaceOnUse" x="137" y="91" width="201" height="169">
<path d="M337.881 91.5566H137.627V259.741H337.881V91.5566Z" fill="white"/>
</mask>
<g mask="url(#mask0_8_872)">
<path d="M305 256.275C342.142 219.134 342.142 158.916 305 121.775C267.859 84.6339 207.641 84.6339 170.5 121.775C133.359 158.916 133.359 219.134 170.5 256.275C207.641 293.417 267.859 293.417 305 256.275Z" fill="#5D5D5D"/>
<path d="M158.654 189.026C158.654 145.339 194.069 109.924 237.754 109.924C281.441 109.924 316.857 145.339 316.857 189.026C316.857 232.714 281.441 268.128 237.754 268.128C194.069 268.128 158.654 232.714 158.654 189.026Z" fill="#4A4A4A"/>
<path d="M237.753 256.563C200.513 256.563 170.218 226.266 170.218 189.026C170.218 151.787 200.513 121.491 237.753 121.491C274.994 121.491 305.29 151.787 305.29 189.026C305.29 226.266 274.995 256.563 237.753 256.563ZM237.753 122.673C201.166 122.673 171.4 152.44 171.4 189.027C171.4 225.616 201.167 255.382 237.753 255.382C274.343 255.382 304.11 225.615 304.11 189.027C304.11 152.439 274.343 122.673 237.753 122.673Z" fill="#767676"/>
<path d="M237.753 255.797C200.939 255.797 170.985 225.845 170.985 189.026C170.985 152.212 200.939 122.258 237.753 122.258C274.569 122.258 304.525 152.211 304.525 189.026C304.525 225.845 274.57 255.797 237.753 255.797ZM237.753 122.85C201.264 122.85 171.575 152.536 171.575 189.026C171.575 225.518 201.263 255.206 237.753 255.206C274.246 255.206 303.933 225.518 303.933 189.026C303.933 152.537 274.246 122.85 237.753 122.85Z" fill="#3F3F3F"/>
<path d="M237.753 274.135C190.823 274.135 152.647 235.955 152.647 189.026C152.647 142.097 190.824 103.921 237.753 103.921C284.684 103.921 322.861 142.098 322.861 189.026C322.862 235.956 284.684 274.135 237.753 274.135ZM237.753 105.1C191.477 105.1 153.826 142.75 153.826 189.026C153.826 235.304 191.476 272.954 237.753 272.954C284.032 272.954 321.682 235.305 321.682 189.026C321.682 142.751 284.033 105.1 237.753 105.1Z" fill="#767676"/>
<path d="M237.753 273.246C191.318 273.246 153.536 235.466 153.536 189.026C153.536 142.589 191.317 104.809 237.753 104.809C284.192 104.809 321.971 142.589 321.971 189.026C321.971 235.466 284.192 273.246 237.753 273.246ZM237.753 105.403C191.642 105.403 154.127 142.916 154.127 189.026C154.127 235.139 191.642 272.653 237.753 272.653C283.867 272.653 321.381 235.139 321.381 189.026C321.381 142.916 283.868 105.403 237.753 105.403Z" fill="#3F3F3F"/>
<path d="M287.828 259.36L286.574 270.615C287.138 270.278 287.698 269.933 288.254 269.588L288.603 258.914L287.828 259.36Z" fill="#4A4A4A"/>
<path d="M298.515 249.813L299.279 261.517C300.707 260.301 302.108 259.037 303.481 257.72L301.046 247.282L298.515 249.813Z" fill="#4A4A4A"/>
<path d="M304.326 244.003L306.028 255.199C306.484 254.726 306.937 254.251 307.381 253.77L304.956 243.372L304.326 244.003Z" fill="#4A4A4A"/>
<path d="M312.177 232.015L315.942 243.123C317.01 241.579 318.035 239.994 319.021 238.366L313.967 228.914L312.177 232.015Z" fill="#4A4A4A"/>
<path d="M316.286 224.899L320.826 235.272C321.145 234.7 321.459 234.122 321.765 233.542L316.73 224.126L316.286 224.899Z" fill="#4A4A4A"/>
<path d="M320.767 211.288L327.279 221.044C327.911 219.275 328.491 217.478 329.022 215.65L321.693 207.831L320.767 211.288Z" fill="#4A4A4A"/>
<path d="M322.893 203.352L329.964 212.195C330.125 211.558 330.278 210.921 330.423 210.28L323.121 202.489L322.893 203.352Z" fill="#4A4A4A"/>
<path d="M323.698 189.044L332.515 196.78C332.666 194.909 332.762 193.025 332.802 191.122L323.699 185.463L323.698 189.044Z" fill="#4A4A4A"/>
<path d="M323.698 180.827L332.818 187.54C332.807 186.884 332.792 186.226 332.765 185.572L323.697 179.935L323.698 180.827Z" fill="#4A4A4A"/>
<path d="M320.773 166.798L331.293 171.99C330.953 170.144 330.558 168.298 330.105 166.449L319.848 163.34L320.773 166.798Z" fill="#4A4A4A"/>
<path d="M318.646 158.86L329.192 162.985C329.014 162.354 328.827 161.723 328.631 161.098L318.414 157.998L318.646 158.86Z" fill="#4A4A4A"/>
<path d="M312.191 146.066L323.693 148.359C322.888 146.665 322.028 144.985 321.113 143.317L310.401 142.967L312.191 146.066Z" fill="#4A4A4A"/>
<path d="M308.08 138.951L319.335 140.207C319 139.644 318.655 139.082 318.305 138.526L307.634 138.181L308.08 138.951Z" fill="#4A4A4A"/>
<path d="M298.533 128.265L310.24 127.502C309.024 126.072 307.758 124.672 306.442 123.297L296.003 125.733L298.533 128.265Z" fill="#4A4A4A"/>
<path d="M292.724 122.454L303.918 120.756C303.449 120.297 302.972 119.845 302.489 119.4L292.092 121.826L292.724 122.454Z" fill="#4A4A4A"/>
<path d="M280.735 114.602L291.846 110.837C290.3 109.772 288.715 108.746 287.087 107.76L277.636 112.814L280.735 114.602Z" fill="#4A4A4A"/>
<path d="M273.62 110.495L283.995 105.955C283.421 105.635 282.844 105.322 282.263 105.015L272.847 110.049L273.62 110.495Z" fill="#4A4A4A"/>
<path d="M260.006 106.015L269.765 99.5005C267.995 98.8695 266.2 98.2905 264.372 97.7595L256.55 105.085L260.006 106.015Z" fill="#4A4A4A"/>
<path d="M252.071 103.886L260.916 96.8185C260.282 96.6575 259.642 96.5045 259.002 96.3585L251.211 103.658L252.071 103.886Z" fill="#4A4A4A"/>
<path d="M237.763 103.083L245.502 94.2665C243.629 94.1145 241.746 94.0185 239.843 93.9785L234.182 103.082L237.763 103.083Z" fill="#4A4A4A"/>
<path d="M229.547 103.081L236.26 93.9656C235.605 93.9726 234.947 93.9906 234.291 94.0156L228.653 103.083L229.547 103.081Z" fill="#4A4A4A"/>
<path d="M215.517 106.009L220.712 95.4885C218.864 95.8285 217.02 96.2205 215.171 96.6765L212.061 106.935L215.517 106.009Z" fill="#4A4A4A"/>
<path d="M207.581 108.134L211.705 97.5885C211.074 97.7665 210.445 97.9545 209.817 98.1495L206.718 108.365L207.581 108.134Z" fill="#4A4A4A"/>
<path d="M194.787 114.592L197.082 103.088C195.386 103.893 193.707 104.748 192.039 105.668L191.688 116.382L194.787 114.592Z" fill="#4A4A4A"/>
<path d="M187.672 118.698L188.928 107.446C188.363 107.782 187.804 108.126 187.248 108.475L186.899 119.145L187.672 118.698Z" fill="#4A4A4A"/>
<path d="M176.987 128.246L176.224 116.544C174.791 117.758 173.395 119.021 172.023 120.339L174.454 130.778L176.987 128.246Z" fill="#4A4A4A"/>
<path d="M171.176 134.057L169.476 122.863C169.017 123.335 168.569 123.809 168.12 124.292L170.546 134.688L171.176 134.057Z" fill="#4A4A4A"/>
<path d="M163.325 146.048L159.561 134.936C158.492 136.482 157.467 138.063 156.483 139.693L161.534 149.146L163.325 146.048Z" fill="#4A4A4A"/>
<path d="M159.217 153.161L154.678 142.788C154.356 143.36 154.044 143.938 153.737 144.518L158.772 153.934L159.217 153.161Z" fill="#4A4A4A"/>
<path d="M154.737 166.773L148.224 157.017C147.591 158.784 147.011 160.58 146.482 162.407L153.809 170.23L154.737 166.773Z" fill="#4A4A4A"/>
<path d="M152.61 174.708L145.54 165.866C145.379 166.502 145.228 167.139 145.081 167.78L152.378 175.573L152.61 174.708Z" fill="#4A4A4A"/>
<path d="M151.806 189.018L142.99 181.28C142.836 183.15 142.741 185.033 142.701 186.934L151.805 192.596L151.806 189.018Z" fill="#4A4A4A"/>
<path d="M151.805 197.232L142.685 190.519C142.694 191.176 142.714 191.833 142.736 192.487L151.803 198.127L151.805 197.232Z" fill="#4A4A4A"/>
<path d="M154.731 211.264L144.211 206.068C144.547 207.916 144.943 209.762 145.397 211.609L155.655 214.722L154.731 211.264Z" fill="#4A4A4A"/>
<path d="M156.856 219.198L146.312 215.074C146.491 215.706 146.679 216.333 146.869 216.963L157.085 220.064L156.856 219.198Z" fill="#4A4A4A"/>
<path d="M163.314 231.994L151.807 229.698C152.611 231.394 153.472 233.074 154.387 234.74L165.1 235.093L163.314 231.994Z" fill="#4A4A4A"/>
<path d="M167.421 239.107L156.166 237.853C156.503 238.417 156.85 238.974 157.195 239.534L167.865 239.882L167.421 239.107Z" fill="#4A4A4A"/>
<path d="M176.97 249.794L165.261 250.554C166.478 251.985 167.742 253.387 169.058 254.759L179.498 252.327L176.97 249.794Z" fill="#4A4A4A"/>
<path d="M182.779 255.604L171.582 257.305C172.055 257.764 172.533 258.211 173.013 258.66L183.411 256.238L182.779 255.604Z" fill="#4A4A4A"/>
<path d="M172.76 189.026C172.76 153.133 201.861 124.034 237.753 124.034C273.65 124.034 302.747 153.134 302.747 189.026C302.747 224.922 273.65 254.02 237.753 254.02C201.861 254.02 172.76 224.922 172.76 189.026Z" fill="#2A2A2A"/>
<path d="M237.622 115.608C236.62 117.617 235.819 119.363 235.508 120.185C235.975 119.443 236.886 117.747 237.885 115.737C238.887 113.729 239.689 111.979 239.998 111.161C239.533 111.903 238.621 113.598 237.622 115.608Z" fill="#5D5D5D"/>
<path d="M233.014 115.76C232.141 117.829 231.451 119.624 231.189 120.462C231.61 119.691 232.413 117.943 233.283 115.874C234.156 113.808 234.849 112.013 235.106 111.175C234.686 111.944 233.885 113.693 233.014 115.76Z" fill="#5D5D5D"/>
<path d="M228.422 116.204C227.681 118.321 227.104 120.157 226.898 121.009C227.27 120.213 227.962 118.419 228.699 116.301C229.442 114.182 230.019 112.348 230.224 111.495C229.854 112.288 229.162 114.086 228.422 116.204Z" fill="#5D5D5D"/>
<path d="M223.868 116.934C223.263 119.094 222.804 120.96 222.649 121.827C222.967 121.009 223.545 119.173 224.151 117.013C224.758 114.852 225.219 112.984 225.37 112.122C225.052 112.936 224.473 114.774 223.868 116.934Z" fill="#5D5D5D"/>
<path d="M219.37 117.948C218.899 120.143 218.559 122.035 218.458 122.907C218.729 122.073 219.188 120.204 219.657 118.009C220.127 115.815 220.47 113.922 220.566 113.052C220.298 113.884 219.838 115.754 219.37 117.948Z" fill="#5D5D5D"/>
<path d="M214.942 119.245C214.613 121.462 214.39 123.374 214.345 124.251C214.562 123.4 214.902 121.508 215.234 119.287C215.566 117.066 215.788 115.155 215.83 114.28C215.615 115.128 215.272 117.025 214.942 119.245Z" fill="#5D5D5D"/>
<path d="M210.606 120.817C210.417 123.051 210.314 124.969 210.324 125.847C210.488 124.987 210.709 123.076 210.9 120.839C211.09 118.599 211.192 116.682 211.18 115.803C211.018 116.666 210.796 118.579 210.606 120.817Z" fill="#5D5D5D"/>
<path d="M206.376 122.655C206.325 124.898 206.346 126.822 206.409 127.694C206.517 126.827 206.621 124.905 206.67 122.662C206.721 120.417 206.701 118.492 206.634 117.617C206.528 118.488 206.426 120.411 206.376 122.655Z" fill="#5D5D5D"/>
<path d="M202.271 124.759C202.363 126.998 202.501 128.917 202.621 129.784C202.676 128.911 202.659 126.986 202.566 124.745C202.477 122.501 202.336 120.583 202.213 119.712C202.161 120.589 202.18 122.514 202.271 124.759Z" fill="#5D5D5D"/>
<path d="M198.304 127.114C198.538 129.343 198.798 131.249 198.972 132.108C198.971 131.232 198.83 129.312 198.599 127.082C198.368 124.848 198.108 122.941 197.93 122.081C197.933 122.96 198.073 124.88 198.304 127.114Z" fill="#5D5D5D"/>
<path d="M194.495 129.714C194.87 131.923 195.247 133.811 195.475 134.657C195.417 133.782 195.159 131.872 194.788 129.663C194.417 127.448 194.034 125.561 193.805 124.715C193.865 125.589 194.123 127.498 194.495 129.714Z" fill="#5D5D5D"/>
<path d="M190.857 132.546C191.369 134.729 191.864 136.588 192.145 137.419C192.034 136.55 191.654 134.661 191.146 132.478C190.636 130.292 190.137 128.434 189.854 127.601C189.968 128.471 190.346 130.361 190.857 132.546Z" fill="#5D5D5D"/>
<path d="M187.405 135.602C188.053 137.748 188.661 139.572 188.996 140.383C188.83 139.524 188.331 137.662 187.687 135.517C187.041 133.366 186.427 131.542 186.093 130.73C186.26 131.592 186.756 133.456 187.405 135.602Z" fill="#5D5D5D"/>
<path d="M184.149 138.87C184.93 140.97 185.655 142.755 186.037 143.544C185.817 142.694 185.203 140.868 184.428 138.769C183.646 136.662 182.919 134.881 182.535 134.091C182.756 134.94 183.369 136.766 184.149 138.87Z" fill="#5D5D5D"/>
<path d="M181.106 142.336C182.017 144.382 182.852 146.118 183.285 146.882C183.012 146.05 182.284 144.264 181.376 142.214C180.466 140.162 179.627 138.429 179.194 137.665C179.469 138.501 180.195 140.285 181.106 142.336Z" fill="#5D5D5D"/>
<path d="M178.286 145.985C179.324 147.969 180.265 149.649 180.747 150.384C180.422 149.57 179.582 147.835 178.549 145.846C177.512 143.856 176.566 142.18 176.084 141.444C176.411 142.261 177.249 143.998 178.286 145.985Z" fill="#5D5D5D"/>
<path d="M175.702 149.805C176.861 151.722 177.907 153.339 178.432 154.042C178.057 153.248 177.112 151.57 175.953 149.649C174.792 147.729 173.744 146.116 173.22 145.411C173.597 146.204 174.54 147.886 175.702 149.805Z" fill="#5D5D5D"/>
<path d="M173.36 153.776C174.638 155.62 175.784 157.166 176.353 157.837C175.928 157.069 174.878 155.452 173.604 153.607C172.324 151.766 171.175 150.219 170.608 149.549C171.033 150.319 172.083 151.936 173.36 153.776Z" fill="#5D5D5D"/>
<path d="M171.275 157.892C172.668 159.647 173.907 161.122 174.516 161.755C174.042 161.015 172.893 159.467 171.506 157.705C170.113 155.948 168.869 154.476 168.262 153.843C168.735 154.586 169.885 156.135 171.275 157.892Z" fill="#5D5D5D"/>
<path d="M169.452 162.128C170.953 163.793 172.281 165.188 172.929 165.781C172.411 165.071 171.165 163.597 169.672 161.929C168.17 160.262 166.837 158.87 166.191 158.278C166.71 158.987 167.953 160.46 169.452 162.128Z" fill="#5D5D5D"/>
<path d="M167.896 166.47C169.5 168.038 170.913 169.345 171.596 169.897C171.035 169.222 169.7 167.832 168.105 166.257C166.501 164.69 165.085 163.384 164.4 162.833C164.963 163.51 166.299 164.901 167.896 166.47Z" fill="#5D5D5D"/>
<path d="M166.618 170.902C168.315 172.366 169.809 173.581 170.527 174.09C169.925 173.449 168.504 172.147 166.812 170.674C165.113 169.211 163.618 167.996 162.899 167.488C163.505 168.129 164.925 169.436 166.618 170.902Z" fill="#5D5D5D"/>
<path d="M165.62 175.404C167.405 176.759 168.974 177.879 169.722 178.342C169.081 177.739 167.579 176.528 165.8 175.167C164.012 173.812 162.444 172.695 161.696 172.234C162.339 172.835 163.839 174.049 165.62 175.404Z" fill="#5D5D5D"/>
<path d="M164.907 179.961C166.775 181.2 168.411 182.218 169.186 182.636C168.509 182.073 166.935 180.96 165.072 179.714C163.204 178.472 161.565 177.457 160.794 177.043C161.473 177.6 163.046 178.722 164.907 179.961Z" fill="#5D5D5D"/>
<path d="M164.482 184.554C166.422 185.674 168.119 186.585 168.922 186.953C168.207 186.437 166.568 185.423 164.632 184.295C162.688 183.174 160.989 182.262 160.191 181.899C160.907 182.415 162.546 183.432 164.482 184.554Z" fill="#5D5D5D"/>
<path d="M164.344 189.165C166.354 190.161 168.105 190.964 168.926 191.281C168.183 190.808 166.483 189.9 164.479 188.896C162.468 187.898 160.718 187.096 159.897 186.783C160.642 187.254 162.343 188.165 164.344 189.165Z" fill="#5D5D5D"/>
<path d="M164.498 193.773C166.567 194.641 168.362 195.336 169.205 195.598C168.434 195.172 166.679 194.373 164.615 193.498C162.545 192.628 160.748 191.939 159.912 191.679C160.683 192.098 162.438 192.903 164.498 193.773Z" fill="#5D5D5D"/>
<path d="M164.941 198.365C167.06 199.1 168.897 199.681 169.752 199.89C168.956 199.515 167.155 198.827 165.042 198.083C162.921 197.344 161.083 196.769 160.233 196.563C161.027 196.932 162.831 197.626 164.941 198.365Z" fill="#5D5D5D"/>
<path d="M165.671 202.919C167.831 203.521 169.699 203.983 170.567 204.14C169.749 203.814 167.91 203.242 165.754 202.632C163.589 202.025 161.722 201.569 160.858 201.415C161.676 201.736 163.522 202.315 165.671 202.919Z" fill="#5D5D5D"/>
<path d="M166.688 207.419C168.879 207.882 170.774 208.229 171.651 208.327C170.813 208.055 168.941 207.599 166.751 207.126C164.554 206.657 162.658 206.317 161.79 206.219C162.625 206.487 164.502 206.952 166.688 207.419Z" fill="#5D5D5D"/>
<path d="M167.982 211.846C170.2 212.168 172.114 212.396 172.994 212.441C172.14 212.22 170.241 211.884 168.03 211.548C165.804 211.219 163.895 211.002 163.018 210.954C163.87 211.171 165.773 211.516 167.982 211.846Z" fill="#5D5D5D"/>
<path d="M169.553 216.18C171.785 216.368 173.711 216.472 174.59 216.459C173.727 216.297 171.81 216.078 169.582 215.881C167.34 215.692 165.42 215.596 164.54 215.605C165.408 215.765 167.327 215.992 169.553 216.18Z" fill="#5D5D5D"/>
<path d="M171.393 220.41C173.633 220.454 175.561 220.439 176.438 220.373C175.565 220.265 173.638 220.165 171.401 220.109C169.154 220.063 167.231 220.086 166.354 220.147C167.228 220.259 169.161 220.363 171.393 220.41Z" fill="#5D5D5D"/>
<path d="M173.496 224.516C175.731 224.419 177.656 224.282 178.527 224.162C177.649 224.107 175.72 224.13 173.483 224.213C171.239 224.308 169.321 224.453 168.449 224.569C169.328 224.624 171.263 224.609 173.496 224.516Z" fill="#5D5D5D"/>
<path d="M175.85 228.481C178.079 228.245 179.988 227.987 180.852 227.811C179.971 227.813 178.047 227.957 175.821 228.18C173.587 228.416 171.682 228.68 170.819 228.853C171.7 228.851 173.629 228.713 175.85 228.481Z" fill="#5D5D5D"/>
<path d="M178.449 232.292C180.659 231.916 182.55 231.539 183.4 231.31C182.522 231.367 180.61 231.63 178.401 231.995C176.185 232.369 174.302 232.754 173.453 232.979C174.332 232.92 176.247 232.661 178.449 232.292Z" fill="#5D5D5D"/>
<path d="M181.283 235.931C183.466 235.416 185.328 234.923 186.164 234.638C185.291 234.751 183.397 235.131 181.218 235.635C179.029 236.15 177.175 236.652 176.34 236.928C177.212 236.816 179.109 236.438 181.283 235.931Z" fill="#5D5D5D"/>
<path d="M184.338 239.385C186.484 238.735 188.311 238.124 189.128 237.789C188.263 237.955 186.4 238.454 184.255 239.097C182.102 239.743 180.283 240.363 179.469 240.691C180.333 240.525 182.202 240.026 184.338 239.385Z" fill="#5D5D5D"/>
<path d="M187.606 242.64C189.707 241.856 191.492 241.132 192.287 240.746C191.433 240.967 189.605 241.582 187.505 242.356C185.399 243.137 183.621 243.871 182.829 244.249C183.679 244.028 185.514 243.414 187.606 242.64Z" fill="#5D5D5D"/>
<path d="M191.073 245.682C193.121 244.769 194.857 243.935 195.625 243.498C194.787 243.775 193.002 244.5 190.952 245.406C188.9 246.32 187.169 247.16 186.404 247.589C187.239 247.314 189.034 246.587 191.073 245.682Z" fill="#5D5D5D"/>
<path d="M194.719 248.501C196.708 247.462 198.387 246.519 199.127 246.037C198.309 246.364 196.571 247.202 194.585 248.235C192.594 249.275 190.921 250.222 190.183 250.699C190.998 250.373 192.744 249.534 194.719 248.501Z" fill="#5D5D5D"/>
<path d="M219.64 260.169C221.103 258.472 222.322 256.978 222.828 256.255C222.189 256.861 220.883 258.279 219.414 259.971C217.947 261.671 216.739 263.169 216.229 263.882C216.866 263.28 218.182 261.858 219.64 260.169Z" fill="#5D5D5D"/>
<path d="M224.145 261.168C225.498 259.381 226.619 257.814 227.078 257.061C226.476 257.706 225.265 259.202 223.905 260.982C222.547 262.773 221.439 264.345 220.971 265.087C221.57 264.444 222.794 262.943 224.145 261.168Z" fill="#5D5D5D"/>
<path d="M228.701 261.882C229.942 260.011 230.961 258.377 231.372 257.597C230.812 258.28 229.697 259.847 228.451 261.711C227.209 263.582 226.2 265.221 225.78 265.989C226.337 265.313 227.464 263.737 228.701 261.882Z" fill="#5D5D5D"/>
<path d="M233.296 262.306C234.415 260.362 235.329 258.666 235.689 257.864C235.173 258.579 234.16 260.214 233.032 262.151C231.911 264.096 231.009 265.797 230.637 266.59C231.15 265.878 232.175 264.236 233.296 262.306Z" fill="#5D5D5D"/>
<path d="M237.905 262.443C238.901 260.431 239.707 258.681 240.015 257.858C239.549 258.604 238.639 260.299 237.633 262.302C236.636 264.315 235.842 266.069 235.521 266.883C235.99 266.141 236.91 264.438 237.905 262.443Z" fill="#5D5D5D"/>
<path d="M242.514 262.29C243.382 260.22 244.078 258.423 244.332 257.582C243.912 258.353 243.113 260.104 242.234 262.169C241.365 264.238 240.683 266.038 240.415 266.873C240.834 266.099 241.647 264.343 242.514 262.29Z" fill="#5D5D5D"/>
<path d="M247.106 261.847C247.842 259.727 248.421 257.891 248.624 257.033C248.256 257.833 247.565 259.628 246.819 261.741C246.081 263.866 245.513 265.704 245.297 266.553C245.667 265.755 246.37 263.952 247.106 261.847Z" fill="#5D5D5D"/>
<path d="M251.661 261.116C252.261 258.954 252.725 257.085 252.876 256.218C252.556 257.038 251.98 258.874 251.368 261.031C250.764 263.195 250.314 265.067 250.153 265.927C250.47 265.107 251.058 263.263 251.661 261.116Z" fill="#5D5D5D"/>
<path d="M284.673 245.503C284.155 243.321 283.664 241.46 283.375 240.623C283.493 241.498 283.872 243.388 284.372 245.569C284.887 247.757 285.396 249.612 285.665 250.444C285.552 249.571 285.178 247.677 284.673 245.503Z" fill="#5D5D5D"/>
<path d="M288.127 242.444C287.473 240.299 286.866 238.475 286.525 237.658C286.697 238.524 287.194 240.384 287.834 242.53C288.481 244.68 289.106 246.502 289.43 247.317C289.261 246.452 288.766 244.581 288.127 242.444Z" fill="#5D5D5D"/>
<path d="M291.382 239.178C290.596 237.076 289.875 235.294 289.482 234.5C289.708 235.357 290.322 237.179 291.094 239.281C291.876 241.386 292.615 243.163 292.986 243.959C292.765 243.105 292.154 241.27 291.382 239.178Z" fill="#5D5D5D"/>
<path d="M294.426 235.713C293.51 233.665 292.678 231.932 292.236 231.163C292.514 232.002 293.242 233.782 294.144 235.833C295.057 237.886 295.907 239.611 296.327 240.381C296.052 239.545 295.328 237.752 294.426 235.713Z" fill="#5D5D5D"/>
<path d="M297.246 232.062C296.203 230.076 295.264 228.398 294.774 227.659C295.105 228.48 295.943 230.211 296.972 232.199C298.013 234.19 298.969 235.862 299.436 236.602C299.109 235.784 298.274 234.04 297.246 232.062Z" fill="#5D5D5D"/>
<path d="M299.831 228.242C298.666 226.325 297.622 224.71 297.089 224.002C297.469 224.802 298.414 226.476 299.567 228.398C300.731 230.319 301.793 231.929 302.302 232.637C301.924 231.841 300.981 230.151 299.831 228.242Z" fill="#5D5D5D"/>
<path d="M302.171 224.268C300.887 222.428 299.745 220.879 299.166 220.208C299.598 220.98 300.649 222.594 301.918 224.437C303.202 226.284 304.357 227.821 304.912 228.498C304.487 227.727 303.437 226.099 302.171 224.268Z" fill="#5D5D5D"/>
<path d="M304.256 220.154C302.861 218.398 301.623 216.926 301.006 216.293C301.483 217.036 302.632 218.578 304.014 220.341C305.411 222.102 306.662 223.563 307.26 224.204C306.785 223.46 305.636 221.902 304.256 220.154Z" fill="#5D5D5D"/>
<path d="M306.08 215.917C304.576 214.253 303.25 212.861 302.59 212.269C303.117 212.979 304.36 214.448 305.85 216.121C307.355 217.792 308.697 219.169 309.332 219.771C308.813 219.057 307.567 217.575 306.08 215.917Z" fill="#5D5D5D"/>
<path d="M307.634 211.573C306.03 210.008 304.618 208.702 303.922 208.15C304.491 208.828 305.825 210.216 307.416 211.791C309.025 213.362 310.448 214.654 311.122 215.216C310.558 214.538 309.222 213.135 307.634 211.573Z" fill="#5D5D5D"/>
<path d="M308.915 207.143C307.214 205.677 305.721 204.466 304.992 203.961C305.602 204.598 307.02 205.899 308.708 207.37C310.414 208.838 311.914 210.039 312.62 210.556C312.018 209.916 310.593 208.602 308.915 207.143Z" fill="#5D5D5D"/>
<path d="M309.911 202.639C308.122 201.285 306.557 200.167 305.797 199.708C306.448 200.309 307.944 201.517 309.72 202.879C311.514 204.239 313.087 205.343 313.825 205.817C313.183 205.213 311.678 203.991 309.911 202.639Z" fill="#5D5D5D"/>
<path d="M310.624 198.081C308.753 196.844 307.12 195.826 306.335 195.416C307.021 195.974 308.59 197.085 310.448 198.335C312.324 199.577 313.963 200.581 314.727 201.007C314.051 200.445 312.473 199.321 310.624 198.081Z" fill="#5D5D5D"/>
<path d="M311.049 193.488C309.104 192.37 307.411 191.459 306.601 191.098C307.322 191.61 308.955 192.621 310.889 193.752C312.839 194.874 314.538 195.773 315.33 196.148C314.618 195.633 312.971 194.611 311.049 193.488Z" fill="#5D5D5D"/>
<path d="M311.182 188.877C309.174 187.882 307.426 187.08 306.594 186.773C307.347 187.238 309.043 188.146 311.042 189.152C313.058 190.148 314.811 190.94 315.625 191.265C314.879 190.795 313.176 189.878 311.182 188.877Z" fill="#5D5D5D"/>
<path d="M311.03 184.266C308.963 183.401 307.168 182.708 306.318 182.453C307.096 182.871 308.846 183.671 310.905 184.55C312.983 185.419 314.779 186.096 315.613 186.371C314.841 185.948 313.081 185.14 311.03 184.266Z" fill="#5D5D5D"/>
<path d="M310.585 179.677C308.469 178.943 306.632 178.363 305.77 178.164C306.576 178.53 308.37 179.219 310.479 179.968C312.608 180.702 314.443 181.266 315.292 181.489C314.496 181.116 312.688 180.418 310.585 179.677Z" fill="#5D5D5D"/>
<path d="M309.858 175.122C307.698 174.524 305.828 174.061 304.953 173.916C305.78 174.23 307.616 174.804 309.768 175.419C311.937 176.021 313.804 176.466 314.666 176.637C313.847 176.313 311.999 175.731 309.858 175.122Z" fill="#5D5D5D"/>
<path d="M308.841 170.622C306.65 170.16 304.753 169.816 303.87 169.726C304.716 169.99 306.585 170.448 308.769 170.924C310.975 171.389 312.864 171.716 313.735 171.831C312.9 171.562 311.018 171.095 308.841 170.622Z" fill="#5D5D5D"/>
<path d="M307.545 166.194C305.329 165.874 303.415 165.648 302.528 165.612C303.39 165.824 305.282 166.161 307.497 166.502C309.725 166.828 311.631 167.034 312.508 167.096C311.653 166.878 309.75 166.531 307.545 166.194Z" fill="#5D5D5D"/>
<path d="M305.973 161.858C303.741 161.675 301.819 161.571 300.93 161.59C301.802 161.746 303.713 161.965 305.943 162.166C308.187 162.351 310.104 162.439 310.983 162.444C310.118 162.281 308.194 162.054 305.973 161.858Z" fill="#5D5D5D"/>
<path d="M304.134 157.63C301.896 157.588 299.967 157.604 299.085 157.679C299.964 157.781 301.885 157.878 304.12 157.939C306.373 157.982 308.292 157.951 309.17 157.902C308.294 157.792 306.362 157.686 304.134 157.63Z" fill="#5D5D5D"/>
<path d="M302.031 153.522C299.796 153.622 297.873 153.759 296.997 153.891C297.88 153.936 299.804 153.912 302.041 153.832C304.289 153.734 306.204 153.581 307.074 153.478C306.195 153.425 304.259 153.44 302.031 153.522Z" fill="#5D5D5D"/>
<path d="M299.675 149.557C297.449 149.796 295.54 150.053 294.673 150.24C295.557 150.232 297.478 150.088 299.702 149.869C301.94 149.628 303.843 149.355 304.705 149.196C303.827 149.196 301.893 149.335 299.675 149.557Z" fill="#5D5D5D"/>
<path d="M297.076 145.747C294.868 146.126 292.978 146.503 292.127 146.743C293.01 146.677 294.913 146.415 297.123 146.056C299.342 145.676 301.224 145.284 302.074 145.072C301.196 145.126 299.276 145.386 297.076 145.747Z" fill="#5D5D5D"/>
<path d="M294.242 142.108C292.064 142.625 290.2 143.12 289.365 143.413C290.241 143.292 292.125 142.91 294.309 142.413C296.496 141.893 298.35 141.385 299.188 141.121C298.314 141.23 296.414 141.61 294.242 142.108Z" fill="#5D5D5D"/>
<path d="M291.184 138.654C289.043 139.307 287.214 139.919 286.398 140.262C287.266 140.09 289.122 139.586 291.271 138.954C293.421 138.298 295.24 137.676 296.058 137.357C295.193 137.52 293.321 138.019 291.184 138.654Z" fill="#5D5D5D"/>
<path d="M287.914 135.399C285.82 136.184 284.033 136.911 283.241 137.305C284.096 137.077 285.918 136.457 288.019 135.696C290.126 134.906 291.904 134.168 292.699 133.801C291.845 134.015 290.008 134.632 287.914 135.399Z" fill="#5D5D5D"/>
<path d="M284.449 132.355C282.406 133.272 280.669 134.105 279.904 134.553C280.742 134.271 282.524 133.537 284.573 132.645C286.626 131.722 288.351 130.874 289.124 130.461C288.284 130.728 286.491 131.458 284.449 132.355Z" fill="#5D5D5D"/>
<path d="M280.799 129.536C278.818 130.579 277.135 131.521 276.4 132.013C277.219 131.681 278.95 130.838 280.94 129.816C282.931 128.767 284.601 127.814 285.347 127.353C284.523 127.669 282.78 128.513 280.799 129.536Z" fill="#5D5D5D"/>
<path d="M276.979 126.951C275.066 128.115 273.447 129.162 272.742 129.701C273.541 129.316 275.217 128.364 277.138 127.223C279.058 126.049 280.665 124.994 281.38 124.485C280.579 124.854 278.892 125.806 276.979 126.951Z" fill="#5D5D5D"/>
<path d="M273.002 124.611C271.17 125.892 269.618 127.039 268.949 127.622C269.719 127.185 271.331 126.134 273.178 124.872C275.022 123.58 276.558 122.427 277.239 121.874C276.464 122.294 274.841 123.346 273.002 124.611Z" fill="#5D5D5D"/>
<path d="M268.887 122.525C267.139 123.921 265.664 125.162 265.032 125.784C265.774 125.302 267.316 124.151 269.081 122.774C270.839 121.37 272.301 120.121 272.947 119.526C272.2 119.993 270.642 121.149 268.887 122.525Z" fill="#5D5D5D"/>
<path d="M264.651 120.704C262.994 122.206 261.6 123.537 261.009 124.197C261.718 123.667 263.185 122.423 264.859 120.939C266.528 119.425 267.907 118.088 268.512 117.456C267.797 117.968 266.317 119.218 264.651 120.704Z" fill="#5D5D5D"/>
<path d="M260.309 119.148C258.748 120.753 257.439 122.169 256.894 122.866C257.567 122.292 258.953 120.957 260.532 119.372C262.1 117.755 263.392 116.337 263.96 115.666C263.277 116.221 261.878 117.563 260.309 119.148Z" fill="#5D5D5D"/>
<path d="M255.877 117.872C254.418 119.571 253.203 121.065 252.7 121.796C253.339 121.179 254.637 119.759 256.112 118.081C257.577 116.369 258.778 114.871 259.301 114.167C258.654 114.764 257.341 116.19 255.877 117.872Z" fill="#5D5D5D"/>
<path d="M251.374 116.874C250.026 118.661 248.905 120.231 248.451 120.991C249.048 120.335 250.255 118.837 251.622 117.068C252.977 115.269 254.08 113.697 254.559 112.96C253.95 113.598 252.73 115.104 251.374 116.874Z" fill="#5D5D5D"/>
<path d="M246.816 116.162C245.583 118.03 244.565 119.665 244.158 120.452C244.715 119.761 245.823 118.19 247.077 116.339C248.315 114.457 249.32 112.822 249.75 112.056C249.181 112.729 248.059 114.31 246.816 116.162Z" fill="#5D5D5D"/>
<path d="M242.224 115.737C241.112 117.678 240.196 119.375 239.84 120.187C240.35 119.459 241.361 117.825 242.494 115.899C243.612 113.94 244.512 112.247 244.893 111.454C244.37 112.164 243.348 113.811 242.224 115.737Z" fill="#5D5D5D"/>
<path d="M237.753 254.02C273.65 254.02 302.747 224.921 302.747 189.026C302.747 153.133 273.65 124.034 237.753 124.034C201.861 124.034 172.76 153.134 172.76 189.026C172.76 224.922 201.861 254.02 237.753 254.02ZM299.32 186.657C299.32 186.657 299.698 197.913 296.394 208.082C293.09 218.249 286.17 227.134 286.17 227.134C282.827 231.063 277.865 230.911 275.149 226.792C272.427 222.673 267.665 215.467 264.571 210.778L259.238 202.703C256.141 198.018 257.914 192.565 263.174 190.593L272.232 187.194C277.495 185.222 285.582 182.19 290.204 180.457C294.824 178.722 298.927 181.514 299.32 186.657ZM254.526 129.744C254.526 129.744 265.345 132.86 273.997 139.145C282.647 145.43 288.96 154.757 288.96 154.757C291.661 159.152 289.983 163.821 285.228 165.134C280.47 166.448 272.145 168.75 266.727 170.245L257.402 172.822C251.987 174.319 247.348 170.949 247.099 165.336L246.666 155.668C246.417 150.056 246.03 141.427 245.812 136.496C245.588 131.565 249.511 128.527 254.526 129.744ZM244.123 213.686L250.152 221.251C253.657 225.644 259.037 232.398 262.115 236.261C265.19 240.119 263.803 244.884 259.033 246.848C259.033 246.848 248.444 250.685 237.753 250.685C227.061 250.685 216.475 246.848 216.475 246.848C211.704 244.884 210.318 240.119 213.393 236.261C216.47 232.399 221.852 225.644 225.355 221.251L231.384 213.686C234.887 209.294 240.621 209.294 244.123 213.686ZM186.555 154.758C186.555 154.758 192.863 145.431 201.514 139.146C210.165 132.86 220.986 129.741 220.986 129.741C226 128.529 229.922 131.566 229.702 136.496C229.482 141.428 229.098 150.057 228.848 155.67L228.414 165.338C228.165 170.948 223.526 174.318 218.111 172.823L208.786 170.247C203.367 168.75 195.042 166.448 190.287 165.134C185.529 163.821 183.85 159.149 186.555 154.758ZM185.306 180.452C189.926 182.187 198.015 185.218 203.277 187.192L212.337 190.589C217.598 192.564 219.37 198.014 216.272 202.702L210.939 210.776C207.842 215.466 203.082 222.672 200.362 226.79C197.642 230.909 192.682 231.061 189.341 227.13C189.341 227.13 182.421 218.249 179.117 208.082C175.813 197.912 176.189 186.654 176.189 186.654C176.585 181.514 180.687 178.72 185.306 180.452Z" fill="#E0E0E0"/>
<path d="M234.065 173.769C234.065 171.732 235.718 170.081 237.753 170.081C239.792 170.081 241.444 171.732 241.444 173.769C241.444 175.805 239.793 177.46 237.753 177.46C235.718 177.461 234.065 175.805 234.065 173.769Z" fill="#4A4A4A"/>
<path d="M235.668 173.769C235.668 172.618 236.603 171.684 237.753 171.684C238.905 171.684 239.84 172.618 239.84 173.769C239.84 174.921 238.905 175.856 237.753 175.856C236.603 175.856 235.668 174.922 235.668 173.769Z" fill="#BABABA"/>
<path d="M236.594 173.769C236.594 173.13 237.114 172.61 237.753 172.61C238.395 172.61 238.915 173.13 238.915 173.769C238.915 174.411 238.394 174.929 237.753 174.929C237.114 174.929 236.594 174.411 236.594 173.769Z" fill="#E0E0E0"/>
<path d="M222.103 187.821C220.166 187.191 219.105 185.108 219.734 183.173C220.366 181.234 222.446 180.174 224.383 180.804C226.32 181.433 227.382 183.515 226.752 185.454C226.121 187.389 224.041 188.45 222.103 187.821Z" fill="#4A4A4A"/>
<path d="M222.598 186.295C221.504 185.939 220.904 184.763 221.258 183.67C221.615 182.572 222.791 181.973 223.889 182.329C224.983 182.684 225.583 183.86 225.228 184.956C224.871 186.052 223.694 186.65 222.598 186.295Z" fill="#BABABA"/>
<path d="M222.885 185.413C222.277 185.216 221.942 184.562 222.139 183.954C222.337 183.345 222.992 183.012 223.601 183.211C224.21 183.407 224.543 184.062 224.347 184.672C224.148 185.278 223.495 185.612 222.885 185.413Z" fill="#E0E0E0"/>
<path d="M231.771 203.538C230.574 205.186 228.264 205.552 226.616 204.353C224.968 203.157 224.603 200.848 225.803 199.201C226.998 197.554 229.308 197.186 230.956 198.384C232.602 199.581 232.967 201.89 231.771 203.538Z" fill="#4A4A4A"/>
<path d="M230.472 202.597C229.795 203.529 228.492 203.736 227.56 203.058C226.626 202.382 226.419 201.078 227.098 200.144C227.774 199.214 229.08 199.006 230.014 199.682C230.943 200.36 231.15 201.666 230.472 202.597Z" fill="#BABABA"/>
<path d="M229.722 202.053C229.348 202.568 228.622 202.686 228.104 202.308C227.587 201.934 227.47 201.207 227.847 200.689C228.224 200.17 228.949 200.054 229.467 200.43C229.984 200.807 230.102 201.533 229.722 202.053Z" fill="#E0E0E0"/>
<path d="M249.706 199.203C250.903 200.85 250.536 203.159 248.889 204.355C247.239 205.553 244.933 205.188 243.735 203.538C242.538 201.893 242.903 199.581 244.551 198.384C246.2 197.19 248.508 197.554 249.706 199.203Z" fill="#4A4A4A"/>
<path d="M248.408 200.145C249.087 201.077 248.88 202.381 247.948 203.057C247.014 203.735 245.712 203.531 245.034 202.594C244.358 201.665 244.564 200.36 245.494 199.681C246.426 199.008 247.734 199.212 248.408 200.145Z" fill="#BABABA"/>
<path d="M247.658 200.69C248.035 201.208 247.922 201.934 247.402 202.308C246.885 202.686 246.16 202.569 245.785 202.051C245.406 201.532 245.521 200.809 246.042 200.43C246.557 200.054 247.282 200.171 247.658 200.69Z" fill="#E0E0E0"/>
<path d="M251.126 180.804C253.06 180.173 255.142 181.238 255.773 183.174C256.401 185.112 255.34 187.193 253.401 187.82C251.466 188.451 249.382 187.39 248.753 185.453C248.127 183.516 249.186 181.434 251.126 180.804Z" fill="#4A4A4A"/>
<path d="M251.621 182.329C252.718 181.973 253.891 182.571 254.249 183.67C254.605 184.766 254.008 185.942 252.907 186.296C251.814 186.65 250.635 186.053 250.278 184.956C249.925 183.864 250.523 182.684 251.621 182.329Z" fill="#BABABA"/>
<path d="M251.908 183.213C252.516 183.014 253.17 183.346 253.365 183.956C253.565 184.564 253.231 185.218 252.623 185.413C252.012 185.614 251.359 185.278 251.159 184.669C250.961 184.062 251.296 183.408 251.908 183.213Z" fill="#E0E0E0"/>
<path d="M246.721 189.016C246.721 193.969 242.706 197.983 237.753 197.983C232.802 197.983 228.787 193.969 228.787 189.016C228.787 184.065 232.802 180.05 237.753 180.05C242.706 180.051 246.721 184.065 246.721 189.016Z" fill="#5D5D5D"/>
<path d="M262.116 236.26C259.038 232.398 253.658 225.643 250.153 221.25L244.124 213.685C240.622 209.293 234.888 209.293 231.385 213.685L225.356 221.25C221.853 225.643 216.471 232.397 213.394 236.26C210.319 240.118 211.705 244.883 216.476 246.847C216.476 246.847 227.062 250.684 237.754 250.684C248.445 250.684 259.034 246.847 259.034 246.847C263.803 244.884 265.191 240.118 262.116 236.26ZM253.834 243.619C253.834 243.619 245.833 246.517 237.753 246.517C229.675 246.517 221.674 243.619 221.674 243.619C218.07 242.134 217.02 238.535 219.345 235.618C221.669 232.7 225.737 227.597 228.383 224.276L232.942 218.557C235.589 215.237 239.92 215.237 242.567 218.557L247.124 224.276C249.773 227.596 253.839 232.7 256.165 235.618C258.489 238.535 257.439 242.134 253.834 243.619Z" fill="#C2C2C2"/>
<path d="M290.203 180.455C285.579 182.189 277.494 185.218 272.232 187.192L263.174 190.589C257.911 192.564 256.14 198.016 259.238 202.702L264.57 210.776C267.664 215.466 272.427 222.671 275.147 226.79C277.866 230.909 282.827 231.061 286.168 227.13C286.168 227.13 293.088 218.249 296.393 208.082C299.696 197.912 299.319 186.657 299.319 186.657C298.925 181.513 294.824 178.72 290.203 180.455ZM294.642 190.604C294.642 190.604 294.928 199.107 292.431 206.792C289.935 214.478 284.705 221.189 284.705 221.189C282.178 224.16 278.432 224.044 276.376 220.934C274.318 217.82 270.722 212.374 268.381 208.831L264.352 202.727C262.013 199.186 263.351 195.065 267.326 193.576L274.172 191.007C278.149 189.516 284.258 187.228 287.754 185.915C291.246 184.606 294.344 186.714 294.642 190.604Z" fill="#C2C2C2"/>
<path d="M245.809 136.497C246.028 141.428 246.41 150.056 246.663 155.669L247.095 165.335C247.344 170.948 251.984 174.317 257.401 172.822L266.723 170.246C272.141 168.751 280.465 166.447 285.224 165.135C289.982 163.819 291.658 159.15 288.956 154.755C288.956 154.755 282.645 145.431 273.996 139.146C265.344 132.86 254.522 129.743 254.522 129.743C249.51 128.526 245.586 131.563 245.809 136.497ZM256.831 135.411C256.831 135.411 265.008 137.767 271.546 142.515C278.083 147.265 282.85 154.312 282.85 154.312C284.894 157.633 283.626 161.161 280.033 162.156C276.434 163.149 270.145 164.888 266.054 166.018L259.004 167.964C254.913 169.094 251.407 166.548 251.218 162.307L250.892 155.002C250.7 150.762 250.412 144.243 250.246 140.511C250.078 136.789 253.041 134.491 256.831 135.411Z" fill="#C2C2C2"/>
<path d="M190.284 165.133C195.041 166.447 203.365 168.753 208.782 170.246L218.106 172.822C223.524 174.32 228.162 170.947 228.411 165.337L228.844 155.669C229.095 150.059 229.48 141.428 229.699 136.497C229.92 131.565 225.997 128.528 220.981 129.744C220.981 129.744 210.163 132.862 201.513 139.145C192.863 145.43 186.552 154.757 186.552 154.757C183.848 159.149 185.524 163.821 190.284 165.133ZM192.656 154.315C192.656 154.315 197.424 147.265 203.961 142.515C210.498 137.767 218.675 135.411 218.675 135.411C222.465 134.491 225.429 136.79 225.264 140.514C225.097 144.241 224.807 150.763 224.618 155.004L224.29 162.31C224.102 166.549 220.596 169.095 216.503 167.966L209.455 166.019C205.363 164.89 199.076 163.15 195.476 162.157C191.881 161.161 190.611 157.636 192.656 154.315Z" fill="#C2C2C2"/>
<path d="M200.358 226.792C203.082 222.673 207.845 215.469 210.937 210.776L216.269 202.706C219.37 198.016 217.594 192.565 212.334 190.593L203.275 187.193C198.013 185.218 189.925 182.19 185.303 180.456C180.682 178.723 176.58 181.515 176.188 186.658C176.188 186.658 175.812 197.914 179.115 208.083C182.418 218.25 189.34 227.135 189.34 227.135C192.679 231.063 197.64 230.912 200.358 226.792ZM190.803 221.191C190.803 221.191 185.574 214.479 183.076 206.794C180.577 199.109 180.864 190.606 180.864 190.606C181.162 186.713 184.263 184.609 187.755 185.915C191.249 187.228 197.359 189.516 201.337 191.007L208.182 193.578C212.158 195.065 213.495 199.188 211.155 202.729L207.128 208.833C204.789 212.374 201.19 217.819 199.134 220.935C197.075 224.044 193.33 224.163 190.803 221.191Z" fill="#C2C2C2"/>
<path d="M244.308 189.016C244.308 192.635 241.373 195.57 237.753 195.57C234.135 195.57 231.201 192.635 231.201 189.016C231.201 185.397 234.135 182.463 237.753 182.463C241.373 182.464 244.308 185.397 244.308 189.016Z" fill="#2A2A2A"/>
</g>
<mask id="mask1_8_872" style="mask-type:luminance" maskUnits="userSpaceOnUse" x="137" y="91" width="201" height="169">
<path d="M337.881 91.5566H137.627V259.741H337.881V91.5566Z" fill="white"/>
</mask>
<g mask="url(#mask1_8_872)">
<path d="M237.572 260.505L155.558 260.308C155.755 257.749 156.973 256.683 158.455 255.388C160.029 254.009 163.324 252.278 163.324 248.368C163.324 248.368 214.96 256.84 237.568 257.048" fill="#5D5D5D"/>
<path d="M237.571 257.045C225.78 256.574 206.654 254.021 190.435 252.42C190.435 252.42 194.448 255.333 200.651 257.033C205.994 258.5 227.467 258.749 237.571 258.864" fill="#4A4A4A"/>
<path d="M185.499 255.696C185.524 255.704 185.556 255.711 185.582 255.718C185.034 255.445 184.597 255.156 184.216 254.864C184.467 255.208 184.815 255.469 185.499 255.696Z" fill="#5D5D5D"/>
<path d="M209.822 260.388C209.253 260.406 208.7 260.415 208.177 260.415C202.343 260.415 199.181 259.363 196.566 258.495C194.965 257.96 193.582 257.5 191.859 257.327C189.097 257.052 187.038 256.441 185.584 255.718C185.558 255.711 185.526 255.704 185.501 255.696C184.817 255.468 184.469 255.208 184.218 254.864C183.584 254.377 183.148 253.88 182.944 253.424C182.441 252.311 181.256 251.369 180.832 251.056C180.286 250.977 179.75 250.898 179.224 250.818C179.522 251.117 180.228 251.793 181.474 252.867C182.194 253.488 182.471 254.067 182.74 254.625C183.136 255.445 183.544 256.294 185.134 256.818C186.223 257.177 187.844 257.427 189.558 257.695C191.63 258.02 193.771 258.352 194.892 258.871C195.582 259.189 197.24 259.867 199.801 260.414L209.826 260.439L209.822 260.388Z" fill="#767676"/>
<path d="M182.243 251.972C183.146 252.754 183.511 253.507 183.8 254.113C183.942 254.402 184.061 254.649 184.217 254.865C184.598 255.157 185.035 255.445 185.583 255.719C186.583 256.034 188.112 256.277 189.737 256.53C191.889 256.866 194.113 257.211 195.385 257.799C198.073 259.043 203.264 260.287 209.804 260.004L209.822 260.389C210.261 260.375 210.708 260.359 211.177 260.332L211.144 259.742C203.443 260.165 199.891 258.978 196.753 257.933C195.186 257.413 193.704 256.919 191.917 256.741C186.975 256.246 184.118 254.596 183.479 253.184C183.125 252.401 182.369 251.695 181.828 251.203C181.6 251.168 181.502 251.154 181.276 251.121C181.552 251.369 181.87 251.649 182.243 251.972Z" fill="#3F3F3F"/>
<path d="M195.385 257.798C194.112 257.21 191.889 256.865 189.737 256.529C188.112 256.275 186.583 256.033 185.583 255.718C187.037 256.442 189.097 257.052 191.858 257.327C193.581 257.5 194.965 257.96 196.565 258.495C199.18 259.363 202.342 260.415 208.176 260.415C208.699 260.415 209.252 260.405 209.821 260.388L209.803 260.003C203.264 260.286 198.073 259.042 195.385 257.798Z" fill="#3F3F3F"/>
<path d="M182.243 251.972C181.871 251.65 181.553 251.369 181.276 251.12C181.127 251.097 180.975 251.077 180.83 251.056C181.255 251.369 182.439 252.311 182.942 253.424C183.146 253.88 183.583 254.377 184.216 254.864C184.06 254.648 183.941 254.401 183.799 254.112C183.51 253.507 183.146 252.754 182.243 251.972Z" fill="#3F3F3F"/>
<path d="M173.765 250.003C173.765 250.003 169.543 250.211 169.205 251.12C169.045 251.546 166.719 254.536 166.719 254.536L170.568 254.864L172.76 252.434L176.339 252.194L177.62 250.444L173.765 250.003Z" fill="#4A4A4A"/>
<path d="M176.786 252.96C176.786 252.96 173.504 253.419 173.489 253.564C173.475 253.711 171.651 255.717 171.651 255.717L168.45 256.254L169.566 257.581L171.651 256.254L173.489 254.863L175.347 253.852L177.62 253.789L176.786 252.96Z" fill="#4A4A4A"/>
<path d="M237.571 260.51L319.887 260.345C319.69 257.786 318.474 256.72 316.991 255.423C315.415 254.045 312.122 252.315 312.122 248.404C312.122 248.404 260.18 256.843 237.571 257.051" fill="#5D5D5D"/>
<path d="M237.572 257.05C249.401 256.648 268.681 254.255 285.013 252.456C285.013 252.456 280.999 255.37 274.796 257.069C269.452 258.536 247.673 258.755 237.571 258.869" fill="#4A4A4A"/>
<path d="M289.948 255.732C289.924 255.739 289.889 255.747 289.864 255.755C290.413 255.482 290.85 255.193 291.23 254.9C290.981 255.244 290.634 255.506 289.948 255.732Z" fill="#5D5D5D"/>
<path d="M265.623 260.425C266.192 260.444 266.746 260.453 267.269 260.453C273.103 260.453 276.266 259.401 278.879 258.53C280.481 257.997 281.866 257.536 283.589 257.366C286.348 257.087 288.407 256.476 289.862 255.756C289.887 255.747 289.922 255.739 289.946 255.733C290.633 255.506 290.979 255.245 291.228 254.901C291.862 254.415 292.298 253.917 292.503 253.461C293.007 252.35 294.189 251.408 294.615 251.094C295.161 251.014 295.698 250.935 296.224 250.856C295.925 251.155 295.217 251.831 293.974 252.905C293.255 253.524 292.975 254.105 292.707 254.664C292.312 255.484 291.904 256.333 290.312 256.854C289.223 257.215 287.604 257.467 285.888 257.735C283.817 258.057 281.677 258.39 280.554 258.911C279.864 259.227 278.208 259.906 275.645 260.453L265.621 260.478V260.425H265.623Z" fill="#767676"/>
<path d="M293.204 252.009C292.3 252.79 291.936 253.544 291.645 254.149C291.503 254.44 291.384 254.687 291.229 254.901C290.849 255.195 290.412 255.483 289.863 255.756C288.863 256.071 287.335 256.313 285.708 256.564C283.559 256.902 281.333 257.249 280.061 257.834C277.373 259.079 272.181 260.324 265.641 260.04L265.623 260.426C265.185 260.412 264.738 260.395 264.271 260.369L264.302 259.779C272.002 260.201 275.557 259.015 278.694 257.97C280.26 257.448 281.742 256.956 283.529 256.777C288.472 256.283 291.327 254.632 291.967 253.219C292.32 252.437 293.148 251.721 293.688 251.228C293.918 251.196 293.946 251.189 294.171 251.159C293.894 251.407 293.575 251.687 293.204 252.009Z" fill="#3F3F3F"/>
<path d="M280.062 257.833C281.334 257.249 283.559 256.901 285.709 256.563C287.336 256.312 288.864 256.071 289.864 255.755C288.409 256.476 286.349 257.086 283.591 257.365C281.868 257.535 280.483 257.996 278.881 258.529C276.268 259.4 273.105 260.452 267.271 260.452C266.748 260.452 266.194 260.442 265.625 260.424L265.643 260.038C272.182 260.323 277.373 259.078 280.062 257.833Z" fill="#3F3F3F"/>
<path d="M293.204 252.009C293.574 251.688 293.894 251.407 294.171 251.158C294.32 251.135 294.471 251.114 294.617 251.093C294.191 251.407 293.009 252.349 292.505 253.46C292.3 253.916 291.863 254.414 291.23 254.9C291.385 254.686 291.504 254.439 291.646 254.148C291.937 253.544 292.3 252.79 293.204 252.009Z" fill="#3F3F3F"/>
<path d="M301.68 250.04C301.68 250.04 305.903 250.245 306.244 251.158C306.402 251.583 308.726 254.572 308.726 254.572L304.877 254.9L302.685 252.469L299.106 252.229L297.826 250.481L301.68 250.04Z" fill="#4A4A4A"/>
<path d="M298.66 252.996C298.66 252.996 301.943 253.455 301.958 253.602C301.973 253.748 303.798 255.755 303.798 255.755L306.997 256.292L305.88 257.617L303.798 256.292L301.958 254.899L300.102 253.888L297.828 253.826L298.66 252.996Z" fill="#4A4A4A"/>
<path d="M223.222 256.933C223.098 257.094 222.801 257.311 222.663 257.506C222.508 257.705 222.427 257.897 222.381 258.012C222.5 257.944 222.634 257.808 222.815 257.657C222.91 257.582 223.01 257.501 223.116 257.416C223.224 257.339 223.369 257.257 223.483 257.071C223.588 256.881 223.515 256.624 223.456 256.522C223.387 256.405 223.416 256.359 223.451 256.252C223.551 256.062 223.704 255.936 223.786 255.835C223.664 255.86 223.456 255.922 223.273 256.137C223.233 256.192 223.197 256.275 223.165 256.352C223.16 256.446 223.171 256.55 223.2 256.617C223.255 256.774 223.262 256.831 223.222 256.933Z" fill="#5D5D5D"/>
<path d="M226.001 257.206C225.909 257.354 225.711 257.47 225.571 257.612C225.417 257.745 225.374 257.939 225.391 258.032C225.468 257.952 225.542 257.855 225.702 257.782C225.847 257.69 226.075 257.618 226.248 257.366C226.412 257.085 226.337 256.825 226.314 256.655C226.271 256.479 226.282 256.35 226.259 256.241C226.201 256.312 226.109 256.467 226.101 256.664C226.079 256.852 226.09 257.066 226.001 257.206Z" fill="#5D5D5D"/>
<path d="M229.541 257.436C229.324 257.714 229.026 258.07 229.084 258.272C229.21 258.114 229.485 257.991 229.792 257.591C230.025 257.103 229.845 256.734 229.784 256.573C229.686 256.729 229.696 257.148 229.541 257.436Z" fill="#5D5D5D"/>
<path d="M232.872 257.468C232.831 257.671 232.81 257.839 232.765 257.976C232.716 258.115 232.696 258.298 232.757 258.365C232.789 258.267 232.856 258.211 232.958 258.069C233.061 257.927 233.123 257.721 233.161 257.527C233.253 257.13 233.202 256.727 233.09 256.591C233.027 256.77 232.958 257.067 232.872 257.468Z" fill="#5D5D5D"/>
<path d="M235.506 257.557C235.449 257.725 235.348 257.922 235.292 258.08C235.249 258.258 235.25 258.41 235.269 258.492C235.339 258.414 235.407 258.303 235.484 258.172C235.586 258.037 235.7 257.894 235.785 257.654C235.934 257.165 235.759 256.81 235.693 256.646C235.593 256.811 235.625 257.218 235.506 257.557Z" fill="#5D5D5D"/>
<path d="M238.488 257.715C238.418 257.811 238.28 257.942 238.218 258.081C238.128 258.222 238.191 258.41 238.277 258.419C238.246 258.236 238.463 258.203 238.735 257.876C238.92 257.44 238.751 257.218 238.848 257.089C238.619 257.067 238.573 257.544 238.488 257.715Z" fill="#5D5D5D"/>
<path d="M241.137 257.612C240.733 257.946 240.467 258.298 240.252 258.253C240.315 258.373 240.553 258.35 240.737 258.253C240.933 258.16 241.13 258.001 241.325 257.839C241.365 257.809 241.401 257.776 241.438 257.747L241.423 257.756C241.525 257.691 241.62 257.629 241.716 257.568C241.791 257.48 241.855 257.39 241.906 257.307C241.992 257.123 241.996 257.004 242.024 256.905C241.825 257.031 241.727 257.358 241.294 257.494L241.289 257.496L241.281 257.503C241.239 257.535 241.178 257.573 241.137 257.612Z" fill="#5D5D5D"/>
<path d="M244.764 257.349C244.405 257.768 244.382 258.119 244.221 258.252C244.464 258.289 244.726 257.838 244.966 257.564C245.098 257.443 245.348 257.293 245.402 257.074C245.469 256.864 245.401 256.722 245.383 256.627C245.32 256.702 245.298 256.869 245.206 256.984C245.136 257.114 244.971 257.17 244.764 257.349Z" fill="#5D5D5D"/>
<path d="M248.99 257.003C248.91 257.264 248.809 257.524 248.815 257.733C248.827 257.946 248.855 258.114 248.892 258.215C248.942 258.113 248.99 257.954 249.026 257.761C249.073 257.567 249.184 257.375 249.253 257.135C249.479 256.572 249.378 256.148 249.392 255.927C249.22 256.081 249.159 256.594 248.99 257.003Z" fill="#5D5D5D"/>
<path d="M252.854 256.765C252.729 257.214 252.582 257.616 252.584 257.828C252.737 257.691 252.999 257.345 253.139 256.841C253.291 256.323 253.084 255.839 252.915 255.726C252.928 255.942 252.98 256.314 252.854 256.765Z" fill="#5D5D5D"/>
<path d="M197.223 250.692C198.854 249.264 200.475 248.361 201.191 247.903C200.404 248.199 198.683 249.02 197.029 250.468C196.256 251.204 195.378 251.863 195.133 252.743C194.992 253.151 194.932 253.528 194.817 253.826C194.713 254.135 194.546 254.344 194.401 254.501C194.573 254.382 194.785 254.181 194.928 253.873C195.081 253.571 195.173 253.196 195.334 252.817C195.593 252.03 196.438 251.436 197.223 250.692Z" fill="#5D5D5D"/>
<path d="M200.969 252.327C201.477 251.522 202.157 250.917 202.721 250.423C203.295 249.934 203.771 249.55 204.046 249.281C203.718 249.479 203.201 249.802 202.589 250.258C201.984 250.719 201.261 251.316 200.719 252.171C200.168 253.043 200.107 254.001 199.745 254.63C199.395 255.278 198.803 255.536 198.483 255.731C198.828 255.616 199.486 255.427 199.927 254.739C200.367 254.066 200.46 253.114 200.969 252.327Z" fill="#5D5D5D"/>
<path d="M205.391 253.554C206.212 252.376 207.245 251.572 207.591 251.104C207.129 251.446 206.027 252.135 205.143 253.392C204.922 253.711 204.749 254.026 204.607 254.325C204.457 254.622 204.29 254.88 204.135 255.114C203.805 255.573 203.432 255.829 203.21 256.027C203.468 255.905 203.909 255.7 204.303 255.246C204.486 255.02 204.681 254.753 204.847 254.459C205.005 254.153 205.186 253.847 205.391 253.554Z" fill="#5D5D5D"/>
<path d="M208.791 255.059C209.057 254.443 209.332 253.895 209.604 253.455C209.872 253.018 210.164 252.716 210.299 252.48C210.106 252.652 209.752 252.911 209.428 253.335C209.102 253.758 208.79 254.315 208.521 254.94C208.242 255.564 208.079 256.159 207.707 256.506C207.354 256.871 207.051 257.187 206.901 257.403C207.118 257.244 207.449 257.002 207.858 256.656C208.304 256.312 208.528 255.653 208.791 255.059Z" fill="#5D5D5D"/>
<path d="M213.085 255.409C213.404 254.655 213.886 254.047 213.989 253.714C213.744 253.953 213.174 254.456 212.81 255.302C212.744 255.526 212.652 255.727 212.653 255.947C212.655 256.14 212.657 256.322 212.658 256.493C212.641 256.793 212.427 256.978 212.314 257.11C212.462 257.054 212.776 256.92 212.867 256.523C212.918 256.144 212.91 255.793 213.085 255.409Z" fill="#5D5D5D"/>
<path d="M216.838 255.79C217.186 255.273 217.458 254.8 217.534 254.55C217.316 254.696 216.948 255.097 216.588 255.632C216.443 255.923 216.277 256.18 216.226 256.433C216.173 256.686 216.151 256.887 216.156 257.012C216.312 256.783 216.506 256.315 216.838 255.79Z" fill="#5D5D5D"/>
<path d="M281.268 249.022C280.877 246.686 280.229 244.739 279.954 243.867C280.063 244.796 280.588 246.742 280.978 249.078C281.477 251.375 281.79 253.431 281.235 254.255C281.566 253.909 281.748 253.127 281.718 252.205C281.713 251.269 281.485 250.18 281.268 249.022Z" fill="#5D5D5D"/>
<path d="M278.164 250.96C278.022 249.885 277.825 248.903 277.619 248.101C277.431 247.291 277.316 246.638 277.198 246.232C277.228 246.645 277.272 247.32 277.411 248.142C277.565 248.96 277.731 249.938 277.869 250.987C277.877 251.515 277.887 252.023 277.893 252.504C277.864 252.987 277.835 253.442 277.811 253.856C277.733 254.672 277.658 255.35 277.395 255.684C277.732 255.4 277.895 254.697 278.022 253.879C278.085 253.467 278.127 253.006 278.167 252.525C278.179 252.034 278.166 251.506 278.164 250.96Z" fill="#5D5D5D"/>
<path d="M274.922 252.26C274.812 250.173 274.711 248.422 274.589 247.609C274.537 248.406 274.518 250.211 274.626 252.268C274.639 252.779 274.708 253.292 274.68 253.74C274.647 254.189 274.531 254.617 274.448 255.015C274.255 255.795 274.253 256.494 274.442 256.865C274.338 256.464 274.416 255.831 274.656 255.063C274.762 254.678 274.9 254.252 274.954 253.762C274.998 253.271 274.935 252.784 274.922 252.26Z" fill="#5D5D5D"/>
<path d="M270.779 253.54C270.702 251.853 270.781 250.442 270.702 249.775C270.608 250.41 270.405 251.871 270.483 253.54C270.646 255.21 270.045 256.567 270.159 257.257C270.239 256.934 270.348 256.435 270.547 255.814C270.762 255.194 270.819 254.364 270.779 253.54Z" fill="#5D5D5D"/>
<path d="M267.082 255.066C267.226 253.715 267.029 252.601 266.959 252.088C266.857 252.596 266.928 253.75 266.79 255.023C266.69 255.323 266.695 255.705 266.535 255.902C266.457 256.015 266.343 256.116 266.246 256.253C266.145 256.402 266.133 256.594 266.171 256.738L266.169 256.729C266.287 257.083 266.6 257.054 266.713 257.148C266.855 257.225 266.705 257.406 266.662 257.502C266.709 257.455 266.758 257.405 266.81 257.349C266.854 257.279 266.884 257.152 266.785 257.064C266.628 256.928 266.383 256.857 266.369 256.703V256.7L266.368 256.694C266.318 256.465 266.506 256.337 266.748 256.067C266.875 255.927 266.922 255.745 266.955 255.585C266.999 255.416 267.04 255.241 267.082 255.066Z" fill="#5D5D5D"/>
<path d="M263.803 255.66C263.957 255.088 263.905 254.568 263.901 254.148C263.877 253.722 263.901 253.392 263.905 253.171C263.816 253.366 263.716 253.711 263.688 254.141C263.644 254.566 263.656 255.082 263.521 255.576C263.413 256.091 262.961 256.303 262.625 256.61C262.251 256.923 262.275 257.364 262.332 257.553C262.365 257.336 262.415 256.994 262.763 256.774C263.061 256.561 263.666 256.284 263.803 255.66Z" fill="#5D5D5D"/>
<path d="M259.724 255.993C259.916 255.59 260.138 255.235 260.207 254.891C260.275 254.547 260.312 254.274 260.313 254.106C260.225 254.263 260.118 254.512 260.005 254.821C259.898 255.129 259.652 255.456 259.473 255.836C259.222 256.182 259.018 256.523 258.815 256.783C258.6 257.035 258.436 257.253 258.344 257.406C258.49 257.318 258.71 257.152 258.973 256.927C259.225 256.69 259.464 256.352 259.724 255.993Z" fill="#5D5D5D"/>
<path d="M256.881 256.239C256.748 255.696 256.687 255.331 256.672 255.091C256.627 255.178 256.509 255.343 256.515 255.562C256.489 255.787 256.552 256.039 256.591 256.283C256.724 256.771 256.244 256.902 256.081 257.061C256.183 257.057 256.365 257.074 256.572 256.971C256.817 256.886 256.945 256.516 256.881 256.239Z" fill="#5D5D5D"/>
</g>
<path d="M207.359 33.0943C207.359 37.2932 206.601 40.9218 205.085 43.9802C203.569 47.0387 201.489 49.3973 198.845 51.0561C196.201 52.7149 193.182 53.5443 189.786 53.5443C186.391 53.5443 183.372 52.7149 180.728 51.0561C178.084 49.3973 176.004 47.0387 174.488 43.9802C172.972 40.9218 172.213 37.2932 172.213 33.0943C172.213 28.8954 172.972 25.2668 174.488 22.2084C176.004 19.1499 178.084 16.7913 180.728 15.1325C183.372 13.4737 186.391 12.6443 189.786 12.6443C193.182 12.6443 196.201 13.4737 198.845 15.1325C201.489 16.7913 203.569 19.1499 205.085 22.2084C206.601 25.2668 207.359 28.8954 207.359 33.0943ZM202.694 33.0943C202.694 29.6471 202.117 26.7377 200.964 24.3661C199.824 21.9945 198.275 20.1996 196.318 18.9815C194.374 17.7633 192.197 17.1542 189.786 17.1542C187.376 17.1542 185.192 17.7633 183.235 18.9815C181.292 20.1996 179.743 21.9945 178.59 24.3661C177.449 26.7377 176.879 29.6471 176.879 33.0943C176.879 36.5415 177.449 39.4509 178.59 41.8225C179.743 44.1941 181.292 45.9889 183.235 47.2071C185.192 48.4253 187.376 49.0344 189.786 49.0344C192.197 49.0344 194.374 48.4253 196.318 47.2071C198.275 45.9889 199.824 44.1941 200.964 41.8225C202.117 39.4509 202.694 36.5415 202.694 33.0943ZM226.974 53.6221C224.278 53.6221 221.913 52.9806 219.878 51.6976C217.857 50.4146 216.276 48.6197 215.135 46.3129C214.008 44.0061 213.444 41.3106 213.444 38.2262C213.444 35.116 214.008 32.401 215.135 30.0812C216.276 27.7615 217.857 25.9601 219.878 24.6771C221.913 23.3941 224.278 22.7527 226.974 22.7527C229.669 22.7527 232.028 23.3941 234.049 24.6771C236.084 25.9601 237.665 27.7615 238.793 30.0812C239.933 32.401 240.503 35.116 240.503 38.2262C240.503 41.3106 239.933 44.0061 238.793 46.3129C237.665 48.6197 236.084 50.4146 234.049 51.6976C232.028 52.9806 229.669 53.6221 226.974 53.6221ZM226.974 49.5009C229.021 49.5009 230.706 48.9761 232.028 47.9264C233.35 46.8767 234.328 45.4965 234.963 43.7858C235.598 42.0752 235.916 40.222 235.916 38.2262C235.916 36.2305 235.598 34.3708 234.963 32.6472C234.328 30.9236 233.35 29.5304 232.028 28.4678C230.706 27.4051 229.021 26.8738 226.974 26.8738C224.926 26.8738 223.241 27.4051 221.919 28.4678C220.598 29.5304 219.619 30.9236 218.984 32.6472C218.349 34.3708 218.032 36.2305 218.032 38.2262C218.032 40.222 218.349 42.0752 218.984 43.7858C219.619 45.4965 220.598 46.8767 221.919 47.9264C223.241 48.9761 224.926 49.5009 226.974 49.5009ZM247.506 64.197V23.1414H251.938V27.8846H252.483C252.82 27.3662 253.286 26.7053 253.882 25.9018C254.491 25.0854 255.36 24.3596 256.487 23.7246C257.628 23.0766 259.17 22.7527 261.114 22.7527C263.628 22.7527 265.844 23.3812 267.762 24.6383C269.68 25.8953 271.177 27.6772 272.252 29.984C273.328 32.2908 273.866 35.0123 273.866 38.1485C273.866 41.3106 273.328 44.0515 272.252 46.3712C271.177 48.678 269.686 50.4664 267.781 51.7365C265.876 52.9935 263.68 53.6221 261.191 53.6221C259.273 53.6221 257.738 53.3045 256.584 52.6695C255.431 52.0216 254.543 51.2894 253.921 50.4729C253.299 49.6435 252.82 48.9567 252.483 48.4124H252.094V64.197H247.506ZM252.016 38.0707C252.016 40.3257 252.347 42.3149 253.008 44.0385C253.668 45.7492 254.634 47.0905 255.904 48.0625C257.174 49.0215 258.729 49.5009 260.569 49.5009C262.487 49.5009 264.088 48.9955 265.371 47.9847C266.667 46.9609 267.639 45.5872 268.287 43.8636C268.948 42.127 269.278 40.1961 269.278 38.0707C269.278 35.9713 268.954 34.0792 268.306 32.3945C267.671 30.6968 266.706 29.3555 265.41 28.3706C264.127 27.3727 262.513 26.8738 260.569 26.8738C258.703 26.8738 257.135 27.3468 255.865 28.2928C254.595 29.2259 253.636 30.5348 252.988 32.2195C252.34 33.8913 252.016 35.8417 252.016 38.0707ZM302.014 29.8285L297.893 30.9949C297.633 30.308 297.251 29.6406 296.746 28.9926C296.253 28.3317 295.579 27.7874 294.724 27.3597C293.869 26.9321 292.774 26.7182 291.439 26.7182C289.611 26.7182 288.089 27.1394 286.871 27.9818C285.665 28.8112 285.063 29.8674 285.063 31.1504C285.063 32.2908 285.477 33.1915 286.307 33.8524C287.136 34.5133 288.432 35.0641 290.195 35.5047L294.627 36.5933C297.296 37.2413 299.286 38.2327 300.595 39.5675C301.904 40.8894 302.558 42.5936 302.558 44.68C302.558 46.3907 302.066 47.9199 301.081 49.2677C300.109 50.6155 298.748 51.6781 296.998 52.4557C295.249 53.2333 293.214 53.6221 290.894 53.6221C287.849 53.6221 285.328 52.9611 283.333 51.6393C281.337 50.3174 280.073 48.3864 279.542 45.8464L283.896 44.7578C284.311 46.3648 285.095 47.57 286.248 48.3735C287.415 49.177 288.938 49.5787 290.817 49.5787C292.955 49.5787 294.653 49.1251 295.91 48.218C297.18 47.2978 297.815 46.1963 297.815 44.9133C297.815 43.8765 297.452 43.0083 296.726 42.3085C296 41.5957 294.886 41.0644 293.383 40.7144L288.406 39.5481C285.672 38.9001 283.663 37.8958 282.38 36.535C281.11 35.1613 280.475 33.4442 280.475 31.3836C280.475 29.6989 280.948 28.2086 281.894 26.9126C282.853 25.6167 284.156 24.5994 285.801 23.8607C287.46 23.122 289.339 22.7527 291.439 22.7527C294.394 22.7527 296.713 23.4006 298.398 24.6966C300.096 25.9925 301.301 27.7032 302.014 29.8285ZM315.529 13.1886L315.14 41.803H310.63L310.241 13.1886H315.529ZM312.885 53.311C311.926 53.311 311.103 52.9676 310.416 52.2808C309.729 51.5939 309.386 50.771 309.386 49.812C309.386 48.853 309.729 48.0301 310.416 47.3432C311.103 46.6564 311.926 46.3129 312.885 46.3129C313.844 46.3129 314.667 46.6564 315.354 47.3432C316.041 48.0301 316.384 48.853 316.384 49.812C316.384 50.447 316.222 51.0302 315.898 51.5615C315.587 52.0928 315.166 52.5205 314.635 52.8445C314.116 53.1555 313.533 53.311 312.885 53.311Z" fill="white"/>
<path d="M54.5586 312.725V293.185H66.3513V295.284H56.9247V301.886H65.7407V303.985H56.9247V310.626H66.504V312.725H54.5586ZM70.6162 312.725V293.185H77.2186C78.7451 293.185 79.9982 293.445 80.9777 293.967C81.9573 294.482 82.6824 295.191 83.1531 296.095C83.6238 296.998 83.8591 298.025 83.8591 299.176C83.8591 300.328 83.6238 301.349 83.1531 302.239C82.6824 303.13 81.9605 303.829 80.9873 304.338C80.0141 304.841 78.7706 305.092 77.2567 305.092H71.9137V302.955H77.1804C78.2236 302.955 79.0632 302.802 79.6992 302.497C80.3417 302.191 80.806 301.759 81.0922 301.199C81.3848 300.633 81.5311 299.959 81.5311 299.176C81.5311 298.394 81.3848 297.71 81.0922 297.125C80.7996 296.54 80.3321 296.088 79.6897 295.77C79.0473 295.446 78.1981 295.284 77.1422 295.284H72.9823V312.725H70.6162ZM79.8137 303.947L84.6224 312.725H81.8746L77.1422 303.947H79.8137ZM87.802 312.725V293.185H94.4044C95.9309 293.185 97.184 293.445 98.1636 293.967C99.1431 294.482 99.8682 295.191 100.339 296.095C100.81 296.998 101.045 298.025 101.045 299.176C101.045 300.328 100.81 301.349 100.339 302.239C99.8682 303.13 99.1463 303.829 98.1731 304.338C97.1999 304.841 95.9564 305.092 94.4425 305.092H89.0996V302.955H94.3662C95.4094 302.955 96.249 302.802 96.8851 302.497C97.5275 302.191 97.9918 301.759 98.278 301.199C98.5706 300.633 98.7169 299.959 98.7169 299.176C98.7169 298.394 98.5706 297.71 98.278 297.125C97.9855 296.54 97.5179 296.088 96.8755 295.77C96.2331 295.446 95.3839 295.284 94.3281 295.284H90.1682V312.725H87.802ZM96.9995 303.947L101.808 312.725H99.0604L94.3281 303.947H96.9995ZM121.475 302.955C121.475 305.016 121.103 306.797 120.358 308.298C119.614 309.799 118.593 310.956 117.296 311.771C115.998 312.585 114.516 312.992 112.85 312.992C111.183 312.992 109.701 312.585 108.403 311.771C107.106 310.956 106.085 309.799 105.341 308.298C104.597 306.797 104.225 305.016 104.225 302.955C104.225 300.894 104.597 299.113 105.341 297.612C106.085 296.111 107.106 294.953 108.403 294.139C109.701 293.325 111.183 292.918 112.85 292.918C114.516 292.918 115.998 293.325 117.296 294.139C118.593 294.953 119.614 296.111 120.358 297.612C121.103 299.113 121.475 300.894 121.475 302.955ZM119.185 302.955C119.185 301.263 118.902 299.835 118.336 298.671C117.776 297.507 117.016 296.626 116.055 296.028C115.101 295.43 114.033 295.131 112.85 295.131C111.667 295.131 110.595 295.43 109.634 296.028C108.68 296.626 107.92 297.507 107.354 298.671C106.794 299.835 106.514 301.263 106.514 302.955C106.514 304.647 106.794 306.075 107.354 307.239C107.92 308.403 108.68 309.284 109.634 309.881C110.595 310.479 111.667 310.778 112.85 310.778C114.033 310.778 115.101 310.479 116.055 309.881C117.016 309.284 117.776 308.403 118.336 307.239C118.902 306.075 119.185 304.647 119.185 302.955ZM125.453 312.725V293.185H132.056C133.582 293.185 134.835 293.445 135.815 293.967C136.794 294.482 137.52 295.191 137.99 296.095C138.461 296.998 138.696 298.025 138.696 299.176C138.696 300.328 138.461 301.349 137.99 302.239C137.52 303.13 136.798 303.829 135.824 304.338C134.851 304.841 133.608 305.092 132.094 305.092H126.751V302.955H132.018C133.061 302.955 133.9 302.802 134.536 302.497C135.179 302.191 135.643 301.759 135.929 301.199C136.222 300.633 136.368 299.959 136.368 299.176C136.368 298.394 136.222 297.71 135.929 297.125C135.637 296.54 135.169 296.088 134.527 295.77C133.884 295.446 133.035 295.284 131.979 295.284H127.82V312.725H125.453ZM134.651 303.947L139.46 312.725H136.712L131.979 303.947H134.651Z" fill="white"/>
<path d="M150.49 301.799V302.961H145.867V301.799H150.49ZM147.215 299.662H148.585V308.164C148.585 308.551 148.641 308.842 148.754 309.035C148.87 309.225 149.017 309.353 149.195 309.419C149.377 309.481 149.569 309.512 149.77 309.512C149.921 309.512 150.045 309.504 150.142 309.488C150.239 309.469 150.316 309.453 150.374 309.442L150.653 310.673C150.56 310.708 150.43 310.743 150.264 310.778C150.097 310.816 149.886 310.836 149.631 310.836C149.244 310.836 148.864 310.752 148.492 310.586C148.125 310.419 147.819 310.166 147.575 309.825C147.335 309.484 147.215 309.055 147.215 308.536V299.662ZM154.114 305.353V310.719H152.744V298.826H154.114V303.193H154.23C154.439 302.732 154.753 302.366 155.171 302.095C155.593 301.82 156.155 301.683 156.855 301.683C157.463 301.683 157.996 301.805 158.452 302.049C158.909 302.289 159.264 302.659 159.515 303.158C159.771 303.654 159.899 304.285 159.899 305.051V310.719H158.528V305.144C158.528 304.436 158.344 303.888 157.976 303.501C157.612 303.11 157.107 302.914 156.46 302.914C156.011 302.914 155.609 303.009 155.252 303.199C154.9 303.388 154.621 303.665 154.416 304.029C154.215 304.393 154.114 304.834 154.114 305.353ZM166.146 310.905C165.287 310.905 164.545 310.716 163.922 310.336C163.302 309.953 162.824 309.419 162.487 308.733C162.154 308.044 161.988 307.243 161.988 306.329C161.988 305.415 162.154 304.61 162.487 303.913C162.824 303.212 163.293 302.666 163.893 302.275C164.497 301.88 165.201 301.683 166.007 301.683C166.471 301.683 166.93 301.76 167.383 301.915C167.836 302.07 168.248 302.322 168.62 302.67C168.992 303.015 169.288 303.472 169.509 304.041C169.729 304.61 169.84 305.311 169.84 306.143V306.724H162.964V305.539H168.446C168.446 305.036 168.345 304.587 168.144 304.192C167.946 303.797 167.664 303.485 167.296 303.257C166.932 303.028 166.502 302.914 166.007 302.914C165.461 302.914 164.988 303.05 164.59 303.321C164.195 303.588 163.891 303.936 163.678 304.366C163.465 304.796 163.358 305.256 163.358 305.748V306.538C163.358 307.212 163.475 307.783 163.707 308.251C163.943 308.716 164.27 309.07 164.688 309.314C165.107 309.554 165.592 309.674 166.146 309.674C166.506 309.674 166.831 309.624 167.122 309.523C167.416 309.419 167.67 309.264 167.883 309.059C168.095 308.849 168.26 308.59 168.376 308.28L169.7 308.652C169.561 309.101 169.327 309.496 168.998 309.837C168.669 310.174 168.262 310.437 167.778 310.627C167.294 310.812 166.75 310.905 166.146 310.905ZM176.524 310.719V301.799H177.848V303.146H177.941C178.104 302.705 178.398 302.347 178.824 302.072C179.25 301.797 179.73 301.66 180.264 301.66C180.365 301.66 180.491 301.662 180.642 301.665C180.793 301.669 180.907 301.675 180.984 301.683V303.077C180.938 303.065 180.832 303.048 180.665 303.024C180.502 302.997 180.33 302.984 180.148 302.984C179.715 302.984 179.327 303.075 178.987 303.257C178.65 303.435 178.383 303.683 178.185 304C177.992 304.314 177.895 304.672 177.895 305.074V310.719H176.524ZM186.078 310.905C185.218 310.905 184.477 310.716 183.853 310.336C183.234 309.953 182.756 309.419 182.419 308.733C182.086 308.044 181.92 307.243 181.92 306.329C181.92 305.415 182.086 304.61 182.419 303.913C182.756 303.212 183.224 302.666 183.824 302.275C184.428 301.88 185.133 301.683 185.938 301.683C186.403 301.683 186.862 301.76 187.315 301.915C187.768 302.07 188.18 302.322 188.552 302.67C188.923 303.015 189.22 303.472 189.44 304.041C189.661 304.61 189.771 305.311 189.771 306.143V306.724H182.895V305.539H188.378C188.378 305.036 188.277 304.587 188.076 304.192C187.878 303.797 187.595 303.485 187.228 303.257C186.864 303.028 186.434 302.914 185.938 302.914C185.392 302.914 184.92 303.05 184.521 303.321C184.126 303.588 183.822 303.936 183.61 304.366C183.397 304.796 183.29 305.256 183.29 305.748V306.538C183.29 307.212 183.406 307.783 183.639 308.251C183.875 308.716 184.202 309.07 184.62 309.314C185.038 309.554 185.524 309.674 186.078 309.674C186.438 309.674 186.763 309.624 187.053 309.523C187.348 309.419 187.601 309.264 187.814 309.059C188.027 308.849 188.192 308.59 188.308 308.28L189.632 308.652C189.493 309.101 189.258 309.496 188.929 309.837C188.6 310.174 188.194 310.437 187.71 310.627C187.226 310.812 186.682 310.905 186.078 310.905ZM197.943 314.065V309.349H197.827C197.726 309.512 197.583 309.717 197.397 309.964C197.211 310.208 196.946 310.427 196.601 310.621C196.257 310.81 195.798 310.905 195.225 310.905C194.481 310.905 193.825 310.718 193.256 310.342C192.687 309.963 192.242 309.428 191.92 308.739C191.599 308.046 191.438 307.227 191.438 306.282C191.438 305.346 191.599 304.532 191.92 303.843C192.242 303.154 192.689 302.622 193.262 302.246C193.835 301.871 194.497 301.683 195.248 301.683C195.829 301.683 196.288 301.78 196.624 301.973C196.965 302.163 197.224 302.38 197.403 302.624C197.585 302.864 197.726 303.061 197.827 303.216H197.989V301.799H199.313V314.065H197.943ZM195.411 309.674C195.96 309.674 196.425 309.531 196.804 309.244C197.184 308.954 197.472 308.553 197.67 308.042C197.867 307.527 197.966 306.933 197.966 306.259C197.966 305.593 197.869 305.011 197.676 304.511C197.482 304.008 197.195 303.617 196.816 303.338C196.437 303.055 195.968 302.914 195.411 302.914C194.83 302.914 194.346 303.063 193.959 303.361C193.575 303.656 193.287 304.056 193.093 304.563C192.904 305.067 192.809 305.632 192.809 306.259C192.809 306.894 192.906 307.471 193.099 307.99C193.297 308.505 193.587 308.915 193.97 309.221C194.357 309.523 194.838 309.674 195.411 309.674ZM207.444 307.072V301.799H208.815V310.719H207.444V309.21H207.351C207.142 309.662 206.817 310.048 206.375 310.365C205.934 310.679 205.376 310.836 204.703 310.836C204.145 310.836 203.65 310.714 203.216 310.47C202.782 310.222 202.442 309.85 202.194 309.355C201.946 308.855 201.822 308.226 201.822 307.467V301.799H203.193V307.374C203.193 308.025 203.375 308.544 203.739 308.931C204.106 309.318 204.575 309.512 205.144 309.512C205.485 309.512 205.831 309.424 206.184 309.25C206.54 309.076 206.838 308.809 207.078 308.449C207.322 308.089 207.444 307.63 207.444 307.072ZM215.065 310.905C214.205 310.905 213.464 310.716 212.841 310.336C212.221 309.953 211.743 309.419 211.406 308.733C211.073 308.044 210.907 307.243 210.907 306.329C210.907 305.415 211.073 304.61 211.406 303.913C211.743 303.212 212.211 302.666 212.812 302.275C213.416 301.88 214.12 301.683 214.926 301.683C215.39 301.683 215.849 301.76 216.302 301.915C216.755 302.07 217.167 302.322 217.539 302.67C217.911 303.015 218.207 303.472 218.428 304.041C218.648 304.61 218.759 305.311 218.759 306.143V306.724H211.882V305.539H217.365C217.365 305.036 217.264 304.587 217.063 304.192C216.865 303.797 216.583 303.485 216.215 303.257C215.851 303.028 215.421 302.914 214.926 302.914C214.38 302.914 213.907 303.05 213.509 303.321C213.114 303.588 212.81 303.936 212.597 304.366C212.384 304.796 212.277 305.256 212.277 305.748V306.538C212.277 307.212 212.393 307.783 212.626 308.251C212.862 308.716 213.189 309.07 213.607 309.314C214.025 309.554 214.511 309.674 215.065 309.674C215.425 309.674 215.75 309.624 216.041 309.523C216.335 309.419 216.588 309.264 216.801 309.059C217.014 308.849 217.179 308.59 217.295 308.28L218.619 308.652C218.48 309.101 218.246 309.496 217.916 309.837C217.587 310.174 217.181 310.437 216.697 310.627C216.213 310.812 215.669 310.905 215.065 310.905ZM227.162 303.797L225.931 304.145C225.854 303.94 225.739 303.741 225.588 303.547C225.441 303.35 225.24 303.187 224.984 303.059C224.729 302.931 224.402 302.868 224.003 302.868C223.457 302.868 223.002 302.993 222.638 303.245C222.278 303.493 222.098 303.808 222.098 304.192C222.098 304.532 222.222 304.802 222.47 304.999C222.717 305.196 223.105 305.361 223.631 305.493L224.955 305.818C225.753 306.011 226.347 306.308 226.738 306.706C227.129 307.101 227.325 307.61 227.325 308.234C227.325 308.745 227.178 309.202 226.883 309.604C226.593 310.007 226.186 310.325 225.664 310.557C225.141 310.789 224.533 310.905 223.84 310.905C222.93 310.905 222.177 310.708 221.581 310.313C220.985 309.918 220.607 309.341 220.449 308.582L221.749 308.257C221.873 308.737 222.108 309.097 222.452 309.337C222.801 309.577 223.256 309.697 223.817 309.697C224.456 309.697 224.963 309.562 225.339 309.291C225.718 309.016 225.908 308.687 225.908 308.304C225.908 307.994 225.799 307.734 225.583 307.525C225.366 307.312 225.033 307.154 224.584 307.049L223.097 306.701C222.28 306.507 221.68 306.207 221.296 305.8C220.917 305.39 220.727 304.877 220.727 304.261C220.727 303.758 220.869 303.313 221.151 302.926C221.438 302.539 221.827 302.235 222.319 302.014C222.814 301.793 223.376 301.683 224.003 301.683C224.886 301.683 225.579 301.876 226.082 302.264C226.589 302.651 226.949 303.162 227.162 303.797ZM233.267 301.799V302.961H228.645V301.799H233.267ZM229.992 299.662H231.363V308.164C231.363 308.551 231.419 308.842 231.531 309.035C231.647 309.225 231.794 309.353 231.972 309.419C232.154 309.481 232.346 309.512 232.547 309.512C232.698 309.512 232.822 309.504 232.919 309.488C233.016 309.469 233.093 309.453 233.151 309.442L233.43 310.673C233.337 310.708 233.207 310.743 233.041 310.778C232.874 310.816 232.663 310.836 232.408 310.836C232.021 310.836 231.641 310.752 231.27 310.586C230.902 310.419 230.596 310.166 230.352 309.825C230.112 309.484 229.992 309.055 229.992 308.536V299.662ZM238.973 310.905C238.114 310.905 237.372 310.716 236.749 310.336C236.13 309.953 235.651 309.419 235.315 308.733C234.982 308.044 234.815 307.243 234.815 306.329C234.815 305.415 234.982 304.61 235.315 303.913C235.651 303.212 236.12 302.666 236.72 302.275C237.324 301.88 238.029 301.683 238.834 301.683C239.299 301.683 239.757 301.76 240.21 301.915C240.663 302.07 241.076 302.322 241.447 302.67C241.819 303.015 242.115 303.472 242.336 304.041C242.557 304.61 242.667 305.311 242.667 306.143V306.724H235.791V305.539H241.273C241.273 305.036 241.173 304.587 240.971 304.192C240.774 303.797 240.491 303.485 240.123 303.257C239.759 303.028 239.33 302.914 238.834 302.914C238.288 302.914 237.816 303.05 237.417 303.321C237.022 303.588 236.718 303.936 236.505 304.366C236.292 304.796 236.186 305.256 236.186 305.748V306.538C236.186 307.212 236.302 307.783 236.534 308.251C236.77 308.716 237.098 309.07 237.516 309.314C237.934 309.554 238.42 309.674 238.973 309.674C239.333 309.674 239.659 309.624 239.949 309.523C240.243 309.419 240.497 309.264 240.71 309.059C240.923 308.849 241.087 308.59 241.203 308.28L242.528 308.652C242.388 309.101 242.154 309.496 241.825 309.837C241.496 310.174 241.089 310.437 240.605 310.627C240.121 310.812 239.577 310.905 238.973 310.905ZM248.12 310.905C247.377 310.905 246.721 310.718 246.152 310.342C245.582 309.963 245.137 309.428 244.816 308.739C244.494 308.046 244.334 307.227 244.334 306.282C244.334 305.346 244.494 304.532 244.816 303.843C245.137 303.154 245.584 302.622 246.157 302.246C246.73 301.871 247.392 301.683 248.144 301.683C248.724 301.683 249.183 301.78 249.52 301.973C249.861 302.163 250.12 302.38 250.298 302.624C250.48 302.864 250.621 303.061 250.722 303.216H250.838V298.826H252.209V310.719H250.885V309.349H250.722C250.621 309.512 250.478 309.717 250.292 309.964C250.107 310.208 249.841 310.427 249.497 310.621C249.152 310.81 248.693 310.905 248.12 310.905ZM248.306 309.674C248.856 309.674 249.321 309.531 249.7 309.244C250.079 308.954 250.368 308.553 250.565 308.042C250.763 307.527 250.862 306.933 250.862 306.259C250.862 305.593 250.765 305.011 250.571 304.511C250.378 304.008 250.091 303.617 249.712 303.338C249.332 303.055 248.864 302.914 248.306 302.914C247.725 302.914 247.241 303.063 246.854 303.361C246.471 303.656 246.183 304.056 245.989 304.563C245.799 305.067 245.704 305.632 245.704 306.259C245.704 306.894 245.801 307.471 245.995 307.99C246.192 308.505 246.483 308.915 246.866 309.221C247.253 309.523 247.733 309.674 248.306 309.674ZM259.509 314.065V301.799H260.833V303.216H260.996C261.096 303.061 261.236 302.864 261.414 302.624C261.596 302.38 261.855 302.163 262.192 301.973C262.533 301.78 262.994 301.683 263.574 301.683C264.325 301.683 264.988 301.871 265.561 302.246C266.134 302.622 266.581 303.154 266.902 303.843C267.223 304.532 267.384 305.346 267.384 306.282C267.384 307.227 267.223 308.046 266.902 308.739C266.581 309.428 266.136 309.963 265.566 310.342C264.997 310.718 264.341 310.905 263.598 310.905C263.025 310.905 262.566 310.81 262.221 310.621C261.877 310.427 261.611 310.208 261.426 309.964C261.24 309.717 261.096 309.512 260.996 309.349H260.88V314.065H259.509ZM260.856 306.259C260.856 306.933 260.955 307.527 261.153 308.042C261.35 308.553 261.639 308.954 262.018 309.244C262.397 309.531 262.862 309.674 263.412 309.674C263.985 309.674 264.463 309.523 264.846 309.221C265.233 308.915 265.524 308.505 265.717 307.99C265.915 307.471 266.014 306.894 266.014 306.259C266.014 305.632 265.917 305.067 265.723 304.563C265.533 304.056 265.245 303.656 264.858 303.361C264.475 303.063 263.993 302.914 263.412 302.914C262.854 302.914 262.386 303.055 262.006 303.338C261.627 303.617 261.34 304.008 261.147 304.511C260.953 305.011 260.856 305.593 260.856 306.259ZM272.1 310.929C271.535 310.929 271.022 310.822 270.561 310.609C270.1 310.392 269.734 310.081 269.463 309.674C269.192 309.264 269.057 308.768 269.057 308.187C269.057 307.676 269.157 307.262 269.359 306.945C269.56 306.623 269.829 306.372 270.166 306.19C270.503 306.008 270.875 305.872 271.281 305.783C271.691 305.69 272.104 305.617 272.518 305.562C273.06 305.493 273.5 305.44 273.836 305.406C274.177 305.367 274.425 305.303 274.58 305.214C274.739 305.125 274.818 304.97 274.818 304.749V304.703C274.818 304.13 274.661 303.685 274.347 303.367C274.038 303.05 273.567 302.891 272.936 302.891C272.282 302.891 271.769 303.034 271.397 303.321C271.026 303.607 270.764 303.913 270.613 304.238L269.312 303.774C269.545 303.232 269.854 302.81 270.241 302.508C270.633 302.202 271.058 301.989 271.519 301.869C271.984 301.745 272.441 301.683 272.89 301.683C273.176 301.683 273.505 301.718 273.877 301.787C274.253 301.853 274.615 301.991 274.963 302.2C275.315 302.409 275.608 302.724 275.84 303.146C276.072 303.568 276.188 304.134 276.188 304.842V310.719H274.818V309.512H274.748C274.655 309.705 274.5 309.912 274.284 310.133C274.067 310.354 273.778 310.541 273.418 310.696C273.058 310.851 272.619 310.929 272.1 310.929ZM272.309 309.697C272.851 309.697 273.308 309.591 273.68 309.378C274.055 309.165 274.338 308.89 274.528 308.553C274.721 308.216 274.818 307.862 274.818 307.49V306.236C274.76 306.306 274.632 306.37 274.435 306.428C274.241 306.482 274.016 306.53 273.761 306.573C273.509 306.612 273.263 306.646 273.023 306.677C272.787 306.704 272.596 306.728 272.448 306.747C272.092 306.794 271.759 306.869 271.449 306.974C271.144 307.074 270.896 307.227 270.706 307.432C270.52 307.634 270.427 307.909 270.427 308.257C270.427 308.733 270.604 309.093 270.956 309.337C271.312 309.577 271.763 309.697 272.309 309.697ZM282.291 314.251C281.629 314.251 281.06 314.165 280.583 313.995C280.107 313.828 279.71 313.608 279.393 313.333C279.079 313.062 278.829 312.772 278.644 312.462L279.735 311.695C279.859 311.858 280.016 312.044 280.206 312.253C280.396 312.466 280.655 312.65 280.984 312.804C281.317 312.963 281.753 313.043 282.291 313.043C283.011 313.043 283.605 312.868 284.074 312.52C284.542 312.171 284.776 311.625 284.776 310.882V309.07H284.66C284.56 309.233 284.416 309.434 284.231 309.674C284.049 309.91 283.785 310.121 283.441 310.307C283.1 310.489 282.639 310.58 282.059 310.58C281.338 310.58 280.692 310.41 280.119 310.069C279.55 309.728 279.099 309.233 278.766 308.582C278.436 307.932 278.272 307.142 278.272 306.213C278.272 305.299 278.433 304.503 278.754 303.826C279.075 303.144 279.523 302.618 280.096 302.246C280.669 301.871 281.331 301.683 282.082 301.683C282.662 301.683 283.123 301.78 283.464 301.973C283.809 302.163 284.072 302.38 284.254 302.624C284.44 302.864 284.583 303.061 284.684 303.216H284.823V301.799H286.147V310.975C286.147 311.742 285.973 312.365 285.624 312.845C285.28 313.329 284.815 313.683 284.231 313.908C283.65 314.136 283.003 314.251 282.291 314.251ZM282.244 309.349C282.794 309.349 283.259 309.223 283.638 308.971C284.018 308.72 284.306 308.358 284.504 307.885C284.701 307.413 284.8 306.848 284.8 306.19C284.8 305.547 284.703 304.98 284.509 304.488C284.316 303.996 284.029 303.611 283.65 303.332C283.27 303.053 282.802 302.914 282.244 302.914C281.664 302.914 281.18 303.061 280.792 303.355C280.409 303.65 280.121 304.045 279.927 304.54C279.737 305.036 279.643 305.586 279.643 306.19C279.643 306.809 279.739 307.357 279.933 307.833C280.13 308.305 280.421 308.677 280.804 308.948C281.191 309.215 281.671 309.349 282.244 309.349ZM292.396 310.905C291.537 310.905 290.795 310.716 290.172 310.336C289.552 309.953 289.074 309.419 288.737 308.733C288.404 308.044 288.238 307.243 288.238 306.329C288.238 305.415 288.404 304.61 288.737 303.913C289.074 303.212 289.543 302.666 290.143 302.275C290.747 301.88 291.451 301.683 292.257 301.683C292.721 301.683 293.18 301.76 293.633 301.915C294.086 302.07 294.498 302.322 294.87 302.67C295.242 303.015 295.538 303.472 295.759 304.041C295.979 304.61 296.09 305.311 296.09 306.143V306.724H289.213V305.539H294.696C294.696 305.036 294.595 304.587 294.394 304.192C294.196 303.797 293.914 303.485 293.546 303.257C293.182 303.028 292.752 302.914 292.257 302.914C291.711 302.914 291.238 303.05 290.84 303.321C290.445 303.588 290.141 303.936 289.928 304.366C289.715 304.796 289.608 305.256 289.608 305.748V306.538C289.608 307.212 289.725 307.783 289.957 308.251C290.193 308.716 290.52 309.07 290.938 309.314C291.356 309.554 291.842 309.674 292.396 309.674C292.756 309.674 293.081 309.624 293.372 309.523C293.666 309.419 293.92 309.264 294.133 309.059C294.345 308.849 294.51 308.59 294.626 308.28L295.95 308.652C295.811 309.101 295.577 309.496 295.248 309.837C294.918 310.174 294.512 310.437 294.028 310.627C293.544 310.812 293 310.905 292.396 310.905ZM306.143 310.905C305.399 310.905 304.743 310.718 304.174 310.342C303.605 309.963 303.159 309.428 302.838 308.739C302.517 308.046 302.356 307.227 302.356 306.282C302.356 305.346 302.517 304.532 302.838 303.843C303.159 303.154 303.607 302.622 304.18 302.246C304.753 301.871 305.415 301.683 306.166 301.683C306.747 301.683 307.205 301.78 307.542 301.973C307.883 302.163 308.142 302.38 308.32 302.624C308.502 302.864 308.644 303.061 308.744 303.216H308.861V298.826H310.231V310.719H308.907V309.349H308.744C308.644 309.512 308.501 309.717 308.315 309.964C308.129 310.208 307.864 310.427 307.519 310.621C307.174 310.81 306.716 310.905 306.143 310.905ZM306.328 309.674C306.878 309.674 307.343 309.531 307.722 309.244C308.102 308.954 308.39 308.553 308.588 308.042C308.785 307.527 308.884 306.933 308.884 306.259C308.884 305.593 308.787 305.011 308.593 304.511C308.4 304.008 308.113 303.617 307.734 303.338C307.354 303.055 306.886 302.914 306.328 302.914C305.748 302.914 305.264 303.063 304.877 303.361C304.493 303.656 304.205 304.056 304.011 304.563C303.822 305.067 303.727 305.632 303.727 306.259C303.727 306.894 303.823 307.471 304.017 307.99C304.215 308.505 304.505 308.915 304.888 309.221C305.275 309.523 305.755 309.674 306.328 309.674ZM316.556 310.905C315.75 310.905 315.044 310.714 314.436 310.33C313.832 309.947 313.36 309.411 313.019 308.722C312.682 308.032 312.514 307.227 312.514 306.306C312.514 305.376 312.682 304.565 313.019 303.872C313.36 303.179 313.832 302.641 314.436 302.258C315.044 301.875 315.75 301.683 316.556 301.683C317.361 301.683 318.066 301.875 318.67 302.258C319.277 302.641 319.75 303.179 320.087 303.872C320.427 304.565 320.598 305.376 320.598 306.306C320.598 307.227 320.427 308.032 320.087 308.722C319.75 309.411 319.277 309.947 318.67 310.33C318.066 310.714 317.361 310.905 316.556 310.905ZM316.556 309.674C317.167 309.674 317.671 309.517 318.066 309.204C318.461 308.89 318.753 308.478 318.943 307.967C319.132 307.456 319.227 306.902 319.227 306.306C319.227 305.709 319.132 305.154 318.943 304.639C318.753 304.124 318.461 303.708 318.066 303.39C317.671 303.073 317.167 302.914 316.556 302.914C315.944 302.914 315.441 303.073 315.046 303.39C314.651 303.708 314.358 304.124 314.169 304.639C313.979 305.154 313.884 305.709 313.884 306.306C313.884 306.902 313.979 307.456 314.169 307.967C314.358 308.478 314.651 308.89 315.046 309.204C315.441 309.517 315.944 309.674 316.556 309.674ZM326.43 310.905C325.57 310.905 324.829 310.716 324.206 310.336C323.586 309.953 323.108 309.419 322.771 308.733C322.438 308.044 322.272 307.243 322.272 306.329C322.272 305.415 322.438 304.61 322.771 303.913C323.108 303.212 323.577 302.666 324.177 302.275C324.781 301.88 325.485 301.683 326.291 301.683C326.755 301.683 327.214 301.76 327.667 301.915C328.12 302.07 328.532 302.322 328.904 302.67C329.276 303.015 329.572 303.472 329.793 304.041C330.013 304.61 330.124 305.311 330.124 306.143V306.724H323.247V305.539H328.73C328.73 305.036 328.629 304.587 328.428 304.192C328.23 303.797 327.948 303.485 327.58 303.257C327.216 303.028 326.786 302.914 326.291 302.914C325.745 302.914 325.272 303.05 324.874 303.321C324.479 303.588 324.175 303.936 323.962 304.366C323.749 304.796 323.642 305.256 323.642 305.748V306.538C323.642 307.212 323.759 307.783 323.991 308.251C324.227 308.716 324.554 309.07 324.972 309.314C325.39 309.554 325.876 309.674 326.43 309.674C326.79 309.674 327.115 309.624 327.406 309.523C327.7 309.419 327.954 309.264 328.166 309.059C328.379 308.849 328.544 308.59 328.66 308.28L329.984 308.652C329.845 309.101 329.611 309.496 329.282 309.837C328.952 310.174 328.546 310.437 328.062 310.627C327.578 310.812 327.034 310.905 326.43 310.905ZM338.527 303.797L337.296 304.145C337.219 303.94 337.104 303.741 336.953 303.547C336.806 303.35 336.605 303.187 336.349 303.059C336.094 302.931 335.767 302.868 335.368 302.868C334.822 302.868 334.367 302.993 334.003 303.245C333.643 303.493 333.463 303.808 333.463 304.192C333.463 304.532 333.587 304.802 333.835 304.999C334.082 305.196 334.47 305.361 334.996 305.493L336.32 305.818C337.118 306.011 337.712 306.308 338.103 306.706C338.494 307.101 338.69 307.61 338.69 308.234C338.69 308.745 338.543 309.202 338.248 309.604C337.958 310.007 337.552 310.325 337.029 310.557C336.506 310.789 335.898 310.905 335.205 310.905C334.295 310.905 333.542 310.708 332.946 310.313C332.35 309.918 331.972 309.341 331.814 308.582L333.115 308.257C333.238 308.737 333.473 309.097 333.817 309.337C334.166 309.577 334.621 309.697 335.182 309.697C335.821 309.697 336.328 309.562 336.704 309.291C337.083 309.016 337.273 308.687 337.273 308.304C337.273 307.994 337.164 307.734 336.948 307.525C336.731 307.312 336.398 307.154 335.949 307.049L334.462 306.701C333.645 306.507 333.045 306.207 332.662 305.8C332.282 305.39 332.092 304.877 332.092 304.261C332.092 303.758 332.234 303.313 332.516 302.926C332.803 302.539 333.192 302.235 333.684 302.014C334.179 301.793 334.741 301.683 335.368 301.683C336.251 301.683 336.944 301.876 337.447 302.264C337.954 302.651 338.314 303.162 338.527 303.797ZM346.723 305.353V310.719H345.353V301.799H346.677V303.193H346.793C347.002 302.74 347.319 302.376 347.745 302.101C348.171 301.822 348.721 301.683 349.395 301.683C349.999 301.683 350.527 301.807 350.98 302.055C351.433 302.298 351.786 302.67 352.037 303.17C352.289 303.665 352.415 304.292 352.415 305.051V310.719H351.044V305.144C351.044 304.443 350.862 303.897 350.498 303.506C350.134 303.112 349.635 302.914 349 302.914C348.562 302.914 348.171 303.009 347.827 303.199C347.486 303.388 347.217 303.665 347.019 304.029C346.822 304.393 346.723 304.834 346.723 305.353ZM358.543 310.905C357.738 310.905 357.031 310.714 356.423 310.33C355.819 309.947 355.347 309.411 355.006 308.722C354.669 308.032 354.501 307.227 354.501 306.306C354.501 305.376 354.669 304.565 355.006 303.872C355.347 303.179 355.819 302.641 356.423 302.258C357.031 301.875 357.738 301.683 358.543 301.683C359.348 301.683 360.053 301.875 360.657 302.258C361.265 302.641 361.737 303.179 362.074 303.872C362.415 304.565 362.585 305.376 362.585 306.306C362.585 307.227 362.415 308.032 362.074 308.722C361.737 309.411 361.265 309.947 360.657 310.33C360.053 310.714 359.348 310.905 358.543 310.905ZM358.543 309.674C359.155 309.674 359.658 309.517 360.053 309.204C360.448 308.89 360.74 308.478 360.93 307.967C361.12 307.456 361.215 306.902 361.215 306.306C361.215 305.709 361.12 305.154 360.93 304.639C360.74 304.124 360.448 303.708 360.053 303.39C359.658 303.073 359.155 302.914 358.543 302.914C357.931 302.914 357.428 303.073 357.033 303.39C356.638 303.708 356.346 304.124 356.156 304.639C355.967 305.154 355.872 305.709 355.872 306.306C355.872 306.902 355.967 307.456 356.156 307.967C356.346 308.478 356.638 308.89 357.033 309.204C357.428 309.517 357.931 309.674 358.543 309.674ZM368.557 301.799V302.961H363.934V301.799H368.557ZM365.281 299.662H366.652V308.164C366.652 308.551 366.708 308.842 366.82 309.035C366.937 309.225 367.084 309.353 367.262 309.419C367.444 309.481 367.635 309.512 367.837 309.512C367.988 309.512 368.112 309.504 368.208 309.488C368.305 309.469 368.383 309.453 368.441 309.442L368.72 310.673C368.627 310.708 368.497 310.743 368.33 310.778C368.164 310.816 367.953 310.836 367.697 310.836C367.31 310.836 366.931 310.752 366.559 310.586C366.191 310.419 365.885 310.166 365.641 309.825C365.401 309.484 365.281 309.055 365.281 308.536V299.662ZM378.958 310.905C378.099 310.905 377.357 310.716 376.734 310.336C376.115 309.953 375.636 309.419 375.3 308.733C374.967 308.044 374.8 307.243 374.8 306.329C374.8 305.415 374.967 304.61 375.3 303.913C375.636 303.212 376.105 302.666 376.705 302.275C377.309 301.88 378.014 301.683 378.819 301.683C379.284 301.683 379.742 301.76 380.195 301.915C380.648 302.07 381.061 302.322 381.432 302.67C381.804 303.015 382.1 303.472 382.321 304.041C382.542 304.61 382.652 305.311 382.652 306.143V306.724H375.776V305.539H381.258C381.258 305.036 381.157 304.587 380.956 304.192C380.759 303.797 380.476 303.485 380.108 303.257C379.744 303.028 379.315 302.914 378.819 302.914C378.273 302.914 377.801 303.05 377.402 303.321C377.007 303.588 376.703 303.936 376.49 304.366C376.277 304.796 376.171 305.256 376.171 305.748V306.538C376.171 307.212 376.287 307.783 376.519 308.251C376.755 308.716 377.082 309.07 377.501 309.314C377.919 309.554 378.405 309.674 378.958 309.674C379.318 309.674 379.644 309.624 379.934 309.523C380.228 309.419 380.482 309.264 380.695 309.059C380.908 308.849 381.072 308.59 381.188 308.28L382.513 308.652C382.373 309.101 382.139 309.496 381.81 309.837C381.481 310.174 381.074 310.437 380.59 310.627C380.106 310.812 379.562 310.905 378.958 310.905ZM385.519 301.799L387.657 305.446L389.794 301.799H391.373L388.493 306.259L391.373 310.719H389.794L387.657 307.258L385.519 310.719H383.94L386.774 306.259L383.94 301.799H385.519ZM393.329 310.719V301.799H394.7V310.719H393.329ZM394.026 300.312C393.759 300.312 393.529 300.221 393.335 300.039C393.145 299.857 393.05 299.639 393.05 299.383C393.05 299.128 393.145 298.909 393.335 298.727C393.529 298.545 393.759 298.454 394.026 298.454C394.293 298.454 394.522 298.545 394.711 298.727C394.905 298.909 395.002 299.128 395.002 299.383C395.002 299.639 394.905 299.857 394.711 300.039C394.522 300.221 394.293 300.312 394.026 300.312ZM403.529 303.797L402.298 304.145C402.22 303.94 402.106 303.741 401.955 303.547C401.808 303.35 401.606 303.187 401.351 303.059C401.095 302.931 400.768 302.868 400.369 302.868C399.824 302.868 399.369 302.993 399.005 303.245C398.645 303.493 398.465 303.808 398.465 304.192C398.465 304.532 398.588 304.802 398.836 304.999C399.084 305.196 399.471 305.361 399.998 305.493L401.322 305.818C402.12 306.011 402.714 306.308 403.105 306.706C403.496 307.101 403.691 307.61 403.691 308.234C403.691 308.745 403.544 309.202 403.25 309.604C402.96 310.007 402.553 310.325 402.03 310.557C401.508 310.789 400.9 310.905 400.207 310.905C399.297 310.905 398.544 310.708 397.948 310.313C397.351 309.918 396.974 309.341 396.815 308.582L398.116 308.257C398.24 308.737 398.474 309.097 398.819 309.337C399.167 309.577 399.622 309.697 400.184 309.697C400.822 309.697 401.33 309.562 401.705 309.291C402.085 309.016 402.274 308.687 402.274 308.304C402.274 307.994 402.166 307.734 401.949 307.525C401.732 307.312 401.399 307.154 400.95 307.049L399.463 306.701C398.647 306.507 398.046 306.207 397.663 305.8C397.284 305.39 397.094 304.877 397.094 304.261C397.094 303.758 397.235 303.313 397.518 302.926C397.804 302.539 398.194 302.235 398.685 302.014C399.181 301.793 399.742 301.683 400.369 301.683C401.252 301.683 401.945 301.876 402.449 302.264C402.956 302.651 403.316 303.162 403.529 303.797ZM409.634 301.799V302.961H405.011V301.799H409.634ZM406.359 299.662H407.729V308.164C407.729 308.551 407.785 308.842 407.898 309.035C408.014 309.225 408.161 309.353 408.339 309.419C408.521 309.481 408.713 309.512 408.914 309.512C409.065 309.512 409.189 309.504 409.286 309.488C409.382 309.469 409.46 309.453 409.518 309.442L409.797 310.673C409.704 310.708 409.574 310.743 409.408 310.778C409.241 310.816 409.03 310.836 408.775 310.836C408.387 310.836 408.008 310.752 407.636 310.586C407.268 310.419 406.963 310.166 406.719 309.825C406.479 309.484 406.359 309.055 406.359 308.536V299.662Z" fill="white"/>
</svg>
