<svg width="319" height="164" viewBox="0 0 319 164" fill="none" xmlns="http://www.w3.org/2000/svg">
<path opacity="0.54" d="M305.91 150.54H25.6899C22.5032 150.54 19.9199 153.123 19.9199 156.31V157.61C19.9199 160.797 22.5032 163.38 25.6899 163.38H305.91C309.097 163.38 311.68 160.797 311.68 157.61V156.31C311.68 153.123 309.097 150.54 305.91 150.54Z" fill="#D1D3D4"/>
<path d="M9.94998 38.59H34.86V100.81H9.94998C4.71998 100.81 0.47998 96.57 0.47998 91.34V48.07C0.47998 42.84 4.71998 38.6 9.94998 38.6V38.59Z" fill="#58595B"/>
<path d="M171.76 64.16H152.65C152.65 66.62 154.64 68.61 157.1 68.61H167.31C169.77 68.61 171.76 66.62 171.76 64.16Z" fill="#58595B"/>
<path d="M152.64 62.8701H171.75C171.75 61.1801 170.38 59.8101 168.69 59.8101H155.69C154 59.8101 152.63 61.1801 152.63 62.8701H152.64Z" fill="#58595B"/>
<path d="M318.51 110.85V93.63L311.33 87.28V68.5L217.29 44.57L181.64 0.869995H41.42L17.5 49.12V119.23H314.2L318.51 110.85Z" fill="#01B3C8"/>
<path d="M311.33 68.5V87.2H299.26L288.32 74.84V62.64L311.33 68.5Z" fill="#01B3C8"/>
<path d="M17.49 89.71V61.37H26.78C26.78 61.37 29.51 87.03 17.49 89.71Z" fill="#01B3C8"/>
<path d="M119.78 119.23H37.9199C41.1099 99.51 58.2499 84.41 78.8499 84.41C99.4499 84.41 116.59 99.51 119.78 119.23Z" fill="#0498A0"/>
<path d="M296.78 119.23H214.92C218.11 99.51 235.25 84.41 255.85 84.41C276.45 84.41 293.59 99.51 296.78 119.23Z" fill="#0498A0"/>
<path d="M106.51 6.60999H44.83L23.52 50.08H97.18L106.51 6.60999Z" fill="#414042"/>
<path d="M101.8 10.42L94.0999 46.27H29.6199L47.1999 10.42H101.8Z" fill="#6D6E71"/>
<path opacity="0.47" d="M219.2 115.91H137.41L122.77 83.43V44.75L212.22 47.35L219.2 60.5V115.92V115.91ZM139.25 113.06H216.34V61.2L210.47 50.15L125.61 47.69V82.82L139.24 113.06H139.25Z" fill="#05777C"/>
<path d="M179.1 6.60999H122.78V50.08H214.18V49.69L179.1 6.60999Z" fill="#414042"/>
<path d="M126.58 46.27V10.41H177.29L206.49 46.27H126.58Z" fill="#6D6E71"/>
<path d="M17.5 105.4V119.23H314.2L318.51 110.85V105.4H17.5Z" fill="#58595B"/>
<path d="M119.78 119.23H37.9199C41.1099 99.51 58.2499 84.41 78.8499 84.41C99.4499 84.41 116.59 99.51 119.78 119.23Z" fill="#068787"/>
<path d="M296.78 119.23H214.92C218.11 99.51 235.25 84.41 255.85 84.41C276.45 84.41 293.59 99.51 296.78 119.23Z" fill="#068787"/>
<path d="M109.611 138.907C116.822 121.911 108.89 102.287 91.8932 95.0756C74.8967 87.8646 55.2727 95.7972 48.0617 112.794C40.8506 129.79 48.7832 149.414 65.7796 156.625C82.7761 163.836 102.4 155.904 109.611 138.907Z" fill="#58595B"/>
<path d="M92.6574 139.688C100.284 132.061 100.284 119.695 92.6574 112.068C85.0305 104.441 72.6648 104.441 65.0378 112.068C57.4109 119.695 57.4109 132.061 65.0378 139.688C72.6648 147.315 85.0304 147.315 92.6574 139.688Z" fill="#A7A9AC"/>
<path d="M89.5579 137.767C96.1216 131.851 96.6465 121.734 90.7303 115.17C84.814 108.606 74.697 108.081 68.1332 113.997C61.5695 119.914 61.0446 130.031 66.9608 136.594C72.8771 143.158 82.9941 143.683 89.5579 137.767Z" fill="#D1D3D4"/>
<path d="M95.8399 125.45L93.2199 117.37L86.4199 120.15C84.6299 120.88 82.6899 119.47 82.8299 117.54L83.4199 109.58H74.9299L75.4699 116.91C75.6099 118.84 73.6699 120.25 71.8799 119.52L64.4899 116.5L61.8699 124.58L69.0099 126.33C70.8899 126.79 71.6299 129.07 70.3799 130.55L65.2199 136.64L72.0899 141.63L75.9599 135.38C76.9799 133.73 79.3799 133.73 80.3999 135.38L84.5999 142.17L91.4699 137.18L86.7199 131.57C85.4699 130.09 86.2099 127.81 88.0899 127.35L95.8399 125.45ZM81.0499 126.83L78.7099 128.53L76.3699 126.83L77.2599 124.08H80.1499L81.0399 126.83H81.0499Z" fill="#58595B"/>
<path d="M78.8498 106.35C68.0598 106.35 59.3198 115.1 59.3198 125.88C59.3198 136.66 68.0698 145.41 78.8498 145.41C89.6298 145.41 98.3798 136.66 98.3798 125.88C98.3798 115.1 89.6298 106.35 78.8498 106.35ZM78.8498 141.88C70.0098 141.88 62.8498 134.72 62.8498 125.88C62.8498 117.04 70.0098 109.88 78.8498 109.88C87.6898 109.88 94.8498 117.04 94.8498 125.88C94.8498 134.72 87.6898 141.88 78.8498 141.88Z" fill="#A7A9AC"/>
<path d="M78.8499 121.7C76.5399 121.7 74.6699 123.57 74.6699 125.88C74.6699 128.19 76.5399 130.06 78.8499 130.06C81.1599 130.06 83.0299 128.19 83.0299 125.88C83.0299 123.57 81.1599 121.7 78.8499 121.7Z" fill="#A7A9AC"/>
<path d="M286.612 138.906C293.823 121.909 285.891 102.285 268.894 95.0741C251.898 87.863 232.274 95.7957 225.063 112.792C217.852 129.789 225.784 149.413 242.781 156.624C259.777 163.835 279.401 155.902 286.612 138.906Z" fill="#58595B"/>
<path d="M269.655 139.69C277.282 132.063 277.282 119.697 269.655 112.07C262.029 104.443 249.663 104.443 242.036 112.07C234.409 119.697 234.409 132.063 242.036 139.69C249.663 147.317 262.028 147.317 269.655 139.69Z" fill="#A7A9AC"/>
<path d="M267.159 137.194C273.408 130.945 273.408 120.815 267.159 114.566C260.911 108.318 250.78 108.318 244.532 114.566C238.283 120.815 238.283 130.945 244.532 137.194C250.78 143.442 260.911 143.442 267.159 137.194Z" fill="#D1D3D4"/>
<path d="M272.84 125.45L270.22 117.37L263.42 120.15C261.63 120.88 259.69 119.47 259.83 117.54L260.42 109.58H251.93L252.47 116.91C252.61 118.84 250.67 120.25 248.88 119.52L241.49 116.5L238.87 124.58L246.01 126.33C247.89 126.79 248.63 129.07 247.38 130.55L242.22 136.64L249.09 141.63L252.96 135.38C253.98 133.73 256.38 133.73 257.4 135.38L261.6 142.17L268.47 137.18L263.72 131.57C262.47 130.09 263.21 127.81 265.09 127.35L272.84 125.45ZM258.05 126.83L255.71 128.53L253.37 126.83L254.26 124.08H257.15L258.04 126.83H258.05Z" fill="#58595B"/>
<path d="M255.85 106.35C245.06 106.35 236.32 115.1 236.32 125.88C236.32 136.66 245.07 145.41 255.85 145.41C266.63 145.41 275.38 136.66 275.38 125.88C275.38 115.1 266.63 106.35 255.85 106.35ZM255.85 141.88C247.01 141.88 239.85 134.72 239.85 125.88C239.85 117.04 247.01 109.88 255.85 109.88C264.69 109.88 271.85 117.04 271.85 125.88C271.85 134.72 264.69 141.88 255.85 141.88Z" fill="#A7A9AC"/>
<path d="M255.85 121.7C253.54 121.7 251.67 123.57 251.67 125.88C251.67 128.19 253.54 130.06 255.85 130.06C258.16 130.06 260.03 128.19 260.03 125.88C260.03 123.57 258.16 121.7 255.85 121.7Z" fill="#A7A9AC"/>
<path d="M160.73 63.48H142.34C142.34 66.39 144.7 68.75 147.61 68.75H155.45C158.36 68.75 160.72 66.39 160.72 63.48H160.73Z" fill="#0498A0"/>
<path d="M160.73 61.95H142.34C142.34 59.95 143.96 58.3299 145.96 58.3299H157.1C159.1 58.3299 160.72 59.95 160.72 61.95H160.73Z" fill="#0498A0"/>
<path d="M17.49 89.71V61.37H26.78C26.78 61.37 29.51 87.03 17.49 89.71Z" fill="#F95858"/>
<path d="M26.79 61.36H17.5V64.93H22.51C22.51 64.93 24.25 81.36 18.78 89.3C29.31 85.12 26.79 61.37 26.79 61.37V61.36Z" fill="#E4453E"/>
<path d="M311.33 68.5V87.2H299.26L288.32 74.84V62.64L311.33 68.5Z" fill="#FFDE17"/>
<path d="M305.69 82.88L295.08 70.88V64.36L288.32 62.64V74.84L299.26 87.2H311.33V82.88H305.69Z" fill="#FFB917"/>
<path opacity="0.1" d="M157.79 10.42L141.88 46.27H126.58V42.71L140.9 10.42H157.79Z" fill="white"/>
<path opacity="0.1" d="M181.84 16.01L168.41 46.27H153.99L169.9 10.42H177.29L181.84 16.01Z" fill="white"/>
<path opacity="0.1" d="M72.7099 10.42L56.7899 46.27H41.1299L57.0399 10.42H72.7099Z" fill="white"/>
<path opacity="0.1" d="M97.67 10.42L81.76 46.27H67.98L83.89 10.42H97.67Z" fill="white"/>
</svg>
