<svg width="1110" height="169" viewBox="0 0 1110 169" fill="none" xmlns="http://www.w3.org/2000/svg">
<path opacity="0.54" d="M305.43 149.67H25.2099C22.0232 149.67 19.4399 152.253 19.4399 155.44V156.74C19.4399 159.927 22.0232 162.51 25.2099 162.51H305.43C308.617 162.51 311.2 159.927 311.2 156.74V155.44C311.2 152.253 308.617 149.67 305.43 149.67Z" fill="#D1D3D4"/>
<path d="M9.47 37.72H34.38V99.94H9.47C4.24 99.94 0 95.7 0 90.47V47.2C0 41.97 4.24 37.73 9.47 37.73V37.72Z" fill="#58595B"/>
<path d="M171.28 63.29H152.17C152.17 65.75 154.16 67.74 156.62 67.74H166.83C169.29 67.74 171.28 65.75 171.28 63.29Z" fill="#58595B"/>
<path d="M152.16 61.9999H171.27C171.27 60.3099 169.9 58.9399 168.21 58.9399H155.21C153.52 58.9399 152.15 60.3099 152.15 61.9999H152.16Z" fill="#58595B"/>
<path d="M318.03 109.98V92.76L310.85 86.41V67.63L216.81 43.7L181.16 0H40.94L17.02 48.25V118.36H313.72L318.03 109.98Z" fill="#01B3C8"/>
<path d="M310.85 67.63V86.33H298.78L287.84 73.97V61.77L310.85 67.63Z" fill="#01B3C8"/>
<path d="M17.01 88.84V60.5H26.3C26.3 60.5 29.03 86.16 17.01 88.84Z" fill="#01B3C8"/>
<path d="M119.3 118.36H37.4399C40.6299 98.64 57.7699 83.54 78.3699 83.54C98.9699 83.54 116.11 98.64 119.3 118.36Z" fill="#0498A0"/>
<path d="M296.3 118.36H214.44C217.63 98.64 234.77 83.54 255.37 83.54C275.97 83.54 293.11 98.64 296.3 118.36Z" fill="#0498A0"/>
<path d="M106.03 5.73999H44.35L23.04 49.21H96.7L106.03 5.73999Z" fill="#414042"/>
<path d="M101.32 9.55005L93.6199 45.4H29.1399L46.7199 9.55005H101.32Z" fill="#6D6E71"/>
<path opacity="0.47" d="M218.72 115.04H136.93L122.29 82.5599V43.8799L211.74 46.4799L218.72 59.6299V115.05V115.04ZM138.77 112.19H215.86V60.3299L209.99 49.2799L125.13 46.8199V81.9499L138.76 112.19H138.77Z" fill="#05777C"/>
<path d="M178.62 5.73999H122.3V49.21H213.7V48.82L178.62 5.73999Z" fill="#414042"/>
<path d="M126.1 45.4V9.54004H176.81L206.01 45.4H126.1Z" fill="#6D6E71"/>
<path d="M17.02 104.53V118.36H313.72L318.03 109.98V104.53H17.02Z" fill="#58595B"/>
<path d="M119.3 118.36H37.4399C40.6299 98.64 57.7699 83.54 78.3699 83.54C98.9699 83.54 116.11 98.64 119.3 118.36Z" fill="#068787"/>
<path d="M296.3 118.36H214.44C217.63 98.64 234.77 83.54 255.37 83.54C275.97 83.54 293.11 98.64 296.3 118.36Z" fill="#068787"/>
<path d="M109.131 138.037C116.342 121.041 108.41 101.417 91.4132 94.2055C74.4168 86.9945 54.7927 94.9271 47.5817 111.923C40.3706 128.92 48.3032 148.544 65.2997 155.755C82.2961 162.966 101.92 155.033 109.131 138.037Z" fill="#58595B"/>
<path d="M92.1774 138.818C99.8043 131.191 99.8044 118.825 92.1774 111.198C84.5505 103.571 72.1848 103.571 64.5578 111.198C56.9309 118.825 56.9309 131.191 64.5578 138.818C72.1848 146.445 84.5505 146.445 92.1774 138.818Z" fill="#A7A9AC"/>
<path d="M89.0779 136.897C95.6416 130.98 96.1665 120.863 90.2503 114.3C84.334 107.736 74.217 107.211 67.6533 113.127C61.0895 119.044 60.5646 129.161 66.4809 135.724C72.3971 142.288 82.5141 142.813 89.0779 136.897Z" fill="#D1D3D4"/>
<path d="M95.3599 124.58L92.7399 116.5L85.9399 119.28C84.1499 120.01 82.2099 118.6 82.3499 116.67L82.9399 108.71H74.4499L74.9899 116.04C75.1299 117.97 73.1899 119.38 71.3999 118.65L64.0099 115.63L61.3899 123.71L68.5299 125.46C70.4099 125.92 71.1499 128.2 69.8999 129.68L64.7399 135.77L71.6099 140.76L75.4799 134.51C76.4999 132.86 78.8999 132.86 79.9199 134.51L84.1199 141.3L90.9899 136.31L86.2399 130.7C84.9899 129.22 85.7299 126.94 87.6099 126.48L95.3599 124.58ZM80.5699 125.96L78.2299 127.66L75.8899 125.96L76.7799 123.21H79.6699L80.5599 125.96H80.5699Z" fill="#58595B"/>
<path d="M78.3698 105.48C67.5798 105.48 58.8398 114.23 58.8398 125.01C58.8398 135.79 67.5898 144.54 78.3698 144.54C89.1498 144.54 97.8998 135.79 97.8998 125.01C97.8998 114.23 89.1498 105.48 78.3698 105.48ZM78.3698 141.01C69.5298 141.01 62.3698 133.85 62.3698 125.01C62.3698 116.17 69.5298 109.01 78.3698 109.01C87.2098 109.01 94.3698 116.17 94.3698 125.01C94.3698 133.85 87.2098 141.01 78.3698 141.01Z" fill="#A7A9AC"/>
<path d="M78.3699 120.83C76.0599 120.83 74.1899 122.7 74.1899 125.01C74.1899 127.32 76.0599 129.19 78.3699 129.19C80.6799 129.19 82.5499 127.32 82.5499 125.01C82.5499 122.7 80.6799 120.83 78.3699 120.83Z" fill="#A7A9AC"/>
<path d="M286.132 138.036C293.343 121.039 285.411 101.415 268.414 94.204C251.418 86.9929 231.794 94.9256 224.583 111.922C217.372 128.918 225.304 148.542 242.301 155.754C259.297 162.965 278.921 155.032 286.132 138.036Z" fill="#58595B"/>
<path d="M269.175 138.82C276.802 131.193 276.802 118.827 269.175 111.2C261.549 103.573 249.183 103.573 241.556 111.2C233.929 118.827 233.929 131.193 241.556 138.82C249.183 146.446 261.548 146.446 269.175 138.82Z" fill="#A7A9AC"/>
<path d="M266.679 136.324C272.928 130.075 272.928 119.945 266.679 113.696C260.431 107.448 250.3 107.448 244.052 113.696C237.803 119.945 237.803 130.075 244.052 136.324C250.3 142.572 260.431 142.572 266.679 136.324Z" fill="#D1D3D4"/>
<path d="M272.36 124.58L269.74 116.5L262.94 119.28C261.15 120.01 259.21 118.6 259.35 116.67L259.94 108.71H251.45L251.99 116.04C252.13 117.97 250.19 119.38 248.4 118.65L241.01 115.63L238.39 123.71L245.53 125.46C247.41 125.92 248.15 128.2 246.9 129.68L241.74 135.77L248.61 140.76L252.48 134.51C253.5 132.86 255.9 132.86 256.92 134.51L261.12 141.3L267.99 136.31L263.24 130.7C261.99 129.22 262.73 126.94 264.61 126.48L272.36 124.58ZM257.57 125.96L255.23 127.66L252.89 125.96L253.78 123.21H256.67L257.56 125.96H257.57Z" fill="#58595B"/>
<path d="M255.37 105.48C244.58 105.48 235.84 114.23 235.84 125.01C235.84 135.79 244.59 144.54 255.37 144.54C266.15 144.54 274.9 135.79 274.9 125.01C274.9 114.23 266.15 105.48 255.37 105.48ZM255.37 141.01C246.53 141.01 239.37 133.85 239.37 125.01C239.37 116.17 246.53 109.01 255.37 109.01C264.21 109.01 271.37 116.17 271.37 125.01C271.37 133.85 264.21 141.01 255.37 141.01Z" fill="#A7A9AC"/>
<path d="M255.37 120.83C253.06 120.83 251.19 122.7 251.19 125.01C251.19 127.32 253.06 129.19 255.37 129.19C257.68 129.19 259.55 127.32 259.55 125.01C259.55 122.7 257.68 120.83 255.37 120.83Z" fill="#A7A9AC"/>
<path d="M160.25 62.6099H141.86C141.86 65.5199 144.22 67.8799 147.13 67.8799H154.97C157.88 67.8799 160.24 65.5199 160.24 62.6099H160.25Z" fill="#0498A0"/>
<path d="M160.25 61.0801H141.86C141.86 59.0801 143.48 57.4601 145.48 57.4601H156.62C158.62 57.4601 160.24 59.0801 160.24 61.0801H160.25Z" fill="#0498A0"/>
<path d="M17.01 88.84V60.5H26.3C26.3 60.5 29.03 86.16 17.01 88.84Z" fill="#F95858"/>
<path d="M26.31 60.49H17.02V64.06H22.03C22.03 64.06 23.77 80.49 18.3 88.43C28.83 84.25 26.31 60.5 26.31 60.5V60.49Z" fill="#E4453E"/>
<path d="M310.85 67.63V86.33H298.78L287.84 73.97V61.77L310.85 67.63Z" fill="#FFDE17"/>
<path d="M305.21 82.01L294.6 70.01V63.49L287.84 61.77V73.97L298.78 86.33H310.85V82.01H305.21Z" fill="#FFB917"/>
<path opacity="0.1" d="M157.31 9.55005L141.4 45.4H126.1V41.84L140.42 9.55005H157.31Z" fill="white"/>
<path opacity="0.1" d="M181.36 15.14L167.93 45.4H153.51L169.42 9.55005H176.81L181.36 15.14Z" fill="white"/>
<path opacity="0.1" d="M72.2299 9.55005L56.3099 45.4H40.6499L56.5599 9.55005H72.2299Z" fill="white"/>
<path opacity="0.1" d="M97.19 9.55005L81.28 45.4H67.5L83.41 9.55005H97.19Z" fill="white"/>
<path d="M391.308 104.04H383.138C385.148 108.62 387.938 112.63 390.208 114.49H392.708C391.788 111.4 391.298 108.13 391.298 104.74C391.298 104.51 391.308 104.27 391.318 104.04H391.308Z" fill="#58595B"/>
<path d="M704.279 86.74V127.28H389.549C385.499 123.96 379.749 113.69 380.009 105.72C380.009 105.72 381.579 95.72 384.119 83.84C384.309 82.92 384.519 81.98 384.729 81.03C386.289 74.03 388.159 66.61 390.239 60.35C391.739 55.81 393.359 51.89 395.029 49.18C395.029 49.18 442.089 13.59 452.369 12H546.309C556.689 12 566.879 14.85 575.759 20.25C596.219 32.71 633.449 54.93 639.419 55.5C639.419 55.5 701.108 65.77 704.268 86.74H704.279Z" fill="#FF833E"/>
<path d="M458.069 117.69C458.069 121.02 457.579 124.23 456.679 127.27H392.009C391.099 124.23 390.619 121.01 390.619 117.69C390.619 99.1 405.749 83.97 424.339 83.97C442.929 83.97 458.059 99.1 458.059 117.69H458.069Z" fill="#F26522"/>
<path d="M660.769 117.69C660.769 121.02 660.289 124.23 659.379 127.27H594.719C593.809 124.23 593.329 121.01 593.329 117.69C593.329 99.1 608.459 83.97 627.049 83.97C645.639 83.97 660.769 99.1 660.769 117.69Z" fill="#F26522"/>
<path d="M458.069 117.69C458.069 121.02 457.579 124.23 456.679 127.27H392.009C391.099 124.23 390.619 121.01 390.619 117.69C390.619 99.1 405.749 83.97 424.339 83.97C442.929 83.97 458.059 99.1 458.059 117.69H458.069Z" fill="#C1440E"/>
<path d="M660.769 117.69C660.769 121.02 660.289 124.23 659.379 127.27H594.719C593.809 124.23 593.329 121.01 593.329 117.69C593.329 99.1 608.459 83.97 627.049 83.97C645.639 83.97 660.769 99.1 660.769 117.69Z" fill="#C1440E"/>
<path d="M430.829 144.678C445.756 141.108 454.963 126.113 451.393 111.186C447.823 96.2592 432.828 87.0524 417.901 90.6223C402.974 94.1922 393.768 109.187 397.337 124.114C400.907 139.041 415.902 148.248 430.829 144.678Z" fill="#58595B"/>
<path d="M428.865 136.54C439.293 134.055 445.732 123.588 443.248 113.16C440.764 102.732 430.296 96.2921 419.868 98.7764C409.44 101.261 403 111.728 405.485 122.156C407.969 132.584 418.437 139.024 428.865 136.54Z" fill="#A7A9AC"/>
<path d="M428.285 134.277C437.436 132.1 443.089 122.918 440.912 113.768C438.736 104.618 429.554 98.9647 420.404 101.141C411.254 103.318 405.6 112.5 407.777 121.65C409.953 130.8 419.135 136.453 428.285 134.277Z" fill="#D1D3D4"/>
<path d="M424.348 122.08C426.773 122.08 428.738 120.115 428.738 117.69C428.738 115.266 426.773 113.3 424.348 113.3C421.924 113.3 419.958 115.266 419.958 117.69C419.958 120.115 421.924 122.08 424.348 122.08Z" fill="#58595B"/>
<path d="M428.718 105.42C428.718 103.51 426.668 103.33 424.148 103.33C421.628 103.33 419.578 103.51 419.578 105.42C419.578 107.33 421.628 111.74 424.148 111.74C426.668 111.74 428.718 107.32 428.718 105.42Z" fill="#58595B"/>
<path d="M413.658 110.13C411.848 109.54 411.038 111.43 410.258 113.84C409.478 116.24 409.018 118.25 410.828 118.84C412.638 119.43 417.478 118.84 418.258 116.44C419.038 114.04 415.468 110.72 413.658 110.14V110.13Z" fill="#58595B"/>
<path d="M413.488 125.92C412.368 127.46 413.918 128.81 415.958 130.3C417.998 131.79 419.768 132.84 420.888 131.3C422.008 129.76 422.948 124.98 420.908 123.5C418.868 122.01 414.608 124.38 413.488 125.93V125.92Z" fill="#58595B"/>
<path d="M428.448 130.96C429.568 132.5 431.328 131.44 433.378 129.96C435.418 128.48 436.978 127.13 435.848 125.58C434.718 124.03 430.479 121.67 428.429 123.15C426.389 124.64 427.318 129.41 428.448 130.95V130.96Z" fill="#58595B"/>
<path d="M437.858 118.29C439.668 117.7 439.208 115.7 438.428 113.29C437.648 110.89 436.848 108.99 435.028 109.58C433.218 110.17 429.648 113.48 430.428 115.88C431.208 118.28 436.038 118.87 437.858 118.28V118.29Z" fill="#58595B"/>
<path d="M643.477 140.063C655.852 130.986 658.526 113.594 649.448 101.219C640.371 88.8428 622.979 86.1691 610.604 95.2467C598.228 104.324 595.554 121.716 604.632 134.091C613.71 146.467 631.101 149.141 643.477 140.063Z" fill="#58595B"/>
<path d="M638.46 133.349C647.128 127.042 649.042 114.902 642.735 106.234C636.428 97.5656 624.289 95.6515 615.621 101.959C606.952 108.266 605.038 120.405 611.345 129.073C617.652 137.742 629.792 139.656 638.46 133.349Z" fill="#A7A9AC"/>
<path d="M637.058 131.526C644.67 126.002 646.362 115.352 640.838 107.74C635.313 100.128 624.664 98.436 617.052 103.96C609.44 109.485 607.748 120.134 613.272 127.746C618.796 135.358 629.446 137.05 637.058 131.526Z" fill="#D1D3D4"/>
<path d="M627.048 122.08C629.473 122.08 631.438 120.115 631.438 117.69C631.438 115.266 629.473 113.3 627.048 113.3C624.624 113.3 622.658 115.266 622.658 117.69C622.658 120.115 624.624 122.08 627.048 122.08Z" fill="#58595B"/>
<path d="M631.429 105.42C631.429 103.51 629.379 103.33 626.859 103.33C624.339 103.33 622.289 103.51 622.289 105.42C622.289 107.33 624.339 111.74 626.859 111.74C629.379 111.74 631.429 107.32 631.429 105.42Z" fill="#58595B"/>
<path d="M616.368 110.13C614.558 109.54 613.748 111.43 612.968 113.84C612.188 116.24 611.728 118.25 613.538 118.84C615.348 119.43 620.188 118.84 620.968 116.44C621.748 114.04 618.178 110.72 616.368 110.14V110.13Z" fill="#58595B"/>
<path d="M616.189 125.92C615.069 127.46 616.619 128.81 618.659 130.3C620.699 131.79 622.469 132.84 623.589 131.3C624.709 129.76 625.649 124.98 623.609 123.5C621.569 122.01 617.309 124.38 616.189 125.93V125.92Z" fill="#58595B"/>
<path d="M631.148 130.96C632.268 132.5 634.028 131.44 636.078 129.96C638.118 128.48 639.678 127.13 638.548 125.58C637.428 124.04 633.178 121.67 631.128 123.15C629.088 124.64 630.018 129.41 631.148 130.95V130.96Z" fill="#58595B"/>
<path d="M640.569 118.29C642.379 117.7 641.919 115.7 641.139 113.29C640.359 110.89 639.559 108.99 637.739 109.58C635.929 110.17 632.359 113.48 633.139 115.88C633.919 118.28 638.749 118.87 640.569 118.28V118.29Z" fill="#58595B"/>
<path d="M590.588 38.4099V56.3599H409.168C409.468 55.6999 409.768 55.0899 410.068 54.5199C413.398 52.0299 422.778 45.0599 432.908 37.9799C454.048 23.2199 460.688 20.4299 462.258 19.9099H546.308C555.258 19.9099 564.008 22.3699 571.648 27.0099C578.698 31.2999 584.978 35.0799 590.578 38.4099H590.588Z" fill="#6D6E71"/>
<path d="M417.158 53.1901C421.588 49.9301 428.008 45.2601 434.718 40.5701C454.078 27.0501 460.948 23.8101 462.818 23.0701H546.318C554.678 23.0701 562.868 25.3701 570.008 29.7101C576.338 33.5601 582.188 37.0901 587.418 40.2101V53.2001H417.148L417.158 53.1901Z" fill="#6D6E71"/>
<path d="M511.599 19.9099L513.399 56.3599H498.509L500.629 19.9099H511.599Z" fill="#414042"/>
<path opacity="0.1" d="M571.659 27.01C570.769 26.47 569.869 25.96 568.949 25.48L556.259 56.36H572.869L582.289 33.44C578.949 31.43 575.419 29.29 571.659 27.01Z" fill="white"/>
<path opacity="0.1" d="M546.319 19.9099H541.309L526.329 56.3599H546.559L560.649 22.0699C556.029 20.6499 551.199 19.9099 546.319 19.9099Z" fill="white"/>
<path opacity="0.1" d="M466.288 55.03H451.708L465.598 21.23H470.238C473.458 21.23 476.648 21.57 479.758 22.25L466.288 55.03Z" fill="white"/>
<path opacity="0.1" d="M490.678 21.23H486.038L472.148 55.03H482.068L495.828 21.54C494.128 21.34 492.408 21.24 490.678 21.24V21.23Z" fill="white"/>
<path d="M704.289 86.7401C703.759 83.2601 701.619 80.0701 698.419 77.1801L677.299 74.4101C674.679 74.0701 672.629 76.6101 673.509 79.1001C675.659 85.1801 679.959 94.3601 686.499 95.5801C688.589 95.9701 697.379 96.3601 704.299 96.6101V86.7501L704.289 86.7401Z" fill="#FFDE17"/>
<path d="M683.079 83.9901C682.199 81.5001 684.249 78.9601 686.869 79.3001L702.069 81.3001C701.109 79.8701 699.869 78.4901 698.419 77.1801L677.299 74.4101C674.679 74.0701 672.629 76.6101 673.509 79.1001C675.659 85.1801 679.959 94.3601 686.499 95.5801C687.029 95.6801 688.009 95.7801 689.279 95.8801C686.429 92.3901 684.379 87.6401 683.089 84.0001L683.079 83.9901Z" fill="#FFB917"/>
<path opacity="0.6" d="M504.339 119.5V53.3501H585.249L592.349 54.0001V113.3C592.349 116.45 589.789 119.01 586.639 119.02L504.339 119.51V119.5ZM507.189 56.2001V116.63L586.629 116.16C588.209 116.16 589.489 114.88 589.489 113.3V56.6001L585.049 56.2001H507.189Z" fill="#E85F1A"/>
<path d="M571.658 27.0099C564.028 22.3699 555.268 19.9099 546.318 19.9099H462.268C460.698 20.4199 454.058 23.2199 432.918 37.9799C422.778 45.0599 413.398 52.0299 410.078 54.5199C409.778 55.0899 409.478 55.6999 409.178 56.3599H590.598V38.4099C584.998 35.0799 578.718 31.2999 571.668 27.0099H571.658ZM587.428 53.1999H417.158C421.588 49.9399 428.008 45.2699 434.718 40.5799C454.078 27.0599 460.948 23.8199 462.818 23.0799H546.318C554.678 23.0799 562.868 25.3799 570.008 29.7199C576.338 33.5699 582.188 37.0999 587.418 40.2199V53.2099L587.428 53.1999Z" fill="#414042"/>
<path d="M614.908 52.4699C608.688 49.0199 600.758 44.4499 590.588 38.3999V56.3499H614.908V52.4699Z" fill="#414042"/>
<path d="M535.429 70.4102H518.029C518.029 73.1702 520.259 75.4001 523.019 75.4001H530.439C533.199 75.4001 535.429 73.1702 535.429 70.4102Z" fill="#C1440E"/>
<path d="M518.029 68.96H535.429C535.429 67.07 533.889 65.53 531.999 65.53H521.459C519.569 65.53 518.029 67.07 518.029 68.96Z" fill="#C1440E"/>
<path d="M464.769 70.4102H447.369C447.369 73.1702 449.599 75.4001 452.359 75.4001H459.779C462.539 75.4001 464.769 73.1702 464.769 70.4102Z" fill="#C1440E"/>
<path d="M447.369 68.96H464.769C464.769 67.07 463.229 65.53 461.339 65.53H450.799C448.909 65.53 447.369 67.07 447.369 68.96Z" fill="#C1440E"/>
<path opacity="0.6" d="M502.208 119.93H480.018C472.308 119.93 465.568 114.94 463.258 107.52C453.858 77.2901 410.688 82.9001 410.258 82.9601L408.638 83.1801V56.4001H411.488V79.9601C419.738 79.2401 456.958 77.6601 465.978 106.67C467.918 112.89 473.558 117.08 480.008 117.08H499.348V56.3601H502.198V119.94L502.208 119.93Z" fill="#E85F1A"/>
<path d="M593.348 117.01H458.059C458.059 117.24 458.078 117.47 458.078 117.7C458.078 121.03 457.588 124.25 456.688 127.28H594.728C593.818 124.24 593.338 121.02 593.338 117.7C593.338 117.47 593.348 117.24 593.358 117.01H593.348Z" fill="#58595B"/>
<path d="M660.758 117.01C660.758 117.24 660.778 117.47 660.778 117.7C660.778 121.03 660.298 124.25 659.398 127.28H704.298V117.01H660.768H660.758Z" fill="#58595B"/>
<path d="M384.288 83.8401H384.128C384.318 82.9201 384.528 81.9801 384.738 81.0301C386.298 74.0301 388.168 66.6101 390.248 60.3501H400.068C400.068 60.3501 400.808 82.7401 384.288 83.8401Z" fill="#FF453E"/>
<path d="M384.288 83.8401H384.128C384.318 82.9201 384.528 81.9801 384.738 81.0301C393.358 76.9801 395.348 65.9601 395.788 60.3501H400.078C400.078 60.3501 400.818 82.7401 384.298 83.8401H384.288Z" fill="#E4453E"/>
<path opacity="0.54" d="M1090.55 149.301H774.086C770.7 149.301 767.956 152.046 767.956 155.431V156.011C767.956 159.397 770.7 162.141 774.086 162.141H1090.55C1093.93 162.141 1096.68 159.397 1096.68 156.011V155.431C1096.68 152.046 1093.93 149.301 1090.55 149.301Z" fill="#D1D3D4"/>
<path d="M1109.39 90.6511V128.061L1093.72 136.881H776.905C764.425 132.291 766.476 115.601 766.476 115.601C763.356 66.8911 777.015 18.0211 777.015 18.0211C777.095 17.9211 777.185 17.8011 777.295 17.6811C777.845 16.9911 778.725 15.9711 779.705 14.8311C782.625 11.4411 786.615 7.00114 786.615 7.00114H1016.55C1027.69 6.93114 1038.01 10.1011 1047.2 14.8311C1048.93 15.7211 1050.62 16.6711 1052.27 17.6511L1052.32 17.6811C1075.56 31.6711 1090.3 54.4211 1090.3 54.4211C1106.67 60.2611 1109.39 90.6511 1109.39 90.6511Z" fill="#BCBEC0"/>
<path d="M1001.38 132.451C1001.38 133.951 1001.48 135.431 1001.67 136.881H1068.31C1068.5 135.431 1068.6 133.951 1068.6 132.451C1068.6 113.921 1053.52 98.8411 1034.99 98.8411C1016.46 98.8411 1001.38 113.921 1001.38 132.451Z" fill="#C9243C"/>
<path d="M805.556 132.451C805.556 133.951 805.656 135.431 805.846 136.881H872.486C872.676 135.431 872.776 133.951 872.776 132.451C872.776 113.921 857.696 98.8411 839.166 98.8411C820.636 98.8411 805.556 113.921 805.556 132.451Z" fill="#C9243C"/>
<path d="M985.105 68.0512V20.4912H1016.94C1025.51 20.4912 1034.3 22.4312 1043.05 26.2612C1050.24 29.4112 1057.44 33.8212 1064.43 39.3912C1075.98 48.5912 1083.2 67.0712 1083.95 68.0612H985.105V68.0512Z" fill="#58595B"/>
<path d="M1061.1 41.6711C1054.67 36.6611 1048.09 32.6511 1041.52 29.7811C1033.26 26.1711 1024.99 24.3411 1016.95 24.3411H1016.57H988.966V64.2111H1061.11V41.6711H1061.1Z" fill="#6D6E71"/>
<path d="M1089.03 79.7212C1089.03 79.7212 1089.02 100.641 1096.57 102.631C1096.94 102.731 1097.33 102.761 1097.72 102.761H1109.39V90.6612C1109.39 90.6612 1108.96 85.8712 1107.42 79.7212H1089.03Z" fill="#FFDE17"/>
<path d="M1089.03 79.7212C1089.03 79.7212 1089.02 100.641 1096.57 102.631C1096.94 102.731 1097.33 102.761 1097.72 102.761H1109.39V99.3012H1102.19C1101.81 99.3012 1101.42 99.2712 1101.04 99.1712C1095.43 97.6912 1093.99 85.7512 1093.62 79.7212H1089.02H1089.03Z" fill="#FFB31A"/>
<path d="M767.356 73.1311H772.536C774.686 73.1311 776.436 74.8811 776.436 77.0311V106.371C776.436 106.371 773.216 112.201 766.426 115.031C765.546 100.641 766.116 86.2511 767.356 73.1311Z" fill="#FF453E"/>
<path d="M776.445 77.0411V106.381C776.445 106.381 773.545 111.601 767.485 114.561C770.705 111.891 772.265 109.081 772.265 109.081V79.7411C772.265 77.5811 770.515 75.8411 768.365 75.8411H767.115C767.195 74.9411 767.265 74.0211 767.355 73.1411H772.545C774.695 73.1411 776.445 74.8811 776.445 77.0411Z" fill="#E4453E"/>
<path opacity="0.45" d="M1083.78 68.061H1080.93V136.891H1083.78V68.061Z" fill="#6D6E71"/>
<path opacity="0.45" d="M1052.32 17.6811H777.286C777.836 16.9911 778.716 15.9711 779.696 14.8311H1047.21L1052.28 17.6511L1052.33 17.6811H1052.32Z" fill="#6D6E71"/>
<path opacity="0.45" d="M976.135 82.5911H878.416V85.4411H976.135V82.5911Z" fill="#6D6E71"/>
<path opacity="0.45" d="M978.056 16.821H975.206V136.891H978.056V16.821Z" fill="#6D6E71"/>
<path d="M1022.25 78.5911H1003.93C1003.93 80.9511 1005.84 82.8511 1008.19 82.8511H1017.98C1020.34 82.8511 1022.24 80.9411 1022.24 78.5911H1022.25Z" fill="#58595B"/>
<path d="M1003.93 77.3511H1022.25C1022.25 75.7311 1020.94 74.4211 1019.32 74.4211H1006.86C1005.24 74.4211 1003.93 75.7311 1003.93 77.3511Z" fill="#58595B"/>
<path d="M895.856 83.6011H877.536C877.536 85.9511 879.446 87.8611 881.796 87.8611H891.586C893.936 87.8611 895.846 85.9511 895.846 83.6011H895.856Z" fill="#58595B"/>
<path d="M877.536 82.3612H895.856C895.856 80.7412 894.546 79.4312 892.926 79.4312H880.466C878.846 79.4312 877.536 80.7412 877.536 82.3612Z" fill="#58595B"/>
<path opacity="0.45" d="M882.855 137.041C880.295 113.611 869.575 100.861 869.475 100.741L869.135 100.341V99.8112V63.9612H871.985V99.3012C873.945 101.751 883.265 114.481 885.695 136.731L882.855 137.041Z" fill="#6D6E71"/>
<path d="M777.266 68.0512C779.656 51.7912 782.616 30.1512 783.886 25.1212C784.966 24.5112 786.556 23.7512 788.136 23.0812L965.886 20.4812V68.0412H777.266V68.0512Z" fill="#58595B"/>
<path d="M880.816 25.5811L962.036 24.3911V64.2111H887.616C883.856 64.2111 880.806 61.1611 880.806 57.4011V25.5811H880.816Z" fill="#6D6E71"/>
<path d="M857.196 64.2111H781.706C782.036 61.9511 782.366 59.6211 782.706 57.2911C784.356 45.8411 786.196 33.0411 787.256 27.7011C787.786 27.4411 788.366 27.1711 788.946 26.9211L863.096 25.8411V58.3111C863.096 61.5711 860.456 64.2111 857.196 64.2111Z" fill="#6D6E71"/>
<path opacity="0.45" d="M788.006 66.5811H785.156V133.691H788.006V66.5811Z" fill="#6D6E71"/>
<path d="M767.085 124.861C768.185 129.521 770.805 134.641 776.895 136.891H1093.71L1109.39 128.071V124.861H767.085Z" fill="#58595B"/>
<path d="M1001.38 132.451C1001.38 133.951 1001.48 135.431 1001.67 136.881H1068.31C1068.5 135.431 1068.6 133.951 1068.6 132.451C1068.6 113.921 1053.52 98.8411 1034.99 98.8411C1016.46 98.8411 1001.38 113.921 1001.38 132.451Z" fill="#808285"/>
<path d="M805.556 132.451C805.556 133.951 805.656 135.431 805.846 136.881H872.486C872.676 135.431 872.776 133.951 872.776 132.451C872.776 113.921 857.696 98.8411 839.166 98.8411C820.636 98.8411 805.556 113.921 805.556 132.451Z" fill="#808285"/>
<path d="M1009.17 132.451C1009.17 146.711 1020.73 158.271 1034.99 158.271C1049.25 158.271 1060.81 146.711 1060.81 132.451C1060.81 118.191 1049.25 106.631 1034.99 106.631C1020.73 106.631 1009.17 118.191 1009.17 132.451ZM1018.63 132.451C1018.63 123.421 1025.95 116.101 1034.98 116.101C1044.01 116.101 1051.33 123.421 1051.33 132.451C1051.33 141.481 1044.01 148.801 1034.98 148.801C1025.95 148.801 1018.63 141.481 1018.63 132.451Z" fill="#58595B"/>
<path d="M1017.66 132.451C1017.66 142.021 1025.42 149.781 1034.99 149.781C1044.56 149.781 1052.32 142.021 1052.32 132.451C1052.32 122.881 1044.56 115.121 1034.99 115.121C1025.42 115.121 1017.66 122.881 1017.66 132.451ZM1020.98 132.451C1020.98 124.711 1027.25 118.441 1034.99 118.441C1042.73 118.441 1049 124.711 1049 132.451C1049 140.191 1042.73 146.461 1034.99 146.461C1027.25 146.461 1020.98 140.191 1020.98 132.451Z" fill="#A7A9AC"/>
<path d="M1034.99 147.261C1043.16 147.261 1049.8 140.63 1049.8 132.451C1049.8 124.272 1043.16 117.641 1034.99 117.641C1026.81 117.641 1020.18 124.272 1020.18 132.451C1020.18 140.63 1026.81 147.261 1034.99 147.261Z" fill="#D1D3D4"/>
<path d="M1034.99 139.801C1039.04 139.801 1042.34 136.51 1042.34 132.451C1042.34 128.392 1039.04 125.101 1034.99 125.101C1030.93 125.101 1027.64 128.392 1027.64 132.451C1027.64 136.51 1030.93 139.801 1034.99 139.801Z" fill="#58595B"/>
<path d="M813.355 132.451C813.355 146.711 824.915 158.271 839.175 158.271C853.435 158.271 864.995 146.711 864.995 132.451C864.995 118.191 853.435 106.631 839.175 106.631C824.915 106.631 813.355 118.191 813.355 132.451ZM822.815 132.451C822.815 123.421 830.135 116.101 839.165 116.101C848.195 116.101 855.515 123.421 855.515 132.451C855.515 141.481 848.195 148.801 839.165 148.801C830.135 148.801 822.815 141.481 822.815 132.451Z" fill="#58595B"/>
<path d="M821.835 132.451C821.835 142.021 829.595 149.781 839.165 149.781C848.735 149.781 856.495 142.021 856.495 132.451C856.495 122.881 848.735 115.121 839.165 115.121C829.595 115.121 821.835 122.881 821.835 132.451ZM825.155 132.451C825.155 124.711 831.425 118.441 839.165 118.441C846.905 118.441 853.175 124.711 853.175 132.451C853.175 140.191 846.905 146.461 839.165 146.461C831.425 146.461 825.155 140.191 825.155 132.451Z" fill="#A7A9AC"/>
<path d="M839.165 147.261C847.345 147.261 853.975 140.63 853.975 132.451C853.975 124.272 847.345 117.641 839.165 117.641C830.986 117.641 824.355 124.272 824.355 132.451C824.355 140.63 830.986 147.261 839.165 147.261Z" fill="#D1D3D4"/>
<path d="M839.165 139.801C843.225 139.801 846.515 136.51 846.515 132.451C846.515 128.392 843.225 125.101 839.165 125.101C835.106 125.101 831.815 128.392 831.815 132.451C831.815 136.51 835.106 139.801 839.165 139.801Z" fill="#58595B"/>
<path opacity="0.1" d="M1051.67 35.131L1039.72 64.211H1022.3L1037.17 28.051C1038.61 28.571 1040.06 29.151 1041.51 29.791C1044.91 31.271 1048.29 33.051 1051.67 35.131Z" fill="white"/>
<path opacity="0.1" d="M1027.78 25.4211L1011.84 64.2111H990.276L1006.66 24.3411H1016.95C1020.53 24.3411 1024.15 24.7011 1027.79 25.4211H1027.78Z" fill="white"/>
<path opacity="0.1" d="M956.406 24.4712L940.076 64.2112H922.646L938.875 24.7312L956.406 24.4712Z" fill="white"/>
<path opacity="0.1" d="M856.156 25.9312L840.426 64.2112H822.996L838.626 26.2012L856.156 25.9312Z" fill="white"/>
<path opacity="0.1" d="M925.416 24.9312L909.276 64.2112H887.716L903.716 25.2512L925.416 24.9312Z" fill="white"/>
<path opacity="0.1" d="M829.066 26.3311L813.496 64.2111H791.936L807.356 26.6511L829.066 26.3311Z" fill="white"/>
</svg>
