<svg width="2017" height="482" viewBox="0 0 2017 482" fill="none" xmlns="http://www.w3.org/2000/svg">
<path opacity="0.54" d="M555.309 427.345H45.8348C40.041 427.345 35.3442 434.721 35.3442 443.82V447.532C35.3442 456.631 40.041 464.007 45.8348 464.007H555.309C561.103 464.007 565.8 456.631 565.8 447.532V443.82C565.8 434.721 561.103 427.345 555.309 427.345Z" fill="#D1D3D4"/>
<path d="M17.2176 107.7H62.507V285.354H17.2176C7.70885 285.354 0 273.247 0 258.314V134.768C0 119.835 7.70885 107.729 17.2176 107.729V107.7Z" fill="#58595B"/>
<path d="M311.408 180.709H276.664C276.664 187.733 280.282 193.415 284.754 193.415H303.317C307.79 193.415 311.408 187.733 311.408 180.709Z" fill="#58595B"/>
<path d="M276.646 177.025H311.39C311.39 172.2 308.899 168.288 305.827 168.288H282.191C279.118 168.288 276.627 172.2 276.627 177.025H276.646Z" fill="#58595B"/>
<path d="M578.218 314.021V264.853L565.164 246.722V193.101L394.187 124.774L329.371 0H74.4341L30.9446 137.766V337.947H570.382L578.218 314.021Z" fill="#01B3C8"/>
<path d="M565.164 193.101V246.494H543.219L523.329 211.203V176.369L565.164 193.101Z" fill="#01B3C8"/>
<path d="M30.9263 253.66V172.743H47.8167C47.8167 172.743 52.7801 246.008 30.9263 253.66Z" fill="#01B3C8"/>
<path d="M216.902 337.947H68.0706C73.8704 281.642 105.033 238.528 142.486 238.528C179.94 238.528 211.102 281.642 216.902 337.947Z" fill="#0498A0"/>
<path d="M538.71 337.947H389.878C395.678 281.642 426.841 238.528 464.294 238.528C501.747 238.528 532.91 281.642 538.71 337.947Z" fill="#0498A0"/>
<path d="M192.776 16.3892H80.6339L41.8896 140.507H175.813L192.776 16.3892Z" fill="#414042"/>
<path d="M184.212 27.2676L170.213 129.628H52.98L84.9426 27.2676H184.212Z" fill="#6D6E71"/>
<path opacity="0.47" d="M397.66 328.468H248.956L222.339 235.729V125.288L384.97 132.712L397.66 170.258V328.496V328.468ZM252.301 320.33H392.461V172.257L381.788 140.706L227.502 133.682V233.987L252.283 320.33H252.301Z" fill="#05777C"/>
<path d="M324.753 16.3892H222.356V140.507H388.533V139.393L324.753 16.3892Z" fill="#414042"/>
<path d="M229.266 129.628V27.239H321.463L374.552 129.628H229.266Z" fill="#6D6E71"/>
<path d="M30.9446 298.459V337.948H570.382L578.218 314.021V298.459H30.9446Z" fill="#58595B"/>
<path d="M216.902 337.947H68.0706C73.8704 281.642 105.033 238.528 142.486 238.528C179.94 238.528 211.102 281.642 216.902 337.947Z" fill="#068787"/>
<path d="M538.71 337.947H389.878C395.678 281.642 426.841 238.528 464.294 238.528C501.747 238.528 532.91 281.642 538.71 337.947Z" fill="#068787"/>
<path d="M198.414 394.131C211.525 345.601 197.102 289.57 166.201 268.981C135.299 248.391 99.6202 271.041 86.5096 319.57C73.399 368.099 87.8214 424.13 118.723 444.72C149.625 465.309 185.304 442.66 198.414 394.131Z" fill="#58595B"/>
<path d="M167.59 396.359C181.457 374.582 181.457 339.275 167.59 317.498C153.723 295.721 131.241 295.721 117.374 317.498C103.507 339.275 103.507 374.582 117.374 396.359C131.241 418.136 153.723 418.136 167.59 396.359Z" fill="#A7A9AC"/>
<path d="M161.955 390.874C173.888 373.982 174.843 345.095 164.086 326.354C153.33 307.613 134.936 306.114 123.002 323.007C111.068 339.899 110.114 368.786 120.871 387.527C131.627 406.268 150.021 407.767 161.955 390.874Z" fill="#D1D3D4"/>
<path d="M173.376 355.707L168.613 332.637L156.249 340.574C152.995 342.659 149.468 338.633 149.722 333.122L150.795 310.394H135.359L136.341 331.323C136.596 336.834 133.068 340.86 129.814 338.776L116.378 330.153L111.615 353.223L124.596 358.22C128.014 359.533 129.359 366.043 127.087 370.269L117.705 387.657L130.196 401.905L137.232 384.06C139.086 379.349 143.45 379.349 145.304 384.06L152.94 403.447L165.431 389.199L156.795 373.181C154.522 368.956 155.868 362.445 159.286 361.132L173.376 355.707ZM146.486 359.647L142.232 364.501L137.977 359.647L139.595 351.796H144.85L146.468 359.647H146.486Z" fill="#58595B"/>
<path d="M142.486 301.172C122.868 301.172 106.978 326.155 106.978 356.935C106.978 387.715 122.887 412.698 142.486 412.698C162.085 412.698 177.994 387.715 177.994 356.935C177.994 326.155 162.085 301.172 142.486 301.172ZM142.486 402.619C126.414 402.619 113.396 382.175 113.396 356.935C113.396 331.695 126.414 311.251 142.486 311.251C158.558 311.251 171.576 331.695 171.576 356.935C171.576 382.175 158.558 402.619 142.486 402.619Z" fill="#A7A9AC"/>
<path d="M142.486 345C138.286 345 134.886 350.34 134.886 356.935C134.886 363.531 138.286 368.87 142.486 368.87C146.686 368.87 150.086 363.531 150.086 356.935C150.086 350.34 146.686 345 142.486 345Z" fill="#A7A9AC"/>
<path d="M520.223 394.126C533.334 345.597 518.912 289.565 488.01 268.976C457.108 248.387 421.429 271.036 408.319 319.565C395.208 368.094 409.631 424.126 440.532 444.715C471.434 465.305 507.113 442.655 520.223 394.126Z" fill="#58595B"/>
<path d="M489.394 396.365C503.261 374.588 503.261 339.28 489.394 317.504C475.528 295.727 453.045 295.727 439.178 317.504C425.312 339.281 425.312 374.588 439.178 396.365C453.045 418.141 475.528 418.141 489.394 396.365Z" fill="#A7A9AC"/>
<path d="M484.856 389.239C496.216 371.398 496.216 342.472 484.856 324.632C473.495 306.791 455.077 306.791 443.716 324.632C432.356 342.472 432.356 371.398 443.716 389.239C455.077 407.079 473.495 407.079 484.856 389.239Z" fill="#D1D3D4"/>
<path d="M495.184 355.707L490.42 332.637L478.057 340.574C474.803 342.659 471.276 338.633 471.53 333.122L472.603 310.394H457.167L458.149 331.323C458.403 336.834 454.876 340.86 451.622 338.776L438.186 330.153L433.422 353.223L446.404 358.22C449.822 359.533 451.167 366.043 448.895 370.269L439.513 387.657L452.004 401.905L459.04 384.06C460.894 379.349 465.258 379.349 467.112 384.06L474.748 403.447L487.239 389.199L478.603 373.181C476.33 368.956 477.676 362.445 481.094 361.132L495.184 355.707ZM468.294 359.647L464.04 364.501L459.785 359.647L461.403 351.796H466.658L468.276 359.647H468.294Z" fill="#58595B"/>
<path d="M464.294 301.172C444.676 301.172 428.786 326.155 428.786 356.935C428.786 387.715 444.695 412.698 464.294 412.698C483.893 412.698 499.802 387.715 499.802 356.935C499.802 326.155 483.893 301.172 464.294 301.172ZM464.294 402.619C448.222 402.619 435.204 382.175 435.204 356.935C435.204 331.695 448.222 311.251 464.294 311.251C480.366 311.251 493.384 331.695 493.384 356.935C493.384 382.175 480.366 402.619 464.294 402.619Z" fill="#A7A9AC"/>
<path d="M464.294 344.999C460.094 344.999 456.695 350.339 456.695 356.934C456.695 363.53 460.094 368.869 464.294 368.869C468.494 368.869 471.894 363.53 471.894 356.934C471.894 350.339 468.494 344.999 464.294 344.999Z" fill="#A7A9AC"/>
<path d="M291.354 178.767H257.919C257.919 187.076 262.21 193.814 267.501 193.814H281.755C287.046 193.814 291.336 187.076 291.336 178.767H291.354Z" fill="#0498A0"/>
<path d="M291.354 174.399H257.919C257.919 168.688 260.865 164.063 264.501 164.063H284.755C288.391 164.063 291.336 168.688 291.336 174.399H291.354Z" fill="#0498A0"/>
<path d="M30.9263 253.66V172.743H47.8167C47.8167 172.743 52.7801 246.008 30.9263 253.66Z" fill="#F95858"/>
<path d="M47.835 172.714H30.9446V182.907H40.0534C40.0534 182.907 43.2169 229.819 33.2718 252.49C52.4166 240.555 47.835 172.743 47.835 172.743V172.714Z" fill="#E4453E"/>
<path d="M565.164 193.101V246.494H543.219L523.329 211.203V176.369L565.164 193.101Z" fill="#FFDE17"/>
<path d="M554.91 234.159L535.619 199.896V181.28L523.329 176.369V211.203L543.219 246.494H565.164V234.159H554.91Z" fill="#FFB917"/>
<path opacity="0.1" d="M286.009 27.2676L257.083 129.628H229.266V119.464L255.301 27.2676H286.009Z" fill="white"/>
<path opacity="0.1" d="M329.735 43.2284L305.317 129.628H279.1L308.027 27.2676H321.462L329.735 43.2284Z" fill="white"/>
<path opacity="0.1" d="M131.323 27.2676L102.378 129.628H73.9065L102.833 27.2676H131.323Z" fill="white"/>
<path opacity="0.1" d="M176.703 27.2676L147.777 129.628H122.723L151.65 27.2676H176.703Z" fill="white"/>
<path d="M711.447 297.06H696.593C700.248 310.137 705.32 321.587 709.447 326.898H713.993C712.32 318.075 711.429 308.738 711.429 299.059C711.429 298.402 711.447 297.717 711.465 297.06H711.447Z" fill="#58595B"/>
<path d="M1280.47 247.664V363.416H708.248C700.884 353.937 690.43 324.613 690.903 301.857C690.903 301.857 693.757 273.305 698.375 239.384C698.721 236.757 699.102 234.073 699.484 231.361C702.321 211.374 705.72 190.188 709.502 172.314C712.229 159.352 715.175 148.159 718.211 140.421C718.211 140.421 803.772 38.8028 822.462 34.2629H993.257C1012.13 34.2629 1030.66 42.4004 1046.8 57.8188C1084 93.3952 1151.69 156.839 1162.54 158.466C1162.54 158.466 1274.7 187.79 1280.45 247.664H1280.47Z" fill="#FF833E"/>
<path d="M832.825 336.034C832.825 345.542 831.934 354.708 830.298 363.388H712.72C711.066 354.708 710.193 345.514 710.193 336.034C710.193 282.955 737.701 239.755 771.5 239.755C805.299 239.755 832.807 282.955 832.807 336.034H832.825Z" fill="#F26522"/>
<path d="M1201.36 336.034C1201.36 345.542 1200.49 354.708 1198.83 363.388H1081.27C1079.62 354.708 1078.74 345.514 1078.74 336.034C1078.74 282.955 1106.25 239.755 1140.05 239.755C1173.85 239.755 1201.36 282.955 1201.36 336.034Z" fill="#F26522"/>
<path d="M832.825 336.034C832.825 345.542 831.934 354.708 830.298 363.388H712.72C711.066 354.708 710.193 345.514 710.193 336.034C710.193 282.955 737.701 239.755 771.5 239.755C805.299 239.755 832.807 282.955 832.807 336.034H832.825Z" fill="#C1440E"/>
<path d="M1201.36 336.034C1201.36 345.542 1200.49 354.708 1198.83 363.388H1081.27C1079.62 354.708 1078.74 345.514 1078.74 336.034C1078.74 282.955 1106.25 239.755 1140.05 239.755C1173.85 239.755 1201.36 282.955 1201.36 336.034Z" fill="#C1440E"/>
<path d="M783.3 413.092C810.44 402.899 827.179 360.085 820.688 317.465C814.198 274.844 786.935 248.556 759.796 258.749C732.657 268.942 715.918 311.756 722.408 354.377C728.899 396.997 756.161 423.285 783.3 413.092Z" fill="#58595B"/>
<path d="M779.729 389.855C798.688 382.762 810.396 352.874 805.88 323.1C801.363 293.325 782.332 274.938 763.372 282.032C744.413 289.125 732.705 319.012 737.222 348.787C741.738 378.561 760.77 396.948 779.729 389.855Z" fill="#A7A9AC"/>
<path d="M778.676 383.394C795.312 377.179 805.59 350.962 801.633 324.836C797.676 298.71 780.982 282.569 764.346 288.783C747.71 294.998 737.432 321.215 741.389 347.341C745.346 373.467 762.04 389.608 778.676 383.394Z" fill="#D1D3D4"/>
<path d="M771.518 348.569C775.926 348.569 779.5 342.957 779.5 336.035C779.5 329.112 775.926 323.5 771.518 323.5C767.11 323.5 763.537 329.112 763.537 336.035C763.537 342.957 767.11 348.569 771.518 348.569Z" fill="#58595B"/>
<path d="M779.463 301.001C779.463 295.547 775.736 295.033 771.154 295.033C766.573 295.033 762.845 295.547 762.845 301.001C762.845 306.454 766.573 319.046 771.154 319.046C775.736 319.046 779.463 306.426 779.463 301.001Z" fill="#58595B"/>
<path d="M752.082 314.449C748.791 312.765 747.319 318.161 745.901 325.042C744.482 331.895 743.646 337.634 746.937 339.318C750.228 341.003 759.027 339.318 760.446 332.466C761.864 325.613 755.373 316.134 752.082 314.478V314.449Z" fill="#58595B"/>
<path d="M751.773 359.534C749.737 363.931 752.555 367.785 756.264 372.04C759.973 376.294 763.191 379.292 765.227 374.895C767.263 370.498 768.972 356.85 765.263 352.624C761.554 348.37 753.809 355.137 751.773 359.562V359.534Z" fill="#58595B"/>
<path d="M778.972 373.923C781.009 378.321 784.209 375.294 787.936 371.068C791.645 366.842 794.481 362.988 792.426 358.562C790.372 354.137 782.663 347.398 778.936 351.624C775.227 355.878 776.918 369.498 778.972 373.895V373.923Z" fill="#58595B"/>
<path d="M796.081 337.748C799.371 336.064 798.535 330.353 797.117 323.472C795.699 316.619 794.244 311.194 790.935 312.879C787.644 314.563 781.154 324.014 782.572 330.867C783.99 337.72 792.772 339.404 796.081 337.72V337.748Z" fill="#58595B"/>
<path d="M1169.92 399.915C1192.42 373.997 1197.28 324.34 1180.78 289.004C1164.27 253.669 1132.65 246.035 1110.15 271.953C1087.65 297.872 1082.79 347.529 1099.3 382.864C1115.8 418.2 1147.42 425.834 1169.92 399.915Z" fill="#58595B"/>
<path d="M1160.8 380.744C1176.56 362.736 1180.04 328.074 1168.57 303.324C1157.11 278.574 1135.03 273.109 1119.27 291.117C1103.51 309.125 1100.03 343.787 1111.5 368.537C1122.97 393.287 1145.04 398.752 1160.8 380.744Z" fill="#A7A9AC"/>
<path d="M1158.25 375.54C1172.09 359.766 1175.17 329.36 1165.12 307.626C1155.08 285.892 1135.72 281.059 1121.88 296.833C1108.04 312.606 1104.96 343.012 1115 364.747C1125.05 386.481 1144.41 391.313 1158.25 375.54Z" fill="#D1D3D4"/>
<path d="M1140.05 348.569C1144.46 348.569 1148.03 342.957 1148.03 336.035C1148.03 329.112 1144.46 323.5 1140.05 323.5C1135.64 323.5 1132.07 329.112 1132.07 336.035C1132.07 342.957 1135.64 348.569 1140.05 348.569Z" fill="#58595B"/>
<path d="M1148.02 301C1148.02 295.547 1144.29 295.033 1139.71 295.033C1135.12 295.033 1131.4 295.547 1131.4 301C1131.4 306.454 1135.12 319.045 1139.71 319.045C1144.29 319.045 1148.02 306.425 1148.02 301Z" fill="#58595B"/>
<path d="M1120.63 314.448C1117.34 312.764 1115.87 318.16 1114.45 325.041C1113.03 331.894 1112.2 337.633 1115.49 339.317C1118.78 341.002 1127.58 339.317 1129 332.465C1130.42 325.612 1123.92 316.133 1120.63 314.477V314.448Z" fill="#58595B"/>
<path d="M1120.31 359.533C1118.27 363.93 1121.09 367.785 1124.8 372.039C1128.51 376.293 1131.72 379.291 1133.76 374.894C1135.8 370.497 1137.51 356.849 1133.8 352.623C1130.09 348.369 1122.34 355.136 1120.31 359.562V359.533Z" fill="#58595B"/>
<path d="M1147.51 373.923C1149.54 378.32 1152.74 375.294 1156.47 371.068C1160.18 366.842 1163.01 362.987 1160.96 358.562C1158.92 354.165 1151.2 347.398 1147.47 351.624C1143.76 355.878 1145.45 369.497 1147.51 373.895V373.923Z" fill="#58595B"/>
<path d="M1164.63 337.747C1167.92 336.063 1167.09 330.352 1165.67 323.471C1164.25 316.618 1162.8 311.193 1159.49 312.878C1156.2 314.563 1149.71 324.013 1151.12 330.866C1152.54 337.719 1161.32 339.403 1164.63 337.719V337.747Z" fill="#58595B"/>
<path d="M1073.76 109.67V160.922H743.919C744.464 159.037 745.01 157.296 745.555 155.668C751.61 148.559 768.664 128.657 787.081 108.442C825.516 66.2988 837.589 58.3326 840.443 56.8479H993.256C1009.53 56.8479 1025.44 63.8718 1039.33 77.1202C1052.15 89.3692 1063.56 100.162 1073.74 109.67H1073.76Z" fill="#6D6E71"/>
<path d="M758.446 151.871C766.5 142.563 778.172 129.229 790.372 115.837C825.571 77.2345 838.061 67.9835 841.461 65.8706H993.275C1008.47 65.8706 1023.36 72.4377 1036.35 84.8295C1047.85 95.8222 1058.49 105.901 1068 114.81V151.899H758.427L758.446 151.871Z" fill="#6D6E71"/>
<path d="M930.149 56.8479L933.422 160.922H906.35L910.205 56.8479H930.149Z" fill="#414042"/>
<path opacity="0.1" d="M1039.35 77.1202C1037.73 75.5784 1036.09 74.1222 1034.42 72.7517L1011.35 160.922H1041.55L1058.67 95.4795C1052.6 89.7404 1046.18 83.6302 1039.35 77.1202Z" fill="white"/>
<path opacity="0.1" d="M993.275 56.8479H984.166L956.93 160.922H993.711L1019.33 63.0153C1010.93 58.9608 1002.15 56.8479 993.275 56.8479Z" fill="white"/>
<path opacity="0.1" d="M847.77 157.124H821.262L846.516 60.6169H854.952C860.806 60.6169 866.606 61.5877 872.26 63.5293L847.77 157.124Z" fill="white"/>
<path opacity="0.1" d="M892.114 60.6169H883.678L858.424 157.124H876.46L901.477 61.5021C898.386 60.931 895.259 60.6455 892.114 60.6455V60.6169Z" fill="white"/>
<path d="M1280.48 247.665C1279.52 237.729 1275.63 228.621 1269.81 220.369L1231.41 212.46C1226.65 211.489 1222.92 218.741 1224.52 225.851C1228.43 243.211 1236.25 269.422 1248.14 272.905C1251.94 274.019 1267.92 275.133 1280.5 275.846V247.694L1280.48 247.665Z" fill="#FFDE17"/>
<path d="M1241.92 239.813C1240.32 232.704 1244.05 225.451 1248.81 226.422L1276.45 232.132C1274.7 228.049 1272.45 224.109 1269.81 220.369L1231.41 212.46C1226.65 211.489 1222.92 218.741 1224.52 225.851C1228.43 243.211 1236.25 269.422 1248.14 272.905C1249.1 273.191 1250.88 273.477 1253.19 273.762C1248.01 263.797 1244.28 250.235 1241.94 239.842L1241.92 239.813Z" fill="#FFB917"/>
<path opacity="0.6" d="M916.95 341.203V152.328H1064.05L1076.96 154.184V323.5C1076.96 332.494 1072.31 339.804 1066.58 339.832L916.95 341.231V341.203ZM922.132 160.465V333.008L1066.56 331.666C1069.44 331.666 1071.76 328.011 1071.76 323.5V161.607L1063.69 160.465H922.132Z" fill="#E85F1A"/>
<path d="M1039.35 77.1202C1025.47 63.8718 1009.55 56.8479 993.275 56.8479H840.461C837.607 58.3041 825.534 66.2988 787.099 108.442C768.663 128.657 751.609 148.559 745.573 155.668C745.028 157.296 744.482 159.037 743.937 160.922H1073.78V109.67C1063.6 100.162 1052.18 89.3692 1039.36 77.1202H1039.35ZM1068.02 151.899H758.446C766.5 142.591 778.172 129.257 790.372 115.866C825.571 77.2629 838.061 68.0119 841.461 65.899H993.275C1008.47 65.899 1023.36 72.4661 1036.35 84.8579C1047.85 95.8506 1058.49 105.93 1068 114.838V151.928L1068.02 151.899Z" fill="#414042"/>
<path d="M1117.98 149.815C1106.67 139.964 1092.25 126.916 1073.76 109.641V160.893H1117.98V149.815Z" fill="#414042"/>
<path d="M973.475 201.039H941.84C941.84 208.919 945.894 215.286 950.913 215.286H964.403C969.421 215.286 973.475 208.919 973.475 201.039Z" fill="#C1440E"/>
<path d="M941.84 196.898H973.475C973.475 191.502 970.676 187.105 967.239 187.105H948.076C944.64 187.105 941.84 191.502 941.84 196.898Z" fill="#C1440E"/>
<path d="M845.007 201.039H813.371C813.371 208.919 817.426 215.286 822.444 215.286H835.934C840.952 215.286 845.007 208.919 845.007 201.039Z" fill="#C1440E"/>
<path d="M813.371 196.898H845.007C845.007 191.502 842.207 187.105 838.771 187.105H819.607C816.171 187.105 813.371 191.502 813.371 196.898Z" fill="#C1440E"/>
<path opacity="0.6" d="M913.077 342.43H872.733C858.715 342.43 846.461 328.183 842.261 306.997C825.171 220.683 746.682 236.701 745.9 236.872L742.955 237.5V161.036H748.137V228.306C763.136 226.25 830.807 221.739 847.206 304.57C850.733 322.329 860.988 334.293 872.715 334.293H907.877V160.922H913.059V342.459L913.077 342.43Z" fill="#E85F1A"/>
<path d="M1078.78 334.093H832.807C832.807 334.749 832.843 335.406 832.843 336.063C832.843 345.571 831.952 354.765 830.316 363.416H1081.29C1079.64 354.736 1078.76 345.542 1078.76 336.063C1078.76 335.406 1078.78 334.749 1078.8 334.093H1078.78Z" fill="#58595B"/>
<path d="M1201.34 334.093C1201.34 334.749 1201.38 335.406 1201.38 336.063C1201.38 345.571 1200.5 354.765 1198.87 363.416H1280.5V334.093H1201.36H1201.34Z" fill="#58595B"/>
<path d="M698.684 239.385H698.393C698.738 236.758 699.12 234.074 699.502 231.361C702.338 211.375 705.738 190.189 709.52 172.315H727.374C727.374 172.315 728.719 236.244 698.684 239.385Z" fill="#FF453E"/>
<path d="M698.684 239.385H698.393C698.738 236.758 699.12 234.074 699.502 231.361C715.174 219.798 718.792 188.333 719.592 172.315H727.392C727.392 172.315 728.737 236.244 698.702 239.385H698.684Z" fill="#E4453E"/>
<path opacity="0.54" d="M1982.75 426.292H1407.38C1401.23 426.292 1396.24 434.128 1396.24 443.794V445.45C1396.24 455.117 1401.23 462.953 1407.38 462.953H1982.75C1988.9 462.953 1993.89 455.117 1993.89 445.45V443.794C1993.89 434.128 1988.9 426.292 1982.75 426.292Z" fill="#D1D3D4"/>
<path d="M2017 258.832V365.647L1988.51 390.83H1412.51C1389.82 377.724 1393.55 330.07 1393.55 330.07C1387.87 190.991 1412.71 51.4549 1412.71 51.4549C1412.86 51.1694 1413.02 50.8268 1413.22 50.4841C1414.22 48.514 1415.82 45.6017 1417.6 42.3467C1422.91 32.6674 1430.16 19.9901 1430.16 19.9901H1848.21C1868.46 19.7902 1887.22 28.8413 1903.93 42.3467C1907.08 44.8878 1910.15 47.6003 1913.15 50.3985L1913.24 50.4841C1955.49 90.4291 1982.29 155.386 1982.29 155.386C2012.05 172.061 2017 258.832 2017 258.832Z" fill="#BCBEC0"/>
<path d="M1820.62 378.181C1820.62 382.464 1820.81 386.689 1821.15 390.83H1942.31C1942.66 386.689 1942.84 382.464 1942.84 378.181C1942.84 325.273 1915.42 282.216 1881.73 282.216C1848.04 282.216 1820.62 325.273 1820.62 378.181Z" fill="#C9243C"/>
<path d="M1464.6 378.181C1464.6 382.464 1464.78 386.689 1465.13 390.83H1586.29C1586.63 386.689 1586.81 382.464 1586.81 378.181C1586.81 325.273 1559.4 282.216 1525.71 282.216C1492.02 282.216 1464.6 325.273 1464.6 378.181Z" fill="#C9243C"/>
<path d="M1791.04 194.303V58.5076H1848.91C1864.5 58.5076 1880.48 64.0468 1896.39 74.9824C1909.46 83.9764 1922.55 96.5681 1935.26 112.472C1956.26 138.74 1969.38 191.505 1970.75 194.332H1791.04V194.303Z" fill="#58595B"/>
<path d="M1929.2 118.981C1917.51 104.676 1905.55 93.2269 1893.6 85.0323C1878.59 74.7249 1863.55 69.4998 1848.93 69.4998H1848.24H1798.06V183.339H1929.22V118.981H1929.2Z" fill="#6D6E71"/>
<path d="M1979.98 227.624C1979.98 227.624 1979.96 287.356 1993.69 293.038C1994.36 293.323 1995.07 293.409 1995.78 293.409H2017V258.86C2017 258.86 2016.22 245.184 2013.42 227.624H1979.98Z" fill="#FFDE17"/>
<path d="M1979.98 227.624C1979.98 227.624 1979.97 287.356 1993.69 293.038C1994.36 293.323 1995.07 293.409 1995.78 293.409H2017V283.53H2003.91C2003.22 283.53 2002.51 283.444 2001.82 283.159C1991.62 278.933 1989 244.841 1988.33 227.624H1979.97H1979.98Z" fill="#FFB31A"/>
<path d="M1395.15 208.808H1404.57C1408.47 208.808 1411.66 213.805 1411.66 219.943V303.716C1411.66 303.716 1405.8 320.363 1393.46 328.443C1391.86 287.356 1392.89 246.269 1395.15 208.808Z" fill="#FF453E"/>
<path d="M1411.67 219.972V303.745C1411.67 303.745 1406.4 318.649 1395.38 327.101C1401.24 319.477 1404.07 311.454 1404.07 311.454V227.681C1404.07 221.514 1400.89 216.546 1396.98 216.546H1394.71C1394.86 213.976 1394.98 211.349 1395.15 208.836H1404.58C1408.49 208.836 1411.67 213.805 1411.67 219.972Z" fill="#E4453E"/>
<path opacity="0.45" d="M1970.44 194.331H1965.26V390.858H1970.44V194.331Z" fill="#6D6E71"/>
<path opacity="0.45" d="M1913.24 50.4837H1413.2C1414.2 48.5135 1415.8 45.6012 1417.58 42.3462H1903.95L1913.17 50.398L1913.26 50.4837H1913.24Z" fill="#6D6E71"/>
<path opacity="0.45" d="M1774.74 235.818H1597.07V243.956H1774.74V235.818Z" fill="#6D6E71"/>
<path opacity="0.45" d="M1778.23 48.0283H1773.04V390.858H1778.23V48.0283Z" fill="#6D6E71"/>
<path d="M1858.57 224.397H1825.26C1825.26 231.136 1828.73 236.561 1833.01 236.561H1850.81C1855.1 236.561 1858.55 231.107 1858.55 224.397H1858.57Z" fill="#58595B"/>
<path d="M1825.26 220.857H1858.57C1858.57 216.231 1856.19 212.491 1853.24 212.491H1830.59C1827.64 212.491 1825.26 216.231 1825.26 220.857Z" fill="#58595B"/>
<path d="M1628.78 238.702H1595.47C1595.47 245.412 1598.94 250.865 1603.21 250.865H1621.01C1625.29 250.865 1628.76 245.412 1628.76 238.702H1628.78Z" fill="#58595B"/>
<path d="M1595.47 235.162H1628.78C1628.78 230.536 1626.39 226.796 1623.45 226.796H1600.8C1597.85 226.796 1595.47 230.536 1595.47 235.162Z" fill="#58595B"/>
<path opacity="0.45" d="M1605.14 391.287C1600.49 324.388 1581 287.984 1580.81 287.641L1580.2 286.499V284.986V182.625H1585.38V283.53C1588.94 290.525 1605.89 326.873 1610.3 390.402L1605.14 391.287Z" fill="#6D6E71"/>
<path d="M1413.17 194.303C1417.51 147.877 1422.89 86.0893 1425.2 71.7274C1427.16 69.9857 1430.06 67.8157 1432.93 65.9027L1756.1 58.479V194.275H1413.17V194.303Z" fill="#58595B"/>
<path d="M1601.43 73.0406L1749.1 69.6428V183.339H1613.79C1606.96 183.339 1601.41 174.63 1601.41 163.895V73.0406H1601.43Z" fill="#6D6E71"/>
<path d="M1558.49 183.339H1421.24C1421.84 176.886 1422.44 170.233 1423.06 163.58C1426.06 130.888 1429.4 94.3405 1431.33 79.0935C1432.29 78.3511 1433.35 77.5802 1434.4 76.8664L1569.21 73.7827V166.493C1569.21 175.801 1564.41 183.339 1558.49 183.339Z" fill="#6D6E71"/>
<path opacity="0.45" d="M1432.69 190.105H1427.51V381.721H1432.69V190.105Z" fill="#6D6E71"/>
<path d="M1394.66 356.51C1396.66 369.815 1401.42 384.434 1412.49 390.858H1988.49L2017 365.675V356.51H1394.66Z" fill="#58595B"/>
<path d="M1820.62 378.181C1820.62 382.464 1820.81 386.689 1821.15 390.83H1942.31C1942.66 386.689 1942.84 382.464 1942.84 378.181C1942.84 325.273 1915.42 282.216 1881.73 282.216C1848.04 282.216 1820.62 325.273 1820.62 378.181Z" fill="#808285"/>
<path d="M1464.6 378.181C1464.6 382.464 1464.78 386.689 1465.13 390.83H1586.29C1586.63 386.689 1586.81 382.464 1586.81 378.181C1586.81 325.273 1559.4 282.216 1525.71 282.216C1492.02 282.216 1464.6 325.273 1464.6 378.181Z" fill="#808285"/>
<path d="M1834.79 378.181C1834.79 418.897 1855.81 451.904 1881.73 451.904C1907.66 451.904 1928.68 418.897 1928.68 378.181C1928.68 337.465 1907.66 304.459 1881.73 304.459C1855.81 304.459 1834.79 337.465 1834.79 378.181ZM1851.99 378.181C1851.99 352.398 1865.3 331.498 1881.71 331.498C1898.13 331.498 1911.44 352.398 1911.44 378.181C1911.44 403.964 1898.13 424.865 1881.71 424.865C1865.3 424.865 1851.99 403.964 1851.99 378.181Z" fill="#58595B"/>
<path d="M1850.22 378.181C1850.22 405.506 1864.33 427.662 1881.73 427.662C1899.13 427.662 1913.24 405.506 1913.24 378.181C1913.24 350.856 1899.13 328.699 1881.73 328.699C1864.33 328.699 1850.22 350.856 1850.22 378.181ZM1856.26 378.181C1856.26 356.081 1867.66 338.179 1881.73 338.179C1895.8 338.179 1907.2 356.081 1907.2 378.181C1907.2 400.281 1895.8 418.183 1881.73 418.183C1867.66 418.183 1856.26 400.281 1856.26 378.181Z" fill="#A7A9AC"/>
<path d="M1881.73 420.467C1896.6 420.467 1908.66 401.535 1908.66 378.181C1908.66 354.827 1896.6 335.895 1881.73 335.895C1866.86 335.895 1854.81 354.827 1854.81 378.181C1854.81 401.535 1866.86 420.467 1881.73 420.467Z" fill="#D1D3D4"/>
<path d="M1881.73 399.167C1889.11 399.167 1895.09 389.771 1895.09 378.181C1895.09 366.591 1889.11 357.195 1881.73 357.195C1874.35 357.195 1868.37 366.591 1868.37 378.181C1868.37 389.771 1874.35 399.167 1881.73 399.167Z" fill="#58595B"/>
<path d="M1478.78 378.181C1478.78 418.897 1499.8 451.904 1525.72 451.904C1551.65 451.904 1572.67 418.897 1572.67 378.181C1572.67 337.465 1551.65 304.459 1525.72 304.459C1499.8 304.459 1478.78 337.465 1478.78 378.181ZM1495.98 378.181C1495.98 352.398 1509.29 331.498 1525.71 331.498C1542.12 331.498 1555.43 352.398 1555.43 378.181C1555.43 403.964 1542.12 424.865 1525.71 424.865C1509.29 424.865 1495.98 403.964 1495.98 378.181Z" fill="#58595B"/>
<path d="M1494.2 378.181C1494.2 405.506 1508.31 427.662 1525.71 427.662C1543.11 427.662 1557.21 405.506 1557.21 378.181C1557.21 350.856 1543.11 328.699 1525.71 328.699C1508.31 328.699 1494.2 350.856 1494.2 378.181ZM1500.23 378.181C1500.23 356.081 1511.63 338.179 1525.71 338.179C1539.78 338.179 1551.18 356.081 1551.18 378.181C1551.18 400.281 1539.78 418.183 1525.71 418.183C1511.63 418.183 1500.23 400.281 1500.23 378.181Z" fill="#A7A9AC"/>
<path d="M1525.71 420.467C1540.58 420.467 1552.63 401.535 1552.63 378.181C1552.63 354.827 1540.58 335.895 1525.71 335.895C1510.84 335.895 1498.78 354.827 1498.78 378.181C1498.78 401.535 1510.84 420.467 1525.71 420.467Z" fill="#D1D3D4"/>
<path d="M1525.71 399.167C1533.09 399.167 1539.07 389.771 1539.07 378.181C1539.07 366.591 1533.09 357.195 1525.71 357.195C1518.33 357.195 1512.34 366.591 1512.34 378.181C1512.34 389.771 1518.33 399.167 1525.71 399.167Z" fill="#58595B"/>
<path opacity="0.1" d="M1912.06 100.308L1890.33 183.339H1858.66L1885.7 80.0928C1888.31 81.5775 1890.95 83.2336 1893.59 85.0609C1899.77 89.2867 1905.91 94.369 1912.06 100.308Z" fill="white"/>
<path opacity="0.1" d="M1868.62 72.5834L1839.64 183.339H1800.44L1830.22 69.4998H1848.93C1855.44 69.4998 1862.02 70.5276 1868.64 72.5834H1868.62Z" fill="white"/>
<path opacity="0.1" d="M1738.86 69.8713L1709.17 183.339H1677.48L1706.99 70.6137L1738.86 69.8713Z" fill="white"/>
<path opacity="0.1" d="M1556.6 74.0398L1528 183.339H1496.31L1524.72 74.8107L1556.6 74.0398Z" fill="white"/>
<path opacity="0.1" d="M1682.52 71.1848L1653.18 183.339H1613.98L1643.07 72.0985L1682.52 71.1848Z" fill="white"/>
<path opacity="0.1" d="M1507.34 75.1819L1479.04 183.339H1439.84L1467.87 76.0956L1507.34 75.1819Z" fill="white"/>
</svg>
