<svg width="9470" height="2484" viewBox="0 0 9470 2484" fill="none" xmlns="http://www.w3.org/2000/svg">
<path opacity="0.54" d="M2607.23 2202.34H215.198C187.996 2202.34 165.944 2240.35 165.944 2287.24V2306.37C165.944 2353.26 187.996 2391.27 215.198 2391.27H2607.23C2634.43 2391.27 2656.48 2353.26 2656.48 2306.37V2287.24C2656.48 2240.35 2634.43 2202.34 2607.23 2202.34Z" fill="#D1D3D4"/>
<path d="M80.8384 555.035H293.476V1470.58H80.8384C36.1937 1470.58 0 1408.19 0 1331.23V694.529C0 617.572 36.1937 555.182 80.8384 555.182V555.035Z" fill="#58595B"/>
<path d="M1462.09 931.289H1298.96C1298.96 967.487 1315.95 996.768 1336.95 996.768H1424.1C1445.1 996.768 1462.09 967.487 1462.09 931.289Z" fill="#58595B"/>
<path d="M1298.88 912.305H1462C1462 887.437 1450.31 867.278 1435.88 867.278H1324.91C1310.49 867.278 1298.79 887.437 1298.79 912.305H1298.88Z" fill="#58595B"/>
<path d="M2714.79 1618.31V1364.93L2653.49 1271.49V995.149L1850.74 643.029L1546.43 0H349.474L145.286 709.98V1741.62H2677.99L2714.79 1618.31Z" fill="#01B3C8"/>
<path d="M2653.5 995.149V1270.31H2550.46L2457.08 1088.44V908.922L2653.5 995.149Z" fill="#01B3C8"/>
<path d="M145.202 1307.25V890.234H224.504C224.504 890.234 247.808 1267.81 145.202 1307.25Z" fill="#01B3C8"/>
<path d="M1018.37 1741.62H319.597C346.827 1451.45 493.139 1229.26 668.986 1229.26C844.833 1229.26 991.144 1451.45 1018.37 1741.62Z" fill="#0498A0"/>
<path d="M2529.29 1741.62H1830.51C1857.74 1451.45 2004.05 1229.26 2179.9 1229.26C2355.75 1229.26 2502.06 1451.45 2529.29 1741.62Z" fill="#0498A0"/>
<path d="M905.1 84.4619H378.583L196.676 724.106H825.457L905.1 84.4619Z" fill="#414042"/>
<path d="M864.893 140.524L799.164 668.043H248.746L398.814 140.524H864.893Z" fill="#6D6E71"/>
<path opacity="0.47" d="M1867.05 1692.77H1168.87L1043.9 1214.84V645.674L1807.47 683.932L1867.05 877.429V1692.91V1692.77ZM1184.58 1650.83H1842.64V887.73L1792.53 725.133L1068.14 688.935V1205.86L1184.49 1650.83H1184.58Z" fill="#05777C"/>
<path d="M1524.75 84.4619H1043.98V724.106H1824.2V718.368L1524.75 84.4619Z" fill="#414042"/>
<path d="M1076.42 668.043V140.377H1509.3L1758.55 668.043H1076.42Z" fill="#6D6E71"/>
<path d="M145.286 1538.12V1741.62H2677.99L2714.79 1618.31V1538.12H145.286Z" fill="#58595B"/>
<path d="M1018.37 1741.62H319.596C346.826 1451.45 493.138 1229.26 668.985 1229.26C844.832 1229.26 991.143 1451.45 1018.37 1741.62Z" fill="#068787"/>
<path d="M2529.29 1741.62H1830.51C1857.74 1451.45 2004.05 1229.26 2179.9 1229.26C2355.75 1229.26 2502.06 1451.45 2529.29 1741.62Z" fill="#068787"/>
<path d="M931.572 2031.16C993.128 1781.07 925.413 1492.31 780.327 1386.2C635.241 1280.09 467.725 1396.82 406.17 1646.91C344.614 1897.01 412.329 2185.77 557.415 2291.88C702.501 2397.98 870.017 2281.26 931.572 2031.16Z" fill="#58595B"/>
<path d="M786.848 2042.65C851.954 1930.42 851.954 1748.46 786.848 1636.24C721.743 1524.01 616.186 1524.01 551.08 1636.24C485.975 1748.46 485.975 1930.42 551.08 2042.65C616.186 2154.88 721.742 2154.87 786.848 2042.65Z" fill="#A7A9AC"/>
<path d="M760.392 2014.38C816.422 1927.33 820.902 1778.46 770.4 1681.88C719.897 1585.29 633.535 1577.57 577.506 1664.62C521.476 1751.68 516.995 1900.55 567.498 1997.13C618 2093.71 704.362 2101.44 760.392 2014.38Z" fill="#D1D3D4"/>
<path d="M814.017 1833.15L791.652 1714.25L733.605 1755.16C718.325 1765.9 701.765 1745.15 702.96 1716.75L707.997 1599.63H635.524L640.133 1707.48C641.328 1735.88 624.768 1756.63 609.488 1745.89L546.405 1701.45L524.04 1820.35L584.989 1846.1C601.037 1852.86 607.354 1886.41 596.684 1908.19L552.637 1997.8L611.281 2071.23L644.316 1979.26C653.023 1954.98 673.51 1954.98 682.217 1979.26L718.069 2079.17L776.713 2005.75L736.166 1923.2C725.496 1901.42 731.813 1867.87 747.861 1861.1L814.017 1833.15ZM687.765 1853.45L667.791 1878.47L647.816 1853.45L655.413 1812.99H680.083L687.68 1853.45H687.765Z" fill="#58595B"/>
<path d="M668.986 1552.1C576.879 1552.1 502.272 1680.85 502.272 1839.47C502.272 1998.1 576.965 2126.85 668.986 2126.85C761.006 2126.85 835.699 1998.1 835.699 1839.47C835.699 1680.85 761.006 1552.1 668.986 1552.1ZM668.986 2074.91C593.525 2074.91 532.405 1969.55 532.405 1839.47C532.405 1709.4 593.525 1604.04 668.986 1604.04C744.446 1604.04 805.566 1709.4 805.566 1839.47C805.566 1969.55 744.446 2074.91 668.986 2074.91Z" fill="#A7A9AC"/>
<path d="M668.985 1777.97C649.266 1777.97 633.304 1805.48 633.304 1839.48C633.304 1873.47 649.266 1900.98 668.985 1900.98C688.704 1900.98 704.667 1873.47 704.667 1839.48C704.667 1805.48 688.704 1777.97 668.985 1777.97Z" fill="#A7A9AC"/>
<path d="M2442.5 2031.14C2504.05 1781.04 2436.34 1492.28 2291.25 1386.17C2146.17 1280.07 1978.65 1396.79 1917.09 1646.89C1855.54 1896.98 1923.25 2185.74 2068.34 2291.85C2213.43 2397.96 2380.94 2281.24 2442.5 2031.14Z" fill="#58595B"/>
<path d="M2297.75 2042.68C2362.86 1930.45 2362.86 1748.49 2297.75 1636.26C2232.65 1524.04 2127.09 1524.04 2061.98 1636.26C1996.88 1748.49 1996.88 1930.45 2061.98 2042.68C2127.09 2154.9 2232.65 2154.9 2297.75 2042.68Z" fill="#A7A9AC"/>
<path d="M2276.44 2005.95C2329.78 1914.01 2329.78 1764.94 2276.44 1673C2223.1 1581.06 2136.63 1581.06 2083.29 1673C2029.95 1764.94 2029.95 1914.01 2083.29 2005.95C2136.63 2097.89 2223.1 2097.89 2276.44 2005.95Z" fill="#D1D3D4"/>
<path d="M2324.93 1833.15L2302.57 1714.25L2244.52 1755.16C2229.24 1765.9 2212.68 1745.15 2213.88 1716.75L2218.91 1599.63H2146.44L2151.05 1707.48C2152.25 1735.88 2135.69 1756.63 2120.41 1745.89L2057.32 1701.45L2034.96 1820.35L2095.91 1846.1C2111.96 1852.86 2118.27 1886.41 2107.6 1908.19L2063.55 1997.8L2122.2 2071.23L2155.23 1979.26C2163.94 1954.98 2184.43 1954.98 2193.14 1979.26L2228.99 2079.17L2287.63 2005.75L2247.08 1923.2C2236.41 1901.42 2242.73 1867.87 2258.78 1861.1L2324.93 1833.15ZM2198.68 1853.45L2178.71 1878.47L2158.73 1853.45L2166.33 1812.99H2191L2198.6 1853.45H2198.68Z" fill="#58595B"/>
<path d="M2179.9 1552.1C2087.8 1552.1 2013.19 1680.85 2013.19 1839.47C2013.19 1998.1 2087.88 2126.85 2179.9 2126.85C2271.92 2126.85 2346.62 1998.1 2346.62 1839.47C2346.62 1680.85 2271.92 1552.1 2179.9 1552.1ZM2179.9 2074.91C2104.44 2074.91 2043.32 1969.55 2043.32 1839.47C2043.32 1709.4 2104.44 1604.04 2179.9 1604.04C2255.36 1604.04 2316.48 1709.4 2316.48 1839.47C2316.48 1969.55 2255.36 2074.91 2179.9 2074.91Z" fill="#A7A9AC"/>
<path d="M2179.9 1777.96C2160.18 1777.96 2144.22 1805.48 2144.22 1839.47C2144.22 1873.46 2160.18 1900.98 2179.9 1900.98C2199.62 1900.98 2215.59 1873.46 2215.59 1839.47C2215.59 1805.48 2199.62 1777.96 2179.9 1777.96Z" fill="#A7A9AC"/>
<path d="M1367.94 921.28H1210.96C1210.96 964.099 1231.1 998.826 1255.94 998.826H1322.87C1347.71 998.826 1367.85 964.099 1367.85 921.28H1367.94Z" fill="#0498A0"/>
<path d="M1367.94 898.77H1210.95C1210.95 869.341 1224.78 845.503 1241.86 845.503H1336.95C1354.02 845.503 1367.85 869.341 1367.85 898.77H1367.94Z" fill="#0498A0"/>
<path d="M145.202 1307.25V890.234H224.504C224.504 890.234 247.808 1267.81 145.202 1307.25Z" fill="#F95858"/>
<path d="M224.588 890.087H145.286V942.618H188.053C188.053 942.618 202.906 1184.38 156.213 1301.21C246.099 1239.71 224.588 890.234 224.588 890.234V890.087Z" fill="#E4453E"/>
<path d="M2653.5 995.149V1270.31H2550.46L2457.08 1088.44V908.922L2653.5 995.149Z" fill="#FFDE17"/>
<path d="M2605.35 1206.75L2514.78 1030.17V934.231L2457.08 908.922V1088.44L2550.46 1270.31H2653.5V1206.75H2605.35Z" fill="#FFB917"/>
<path opacity="0.1" d="M1342.84 140.524L1207.03 668.043H1076.42V615.659L1198.66 140.524H1342.84Z" fill="white"/>
<path opacity="0.1" d="M1548.14 222.779L1433.49 668.043H1310.4L1446.21 140.524H1509.3L1548.14 222.779Z" fill="white"/>
<path opacity="0.1" d="M616.574 140.524L480.677 668.043H346.999L482.811 140.524H616.574Z" fill="white"/>
<path opacity="0.1" d="M829.641 140.524L693.829 668.043H576.199L712.011 140.524H829.641Z" fill="white"/>
<path d="M3340.31 1530.91H3270.57C3287.73 1598.3 3311.54 1657.31 3330.92 1684.68H3352.26C3344.41 1639.21 3340.23 1591.09 3340.23 1541.21C3340.23 1537.82 3340.31 1534.29 3340.4 1530.91H3340.31Z" fill="#58595B"/>
<path d="M6011.9 1276.35V1872.88H3325.29C3290.72 1824.02 3241.63 1672.9 3243.85 1555.63C3243.85 1555.63 3257.25 1408.48 3278.94 1233.67C3280.56 1220.14 3282.35 1206.3 3284.14 1192.32C3297.46 1089.32 3313.42 980.14 3331.18 888.027C3343.98 821.222 3357.81 763.541 3372.07 723.664C3372.07 723.664 3773.78 199.971 3861.54 176.575H4663.43C4752.04 176.575 4839.02 218.512 4914.82 297.971C5089.48 481.315 5407.28 808.273 5458.24 816.661C5458.24 816.661 5984.84 967.78 6011.82 1276.35H6011.9Z" fill="#FF833E"/>
<path d="M3910.19 1731.76C3910.19 1780.76 3906.01 1828 3898.33 1872.73H3346.29C3338.52 1828 3334.42 1780.62 3334.42 1731.76C3334.42 1458.22 3463.57 1235.59 3622.26 1235.59C3780.95 1235.59 3910.11 1458.22 3910.11 1731.76H3910.19Z" fill="#F26522"/>
<path d="M5640.49 1731.76C5640.49 1780.76 5636.39 1828 5628.63 1872.73H5076.67C5068.9 1828 5064.81 1780.62 5064.81 1731.76C5064.81 1458.22 5193.96 1235.59 5352.65 1235.59C5511.34 1235.59 5640.49 1458.22 5640.49 1731.76Z" fill="#F26522"/>
<path d="M3910.19 1731.76C3910.19 1780.76 3906.01 1828 3898.33 1872.73H3346.29C3338.52 1828 3334.42 1780.62 3334.42 1731.76C3334.42 1458.22 3463.57 1235.59 3622.26 1235.59C3780.95 1235.59 3910.11 1458.22 3910.11 1731.76H3910.19Z" fill="#C1440E"/>
<path d="M5640.49 1731.76C5640.49 1780.76 5636.39 1828 5628.63 1872.73H5076.67C5068.9 1828 5064.81 1780.61 5064.81 1731.76C5064.81 1458.22 5193.96 1235.59 5352.65 1235.59C5511.34 1235.59 5640.49 1458.22 5640.49 1731.76Z" fill="#C1440E"/>
<path d="M3677.67 2128.88C3805.09 2076.35 3883.68 1855.71 3853.21 1636.06C3822.73 1416.42 3694.73 1280.94 3567.31 1333.47C3439.89 1386 3361.3 1606.64 3391.77 1826.29C3422.25 2045.93 3550.25 2181.41 3677.67 2128.88Z" fill="#58595B"/>
<path d="M3660.9 2009.13C3749.92 1972.57 3804.89 1818.55 3783.68 1665.1C3762.47 1511.66 3673.12 1416.9 3584.1 1453.46C3495.09 1490.01 3440.12 1644.04 3461.32 1797.48C3482.53 1950.93 3571.88 2045.68 3660.9 2009.13Z" fill="#A7A9AC"/>
<path d="M3655.96 1975.83C3734.06 1943.8 3782.32 1808.69 3763.74 1674.05C3745.16 1539.41 3666.78 1456.23 3588.67 1488.25C3510.57 1520.28 3462.31 1655.39 3480.89 1790.03C3499.47 1924.67 3577.85 2007.86 3655.96 1975.83Z" fill="#D1D3D4"/>
<path d="M3622.35 1796.36C3643.05 1796.36 3659.82 1767.44 3659.82 1731.76C3659.82 1696.09 3643.05 1667.17 3622.35 1667.17C3601.65 1667.17 3584.88 1696.09 3584.88 1731.76C3584.88 1767.44 3601.65 1796.36 3622.35 1796.36Z" fill="#58595B"/>
<path d="M3659.65 1551.21C3659.65 1523.11 3642.15 1520.46 3620.64 1520.46C3599.13 1520.46 3581.63 1523.11 3581.63 1551.21C3581.63 1579.32 3599.13 1644.21 3620.64 1644.21C3642.15 1644.21 3659.65 1579.17 3659.65 1551.21Z" fill="#58595B"/>
<path d="M3531.09 1620.52C3515.64 1611.84 3508.73 1639.65 3502.07 1675.11C3495.41 1710.43 3491.49 1740 3506.94 1748.69C3522.39 1757.37 3563.7 1748.69 3570.36 1713.37C3577.02 1678.06 3546.55 1629.2 3531.09 1620.67V1620.52Z" fill="#58595B"/>
<path d="M3529.64 1852.87C3520.08 1875.53 3533.31 1895.39 3550.73 1917.32C3568.14 1939.24 3583.25 1954.69 3592.81 1932.03C3602.37 1909.37 3610.4 1839.03 3592.98 1817.26C3575.57 1795.33 3539.2 1830.21 3529.64 1853.01V1852.87Z" fill="#58595B"/>
<path d="M3657.35 1927.02C3666.91 1949.69 3681.93 1934.09 3699.43 1912.31C3716.84 1890.53 3730.16 1870.67 3720.52 1847.86C3710.87 1825.05 3674.68 1790.33 3657.18 1812.1C3639.76 1834.03 3647.7 1904.22 3657.35 1926.88V1927.02Z" fill="#58595B"/>
<path d="M3737.67 1740.59C3753.12 1731.91 3749.2 1702.48 3742.54 1667.02C3735.88 1631.71 3729.05 1603.75 3713.51 1612.43C3698.06 1621.11 3667.59 1669.82 3674.25 1705.13C3680.9 1740.45 3722.13 1749.13 3737.67 1740.45V1740.59Z" fill="#58595B"/>
<path d="M5492.88 2060.98C5598.52 1927.4 5621.35 1671.5 5543.86 1489.39C5466.37 1307.29 5317.91 1267.95 5212.27 1401.52C5106.63 1535.09 5083.81 1791 5161.29 1973.1C5238.78 2155.21 5387.24 2194.55 5492.88 2060.98Z" fill="#58595B"/>
<path d="M5450.06 1962.17C5524.05 1869.37 5540.39 1690.74 5486.56 1563.19C5432.72 1435.64 5329.09 1407.48 5255.1 1500.28C5181.1 1593.09 5164.76 1771.72 5218.6 1899.27C5272.44 2026.81 5376.07 2054.98 5450.06 1962.17Z" fill="#A7A9AC"/>
<path d="M5438.09 1935.35C5503.07 1854.06 5517.51 1697.37 5470.35 1585.36C5423.2 1473.35 5332.29 1448.45 5267.32 1529.74C5202.34 1611.03 5187.89 1767.72 5235.05 1879.73C5282.21 1991.74 5373.11 2016.64 5438.09 1935.35Z" fill="#D1D3D4"/>
<path d="M5352.65 1796.36C5373.34 1796.36 5390.12 1767.44 5390.12 1731.76C5390.12 1696.09 5373.34 1667.17 5352.65 1667.17C5331.95 1667.17 5315.17 1696.09 5315.17 1731.76C5315.17 1767.44 5331.95 1796.36 5352.65 1796.36Z" fill="#58595B"/>
<path d="M5390.04 1551.21C5390.04 1523.11 5372.54 1520.46 5351.03 1520.46C5329.51 1520.46 5312.01 1523.11 5312.01 1551.21C5312.01 1579.32 5329.51 1644.21 5351.03 1644.21C5372.54 1644.21 5390.04 1579.17 5390.04 1551.21Z" fill="#58595B"/>
<path d="M5261.48 1620.52C5246.03 1611.84 5239.11 1639.65 5232.46 1675.11C5225.8 1710.42 5221.87 1740 5237.32 1748.68C5252.77 1757.36 5294.09 1748.68 5300.75 1713.37C5307.4 1678.05 5276.93 1629.2 5261.48 1620.66V1620.52Z" fill="#58595B"/>
<path d="M5259.95 1852.86C5250.38 1875.52 5263.62 1895.39 5281.03 1917.31C5298.44 1939.24 5313.55 1954.69 5323.11 1932.03C5332.67 1909.37 5340.7 1839.03 5323.28 1817.25C5305.87 1795.33 5269.51 1830.2 5259.95 1853.01V1852.86Z" fill="#58595B"/>
<path d="M5387.65 1927.02C5397.21 1949.68 5412.23 1934.09 5429.73 1912.31C5447.14 1890.53 5460.46 1870.67 5450.81 1847.86C5441.25 1825.2 5404.98 1790.32 5387.48 1812.1C5370.06 1834.03 5378 1904.22 5387.65 1926.88V1927.02Z" fill="#58595B"/>
<path d="M5468.06 1740.59C5483.51 1731.91 5479.58 1702.48 5472.92 1667.02C5466.27 1631.7 5459.44 1603.74 5443.9 1612.42C5428.45 1621.11 5397.98 1669.81 5404.63 1705.13C5411.29 1740.44 5452.52 1749.12 5468.06 1740.44V1740.59Z" fill="#58595B"/>
<path d="M5041.42 565.187V829.315H3492.77C3495.33 819.603 3497.89 810.627 3500.45 802.24C3528.88 765.6 3608.95 663.04 3695.42 558.86C3875.88 341.673 3932.56 300.619 3945.96 292.967H4663.43C4739.83 292.967 4814.52 329.165 4879.74 397.441C4939.92 460.567 4993.53 516.188 5041.33 565.187H5041.42Z" fill="#6D6E71"/>
<path d="M3560.97 782.67C3598.79 734.7 3653.59 665.983 3710.87 596.972C3876.13 398.03 3934.77 350.355 3950.74 339.466H4663.52C4734.88 339.466 4804.79 373.31 4865.74 437.171C4919.77 493.822 4969.71 545.765 5014.36 591.674V782.817H3560.89L3560.97 782.67Z" fill="#6D6E71"/>
<path d="M4367.14 292.967L4382.5 829.315H4255.4L4273.49 292.967H4367.14Z" fill="#414042"/>
<path opacity="0.1" d="M4879.83 397.441C4872.23 389.495 4864.55 381.991 4856.69 374.928L4748.37 829.315H4890.15L4970.57 492.056C4942.05 462.48 4911.92 430.991 4879.83 397.441Z" fill="white"/>
<path opacity="0.1" d="M4663.52 292.967H4620.75L4492.88 829.315H4665.57L4785.84 324.751C4746.4 303.856 4705.17 292.967 4663.52 292.967Z" fill="white"/>
<path opacity="0.1" d="M3980.36 809.745H3855.9L3974.47 312.391H4014.08C4041.56 312.391 4068.79 317.394 4095.34 327.4L3980.36 809.745Z" fill="white"/>
<path opacity="0.1" d="M4188.56 312.391H4148.95L4030.38 809.745H4115.06L4232.52 316.952C4218.01 314.01 4203.32 312.538 4188.56 312.538V312.391Z" fill="white"/>
<path d="M6011.99 1276.35C6007.46 1225.14 5989.2 1178.2 5961.88 1135.68L5781.59 1094.92C5759.23 1089.91 5741.73 1127.29 5749.24 1163.93C5767.59 1253.39 5804.3 1388.47 5860.13 1406.43C5877.97 1412.16 5953 1417.9 6012.07 1421.58V1276.5L6011.99 1276.35Z" fill="#FFDE17"/>
<path d="M5830.93 1235.88C5823.42 1199.24 5840.92 1161.87 5863.29 1166.87L5993.04 1196.3C5984.84 1175.26 5974.26 1154.95 5961.88 1135.68L5781.59 1094.92C5759.23 1089.91 5741.73 1127.29 5749.24 1163.93C5767.59 1253.39 5804.3 1388.47 5860.13 1406.43C5864.65 1407.9 5873.02 1409.37 5883.86 1410.84C5859.53 1359.49 5842.03 1289.59 5831.02 1236.03L5830.93 1235.88Z" fill="#FFB917"/>
<path opacity="0.6" d="M4305.17 1758.4V785.026H4995.83L5056.44 794.59V1667.17C5056.44 1713.52 5034.59 1751.19 5007.7 1751.33L4305.17 1758.54V1758.4ZM4329.49 826.962V1716.17L5007.61 1709.25C5021.1 1709.25 5032.03 1690.42 5032.03 1667.17V832.848L4994.13 826.962H4329.49Z" fill="#E85F1A"/>
<path d="M4879.82 397.441C4814.69 329.165 4739.91 292.967 4663.52 292.967H3946.04C3932.64 300.472 3875.96 341.673 3695.5 558.86C3608.95 663.04 3528.88 765.6 3500.54 802.24C3497.97 810.627 3495.41 819.603 3492.85 829.315H5041.5V565.187C4993.7 516.188 4940.09 460.567 4879.91 397.441H4879.82ZM5014.44 782.817H3560.97C3598.79 734.847 3653.59 666.13 3710.87 597.118C3876.13 398.177 3934.77 350.501 3950.74 339.612H4663.52C4734.88 339.612 4804.79 373.456 4865.74 437.317C4919.77 493.969 4969.71 545.911 5014.36 591.821V782.964L5014.44 782.817Z" fill="#414042"/>
<path d="M5249.02 772.074C5195.92 721.309 5128.23 654.063 5041.42 565.04V829.167H5249.02V772.074Z" fill="#414042"/>
<path d="M4570.56 1036.06H4422.03C4422.03 1076.67 4441.06 1109.48 4464.62 1109.48H4527.96C4551.52 1109.48 4570.56 1076.67 4570.56 1036.06Z" fill="#C1440E"/>
<path d="M4422.03 1014.72H4570.56C4570.56 986.91 4557.41 964.249 4541.28 964.249H4451.31C4435.17 964.249 4422.03 986.91 4422.03 1014.72Z" fill="#C1440E"/>
<path d="M3967.38 1036.06H3818.85C3818.85 1076.67 3837.89 1109.48 3861.45 1109.48H3924.79C3948.35 1109.48 3967.38 1076.67 3967.38 1036.06Z" fill="#C1440E"/>
<path d="M3818.85 1014.72H3967.38C3967.38 986.91 3954.24 964.249 3938.11 964.249H3848.13C3832 964.249 3818.85 986.91 3818.85 1014.72Z" fill="#C1440E"/>
<path opacity="0.6" d="M4286.98 1764.72H4097.56C4031.75 1764.72 3974.21 1691.3 3954.49 1582.12C3874.25 1137.29 3505.74 1219.84 3502.07 1220.73L3488.24 1223.96V829.905H3512.57V1176.58C3583 1165.99 3900.72 1142.74 3977.71 1569.61C3994.27 1661.13 4042.42 1722.79 4097.48 1722.79H4262.57V829.316H4286.9V1764.87L4286.98 1764.72Z" fill="#E85F1A"/>
<path d="M5064.98 1721.76H3910.11C3910.11 1725.14 3910.28 1728.52 3910.28 1731.91C3910.28 1780.91 3906.09 1828.29 3898.41 1872.88H5076.76C5068.99 1828.14 5064.89 1780.76 5064.89 1731.91C5064.89 1728.52 5064.98 1725.14 5065.06 1721.76H5064.98Z" fill="#58595B"/>
<path d="M5640.4 1721.76C5640.4 1725.14 5640.57 1728.52 5640.57 1731.91C5640.57 1780.91 5636.48 1828.29 5628.79 1872.88H6012.07V1721.76H5640.49H5640.4Z" fill="#58595B"/>
<path d="M3280.38 1233.67H3279.02C3280.64 1220.14 3282.43 1206.31 3284.23 1192.33C3297.54 1089.32 3313.51 980.142 3331.26 888.028H3415.09C3415.09 888.028 3421.4 1217.49 3280.38 1233.67Z" fill="#FF453E"/>
<path d="M3280.38 1233.67H3279.02C3280.64 1220.14 3282.43 1206.31 3284.23 1192.33C3357.81 1132.73 3374.8 970.577 3378.55 888.028H3415.17C3415.17 888.028 3421.49 1217.49 3280.47 1233.67H3280.38Z" fill="#E4453E"/>
<path opacity="0.54" d="M9309.18 2196.91H6607.79C6578.89 2196.91 6555.46 2237.29 6555.46 2287.11V2295.64C6555.46 2345.46 6578.89 2385.84 6607.79 2385.84H9309.18C9338.08 2385.84 9361.5 2345.46 9361.5 2295.64V2287.11C9361.5 2237.29 9338.08 2196.91 9309.18 2196.91Z" fill="#D1D3D4"/>
<path d="M9470 1333.9V1884.37L9336.23 2014.15H6631.86C6525.33 1946.61 6542.83 1701.03 6542.83 1701.03C6516.2 984.277 6632.8 265.174 6632.8 265.174C6633.48 263.703 6634.25 261.937 6635.19 260.171C6639.89 250.018 6647.4 235.009 6655.76 218.235C6680.69 168.352 6714.75 103.019 6714.75 103.019H8677.49C8772.59 101.989 8860.68 148.635 8939.13 218.235C8953.89 231.331 8968.32 245.31 8982.41 259.73L8982.83 260.171C9181.22 466.029 9307.04 800.786 9307.04 800.786C9446.78 886.72 9470 1333.9 9470 1333.9Z" fill="#BCBEC0"/>
<path d="M8548 1948.96C8548 1971.04 8548.85 1992.81 8550.47 2014.15H9119.33C9120.95 1992.81 9121.81 1971.04 9121.81 1948.96C9121.81 1676.3 8993.08 1454.41 8834.9 1454.41C8676.72 1454.41 8548 1676.3 8548 1948.96Z" fill="#C9243C"/>
<path d="M6876.43 1948.96C6876.43 1971.04 6877.28 1992.81 6878.9 2014.15H7447.76C7449.38 1992.81 7450.24 1971.04 7450.24 1948.96C7450.24 1676.3 7321.51 1454.41 7163.33 1454.41C7005.16 1454.41 6876.43 1676.3 6876.43 1948.96Z" fill="#C9243C"/>
<path d="M8409.11 1001.35V301.52H8680.82C8753.98 301.52 8829.01 330.067 8903.7 386.424C8965.08 432.775 9026.54 497.666 9086.21 579.626C9184.8 715.001 9246.43 986.927 9252.84 1001.49H8409.11V1001.35Z" fill="#58595B"/>
<path d="M9057.78 613.173C9002.9 539.453 8946.73 480.447 8890.64 438.216C8820.13 385.097 8749.54 358.169 8680.91 358.169H8677.66H8442.06V944.84H9057.87V613.173H9057.78Z" fill="#6D6E71"/>
<path d="M9296.2 1173.07C9296.2 1173.07 9296.12 1480.9 9360.56 1510.18C9363.72 1511.65 9367.05 1512.09 9370.38 1512.09H9470V1334.04C9470 1334.04 9466.33 1263.56 9453.18 1173.07H9296.2Z" fill="#FFDE17"/>
<path d="M9296.2 1173.07C9296.2 1173.07 9296.12 1480.9 9360.57 1510.18C9363.72 1511.65 9367.05 1512.09 9370.38 1512.09H9470V1461.18H9408.54C9405.3 1461.18 9401.97 1460.74 9398.72 1459.27C9350.83 1437.49 9338.54 1261.8 9335.38 1173.07H9296.12H9296.2Z" fill="#FFB31A"/>
<path d="M6550.34 1076.1H6594.56C6612.91 1076.1 6627.85 1101.85 6627.85 1133.48V1565.21C6627.85 1565.21 6600.37 1651 6542.41 1692.64C6534.89 1480.9 6539.76 1269.15 6550.34 1076.1Z" fill="#FF453E"/>
<path d="M6627.94 1133.63V1565.36C6627.94 1565.36 6603.18 1642.17 6551.45 1685.72C6578.94 1646.44 6592.26 1605.09 6592.26 1605.09V1173.36C6592.26 1141.58 6577.32 1115.97 6558.96 1115.97H6548.29C6548.98 1102.73 6549.58 1089.19 6550.34 1076.24H6594.65C6613 1076.24 6627.94 1101.85 6627.94 1133.63Z" fill="#E4453E"/>
<path opacity="0.45" d="M9251.39 1001.49H9227.06V2014.3H9251.39V1001.49Z" fill="#6D6E71"/>
<path opacity="0.45" d="M8982.84 260.169H6635.11C6639.8 250.016 6647.32 235.007 6655.68 218.232H8939.22L8982.49 259.727L8982.92 260.169H8982.84Z" fill="#6D6E71"/>
<path opacity="0.45" d="M8332.54 1215.3H7498.38V1257.23H8332.54V1215.3Z" fill="#6D6E71"/>
<path opacity="0.45" d="M8348.93 247.515H8324.6V2014.3H8348.93V247.515Z" fill="#6D6E71"/>
<path d="M8726.15 1156.44H8569.77C8569.77 1191.16 8586.07 1219.12 8606.13 1219.12H8689.7C8709.85 1219.12 8726.06 1191.02 8726.06 1156.44H8726.15Z" fill="#58595B"/>
<path d="M8569.77 1138.19H8726.15C8726.15 1114.35 8714.97 1095.08 8701.14 1095.08H8594.78C8580.95 1095.08 8569.77 1114.35 8569.77 1138.19Z" fill="#58595B"/>
<path d="M7647.25 1230.16H7490.87C7490.87 1264.74 7507.17 1292.84 7527.23 1292.84H7610.8C7630.86 1292.84 7647.17 1264.74 7647.17 1230.16H7647.25Z" fill="#58595B"/>
<path d="M7490.87 1211.91H7647.25C7647.25 1188.07 7636.07 1168.8 7622.24 1168.8H7515.88C7502.05 1168.8 7490.87 1188.07 7490.87 1211.91Z" fill="#58595B"/>
<path opacity="0.45" d="M7536.28 2016.51C7514.43 1671.74 7422.92 1484.13 7422.07 1482.37L7419.16 1476.48V1468.68V941.164H7443.49V1461.18C7460.22 1497.23 7539.78 1684.55 7560.52 2011.95L7536.28 2016.51Z" fill="#6D6E71"/>
<path d="M6634.94 1001.35C6655.34 762.088 6680.61 443.663 6691.45 369.649C6700.67 360.673 6714.24 349.49 6727.73 339.631L8245.05 301.373V1001.2H6634.94V1001.35Z" fill="#58595B"/>
<path d="M7518.87 376.417L8212.18 358.906V944.842H7576.91C7544.82 944.842 7518.78 899.962 7518.78 844.636V376.417H7518.87Z" fill="#6D6E71"/>
<path d="M7317.24 944.841H6672.84C6675.66 911.586 6678.47 877.301 6681.38 843.016C6695.46 674.533 6711.17 486.186 6720.22 407.61C6724.74 403.785 6729.69 399.812 6734.64 396.133L7367.61 380.241V858.025C7367.61 905.994 7345.07 944.841 7317.24 944.841Z" fill="#6D6E71"/>
<path opacity="0.45" d="M6726.62 979.714H6702.29V1967.21H6726.62V979.714Z" fill="#6D6E71"/>
<path d="M6548.04 1837.28C6557.43 1905.85 6579.79 1981.19 6631.78 2014.3H9336.15L9470 1884.52V1837.28H6548.04Z" fill="#58595B"/>
<path d="M8548 1948.96C8548 1971.04 8548.85 1992.81 8550.47 2014.15H9119.33C9120.95 1992.81 9121.81 1971.04 9121.81 1948.96C9121.81 1676.3 8993.08 1454.41 8834.9 1454.41C8676.73 1454.41 8548 1676.3 8548 1948.96Z" fill="#808285"/>
<path d="M6876.43 1948.96C6876.43 1971.04 6877.28 1992.81 6878.9 2014.15H7447.76C7449.38 1992.81 7450.24 1971.04 7450.24 1948.96C7450.24 1676.3 7321.51 1454.41 7163.33 1454.41C7005.16 1454.41 6876.43 1676.3 6876.43 1948.96Z" fill="#808285"/>
<path d="M8614.49 1948.97C8614.49 2158.8 8713.17 2328.9 8834.9 2328.9C8956.63 2328.9 9055.31 2158.8 9055.31 1948.97C9055.31 1739.14 8956.63 1569.04 8834.9 1569.04C8713.17 1569.04 8614.49 1739.14 8614.49 1948.97ZM8695.25 1948.97C8695.25 1816.09 8757.73 1708.38 8834.82 1708.38C8911.9 1708.38 8974.38 1816.09 8974.38 1948.97C8974.38 2081.84 8911.9 2189.55 8834.82 2189.55C8757.73 2189.55 8695.25 2081.84 8695.25 1948.97Z" fill="#58595B"/>
<path d="M8686.97 1948.97C8686.97 2089.78 8753.21 2203.97 8834.9 2203.97C8916.59 2203.97 8982.83 2089.78 8982.83 1948.97C8982.83 1808.15 8916.59 1693.96 8834.9 1693.96C8753.21 1693.96 8686.97 1808.15 8686.97 1948.97ZM8715.31 1948.97C8715.31 1835.07 8768.83 1742.81 8834.9 1742.81C8900.97 1742.81 8954.5 1835.07 8954.5 1948.97C8954.5 2062.86 8900.97 2155.12 8834.9 2155.12C8768.83 2155.12 8715.31 2062.86 8715.31 1948.97Z" fill="#A7A9AC"/>
<path d="M8834.9 2166.89C8904.72 2166.89 8961.32 2069.32 8961.32 1948.97C8961.32 1828.61 8904.72 1731.04 8834.9 1731.04C8765.08 1731.04 8708.48 1828.61 8708.48 1948.97C8708.48 2069.32 8765.08 2166.89 8834.9 2166.89Z" fill="#D1D3D4"/>
<path d="M8834.9 2057.12C8869.55 2057.12 8897.64 2008.7 8897.64 1948.97C8897.64 1889.23 8869.55 1840.81 8834.9 1840.81C8800.25 1840.81 8772.16 1889.23 8772.16 1948.97C8772.16 2008.7 8800.25 2057.12 8834.9 2057.12Z" fill="#58595B"/>
<path d="M6943.01 1948.97C6943.01 2158.8 7041.69 2328.9 7163.42 2328.9C7285.14 2328.9 7383.82 2158.8 7383.82 1948.97C7383.82 1739.14 7285.14 1569.04 7163.42 1569.04C7041.69 1569.04 6943.01 1739.14 6943.01 1948.97ZM7023.76 1948.97C7023.76 1816.09 7086.25 1708.38 7163.33 1708.38C7240.41 1708.38 7302.9 1816.09 7302.9 1948.97C7302.9 2081.84 7240.41 2189.55 7163.33 2189.55C7086.25 2189.55 7023.76 2081.84 7023.76 1948.97Z" fill="#58595B"/>
<path d="M7015.4 1948.97C7015.4 2089.78 7081.64 2203.97 7163.33 2203.97C7245.02 2203.97 7311.26 2089.78 7311.26 1948.97C7311.26 1808.15 7245.02 1693.96 7163.33 1693.96C7081.64 1693.96 7015.4 1808.15 7015.4 1948.97ZM7043.74 1948.97C7043.74 1835.07 7097.26 1742.81 7163.33 1742.81C7229.4 1742.81 7282.92 1835.07 7282.92 1948.97C7282.92 2062.86 7229.4 2155.12 7163.33 2155.12C7097.26 2155.12 7043.74 2062.86 7043.74 1948.97Z" fill="#A7A9AC"/>
<path d="M7163.33 2166.89C7233.15 2166.89 7289.75 2069.32 7289.75 1948.97C7289.75 1828.61 7233.15 1731.04 7163.33 1731.04C7093.51 1731.04 7036.91 1828.61 7036.91 1948.97C7036.91 2069.32 7093.51 2166.89 7163.33 2166.89Z" fill="#D1D3D4"/>
<path d="M7163.33 2057.12C7197.98 2057.12 7226.07 2008.7 7226.07 1948.97C7226.07 1889.23 7197.98 1840.81 7163.33 1840.81C7128.68 1840.81 7100.59 1889.23 7100.59 1948.97C7100.59 2008.7 7128.68 2057.12 7163.33 2057.12Z" fill="#58595B"/>
<path opacity="0.1" d="M8977.29 516.94L8875.28 944.841H8726.58L8853.51 412.76C8865.8 420.412 8878.18 428.946 8890.56 438.364C8919.58 460.141 8948.43 486.333 8977.29 516.94Z" fill="white"/>
<path opacity="0.1" d="M8773.36 374.061L8637.29 944.84H8453.25L8593.07 358.169H8680.91C8711.47 358.169 8742.37 363.466 8773.44 374.061H8773.36Z" fill="white"/>
<path opacity="0.1" d="M8164.12 360.084L8024.73 944.842H7875.94L8014.48 363.91L8164.12 360.084Z" fill="white"/>
<path opacity="0.1" d="M7308.36 381.566L7174.09 944.841H7025.3L7158.72 385.539L7308.36 381.566Z" fill="white"/>
<path opacity="0.1" d="M7899.58 366.853L7761.81 944.843H7577.77L7714.35 371.561L7899.58 366.853Z" fill="white"/>
<path opacity="0.1" d="M7077.12 387.452L6944.21 944.841H6760.16L6891.79 392.161L7077.12 387.452Z" fill="white"/>
</svg>
