<svg width="22717" height="2414" viewBox="0 0 22717 2414" fill="none" xmlns="http://www.w3.org/2000/svg">
<path d="M1831.02 1590.31C1831.02 1372.1 1935.53 1197.06 2058.88 1220.37C2153.27 1238.25 2229.46 1373.38 2241.09 1543.69C2243.39 1577.3 2243.07 1610.05 2240.7 1641.65H1833.08C1831.81 1624.78 1831.02 1607.76 1831.02 1590.31Z" fill="#231F20"/>
<path d="M492.013 1218.37C605.548 1218.37 697.88 1385.25 697.88 1590.46C697.88 1606.62 697.247 1622.35 696.139 1637.93L286.857 1562.14C294.848 1370.1 383.778 1218.37 492.013 1218.37Z" fill="#231F20"/>
<path d="M14.2933 1191.77L36.2092 1151.73L63.9008 958.399C70.0721 915.356 91.4341 884.896 116.04 884.324C186.06 882.608 329.028 869.453 420.885 794.807C768.77 511.954 1080.42 385.685 1444.76 610.909C1623.41 721.305 1855.07 920.218 1899.06 935.805L2310.32 1068.22C2383.82 1094.39 2436.99 1240.82 2437.39 1376.24L2437.7 1499.94C2437.7 1525.82 2449.41 1546.7 2463.73 1546.7C2471.49 1546.7 2477.82 1558.14 2477.82 1572.15V1609.9C2477.82 1649.37 2460.09 1681.55 2438.18 1681.55H2236.35C2242.44 1638.07 2244.34 1591.6 2241.01 1543.7C2229.38 1373.38 2153.19 1238.25 2058.8 1220.37C1935.46 1197.06 1830.94 1372.1 1830.94 1590.31C1830.94 1621.77 1833.16 1652.37 1837.19 1681.55H727.708L692.025 1676.54C695.664 1648.8 697.722 1619.91 697.722 1590.17C697.722 1384.97 605.39 1218.09 491.854 1218.09C378.319 1218.09 285.987 1384.97 285.987 1590.17C285.987 1600.32 286.304 1610.48 286.699 1620.49L70.8632 1590.6C37.9498 1586.02 11.8406 1538.83 9.30879 1479.35L0.13101 1260.41C-0.897535 1234.96 4.16606 1209.93 14.0559 1191.77H14.2933Z" fill="#63AF09"/>
<path d="M742.266 1611.34L720.904 1464.91C694.953 1286.73 617.021 1151.16 517.489 1111.41L444.779 1082.24C412.657 1082.1 382.433 1059.36 359.726 1018.32C341.45 985.285 336.861 936.236 348.096 893.336C354.821 867.739 367.796 847.29 383.699 837.28C393.035 831.417 401.897 825.125 409.967 818.547C668.448 608.338 872.733 514.673 1072.43 514.673C1200.13 514.673 1324.82 553.283 1453.54 632.934C1590.1 717.304 1690.74 795.239 1752.69 864.594C1763.69 876.892 1771.44 896.911 1774.05 919.791C1776.67 942.814 1774.05 966.981 1766.62 986.143L1765.98 987.716C1757.68 1009.45 1747.79 1112.13 1737.34 1220.81C1715.9 1443.03 1698.89 1600.33 1674.76 1600.33L742.345 1611.34H742.266ZM1072.35 526.113C873.603 526.113 670.11 619.492 412.499 828.986C404.27 835.707 395.251 842.142 385.677 848.005C371.357 857.014 359.726 875.175 353.713 898.198C343.665 936.665 347.7 980.566 364.078 1010.17C385.677 1049.21 414.477 1070.8 445.096 1070.8H445.808L518.834 1100.26C620.66 1141.01 700.412 1279.72 726.996 1462.05L747.092 1600.04L1674.68 1589.17C1695.41 1589.17 1716.93 1366.52 1731.09 1219.09C1742.17 1104.4 1751.74 1005.31 1760.76 981.567L1761.4 979.994C1767.8 963.263 1770.18 942.242 1767.8 922.365C1765.51 902.631 1758.78 885.042 1749.29 874.46C1687.74 805.677 1587.57 728.028 1451.41 643.945C1323.31 564.723 1199.34 526.256 1072.35 526.256V526.113Z" fill="#569300"/>
<path d="M1666.53 1033.62H445.173C420.251 1033.62 396.357 1015.74 378.793 983.853C361.228 952.108 368.27 898.34 391.689 883.754C401.895 877.462 411.706 870.455 420.963 863.019C768.849 580.166 1080.5 453.897 1444.84 679.122C1607.43 779.65 1693.35 855.44 1738.53 906.062C1748.5 917.216 1751.19 941.239 1744.54 958.685C1744.3 959.257 1744.15 959.686 1743.91 960.258C1726.34 1006.16 1697.47 1033.62 1666.61 1033.62H1666.53Z" fill="#010101"/>
<path d="M1912.35 1596.89C1912.35 1472.91 1967.98 1372.53 2036.49 1372.53C2105.01 1372.53 2160.63 1473.06 2160.63 1596.89C2160.63 1720.73 2105.01 1821.26 2036.49 1821.26C1967.98 1821.26 1912.35 1720.73 1912.35 1596.89Z" fill="#231F20"/>
<path d="M365.896 1596.89C365.896 1472.91 421.517 1372.53 490.034 1372.53C558.551 1372.53 614.171 1473.06 614.171 1596.89C614.171 1720.73 558.551 1821.26 490.034 1821.26C421.517 1821.26 365.896 1720.73 365.896 1596.89Z" fill="#231F20"/>
<path d="M2004.13 1564.29L1935.3 1466.91C1943.37 1446.46 1953.26 1428.58 1964.57 1414L2018.45 1538.41C2020.9 1535.98 2023.59 1533.97 2026.36 1532.54L2015.76 1375.67C2022.49 1373.67 2029.45 1372.53 2036.49 1372.53C2043.53 1372.53 2050.49 1373.67 2057.22 1375.67L2046.62 1532.54C2049.39 1533.97 2052.08 1535.98 2054.53 1538.41L2108.41 1414C2119.72 1428.58 2129.61 1446.46 2137.68 1466.91L2068.85 1564.29C2070.2 1568.72 2071.3 1573.58 2072.09 1578.59L2158.89 1559.43C2159.99 1571.58 2160.63 1584.17 2160.63 1596.89C2160.63 1609.62 2159.99 1622.2 2158.89 1634.36L2072.09 1615.2C2071.3 1620.2 2070.2 1625.06 2068.85 1629.5L2137.68 1726.88C2129.61 1747.33 2119.72 1765.2 2108.41 1779.79L2054.53 1655.38C2052.08 1657.81 2049.39 1659.81 2046.62 1661.24L2057.22 1818.11C2050.49 1820.12 2043.61 1821.26 2036.49 1821.26C2029.37 1821.26 2022.49 1820.12 2015.76 1818.11L2026.36 1661.24C2023.59 1659.81 2020.9 1657.81 2018.45 1655.38L1964.57 1779.79C1953.26 1765.2 1943.37 1747.33 1935.3 1726.88L2004.13 1629.5C2002.79 1625.06 2001.68 1620.2 2000.89 1615.2L1914.09 1634.36C1912.99 1622.2 1912.35 1609.62 1912.35 1596.89C1912.35 1584.17 1912.99 1571.58 1914.09 1559.43L2000.89 1578.59C2001.68 1573.58 2002.79 1568.72 2004.13 1564.29Z" fill="#BCBEC0"/>
<path d="M2029.14 1564.58C2029.14 1571.58 2032.3 1577.16 2036.1 1577.16C2039.9 1577.16 2043.06 1571.44 2043.06 1564.58C2043.06 1557.71 2039.9 1551.99 2036.1 1551.99C2032.3 1551.99 2029.14 1557.71 2029.14 1564.58Z" fill="#F1F2F2"/>
<path d="M2029.14 1629.07C2029.14 1636.08 2032.3 1641.65 2036.1 1641.65C2039.9 1641.65 2043.06 1635.93 2043.06 1629.07C2043.06 1622.2 2039.9 1616.48 2036.1 1616.48C2032.3 1616.48 2029.14 1622.2 2029.14 1629.07Z" fill="#F1F2F2"/>
<path d="M2018.3 1609.48C2022.14 1609.48 2025.26 1603.84 2025.26 1596.89C2025.26 1589.94 2022.14 1584.31 2018.3 1584.31C2014.45 1584.31 2011.33 1589.94 2011.33 1596.89C2011.33 1603.84 2014.45 1609.48 2018.3 1609.48Z" fill="#F1F2F2"/>
<path d="M2053.98 1609.48C2057.82 1609.48 2060.94 1603.84 2060.94 1596.89C2060.94 1589.94 2057.82 1584.31 2053.98 1584.31C2050.13 1584.31 2047.02 1589.94 2047.02 1596.89C2047.02 1603.84 2050.13 1609.48 2053.98 1609.48Z" fill="#F1F2F2"/>
<path d="M1858.4 1596.89C1858.4 1774.64 1938.15 1918.78 2036.49 1918.78C2134.84 1918.78 2214.59 1774.64 2214.59 1596.89C2214.59 1419.14 2134.84 1275 2036.49 1275C1938.15 1275 1858.4 1419.14 1858.4 1596.89ZM1906.26 1596.89C1906.26 1466.9 1964.57 1361.51 2036.49 1361.51C2108.41 1361.51 2166.72 1466.9 2166.72 1596.89C2166.72 1726.88 2108.41 1832.27 2036.49 1832.27C1964.57 1832.27 1906.26 1726.88 1906.26 1596.89Z" fill="#010101"/>
<path d="M1902.31 1596.89C1902.31 1730.74 1962.36 1839.42 2036.49 1839.42C2110.63 1839.42 2170.68 1730.88 2170.68 1596.89C2170.68 1462.9 2110.63 1354.37 2036.49 1354.37C1962.36 1354.37 1902.31 1462.9 1902.31 1596.89ZM1912.28 1596.89C1912.28 1472.91 1967.9 1372.53 2036.41 1372.53C2104.93 1372.53 2160.55 1473.05 2160.55 1596.89C2160.55 1720.73 2104.93 1821.26 2036.41 1821.26C1967.9 1821.26 1912.28 1720.73 1912.28 1596.89Z" fill="#D1D3D4"/>
<path d="M457.751 1564.29L388.918 1466.91C396.988 1446.46 406.878 1428.58 418.192 1414L472.071 1538.41C474.524 1535.98 477.214 1533.97 479.983 1532.54L469.381 1375.67C476.107 1373.67 482.99 1372.53 490.111 1372.53C497.231 1372.53 504.115 1373.67 510.84 1375.67L500.238 1532.54C503.007 1533.97 505.697 1535.98 508.15 1538.41L562.03 1414C573.344 1428.58 583.233 1446.46 591.304 1466.91L522.47 1564.29C523.815 1568.72 524.923 1573.58 525.714 1578.59L612.507 1559.43C613.615 1571.58 614.248 1584.17 614.248 1596.89C614.248 1609.62 613.615 1622.2 612.507 1634.36L525.714 1615.2C524.923 1620.2 523.815 1625.06 522.47 1629.5L591.304 1726.88C583.233 1747.33 573.344 1765.2 562.03 1779.79L508.15 1655.38C505.697 1657.81 503.007 1659.81 500.238 1661.24L510.84 1818.11C504.115 1820.12 497.152 1821.26 490.111 1821.26C483.069 1821.26 476.107 1820.12 469.381 1818.11L479.983 1661.24C477.214 1659.81 474.524 1657.81 472.071 1655.38L418.192 1779.79C406.878 1765.2 396.988 1747.33 388.918 1726.88L457.751 1629.5C456.406 1625.06 455.298 1620.2 454.507 1615.2L367.714 1634.36C366.606 1622.2 365.973 1609.62 365.973 1596.89C365.973 1584.17 366.606 1571.58 367.714 1559.43L454.507 1578.59C455.298 1573.58 456.406 1568.72 457.751 1564.29Z" fill="#BCBEC0"/>
<path d="M482.757 1564.58C482.757 1571.58 485.922 1577.16 489.72 1577.16C493.518 1577.16 496.682 1571.44 496.682 1564.58C496.682 1557.71 493.518 1551.99 489.72 1551.99C485.922 1551.99 482.757 1557.71 482.757 1564.58Z" fill="#F1F2F2"/>
<path d="M482.757 1629.07C482.757 1636.08 485.922 1641.65 489.72 1641.65C493.518 1641.65 496.682 1635.93 496.682 1629.07C496.682 1622.2 493.518 1616.48 489.72 1616.48C485.922 1616.48 482.757 1622.2 482.757 1629.07Z" fill="#F1F2F2"/>
<path d="M471.915 1609.48C475.792 1609.48 478.878 1603.76 478.878 1596.89C478.878 1590.03 475.713 1584.31 471.915 1584.31C468.117 1584.31 464.953 1590.03 464.953 1596.89C464.953 1603.76 468.117 1609.48 471.915 1609.48Z" fill="#F1F2F2"/>
<path d="M507.6 1609.48C511.477 1609.48 514.563 1603.76 514.563 1596.89C514.563 1590.03 511.398 1584.31 507.6 1584.31C503.802 1584.31 500.638 1590.03 500.638 1596.89C500.638 1603.76 503.802 1609.48 507.6 1609.48Z" fill="#F1F2F2"/>
<path d="M312.018 1596.89C312.018 1774.64 391.769 1918.78 490.114 1918.78C588.459 1918.78 668.21 1774.64 668.21 1596.89C668.21 1419.14 588.459 1275 490.114 1275C391.769 1275 312.018 1419.14 312.018 1596.89ZM359.884 1596.89C359.884 1466.9 418.195 1361.51 490.114 1361.51C562.033 1361.51 620.344 1466.9 620.344 1596.89C620.344 1726.88 562.033 1832.27 490.114 1832.27C418.195 1832.27 359.884 1726.88 359.884 1596.89Z" fill="#010101"/>
<path d="M355.927 1596.89C355.927 1730.74 415.978 1839.42 490.113 1839.42C564.247 1839.42 624.298 1730.88 624.298 1596.89C624.298 1462.9 564.247 1354.37 490.113 1354.37C415.978 1354.37 355.927 1462.9 355.927 1596.89ZM365.896 1596.89C365.896 1472.91 421.517 1372.53 490.034 1372.53C558.551 1372.53 614.171 1473.05 614.171 1596.89C614.171 1720.73 558.551 1821.26 490.034 1821.26C421.517 1821.26 365.896 1720.73 365.896 1596.89Z" fill="#D1D3D4"/>
<path d="M1136.29 1088.19L1130.06 1089.16L1154.18 1597.51L1160.4 1596.55L1136.29 1088.19Z" fill="#569300"/>
<path d="M647.955 1094.11V1082.81C658.241 1082.67 1678.79 1065.79 1701.34 1057.5L1702.61 1068.65C1679.51 1077.09 690.125 1093.39 648.034 1094.11H647.955Z" fill="#569300"/>
<path d="M286.143 1590.31C286.143 1529.97 294.214 1472.91 308.376 1422.43L6.7749 1412.71L9.54405 1479.35C12.0759 1538.83 38.1851 1586.17 71.0985 1590.6L286.935 1620.49C286.46 1610.48 286.223 1600.47 286.223 1590.31H286.143Z" fill="#569300"/>
<path d="M2241.41 1549.85C2244.18 1595.75 2242.2 1640.08 2236.34 1681.69H2438.18C2460.01 1681.69 2477.81 1649.66 2477.81 1610.05V1572.3C2477.81 1558.28 2471.48 1546.84 2463.73 1546.84C2451.63 1546.84 2441.42 1531.83 2438.57 1511.52L2256.2 1552.13L2241.41 1549.99V1549.85Z" fill="#569300"/>
<path d="M691.232 1496.65C695.505 1526.54 697.878 1558 697.878 1590.31C697.878 1620.06 695.9 1648.94 692.182 1676.69L727.864 1681.69H1837.35C1833.23 1652.52 1831.1 1621.92 1831.1 1590.46C1831.1 1559 1833.47 1526.68 1837.74 1496.79H691.311L691.232 1496.65Z" fill="#569300"/>
<path d="M1055.02 563.718C1060.64 576.874 1066.57 594.177 1068.55 612.338C1072.75 650.233 1109.38 992.288 1103.13 1011.88C1101.31 1017.6 1098.46 1024.61 1095.53 1031.47L1149.17 1032.04C1142.21 1012.16 1132.95 983.851 1129.71 965.404C1124.17 934.373 1094.82 595.321 1094.82 595.321L1098.06 564.004C1083.66 563.432 1069.34 563.289 1055.1 563.718H1055.02Z" fill="#231F20"/>
<path d="M600.723 1033.62H633.794C629.284 1020.18 624.3 1004.3 622.322 993.149C618.682 972.843 601.118 772.214 597.637 732.031C591.387 736.178 585.136 740.326 578.807 744.616C584.187 793.95 607.369 1013.6 603.096 1026.9C602.463 1029.04 601.593 1031.19 600.643 1033.62H600.723Z" fill="#231F20"/>
<path d="M1763.93 1077.8H1711.32C1704.67 1077.8 1699.61 1066.79 1700.87 1055.06L1713.93 931.084C1714.88 922.075 1719.23 915.497 1724.37 915.497H1763.93C1796.92 915.497 1823.66 951.819 1823.66 996.721C1823.66 1041.62 1796.92 1077.94 1763.93 1077.94V1077.8Z" fill="#88D120"/>
<path d="M1763.93 1029.04H1711.32C1708.55 1029.04 1706.01 1027.04 1704.12 1023.89L1700.87 1054.92C1699.61 1066.79 1704.67 1077.66 1711.32 1077.66H1763.93C1796.92 1077.66 1823.66 1041.34 1823.66 996.435C1823.66 987.998 1822.71 979.846 1820.9 972.125C1813.3 1005.16 1790.59 1029.04 1763.85 1029.04H1763.93Z" fill="#548E00"/>
<path d="M2437.39 1373.95C2436.91 1304.88 2422.75 1233.24 2399.25 1176.18H2339.75C2322.51 1176.18 2309.06 1204.07 2311.83 1234.81C2318 1304.45 2339.04 1408.7 2409.85 1388.25C2420.93 1385.11 2430.03 1380.1 2437.31 1373.95H2437.39Z" fill="#D1D3D4"/>
<path d="M2392.53 1369.52C2345.69 1369.52 2329.15 1294.45 2323.54 1231.53C2322.82 1223.09 2324.09 1214.8 2327.18 1208.22C2330.34 1201.5 2334.93 1197.78 2339.76 1197.78H2393.16C2411.75 1246.12 2423.15 1303.89 2425.2 1359.8C2420.14 1362.95 2414.37 1365.38 2408.04 1367.24C2402.66 1368.81 2397.43 1369.52 2392.53 1369.52Z" fill="white"/>
<path d="M53.221 1243.82H0.607025C0.29055 1249.26 0.132292 1254.83 0.369649 1260.41L6.4618 1404.98L53.221 1354.36V1243.82Z" fill="#FEAB01"/>
<path d="M1295.54 1011.59L1385.5 674.687C1357.73 658.814 1330.28 645.229 1303.14 633.789L1202.26 1011.59H1295.54Z" fill="#28211F"/>
<path d="M1476.09 731.457C1457.97 719.445 1438.51 706.861 1417.7 693.991L1332.89 1011.59H1401.32L1476.09 731.457Z" fill="#28211F"/>
<path d="M810.706 1011.6L918.624 607.337C884.287 616.775 849.949 628.93 815.612 643.945L717.425 1011.6H810.706Z" fill="#28211F"/>
<path d="M1029.71 587.601C1005.89 589.46 982.235 593.035 958.579 597.754L848.129 1011.6H916.567L1029.79 587.601H1029.71Z" fill="#28211F"/>
<g style="mix-blend-mode:screen">
<path d="M668.131 1161.17L1102.1 1151.02L1109.3 1275L668.131 1161.17Z" fill="#3D3533"/>
</g>
<g style="mix-blend-mode:screen">
<path d="M1154.71 1144.73L1160.73 1275L1680.3 1144.73H1154.71Z" fill="#3D3533"/>
</g>
<path d="M4086.3 469.525L4057.27 307.792C4284.65 233.433 4901.62 290.346 4901.62 290.346C5548.97 290.346 5825.81 810.722 5825.81 810.722C6079.38 932.986 6268.72 1049.82 6367.22 1118.89C6405.91 1146.06 6431.46 1213.27 6431.46 1288.2V1654.99C6431.46 1698.18 6412.08 1797.42 6388.11 1797.42H3965.33C3892.7 1744.94 3878.22 1549.6 3878.22 1549.6V1016.07C3902.43 836.748 4086.3 469.525 4086.3 469.525Z" fill="#F95858"/>
<path opacity="0.47" d="M4931.21 853.908H4916.18V1670.15H4931.21V853.908Z" fill="#BF2B2B"/>
<path opacity="0.47" d="M5530.93 1647.55L5516.61 1639.26L5619.39 1068.98V893.803H5634.42L5634.03 1075.41L5530.93 1647.55Z" fill="#BF2B2B"/>
<path opacity="0.47" d="M4635.23 1750.8C4629.3 1584.49 4581.98 1289.77 4332.13 1184.95C4314.01 1177.37 4298.5 1156.06 4289.64 1126.75C4280.86 1097.72 4279.35 1063.11 4285.53 1031.8L4307.68 919.543L4321.84 928.695L4299.69 1040.95C4294.86 1065.26 4296.05 1091 4302.85 1113.59C4309.66 1136.19 4321.6 1152.49 4335.61 1158.35C4387.35 1180.09 4462.36 1224.99 4526.21 1315.8C4602.16 1423.9 4643.93 1569.62 4650.34 1748.94L4635.31 1750.66L4635.23 1750.8Z" fill="#BF2B2B"/>
<path d="M3881.7 1581.35C3889.22 1638.83 3910.98 1758.09 3965.33 1797.42H6388.11C6412 1797.42 6431.46 1698.18 6431.46 1654.99V1581.35H3881.7Z" fill="#58595B"/>
<path d="M4611.41 1770.68C4611.41 1779.69 4611.25 1788.7 4610.94 1797.42H4080.53C4080.21 1788.7 4080.05 1779.69 4080.05 1770.68C4080.05 1505.84 4199.2 1290.34 4345.73 1290.34C4492.26 1290.34 4611.49 1505.84 4611.49 1770.68H4611.41Z" fill="#BF2B2B"/>
<path d="M6090.7 1770.68C6090.7 1779.69 6090.54 1788.7 6090.23 1797.42H5559.73C5559.42 1788.7 5559.26 1779.69 5559.26 1770.68C5559.26 1505.84 5678.49 1290.34 5825.02 1290.34C5971.55 1290.34 6090.7 1505.84 6090.7 1770.68Z" fill="#BF2B2B"/>
<path d="M6090.7 1770.68C6090.7 1779.69 6090.54 1788.7 6090.22 1797.42H5559.73C5559.41 1788.7 5559.26 1779.69 5559.26 1770.68C5559.26 1505.84 5678.49 1290.34 5825.02 1290.34C5971.54 1290.34 6090.7 1505.84 6090.7 1770.68Z" fill="#BF2B2B"/>
<path d="M4611.41 1770.68C4611.41 1779.69 4611.25 1788.7 4610.94 1797.42H4080.53C4080.21 1788.7 4080.05 1779.69 4080.05 1770.68C4080.05 1505.84 4199.2 1290.34 4345.73 1290.34C4492.26 1290.34 4611.49 1505.84 4611.49 1770.68H4611.41Z" fill="#BF2B2B"/>
<path d="M5219.44 1111.59H5088.34C5088.34 1142.05 5102.03 1166.79 5118.88 1166.79H5188.9C5205.76 1166.79 5219.44 1142.05 5219.44 1111.59Z" fill="#BF2B2B"/>
<path d="M5088.42 1095.58H5219.52C5219.52 1074.7 5210.1 1057.68 5198.55 1057.68H5109.39C5097.83 1057.68 5088.42 1074.7 5088.42 1095.58Z" fill="#BF2B2B"/>
<path d="M4744.57 1111.59H4613.47C4613.47 1142.05 4627.16 1166.79 4644.01 1166.79H4714.03C4730.89 1166.79 4744.57 1142.05 4744.57 1111.59Z" fill="#BF2B2B"/>
<path d="M4613.47 1095.58H4744.57C4744.57 1074.7 4735.16 1057.68 4723.61 1057.68H4634.44C4622.89 1057.68 4613.47 1074.7 4613.47 1095.58Z" fill="#BF2B2B"/>
<path d="M5825.02 2144.48C5939.24 2144.48 6031.83 1977.12 6031.83 1770.68C6031.83 1564.23 5939.24 1396.88 5825.02 1396.88C5710.8 1396.88 5618.2 1564.23 5618.2 1770.68C5618.2 1977.12 5710.8 2144.48 5825.02 2144.48Z" fill="#58595B"/>
<path d="M5825.02 2031.79C5904.81 2031.79 5969.49 1914.89 5969.49 1770.68C5969.49 1626.47 5904.81 1509.56 5825.02 1509.56C5745.23 1509.56 5680.55 1626.47 5680.55 1770.68C5680.55 1914.89 5745.23 2031.79 5825.02 2031.79Z" fill="#A7A9AC"/>
<path d="M5873.03 1982.63C5937.81 1934.68 5968.81 1800.89 5942.29 1683.81C5915.76 1566.73 5841.74 1510.68 5776.96 1558.63C5712.18 1606.58 5681.17 1740.36 5707.7 1857.44C5734.23 1974.53 5808.25 2030.57 5873.03 1982.63Z" fill="#D1D3D4"/>
<path d="M5799.86 1751.09H5849.15L5835.54 1443.21H5813.55L5799.86 1751.09Z" fill="#58595B"/>
<path d="M5825.5 1718.2L5840.77 1802.85L5998.61 1684.31L5991.8 1646.41L5825.5 1718.2Z" fill="#58595B"/>
<path d="M5850.74 1752.09L5810.94 1804.43L5922.1 2039.09L5939.9 2015.64L5850.74 1752.09Z" fill="#58595B"/>
<path d="M5840.76 1805.86L5800.89 1753.66L5711.8 2017.21L5729.6 2040.66L5840.76 1805.86Z" fill="#58595B"/>
<path d="M5809.28 1805.28L5824.54 1720.77L5658.24 1648.98L5651.43 1686.74L5809.28 1805.28Z" fill="#58595B"/>
<path d="M5791.08 1770.68C5791.08 1736.79 5806.27 1709.33 5825.02 1709.33C5843.77 1709.33 5858.96 1736.79 5858.96 1770.68C5858.96 1804.57 5843.77 1832.03 5825.02 1832.03C5806.27 1832.03 5791.08 1804.57 5791.08 1770.68Z" fill="#A7A9AC"/>
<path d="M5825.02 1809.29C5836.81 1809.29 5846.38 1792 5846.38 1770.68C5846.38 1749.35 5836.81 1732.07 5825.02 1732.07C5813.22 1732.07 5803.65 1749.35 5803.65 1770.68C5803.65 1792 5813.22 1809.29 5825.02 1809.29Z" fill="#58595B"/>
<path d="M4345.74 2144.48C4459.96 2144.48 4552.55 1977.12 4552.55 1770.68C4552.55 1564.23 4459.96 1396.88 4345.74 1396.88C4231.51 1396.88 4138.92 1564.23 4138.92 1770.68C4138.92 1977.12 4231.51 2144.48 4345.74 2144.48Z" fill="#58595B"/>
<path d="M4345.74 2031.79C4425.52 2031.79 4490.21 1914.89 4490.21 1770.68C4490.21 1626.47 4425.52 1509.56 4345.74 1509.56C4265.95 1509.56 4201.26 1626.47 4201.26 1770.68C4201.26 1914.89 4265.95 2031.79 4345.74 2031.79Z" fill="#A7A9AC"/>
<path d="M4393.12 1983.18C4458.04 1935.89 4489.46 1802.42 4463.3 1685.07C4437.13 1567.72 4363.29 1510.93 4298.36 1558.22C4233.43 1605.52 4202.01 1738.99 4228.18 1856.33C4254.34 1973.68 4328.19 2030.47 4393.12 1983.18Z" fill="#D1D3D4"/>
<path d="M4320.66 1751.09H4369.87L4356.26 1443.21H4334.26L4320.66 1751.09Z" fill="#58595B"/>
<path d="M4346.29 1718.2L4361.48 1802.85L4519.33 1684.31L4512.52 1646.41L4346.29 1718.2Z" fill="#58595B"/>
<path d="M4371.53 1752.09L4331.65 1804.43L4442.82 2039.09L4460.62 2015.64L4371.53 1752.09Z" fill="#58595B"/>
<path d="M4361.48 1805.86L4321.69 1753.66L4232.52 2017.21L4250.32 2040.66L4361.48 1805.86Z" fill="#58595B"/>
<path d="M4330.07 1805.28L4345.26 1720.77L4178.96 1648.98L4172.23 1686.74L4330.07 1805.28Z" fill="#58595B"/>
<path d="M4311.87 1770.68C4311.87 1736.79 4327.06 1709.33 4345.82 1709.33C4364.57 1709.33 4379.76 1736.79 4379.76 1770.68C4379.76 1804.57 4364.57 1832.03 4345.82 1832.03C4327.06 1832.03 4311.87 1804.57 4311.87 1770.68Z" fill="#A7A9AC"/>
<path d="M4345.74 1809.29C4357.54 1809.29 4367.1 1792 4367.1 1770.68C4367.1 1749.35 4357.54 1732.07 4345.74 1732.07C4333.94 1732.07 4324.38 1749.35 4324.38 1770.68C4324.38 1792 4333.94 1809.29 4345.74 1809.29Z" fill="#58595B"/>
<path d="M6431.46 1288.2V1458.08C6291.66 1451.93 6226.94 1330.24 6197.03 1224.99C6180.02 1164.93 6211.04 1097.72 6246.88 1116.6C6301.39 1145.34 6365.79 1172.37 6412.4 1181.95C6424.58 1212.12 6431.46 1249.16 6431.46 1288.2Z" fill="#FFDE17"/>
<path d="M6226.55 1180.66C6220.22 1158.35 6220.53 1135.04 6225.28 1115.45C6200.2 1126.03 6183.66 1177.66 6197.11 1224.99C6226.94 1330.24 6291.66 1451.93 6431.54 1458.08V1410.46C6311.92 1389.73 6254.24 1278.19 6226.63 1180.66H6226.55Z" fill="#FFB31A"/>
<path d="M3971.58 973.597C3962.4 949.001 3925.77 940.85 3894.91 938.276C3887.16 966.59 3881.38 992.902 3878.22 1016.07V1432.2C3980.28 1364.13 3986.38 1013.49 3971.58 973.597Z" fill="#FF7E1D"/>
<path d="M5777.23 874.069C5733.56 802.426 5461.23 396.736 4901.62 396.736H4898.61C4896.4 396.45 4672.02 376.001 4447.4 376.001C4325 376.001 4345.1 382.293 4285.13 394.162C4276.5 395.878 4268.12 400.025 4260.28 406.603C4200.95 455.652 4179.66 588.356 4215.11 687.454C4242.56 764.102 4277.06 851.332 4314.64 924.405H5777.15V874.212L5777.23 874.069Z" fill="#58595B"/>
<path d="M4985.88 453.508C4956.77 451.077 4926.94 449.933 4896.08 449.933H4893.87L4889.44 449.504C4882 448.789 4872.03 448.074 4859.85 447.073C4781.52 440.781 4612.05 429.055 4441.86 429.055C4428.25 429.055 4416.47 429.055 4406.18 429.341C4364.17 429.913 4330.38 491.689 4330.38 567.622V870.924H5600.48V729.211C5476.03 610.093 5275.14 476.817 4985.88 453.508Z" fill="#6D6E71"/>
<path d="M4987.55 884.938H4840.15L4861.27 430.199C4871.48 431.2 4879.79 432.058 4886.04 432.773L4889.75 433.202H4891.57C4917.37 433.202 4942.37 434.489 4966.74 437.063L4987.55 884.938Z" fill="#58595B"/>
<path opacity="0.1" d="M5267.23 516.859L5172.69 870.926H5039.05L5143.81 478.392C5187.48 488.831 5228.62 501.701 5267.23 516.716V516.859Z" fill="white"/>
<path opacity="0.1" d="M5471.75 624.537L5406 870.925H5296.43L5377.52 567.051C5411.31 585.069 5442.72 604.374 5471.75 624.394V624.537Z" fill="white"/>
<path opacity="0.1" d="M4637.37 433.63L4520.59 870.923H4393.92L4511.65 429.769C4554.92 430.484 4597.33 431.914 4637.29 433.487L4637.37 433.63Z" fill="white"/>
<path opacity="0.1" d="M4839.28 445.357L4725.66 870.924H4598.99L4714.75 437.349C4764.04 439.923 4806.84 442.926 4839.28 445.357Z" fill="white"/>
<path opacity="0.54" d="M10603.9 1908.77H7971.82C7943.77 1908.77 7921.03 1949.87 7921.03 2000.58C7921.03 2051.28 7943.77 2092.38 7971.82 2092.38H10603.9C10631.9 2092.38 10654.7 2051.28 10654.7 2000.58C10654.7 1949.87 10631.9 1908.77 10603.9 1908.77Z" fill="#D1D3D4"/>
<path d="M7882.18 1111.26V841.852C7882.18 768.922 7914.86 709.863 7955.21 709.863H8073.18C8073.18 709.863 8196.05 714.297 8331.18 572.155C8466.32 430.014 8775.91 321.62 8775.91 321.62H9215.1C9509.97 348.218 9724.54 644.37 9803.19 730.169C9881.83 815.969 9940.77 810.106 9940.77 810.106C10450.2 887.04 10632.1 1076.51 10632.1 1076.51C10703.4 1138.72 10716.9 1270.99 10716.9 1270.99V1647.23C10697.7 1688.98 10654.2 1750.47 10613.6 1769.35H8143.35L7881.07 1634.07L7831.94 1507.8V1237.39L7882.18 1111.12V1111.26Z" fill="#D1D3D4"/>
<path d="M7872.53 1612.48L7881.07 1634.36L8143.35 1769.63H10613.6C10654.1 1750.76 10697.7 1689.27 10716.9 1647.51V1612.48H7872.53Z" fill="#58595B"/>
<path d="M10716.9 1271.14V1403.7C10550.3 1387.25 10551.1 1158.74 10551.1 1158.74C10609 1135.57 10675.1 1190.77 10708.7 1225.23C10715 1252.12 10716.9 1271.14 10716.9 1271.14Z" fill="#D1D3D4"/>
<path d="M10031.1 1630.21C10031.1 1678.69 10035.2 1725.45 10042.8 1769.49H10539.2C10546.7 1725.45 10550.8 1678.69 10550.8 1630.21C10550.8 1371.24 10434.2 1160.45 10290.9 1160.45C10147.5 1160.45 10031 1371.09 10031 1630.21H10031.1Z" fill="#D1D3D4"/>
<path opacity="0.45" d="M9765.05 1708.57H8741.34L8741.02 1688.84C8739.52 1598.46 8720.05 1143.15 8484.04 1049.35C8445.35 1034.05 8418.37 973.27 8418.37 901.914V786.227H8440.92V901.914C8440.92 954.108 8460.62 998.295 8488.87 1009.59C8532.62 1026.9 8749.09 1139.72 8763.17 1667.82H9742.51V1104.4C9742.51 1096.54 9742.11 1088.67 9741.32 1080.95C9736.65 1035.62 9718.06 882.609 9675.89 814.541L9690.92 784.082C9737.13 858.728 9757.06 1011.31 9763.55 1073.37C9764.58 1083.52 9765.13 1093.96 9765.13 1104.26V1708.57H9765.05Z" fill="#6D6E71"/>
<path d="M10716.9 1271.14V1403.7C10538.8 1420.14 10527.4 1182.76 10527.4 1182.76C10585.3 1159.6 10675.1 1190.77 10708.7 1225.23C10715 1252.12 10716.9 1271.14 10716.9 1271.14Z" fill="#FFDE17"/>
<path d="M10551.3 1176.47C10542.9 1177.76 10534.9 1179.76 10527.4 1182.76C10527.4 1182.76 10538.8 1420.14 10716.9 1403.7V1349.5C10604.1 1349.5 10564.8 1241.82 10551.3 1176.47Z" fill="#FFB917"/>
<path opacity="0.45" d="M9115.17 831.984H9092.62V1647.22H9115.17V831.984Z" fill="#6D6E71"/>
<path d="M8410.85 872.024L8398.2 801.383C8380.63 703.857 8409.11 598.466 8462.6 563.86C8549.79 507.519 8652.64 461.473 8718.39 434.589C8757.87 418.43 8798.3 410.279 8838.81 410.279H9213.99C9319.06 420.003 9426.19 468.051 9532.28 552.706C9622.48 624.778 9694.08 708.719 9741.55 764.203C9755.56 780.505 9767.58 794.662 9777.95 805.958C9806.51 837.132 9833.09 857.867 9856.28 871.738H8410.85V872.024Z" fill="#58595B"/>
<path d="M9645.66 738.747C9645.66 720.157 9640.12 702.997 9631.18 693.702C9598.9 660.383 9562.43 625.777 9522.32 593.745C9419.15 511.378 9315.18 464.76 9213.28 455.036H8838.73C8800.04 455.036 8761.35 462.758 8723.77 478.202C8681.6 495.505 8627.8 519.1 8572.97 547.271C8560.71 553.563 8552.24 573.868 8552.24 596.891V772.495C8552.24 803.097 8565.93 827.836 8582.86 827.836H9645.58V738.89L9645.66 738.747Z" fill="#6D6E71"/>
<path d="M9127.83 434.302H9067.23L9048.16 855.435H9146.9L9127.83 434.302Z" fill="#58595B"/>
<path d="M9308.07 1024.46H9167.71C9167.71 1057.06 9182.35 1083.52 9200.38 1083.52H9275.39C9293.43 1083.52 9308.07 1057.06 9308.07 1024.46Z" fill="#939598"/>
<path d="M9167.71 1007.44H9308.06C9308.06 984.993 9298.02 966.832 9285.59 966.832H9190.18C9177.76 966.832 9167.71 984.993 9167.71 1007.44Z" fill="#939598"/>
<path d="M8842.69 1024.46H8702.33C8702.33 1057.06 8716.97 1083.52 8735 1083.52H8810.01C8828.05 1083.52 8842.69 1057.06 8842.69 1024.46Z" fill="#939598"/>
<path d="M8702.41 1007.44H8842.76C8842.76 984.993 8832.72 966.832 8820.29 966.832H8724.88C8712.46 966.832 8702.41 984.993 8702.41 1007.44Z" fill="#939598"/>
<path opacity="0.45" d="M8248.42 1389.54L7939.7 1187.2L7912.88 1090.53L7933.14 1072.22L7955.84 1154.45L8256.1 1351.07L8248.42 1389.54Z" fill="#6D6E71"/>
<path d="M8056.24 841.708H7882.18V1111.12C8033.54 1132.43 8056.24 841.708 8056.24 841.708Z" fill="#FF453E"/>
<path d="M7998.33 841.708C7987.49 908.059 7957.5 1031.18 7882.18 1062.07V1111.12C8033.54 1132.43 8056.24 841.708 8056.24 841.708H7998.33Z" fill="#E4453E"/>
<path d="M10031.1 1630.21C10031.1 1678.69 10035.2 1725.45 10042.8 1769.49H10539.2C10546.7 1725.45 10550.8 1678.69 10550.8 1630.21C10550.8 1371.24 10434.2 1160.45 10290.9 1160.45C10147.5 1160.45 10031 1371.09 10031 1630.21H10031.1Z" fill="#939598"/>
<path d="M8183.07 1630.21C8183.07 1678.69 8187.19 1725.45 8194.7 1769.49H8691.09C8698.69 1725.45 8702.72 1678.69 8702.72 1630.21C8702.72 1371.24 8586.18 1160.45 8442.82 1160.45C8299.46 1160.45 8182.99 1371.09 8182.99 1630.21H8183.07Z" fill="#939598"/>
<path d="M10291 2011.02C10407.4 2011.02 10501.7 1840.52 10501.7 1630.21C10501.7 1419.9 10407.4 1249.4 10291 1249.4C10174.7 1249.4 10080.3 1419.9 10080.3 1630.21C10080.3 1840.52 10174.7 2011.02 10291 2011.02Z" fill="#58595B"/>
<path d="M10291 1896.19C10372.3 1896.19 10438.2 1777.11 10438.2 1630.21C10438.2 1483.31 10372.3 1364.23 10291 1364.23C10209.8 1364.23 10143.9 1483.31 10143.9 1630.21C10143.9 1777.11 10209.8 1896.19 10291 1896.19Z" fill="#A7A9AC"/>
<path d="M10291 1863.73C10362.4 1863.73 10420.2 1759.18 10420.2 1630.21C10420.2 1501.24 10362.4 1396.69 10291 1396.69C10219.7 1396.69 10161.8 1501.24 10161.8 1630.21C10161.8 1759.18 10219.7 1863.73 10291 1863.73Z" fill="#D1D3D4"/>
<path d="M10253.2 1630.21C10253.2 1592.46 10270.1 1561.86 10291 1561.86C10311.9 1561.86 10328.9 1592.46 10328.9 1630.21C10328.9 1667.96 10311.9 1698.57 10291 1698.57C10270.1 1698.57 10253.2 1667.96 10253.2 1630.21Z" fill="#58595B"/>
<path d="M10295.5 1360.94H10326.6L10315.2 1594.32H10294.4L10295.5 1360.94Z" fill="#58595B"/>
<path d="M10286.1 1360.94L10287.4 1594.32H10266.6L10255.2 1360.94H10286.1Z" fill="#58595B"/>
<path d="M10438.1 1559.71L10447.7 1613.05L10321.3 1665.53L10314.9 1629.78L10438.1 1559.71Z" fill="#58595B"/>
<path d="M10435.2 1543.55L10312.7 1617.77L10306.3 1582.02L10425.6 1490.36L10435.2 1543.55Z" fill="#58595B"/>
<path d="M10377.5 1866.16L10352.4 1899.05L10285.7 1698.14L10302.6 1675.97L10377.5 1866.16Z" fill="#58595B"/>
<path d="M10385.1 1856.15L10308.2 1668.68L10325.1 1646.51L10410.2 1823.26L10385.1 1856.15Z" fill="#58595B"/>
<path d="M10197.5 1856.72L10172.4 1823.83L10257.6 1647.09L10274.4 1669.11L10197.5 1856.72Z" fill="#58595B"/>
<path d="M10205.1 1866.73L10280 1676.54L10296.9 1698.71L10230.2 1899.62L10205.1 1866.73Z" fill="#58595B"/>
<path d="M10146.9 1544.41L10156.5 1491.22L10275.8 1582.88L10269.4 1618.77L10146.9 1544.41Z" fill="#58595B"/>
<path d="M10144 1560.71L10267.2 1630.64L10260.8 1666.39L10134.4 1613.91L10144 1560.71Z" fill="#58595B"/>
<path d="M10143.9 1630.21C10143.9 1777.07 10209.8 1896.19 10291 1896.19C10372.3 1896.19 10438.2 1777.07 10438.2 1630.21C10438.2 1483.35 10372.3 1364.23 10291 1364.23C10209.8 1364.23 10143.9 1483.35 10143.9 1630.21ZM10161.9 1630.21C10161.9 1501.23 10219.7 1396.69 10291.1 1396.69C10362.5 1396.69 10420.3 1501.23 10420.3 1630.21C10420.3 1759.2 10362.5 1863.73 10291.1 1863.73C10219.7 1863.73 10161.9 1759.2 10161.9 1630.21Z" fill="#A7A9AC"/>
<path d="M10291 1668.96C10302.9 1668.96 10312.5 1651.61 10312.5 1630.21C10312.5 1608.81 10302.9 1591.46 10291 1591.46C10279.2 1591.46 10269.6 1608.81 10269.6 1630.21C10269.6 1651.61 10279.2 1668.96 10291 1668.96Z" fill="#A7A9AC"/>
<path d="M8442.98 2011.02C8559.34 2011.02 8653.67 1840.52 8653.67 1630.21C8653.67 1419.9 8559.34 1249.4 8442.98 1249.4C8326.62 1249.4 8232.28 1419.9 8232.28 1630.21C8232.28 1840.52 8326.62 2011.02 8442.98 2011.02Z" fill="#58595B"/>
<path d="M8442.98 1896.19C8524.25 1896.19 8590.14 1777.11 8590.14 1630.21C8590.14 1483.31 8524.25 1364.23 8442.98 1364.23C8361.7 1364.23 8295.82 1483.31 8295.82 1630.21C8295.82 1777.11 8361.7 1896.19 8442.98 1896.19Z" fill="#A7A9AC"/>
<path d="M8442.98 1863.73C8514.34 1863.73 8572.18 1759.18 8572.18 1630.21C8572.18 1501.24 8514.34 1396.69 8442.98 1396.69C8371.62 1396.69 8313.78 1501.24 8313.78 1630.21C8313.78 1759.18 8371.62 1863.73 8442.98 1863.73Z" fill="#D1D3D4"/>
<path d="M8405.16 1630.21C8405.16 1592.46 8422.09 1561.86 8442.98 1561.86C8463.87 1561.86 8480.8 1592.46 8480.8 1630.21C8480.8 1667.96 8463.87 1698.57 8442.98 1698.57C8422.09 1698.57 8405.16 1667.96 8405.16 1630.21Z" fill="#58595B"/>
<path d="M8447.49 1360.94H8478.51L8467.11 1594.32H8446.23L8447.49 1360.94Z" fill="#58595B"/>
<path d="M8438.08 1360.94L8439.34 1594.32H8418.45L8407.06 1360.94H8438.08Z" fill="#58595B"/>
<path d="M8589.98 1559.71L8599.56 1613.05L8473.2 1665.53L8466.8 1629.78L8589.98 1559.71Z" fill="#58595B"/>
<path d="M8587.14 1543.55L8464.66 1617.77L8458.17 1582.02L8577.56 1490.36L8587.14 1543.55Z" fill="#58595B"/>
<path d="M8529.38 1866.16L8504.38 1899.05L8437.68 1698.14L8454.45 1675.97L8529.38 1866.16Z" fill="#58595B"/>
<path d="M8537.05 1856.15L8460.15 1668.68L8476.92 1646.51L8562.13 1823.26L8537.05 1856.15Z" fill="#58595B"/>
<path d="M8349.46 1856.72L8324.38 1823.83L8409.51 1647.09L8426.37 1669.11L8349.46 1856.72Z" fill="#58595B"/>
<path d="M8357.06 1866.73L8431.98 1676.54L8448.84 1698.71L8382.14 1899.62L8357.06 1866.73Z" fill="#58595B"/>
<path d="M8298.83 1544.41L8308.4 1491.22L8427.71 1582.88L8421.3 1618.77L8298.83 1544.41Z" fill="#58595B"/>
<path d="M8295.9 1560.71L8419.17 1630.64L8412.68 1666.39L8286.33 1613.91L8295.9 1560.71Z" fill="#58595B"/>
<path d="M8295.82 1630.21C8295.82 1777.07 8361.72 1896.19 8442.98 1896.19C8524.23 1896.19 8590.14 1777.07 8590.14 1630.21C8590.14 1483.35 8524.23 1364.23 8442.98 1364.23C8361.72 1364.23 8295.82 1483.35 8295.82 1630.21ZM8313.86 1630.21C8313.86 1501.23 8371.69 1396.69 8443.06 1396.69C8514.42 1396.69 8572.26 1501.23 8572.26 1630.21C8572.26 1759.2 8514.42 1863.73 8443.06 1863.73C8371.69 1863.73 8313.86 1759.2 8313.86 1630.21Z" fill="#A7A9AC"/>
<path d="M8421.54 1630.21C8421.54 1608.76 8431.11 1591.46 8442.98 1591.46C8454.85 1591.46 8464.42 1608.76 8464.42 1630.21C8464.42 1651.66 8454.85 1668.96 8442.98 1668.96C8431.11 1668.96 8421.54 1651.66 8421.54 1630.21Z" fill="#A7A9AC"/>
<path opacity="0.1" d="M9365.9 496.367L9290.58 827.697H9195.24L9277.45 465.908C9306.8 472.915 9336.31 483.211 9365.82 496.367H9365.9Z" fill="white"/>
<path opacity="0.1" d="M9522.4 593.747L9469.31 827.695H9373.97L9440.35 535.833L9522.24 593.604L9522.4 593.747Z" fill="white"/>
<path opacity="0.1" d="M8801.54 457.326L8717.36 827.695H8622.1L8699.32 488.214C8707.79 484.639 8716.02 481.35 8723.77 478.061C8749.25 467.622 8775.28 460.615 8801.54 457.326Z" fill="white"/>
<path opacity="0.1" d="M8988.66 454.897L8903.92 827.697H8808.66L8893.4 454.897H8988.66Z" fill="white"/>
<path opacity="0.54" d="M14533.9 2140.27H12316.8C12291.6 2140.27 12271.1 2177.21 12271.1 2222.78V2241.37C12271.1 2286.94 12291.6 2323.88 12316.8 2323.88H14533.9C14559.1 2323.88 14579.5 2286.94 14579.5 2241.37V2222.78C14579.5 2177.21 14559.1 2140.27 14533.9 2140.27Z" fill="#D1D3D4"/>
<path d="M12192.3 539.394H12389.3V1429.14H12192.3C12150.9 1429.14 12117.3 1368.51 12117.3 1293.72V674.958C12117.3 600.169 12150.9 539.537 12192.3 539.537V539.394Z" fill="#58595B"/>
<path d="M13472.5 905.044H13321.3C13321.3 940.222 13337 968.679 13356.5 968.679H13437.3C13456.7 968.679 13472.5 940.222 13472.5 905.044Z" fill="#58595B"/>
<path d="M13321.2 886.595H13472.4C13472.4 862.429 13461.6 842.838 13448.2 842.838H13345.3C13332 842.838 13321.1 862.429 13321.1 886.595H13321.2Z" fill="#58595B"/>
<path d="M14633.6 1572.71V1326.46L14576.7 1235.66V967.106L13832.7 624.908L13550.7 0H12441.3L12252 689.973V1692.54H14599.5L14633.6 1572.71Z" fill="#01B3C8"/>
<path d="M14576.7 967.106V1234.51H14481.3L14394.7 1057.77V883.308L14576.7 967.106Z" fill="#01B3C8"/>
<path d="M12251.9 1270.41V865.146H12325.4C12325.4 865.146 12347 1232.08 12251.9 1270.41Z" fill="#01B3C8"/>
<path d="M13061.2 1692.54H12413.6C12438.8 1410.55 12574.4 1194.62 12737.4 1194.62C12900.4 1194.62 13036 1410.55 13061.2 1692.54Z" fill="#0498A0"/>
<path d="M14461.6 1692.54H13814C13839.2 1410.55 13974.8 1194.62 14137.8 1194.62C14300.8 1194.62 14436.4 1410.55 14461.6 1692.54Z" fill="#0498A0"/>
<path d="M12956.2 82.0808H12468.2L12299.6 703.7H12882.4L12956.2 82.0808Z" fill="#414042"/>
<path d="M12919 136.564L12858 649.217H12347.9L12487 136.564H12919Z" fill="#6D6E71"/>
<path opacity="0.47" d="M13847.8 1645.06H13200.7L13084.9 1180.6V627.48L13792.6 664.66L13847.8 852.704V1645.21V1645.06ZM13215.3 1604.31H13825.2V862.715L13778.8 704.7L13107.4 669.522V1171.88L13215.2 1604.31H13215.3Z" fill="#05777C"/>
<path d="M13530.6 82.0808H13085V703.7H13808.1V698.123L13530.6 82.0808Z" fill="#414042"/>
<path d="M13115 649.217V136.421H13516.2L13747.3 649.217H13115Z" fill="#6D6E71"/>
<path d="M12252 1494.77V1692.54H14599.5L14633.6 1572.71V1494.77H12252Z" fill="#58595B"/>
<path d="M13061.2 1692.54H12413.6C12438.8 1410.55 12574.4 1194.62 12737.4 1194.62C12900.4 1194.62 13036 1410.55 13061.2 1692.54Z" fill="#068787"/>
<path d="M14461.6 1692.54H13814C13839.2 1410.55 13974.8 1194.62 14137.8 1194.62C14300.8 1194.62 14436.4 1410.55 14461.6 1692.54Z" fill="#068787"/>
<path d="M12980.8 1973.92C13037.8 1730.87 12975.1 1450.25 12840.6 1347.13C12706.1 1244.02 12550.9 1357.45 12493.8 1600.5C12436.7 1843.55 12499.5 2124.17 12634 2227.29C12768.5 2330.41 12923.7 2216.97 12980.8 1973.92Z" fill="#58595B"/>
<path d="M12846.6 1985.09C12907 1876.02 12907 1699.19 12846.6 1590.13C12786.3 1481.06 12688.5 1481.06 12628.1 1590.13C12567.8 1699.19 12567.8 1876.02 12628.1 1985.09C12688.5 2094.15 12786.3 2094.15 12846.6 1985.09Z" fill="#A7A9AC"/>
<path d="M12822.1 1957.62C12874 1873.01 12878.2 1728.34 12831.4 1634.48C12784.6 1540.62 12704.5 1533.11 12652.6 1617.72C12600.7 1702.32 12596.5 1846.99 12643.3 1940.85C12690.1 2034.71 12770.2 2042.22 12822.1 1957.62Z" fill="#D1D3D4"/>
<path d="M12871.8 1781.49L12851.1 1665.94L12797.3 1705.7C12783.1 1716.14 12767.8 1695.97 12768.9 1668.37L12773.5 1554.55H12706.4L12710.6 1659.37C12711.8 1686.96 12696.4 1707.13 12682.2 1696.69L12623.8 1653.5L12603 1769.05L12659.5 1794.07C12674.4 1800.65 12680.3 1833.25 12670.4 1854.42L12629.6 1941.5L12683.9 2012.86L12714.5 1923.49C12722.6 1899.89 12741.6 1899.89 12749.7 1923.49L12782.9 2020.58L12837.2 1949.23L12799.7 1869C12789.8 1847.84 12795.6 1815.23 12810.5 1808.66L12871.8 1781.49ZM12754.8 1801.22L12736.3 1825.53L12717.8 1801.22L12724.8 1761.9H12747.7L12754.7 1801.22H12754.8Z" fill="#58595B"/>
<path d="M12737.4 1508.36C12652 1508.36 12582.9 1633.48 12582.9 1787.64C12582.9 1941.79 12652.1 2066.91 12737.4 2066.91C12822.7 2066.91 12891.9 1941.79 12891.9 1787.64C12891.9 1633.48 12822.7 1508.36 12737.4 1508.36ZM12737.4 2016.44C12667.5 2016.44 12610.8 1914.05 12610.8 1787.64C12610.8 1661.23 12667.5 1558.84 12737.4 1558.84C12807.3 1558.84 12864 1661.23 12864 1787.64C12864 1914.05 12807.3 2016.44 12737.4 2016.44Z" fill="#A7A9AC"/>
<path d="M12737.4 1727.86C12719.1 1727.86 12704.3 1754.61 12704.3 1787.64C12704.3 1820.67 12719.1 1847.41 12737.4 1847.41C12755.7 1847.41 12770.5 1820.67 12770.5 1787.64C12770.5 1754.61 12755.7 1727.86 12737.4 1727.86Z" fill="#A7A9AC"/>
<path d="M14381.2 1973.9C14438.2 1730.85 14375.5 1450.23 14241 1347.11C14106.5 1243.99 13951.3 1357.43 13894.2 1600.48C13837.2 1843.53 13899.9 2124.15 14034.4 2227.27C14168.9 2330.39 14324.1 2216.95 14381.2 1973.9Z" fill="#58595B"/>
<path d="M14247 1985.11C14307.4 1876.05 14307.4 1699.22 14247 1590.15C14186.7 1481.09 14088.8 1481.09 14028.5 1590.15C13968.2 1699.22 13968.2 1876.05 14028.5 1985.11C14088.8 2094.18 14186.7 2094.18 14247 1985.11Z" fill="#A7A9AC"/>
<path d="M14227.3 1949.42C14276.7 1860.07 14276.7 1715.2 14227.3 1625.85C14177.8 1536.5 14097.7 1536.5 14048.2 1625.85C13998.8 1715.2 13998.8 1860.07 14048.2 1949.42C14097.7 2038.77 14177.8 2038.77 14227.3 1949.42Z" fill="#D1D3D4"/>
<path d="M14272.2 1781.49L14251.5 1665.94L14197.7 1705.7C14183.5 1716.14 14168.2 1695.97 14169.3 1668.37L14174 1554.55H14106.8L14111.1 1659.37C14112.2 1686.96 14096.8 1707.13 14082.6 1696.69L14024.2 1653.5L14003.4 1769.05L14059.9 1794.07C14074.8 1800.65 14080.7 1833.25 14070.8 1854.42L14030 1941.5L14084.3 2012.86L14114.9 1923.49C14123 1899.89 14142 1899.89 14150.1 1923.49L14183.3 2020.58L14237.6 1949.23L14200.1 1869C14190.2 1847.84 14196 1815.23 14210.9 1808.66L14272.2 1781.49ZM14155.2 1801.22L14136.7 1825.53L14118.2 1801.22L14125.2 1761.9H14148.1L14155.1 1801.22H14155.2Z" fill="#58595B"/>
<path d="M14137.8 1508.36C14052.4 1508.36 13983.3 1633.48 13983.3 1787.64C13983.3 1941.79 14052.5 2066.91 14137.8 2066.91C14223.1 2066.91 14292.3 1941.79 14292.3 1787.64C14292.3 1633.48 14223.1 1508.36 14137.8 1508.36ZM14137.8 2016.44C14067.9 2016.44 14011.2 1914.05 14011.2 1787.64C14011.2 1661.23 14067.9 1558.84 14137.8 1558.84C14207.7 1558.84 14264.4 1661.23 14264.4 1787.64C14264.4 1914.05 14207.7 2016.44 14137.8 2016.44Z" fill="#A7A9AC"/>
<path d="M14137.8 1727.86C14119.5 1727.86 14104.7 1754.6 14104.7 1787.64C14104.7 1820.67 14119.5 1847.41 14137.8 1847.41C14156.1 1847.41 14170.9 1820.67 14170.9 1787.64C14170.9 1754.6 14156.1 1727.86 14137.8 1727.86Z" fill="#A7A9AC"/>
<path d="M13385.2 895.317H13239.7C13239.7 936.93 13258.4 970.677 13281.4 970.677H13343.4C13366.5 970.677 13385.1 936.93 13385.1 895.317H13385.2Z" fill="#0498A0"/>
<path d="M13385.2 873.441H13239.7C13239.7 844.842 13252.5 821.675 13268.4 821.675H13356.5C13372.3 821.675 13385.1 844.842 13385.1 873.441H13385.2Z" fill="#0498A0"/>
<path d="M12251.9 1270.41V865.146H12325.4C12325.4 865.146 12347 1232.08 12251.9 1270.41Z" fill="#F95858"/>
<path d="M12325.5 865.004H12252V916.055H12291.6C12291.6 916.055 12305.4 1151 12262.1 1264.55C12345.4 1204.77 12325.5 865.148 12325.5 865.148V865.004Z" fill="#E4453E"/>
<path d="M14576.7 967.106V1234.51H14481.3L14394.7 1057.77V883.308L14576.7 967.106Z" fill="#FFDE17"/>
<path d="M14532.1 1172.74L14448.2 1001.14V907.904L14394.7 883.308V1057.77L14481.3 1234.51H14576.7V1172.74H14532.1Z" fill="#FFB917"/>
<path opacity="0.1" d="M13362 136.564L13236.1 649.217H13115V598.31L13228.3 136.564H13362Z" fill="white"/>
<path opacity="0.1" d="M13552.2 216.501L13446 649.217H13331.9L13457.8 136.564H13516.2L13552.2 216.501Z" fill="white"/>
<path opacity="0.1" d="M12688.8 136.564L12562.9 649.217H12439L12564.8 136.564H12688.8Z" fill="white"/>
<path opacity="0.1" d="M12886.3 136.564L12760.4 649.217H12651.4L12777.3 136.564H12886.3Z" fill="white"/>
<path d="M16123.4 1490H16058.8C16074.7 1555.49 16096.8 1612.84 16114.7 1639.43H16134.5C16127.2 1595.25 16123.3 1548.49 16123.3 1500.01C16123.3 1496.72 16123.4 1493.29 16123.5 1490H16123.4Z" fill="#58595B"/>
<path d="M18599.6 1242.61V1822.33H16109.5C16077.5 1774.85 16032 1627.99 16034 1514.02C16034 1514.02 16046.4 1371.02 16066.5 1201.14C16068 1187.98 16069.7 1174.54 16071.4 1160.96C16083.7 1060.86 16098.5 954.75 16115 865.232C16126.8 800.311 16139.6 744.255 16152.9 705.502C16152.9 705.502 16525.2 196.567 16606.5 173.83H17349.8C17431.9 173.83 17512.5 214.584 17582.8 291.804C17744.7 469.982 18039.2 787.727 18086.4 795.877C18086.4 795.877 18574.5 942.738 18599.5 1242.61H18599.6Z" fill="#FF833E"/>
<path d="M16651.6 1685.19C16651.6 1732.81 16647.7 1778.71 16640.6 1822.19H16129C16121.8 1778.71 16118 1732.67 16118 1685.19C16118 1419.36 16237.7 1203 16384.8 1203C16531.8 1203 16651.5 1419.36 16651.5 1685.19H16651.6Z" fill="#F26522"/>
<path d="M18255.4 1685.19C18255.4 1732.81 18251.6 1778.71 18244.4 1822.19H17732.8C17725.6 1778.71 17721.8 1732.67 17721.8 1685.19C17721.8 1419.36 17841.5 1203 17988.6 1203C18135.7 1203 18255.4 1419.36 18255.4 1685.19Z" fill="#F26522"/>
<path d="M16651.6 1685.19C16651.6 1732.81 16647.7 1778.71 16640.6 1822.19H16129C16121.8 1778.71 16118 1732.67 16118 1685.19C16118 1419.36 16237.7 1203 16384.8 1203C16531.8 1203 16651.5 1419.36 16651.5 1685.19H16651.6Z" fill="#C1440E"/>
<path d="M18255.4 1685.19C18255.4 1732.81 18251.6 1778.71 18244.4 1822.19H17732.8C17725.6 1778.71 17721.8 1732.67 17721.8 1685.19C17721.8 1419.36 17841.5 1203 17988.6 1203C18135.7 1203 18255.4 1419.36 18255.4 1685.19Z" fill="#C1440E"/>
<path d="M16436.1 2071.12C16554.2 2020.07 16627.1 1805.65 16598.8 1592.19C16570.6 1378.73 16451.9 1247.08 16333.8 1298.13C16215.7 1349.18 16142.9 1563.6 16171.1 1777.06C16199.4 1990.51 16318 2122.17 16436.1 2071.12Z" fill="#58595B"/>
<path d="M16420.6 1954.74C16503.1 1919.22 16554 1769.53 16534.4 1620.41C16514.7 1471.29 16431.9 1379.21 16349.4 1414.73C16266.9 1450.26 16215.9 1599.94 16235.6 1749.06C16255.2 1898.18 16338.1 1990.27 16420.6 1954.74Z" fill="#A7A9AC"/>
<path d="M16416 1922.38C16488.4 1891.26 16533.1 1759.95 16515.9 1629.11C16498.7 1498.26 16426 1417.42 16353.6 1448.54C16281.2 1479.67 16236.5 1610.97 16253.7 1741.82C16270.9 1872.66 16343.6 1953.5 16416 1922.38Z" fill="#D1D3D4"/>
<path d="M16384.8 1747.97C16404 1747.97 16419.6 1719.86 16419.6 1685.19C16419.6 1650.52 16404 1622.42 16384.8 1622.42C16365.7 1622.42 16350.1 1650.52 16350.1 1685.19C16350.1 1719.86 16365.7 1747.97 16384.8 1747.97Z" fill="#58595B"/>
<path d="M16419.4 1509.73C16419.4 1482.42 16403.2 1479.85 16383.3 1479.85C16363.3 1479.85 16347.1 1482.42 16347.1 1509.73C16347.1 1537.05 16363.3 1600.11 16383.3 1600.11C16403.2 1600.11 16419.4 1536.9 16419.4 1509.73Z" fill="#58595B"/>
<path d="M16300.3 1577.09C16285.9 1568.65 16279.5 1595.68 16273.4 1630.14C16267.2 1664.46 16263.5 1693.2 16277.9 1701.64C16292.2 1710.08 16330.5 1701.64 16336.7 1667.32C16342.8 1633 16314.6 1585.52 16300.3 1577.23V1577.09Z" fill="#58595B"/>
<path d="M16298.9 1802.88C16290.1 1824.91 16302.3 1844.21 16318.5 1865.52C16334.6 1886.83 16348.6 1901.84 16357.5 1879.82C16366.3 1857.8 16373.8 1789.44 16357.6 1768.28C16341.5 1746.97 16307.8 1780.86 16298.9 1803.03V1802.88Z" fill="#58595B"/>
<path d="M16417.3 1874.96C16426.1 1896.98 16440.1 1881.82 16456.3 1860.66C16472.4 1839.49 16484.8 1820.19 16475.8 1798.02C16466.9 1775.86 16433.3 1742.11 16417.1 1763.27C16401 1784.58 16408.3 1852.79 16417.3 1874.81V1874.96Z" fill="#58595B"/>
<path d="M16491.7 1693.77C16506 1685.34 16502.4 1656.74 16496.2 1622.27C16490.1 1587.95 16483.7 1560.78 16469.3 1569.22C16455 1577.66 16426.8 1624.99 16432.9 1659.31C16439.1 1693.63 16477.3 1702.07 16491.7 1693.63V1693.77Z" fill="#58595B"/>
<path d="M18118.6 2005.13C18216.5 1875.32 18237.6 1626.62 18165.8 1449.65C18094 1272.68 17956.4 1234.45 17858.5 1364.25C17760.6 1494.06 17739.4 1742.76 17811.2 1919.73C17883 2096.7 18020.6 2134.94 18118.6 2005.13Z" fill="#58595B"/>
<path d="M18078.9 1909.11C18147.4 1818.92 18162.6 1645.32 18112.7 1521.37C18062.8 1397.41 17966.7 1370.04 17898.2 1460.23C17829.6 1550.42 17814.4 1724.02 17864.3 1847.98C17914.2 1971.93 18010.3 1999.3 18078.9 1909.11Z" fill="#A7A9AC"/>
<path d="M18067.8 1883.04C18128 1804.05 18141.4 1651.76 18097.7 1542.91C18054 1434.06 17969.7 1409.86 17909.5 1488.86C17849.3 1567.86 17835.9 1720.14 17879.6 1828.99C17923.3 1937.84 18007.5 1962.04 18067.8 1883.04Z" fill="#D1D3D4"/>
<path d="M17988.6 1747.97C18007.8 1747.97 18023.3 1719.86 18023.3 1685.19C18023.3 1650.52 18007.8 1622.42 17988.6 1622.42C17969.4 1622.42 17953.8 1650.52 17953.8 1685.19C17953.8 1719.86 17969.4 1747.97 17988.6 1747.97Z" fill="#58595B"/>
<path d="M18023.2 1509.73C18023.2 1482.42 18007 1479.84 17987.1 1479.84C17967.1 1479.84 17950.9 1482.42 17950.9 1509.73C17950.9 1537.04 17967.1 1600.11 17987.1 1600.11C18007 1600.11 18023.2 1536.9 18023.2 1509.73Z" fill="#58595B"/>
<path d="M17904.1 1577.08C17889.8 1568.65 17883.3 1595.67 17877.2 1630.13C17871 1664.45 17867.4 1693.2 17881.7 1701.63C17896 1710.07 17934.3 1701.63 17940.5 1667.31C17946.6 1632.99 17918.4 1585.52 17904.1 1577.22V1577.08Z" fill="#58595B"/>
<path d="M17902.7 1802.88C17893.8 1824.9 17906.1 1844.21 17922.2 1865.51C17938.3 1886.82 17952.3 1901.84 17961.2 1879.81C17970.1 1857.79 17977.5 1789.44 17961.4 1768.27C17945.2 1746.97 17911.5 1780.86 17902.7 1803.02V1802.88Z" fill="#58595B"/>
<path d="M18021 1874.95C18029.9 1896.97 18043.8 1881.81 18060 1860.65C18076.2 1839.49 18088.5 1820.18 18079.6 1798.02C18070.7 1775.99 18037.1 1742.1 18020.9 1763.27C18004.7 1784.57 18012.1 1852.79 18021 1874.81V1874.95Z" fill="#58595B"/>
<path d="M18095.5 1693.77C18109.9 1685.33 18106.2 1656.73 18100.1 1622.27C18093.9 1587.95 18087.6 1560.78 18073.2 1569.22C18058.8 1577.65 18030.6 1624.99 18036.8 1659.31C18042.9 1693.63 18081.1 1702.06 18095.5 1693.63V1693.77Z" fill="#58595B"/>
<path d="M17700.1 551.491V808.175H16264.7C16267.1 798.737 16269.5 790.014 16271.9 781.863C16298.2 746.256 16372.4 646.586 16452.6 545.342C16619.8 334.275 16672.4 294.378 16684.8 286.942H17349.8C17420.6 286.942 17489.8 322.12 17550.3 388.472C17606 449.818 17655.7 503.872 17700 551.491H17700.1Z" fill="#6D6E71"/>
<path d="M16327.9 762.846C16363 716.228 16413.8 649.448 16466.9 582.381C16620.1 389.045 16674.4 342.714 16689.2 332.132H17349.8C17416 332.132 17480.8 365.021 17537.3 427.083C17587.4 482.138 17633.6 532.617 17675 577.233V762.989H16327.9L16327.9 762.846Z" fill="#6D6E71"/>
<path d="M17075.1 286.942L17089.4 808.175H16971.6L16988.4 286.942H17075.1Z" fill="#414042"/>
<path opacity="0.1" d="M17550.3 388.472C17543.3 380.75 17536.2 373.457 17528.9 366.593L17428.5 808.175H17559.9L17634.4 480.42C17608 451.677 17580.1 421.076 17550.3 388.472Z" fill="white"/>
<path opacity="0.1" d="M17349.8 286.942H17310.2L17191.7 808.175H17351.7L17463.2 317.83C17426.7 297.524 17388.5 286.942 17349.8 286.942Z" fill="white"/>
<path opacity="0.1" d="M16716.7 789.158H16601.3L16711.2 305.819H16747.9C16773.4 305.819 16798.6 310.681 16823.2 320.405L16716.7 789.158Z" fill="white"/>
<path opacity="0.1" d="M16909.6 305.819H16872.9L16763 789.158H16841.5L16950.4 310.252C16936.9 307.392 16923.3 305.962 16909.6 305.962V305.819Z" fill="white"/>
<path d="M18599.7 1242.61C18595.5 1192.85 18578.6 1147.23 18553.2 1105.9L18386.1 1066.29C18365.4 1061.43 18349.2 1097.75 18356.2 1133.36C18373.2 1220.3 18407.2 1351.58 18458.9 1369.02C18475.5 1374.6 18545 1380.18 18599.8 1383.75V1242.75L18599.7 1242.61Z" fill="#FFDE17"/>
<path d="M18431.9 1203.29C18424.9 1167.68 18441.1 1131.36 18461.9 1136.22L18582.1 1164.82C18574.5 1144.37 18564.7 1124.64 18553.2 1105.9L18386.1 1066.29C18365.4 1061.43 18349.2 1097.75 18356.2 1133.36C18373.2 1220.3 18407.2 1351.58 18458.9 1369.02C18463.1 1370.45 18470.9 1371.88 18480.9 1373.31C18458.4 1323.41 18442.2 1255.48 18432 1203.43L18431.9 1203.29Z" fill="#FFB917"/>
<path opacity="0.6" d="M17017.7 1711.08V765.135H17657.9L17714 774.429V1622.42C17714 1667.46 17693.8 1704.07 17668.9 1704.21L17017.7 1711.22V1711.08ZM17040.3 805.889V1670.04L17668.8 1663.31C17681.3 1663.31 17691.4 1645.01 17691.4 1622.42V811.609L17656.3 805.889H17040.3Z" fill="#E85F1A"/>
<path d="M17550.3 388.472C17490 322.12 17420.7 286.942 17349.8 286.942H16684.9C16672.4 294.235 16619.9 334.275 16452.6 545.342C16372.4 646.586 16298.2 746.256 16271.9 781.863C16269.6 790.014 16267.2 798.737 16264.8 808.175H17700.2V551.491C17655.9 503.872 17606.2 449.818 17550.4 388.472H17550.3ZM17675.1 762.987H16327.9C16363 716.37 16413.8 649.589 16466.9 582.522C16620.1 389.187 16674.4 342.855 16689.2 332.273H17349.8C17416 332.273 17480.8 365.163 17537.3 427.224C17587.4 482.279 17633.6 532.758 17675 577.374V763.13L17675.1 762.987Z" fill="#414042"/>
<path d="M17892.5 752.548C17843.3 703.213 17780.6 637.863 17700.1 551.348V808.032H17892.5V752.548Z" fill="#414042"/>
<path d="M17263.7 1009.09H17126C17126 1048.56 17143.7 1080.45 17165.5 1080.45H17224.2C17246 1080.45 17263.7 1048.56 17263.7 1009.09Z" fill="#C1440E"/>
<path d="M17126 988.355H17263.7C17263.7 961.328 17251.5 939.306 17236.5 939.306H17153.2C17138.2 939.306 17126 961.328 17126 988.355Z" fill="#C1440E"/>
<path d="M16704.6 1009.09H16567C16567 1048.56 16584.6 1080.45 16606.4 1080.45H16665.2C16687 1080.45 16704.6 1048.56 16704.6 1009.09Z" fill="#C1440E"/>
<path d="M16567 988.355H16704.6C16704.6 961.328 16692.4 939.306 16677.5 939.306H16594.1C16579.2 939.306 16567 961.328 16567 988.355Z" fill="#C1440E"/>
<path opacity="0.6" d="M17000.9 1717.23H16825.3C16764.3 1717.23 16711 1645.87 16692.7 1539.76C16618.3 1107.48 16276.8 1187.7 16273.4 1188.56L16260.5 1191.7V808.75H16283.1V1145.66C16348.4 1135.36 16642.8 1112.77 16714.2 1527.61C16729.6 1616.55 16774.2 1676.47 16825.2 1676.47H16978.2V808.178H17000.8V1717.37L17000.9 1717.23Z" fill="#E85F1A"/>
<path d="M17721.9 1675.47H16651.5C16651.5 1678.76 16651.7 1682.05 16651.7 1685.34C16651.7 1732.96 16647.8 1779 16640.7 1822.33H17732.9C17725.7 1778.86 17721.9 1732.81 17721.9 1685.34C17721.9 1682.05 17721.9 1678.76 17722 1675.47H17721.9Z" fill="#58595B"/>
<path d="M18255.3 1675.47C18255.3 1678.76 18255.4 1682.05 18255.4 1685.34C18255.4 1732.96 18251.6 1779 18244.5 1822.33H18599.8V1675.47H18255.4H18255.3Z" fill="#58595B"/>
<path d="M16067.9 1201.14H16066.6C16068.1 1187.98 16069.8 1174.54 16071.4 1160.96C16083.8 1060.86 16098.6 954.753 16115 865.235H16192.7C16192.7 865.235 16198.6 1185.41 16067.9 1201.14Z" fill="#FF453E"/>
<path d="M16067.9 1201.14H16066.6C16068.1 1187.98 16069.8 1174.54 16071.4 1160.96C16139.6 1103.04 16155.4 945.458 16158.9 865.235H16192.8C16192.8 865.235 16198.7 1185.41 16068 1201.14H16067.9Z" fill="#E4453E"/>
<path opacity="0.54" d="M22567.9 2132.64H20064.1C20037.4 2132.64 20015.6 2171.89 20015.6 2220.3V2228.6C20015.6 2277.01 20037.4 2316.26 20064.1 2316.26H22567.9C22594.7 2316.26 22616.4 2277.01 22616.4 2228.6V2220.3C22616.4 2171.89 22594.7 2132.64 22567.9 2132.64Z" fill="#D1D3D4"/>
<path d="M22717 1293.96V1828.92L22593 1955.04H20086.5C19987.7 1889.4 20003.9 1650.74 20003.9 1650.74C19979.2 954.188 20087.3 255.35 20087.3 255.35C20088 253.92 20088.7 252.204 20089.5 250.488C20093.9 240.621 20100.9 226.035 20108.6 209.733C20131.7 161.256 20163.3 97.7641 20163.3 97.7641H21982.5C22070.6 96.7631 22152.2 142.094 22225 209.733C22238.6 222.46 22252 236.045 22265.1 250.059L22265.5 250.488C22449.3 450.544 22566 775.868 22566 775.868C22695.5 859.379 22717 1293.96 22717 1293.96Z" fill="#BCBEC0"/>
<path d="M21862.4 1891.69C21862.4 1913.14 21863.2 1934.31 21864.7 1955.04H22392C22393.5 1934.31 22394.3 1913.14 22394.3 1891.69C22394.3 1626.71 22275 1411.07 22128.4 1411.07C21981.7 1411.07 21862.4 1626.71 21862.4 1891.69Z" fill="#C9243C"/>
<path d="M20313.1 1891.69C20313.1 1913.14 20313.9 1934.31 20315.4 1955.04H20842.7C20844.2 1934.31 20845 1913.14 20845 1891.69C20845 1626.71 20725.7 1411.07 20579.1 1411.07C20432.4 1411.07 20313.1 1626.71 20313.1 1891.69Z" fill="#C9243C"/>
<path d="M21733.7 970.776V290.671H21985.5C22053.3 290.671 22122.9 318.413 22192.1 373.181C22249 418.226 22306 481.289 22361.3 560.94C22452.7 692.499 22509.8 956.762 22515.7 970.919H21733.7V970.776Z" fill="#58595B"/>
<path d="M22334.9 593.542C22284.1 521.899 22232 464.556 22180 423.515C22114.7 371.892 22049.2 345.723 21985.6 345.723H21982.6H21764.2V915.862H22335V593.542H22334.9Z" fill="#6D6E71"/>
<path d="M22555.9 1137.66C22555.9 1137.66 22555.8 1436.81 22615.6 1465.27C22618.5 1466.7 22621.6 1467.13 22624.7 1467.13H22717V1294.1C22717 1294.1 22713.6 1225.6 22701.4 1137.66H22555.9Z" fill="#FFDE17"/>
<path d="M22555.9 1137.66C22555.9 1137.66 22555.8 1436.81 22615.6 1465.27C22618.5 1466.7 22621.6 1467.13 22624.7 1467.13H22717V1417.65H22660C22657 1417.65 22653.9 1417.22 22650.9 1415.79C22606.5 1394.63 22595.2 1223.89 22592.2 1137.66H22555.8H22555.9Z" fill="#FFB31A"/>
<path d="M20010.9 1043.42H20051.9C20068.9 1043.42 20082.7 1068.44 20082.7 1099.19V1518.75C20082.7 1518.75 20057.3 1602.12 20003.5 1642.59C19996.6 1436.81 20001.1 1231.03 20010.9 1043.42Z" fill="#FF453E"/>
<path d="M20082.8 1099.33V1518.89C20082.8 1518.89 20059.9 1593.54 20011.9 1635.87C20037.4 1597.69 20049.7 1557.5 20049.7 1557.5V1137.94C20049.7 1107.05 20035.9 1082.17 20018.9 1082.17H20009C20009.6 1069.3 20010.2 1056.15 20010.9 1043.56H20052C20069 1043.56 20082.8 1068.44 20082.8 1099.33Z" fill="#E4453E"/>
<path opacity="0.45" d="M22514.4 970.917H22491.8V1955.18H22514.4V970.917Z" fill="#6D6E71"/>
<path opacity="0.45" d="M22265.5 250.485H20089.5C20093.8 240.618 20100.8 226.032 20108.5 209.73H22225L22265.2 250.056L22265.5 250.485H22265.5Z" fill="#6D6E71"/>
<path opacity="0.45" d="M21662.7 1178.7H20889.6V1219.45H21662.7V1178.7Z" fill="#6D6E71"/>
<path opacity="0.45" d="M21677.9 238.188H21655.4V1955.18H21677.9V238.188Z" fill="#6D6E71"/>
<path d="M22027.6 1121.5H21882.6C21882.6 1155.24 21897.7 1182.41 21916.3 1182.41H21993.8C22012.4 1182.41 22027.5 1155.1 22027.5 1121.5H22027.6Z" fill="#58595B"/>
<path d="M21882.6 1103.76H22027.6C22027.6 1080.6 22017.2 1061.87 22004.4 1061.87H21905.8C21893 1061.87 21882.6 1080.6 21882.6 1103.76Z" fill="#58595B"/>
<path d="M21027.6 1193.14H20882.6C20882.6 1226.74 20897.7 1254.06 20916.3 1254.06H20993.8C21012.4 1254.06 21027.5 1226.74 21027.5 1193.14H21027.6Z" fill="#58595B"/>
<path d="M20882.6 1175.41H21027.6C21027.6 1152.24 21017.2 1133.51 21004.4 1133.51H20905.8C20893 1133.51 20882.6 1152.24 20882.6 1175.41Z" fill="#58595B"/>
<path opacity="0.45" d="M20924.7 1957.33C20904.5 1622.28 20819.6 1439.96 20818.9 1438.24L20816.2 1432.52V1424.94V912.289H20838.7V1417.65C20854.2 1452.68 20928 1634.72 20947.2 1952.9L20924.7 1957.33Z" fill="#6D6E71"/>
<path d="M20089.3 970.777C20108.2 738.259 20131.6 428.808 20141.7 356.88C20150.2 348.157 20162.8 337.289 20175.3 327.708L21581.6 290.528V970.634H20089.3V970.777Z" fill="#58595B"/>
<path d="M20908.6 363.455L21551.2 346.438V915.862H20962.4C20932.6 915.862 20908.5 872.247 20908.5 818.479V363.455H20908.6Z" fill="#6D6E71"/>
<path d="M20721.7 915.862H20124.4C20127 883.544 20129.7 850.225 20132.3 816.906C20145.4 653.172 20160 470.133 20168.3 393.771C20172.5 390.053 20177.1 386.192 20181.7 382.617L20768.4 367.173V831.492C20768.4 878.11 20747.5 915.862 20721.7 915.862Z" fill="#6D6E71"/>
<path opacity="0.45" d="M20174.3 949.752H20151.7V1909.42H20174.3V949.752Z" fill="#6D6E71"/>
<path d="M20008.8 1783.16C20017.5 1849.79 20038.2 1923.01 20086.4 1955.18H22592.9L22717 1829.06V1783.16H20008.8Z" fill="#58595B"/>
<path d="M21862.4 1891.69C21862.4 1913.14 21863.2 1934.3 21864.7 1955.04H22392C22393.5 1934.3 22394.3 1913.14 22394.3 1891.69C22394.3 1626.71 22275 1411.07 22128.4 1411.07C21981.8 1411.07 21862.4 1626.71 21862.4 1891.69Z" fill="#808285"/>
<path d="M20313.1 1891.69C20313.1 1913.14 20313.9 1934.3 20315.4 1955.04H20842.7C20844.2 1934.3 20845 1913.14 20845 1891.69C20845 1626.71 20725.7 1411.07 20579.1 1411.07C20432.4 1411.07 20313.1 1626.71 20313.1 1891.69Z" fill="#808285"/>
<path d="M21924.1 1891.69C21924.1 2095.61 22015.5 2260.92 22128.4 2260.92C22241.2 2260.92 22332.6 2095.61 22332.6 1891.69C22332.6 1687.77 22241.2 1522.47 22128.4 1522.47C22015.5 1522.47 21924.1 1687.77 21924.1 1891.69ZM21998.9 1891.69C21998.9 1762.56 22056.8 1657.89 22128.3 1657.89C22199.7 1657.89 22257.6 1762.56 22257.6 1891.69C22257.6 2020.82 22199.7 2125.5 22128.3 2125.5C22056.8 2125.5 21998.9 2020.82 21998.9 1891.69Z" fill="#58595B"/>
<path d="M21991.2 1891.69C21991.2 2028.54 22052.6 2139.51 22128.4 2139.51C22204.1 2139.51 22265.5 2028.54 22265.5 1891.69C22265.5 1754.84 22204.1 1643.87 22128.4 1643.87C22052.6 1643.87 21991.2 1754.84 21991.2 1891.69ZM22017.5 1891.69C22017.5 1781.01 22067.1 1691.35 22128.4 1691.35C22189.6 1691.35 22239.2 1781.01 22239.2 1891.69C22239.2 2002.37 22189.6 2092.03 22128.4 2092.03C22067.1 2092.03 22017.5 2002.37 22017.5 1891.69Z" fill="#A7A9AC"/>
<path d="M22128.4 2103.47C22193.1 2103.47 22245.5 2008.65 22245.5 1891.69C22245.5 1774.73 22193.1 1679.91 22128.4 1679.91C22063.6 1679.91 22011.2 1774.73 22011.2 1891.69C22011.2 2008.65 22063.6 2103.47 22128.4 2103.47Z" fill="#D1D3D4"/>
<path d="M22128.4 1996.8C22160.5 1996.8 22186.5 1949.74 22186.5 1891.69C22186.5 1833.64 22160.5 1786.59 22128.4 1786.59C22096.2 1786.59 22070.2 1833.64 22070.2 1891.69C22070.2 1949.74 22096.2 1996.8 22128.4 1996.8Z" fill="#58595B"/>
<path d="M20374.8 1891.69C20374.8 2095.61 20466.3 2260.92 20579.1 2260.92C20692 2260.92 20783.4 2095.61 20783.4 1891.69C20783.4 1687.77 20692 1522.47 20579.1 1522.47C20466.3 1522.47 20374.8 1687.77 20374.8 1891.69ZM20449.7 1891.69C20449.7 1762.56 20507.6 1657.89 20579 1657.89C20650.5 1657.89 20708.4 1762.56 20708.4 1891.69C20708.4 2020.82 20650.5 2125.5 20579 2125.5C20507.6 2125.5 20449.7 2020.82 20449.7 1891.69Z" fill="#58595B"/>
<path d="M20441.9 1891.69C20441.9 2028.54 20503.3 2139.51 20579 2139.51C20654.8 2139.51 20716.2 2028.54 20716.2 1891.69C20716.2 1754.84 20654.8 1643.87 20579 1643.87C20503.3 1643.87 20441.9 1754.84 20441.9 1891.69ZM20468.2 1891.69C20468.2 1781.01 20517.8 1691.35 20579 1691.35C20640.3 1691.35 20689.9 1781.01 20689.9 1891.69C20689.9 2002.37 20640.3 2092.03 20579 2092.03C20517.8 2092.03 20468.2 2002.37 20468.2 1891.69Z" fill="#A7A9AC"/>
<path d="M20579 2103.47C20643.8 2103.47 20696.2 2008.65 20696.2 1891.69C20696.2 1774.73 20643.8 1679.91 20579 1679.91C20514.3 1679.91 20461.9 1774.73 20461.9 1891.69C20461.9 2008.65 20514.3 2103.47 20579 2103.47Z" fill="#D1D3D4"/>
<path d="M20579 1996.8C20611.2 1996.8 20637.2 1949.74 20637.2 1891.69C20637.2 1833.64 20611.2 1786.59 20579 1786.59C20546.9 1786.59 20520.9 1833.64 20520.9 1891.69C20520.9 1949.74 20546.9 1996.8 20579 1996.8Z" fill="#58595B"/>
<path opacity="0.1" d="M22260.3 500.019L22165.8 915.861H22028L22145.6 398.775C22157 406.211 22168.5 414.505 22179.9 423.657C22206.8 444.821 22233.6 470.275 22260.3 500.019Z" fill="white"/>
<path opacity="0.1" d="M22071.3 361.167L21945.2 915.862H21774.6L21904.2 345.723H21985.6C22013.9 345.723 22042.6 350.871 22071.4 361.167H22071.3Z" fill="white"/>
<path opacity="0.1" d="M21506.6 347.583L21377.4 915.863H21239.5L21367.9 351.301L21506.6 347.583Z" fill="white"/>
<path opacity="0.1" d="M20713.5 368.462L20589 915.864H20451.1L20574.8 372.323L20713.5 368.462Z" fill="white"/>
<path opacity="0.1" d="M21261.4 354.162L21133.8 915.864H20963.2L21089.8 358.738L21261.4 354.162Z" fill="white"/>
<path opacity="0.1" d="M20499.1 374.179L20376 915.862H20205.4L20327.4 378.755L20499.1 374.179Z" fill="white"/>
</svg>
