<svg width="7809" height="3510" viewBox="0 0 7809 3510" fill="none" xmlns="http://www.w3.org/2000/svg">
<path opacity="0.54" d="M2416.53 2688.27H199.46C174.247 2688.27 153.808 2725.21 153.808 2770.78V2789.37C153.808 2834.94 174.247 2871.88 199.46 2871.88H2416.53C2441.74 2871.88 2462.18 2834.94 2462.18 2789.37V2770.78C2462.18 2725.21 2441.74 2688.27 2416.53 2688.27Z" fill="#D1D3D4"/>
<path d="M74.9255 1087.39H272.01V1977.14H74.9255C33.5464 1977.14 0 1916.51 0 1841.72V1222.96C0 1148.17 33.5464 1087.54 74.9255 1087.54V1087.39Z" fill="#58595B"/>
<path d="M1355.15 1453.04H1203.95C1203.95 1488.22 1219.7 1516.68 1239.16 1516.68H1319.94C1339.4 1516.68 1355.15 1488.22 1355.15 1453.04Z" fill="#58595B"/>
<path d="M1203.87 1434.6H1355.07C1355.07 1410.43 1344.23 1390.84 1330.86 1390.84H1228C1214.63 1390.84 1203.79 1410.43 1203.79 1434.6H1203.87Z" fill="#58595B"/>
<path d="M2516.22 2120.71V1874.46L2459.41 1783.66V1515.11L1715.38 1172.91L1433.32 548H323.914L134.662 1237.97V2240.54H2482.12L2516.22 2120.71Z" fill="#01B3C8"/>
<path d="M2459.41 1515.11V1782.51H2363.91L2277.36 1605.77V1431.31L2459.41 1515.11Z" fill="#01B3C8"/>
<path d="M134.583 1818.41V1413.15H208.084C208.084 1413.15 229.683 1780.08 134.583 1818.41Z" fill="#01B3C8"/>
<path d="M943.889 2240.54H296.222C321.461 1958.55 457.071 1742.62 620.055 1742.62C783.04 1742.62 918.65 1958.55 943.889 2240.54Z" fill="#0498A0"/>
<path d="M2344.29 2240.54H1696.62C1721.86 1958.55 1857.47 1742.62 2020.46 1742.62C2183.44 1742.62 2319.05 1958.55 2344.29 2240.54Z" fill="#0498A0"/>
<path d="M838.897 630.081H350.892L182.29 1251.7H765.079L838.897 630.081Z" fill="#414042"/>
<path d="M801.632 684.564L740.71 1197.22H230.552L369.643 684.564H801.632Z" fill="#6D6E71"/>
<path opacity="0.47" d="M1730.49 2193.06H1083.38L967.546 1728.6V1175.48L1675.26 1212.66L1730.49 1400.7V2193.21V2193.06ZM1097.93 2152.31H1707.86V1410.71L1661.42 1252.7L990.015 1217.52V1719.88L1097.85 2152.31H1097.93Z" fill="#05777C"/>
<path d="M1413.22 630.081H967.625V1251.7H1690.77V1246.12L1413.22 630.081Z" fill="#414042"/>
<path d="M997.69 1197.22V684.421H1398.9L1629.93 1197.22H997.69Z" fill="#6D6E71"/>
<path d="M134.662 2042.77V2240.54H2482.12L2516.22 2120.71V2042.77H134.662Z" fill="#58595B"/>
<path d="M943.889 2240.54H296.222C321.461 1958.55 457.071 1742.62 620.055 1742.62C783.04 1742.62 918.65 1958.55 943.889 2240.54Z" fill="#068787"/>
<path d="M2344.29 2240.54H1696.63C1721.86 1958.55 1857.47 1742.62 2020.46 1742.62C2183.44 1742.62 2319.05 1958.55 2344.29 2240.54Z" fill="#068787"/>
<path d="M863.436 2521.92C920.489 2278.87 857.727 1998.25 723.254 1895.13C588.78 1792.02 433.517 1905.45 376.464 2148.5C319.411 2391.55 382.173 2672.17 516.646 2775.29C651.12 2878.41 806.383 2764.97 863.436 2521.92Z" fill="#58595B"/>
<path d="M729.3 2533.09C789.643 2424.02 789.643 2247.19 729.3 2138.13C668.957 2029.06 571.121 2029.06 510.777 2138.13C450.434 2247.19 450.434 2424.02 510.777 2533.09C571.121 2642.15 668.956 2642.15 729.3 2533.09Z" fill="#A7A9AC"/>
<path d="M704.777 2505.62C756.708 2421.01 760.861 2276.34 714.053 2182.48C667.244 2088.62 587.199 2081.11 535.268 2165.72C483.336 2250.32 479.183 2394.99 525.992 2488.85C572.801 2582.71 652.845 2590.22 704.777 2505.62Z" fill="#D1D3D4"/>
<path d="M754.479 2329.49L733.75 2213.94L679.949 2253.7C665.787 2264.14 650.438 2243.97 651.545 2216.37L656.214 2102.55H589.042L593.314 2207.37C594.422 2234.96 579.073 2255.13 564.91 2244.69L506.441 2201.5L485.712 2317.05L542.203 2342.07C557.078 2348.65 562.932 2381.25 553.043 2402.42L512.217 2489.5L566.572 2560.86L597.191 2471.49C605.261 2447.89 624.249 2447.89 632.32 2471.49L665.55 2568.58L719.904 2497.23L682.323 2417C672.433 2395.84 678.288 2363.23 693.162 2356.66L754.479 2329.49ZM637.462 2349.22L618.948 2373.53L600.435 2349.22L607.476 2309.9H630.342L637.383 2349.22H637.462Z" fill="#58595B"/>
<path d="M620.056 2056.36C534.687 2056.36 465.537 2181.48 465.537 2335.64C465.537 2489.79 534.766 2614.91 620.056 2614.91C705.346 2614.91 774.575 2489.79 774.575 2335.64C774.575 2181.48 705.346 2056.36 620.056 2056.36ZM620.056 2564.44C550.115 2564.44 493.466 2462.05 493.466 2335.64C493.466 2209.23 550.115 2106.84 620.056 2106.84C689.997 2106.84 746.646 2209.23 746.646 2335.64C746.646 2462.05 689.997 2564.44 620.056 2564.44Z" fill="#A7A9AC"/>
<path d="M620.056 2275.86C601.78 2275.86 586.985 2302.61 586.985 2335.64C586.985 2368.67 601.78 2395.41 620.056 2395.41C638.333 2395.41 653.128 2368.67 653.128 2335.64C653.128 2302.61 638.333 2275.86 620.056 2275.86Z" fill="#A7A9AC"/>
<path d="M2263.84 2521.9C2320.9 2278.85 2258.14 1998.23 2123.66 1895.11C1989.19 1791.99 1833.92 1905.43 1776.87 2148.48C1719.82 2391.53 1782.58 2672.15 1917.05 2775.27C2051.53 2878.39 2206.79 2764.95 2263.84 2521.9Z" fill="#58595B"/>
<path d="M2129.68 2533.11C2190.03 2424.05 2190.03 2247.22 2129.69 2138.15C2069.34 2029.09 1971.51 2029.09 1911.16 2138.15C1850.82 2247.22 1850.82 2424.05 1911.16 2533.11C1971.51 2642.18 2069.34 2642.18 2129.68 2533.11Z" fill="#A7A9AC"/>
<path d="M2109.93 2497.42C2159.37 2408.07 2159.37 2263.2 2109.93 2173.85C2060.5 2084.5 1980.35 2084.5 1930.91 2173.85C1881.47 2263.2 1881.47 2408.07 1930.91 2497.42C1980.35 2586.77 2060.5 2586.77 2109.93 2497.42Z" fill="#D1D3D4"/>
<path d="M2154.88 2329.49L2134.15 2213.94L2080.35 2253.7C2066.19 2264.14 2050.84 2243.97 2051.95 2216.37L2056.61 2102.55H1989.44L1993.71 2207.37C1994.82 2234.96 1979.47 2255.13 1965.31 2244.69L1906.84 2201.5L1886.11 2317.05L1942.6 2342.07C1957.48 2348.65 1963.33 2381.25 1953.44 2402.42L1912.62 2489.5L1966.97 2560.86L1997.59 2471.49C2005.66 2447.89 2024.65 2447.89 2032.72 2471.49L2065.95 2568.58L2120.3 2497.23L2082.72 2417C2072.83 2395.84 2078.69 2363.23 2093.56 2356.66L2154.88 2329.49ZM2037.86 2349.22L2019.35 2373.53L2000.84 2349.22L2007.88 2309.9H2030.74L2037.78 2349.22H2037.86Z" fill="#58595B"/>
<path d="M2020.46 2056.36C1935.09 2056.36 1865.94 2181.48 1865.94 2335.64C1865.94 2489.79 1935.17 2614.91 2020.46 2614.91C2105.75 2614.91 2174.97 2489.79 2174.97 2335.64C2174.97 2181.48 2105.75 2056.36 2020.46 2056.36ZM2020.46 2564.44C1950.51 2564.44 1893.87 2462.05 1893.87 2335.64C1893.87 2209.22 1950.51 2106.84 2020.46 2106.84C2090.4 2106.84 2147.05 2209.22 2147.05 2335.64C2147.05 2462.05 2090.4 2564.44 2020.46 2564.44Z" fill="#A7A9AC"/>
<path d="M2020.46 2275.86C2002.18 2275.86 1987.39 2302.6 1987.39 2335.64C1987.39 2368.67 2002.18 2395.41 2020.46 2395.41C2038.73 2395.41 2053.53 2368.67 2053.53 2335.64C2053.53 2302.6 2038.73 2275.86 2020.46 2275.86Z" fill="#A7A9AC"/>
<path d="M1267.88 1443.32H1122.38C1122.38 1484.93 1141.05 1518.68 1164.08 1518.68H1226.11C1249.13 1518.68 1267.8 1484.93 1267.8 1443.32H1267.88Z" fill="#0498A0"/>
<path d="M1267.88 1421.44H1122.38C1122.38 1392.84 1135.2 1369.68 1151.02 1369.68H1239.16C1254.98 1369.68 1267.8 1392.84 1267.8 1421.44H1267.88Z" fill="#0498A0"/>
<path d="M134.583 1818.41V1413.15H208.084C208.084 1413.15 229.683 1780.08 134.583 1818.41Z" fill="#F95858"/>
<path d="M208.164 1413H134.662V1464.06H174.301C174.301 1464.06 188.067 1699 144.789 1812.55C228.101 1752.77 208.164 1413.15 208.164 1413.15V1413Z" fill="#E4453E"/>
<path d="M2459.41 1515.11V1782.51H2363.91L2277.36 1605.77V1431.31L2459.41 1515.11Z" fill="#FFDE17"/>
<path d="M2414.79 1720.74L2330.84 1549.14V1455.9L2277.36 1431.31V1605.77L2363.91 1782.51H2459.41V1720.74H2414.79Z" fill="#FFB917"/>
<path opacity="0.1" d="M1244.62 684.564L1118.74 1197.22H997.69V1146.31L1110.99 684.564H1244.62Z" fill="white"/>
<path opacity="0.1" d="M1434.9 764.501L1328.64 1197.22H1214.55L1340.43 684.564H1398.9L1434.9 764.501Z" fill="white"/>
<path opacity="0.1" d="M571.476 684.564L445.519 1197.22H321.619L447.497 684.564H571.476Z" fill="white"/>
<path opacity="0.1" d="M768.958 684.564L643.079 1197.22H534.054L659.932 684.564H768.958Z" fill="white"/>
<path d="M4006.09 2038H3941.45C3957.35 2103.49 3979.43 2160.84 3997.39 2187.43H4017.17C4009.89 2143.25 4006.01 2096.49 4006.01 2048.01C4006.01 2044.72 4006.09 2041.29 4006.17 2038H4006.09Z" fill="#58595B"/>
<path d="M6482.27 1790.61V2370.33H3992.17C3960.12 2322.85 3914.63 2175.99 3916.69 2062.02C3916.69 2062.02 3929.11 1919.02 3949.2 1749.14C3950.71 1735.98 3952.37 1722.54 3954.03 1708.96C3966.37 1608.86 3981.17 1502.75 3997.63 1413.23C4009.49 1348.31 4022.31 1292.25 4035.52 1253.5C4035.52 1253.5 4407.86 744.567 4489.19 721.83H5232.43C5314.56 721.83 5395.18 762.584 5465.44 839.804C5627.31 1017.98 5921.87 1335.73 5969.11 1343.88C5969.11 1343.88 6457.19 1490.74 6482.19 1790.61H6482.27Z" fill="#FF833E"/>
<path d="M4534.29 2233.19C4534.29 2280.81 4530.41 2326.71 4523.29 2370.19H4011.63C4004.43 2326.71 4000.63 2280.67 4000.63 2233.19C4000.63 1967.36 4120.34 1751 4267.42 1751C4414.5 1751 4534.21 1967.36 4534.21 2233.19H4534.29Z" fill="#F26522"/>
<path d="M6138.03 2233.19C6138.03 2280.81 6134.23 2326.71 6127.03 2370.19H5615.45C5608.25 2326.71 5604.45 2280.67 5604.45 2233.19C5604.45 1967.36 5724.16 1751 5871.24 1751C6018.32 1751 6138.03 1967.36 6138.03 2233.19Z" fill="#F26522"/>
<path d="M4534.29 2233.19C4534.29 2280.81 4530.41 2326.71 4523.29 2370.19H4011.63C4004.43 2326.71 4000.63 2280.67 4000.63 2233.19C4000.63 1967.36 4120.34 1751 4267.42 1751C4414.5 1751 4534.21 1967.36 4534.21 2233.19H4534.29Z" fill="#C1440E"/>
<path d="M6138.03 2233.19C6138.03 2280.81 6134.23 2326.71 6127.03 2370.19H5615.45C5608.25 2326.71 5604.45 2280.67 5604.45 2233.19C5604.45 1967.36 5724.15 1751 5871.24 1751C6018.32 1751 6138.03 1967.36 6138.03 2233.19Z" fill="#C1440E"/>
<path d="M4318.77 2619.12C4436.87 2568.07 4509.72 2353.65 4481.47 2140.19C4453.23 1926.73 4334.59 1795.08 4216.49 1846.13C4098.39 1897.18 4025.55 2111.6 4053.79 2325.06C4082.04 2538.51 4200.67 2670.17 4318.77 2619.12Z" fill="#58595B"/>
<path d="M4303.23 2502.74C4385.74 2467.22 4436.69 2317.53 4417.03 2168.41C4397.38 2019.29 4314.56 1927.21 4232.05 1962.73C4149.55 1998.26 4098.6 2147.94 4118.25 2297.06C4137.91 2446.18 4220.73 2538.27 4303.23 2502.74Z" fill="#A7A9AC"/>
<path d="M4298.65 2470.38C4371.04 2439.26 4415.77 2307.95 4398.55 2177.11C4381.33 2046.26 4308.68 1965.42 4236.29 1996.54C4163.9 2027.67 4119.17 2158.97 4136.39 2289.82C4153.61 2420.66 4226.25 2501.5 4298.65 2470.38Z" fill="#D1D3D4"/>
<path d="M4267.5 2295.97C4286.68 2295.97 4302.23 2267.86 4302.23 2233.19C4302.23 2198.52 4286.68 2170.42 4267.5 2170.42C4248.32 2170.42 4232.77 2198.52 4232.77 2233.19C4232.77 2267.86 4248.32 2295.97 4267.5 2295.97Z" fill="#58595B"/>
<path d="M4302.08 2057.73C4302.08 2030.42 4285.86 2027.85 4265.92 2027.85C4245.98 2027.85 4229.76 2030.42 4229.76 2057.73C4229.76 2085.05 4245.98 2148.11 4265.92 2148.11C4285.86 2148.11 4302.08 2084.9 4302.08 2057.73Z" fill="#58595B"/>
<path d="M4182.92 2125.09C4168.6 2116.65 4162.19 2143.68 4156.02 2178.14C4149.85 2212.46 4146.21 2241.2 4160.53 2249.64C4174.85 2258.08 4213.15 2249.64 4219.32 2215.32C4225.49 2181 4197.24 2133.52 4182.92 2125.23V2125.09Z" fill="#58595B"/>
<path d="M4181.58 2350.88C4172.72 2372.91 4184.98 2392.21 4201.12 2413.52C4217.26 2434.83 4231.26 2449.84 4240.13 2427.82C4248.99 2405.8 4256.42 2337.44 4240.28 2316.28C4224.14 2294.97 4190.44 2328.86 4181.58 2351.03V2350.88Z" fill="#58595B"/>
<path d="M4299.94 2422.96C4308.8 2444.98 4322.73 2429.82 4338.95 2408.66C4355.09 2387.49 4367.43 2368.19 4358.49 2346.02C4349.55 2323.86 4316 2290.11 4299.78 2311.27C4283.64 2332.58 4291 2400.79 4299.94 2422.81V2422.96Z" fill="#58595B"/>
<path d="M4374.39 2241.77C4388.71 2233.34 4385.07 2204.74 4378.9 2170.27C4372.73 2135.95 4366.4 2108.78 4352 2117.22C4337.68 2125.66 4309.43 2172.99 4315.6 2207.31C4321.78 2241.63 4359.99 2250.07 4374.39 2241.63V2241.77Z" fill="#58595B"/>
<path d="M6001.22 2553.13C6099.13 2423.32 6120.29 2174.62 6048.46 1997.65C5976.64 1820.68 5839.05 1782.45 5741.13 1912.25C5643.22 2042.06 5622.06 2290.76 5693.88 2467.73C5765.7 2644.7 5903.3 2682.94 6001.22 2553.13Z" fill="#58595B"/>
<path d="M5961.53 2457.11C6030.11 2366.92 6045.25 2193.32 5995.35 2069.37C5945.45 1945.41 5849.4 1918.04 5780.82 2008.23C5712.24 2098.42 5697.1 2272.02 5747 2395.98C5796.9 2519.93 5892.95 2547.3 5961.53 2457.11Z" fill="#A7A9AC"/>
<path d="M5950.43 2431.04C6010.65 2352.05 6024.04 2199.76 5980.34 2090.91C5936.63 1982.06 5852.37 1957.86 5792.15 2036.86C5731.92 2115.86 5718.53 2268.14 5762.24 2376.99C5805.95 2485.84 5890.2 2510.04 5950.43 2431.04Z" fill="#D1D3D4"/>
<path d="M5871.24 2295.97C5890.42 2295.97 5905.97 2267.86 5905.97 2233.19C5905.97 2198.52 5890.42 2170.42 5871.24 2170.42C5852.06 2170.42 5836.51 2198.52 5836.51 2233.19C5836.51 2267.86 5852.06 2295.97 5871.24 2295.97Z" fill="#58595B"/>
<path d="M5905.89 2057.73C5905.89 2030.42 5889.67 2027.84 5869.73 2027.84C5849.8 2027.84 5833.58 2030.42 5833.58 2057.73C5833.58 2085.04 5849.8 2148.11 5869.73 2148.11C5889.67 2148.11 5905.89 2084.9 5905.89 2057.73Z" fill="#58595B"/>
<path d="M5786.74 2125.08C5772.42 2116.65 5766.01 2143.67 5759.84 2178.14C5753.67 2212.46 5750.03 2241.2 5764.35 2249.64C5778.67 2258.07 5816.96 2249.64 5823.13 2215.32C5829.31 2181 5801.06 2133.52 5786.74 2125.23V2125.08Z" fill="#58595B"/>
<path d="M5785.31 2350.88C5776.45 2372.9 5788.72 2392.21 5804.86 2413.51C5821 2434.82 5835 2449.84 5843.86 2427.81C5852.72 2405.79 5860.16 2337.44 5844.02 2316.27C5827.88 2294.97 5794.18 2328.86 5785.31 2351.02V2350.88Z" fill="#58595B"/>
<path d="M5903.68 2422.95C5912.54 2444.97 5926.46 2429.81 5942.68 2408.65C5958.82 2387.49 5971.17 2368.18 5962.23 2346.02C5953.36 2323.99 5919.74 2290.1 5903.52 2311.27C5887.38 2332.57 5894.74 2400.79 5903.68 2422.81V2422.95Z" fill="#58595B"/>
<path d="M5978.21 2241.77C5992.53 2233.33 5988.89 2204.73 5982.72 2170.27C5976.55 2135.95 5970.22 2108.78 5955.82 2117.22C5941.5 2125.65 5913.25 2172.99 5919.42 2207.31C5925.59 2241.63 5963.81 2250.06 5978.21 2241.63V2241.77Z" fill="#58595B"/>
<path d="M5582.77 1099.49V1356.18H4147.4C4149.77 1346.74 4152.14 1338.01 4154.52 1329.86C4180.86 1294.26 4255.08 1194.59 4335.22 1093.34C4502.48 882.275 4555.02 842.378 4567.44 834.942H5232.43C5303.24 834.942 5372.47 870.12 5432.92 936.472C5488.7 997.818 5538.38 1051.87 5582.69 1099.49H5582.77Z" fill="#6D6E71"/>
<path d="M4210.61 1310.85C4245.66 1264.23 4296.46 1197.45 4349.55 1130.38C4502.72 937.045 4557.07 890.714 4571.87 880.132H5232.51C5298.65 880.132 5363.45 913.021 5419.94 975.083C5470.03 1030.14 5516.31 1080.62 5557.69 1125.23V1310.99H4210.53L4210.61 1310.85Z" fill="#6D6E71"/>
<path d="M4957.81 834.942L4972.05 1356.18H4854.25L4871.02 834.942H4957.81Z" fill="#414042"/>
<path opacity="0.1" d="M5433 936.472C5425.96 928.75 5418.84 921.457 5411.56 914.593L5311.16 1356.18H5442.57L5517.1 1028.42C5490.68 999.677 5462.75 969.076 5433 936.472Z" fill="white"/>
<path opacity="0.1" d="M5232.51 834.942H5192.87L5074.35 1356.18H5234.41L5345.89 865.83C5309.34 845.524 5271.12 834.942 5232.51 834.942Z" fill="white"/>
<path opacity="0.1" d="M4599.32 1337.16H4483.97L4593.86 853.819H4630.58C4656.05 853.819 4681.29 858.681 4705.9 868.405L4599.32 1337.16Z" fill="white"/>
<path opacity="0.1" d="M4792.29 853.819H4755.58L4645.69 1337.16H4724.17L4833.04 858.252C4819.59 855.392 4805.98 853.962 4792.29 853.962V853.819Z" fill="white"/>
<path d="M6482.35 1790.61C6478.16 1740.85 6461.23 1695.23 6435.91 1653.9L6268.81 1614.29C6248.08 1609.43 6231.86 1645.75 6238.83 1681.36C6255.84 1768.3 6289.86 1899.58 6341.6 1917.02C6358.14 1922.6 6427.68 1928.18 6482.43 1931.75V1790.75L6482.35 1790.61Z" fill="#FFDE17"/>
<path d="M6314.54 1751.29C6307.58 1715.68 6323.8 1679.36 6344.53 1684.22L6464.79 1712.82C6457.19 1692.37 6447.38 1672.64 6435.91 1653.9L6268.81 1614.29C6248.08 1609.43 6231.86 1645.75 6238.83 1681.36C6255.84 1768.3 6289.86 1899.58 6341.6 1917.02C6345.79 1918.45 6353.55 1919.88 6363.6 1921.31C6341.05 1871.41 6324.83 1803.48 6314.62 1751.43L6314.54 1751.29Z" fill="#FFB917"/>
<path opacity="0.6" d="M4900.37 2259.08V1313.13H5540.52L5596.7 1322.43V2170.42C5596.7 2215.46 5576.44 2252.07 5551.52 2252.21L4900.37 2259.22V2259.08ZM4922.92 1353.89V2218.04L5551.44 2211.31C5563.94 2211.31 5574.07 2193.01 5574.07 2170.42V1359.61L5538.94 1353.89H4922.92Z" fill="#E85F1A"/>
<path d="M5433 936.472C5372.63 870.12 5303.32 834.942 5232.51 834.942H4567.52C4555.1 842.235 4502.56 882.275 4335.3 1093.34C4255.08 1194.59 4180.86 1294.26 4154.6 1329.86C4152.22 1338.01 4149.85 1346.74 4147.48 1356.18H5582.85V1099.49C5538.54 1051.87 5488.86 997.818 5433.08 936.472H5433ZM5557.77 1310.99H4210.61C4245.66 1264.37 4296.46 1197.59 4349.55 1130.52C4502.72 937.187 4557.07 890.855 4571.87 880.273H5232.51C5298.65 880.273 5363.45 913.163 5419.94 975.224C5470.03 1030.28 5516.31 1080.76 5557.69 1125.37V1311.13L5557.77 1310.99Z" fill="#414042"/>
<path d="M5775.19 1300.55C5725.98 1251.21 5663.24 1185.86 5582.77 1099.35V1356.03H5775.19V1300.55Z" fill="#414042"/>
<path d="M5146.35 1557.09H5008.68C5008.68 1596.56 5026.33 1628.45 5048.16 1628.45H5106.87C5128.71 1628.45 5146.35 1596.56 5146.35 1557.09Z" fill="#C1440E"/>
<path d="M5008.68 1536.36H5146.35C5146.35 1509.33 5134.17 1487.31 5119.21 1487.31H5035.82C5020.87 1487.31 5008.68 1509.33 5008.68 1536.36Z" fill="#C1440E"/>
<path d="M4587.3 1557.09H4449.63C4449.63 1596.56 4467.27 1628.45 4489.11 1628.45H4547.82C4569.65 1628.45 4587.3 1596.56 4587.3 1557.09Z" fill="#C1440E"/>
<path d="M4449.63 1536.36H4587.3C4587.3 1509.33 4575.11 1487.31 4560.16 1487.31H4476.77C4461.81 1487.31 4449.63 1509.33 4449.63 1536.36Z" fill="#C1440E"/>
<path opacity="0.6" d="M4883.52 2265.23H4707.95C4646.95 2265.23 4593.63 2193.87 4575.35 2087.76C4500.98 1655.48 4159.42 1735.7 4156.02 1736.56L4143.2 1739.7V1356.75H4165.75V1693.66C4231.02 1683.36 4525.5 1660.77 4596.87 2075.61C4612.22 2164.55 4656.84 2224.47 4707.87 2224.47H4860.89V1356.18H4883.44V2265.37L4883.52 2265.23Z" fill="#E85F1A"/>
<path d="M5604.61 2223.47H4534.21C4534.21 2226.76 4534.37 2230.05 4534.37 2233.34C4534.37 2280.96 4530.49 2327 4523.37 2370.33H5615.53C5608.33 2326.86 5604.53 2280.81 5604.53 2233.34C5604.53 2230.05 5604.61 2226.76 5604.69 2223.47H5604.61Z" fill="#58595B"/>
<path d="M6137.95 2223.47C6137.95 2226.76 6138.11 2230.05 6138.11 2233.34C6138.11 2280.96 6134.31 2327 6127.19 2370.33H6482.43V2223.47H6138.03H6137.95Z" fill="#58595B"/>
<path d="M3950.55 1749.14H3949.28C3950.79 1735.98 3952.45 1722.54 3954.11 1708.96C3966.45 1608.86 3981.25 1502.75 3997.7 1413.23H4075.4C4075.4 1413.23 4081.25 1733.41 3950.55 1749.14Z" fill="#FF453E"/>
<path d="M3950.55 1749.14H3949.28C3950.79 1735.98 3952.45 1722.54 3954.11 1708.96C4022.31 1651.04 4038.05 1493.46 4041.53 1413.23H4075.48C4075.48 1413.23 4081.33 1733.41 3950.63 1749.14H3950.55Z" fill="#E4453E"/>
</svg>
