<svg width="331" height="128" viewBox="0 0 331 128" fill="none" xmlns="http://www.w3.org/2000/svg">
<path d="M5.60596 63.6821L7.94496 56.5551C10.513 48.7301 17.266 43.0171 25.408 41.7811L95.7899 31.0971L139.744 6.69215C147.794 2.22215 156.878 -0.0508533 166.084 0.101147L295.021 2.22212C296.065 2.23912 296.768 3.29612 296.38 4.26612L295.273 7.03315L322.773 34.6701C325.547 37.4581 327.105 41.2321 327.105 45.1651V63.6842H5.60596V63.6821Z" fill="#A678B4"/>
<path d="M327.105 45.1631V47.6261C327.105 43.6931 325.548 39.9191 322.773 37.1311L295.273 9.49412L295.976 7.7371L322.773 34.6681C325.547 37.4561 327.105 41.2291 327.105 45.1631ZM7.94496 59.0181C10.513 51.1931 17.266 45.4791 25.408 44.2431L95.7899 33.5591L139.744 9.1541C147.794 4.6841 156.878 2.41109 166.084 2.56309L295.021 4.68412C295.428 4.69112 295.782 4.85708 296.041 5.11308L296.38 4.26408C296.768 3.29508 296.064 2.23707 295.021 2.22007L166.084 0.100079C156.878 -0.0509208 147.794 2.22208 139.744 6.69108L95.7899 31.0961L25.408 41.7801C17.266 43.0161 10.513 48.7301 7.94496 56.5541L5.60596 63.6811H6.41396L7.94496 59.0181Z" fill="#B888BD"/>
<path d="M306.703 98.7751H23.8139C10.7609 98.7751 0.179932 88.1941 0.179932 75.1411V70.3071C0.179932 66.6481 3.14593 63.6821 6.80493 63.6821H326.448C328.595 63.6821 330.336 65.4231 330.336 67.5701V75.1411C330.336 88.1941 319.755 98.7751 306.703 98.7751Z" fill="#A678B4"/>
<path d="M326.448 63.6821H6.80493C3.14593 63.6821 0.179932 66.6481 0.179932 70.3071V75.1411C0.179932 75.1811 0.180931 75.2211 0.180931 75.2601C0.212931 71.6291 3.16493 68.6951 6.80393 68.6951H326.447C328.594 68.6951 330.335 70.4361 330.335 72.5831V67.5701C330.336 65.4231 328.596 63.6821 326.448 63.6821Z" fill="#B888BD"/>
<path d="M106.99 36.9521L278.651 28.0781C283.421 27.8311 285.875 22.2581 282.838 18.5731L277.988 12.6881C274.367 8.29406 268.989 5.72508 263.295 5.66908L171.752 4.76405C156.163 4.61005 140.997 9.83305 128.808 19.5531L106.99 36.9521Z" fill="black"/>
<path d="M136.361 35.4341L125.284 36.0071L154.461 6.83105C158.523 5.80405 162.688 5.15307 166.904 4.89307L136.361 35.4341ZM172.277 4.76904L141.899 35.147L147.941 34.8351L177.951 4.82507L172.277 4.76904Z" fill="#474C55"/>
<path d="M203.668 31.9551L230.28 5.34308L220.616 5.24805C220.289 5.32605 219.961 5.40207 219.635 5.48407L192.591 32.5281L203.668 31.9551Z" fill="#474C55"/>
<path d="M241.154 5.45007L235.481 5.39404L209.206 31.6681L215.248 31.3561L241.154 5.45007Z" fill="#474C55"/>
<path d="M248.205 5.51886L238.244 5.4209L246.468 29.7419L258.13 29.1389L248.205 5.51886Z" fill="#9865AA"/>
<path d="M179.855 33.185L195.163 32.394V4.995L185.072 4.896L179.855 33.185Z" fill="#9865AA"/>
<path d="M191.184 4.76123L183.704 93.4532H104.284L101.718 51.0402C101.425 46.1962 103.057 41.4322 106.259 37.7852L106.99 36.9523" stroke="#82459B" stroke-miterlimit="10"/>
<path d="M183.704 93.4531H232.431C232.383 92.7161 232.356 91.9741 232.356 91.2251C232.356 77.7131 240.207 66.0351 251.596 60.5011L257.016 46.2191C259.313 40.1671 257.324 33.3261 252.14 29.4491L243.069 5.42114" stroke="#82459B" stroke-miterlimit="10"/>
<path d="M131.261 32.9731C131.261 36.4011 127.983 39.1801 123.94 39.1801C119.896 39.1801 116.619 36.4011 116.619 32.9731C116.619 29.5451 119.897 26.7661 123.94 26.7661C127.983 26.7661 131.261 29.5451 131.261 32.9731Z" fill="#B888BD"/>
<path d="M174.313 44.5522C178.708 44.5522 182.271 43.8574 182.271 43.0002C182.271 42.1431 178.708 41.4482 174.313 41.4482C169.918 41.4482 166.355 42.1431 166.355 43.0002C166.355 43.8574 169.918 44.5522 174.313 44.5522Z" fill="#82459B"/>
<path d="M244.872 42.2842C249.267 42.2842 252.83 41.5893 252.83 40.7322C252.83 39.875 249.267 39.1802 244.872 39.1802C240.477 39.1802 236.914 39.875 236.914 40.7322C236.914 41.5893 240.477 42.2842 244.872 42.2842Z" fill="#82459B"/>
<path d="M309.259 39.3731L304.822 49.1071H327.104V45.1631C327.104 41.7551 325.933 38.4691 323.817 35.8381H314.755C312.389 35.8381 310.241 37.2201 309.259 39.3731Z" fill="#D92632"/>
<path d="M28.858 57.2951L33.962 50.3101C34.824 49.1301 33.9 47.4841 32.444 47.6041L11.991 49.2951C10.219 51.3971 8.831 53.8491 7.944 56.5531L6.625 60.5711L24.101 59.8351C25.992 59.7581 27.743 58.8221 28.858 57.2951Z" fill="#FFED46"/>
<path d="M96.3259 91.2252C96.3259 72.3702 81.0409 57.0862 62.1869 57.0862C43.3329 57.0862 28.0479 72.3712 28.0479 91.2252C28.0479 93.8202 28.3389 96.3462 28.8869 98.7752H95.4869C96.0349 96.3462 96.3259 93.8202 96.3259 91.2252Z" fill="#82459B"/>
<path d="M62.1869 57.0861C80.3569 57.0861 95.2089 71.2811 96.2639 89.1861C96.3039 88.5071 96.3259 87.8241 96.3259 87.1351C96.3259 68.2801 81.0409 52.9961 62.1869 52.9961C43.3329 52.9961 28.0479 68.2811 28.0479 87.1351C28.0479 87.8241 28.0699 88.5071 28.1099 89.1861C29.1649 71.2811 44.0169 57.0861 62.1869 57.0861Z" fill="#B888BD"/>
<path d="M266.495 57.0862C247.64 57.0862 232.356 72.3712 232.356 91.2252C232.356 93.8202 232.647 96.3462 233.195 98.7752H299.795C300.343 96.3462 300.634 93.8202 300.634 91.2252C300.635 72.3702 285.35 57.0862 266.495 57.0862Z" fill="#82459B"/>
<path d="M266.495 57.0862C284.773 57.0862 299.695 71.4502 300.591 89.5052C300.616 88.9792 300.634 88.4513 300.634 87.9193C300.634 69.0643 285.349 53.7803 266.495 53.7803C247.64 53.7803 232.356 69.0653 232.356 87.9193C232.356 88.4513 232.374 88.9792 232.399 89.5052C233.295 71.4492 248.218 57.0862 266.495 57.0862Z" fill="#B888BD"/>
<path d="M165.258 127.201C256.428 127.201 330.336 125.27 330.336 122.887C330.336 120.505 256.428 118.573 165.258 118.573C74.0879 118.573 0.179932 120.505 0.179932 122.887C0.179932 125.27 74.0879 127.201 165.258 127.201Z" fill="#D7D8D6"/>
<path d="M62.1869 125.565C79.1486 125.565 92.8989 111.815 92.8989 94.8531C92.8989 77.8914 79.1486 64.1411 62.1869 64.1411C45.2251 64.1411 31.4749 77.8914 31.4749 94.8531C31.4749 111.815 45.2251 125.565 62.1869 125.565Z" fill="#343741"/>
<path d="M62.1869 122.888C77.6702 122.888 90.2219 110.336 90.2219 94.8531C90.2219 79.3698 77.6702 66.8181 62.1869 66.8181C46.7035 66.8181 34.1519 79.3698 34.1519 94.8531C34.1519 110.336 46.7035 122.888 62.1869 122.888Z" fill="black"/>
<path d="M62.187 116.709C74.2578 116.709 84.0431 106.924 84.0431 94.8531C84.0431 82.7824 74.2578 72.9971 62.187 72.9971C50.1163 72.9971 40.3311 82.7824 40.3311 94.8531C40.3311 106.924 50.1163 116.709 62.187 116.709Z" fill="#B2B5B6"/>
<path d="M62.187 114.955C73.289 114.955 82.289 105.955 82.289 94.853C82.289 83.751 73.289 74.751 62.187 74.751C51.0849 74.751 42.085 83.751 42.085 94.853C42.085 105.955 51.0849 114.955 62.187 114.955Z" fill="#D7D8D6"/>
<path d="M68.386 94.8531C68.386 98.2761 65.611 101.052 62.187 101.052C58.764 101.052 55.988 98.2771 55.988 94.8531C55.988 91.4291 58.763 88.6541 62.187 88.6541C65.61 88.6541 68.386 91.4291 68.386 94.8531Z" fill="#B2B5B6"/>
<path d="M65.6509 85.8951C66.5849 86.2561 67.4489 86.7541 68.2149 87.3721L74.3999 83.8011C72.1229 81.2861 69.0909 79.4701 65.6499 78.7341L65.6509 85.8951Z" fill="#343741"/>
<path d="M71.7981 94.8532C71.7981 95.3572 71.7481 95.8472 71.6731 96.3302L77.8781 99.9132C78.3921 98.3182 78.6771 96.6192 78.6771 94.8532C78.6771 93.0872 78.3921 91.3892 77.8781 89.7932L71.6731 93.3762C71.7471 93.8582 71.7981 94.3492 71.7981 94.8532Z" fill="#343741"/>
<path d="M56.1591 87.3721C56.9251 86.7541 57.7901 86.2561 58.7231 85.8951V78.7341C55.2821 79.4701 52.2511 81.2861 49.9731 83.8011L56.1591 87.3721Z" fill="#343741"/>
<path d="M68.2151 102.333C67.4491 102.951 66.5841 103.449 65.6511 103.81V110.972C69.0921 110.236 72.1231 108.42 74.4011 105.904L68.2151 102.333Z" fill="#343741"/>
<path d="M58.7231 103.81C57.7891 103.449 56.9251 102.951 56.1591 102.333L49.9741 105.904C52.2511 108.419 55.2831 110.235 58.7241 110.972L58.7231 103.81Z" fill="#343741"/>
<path d="M52.576 94.8532C52.576 94.3492 52.626 93.8592 52.701 93.3762L46.496 89.7932C45.982 91.3882 45.697 93.0862 45.697 94.8532C45.697 96.6192 45.981 98.3172 46.496 99.9132L52.701 96.3302C52.626 95.8472 52.576 95.3562 52.576 94.8532Z" fill="#343741"/>
<path d="M66.01 94.8533C66.01 96.9643 64.298 98.6763 62.187 98.6763C60.076 98.6763 58.364 96.9643 58.364 94.8533C58.364 92.7423 60.076 91.0303 62.187 91.0303C64.298 91.0293 66.01 92.7413 66.01 94.8533Z" fill="#82459B"/>
<path d="M266.495 125.565C283.457 125.565 297.207 111.815 297.207 94.8531C297.207 77.8914 283.457 64.1411 266.495 64.1411C249.533 64.1411 235.783 77.8914 235.783 94.8531C235.783 111.815 249.533 125.565 266.495 125.565Z" fill="#343741"/>
<path d="M266.495 122.888C281.978 122.888 294.53 110.336 294.53 94.8531C294.53 79.3698 281.978 66.8181 266.495 66.8181C251.012 66.8181 238.46 79.3698 238.46 94.8531C238.46 110.336 251.012 122.888 266.495 122.888Z" fill="black"/>
<path d="M266.495 116.709C278.566 116.709 288.351 106.924 288.351 94.8531C288.351 82.7824 278.566 72.9971 266.495 72.9971C254.424 72.9971 244.639 82.7824 244.639 94.8531C244.639 106.924 254.424 116.709 266.495 116.709Z" fill="#B2B5B6"/>
<path d="M266.495 114.954C277.597 114.954 286.596 105.955 286.596 94.8532C286.596 83.7517 277.597 74.7522 266.495 74.7522C255.394 74.7522 246.394 83.7517 246.394 94.8532C246.394 105.955 255.394 114.954 266.495 114.954Z" fill="#D7D8D6"/>
<path d="M266.495 101.052C269.919 101.052 272.694 98.2767 272.694 94.8531C272.694 91.4295 269.919 88.6541 266.495 88.6541C263.071 88.6541 260.296 91.4295 260.296 94.8531C260.296 98.2767 263.071 101.052 266.495 101.052Z" fill="#B2B5B6"/>
<path d="M269.959 85.8951C270.893 86.2561 271.757 86.7541 272.523 87.3721L278.708 83.8011C276.431 81.2861 273.399 79.4701 269.958 78.7341V85.8951H269.959Z" fill="#343741"/>
<path d="M276.107 94.8532C276.107 95.3572 276.057 95.8472 275.982 96.3302L282.188 99.9132C282.702 98.3182 282.986 96.6192 282.986 94.8532C282.986 93.0872 282.702 91.3892 282.188 89.7932L275.982 93.3762C276.056 93.8582 276.107 94.3492 276.107 94.8532Z" fill="#343741"/>
<path d="M260.467 87.3721C261.233 86.7541 262.098 86.2561 263.031 85.8951V78.7341C259.59 79.4701 256.559 81.2861 254.281 83.8011L260.467 87.3721Z" fill="#343741"/>
<path d="M272.524 102.333C271.758 102.951 270.893 103.449 269.96 103.81V110.972C273.401 110.236 276.432 108.42 278.71 105.904L272.524 102.333Z" fill="#343741"/>
<path d="M263.032 103.81C262.098 103.449 261.234 102.951 260.468 102.333L254.283 105.904C256.56 108.419 259.592 110.235 263.033 110.972L263.032 103.81Z" fill="#343741"/>
<path d="M256.884 94.8532C256.884 94.3492 256.934 93.8592 257.009 93.3762L250.803 89.7932C250.289 91.3882 250.005 93.0862 250.005 94.8532C250.005 96.6192 250.289 98.3172 250.803 99.9132L257.009 96.3302C256.935 95.8472 256.884 95.3562 256.884 94.8532Z" fill="#343741"/>
<path d="M266.495 98.6763C268.606 98.6763 270.318 96.9647 270.318 94.8533C270.318 92.7419 268.606 91.0303 266.495 91.0303C264.383 91.0303 262.672 92.7419 262.672 94.8533C262.672 96.9647 264.383 98.6763 266.495 98.6763Z" fill="#82459B"/>
</svg>
