<svg width="323" height="98" viewBox="0 0 323 98" fill="none" xmlns="http://www.w3.org/2000/svg">
<path d="M0.285942 57.6581C-0.661058 49.1311 4.66594 41.1611 12.9059 38.7751L30.0049 33.8251C55.6449 26.4021 82.1389 22.3361 108.825 21.7291L118.166 26.0781L309.727 17.2201C311.551 17.1791 312.731 19.1341 311.845 20.7281L309.342 25.2341L313.057 36.1061L0.285942 57.6581Z" fill="#C38355"/>
<path d="M313.058 36.1041L312.44 36.1461L309.342 27.0821L309.734 26.3771L313.058 36.1041ZM12.9061 40.6251L30.0051 35.6751C55.6451 28.2521 82.1391 24.1861 108.825 23.5791L118.166 27.9281L309.727 19.0701C310.764 19.0471 311.591 19.6691 311.951 20.5031C312.616 18.9551 311.467 17.1811 309.727 17.2201L118.166 26.0781L108.825 21.7291C82.1391 22.3361 55.6451 26.4021 30.0051 33.8251L12.9061 38.7761C4.99914 41.0651 -0.222856 48.4981 0.205144 56.6281C0.592144 49.2411 5.60314 42.7401 12.9061 40.6251Z" fill="#D7A580"/>
<path d="M0.286133 57.6582L2.00713 69.3232C2.76413 74.4582 7.17113 78.2612 12.3611 78.2612H280.254C290.711 78.2612 300.99 75.5632 310.099 70.4272C320.388 64.6262 324.941 52.2122 320.844 41.1342C319.653 37.9152 316.482 35.8662 313.058 36.1042L0.286133 57.6582Z" fill="#C38355"/>
<path d="M313.058 37.9742C316.482 37.7362 319.653 39.7852 320.844 43.0042C321.737 45.4192 322.219 47.8982 322.32 50.3582C322.433 47.2922 321.964 44.1642 320.844 41.1352C319.653 37.9162 316.482 35.8672 313.058 36.1052L0.286133 57.6582L0.559132 59.5082L313.058 37.9742Z" fill="#D7A580"/>
<path d="M289.95 77.4831C290.708 74.7951 291.114 71.9601 291.114 69.0301C291.114 51.8681 277.201 37.9561 260.04 37.9561C242.879 37.9561 228.965 51.8681 228.965 69.0301C228.965 72.2451 229.453 75.3461 230.36 78.2621H280.254C283.513 78.2621 286.755 77.9991 289.95 77.4831Z" fill="#9E5F2C"/>
<path d="M260.04 34.803C242.878 34.803 228.965 48.715 228.965 65.877C228.965 66.391 228.982 66.902 229.007 67.41C229.849 51.001 243.421 37.955 260.04 37.955C276.659 37.955 290.23 51.001 291.073 67.41C291.098 66.902 291.115 66.392 291.115 65.877C291.114 48.715 277.202 34.803 260.04 34.803Z" fill="#D7A580"/>
<path d="M86.641 69.0291C86.641 51.8671 72.7279 37.9551 55.5659 37.9551C38.4039 37.9551 24.4919 51.8671 24.4919 69.0291C24.4919 72.2441 24.9799 75.3451 25.8869 78.2611H85.2469C86.1529 75.3451 86.641 72.2441 86.641 69.0291Z" fill="#9E5F2C"/>
<path d="M55.5669 37.955C72.1859 37.955 85.7569 51.001 86.5999 67.41C86.6249 66.902 86.6419 66.391 86.6419 65.877C86.6419 48.715 72.7289 34.803 55.5669 34.803C38.4049 34.803 24.4929 48.715 24.4929 65.877C24.4929 66.391 24.5099 66.902 24.5349 67.41C25.3759 51.001 38.9479 37.955 55.5669 37.955Z" fill="#D7A580"/>
<path d="M199.455 33.789H188.196C187.325 33.789 186.62 33.083 186.62 32.213C186.62 31.343 187.326 30.637 188.196 30.637H199.455C200.326 30.637 201.031 31.343 201.031 32.213C201.032 33.083 200.326 33.789 199.455 33.789Z" fill="#6E3400"/>
<path d="M118.166 26.0771C115.524 27.9791 113.991 31.0631 114.071 34.3181L114.958 70.6621L200.418 67.5871L210.715 21.8921" stroke="#9E5F2C" stroke-miterlimit="10"/>
<path d="M309.342 25.2322L298.275 28.4362C295.647 29.1972 294.886 32.5542 296.929 34.3732L299.89 37.0112L313.058 36.1042L309.342 25.2322Z" fill="#D92632"/>
<path d="M26.714 39.6711C27.348 41.3261 22.778 44.6141 16.508 47.0161C10.238 49.4181 4.64099 50.0231 4.00699 48.3681C3.37299 46.7131 7.94299 43.4251 14.213 41.0231C20.483 38.6211 26.08 38.0161 26.714 39.6711Z" fill="#FFED46"/>
<path d="M208.666 21.8922L209.906 14.3461C210.214 12.4701 211.027 10.7132 212.258 9.26316C213.064 8.31316 214.509 8.25416 215.39 9.13516C216.89 10.6352 217.733 12.6702 217.733 14.7922V17.2582L212.525 21.7132L208.666 21.8922Z" fill="#582700"/>
<path d="M212.525 21.713L222.856 12.875C224.281 11.656 226.206 11.199 228.027 11.646L260.04 19.516L212.525 21.713Z" fill="#6E3400"/>
<path d="M108.825 21.7281L152.828 0.97408C155.586 -0.23092 158.793 0.26708 161.056 2.25208L162.051 3.12508C162.851 3.82608 162.652 5.12008 161.679 5.55008L118.166 26.0771L108.825 21.7281Z" fill="#C38355"/>
<path d="M152.827 2.97508C155.585 1.77008 158.792 2.26808 161.055 4.25308L162.05 5.12608C162.085 5.15708 162.116 5.19008 162.147 5.22208C162.691 4.65008 162.698 3.69308 162.05 3.12508L161.055 2.25208C158.792 0.26708 155.586 -0.23092 152.827 0.97408L108.824 21.7281L110.959 22.7221L152.827 2.97508Z" fill="#D7A580"/>
<path d="M161.258 97.2901C250.221 97.2901 322.34 95.3587 322.34 92.9761C322.34 90.5935 250.221 88.6621 161.258 88.6621C72.2949 88.6621 0.176025 90.5935 0.176025 92.9761C0.176025 95.3587 72.2949 97.2901 161.258 97.2901Z" fill="#D7D8D6"/>
<path d="M260.126 95.2621C274.614 95.2621 286.359 83.5172 286.359 69.0291C286.359 54.5411 274.614 42.7961 260.126 42.7961C245.638 42.7961 233.893 54.5411 233.893 69.0291C233.893 83.5172 245.638 95.2621 260.126 95.2621Z" fill="#343741"/>
<path d="M260.126 92.976C273.352 92.976 284.073 82.2546 284.073 69.029C284.073 55.8035 273.352 45.082 260.126 45.082C246.9 45.082 236.179 55.8035 236.179 69.029C236.179 82.2546 246.9 92.976 260.126 92.976Z" fill="black"/>
<path d="M260.126 87.6981C270.437 87.6981 278.795 79.3397 278.795 69.0291C278.795 58.7185 270.437 50.3601 260.126 50.3601C249.815 50.3601 241.457 58.7185 241.457 69.0291C241.457 79.3397 249.815 87.6981 260.126 87.6981Z" fill="#B2B5B6"/>
<path d="M260.126 86.1991C269.609 86.1991 277.296 78.5119 277.296 69.0291C277.296 59.5464 269.609 51.8591 260.126 51.8591C250.643 51.8591 242.956 59.5464 242.956 69.0291C242.956 78.5119 250.643 86.1991 260.126 86.1991Z" fill="#D7D8D6"/>
<path d="M265.421 69.0291C265.421 71.9531 263.05 74.3241 260.126 74.3241C257.202 74.3241 254.831 71.9531 254.831 69.0291C254.831 66.1051 257.202 63.7341 260.126 63.7341C263.05 63.7351 265.421 66.1051 265.421 69.0291Z" fill="#B2B5B6"/>
<path d="M263.085 61.3782C263.882 61.6872 264.621 62.1122 265.275 62.6402L270.558 59.5902C268.613 57.4422 266.023 55.8902 263.084 55.2622L263.085 61.3782Z" fill="#343741"/>
<path d="M268.335 69.0293C268.335 69.4593 268.292 69.8783 268.228 70.2913L273.529 73.3513C273.968 71.9883 274.211 70.5383 274.211 69.0293C274.211 67.5203 273.968 66.0703 273.529 64.7073L268.228 67.7673C268.292 68.1803 268.335 68.5993 268.335 69.0293Z" fill="#343741"/>
<path d="M254.977 62.6402C255.631 62.1122 256.37 61.6872 257.167 61.3782V55.2612C254.228 55.8902 251.638 57.4412 249.693 59.5892L254.977 62.6402Z" fill="#343741"/>
<path d="M265.275 75.4192C264.621 75.9472 263.882 76.3722 263.085 76.6812V82.7982C266.024 82.1692 268.613 80.6182 270.559 78.4692L265.275 75.4192Z" fill="#343741"/>
<path d="M257.167 76.6802C256.37 76.3712 255.631 75.9462 254.977 75.4182L249.694 78.4682C251.639 80.6172 254.229 82.1682 257.168 82.7972V76.6802H257.167Z" fill="#343741"/>
<path d="M251.916 69.0293C251.916 68.5993 251.959 68.1803 252.023 67.7673L246.722 64.7073C246.283 66.0703 246.04 67.5203 246.04 69.0293C246.04 70.5383 246.283 71.9883 246.722 73.3513L252.023 70.2913C251.959 69.8793 251.916 69.4603 251.916 69.0293Z" fill="#343741"/>
<path d="M263.391 69.0292C263.391 70.8322 261.929 72.2952 260.125 72.2952C258.322 72.2952 256.859 70.8332 256.859 69.0292C256.859 67.2252 258.321 65.7632 260.125 65.7632C261.929 65.7642 263.391 67.2262 263.391 69.0292Z" fill="#582700"/>
<path d="M55.567 95.2621C70.0551 95.2621 81.8 83.5172 81.8 69.0291C81.8 54.5411 70.0551 42.7961 55.567 42.7961C41.0789 42.7961 29.334 54.5411 29.334 69.0291C29.334 83.5172 41.0789 95.2621 55.567 95.2621Z" fill="#343741"/>
<path d="M55.5669 92.976C68.7924 92.976 79.5139 82.2546 79.5139 69.029C79.5139 55.8035 68.7924 45.082 55.5669 45.082C42.3413 45.082 31.6199 55.8035 31.6199 69.029C31.6199 82.2546 42.3413 92.976 55.5669 92.976Z" fill="black"/>
<path d="M55.5669 87.6981C65.8776 87.6981 74.2359 79.3397 74.2359 69.0291C74.2359 58.7185 65.8776 50.3601 55.5669 50.3601C45.2563 50.3601 36.8979 58.7185 36.8979 69.0291C36.8979 79.3397 45.2563 87.6981 55.5669 87.6981Z" fill="#B2B5B6"/>
<path d="M55.567 86.1991C65.0497 86.1991 72.737 78.5119 72.737 69.0291C72.737 59.5464 65.0497 51.8591 55.567 51.8591C46.0842 51.8591 38.397 59.5464 38.397 69.0291C38.397 78.5119 46.0842 86.1991 55.567 86.1991Z" fill="#D7D8D6"/>
<path d="M55.567 74.3241C58.4913 74.3241 60.862 71.9535 60.862 69.0291C60.862 66.1048 58.4913 63.7341 55.567 63.7341C52.6426 63.7341 50.272 66.1048 50.272 69.0291C50.272 71.9535 52.6426 74.3241 55.567 74.3241Z" fill="#B2B5B6"/>
<path d="M58.5249 61.3782C59.3229 61.6872 60.0609 62.1122 60.7149 62.6402L65.9989 59.5902C64.0539 57.4422 61.4639 55.8902 58.5249 55.2622V61.3782Z" fill="#343741"/>
<path d="M63.7759 69.0293C63.7759 69.4593 63.7329 69.8783 63.6689 70.2913L68.9699 73.3513C69.4089 71.9883 69.6519 70.5383 69.6519 69.0293C69.6519 67.5203 69.4089 66.0703 68.9699 64.7073L63.6689 67.7673C63.7329 68.1803 63.7759 68.5993 63.7759 69.0293Z" fill="#343741"/>
<path d="M50.418 62.6402C51.072 62.1122 51.811 61.6872 52.608 61.3782V55.2612C49.669 55.8902 47.079 57.4412 45.134 59.5892L50.418 62.6402Z" fill="#343741"/>
<path d="M60.7159 75.4192C60.0619 75.9472 59.3229 76.3722 58.5259 76.6812V82.7982C61.4649 82.1692 64.0539 80.6182 65.9999 78.4692L60.7159 75.4192Z" fill="#343741"/>
<path d="M52.608 76.6802C51.81 76.3712 51.072 75.9462 50.418 75.4182L45.135 78.4682C47.08 80.6172 49.67 82.1682 52.609 82.7972L52.608 76.6802Z" fill="#343741"/>
<path d="M47.357 69.0293C47.357 68.5993 47.4 68.1803 47.464 67.7673L42.163 64.7073C41.724 66.0703 41.481 67.5203 41.481 69.0293C41.481 70.5383 41.724 71.9883 42.163 73.3513L47.464 70.2913C47.4 69.8793 47.357 69.4603 47.357 69.0293Z" fill="#343741"/>
<path d="M55.567 72.2952C57.3708 72.2952 58.833 70.833 58.833 69.0292C58.833 67.2254 57.3708 65.7632 55.567 65.7632C53.7633 65.7632 52.301 67.2254 52.301 69.0292C52.301 70.833 53.7633 72.2952 55.567 72.2952Z" fill="#582700"/>
<path d="M131.227 26.667H121.13V24.341C121.13 20.154 124.525 16.759 128.712 16.759H131.228C133.031 16.759 134.493 18.221 134.493 20.024V23.402C134.492 25.206 133.031 26.667 131.227 26.667Z" fill="#D7A580"/>
</svg>
