<svg width="485" height="506" viewBox="0 0 485 506" fill="none" xmlns="http://www.w3.org/2000/svg">
<g clip-path="url(#clip0_103_600)">
<path d="M250.047 32.0968C125.889 28.4117 18.3415 118.976 2.09296 237.811C-15.6724 367.738 82.1067 484.643 202.419 503.367C352.067 526.656 497.216 391.924 484.183 245.76C474.364 135.637 376.254 35.8441 250.047 32.0968Z" fill="#F4F7FA"/>
<g opacity="0.4">
<path d="M236.915 54.1208L239.394 66.4081C234.079 68.5702 229.011 71.153 224.251 74.1529L216.017 64.7874C213.771 62.2331 209.882 62.02 207.333 64.3135L191.367 78.6688C188.812 80.9676 188.556 84.9083 190.8 87.4733L199.106 96.9684C195.597 101.468 192.467 106.266 189.763 111.311L177.806 107.321C174.581 106.245 171.076 108.036 169.978 111.322L163.088 131.91C161.984 135.208 163.708 138.762 166.939 139.844L178.938 143.869C178.09 149.492 177.735 155.243 177.864 161.06L165.361 163.72C162.004 164.433 159.818 167.781 160.476 171.2L164.612 192.622C165.274 196.055 168.541 198.258 171.908 197.542L184.448 194.874C186.518 200.321 189.011 205.514 191.918 210.4L182.322 219.099C179.736 221.446 179.474 225.479 181.742 228.112L195.947 244.599C198.223 247.24 202.17 247.473 204.76 245.115L214.353 236.391C218.805 240.017 223.564 243.237 228.57 246.024L224.505 258.47C223.405 261.839 225.169 265.476 228.446 266.591L248.969 273.572C252.255 274.69 255.806 272.857 256.899 269.479L260.899 257.129C266.519 257.987 272.267 258.319 278.08 258.15L280.649 270.885C281.352 274.371 284.675 276.613 288.072 275.89L309.307 271.375C312.703 270.652 314.876 267.24 314.163 263.758L311.578 251.131C317.013 248.939 322.187 246.299 327.043 243.234L335.396 252.784C337.717 255.436 341.688 255.668 344.264 253.304L360.366 238.533C362.937 236.174 363.138 232.12 360.816 229.477L352.489 220.006C356.059 215.372 359.217 210.423 361.932 205.229L373.719 209.18C377.012 210.284 380.542 208.463 381.599 205.112L388.203 184.199C389.257 180.86 387.446 177.267 384.16 176.17L372.486 172.276C373.277 166.519 373.547 160.64 373.318 154.704L385.311 152.153C388.678 151.438 390.815 148.083 390.086 144.666L385.53 123.334C384.802 119.929 381.492 117.751 378.137 118.465L366.179 121.009C363.993 115.529 361.381 110.315 358.348 105.432L367.383 97.2134C369.924 94.9022 370.12 90.9419 367.823 88.3662L353.481 72.2944C351.193 69.7293 347.28 69.5163 344.743 71.8169L335.649 80.0622C331.139 76.5067 326.335 73.3541 321.288 70.6506L325.09 58.9101C326.147 55.6439 324.378 52.1327 321.138 51.0659L300.9 44.411C297.667 43.3477 294.185 45.1281 293.121 48.3872L289.276 60.1544C283.714 59.368 278.034 59.0876 272.292 59.3059L269.797 47.1233C269.11 43.7719 265.855 41.6294 262.527 42.3359L241.712 46.763C238.384 47.4713 236.233 50.7623 236.911 54.1173L236.915 54.1208ZM201.469 173.552C193.272 132.092 219.598 91.6608 260.226 83.0196C300.853 74.3784 340.755 100.725 349.397 142.09C358.092 183.706 331.881 224.709 290.807 233.444C249.734 242.179 209.715 215.263 201.469 173.552Z" fill="url(#paint0_linear_103_600)"/>
</g>
<path d="M67.4513 199.263L69.0069 206.978C65.6714 208.336 62.4895 209.956 59.5001 211.84L54.3317 205.96C52.9208 204.356 50.4805 204.223 48.8808 205.662L38.8583 214.674C37.2532 216.118 37.0943 218.592 38.5016 220.202L43.7159 226.163C41.5122 228.989 39.5487 231.999 37.8518 235.168L30.3456 232.663C28.322 231.989 26.1219 233.112 25.4314 235.175L21.1071 248.098C20.4149 250.168 21.4956 252.399 23.5244 253.079L31.0572 255.605C30.5257 259.136 30.3032 262.744 30.3826 266.398L22.5338 268.066C20.4273 268.513 19.0535 270.617 19.4685 272.761L22.0641 286.21C22.4809 288.364 24.5309 289.747 26.6445 289.298L34.5163 287.624C35.8159 291.043 37.3804 294.304 39.2061 297.37L33.1831 302.832C31.5586 304.305 31.3962 306.836 32.8194 308.489L41.7365 318.838C43.165 320.496 45.6424 320.641 47.2686 319.163L53.2916 313.685C56.0868 315.96 59.0745 317.982 62.2158 319.732L59.6643 327.545C58.9739 329.661 60.081 331.943 62.1381 332.643L75.0211 337.026C77.0835 337.727 79.3137 336.576 79.9988 334.455L82.5097 326.703C86.0377 327.241 89.6469 327.451 93.295 327.344L94.9071 335.337C95.3485 337.526 97.4357 338.934 99.5669 338.479L112.898 335.645C115.03 335.192 116.395 333.049 115.946 330.862L114.323 322.937C117.735 321.561 120.982 319.903 124.032 317.979L129.276 323.975C130.733 325.64 133.224 325.786 134.843 324.302L144.951 315.028C146.564 313.548 146.692 311.002 145.233 309.345L140.006 303.4C142.247 300.49 144.228 297.384 145.934 294.123L153.333 296.605C155.4 297.299 157.616 296.154 158.28 294.05L162.426 280.923C163.088 278.827 161.951 276.572 159.887 275.884L152.559 273.439C153.057 269.825 153.225 266.135 153.082 262.409L160.611 260.808C162.725 260.359 164.067 258.253 163.608 256.107L160.747 242.716C160.291 240.579 158.213 239.212 156.105 239.659L148.599 241.255C147.227 237.815 145.586 234.541 143.683 231.476L149.354 226.317C150.949 224.867 151.072 222.38 149.63 220.763L140.628 210.675C139.191 209.065 136.736 208.93 135.142 210.375L129.433 215.551C126.603 213.32 123.587 211.341 120.419 209.642L122.806 202.272C123.47 200.221 122.359 198.017 120.325 197.348L107.621 193.169C105.592 192.502 103.406 193.618 102.736 195.665L100.324 203.053C96.8335 202.559 93.2667 202.384 89.6628 202.52L88.0966 194.873C87.6657 192.77 85.6227 191.424 83.5338 191.868L70.4672 194.648C68.3783 195.091 67.0275 197.159 67.453 199.265L67.4513 199.263ZM44.3039 274.421C39.0596 247.894 55.905 222.022 81.9005 216.494C107.896 210.964 133.427 227.823 138.956 254.29C144.518 280.918 127.749 307.154 101.467 312.742C75.1853 318.332 49.58 301.11 44.3039 274.421Z" fill="#D8DEE8"/>
<g style="mix-blend-mode:soft-light" opacity="0.7">
<path d="M241.36 368.311C237.645 368.905 229.043 366.906 227.014 365.456C213.511 355.803 187.065 339.382 183.113 322.227C182.439 319.298 194.457 312.833 195.477 309.659C202.145 303.668 204.827 302.007 208.383 293.181C218.881 267.126 169.215 238.742 209.402 211.698C238.837 191.888 269.516 195.01 251.201 145.437C232.887 95.8634 245.787 -8.1722 309.286 11.3895C345.728 22.6171 327.367 74.8195 352.363 101.915C376.116 127.663 370.673 156.26 344.1 183.8C317.528 211.341 338.633 220.215 356.294 246.137C377.51 277.274 326.608 298.977 302.258 306.981C282.649 313.426 237.045 343.136 241.36 368.312V368.311Z" fill="url(#paint1_linear_103_600)"/>
<mask id="mask0_103_600" style="mask-type:luminance" maskUnits="userSpaceOnUse" x="183" y="8" width="185" height="361">
<path d="M241.36 368.311C237.645 368.905 229.043 366.906 227.014 365.456C213.511 355.803 187.065 339.382 183.113 322.227C182.439 319.298 194.457 312.833 195.477 309.659C202.145 303.668 204.827 302.007 208.383 293.181C218.881 267.126 169.215 238.742 209.402 211.698C238.837 191.888 269.516 195.01 251.201 145.437C232.887 95.8634 245.787 -8.1722 309.286 11.3895C345.728 22.6171 327.367 74.8195 352.363 101.915C376.116 127.663 370.673 156.26 344.1 183.8C317.528 211.341 338.633 220.215 356.294 246.137C377.51 277.274 326.608 298.977 302.258 306.981C282.649 313.426 237.045 343.136 241.36 368.312V368.311Z" fill="white"/>
</mask>
<g mask="url(#mask0_103_600)">
<path d="M205.937 345.163L205.398 344.568C296.392 261.063 328.241 132.336 290.595 0.221889L291.365 0C309.206 62.6134 311.45 126.918 297.855 185.966C283.563 248.043 251.78 303.093 205.939 345.161L205.937 345.163Z" fill="#FCFDFE"/>
<path d="M366.59 258.062C332.906 257.026 281.452 271.959 251.889 291.354L251.453 290.682C281.132 271.21 332.793 256.218 366.614 257.258L366.59 258.062Z" fill="#FCFDFE"/>
<path d="M223.613 328.564L222.932 328.144C232.523 312.418 233.84 292.423 226.843 268.711C221.711 251.324 212.314 232.384 198.91 212.41L199.574 211.961C213.024 232.002 222.457 251.017 227.611 268.482C234.676 292.421 233.33 312.636 223.615 328.564H223.613Z" fill="#FCFDFE"/>
<path d="M299.46 177.511C299.46 177.511 299.406 175.948 299.738 175.366C316.578 145.914 348.308 129.891 372.197 121.604L372.459 122.365C348.233 130.772 315.903 147.162 299.462 177.512L299.46 177.511Z" fill="#FCFDFE"/>
<path d="M306.129 98.4657C297.84 60.1375 266.41 33.273 248.57 20.7639L249.028 20.1035C266.671 32.476 297.281 58.6695 306.221 96.2575C306.369 96.8805 306.129 98.4657 306.129 98.4657Z" fill="#FCFDFE"/>
</g>
</g>
<g style="mix-blend-mode:soft-light">
<path d="M234 390.852C230.152 389.984 222.545 384.687 221.129 382.482C211.702 367.822 192.276 341.527 195.04 323.283C195.511 320.167 209.708 318.554 211.924 315.861C220.726 312.625 223.979 312.05 230.844 304.841C251.11 283.557 213.686 236.569 263.246 225.886C299.548 218.061 328.221 233.052 329.494 177.642C330.767 122.23 383.434 25.9431 437.73 69.7297C468.89 94.8581 430.887 138.544 444.786 174.667C457.992 208.994 441.667 234.722 405.174 251.192C368.683 267.66 385.815 284.525 393.021 316.649C401.678 355.236 343.744 356.541 316.946 354.849C295.367 353.488 239.502 364.655 234 390.852Z" fill="#D8DEE8"/>
<mask id="mask1_103_600" style="mask-type:luminance" maskUnits="userSpaceOnUse" x="194" y="58" width="257" height="333">
<path d="M234 390.852C230.152 389.984 222.545 384.687 221.129 382.482C211.702 367.822 192.276 341.527 195.04 323.283C195.511 320.167 209.708 318.554 211.924 315.861C220.726 312.625 223.979 312.05 230.844 304.841C251.11 283.557 213.686 236.569 263.246 225.886C299.548 218.061 328.221 233.052 329.494 177.642C330.767 122.23 383.434 25.9431 437.73 69.7297C468.89 94.8581 430.887 138.544 444.786 174.667C457.992 208.994 441.667 234.722 405.174 251.192C368.683 267.66 385.815 284.525 393.021 316.649C401.678 355.236 343.744 356.541 316.946 354.849C295.367 353.488 239.502 364.655 234 390.852Z" fill="white"/>
</mask>
<g mask="url(#mask1_103_600)">
<path d="M208.426 354.511L208.129 353.723C328.928 307.848 409.565 194.896 423.831 51.5742L424.666 51.6576C417.905 119.582 395.303 183.08 359.303 235.287C321.456 290.174 269.284 331.401 208.426 354.511Z" fill="#FCFDFE"/>
<path d="M398.45 332.272C366.048 318.14 310.183 312.641 273.918 320.011C273.918 320.011 275.009 318.936 275.647 318.815C312.081 311.979 366.808 317.555 398.784 331.498L398.45 332.272Z" fill="#FCFDFE"/>
<path d="M231.535 344.557C246.938 332.98 255.927 314.02 258.253 288.203C259.958 269.273 258.108 247.166 252.752 222.494L253.572 222.314C258.945 247.07 260.801 269.263 259.086 288.279C256.939 312.121 249.139 330.188 235.884 342.07C234.648 343.178 231.531 344.557 231.531 344.557H231.535Z" fill="#FCFDFE"/>
<path d="M364.125 227.676C364.125 227.676 364.86 225.981 365.502 225.474C393.225 203.554 430.14 200.338 456.508 201.568L456.469 202.411C429.637 201.16 391.835 204.529 364.125 227.678V227.676Z" fill="#FCFDFE"/>
<path d="M401.095 153.145C407.798 112.591 387.539 74.3394 374.988 55.2073L375.688 54.7422C388.073 73.6205 407.724 110.928 402.068 150.914C401.96 151.668 401.095 153.145 401.095 153.145Z" fill="#FCFDFE"/>
</g>
</g>
<path d="M151.274 97.7308C151.341 128.019 135.325 152.736 106.805 153.549C106.363 153.562 99.0847 153.549 98.6415 153.549C69.5064 153.62 45.8329 128.746 45.7658 97.9882C45.6987 67.2309 69.2628 42.2409 98.3978 42.1699C99.0794 42.1699 105.475 42.2321 106.15 42.2569C134.343 43.3166 151.208 67.6924 151.274 97.7308Z" fill="url(#paint2_linear_103_600)"/>
<path d="M108.383 154.049C137.518 154.049 161.137 129.115 161.137 98.3584C161.137 67.6014 137.518 42.668 108.383 42.668C79.2476 42.668 55.6289 67.6014 55.6289 98.3584C55.6289 129.115 79.2476 154.049 108.383 154.049Z" fill="url(#paint3_linear_103_600)"/>
<path style="mix-blend-mode:multiply" opacity="0.3" d="M108.381 152.645C136.782 152.645 159.806 128.34 159.806 98.3586C159.806 68.3771 136.782 44.0723 108.381 44.0723C79.9805 44.0723 56.957 68.3771 56.957 98.3586C56.957 128.34 79.9805 152.645 108.381 152.645Z" fill="url(#paint4_linear_103_600)"/>
<path d="M108.38 151.007C135.924 151.007 158.252 127.436 158.252 98.3589C158.252 69.2822 135.924 45.7109 108.38 45.7109C80.8363 45.7109 58.5078 69.2822 58.5078 98.3589C58.5078 127.436 80.8363 151.007 108.38 151.007Z" fill="url(#paint5_linear_103_600)"/>
<path d="M107.313 149.881C134.268 149.881 156.119 126.814 156.119 98.3585C156.119 69.9034 134.268 46.8359 107.313 46.8359C80.3589 46.8359 58.5078 69.9034 58.5078 98.3585C58.5078 126.814 80.3589 149.881 107.313 149.881Z" fill="url(#paint6_linear_103_600)"/>
<path d="M112.469 96.8823L149.647 111.376C150.856 107.281 151.51 102.927 151.51 98.4124C151.51 75.162 134.218 56.1755 112.469 55.0039V96.884V96.8823Z" fill="url(#paint7_linear_103_600)"/>
<g style="mix-blend-mode:multiply" opacity="0.2">
<path d="M95.0599 97.1896C91.1999 84.6236 105.155 75.5546 102.955 60.9064C101.983 54.4432 98.2065 49.148 93.559 44.8984C71.5929 51.6723 55.5704 73.1173 55.6251 98.4872C55.6922 129.244 79.3658 154.119 108.501 154.048C115.645 154.03 122.452 152.513 128.659 149.781C127.76 132.007 122.336 121.965 116.569 115.917C107.68 106.594 98.0017 106.773 95.0581 97.1914L95.0599 97.1896Z" fill="#D8DEE8"/>
</g>
<path d="M107.181 102.441C108.894 102.441 110.283 100.974 110.283 99.1657C110.283 97.3569 108.894 95.8906 107.181 95.8906C105.467 95.8906 104.078 97.3569 104.078 99.1657C104.078 100.974 105.467 102.441 107.181 102.441Z" fill="url(#paint8_linear_103_600)"/>
<path d="M107.181 73.0605C106.098 73.0605 105.219 73.9872 105.219 75.1303V97.2127C105.219 98.3558 106.096 99.2824 107.181 99.2824C108.265 99.2824 109.142 98.3558 109.142 97.2127V75.1303C109.142 73.9872 108.265 73.0605 107.181 73.0605Z" fill="url(#paint9_linear_103_600)"/>
<path d="M106.962 99.6524C106.54 99.1553 105.815 99.1127 105.343 99.5583L78.9363 125.067C78.4648 125.512 78.4242 126.277 78.848 126.776C79.27 127.273 79.9957 127.316 80.4672 126.87L106.874 101.362C107.346 100.916 107.386 100.151 106.962 99.6524Z" fill="url(#paint10_linear_103_600)"/>
<path d="M352.754 464.718C352.754 464.718 354.008 469.827 354.047 471.676C354.087 473.528 333.827 476.107 333.513 474.744C333.197 473.38 336.589 470.899 339.038 469.922C341.487 468.946 348.668 466.287 348.668 466.287L352.754 464.718Z" fill="url(#paint11_linear_103_600)"/>
<path d="M347.406 459.956L348.568 466.339C348.568 466.339 351.056 467.718 353.039 466.339L353.523 459.249L347.406 459.954V459.956Z" fill="url(#paint12_linear_103_600)"/>
<path d="M389.702 470.186C389.702 470.186 390.955 475.294 390.996 477.144C391.037 478.995 370.776 481.575 370.462 480.211C370.146 478.848 373.538 476.366 375.987 475.39C378.436 474.414 385.618 471.755 385.618 471.755L389.703 470.186H389.702Z" fill="url(#paint13_linear_103_600)"/>
<path d="M384.357 465.422L385.519 471.806C385.519 471.806 388.005 473.185 389.99 471.806L390.472 464.716L384.355 465.421L384.357 465.422Z" fill="url(#paint14_linear_103_600)"/>
<path d="M337.703 291.64C335.735 296.619 333.766 301.6 331.797 306.579C332.086 334.069 333.515 363.871 336.653 395.613C338.987 419.229 342.031 441.534 345.513 462.42C348.688 462.017 351.863 461.612 355.038 461.209C358.914 451.643 363.243 437.275 362.373 420.041C361.465 402.062 355.866 400.117 354.84 382.916C353.51 360.622 362.322 353.936 365.134 326.764C366.21 316.373 366.418 302.898 363.611 286.794C354.974 288.409 346.338 290.025 337.702 291.638L337.703 291.64Z" fill="url(#paint15_linear_103_600)"/>
<path style="mix-blend-mode:multiply" opacity="0.3" d="M363.614 286.794C358.951 287.665 354.286 288.537 349.623 289.41C342.337 304.903 341.202 320.51 343.231 327.209C346.102 336.688 351.907 339.33 352.375 349.041C352.836 358.65 347.417 361.588 344.754 373.172C342.911 381.192 344.135 388.332 346.66 402.282C351.743 430.384 359.239 438.498 354.279 448.245C352.87 451.014 350.202 454.392 344.677 457.252C344.956 458.977 345.231 460.71 345.517 462.416C348.692 462.013 351.867 461.608 355.042 461.205C358.918 451.639 363.247 437.271 362.377 420.037C361.469 402.058 355.87 400.113 354.844 382.912C353.514 360.619 362.325 353.934 365.138 326.76C366.214 316.369 366.422 302.894 363.614 286.79V286.794Z" fill="url(#paint16_linear_103_600)"/>
<path d="M351.039 299.244C357.378 323.075 363.339 348.647 368.568 375.854C374.88 408.704 379.332 439.797 382.415 468.747C385.92 468.566 389.427 468.384 392.932 468.201C404.529 439.678 403.89 421.027 400.94 409.088C399.802 404.487 396.993 395.512 395.429 381.886C394.339 372.387 394.366 365.092 394.426 356.317C394.558 337.079 396.234 332.747 395.358 318.11C394.537 304.374 394.039 297.43 389.822 293.693C378.712 283.849 352.988 298.136 351.039 299.244Z" fill="url(#paint17_linear_103_600)"/>
<path d="M249.252 243.88C249.252 243.88 241.55 243.216 240.436 241.961C239.321 240.706 238.601 240.641 238.433 239.49C238.266 238.34 235.024 238.894 236.373 241.39C237.722 243.886 234.677 242.577 234.081 242.517C232.707 242.379 227.468 242.224 227.62 242.551C227.772 242.877 225.271 246.158 228.992 247.853C232.25 249.337 231.294 248.682 233.413 248.785C235.53 248.886 242.088 246.736 242.088 246.736L247.704 247.166L249.254 243.884L249.252 243.88Z" fill="url(#paint18_linear_103_600)"/>
<path d="M244.736 240.263C244.397 242.844 244.058 245.425 243.719 248.006C248.82 252.284 260.098 260.483 275.789 261.713C303.449 263.883 330.88 243.302 335.989 220.155C338.517 208.691 336.451 192.607 329.365 190.02C327.398 189.301 324.442 189.404 318.35 193.519C302.09 204.5 300.707 218.921 291.725 228.675C285.26 235.696 272.548 242.807 244.738 240.263H244.736Z" fill="white"/>
<path d="M329.513 311.699C325.717 306.379 329.496 300.649 329.61 289.98C329.739 277.888 324.981 276.261 318.846 256.734C314.767 243.748 310.849 231.281 313.13 216.134C314.223 208.876 316.078 196.564 325.561 189.925C330.456 186.499 337.489 186.236 351.359 185.849C368.51 185.371 377.085 185.132 383.72 187.99C384.692 188.409 404.911 197.442 407.62 214.602C410.378 232.067 391.527 235.964 390.856 259.606C390.554 270.22 393.877 286.238 396.031 296.628C398.101 306.604 399.176 309.114 397.44 312.325C393.259 320.063 378.494 319.144 348.963 317.305C337.38 316.582 332.346 315.67 329.513 311.699Z" fill="white"/>
<path d="M369.898 257.499C371.496 261.967 376.209 265.022 380.186 275.884C381.044 278.229 387.159 294.931 381.328 299.633C377.961 302.349 374.397 298.005 365.706 298.099C350.648 298.264 344.521 311.492 334.463 308.824C332.718 308.361 330.375 307.264 327.903 304.506C327.668 307.188 327.928 309.481 329.508 311.696C332.342 315.667 337.375 316.58 348.958 317.302C378.489 319.141 393.254 320.063 397.435 312.323C399.171 309.112 398.094 306.602 396.026 296.626C393.872 286.236 390.551 270.218 390.851 259.604C391.522 235.961 410.373 232.065 407.615 214.6C406.877 209.931 404.825 205.886 402.236 202.43C378.867 214.2 364.871 243.456 369.896 257.499H369.898Z" fill="#F4F7FA"/>
<path d="M417.386 311.503C417.386 311.503 422.088 313.09 422.586 320.92C421.82 320.85 420.028 320.891 420.028 320.891C420.028 320.891 420.36 315.199 417.012 314.045C417.282 313.384 417.384 311.501 417.384 311.501L417.386 311.503Z" fill="url(#paint19_linear_103_600)"/>
<path d="M399.941 310.756C400.061 312.197 400.18 313.64 400.3 315.081C402.666 314.467 405.248 313.755 408.016 313.658C411.604 313.532 414.882 313.976 417.79 314.705C417.919 314.526 418.192 314.098 418.319 313.393C418.523 312.259 418.182 311.309 418.12 311.141C416.64 310.592 415.032 310.127 413.305 309.799C408.339 308.854 403.831 309.637 399.941 310.756Z" fill="url(#paint20_linear_103_600)"/>
<path d="M399.718 312C399.725 311.48 399.764 310.829 399.94 310.756C400.106 310.687 400.33 311.161 400.426 311.425C400.466 311.535 400.555 311.8 400.609 312.641C400.68 313.726 400.597 314.255 400.521 314.583C400.475 314.78 400.404 315.078 400.299 315.084C400.214 315.089 400.14 314.899 400.028 314.532C399.88 314.038 399.7 313.214 399.716 312.002L399.718 312Z" fill="url(#paint21_linear_103_600)"/>
<path d="M395.34 321.057C396.337 321.254 398.758 321.838 398.758 321.838C398.758 321.838 397.18 316.754 400.153 314.457C400.231 314.075 400.309 313.47 400.215 312.738C400.143 312.174 399.991 311.719 399.86 311.405C398.598 312.099 395.847 314.462 395.34 321.055V321.057Z" fill="url(#paint22_linear_103_600)"/>
<path d="M374.484 322.184C374.484 322.184 374.61 319.495 378.848 319.543C379.513 320.04 379.547 322.235 379.547 322.235L374.484 322.184Z" fill="url(#paint23_linear_103_600)"/>
<path d="M370.702 375.14L382.307 382.022L389.275 356.031L377.769 321.246L374.483 322.183L369.477 372.403C369.364 373.543 369.853 374.636 370.704 375.14H370.702Z" fill="url(#paint24_linear_103_600)"/>
<path style="mix-blend-mode:multiply" opacity="0.3" d="M389.276 356.031L377.77 321.246L374.484 322.183C375.295 325.272 375.683 330.29 375.865 333.084C376.642 344.963 379.218 348.261 377.97 356.544C376.932 363.439 374.661 364.397 374.86 369.034C375.078 374.082 377.996 378.263 381.456 381.518L382.307 382.024L389.274 356.033L389.276 356.031Z" fill="url(#paint25_linear_103_600)"/>
<path d="M377.77 321.246L439.488 321.894L448.868 375.334L382.308 382.022L377.77 321.246Z" fill="url(#paint26_linear_103_600)"/>
<g style="mix-blend-mode:multiply" opacity="0.2">
<path d="M439.487 321.894L419.116 321.68C418.736 322.786 418.157 324.316 417.309 326.046C408.046 344.973 386.516 347.415 386.908 350.571C387.496 355.284 434.783 348.457 435.961 354.778C436.53 357.828 426.746 364.875 416.416 367.643C403.909 370.994 394.617 367.076 388.391 374.39C386.274 376.877 385.338 379.768 384.883 381.721L448.867 375.332L439.487 321.894Z" fill="url(#paint27_linear_103_600)"/>
</g>
<path d="M378.845 319.542C378.128 319.533 377.127 319.432 376.034 320.066C375.801 320.201 375.594 320.352 375.414 320.503L375.917 320.329C376.726 320.098 377.84 320.428 378.255 321.25C378.765 322.26 378.949 324.584 379.06 325.736C379.378 329.011 381.326 349.368 381.326 349.368C381.472 351.082 382.76 352.375 384.278 352.336L441.45 349.057C441.872 349.046 442.289 348.908 442.637 348.629C443.362 348.047 443.689 347.042 443.521 346.087L440.708 322.565C440.47 321.211 439.448 320.228 438.261 320.215L378.843 319.541L378.845 319.542Z" fill="url(#paint28_linear_103_600)"/>
<path d="M379.477 319.55C378.762 319.541 377.911 319.433 376.963 319.679C376.707 319.745 376.297 319.868 376.117 320.02C376.117 320.02 378.128 319.559 378.888 321.257C379.352 322.294 379.582 324.591 379.693 325.743C380.011 329.018 381.957 349.368 381.957 349.368C382.103 351.083 383.389 352.375 384.907 352.334L442.671 350.806C443.093 350.795 443.507 350.657 443.855 350.376C444.579 349.794 444.908 348.789 444.738 347.834L441.302 322.573C441.064 321.218 440.043 320.237 438.856 320.223L379.476 319.548L379.477 319.55Z" fill="url(#paint29_linear_103_600)"/>
<path style="mix-blend-mode:multiply" opacity="0.1" d="M444.744 347.836L441.308 322.575C441.069 321.22 440.049 320.239 438.862 320.224L379.481 319.55C378.766 319.541 377.915 319.433 376.967 319.679C376.711 319.745 376.301 319.868 376.121 320.02C376.121 320.02 378.132 319.559 378.892 321.257C378.964 321.421 379.031 321.618 379.093 321.834C384.886 322.125 390.648 322.017 396.376 322.452C407.606 323.283 418.837 323.393 429.205 328.045C432.5 329.524 434.751 334.757 433.862 337.166C433.219 338.904 431.022 338.762 430.256 341.046C429.447 343.452 431.384 345.083 430.572 346.771C429.721 348.543 427.13 347.705 422.923 348.983C420.597 349.689 418.81 350.728 417.691 351.468L442.674 350.808C443.096 350.797 443.511 350.659 443.859 350.378C444.583 349.796 444.912 348.791 444.742 347.836H444.744Z" fill="url(#paint30_linear_103_600)"/>
<path d="M417.568 355.67L410.333 357.501L409.567 357.571C408.794 357.642 408.128 356.964 408.094 356.064L407.775 347.561C407.741 346.661 408.354 345.915 409.129 345.901L409.901 345.889L417.176 346.822C417.868 346.81 418.451 346.432 418.482 347.271L418.779 355.203C418.811 356.042 418.26 355.607 417.569 355.67H417.568Z" fill="url(#paint31_linear_103_600)"/>
<path d="M418.115 356.838L410.102 357.566C409.329 357.637 408.663 356.958 408.63 356.058L408.31 347.557C408.276 346.658 408.889 345.912 409.664 345.898L417.7 345.763C418.392 345.75 418.979 346.429 419.01 347.266L419.307 355.196C419.339 356.034 418.804 356.772 418.115 356.834V356.838Z" fill="url(#paint32_linear_103_600)"/>
<path d="M408.429 299.91C408.429 299.91 407.756 304.396 407.081 304.82C406.409 305.243 404.302 307.614 404.724 309.137C405.144 310.66 403.545 314.138 406.534 314.981C409.524 315.824 412.96 316.726 413.304 314.031C413.648 311.337 412.806 308.29 412.891 306.004C412.976 303.718 414.153 301.433 414.153 301.433L408.427 299.91H408.429Z" fill="url(#paint33_linear_103_600)"/>
<path d="M380.188 186.639C376.192 206.222 379.641 218.914 383.808 227.049C392.243 243.518 406.742 247.404 409.156 262.013C410.897 272.55 411.654 293.332 406.537 300.072C411.149 301.921 411.631 301.818 415.112 301.818C419.777 299.14 429.718 281.266 433.91 258.458C438.995 230.791 417.718 198.12 380.187 186.64L380.188 186.639Z" fill="white"/>
<path d="M367.745 186.432C365.765 185.619 356.158 183.654 354.026 179.466C351.669 174.833 350.871 168.459 350.871 168.459C350.871 168.459 344.242 170.229 345.212 173.672C346.183 177.114 344.53 185.007 340.725 186.769C338.06 188.003 334.76 188.498 334.045 189.324C333.967 189.336 333.918 189.347 333.9 189.357C333.351 189.702 335.059 192.348 341.908 196.186C365.541 192.609 368.029 188.541 368.131 187.142C368.235 186.837 368.124 186.588 367.743 186.432H367.745Z" fill="url(#paint34_linear_103_600)"/>
<path d="M341.999 166.841C338.925 164.254 338.501 163.958 338.113 163.01C336.555 159.204 339.142 153.614 342.99 151.979C343.189 151.894 345.772 150.827 346.876 151.903C347.814 152.815 346.657 154.273 347.409 156.117C348.114 157.843 349.652 157.853 352.668 159.948C355.152 161.673 356.695 162.745 357.163 164.391C358.128 167.785 354.374 173.117 350.687 173.277C349.361 173.334 348.947 172.684 341.999 166.842V166.841Z" fill="url(#paint35_linear_103_600)"/>
<path d="M350.37 173.836C350.37 173.836 347.616 177.528 342.91 176.76C338.697 176.073 338.992 166.453 341.893 164.687C342.86 164.098 344.697 163.993 346.129 164.549C346.975 164.877 347.234 165.269 348.626 165.78C349.909 166.251 350.296 166.141 350.662 166.515C351.119 166.984 351.384 168.051 350.285 170.765C351.174 170.019 352.175 169.798 352.832 170.19C352.936 170.252 353.21 170.481 353.344 170.797C353.831 171.947 352.706 173.245 350.37 173.836Z" fill="url(#paint36_linear_103_600)"/>
<path d="M348.386 195.378C348.386 195.378 347.051 202.546 344.962 202.686C342.875 202.827 341.344 203.105 341.344 203.105L339.008 194.34C339.008 194.34 342.052 196.832 348.386 195.378Z" fill="url(#paint37_linear_103_600)"/>
<path d="M345.951 202.088C345.951 202.088 350.597 254.525 366.881 262.919C366.464 264.598 366.881 278.24 366.881 278.24C366.881 278.24 351.701 273.646 350.836 273.95C349.97 274.253 332.452 245.061 341.341 203.107L345.95 202.09L345.951 202.088Z" fill="url(#paint38_linear_103_600)"/>
<path d="M148.071 464.433L154.498 463.103L184.841 423.95C184.841 423.95 168.153 418.053 167.545 418.255C166.938 418.459 152.778 426.797 152.07 427.61C151.362 428.423 142.461 446.014 142.461 447.337C142.461 448.659 148.069 464.435 148.069 464.435L148.071 464.433Z" fill="url(#paint39_linear_103_600)"/>
<path d="M13.9158 433.301H17.1684L42.1256 407.578C42.1256 407.578 32.9472 404.605 32.1879 404.679C31.4287 404.754 19.8982 409.11 19.8982 409.11C19.8982 409.11 14.6645 421.837 14.4367 422.601C14.2089 423.364 13.9141 433.299 13.9141 433.299L13.9158 433.301Z" fill="url(#paint40_linear_103_600)"/>
<path d="M193.09 426.304C193.09 426.304 193.103 426.304 193.108 426.304C194.692 426.433 196.233 427.026 197.692 427.892C199.09 428.574 200.86 429.373 200.879 430.436V430.459C205.899 435.948 209.944 446.19 210.177 457.739C210.488 473.119 204.453 485.667 196.269 487.254L196.265 487.263C195.712 487.353 188.87 489.986 167.146 487.921C166.399 478.572 165.078 425.585 165.078 425.585C165.078 425.585 182.384 424.362 193.09 426.3V426.304Z" fill="url(#paint41_linear_103_600)"/>
<path d="M150.338 455.902C150.663 473.494 159.032 487.922 168.857 488.106C178.493 488.287 185.902 474.647 185.572 457.661C185.242 440.691 177.301 426.327 167.67 425.548C157.853 424.753 150.015 438.33 150.338 455.904V455.902Z" fill="url(#paint42_linear_103_600)"/>
<path d="M158.027 456.162C158.26 468.644 163.851 478.92 170.435 479.103C176.935 479.284 181.95 469.537 181.713 457.346C181.476 445.163 176.082 434.917 169.586 434.448C163.005 433.973 157.794 443.688 158.027 456.162Z" fill="white"/>
<path d="M50.0073 410.232C50.0073 410.232 50.0161 410.232 50.0214 410.232C51.3051 410.346 52.7548 410.854 53.9379 411.601C55.0732 412.188 55.4758 412.898 56.7225 413.791V413.813C60.4994 418.55 63.8932 427.374 64.0945 437.322C64.3612 450.57 59.3782 461.375 52.7407 462.735L52.6895 462.744C52.241 462.822 46.6682 465.083 29.0424 463.285C28.4279 455.231 28.6292 409.59 28.6292 409.59C28.6292 409.59 41.3215 408.551 50.009 410.232H50.0073Z" fill="url(#paint43_linear_103_600)"/>
<path d="M15.3526 435.685C15.6316 450.839 22.4351 463.274 30.4057 463.441C38.2228 463.606 44.221 451.864 43.9368 437.231C43.6525 422.613 37.1986 410.234 29.3851 409.554C21.4198 408.86 15.0736 420.547 15.3526 435.685Z" fill="url(#paint44_linear_103_600)"/>
<path d="M21.5927 435.916C21.794 446.668 26.3373 455.525 31.6805 455.689C36.9531 455.85 41.0126 447.461 40.8095 436.958C40.6065 426.463 36.2203 417.634 30.9495 417.224C25.6098 416.808 21.3932 425.171 21.5927 435.916Z" fill="white"/>
<path d="M384.483 411.195H384.504C386.467 411.158 388.104 411.707 389.921 412.557C391.669 413.198 392.374 414.108 393.624 415.232V415.26C401.109 421.109 405.352 433.026 405.607 446.832C405.946 465.207 398.37 480.497 388.113 482.768L388.178 482.777C387.492 482.91 379.088 486.298 353.084 484.854C352.219 474.206 350.746 413.647 350.746 413.647C350.746 413.647 371.372 410.203 384.483 411.194V411.195Z" fill="url(#paint45_linear_103_600)"/>
<path d="M355.114 484.994C366.551 484.782 375.528 468.562 375.163 448.767C374.799 428.972 365.232 413.097 353.795 413.31C342.358 413.523 333.381 429.742 333.746 449.537C334.11 469.333 343.677 485.207 355.114 484.994Z" fill="url(#paint46_linear_103_600)"/>
<path d="M356.982 474.602C364.698 474.458 370.742 462.867 370.482 448.712C370.221 434.557 363.755 423.198 356.038 423.342C348.322 423.485 342.278 435.076 342.538 449.231C342.799 463.387 349.265 474.745 356.982 474.602Z" fill="url(#paint47_linear_103_600)"/>
<path d="M437.412 456.521L437.426 457.256C437.589 466.086 430.591 473.371 421.81 473.536L227.56 477.154C209.954 477.482 206.309 474.633 205.831 474.136C205.797 474.116 205.749 474.09 205.735 474.063L190.804 471.573C192.077 467.204 192.67 462.342 192.577 457.23C192.233 438.513 181.694 423.517 169.221 423.749C158.06 423.957 149.346 436.28 147.181 452.288C147.181 452.297 147.181 452.306 147.181 452.314C147.216 454.194 147.218 456.106 147.253 458.073C147.294 460.249 147.762 462.376 148.067 464.438L48.1287 447.745L46.2658 447.012C46.9845 443.799 47.3359 440.309 47.267 436.651C46.9827 421.227 39.2557 408.867 30.0296 409.039C21.5946 409.195 14.8194 419.738 13.91 433.305C13.2567 432.547 12.6051 431.704 11.98 430.766C8.94998 426.215 7.95056 421.534 7.62036 418.216C5.452 389.326 13.3909 370.207 21.2944 358.653C28.2374 348.485 35.1556 344.166 35.1556 344.166L64.1053 325.435C80.5234 314.793 99.5706 308.976 119.086 308.612L231.533 306.518C248.677 306.198 265.381 309.984 280.697 317.729C311.755 333.443 345.84 357.378 345.84 357.378C386.48 361.418 408.943 379.441 408.943 379.441C414.136 383.373 418.315 387.58 421.691 391.916C422.165 392.52 422.619 393.132 423.053 393.745C427.956 400.552 430.914 407.592 432.62 414.277C432.648 414.379 432.678 414.478 432.699 414.579C437.301 433.035 432.355 448.622 432.355 448.622C435.392 450.088 437.35 453.143 437.414 456.525L437.412 456.521Z" fill="url(#paint48_linear_103_600)"/>
<path d="M205.774 474.062C205.786 474.087 205.813 474.11 205.848 474.135C207.216 474.962 209.009 479.502 254.028 476.661L421.806 473.536C430.594 473.373 437.59 466.086 437.428 457.251L437.413 456.522C437.41 456.325 437.394 456.139 437.378 455.941C437.124 452.794 435.215 450 432.349 448.619L236.966 454.111C236.966 454.111 218.445 451.081 212.187 454.523C211.311 455.01 210.67 455.615 210.365 456.375C207.824 462.577 204.49 471.204 205.772 474.06L205.774 474.062Z" fill="url(#paint49_linear_103_600)"/>
<path d="M432.621 414.272C429.97 416.626 426.474 418.194 422.582 418.698L401.141 421.476C398.888 421.774 396.587 421.298 394.777 420.153C392.939 418.982 391.788 417.258 391.606 415.355L391.38 412.907C391.062 409.478 393.908 406.46 397.991 405.805C405.387 404.63 411.794 402.038 416.773 398.374L423.054 393.743C424.793 395.666 426.866 398.346 428.676 401.845C431.189 406.701 432.19 411.184 432.621 414.276V414.272Z" fill="white"/>
<path d="M294.569 414.611C295.975 416.246 298.292 417.556 299.713 417.533C325.813 417.043 351.886 416.555 377.931 416.067C379.349 416.039 381.332 414.647 382.331 412.971C383.325 411.306 382.829 409.991 381.231 410.021C352.506 410.555 323.745 411.091 294.953 411.627C293.362 411.661 293.16 412.987 294.568 414.611H294.569Z" fill="url(#paint50_linear_103_600)"/>
<path d="M303.581 425.189C305.066 426.902 307.198 428.29 308.361 428.265C329.57 427.862 350.761 427.461 371.932 427.06C373.089 427.039 374.885 425.581 375.937 423.821C376.988 422.072 376.731 420.684 375.398 420.712C351.41 421.165 327.401 421.616 303.368 422.069C302.027 422.093 302.112 423.483 303.581 425.187V425.189Z" fill="url(#paint51_linear_103_600)"/>
<path d="M272.203 428.342C276.962 428.131 280.686 424.589 280.606 420.351L280.559 417.766C280.484 413.736 276.988 410.428 272.475 410.115L263.975 409.529L213.172 397.086L214.399 403.473C216.253 413.122 223.761 421.132 234.089 424.479L241.645 426.929C246.617 428.541 251.907 429.249 257.201 429.013L272.203 428.344V428.342Z" fill="white"/>
<g style="mix-blend-mode:soft-light" opacity="0.4">
<path d="M212.191 454.524L233.386 459.741L437.383 455.942C437.128 452.795 435.219 450.001 432.354 448.62L236.97 454.112C236.97 454.112 218.449 451.082 212.191 454.524Z" fill="white"/>
</g>
<path d="M79.0775 442.838C79.0899 442.838 79.1022 442.838 79.1163 442.838C79.7714 441.591 80.31 441.917 80.2782 441.236C80.257 440.822 78.297 399.581 79.1976 382.827C79.9798 368.314 82.3459 365.646 82.556 365.445C83.0805 365.137 83.31 364.439 83.0663 363.86C82.8032 363.232 82.0793 362.92 81.456 363.182C80.5749 363.557 77.6278 366.049 76.7396 382.549C75.8303 399.428 77.8008 440.944 77.8203 441.36C77.8538 442.029 78.4153 442.853 79.0757 442.84L79.0775 442.838Z" fill="url(#paint52_linear_103_600)"/>
<path style="mix-blend-mode:multiply" opacity="0.2" d="M11.2776 429.632C12.1322 431.075 13.008 432.32 13.9156 433.3C14.8215 419.736 21.5985 409.19 30.03 409.034C39.2596 408.862 46.9866 421.227 47.2709 436.646C47.338 440.302 46.9848 443.796 46.2697 447.009L48.1273 447.74L148.071 464.432C147.764 462.372 147.292 460.244 147.254 458.07C147.218 456.104 147.22 454.189 147.185 452.311V452.286C146.927 438.288 125.167 439.15 115.602 439.773C105.103 440.452 92.9088 443.904 83.7533 436.807C78.3394 432.607 75.7402 425.635 70.42 421.161C64.4641 416.168 57.1362 412.868 50.451 409C36.3708 400.833 32.5268 391.388 32.9982 372.951C33.2984 361.278 26.4031 358.848 21.2841 358.647C13.3824 370.203 5.45232 389.323 7.62068 418.217C7.78489 420.929 8.57772 425.072 11.2776 429.634V429.632Z" fill="url(#paint53_linear_103_600)"/>
<path d="M139.77 316.875C139.77 316.875 153.505 350.398 156.866 355.28C157.182 355.731 157.583 356.157 158.058 356.544C162.663 360.264 173.773 360.738 173.773 360.738L337.236 357.694C300.263 330.783 268.818 314.474 268.818 314.474L139.77 316.877V316.875Z" fill="url(#paint54_linear_103_600)"/>
<path style="mix-blend-mode:multiply" opacity="0.3" d="M337.238 357.694C300.263 330.783 268.82 314.474 268.82 314.474L260.353 314.632C258.044 318.398 254.998 321.617 251.212 323.944C233.823 334.192 212.835 329.369 194.247 336C182.165 340.142 173.614 349.09 168.113 360.117C171.253 360.632 173.776 360.74 173.776 360.74L337.24 357.696L337.238 357.694Z" fill="url(#paint55_linear_103_600)"/>
<path d="M39.8203 347.164C39.8203 347.164 57.3932 354.006 80.9431 360.316C81.6388 356.67 82.7831 352.087 84.6707 347.035C88.1369 337.689 94.1069 326.713 104.403 316.941C96.3141 317.685 86.8549 319.444 76.9154 323.138C64.7158 327.667 51.8081 335.113 39.8221 347.164H39.8203Z" fill="url(#paint56_linear_103_600)"/>
<path d="M86.9727 361.885C98.7079 364.843 111.593 367.544 124.359 369.185C131.631 370.113 138.858 370.695 145.806 370.775C147.835 370.8 149.851 370.786 151.831 370.725C151.831 370.725 151.831 370.713 151.818 370.701C151.487 369.396 138.118 318.427 126.561 317.122C123.9 316.826 119.701 316.459 114.414 316.471C102.135 325.957 95.1446 337.595 91.1964 347.507C88.975 353.074 87.7037 358.09 86.9727 361.885Z" fill="url(#paint57_linear_103_600)"/>
<path opacity="0.3" d="M145.805 370.775C147.834 370.8 149.85 370.785 151.829 370.725C151.829 370.725 151.829 370.713 151.817 370.7C150.182 370.718 148.153 370.743 145.806 370.775H145.805Z" fill="url(#paint58_linear_103_600)"/>
<path style="mix-blend-mode:multiply" opacity="0.7" d="M91.1925 347.507C88.9711 353.074 87.6998 358.09 86.9688 361.885C98.704 364.843 111.589 367.544 124.355 369.184C122.528 367.427 120.827 365.196 119.325 362.395C112.768 350.219 101.557 348.315 91.1907 347.507H91.1925Z" fill="url(#paint59_linear_103_600)"/>
<path style="mix-blend-mode:multiply" opacity="0.7" d="M39.8203 347.164C39.8203 347.164 57.3932 354.005 80.9431 360.316C81.6388 356.67 82.7831 352.086 84.6707 347.034C78.4146 346.521 73.0007 345.644 69.8471 341.972C64.3185 335.5 70.8924 328.011 76.9137 323.14C64.714 327.668 51.8063 335.115 39.8203 347.166V347.164Z" fill="url(#paint60_linear_103_600)"/>
<path d="M151.264 373.058C151.264 373.058 145.575 352.117 138.024 351.415C130.474 350.714 108.873 344.943 107.111 355.358C105.349 365.774 109.352 370.879 120.246 371.314C131.141 371.749 138.386 370.977 138.386 370.977L143.509 376.29C143.509 376.29 151.705 381.75 151.266 373.059L151.264 373.058Z" fill="url(#paint61_linear_103_600)"/>
<path d="M153.776 373.012C153.776 373.012 148.086 352.071 140.536 351.37C132.986 350.668 111.385 344.897 109.623 355.312C107.86 365.728 111.863 370.834 122.758 371.268C133.653 371.703 140.896 370.931 140.896 370.931L146.019 376.244C146.019 376.244 154.215 381.704 153.776 373.013V373.012Z" fill="url(#paint62_linear_103_600)"/>
<path d="M221.27 245.495C221.27 245.495 227.579 239.907 228.855 237.866C230.134 235.826 230.169 239.826 228.889 240.633C227.61 241.441 246.93 238.752 243.525 242.121C240.121 245.488 237.666 248.664 233.093 248.877C228.52 249.09 223.125 250.485 222.193 251.099C221.261 251.714 221.27 245.495 221.27 245.495Z" fill="url(#paint63_linear_103_600)"/>
<path d="M96.4003 206.566C94.8517 207.155 71.2258 216.601 66.37 241.388C65.978 243.391 62.1816 264.688 76.5496 279.734C92.6604 296.605 123.681 296.188 135.996 282.083C138.867 278.793 140.382 275.147 141.231 272.085L137.988 263.419C134.029 258.614 128.638 257.476 125.76 256.763C118.663 255.003 113.306 258.183 109.241 254.741C106.991 252.838 106.545 250.097 106.146 247.651C104.786 239.315 109.467 234.185 109.806 229.044C110.06 225.201 111.399 216.782 106.41 211.291C103.251 207.814 98.8759 206.868 96.402 206.562L96.4003 206.566Z" fill="url(#paint64_linear_103_600)"/>
<path d="M87.1944 482.832C86.9189 481.305 82.0172 479.924 79.5893 481.969C78.3833 482.984 77.5533 485.042 78.2508 485.97C78.5051 486.307 77.4651 486.902 78.461 486.914C81.7629 486.954 87.4681 484.349 87.1944 482.832Z" fill="url(#paint65_linear_103_600)"/>
<path d="M82.0569 483.388L77.0156 482.671C79.3517 479.843 78.9191 470.842 78.9191 470.842L84.2817 472.045C84.2817 472.045 83.6708 474.516 82.6325 478.162C82.2758 479.41 82.1169 481.363 82.0586 483.39L82.0569 483.388Z" fill="url(#paint66_linear_103_600)"/>
<path d="M82.5019 482.763C82.5019 482.763 76.4312 481.357 75.7761 482.568C75.1192 483.779 74.6089 487.02 78.4601 486.915C82.3112 486.81 82.8444 483.791 82.5019 482.763Z" fill="url(#paint67_linear_103_600)"/>
<path d="M156.373 488.555C155.887 487.083 150.841 486.405 148.722 488.77C147.669 489.945 147.134 492.098 147.954 492.92C148.252 493.22 147.306 493.955 148.293 493.825C151.568 493.399 156.853 490.018 156.371 488.555H156.373Z" fill="url(#paint68_linear_103_600)"/>
<path d="M151.362 489.828H146.27C148.189 486.7 146.506 477.846 146.506 477.846L151.982 478.282C151.982 478.282 151.72 480.815 151.2 484.57C151.021 485.855 151.136 487.811 151.36 489.826L151.362 489.828Z" fill="#893976"/>
<path d="M164.559 296.254C166.918 304.084 170.285 316.723 172.454 332.58C178.639 377.808 165.493 379.251 167.947 429.368C168.731 445.365 154.16 482.256 152.877 483.07C152.255 483.131 151.581 483.172 150.862 483.15C149.594 483.111 147.807 482.916 145.731 482.291C143.423 481.892 135.101 459.232 137.031 445.761C138.396 436.227 138 425.994 137.209 405.528C137.08 402.212 128.642 341.012 128.642 341.012C126.074 363.664 123.122 382.913 120.561 397.837C112.338 445.782 85.5993 474.802 84.2043 475.267C83.9289 475.379 81.4197 476.295 79.3679 474.935C78.455 474.33 78.1443 473.549 78.1443 473.549C77.4291 472.986 78.3544 425.681 86.5104 390.08C98.3481 338.404 93.1938 326.314 96.9443 303.232C100.19 283.261 164.559 296.256 164.559 296.256V296.254Z" fill="url(#paint69_linear_103_600)"/>
<path d="M167.724 304.062C160.616 307.729 142.307 314.295 120.493 311.033C110.525 309.543 102.553 306.213 96.943 303.236C97.6246 301.158 98.1614 299.193 98.5746 297.332C101.564 283.79 97.9089 275.758 96.0654 268.288C93.0813 256.168 93.0318 257.082 90.5721 247.455C86.5109 231.57 85.8452 215.344 88.6333 212.019C96.1537 203.065 109.702 202.746 116.742 202.533C124.598 202.302 142.662 199.517 152.614 208.515C152.787 208.673 150.748 209.768 151.754 210.947C152.686 212.042 155.882 215.89 158.776 221.079C160.878 224.842 162.772 229.229 164.683 235.761C167.319 244.787 168.488 252.763 169.025 257.852C169.17 259.262 169.27 260.453 169.343 261.379C171.163 285.425 169.36 296.519 167.722 304.062H167.724Z" fill="url(#paint70_linear_103_600)"/>
<path d="M151.717 489.146C151.717 489.146 145.51 488.608 145.03 489.899C144.548 491.189 144.495 494.47 148.293 493.825C152.091 493.179 152.199 490.114 151.717 489.146Z" fill="url(#paint71_linear_103_600)"/>
<path d="M136.863 193.594C137.67 192.224 138.554 191.041 138.452 189.703C138.263 187.259 138.053 184.912 137.904 184.289C136.94 180.265 136.582 179.654 135.838 178.802L134.788 177.685C134.788 177.685 134.722 177.636 134.654 177.59C133.923 177.084 131.194 176.264 130.605 176.233C128.722 176.139 124.894 182.922 122.701 193.374C122.523 193.747 122.346 194.125 122.171 194.505C121.084 196.876 120.151 199.209 119.35 201.483C106.634 202.564 104.87 204.064 104.814 204.93C104.694 206.753 111.939 208.86 117.388 209.662C129.272 211.411 141.485 208.26 141.429 206.034C141.404 205.065 139.043 203.801 128.97 202.475C129.204 200.799 129.441 199.123 129.676 197.448C130.495 197.265 135.173 196.468 136.861 193.599L136.863 193.594Z" fill="url(#paint72_linear_103_600)"/>
<path d="M139.252 175.746C138.394 178.935 135.994 181.946 135.087 182.289C134.97 182.333 134.299 182.624 133.602 183.244C133.506 183.327 133.414 183.432 133.321 183.572C132.092 185.399 134.647 188.619 133.792 189.355C133.173 189.89 131.243 188.436 130.835 188.931C130.452 189.398 131.958 190.98 131.513 191.542C131.177 191.967 130.188 191.232 129.295 191.78C128.85 192.053 128.875 192.371 128.209 193.394C127.833 193.971 127.358 194.587 127.029 194.911C125.435 196.491 122.144 196.344 121.745 195.433C121.633 195.179 121.822 195.043 121.838 194.295C121.838 194.295 121.852 193.603 121.601 192.73C121.243 191.484 119.894 190.3 118.628 188.745C116.283 185.867 115.97 183.865 115.895 183.197C115.868 182.96 115.857 182.782 115.852 182.656C115.722 180.1 116.636 176.642 118.252 174.798C120.961 171.709 124.489 174.466 128.68 171.808C133.517 168.743 132.756 162.578 134.956 162.51C137.382 162.434 140.836 169.847 139.25 175.746H139.252Z" fill="#26264F"/>
<path d="M132.85 188.299C132.358 187.016 130.721 187.658 130.345 189.048C129.967 190.438 130.926 192.243 132.299 192.318C133.673 192.392 133.516 190.028 132.852 188.299H132.85Z" fill="url(#paint73_linear_103_600)"/>
<path style="mix-blend-mode:multiply" opacity="0.3" d="M99.4468 292.443C99.4345 292.443 99.4221 292.443 99.4098 292.441C99.2244 292.42 99.0919 292.253 99.1113 292.066C100.038 283.681 98.3097 277.587 96.7841 272.21C96.408 270.882 96.0513 269.627 95.7405 268.367C94.0454 261.49 93.302 258.834 92.5162 256.024C92.0042 254.193 91.4744 252.3 90.6551 249.135C90.6092 248.954 90.7169 248.77 90.897 248.722C91.0754 248.676 91.2608 248.782 91.3084 248.965C92.126 252.123 92.6557 254.013 93.166 255.842C93.9536 258.657 94.6969 261.318 96.3956 268.205C96.7028 269.453 97.0578 270.703 97.4321 272.025C98.9754 277.462 100.723 283.626 99.7823 292.143C99.7629 292.317 99.6164 292.444 99.4486 292.444L99.4468 292.443Z" fill="url(#paint74_linear_103_600)"/>
<path d="M132.835 185.803L134.014 188.648C134.014 188.648 135.194 192.063 136.751 190.784C138.022 189.736 138.255 189.83 138.3 189.9C138.308 189.912 138.307 189.93 138.308 189.93C138.326 189.93 138.344 189.248 138.356 188.648C138.653 189.472 139.017 190.775 139.017 192.395C139.017 193.972 139.017 195.658 137.789 196.948C137.719 197.023 136.382 198.39 134.581 198.324C134.581 198.324 133.873 198.299 131.184 197.044C131.184 197.044 134.863 195.621 135.054 195.099C135.568 193.68 133.77 192.356 133.071 188.978C132.801 187.675 132.796 186.557 132.836 185.801L132.835 185.803Z" fill="#26264F"/>
<path style="mix-blend-mode:multiply" opacity="0.3" d="M167.726 304.063C160.619 307.731 142.309 314.297 120.495 311.034C110.528 309.545 102.555 306.215 96.9453 303.238C97.6269 301.159 98.1637 299.194 98.5769 297.334C113.088 307.551 119.155 297.614 128.524 295.273C138.275 292.841 150.812 297.897 143.18 275.26C135.541 252.624 148.209 254.27 148.209 254.27L169.027 257.854C169.172 259.263 169.273 260.454 169.345 261.381C171.166 285.426 169.363 296.521 167.724 304.063H167.726Z" fill="url(#paint75_linear_103_600)"/>
<path d="M221.402 244.622C224.245 246.62 225.768 249.336 226.558 251.069C224.469 256 219.729 265.154 209.919 271.902C193.835 282.964 170.253 283.337 153.826 270.721C134.201 255.649 130.922 226.745 139.165 214.367C140.113 212.941 143.233 208.257 148.077 207.719C151.135 207.38 155.299 208.647 161.876 216.389C175.58 232.519 170.74 242.593 178.836 247.311C190.978 254.388 209.02 235.911 221.4 244.62L221.402 244.622Z" fill="url(#paint76_linear_103_600)"/>
<path style="mix-blend-mode:multiply" opacity="0.3" d="M166.157 277.66C166.134 277.66 166.109 277.658 166.084 277.653C165.89 277.61 146.574 273.147 137.899 249.089C137.836 248.914 137.926 248.72 138.101 248.656C138.275 248.592 138.468 248.683 138.531 248.859C147.074 272.551 166.035 276.95 166.226 276.991C166.408 277.03 166.522 277.211 166.483 277.393C166.45 277.551 166.31 277.66 166.155 277.66H166.157Z" fill="url(#paint77_linear_103_600)"/>
<path d="M239.628 240.458C239.628 240.458 238.196 237.693 236.204 239.047C234.21 240.402 231.414 241.334 233.276 241.813C235.138 242.292 239.63 240.458 239.63 240.458H239.628Z" fill="url(#paint78_linear_103_600)"/>
</g>
<defs>
<linearGradient id="paint0_linear_103_600" x1="214.88" y1="219.912" x2="592.426" y2="-155.646" gradientUnits="userSpaceOnUse">
<stop stop-color="#E38DDD"/>
<stop offset="1" stop-color="#9571F6"/>
</linearGradient>
<linearGradient id="paint1_linear_103_600" x1="243.983" y1="26.5969" x2="346.79" y2="680.369" gradientUnits="userSpaceOnUse">
<stop stop-color="#FF9085"/>
<stop offset="1" stop-color="#FB6FBB"/>
</linearGradient>
<linearGradient id="paint2_linear_103_600" x1="54.5451" y1="53.8235" x2="146.529" y2="141.604" gradientUnits="userSpaceOnUse">
<stop stop-color="#AB316D"/>
<stop offset="1" stop-color="#792D3D"/>
</linearGradient>
<linearGradient id="paint3_linear_103_600" x1="130.179" y1="65.4373" x2="23.8891" y2="224.282" gradientUnits="userSpaceOnUse">
<stop stop-color="#FFC444"/>
<stop offset="1" stop-color="#F36F56"/>
</linearGradient>
<linearGradient id="paint4_linear_103_600" x1="135.244" y1="60.5932" x2="103.323" y2="104.998" gradientUnits="userSpaceOnUse">
<stop stop-color="#FFC444"/>
<stop offset="1" stop-color="#F36F56"/>
</linearGradient>
<linearGradient id="paint5_linear_103_600" x1="75.392" y1="9.63363" x2="123.607" y2="137.951" gradientUnits="userSpaceOnUse">
<stop stop-color="#FFC444"/>
<stop offset="1" stop-color="#F36F56"/>
</linearGradient>
<linearGradient id="paint6_linear_103_600" x1="46.6119" y1="262.831" x2="142.627" y2="5.41069" gradientUnits="userSpaceOnUse">
<stop stop-color="#EBEFF2"/>
<stop offset="1" stop-color="white"/>
</linearGradient>
<linearGradient id="paint7_linear_103_600" x1="142.536" y1="59.9795" x2="85.4682" y2="174.157" gradientUnits="userSpaceOnUse">
<stop stop-color="#FFC444"/>
<stop offset="1" stop-color="#F36F56"/>
</linearGradient>
<linearGradient id="paint8_linear_103_600" x1="80.3569" y1="48.8982" x2="141.634" y2="162.53" gradientUnits="userSpaceOnUse">
<stop stop-color="#FF9085"/>
<stop offset="1" stop-color="#FB6FBB"/>
</linearGradient>
<linearGradient id="paint9_linear_103_600" x1="85.7424" y1="45.9955" x2="147.02" y2="159.626" gradientUnits="userSpaceOnUse">
<stop stop-color="#FF9085"/>
<stop offset="1" stop-color="#FB6FBB"/>
</linearGradient>
<linearGradient id="paint10_linear_103_600" x1="63.4488" y1="58.0137" x2="124.726" y2="171.646" gradientUnits="userSpaceOnUse">
<stop stop-color="#FF9085"/>
<stop offset="1" stop-color="#FB6FBB"/>
</linearGradient>
<linearGradient id="paint11_linear_103_600" x1="326.849" y1="410.652" x2="353.398" y2="505.952" gradientUnits="userSpaceOnUse">
<stop stop-color="#311944"/>
<stop offset="1" stop-color="#893976"/>
</linearGradient>
<linearGradient id="paint12_linear_103_600" x1="350.246" y1="478.081" x2="350.631" y2="445.907" gradientUnits="userSpaceOnUse">
<stop stop-color="#FFC444"/>
<stop offset="1" stop-color="#F36F56"/>
</linearGradient>
<linearGradient id="paint13_linear_103_600" x1="359.761" y1="401.484" x2="386.311" y2="496.784" gradientUnits="userSpaceOnUse">
<stop stop-color="#311944"/>
<stop offset="1" stop-color="#893976"/>
</linearGradient>
<linearGradient id="paint14_linear_103_600" x1="387.257" y1="478.524" x2="387.64" y2="446.351" gradientUnits="userSpaceOnUse">
<stop stop-color="#FFC444"/>
<stop offset="1" stop-color="#F36F56"/>
</linearGradient>
<linearGradient id="paint15_linear_103_600" x1="331.797" y1="374.607" x2="365.873" y2="374.607" gradientUnits="userSpaceOnUse">
<stop stop-color="#444B8C"/>
<stop offset="1" stop-color="#26264F"/>
</linearGradient>
<linearGradient id="paint16_linear_103_600" x1="331.801" y1="-5.91162e-05" x2="365.875" y2="-5.91162e-05" gradientUnits="userSpaceOnUse">
<stop stop-color="#444B8C"/>
<stop offset="1" stop-color="#26264F"/>
</linearGradient>
<linearGradient id="paint17_linear_103_600" x1="351.039" y1="379.5" x2="402.765" y2="379.5" gradientUnits="userSpaceOnUse">
<stop stop-color="#444B8C"/>
<stop offset="1" stop-color="#26264F"/>
</linearGradient>
<linearGradient id="paint18_linear_103_600" x1="229.532" y1="236.283" x2="261.71" y2="268.864" gradientUnits="userSpaceOnUse">
<stop stop-color="#FFC444"/>
<stop offset="1" stop-color="#F36F56"/>
</linearGradient>
<linearGradient id="paint19_linear_103_600" x1="417.012" y1="316.21" x2="422.586" y2="316.21" gradientUnits="userSpaceOnUse">
<stop stop-color="#FFC444"/>
<stop offset="1" stop-color="#F36F56"/>
</linearGradient>
<linearGradient id="paint20_linear_103_600" x1="408.106" y1="327.592" x2="409.459" y2="307.565" gradientUnits="userSpaceOnUse">
<stop offset="0.1" stop-color="#311944"/>
<stop offset="0.27" stop-color="#361B47"/>
<stop offset="0.48" stop-color="#462050"/>
<stop offset="0.72" stop-color="#602A5F"/>
<stop offset="0.97" stop-color="#843773"/>
<stop offset="1" stop-color="#893976"/>
</linearGradient>
<linearGradient id="paint21_linear_103_600" x1="400.604" y1="313.165" x2="415.944" y2="321.346" gradientUnits="userSpaceOnUse">
<stop offset="0.1" stop-color="#311944"/>
<stop offset="0.27" stop-color="#361B47"/>
<stop offset="0.48" stop-color="#462050"/>
<stop offset="0.72" stop-color="#602A5F"/>
<stop offset="0.97" stop-color="#843773"/>
<stop offset="1" stop-color="#893976"/>
</linearGradient>
<linearGradient id="paint22_linear_103_600" x1="395.34" y1="316.622" x2="400.259" y2="316.622" gradientUnits="userSpaceOnUse">
<stop stop-color="#FFC444"/>
<stop offset="1" stop-color="#F36F56"/>
</linearGradient>
<linearGradient id="paint23_linear_103_600" x1="378.851" y1="338.916" x2="370.01" y2="258.537" gradientUnits="userSpaceOnUse">
<stop offset="0.1" stop-color="#311944"/>
<stop offset="0.69" stop-color="#6D2E66"/>
<stop offset="1" stop-color="#893976"/>
</linearGradient>
<linearGradient id="paint24_linear_103_600" x1="416.911" y1="372.275" x2="358.835" y2="340.106" gradientUnits="userSpaceOnUse">
<stop stop-color="#311944"/>
<stop offset="1" stop-color="#893976"/>
</linearGradient>
<linearGradient id="paint25_linear_103_600" x1="364.635" y1="327.154" x2="382.242" y2="356.523" gradientUnits="userSpaceOnUse">
<stop stop-color="#311944"/>
<stop offset="1" stop-color="#893976"/>
</linearGradient>
<linearGradient id="paint26_linear_103_600" x1="409.149" y1="292.022" x2="415.587" y2="377.984" gradientUnits="userSpaceOnUse">
<stop offset="0.1" stop-color="#311944"/>
<stop offset="0.69" stop-color="#6D2E66"/>
<stop offset="1" stop-color="#893976"/>
</linearGradient>
<linearGradient id="paint27_linear_103_600" x1="397.829" y1="340.688" x2="444.93" y2="376.789" gradientUnits="userSpaceOnUse">
<stop stop-color="#311944"/>
<stop offset="1" stop-color="#893976"/>
</linearGradient>
<linearGradient id="paint28_linear_103_600" x1="385.742" y1="335.756" x2="405.499" y2="334.994" gradientUnits="userSpaceOnUse">
<stop offset="0.1" stop-color="#311944"/>
<stop offset="0.69" stop-color="#6D2E66"/>
<stop offset="1" stop-color="#893976"/>
</linearGradient>
<linearGradient id="paint29_linear_103_600" x1="416.495" y1="402.378" x2="409.561" y2="324.882" gradientUnits="userSpaceOnUse">
<stop offset="0.1" stop-color="#311944"/>
<stop offset="0.27" stop-color="#361B47"/>
<stop offset="0.48" stop-color="#462050"/>
<stop offset="0.72" stop-color="#602A5F"/>
<stop offset="0.97" stop-color="#843773"/>
<stop offset="1" stop-color="#893976"/>
</linearGradient>
<linearGradient id="paint30_linear_103_600" x1="419.84" y1="420.356" x2="408.083" y2="313.448" gradientUnits="userSpaceOnUse">
<stop stop-color="#311944"/>
<stop offset="1" stop-color="#893976"/>
</linearGradient>
<linearGradient id="paint31_linear_103_600" x1="436.244" y1="364.013" x2="401.079" y2="345.727" gradientUnits="userSpaceOnUse">
<stop stop-color="#FFC444"/>
<stop offset="1" stop-color="#F36F56"/>
</linearGradient>
<linearGradient id="paint32_linear_103_600" x1="404.791" y1="348.411" x2="440.64" y2="361.171" gradientUnits="userSpaceOnUse">
<stop stop-color="#FFC444"/>
<stop offset="1" stop-color="#F36F56"/>
</linearGradient>
<linearGradient id="paint33_linear_103_600" x1="412.089" y1="337.207" x2="409.067" y2="303.421" gradientUnits="userSpaceOnUse">
<stop stop-color="#FFC444"/>
<stop offset="1" stop-color="#F36F56"/>
</linearGradient>
<linearGradient id="paint34_linear_103_600" x1="350.989" y1="199.557" x2="350.989" y2="166.029" gradientUnits="userSpaceOnUse">
<stop stop-color="#FFC444"/>
<stop offset="1" stop-color="#F36F56"/>
</linearGradient>
<linearGradient id="paint35_linear_103_600" x1="357.725" y1="189.429" x2="343.793" y2="154.232" gradientUnits="userSpaceOnUse">
<stop stop-color="#444B8C"/>
<stop offset="1" stop-color="#3E4177"/>
</linearGradient>
<linearGradient id="paint36_linear_103_600" x1="328.859" y1="179.06" x2="358.561" y2="162.968" gradientUnits="userSpaceOnUse">
<stop stop-color="#FFC444"/>
<stop offset="1" stop-color="#F36F56"/>
</linearGradient>
<linearGradient id="paint37_linear_103_600" x1="345.324" y1="170.884" x2="342.512" y2="211.878" gradientUnits="userSpaceOnUse">
<stop stop-color="#444B8C"/>
<stop offset="1" stop-color="#26264F"/>
</linearGradient>
<linearGradient id="paint38_linear_103_600" x1="352.857" y1="252.556" x2="352.857" y2="160.472" gradientUnits="userSpaceOnUse">
<stop stop-color="#444B8C"/>
<stop offset="1" stop-color="#26264F"/>
</linearGradient>
<linearGradient id="paint39_linear_103_600" x1="169.565" y1="447.159" x2="150.565" y2="429.203" gradientUnits="userSpaceOnUse">
<stop stop-color="#444B8C"/>
<stop offset="1" stop-color="#3E4177"/>
</linearGradient>
<linearGradient id="paint40_linear_103_600" x1="29.0466" y1="421.418" x2="18.0707" y2="411.046" gradientUnits="userSpaceOnUse">
<stop stop-color="#444B8C"/>
<stop offset="1" stop-color="#3E4177"/>
</linearGradient>
<linearGradient id="paint41_linear_103_600" x1="210.12" y1="456.397" x2="165.629" y2="457.216" gradientUnits="userSpaceOnUse">
<stop stop-color="#444B8C"/>
<stop offset="1" stop-color="#3E4177"/>
</linearGradient>
<linearGradient id="paint42_linear_103_600" x1="139.306" y1="402.929" x2="186.559" y2="491.011" gradientUnits="userSpaceOnUse">
<stop stop-color="#EBEFF2"/>
<stop offset="0.99" stop-color="#B7C0CE"/>
</linearGradient>
<linearGradient id="paint43_linear_103_600" x1="64.039" y1="436.173" x2="28.3978" y2="436.829" gradientUnits="userSpaceOnUse">
<stop stop-color="#444B8C"/>
<stop offset="1" stop-color="#3E4177"/>
</linearGradient>
<linearGradient id="paint44_linear_103_600" x1="5.0808" y1="390.299" x2="45.5841" y2="465.802" gradientUnits="userSpaceOnUse">
<stop stop-color="#EBEFF2"/>
<stop offset="0.99" stop-color="#B7C0CE"/>
</linearGradient>
<linearGradient id="paint45_linear_103_600" x1="405.592" y1="447.513" x2="351.359" y2="448.511" gradientUnits="userSpaceOnUse">
<stop stop-color="#444B8C"/>
<stop offset="1" stop-color="#3E4177"/>
</linearGradient>
<linearGradient id="paint46_linear_103_600" x1="321.953" y1="387.992" x2="375.606" y2="488.006" gradientUnits="userSpaceOnUse">
<stop stop-color="#444B8C"/>
<stop offset="1" stop-color="#3E4177"/>
</linearGradient>
<linearGradient id="paint47_linear_103_600" x1="370.465" y1="448.746" x2="342.519" y2="449.26" gradientUnits="userSpaceOnUse">
<stop stop-color="#444B8C"/>
<stop offset="1" stop-color="#3E4177"/>
</linearGradient>
<linearGradient id="paint48_linear_103_600" x1="191.242" y1="527.939" x2="255.418" y2="320.764" gradientUnits="userSpaceOnUse">
<stop stop-color="#E38DDD"/>
<stop offset="1" stop-color="#9571F6"/>
</linearGradient>
<linearGradient id="paint49_linear_103_600" x1="321.311" y1="481.201" x2="322.523" y2="351.597" gradientUnits="userSpaceOnUse">
<stop stop-color="#E38DDD"/>
<stop offset="1" stop-color="#9571F6"/>
</linearGradient>
<linearGradient id="paint50_linear_103_600" x1="374.954" y1="38.6787" x2="384.145" y2="-53.7381" gradientUnits="userSpaceOnUse">
<stop stop-color="#E38DDD"/>
<stop offset="1" stop-color="#9571F6"/>
</linearGradient>
<linearGradient id="paint51_linear_103_600" x1="377.217" y1="38.9043" x2="386.407" y2="-53.513" gradientUnits="userSpaceOnUse">
<stop stop-color="#E38DDD"/>
<stop offset="1" stop-color="#9571F6"/>
</linearGradient>
<linearGradient id="paint52_linear_103_600" x1="79.835" y1="503.808" x2="79.835" y2="346.242" gradientUnits="userSpaceOnUse">
<stop stop-color="#E38DDD"/>
<stop offset="1" stop-color="#9571F6"/>
</linearGradient>
<linearGradient id="paint53_linear_103_600" x1="127.857" y1="485.8" x2="8.07277" y2="372.595" gradientUnits="userSpaceOnUse">
<stop stop-color="#E38DDD"/>
<stop offset="1" stop-color="#9571F6"/>
</linearGradient>
<linearGradient id="paint54_linear_103_600" x1="140.184" y1="339.123" x2="336.839" y2="335.503" gradientUnits="userSpaceOnUse">
<stop stop-color="#444B8C"/>
<stop offset="1" stop-color="#3E4177"/>
</linearGradient>
<linearGradient id="paint55_linear_103_600" x1="168.112" y1="337.605" x2="337.238" y2="337.605" gradientUnits="userSpaceOnUse">
<stop stop-color="#444B8C"/>
<stop offset="1" stop-color="#3E4177"/>
</linearGradient>
<linearGradient id="paint56_linear_103_600" x1="39.6847" y1="339.623" x2="104.8" y2="338.425" gradientUnits="userSpaceOnUse">
<stop stop-color="#444B8C"/>
<stop offset="1" stop-color="#3E4177"/>
</linearGradient>
<linearGradient id="paint57_linear_103_600" x1="86.6554" y1="344.477" x2="151.33" y2="343.287" gradientUnits="userSpaceOnUse">
<stop stop-color="#444B8C"/>
<stop offset="1" stop-color="#3E4177"/>
</linearGradient>
<linearGradient id="paint58_linear_103_600" x1="150.357" y1="372.257" x2="147.201" y2="369.273" gradientUnits="userSpaceOnUse">
<stop stop-color="#EBEFF2"/>
<stop offset="0.99" stop-color="#B7C0CE"/>
</linearGradient>
<linearGradient id="paint59_linear_103_600" x1="118.238" y1="375.633" x2="89.8973" y2="348.851" gradientUnits="userSpaceOnUse">
<stop stop-color="#EBEFF2"/>
<stop offset="0.99" stop-color="#B7C0CE"/>
</linearGradient>
<linearGradient id="paint60_linear_103_600" x1="82.6969" y1="358.432" x2="54.4099" y2="331.699" gradientUnits="userSpaceOnUse">
<stop stop-color="#EBEFF2"/>
<stop offset="0.99" stop-color="#B7C0CE"/>
</linearGradient>
<linearGradient id="paint61_linear_103_600" x1="138.199" y1="372.599" x2="97.6487" y2="334.275" gradientUnits="userSpaceOnUse">
<stop stop-color="#E38DDD"/>
<stop offset="1" stop-color="#9571F6"/>
</linearGradient>
<linearGradient id="paint62_linear_103_600" x1="160.154" y1="391.124" x2="119.602" y2="352.798" gradientUnits="userSpaceOnUse">
<stop stop-color="#E38DDD"/>
<stop offset="1" stop-color="#9571F6"/>
</linearGradient>
<linearGradient id="paint63_linear_103_600" x1="117.972" y1="265.891" x2="246.144" y2="240.426" gradientUnits="userSpaceOnUse">
<stop offset="0.1" stop-color="#311944"/>
<stop offset="0.27" stop-color="#361B47"/>
<stop offset="0.48" stop-color="#462050"/>
<stop offset="0.72" stop-color="#602A5F"/>
<stop offset="0.97" stop-color="#843773"/>
<stop offset="1" stop-color="#893976"/>
</linearGradient>
<linearGradient id="paint64_linear_103_600" x1="103.43" y1="324.914" x2="103.43" y2="164.65" gradientUnits="userSpaceOnUse">
<stop stop-color="#FCB148"/>
<stop offset="0.05" stop-color="#FDB946"/>
<stop offset="0.14" stop-color="#FEC144"/>
<stop offset="0.32" stop-color="#FFC444"/>
<stop offset="0.48" stop-color="#FDB946"/>
<stop offset="0.78" stop-color="#F99C4C"/>
<stop offset="0.87" stop-color="#F8924F"/>
<stop offset="1" stop-color="#F8924F"/>
</linearGradient>
<linearGradient id="paint65_linear_103_600" x1="89.9" y1="478.402" x2="79.0709" y2="485.56" gradientUnits="userSpaceOnUse">
<stop stop-color="#444B8C"/>
<stop offset="1" stop-color="#26264F"/>
</linearGradient>
<linearGradient id="paint66_linear_103_600" x1="75.0571" y1="516.897" x2="79.8841" y2="482.947" gradientUnits="userSpaceOnUse">
<stop offset="0.1" stop-color="#311944"/>
<stop offset="0.27" stop-color="#361B47"/>
<stop offset="0.48" stop-color="#462050"/>
<stop offset="0.72" stop-color="#602A5F"/>
<stop offset="0.97" stop-color="#843773"/>
<stop offset="1" stop-color="#893976"/>
</linearGradient>
<linearGradient id="paint67_linear_103_600" x1="89.089" y1="477.176" x2="78.26" y2="484.334" gradientUnits="userSpaceOnUse">
<stop stop-color="#444B8C"/>
<stop offset="1" stop-color="#26264F"/>
</linearGradient>
<linearGradient id="paint68_linear_103_600" x1="158.456" y1="483.81" x2="148.728" y2="492.418" gradientUnits="userSpaceOnUse">
<stop stop-color="#444B8C"/>
<stop offset="1" stop-color="#26264F"/>
</linearGradient>
<linearGradient id="paint69_linear_103_600" x1="186.267" y1="268.382" x2="45.4023" y2="551.129" gradientUnits="userSpaceOnUse">
<stop offset="0.1" stop-color="#311944"/>
<stop offset="0.27" stop-color="#361B47"/>
<stop offset="0.48" stop-color="#462050"/>
<stop offset="0.72" stop-color="#602A5F"/>
<stop offset="0.97" stop-color="#843773"/>
<stop offset="1" stop-color="#893976"/>
</linearGradient>
<linearGradient id="paint70_linear_103_600" x1="128.525" y1="324.914" x2="128.525" y2="164.65" gradientUnits="userSpaceOnUse">
<stop stop-color="#FCB148"/>
<stop offset="0.05" stop-color="#FDB946"/>
<stop offset="0.14" stop-color="#FEC144"/>
<stop offset="0.32" stop-color="#FFC444"/>
<stop offset="0.48" stop-color="#FDB946"/>
<stop offset="0.78" stop-color="#F99C4C"/>
<stop offset="0.87" stop-color="#F8924F"/>
<stop offset="1" stop-color="#F8924F"/>
</linearGradient>
<linearGradient id="paint71_linear_103_600" x1="157.48" y1="482.712" x2="147.752" y2="491.32" gradientUnits="userSpaceOnUse">
<stop stop-color="#444B8C"/>
<stop offset="1" stop-color="#26264F"/>
</linearGradient>
<linearGradient id="paint72_linear_103_600" x1="123.121" y1="232.165" x2="123.121" y2="182.785" gradientUnits="userSpaceOnUse">
<stop offset="0.1" stop-color="#311944"/>
<stop offset="0.27" stop-color="#361B47"/>
<stop offset="0.48" stop-color="#462050"/>
<stop offset="0.72" stop-color="#602A5F"/>
<stop offset="0.97" stop-color="#843773"/>
<stop offset="1" stop-color="#893976"/>
</linearGradient>
<linearGradient id="paint73_linear_103_600" x1="131.803" y1="232.165" x2="131.803" y2="182.785" gradientUnits="userSpaceOnUse">
<stop offset="0.1" stop-color="#311944"/>
<stop offset="0.27" stop-color="#361B47"/>
<stop offset="0.48" stop-color="#462050"/>
<stop offset="0.72" stop-color="#602A5F"/>
<stop offset="0.97" stop-color="#843773"/>
<stop offset="1" stop-color="#893976"/>
</linearGradient>
<linearGradient id="paint74_linear_103_600" x1="90.6463" y1="270.577" x2="100.047" y2="270.577" gradientUnits="userSpaceOnUse">
<stop stop-color="#FF9085"/>
<stop offset="1" stop-color="#FB6FBB"/>
</linearGradient>
<linearGradient id="paint75_linear_103_600" x1="96.9453" y1="283.08" x2="170.11" y2="283.08" gradientUnits="userSpaceOnUse">
<stop stop-color="#FCB148"/>
<stop offset="0.05" stop-color="#FDB946"/>
<stop offset="0.14" stop-color="#FEC144"/>
<stop offset="0.32" stop-color="#FFC444"/>
<stop offset="0.48" stop-color="#FDB946"/>
<stop offset="0.78" stop-color="#F99C4C"/>
<stop offset="0.87" stop-color="#F8924F"/>
<stop offset="1" stop-color="#F8924F"/>
</linearGradient>
<linearGradient id="paint76_linear_103_600" x1="180.75" y1="324.915" x2="180.75" y2="164.651" gradientUnits="userSpaceOnUse">
<stop stop-color="#FCB148"/>
<stop offset="0.05" stop-color="#FDB946"/>
<stop offset="0.14" stop-color="#FEC144"/>
<stop offset="0.32" stop-color="#FFC444"/>
<stop offset="0.48" stop-color="#FDB946"/>
<stop offset="0.78" stop-color="#F99C4C"/>
<stop offset="0.87" stop-color="#F8924F"/>
<stop offset="1" stop-color="#F8924F"/>
</linearGradient>
<linearGradient id="paint77_linear_103_600" x1="137.88" y1="263.146" x2="166.492" y2="263.146" gradientUnits="userSpaceOnUse">
<stop stop-color="#FF9085"/>
<stop offset="1" stop-color="#FB6FBB"/>
</linearGradient>
<linearGradient id="paint78_linear_103_600" x1="234.11" y1="238.772" x2="242.077" y2="246.839" gradientUnits="userSpaceOnUse">
<stop stop-color="#FFC444"/>
<stop offset="1" stop-color="#F36F56"/>
</linearGradient>
<clipPath id="clip0_103_600">
<rect width="485" height="506" fill="white"/>
</clipPath>
</defs>
</svg>
