<svg width="181" height="81" viewBox="0 0 181 81" fill="none" xmlns="http://www.w3.org/2000/svg">
<path d="M5.54706 68.225C5.54706 68.225 173.213 68.225 174.38 68.225C175.547 68.225 180.88 65.059 180.88 62.225C180.88 59.392 180.88 49.642 180.88 48.392C180.88 47.142 178.797 44.976 178.797 43.976C178.797 42.976 178.797 25.059 178.797 24.309C178.797 23.559 160.796 2.72599 160.047 2.55899C159.297 2.39199 131.713 0.391988 109.047 0.725988C86.3801 1.05899 77.7131 3.55899 72.0471 5.72599C66.3811 7.89199 39.4641 24.559 38.0471 24.726C36.6301 24.892 24.9641 27.059 20.1301 28.226C15.2961 29.392 5.38006 32.476 3.46306 36.059C1.54606 39.642 1.44206 51.705 1.44206 55.955C1.44206 60.205 1.54606 62.351 1.00406 63.226C0.462057 64.101 0.0660569 65.205 1.00406 66.299C1.94206 67.391 3.74506 68.225 5.54706 68.225Z" fill="#EF3061"/>
<path d="M2.14705 41.391C1.49205 46.406 1.44206 53.029 1.44206 55.954C1.44206 60.204 1.54606 62.35 1.00406 63.225C0.462057 64.1 0.0660569 65.204 1.00406 66.298C1.94206 67.392 3.74406 68.225 5.54606 68.225C5.54606 68.225 173.212 68.225 174.379 68.225C175.546 68.225 180.879 65.059 180.879 62.225C180.879 59.392 180.879 49.642 180.879 48.392C180.879 47.142 178.796 44.976 178.796 43.976C178.796 43.765 178.796 42.793 178.796 41.392L2.14705 41.391Z" fill="url(#paint0_linear_47_7)"/>
<path d="M44.0461 64.058C44.0461 53.563 35.5391 45.058 25.0461 45.058C14.5531 45.058 6.04614 53.563 6.04614 64.058C6.04614 65.491 6.21814 66.883 6.51914 68.225C10.2811 68.225 24.6761 68.225 43.5731 68.225C43.8741 66.882 44.0461 65.491 44.0461 64.058Z" fill="#AB2246"/>
<path d="M179.046 64.058C179.046 53.563 170.539 45.058 160.046 45.058C149.553 45.058 141.046 53.563 141.046 64.058C141.046 65.491 141.218 66.883 141.519 68.225C160.646 68.225 174.052 68.225 174.379 68.225C175.087 68.225 177.327 67.056 178.981 65.505C179.02 65.027 179.046 64.545 179.046 64.058Z" fill="#AB2246"/>
<path d="M25.0461 80.058C33.8827 80.058 41.0461 72.8945 41.0461 64.058C41.0461 55.2214 33.8827 48.058 25.0461 48.058C16.2096 48.058 9.04614 55.2214 9.04614 64.058C9.04614 72.8945 16.2096 80.058 25.0461 80.058Z" fill="#404040"/>
<path d="M32.7772 71.7898C37.0476 67.5195 37.0476 60.5959 32.7772 56.3255C28.5069 52.0552 21.5833 52.0552 17.3129 56.3255C13.0426 60.5959 13.0426 67.5195 17.3129 71.7898C21.5833 76.0602 28.5069 76.0602 32.7772 71.7898Z" fill="#EFEFEF"/>
<path d="M160.046 80.058C168.883 80.058 176.046 72.8945 176.046 64.058C176.046 55.2214 168.883 48.058 160.046 48.058C151.21 48.058 144.046 55.2214 144.046 64.058C144.046 72.8945 151.21 80.058 160.046 80.058Z" fill="#404040"/>
<path d="M167.776 71.7907C172.047 67.5204 172.047 60.5968 167.776 56.3264C163.506 52.0561 156.583 52.0561 152.312 56.3264C148.042 60.5968 148.042 67.5204 152.312 71.7907C156.583 76.0611 163.506 76.0611 167.776 71.7907Z" fill="#EFEFEF"/>
<path d="M100.039 24.533C101.197 24.492 102.005 23.641 102.13 22.485C102.255 21.329 104.505 9.68299 104.838 7.64099C105.169 5.61099 105.125 4.81999 104.306 4.83499C86.465 5.39399 78.694 7.46499 73.475 9.46099C70.698 10.523 61.025 16.17 53.478 20.596C51.305 21.87 51.129 25.954 54.879 25.954C57.033 25.954 79.886 25.239 100.039 24.533Z" fill="#4F4F4F"/>
<path d="M142.673 5.45199C134.421 5.04899 124.17 4.68698 114.335 4.68698C114.014 4.68698 113.703 4.69298 113.382 4.69398C112.713 4.72498 112.317 5.81498 112.317 7.01598C112.317 8.23498 111.661 20.766 111.629 21.86C111.598 22.953 112.19 24.094 113.222 24.057C122.272 23.718 129.207 23.424 130.879 23.275C136.567 22.766 138.754 21.475 142.962 18.975C147.17 16.475 150.504 14.225 150.587 12.725C150.67 11.225 146.344 5.62299 142.673 5.45199Z" fill="#4F4F4F"/>
<path d="M105.68 65.235H134.713C137.137 65.235 138.565 64.238 138.958 62.273L139.056 61.77C139.506 59.419 140.344 55.043 143.74 50.882C145.338 48.924 147.237 47.687 148.912 46.594C151.177 45.118 153.133 43.843 153.909 41.296C154.22 40.277 154.727 38.768 155.315 37.021C157.329 31.039 160.087 22.846 159.794 20.237C159.396 16.701 149.523 4.027 145.123 3.392C141.037 2.803 119.966 2.315 109.758 2.431C109.852 1.758 109.932 1.181 109.998 0.710999C109.83 0.712999 109.66 0.715003 109.492 0.717003C109.425 1.191 109.345 1.766 109.252 2.437C108.585 2.446 107.969 2.458 107.414 2.473C93.42 2.85 82.84 4.185 75.968 6.444C67.129 9.348 58.067 14.881 55.321 16.767C55.05 16.954 54.761 17.144 54.46 17.342C51.54 19.27 47.541 21.91 46.051 29.131C44.578 36.269 45.011 49.764 46.383 57.061C47.772 64.446 49.012 64.731 49.947 64.946C50.396 65.05 50.367 66.409 50.336 67.847C50.334 67.965 50.333 68.101 50.331 68.223C50.497 68.223 50.664 68.223 50.831 68.223C50.834 68.104 50.834 67.973 50.836 67.858C50.86 66.733 50.88 65.831 50.718 65.234H105.17C105.341 66.199 105.463 67.208 105.511 68.223C105.678 68.223 105.845 68.223 106.012 68.223C105.968 67.207 105.848 66.2 105.68 65.235ZM50.485 64.735C50.371 64.592 50.222 64.497 50.031 64.453C49.303 64.286 48.203 64.034 46.875 56.97C45.512 49.72 45.079 36.317 46.54 29.234C47.988 22.216 51.888 19.642 54.735 17.762C55.039 17.561 55.33 17.369 55.604 17.181C58.333 15.306 67.341 9.806 76.124 6.92C82.95 4.677 93.482 3.35 107.428 2.975C107.959 2.961 108.548 2.95 109.183 2.94C108.367 8.843 106.788 20.608 106.068 28.305C105.032 39.378 103.632 56.773 103.797 58.827C103.851 59.503 104.092 60.474 104.371 61.599C104.602 62.532 104.865 63.598 105.084 64.734H50.485V64.735ZM104.856 61.48C104.582 60.376 104.346 59.423 104.295 58.788C104.132 56.76 105.531 39.408 106.566 28.352C107.288 20.631 108.877 8.808 109.689 2.935C119.847 2.817 140.97 3.301 145.052 3.889C149.175 4.483 158.921 16.947 159.298 20.294C159.579 22.793 156.729 31.26 154.843 36.863C154.254 38.614 153.745 40.126 153.432 41.152C152.709 43.525 150.823 44.754 148.64 46.176C146.935 47.288 145.001 48.548 143.353 50.566C139.876 54.824 138.991 59.452 138.565 61.676L138.468 62.175C138.124 63.897 136.895 64.735 134.713 64.735H105.592C105.368 63.554 105.096 62.446 104.856 61.48Z" fill="#C42750"/>
<path d="M6.44804 34.808C7.04904 35.054 7.62003 35.287 8.29503 35.287C8.41403 35.287 8.53603 35.28 8.66203 35.264C9.94503 35.104 17.217 33.628 23.633 32.326C27.235 31.595 30.636 30.905 32.428 30.56C36.218 29.83 38.536 26 39.489 24.051C39.184 24.214 38.92 24.35 38.703 24.456C37.629 26.424 35.502 29.459 32.333 30.069C30.539 30.415 27.136 31.105 23.534 31.836C17.126 33.136 9.86403 34.609 8.59903 34.768C7.89403 34.855 7.31003 34.62 6.63803 34.345C6.29103 34.203 5.92504 34.059 5.52504 33.949C5.34304 34.08 5.17403 34.212 5.00903 34.345C5.53403 34.441 5.99704 34.623 6.44804 34.808Z" fill="#C42750"/>
<path d="M98.7551 33.031V31.606C98.7551 31.119 98.3601 30.725 97.8741 30.725H90.9171C90.4301 30.725 90.0361 31.12 90.0361 31.606V33.031H98.7551Z" fill="#C42750"/>
<path d="M90.0352 33.031V34.456C90.0352 34.943 90.4302 35.337 90.9172 35.337H97.8741C98.3611 35.337 98.7561 34.942 98.7561 34.456V33.031H90.0352Z" fill="#AB2246"/>
<path d="M150.589 33.031V31.606C150.589 31.119 150.194 30.725 149.708 30.725H142.75C142.263 30.725 141.869 31.12 141.869 31.606V33.031H150.589Z" fill="#C42750"/>
<path d="M141.869 33.031V34.456C141.869 34.943 142.265 35.337 142.751 35.337H149.708C150.195 35.337 150.59 34.942 150.59 34.456V33.031H141.869Z" fill="#AB2246"/>
<path d="M5.34893 36.954C4.62993 37.032 3.48994 37.688 2.72894 38.175C1.97994 41.208 1.66394 45.913 1.53394 49.928C2.21594 49.777 3.07394 49.452 3.87994 48.735C5.56794 47.235 7.91093 40.391 7.91093 39.047C7.91093 37.704 6.50493 36.829 5.34893 36.954Z" fill="#FFB073"/>
<path d="M178.797 26.391H176.88C175.223 26.391 173.88 27.734 173.88 29.391V36.808H178.797C178.797 33.106 178.797 28.868 178.797 26.391Z" fill="#FFB073"/>
<path d="M176.88 43.641H178.797C178.797 42.675 178.797 39.932 178.797 36.808H173.88V40.641C173.88 42.298 175.223 43.641 176.88 43.641Z" fill="#FF7445"/>
<path d="M161.512 4.83199C160.253 5.90899 160.105 7.80199 161.181 9.06099L172.158 21.967C173.234 23.227 175.128 23.375 176.388 22.299L176.953 21.816C173.39 17.41 165.588 8.38099 161.955 4.45399L161.512 4.83199Z" fill="#4F4F4F"/>
<defs>
<linearGradient id="paint0_linear_47_7" x1="90.6604" y1="40.4059" x2="90.6604" y2="54.6459" gradientUnits="userSpaceOnUse">
<stop stop-color="#EF4C76"/>
<stop offset="1" stop-color="#EF3061"/>
</linearGradient>
</defs>
</svg>
