<svg width="861" height="366" viewBox="0 0 861 366" fill="none" xmlns="http://www.w3.org/2000/svg">
<path d="M43.3969 291.441L585.029 291.441V200.211L43.3969 200.211V291.441Z" fill="#141316"/>
<path d="M608.21 131.813C608.21 131.813 593.53 134.718 592.254 131.813C590.977 128.907 468.173 73.6777 366.314 73.7002C284.616 73.7195 210.582 98.3966 139.098 152.877C139.098 152.877 45.2761 171.036 23.5765 197.185C23.5765 197.185 -4.40933 218.417 0.600443 266.193C3.75768 296.324 24.2147 297.427 51.023 296.7C51.023 296.7 40.9243 205.6 112.295 212.439C172.929 218.25 161.441 302.511 161.441 302.511H465.247C465.247 302.511 466.524 265.094 467.8 256.024C470.353 237.865 490.138 208.081 527.158 212.442C567.758 217.221 581.325 259.363 578.772 294.958C578.772 294.958 621.618 305.42 627.362 266.196L637.573 262.564C637.573 262.564 641.403 181.209 605.662 147.069L613.321 141.259L608.21 131.813Z" fill="#57599B"/>
<mask id="mask0_49_1564" style="mask-type:luminance" maskUnits="userSpaceOnUse" x="0" y="73" width="638" height="230">
<path d="M608.21 131.813C608.21 131.813 593.53 134.718 592.254 131.813C590.977 128.907 468.173 73.6777 366.314 73.7002C284.616 73.7195 210.582 98.3966 139.098 152.877C139.098 152.877 45.2761 171.036 23.5765 197.185C23.5765 197.185 -4.40933 218.417 0.600443 266.193C3.75768 296.324 24.2147 297.427 51.023 296.7C51.023 296.7 40.9243 205.6 112.295 212.439C172.929 218.25 161.441 302.511 161.441 302.511H465.247C465.247 302.511 466.524 265.094 467.8 256.024C470.353 237.865 490.138 208.081 527.158 212.442C567.758 217.221 581.325 259.363 578.772 294.958C578.772 294.958 621.618 305.42 627.362 266.196L637.573 262.564C637.573 262.564 641.403 181.209 605.662 147.069L613.321 141.259L608.21 131.813Z" fill="white"/>
</mask>
<g mask="url(#mask0_49_1564)">
<path d="M612.197 139.189C612.197 139.189 593.827 143.839 581.712 137.376C569.597 130.913 490.468 100.319 466.238 95.5812C442.009 90.8405 395.062 74.6516 331.079 83.2683C270.194 91.4673 219.771 107.643 149.352 155.905C149.352 155.905 47.4449 178.133 15.802 211.157C15.802 211.157 1.20192 245.652 2.07736 261.472L1.54081 272.181H-9.65918L2.07736 190.809L133.071 137.379L252.329 76.1943L335.242 61.9756L537.415 95.5844L593.448 118.42L618.057 121.004L612.197 139.189Z" fill="#7291DE"/>
</g>
<mask id="mask1_49_1564" style="mask-type:luminance" maskUnits="userSpaceOnUse" x="0" y="73" width="638" height="230">
<path d="M608.21 131.813C608.21 131.813 593.53 134.718 592.254 131.813C590.977 128.907 468.173 73.6777 366.314 73.7002C284.616 73.7195 210.582 98.3966 139.098 152.877C139.098 152.877 45.2761 171.036 23.5765 197.185C23.5765 197.185 -4.40933 218.417 0.600443 266.193C3.75768 296.324 24.2147 297.427 51.023 296.7C51.023 296.7 40.9243 205.6 112.295 212.439C172.929 218.25 161.441 302.511 161.441 302.511H465.247C465.247 302.511 466.524 265.094 467.8 256.024C470.353 237.865 490.138 208.081 527.158 212.442C567.758 217.221 581.325 259.363 578.772 294.958C578.772 294.958 621.618 305.42 627.362 266.196L637.573 262.564C637.573 262.564 641.403 181.209 605.662 147.069L613.321 141.259L608.21 131.813Z" fill="white"/>
</mask>
<g mask="url(#mask1_49_1564)">
<path d="M592.254 131.813C592.254 131.813 590.421 138.237 581.715 137.376C573.008 136.515 513.876 110.484 513.876 110.484C513.876 110.484 508.754 102.613 509.646 99.3125C509.646 99.3125 578.848 116.559 592.254 131.813Z" fill="#103952"/>
</g>
<mask id="mask2_49_1564" style="mask-type:luminance" maskUnits="userSpaceOnUse" x="0" y="73" width="638" height="230">
<path d="M608.21 131.813C608.21 131.813 593.53 134.718 592.254 131.813C590.977 128.907 468.173 73.6777 366.314 73.7002C284.616 73.7195 210.582 98.3966 139.098 152.877C139.098 152.877 45.2761 171.036 23.5765 197.185C23.5765 197.185 -4.40933 218.417 0.600443 266.193C3.75768 296.324 24.2147 297.427 51.023 296.7C51.023 296.7 40.9243 205.6 112.295 212.439C172.929 218.25 161.441 302.511 161.441 302.511H465.247C465.247 302.511 466.524 265.094 467.8 256.024C470.353 237.865 490.138 208.081 527.158 212.442C567.758 217.221 581.325 259.363 578.772 294.958C578.772 294.958 621.618 305.42 627.362 266.196L637.573 262.564C637.573 262.564 641.403 181.209 605.662 147.069L613.321 141.259L608.21 131.813Z" fill="white"/>
</mask>
<g mask="url(#mask2_49_1564)">
<path d="M239.46 92.563V104.628L144.063 158.942L139.098 152.877L176.234 120.142L239.46 92.563Z" fill="#103952"/>
</g>
<path d="M532.862 137.457C532.862 137.457 537.146 141.68 532.862 146.684C528.578 151.688 508.116 169.063 498.596 170.124C489.076 171.184 200.201 193.657 183.068 188.109C165.934 182.562 155.94 172.714 160.224 167.077L167.985 164.146L304.197 167.077L532.862 137.457Z" fill="#7291DE"/>
<path d="M106.927 223.955C80.2486 223.955 58.6309 248.612 58.6309 278.975C58.6309 309.338 80.2486 333.996 106.927 333.996C133.653 333.996 155.271 309.338 155.271 278.975C155.271 248.612 133.653 223.955 106.927 223.955ZM74.7615 278.975C74.7615 258.733 89.1893 242.368 106.927 242.368C124.712 242.368 139.14 258.733 139.14 278.975C139.14 299.217 124.712 315.637 106.927 315.637C89.1893 315.637 74.7615 299.217 74.7615 278.975Z" fill="#2A2530"/>
<path d="M106.927 242.368C89.1893 242.368 74.7615 258.733 74.7615 278.975C74.7615 299.217 89.1893 315.637 106.927 315.637C124.712 315.637 139.14 299.217 139.14 278.975C139.14 258.733 124.712 242.368 106.927 242.368ZM81.1465 278.975C81.1465 262.77 92.6882 249.635 106.927 249.635C121.213 249.635 132.755 262.77 132.755 278.975C132.755 295.18 121.213 308.316 106.927 308.316C92.6882 308.316 81.1465 295.18 81.1465 278.975Z" fill="#F0EAE8"/>
<path d="M106.927 249.635C92.6882 249.635 81.1465 262.77 81.1465 278.975C81.1465 295.18 92.6882 308.316 106.927 308.316C121.213 308.316 132.755 295.18 132.755 278.975C132.755 262.77 121.213 249.635 106.927 249.635Z" fill="#D3D0CF"/>
<path d="M632.99 205.677C632.99 205.677 615.786 211.491 608.593 196.408C601.401 181.328 593.448 165.383 593.448 161.938C593.448 157.608 596.659 144.264 605.656 147.066C605.656 147.066 631.451 173.923 632.99 205.677Z" fill="#E7E0DB"/>
<path d="M16.0759 223.765C16.0759 223.765 81.1521 194.007 70.6017 183.912C65.0384 178.586 11.5264 208.036 16.0759 223.765Z" fill="#E7E0DB"/>
<path opacity="0.56" d="M177.747 302.515C178.126 299.821 183.827 188.736 101.271 198.13C29.3376 206.316 38.4224 296.784 38.4224 296.784" stroke="#3C4278" stroke-miterlimit="10"/>
<path d="M530.007 137.456C530.007 137.456 504.783 162.519 493.837 162.519C482.892 162.519 194.491 182.954 181.641 177.069C168.792 171.184 162.111 166.363 162.111 166.363C162.111 166.363 272.063 92.563 365.817 92.563C446.346 92.563 530.007 137.456 530.007 137.456Z" fill="#103952"/>
<path opacity="0.56" d="M336.789 177.069L334.409 284.388H220.861C209.876 284.388 199.681 276.963 195.843 265.248C195.795 265.107 195.75 264.962 195.705 264.817C190.947 249.77 187.49 215.483 197.535 177.435" stroke="#3C4278" stroke-miterlimit="10"/>
<path d="M627.356 266.196L577.298 273.016L578.148 295.691C578.148 295.691 602.889 299.551 613.702 290.999C624.51 282.446 627.348 273.068 627.356 266.196Z" fill="#2A2730"/>
<path d="M99.3333 279.097C99.3333 283.886 102.745 287.765 106.95 287.765C111.155 287.765 114.566 283.886 114.566 279.097C114.566 274.308 111.155 270.429 106.95 270.429C102.745 270.429 99.3333 274.312 99.3333 279.097Z" fill="#7F8287"/>
<path d="M518.734 223.955C492.055 223.955 470.438 248.612 470.438 278.975C470.438 309.338 492.055 333.996 518.734 333.996C545.46 333.996 567.078 309.338 567.078 278.975C567.078 248.612 545.46 223.955 518.734 223.955ZM486.568 278.975C486.568 258.733 500.996 242.368 518.734 242.368C536.519 242.368 550.947 258.733 550.947 278.975C550.947 299.217 536.519 315.637 518.734 315.637C500.996 315.637 486.568 299.217 486.568 278.975Z" fill="#2A2530"/>
<path d="M518.734 242.368C500.996 242.368 486.568 258.733 486.568 278.975C486.568 299.217 500.996 315.637 518.734 315.637C536.519 315.637 550.947 299.217 550.947 278.975C550.947 258.733 536.519 242.368 518.734 242.368ZM492.953 278.975C492.953 262.77 504.495 249.635 518.734 249.635C533.02 249.635 544.562 262.77 544.562 278.975C544.562 295.18 533.02 308.316 518.734 308.316C504.498 308.316 492.953 295.18 492.953 278.975Z" fill="#F0EAE8"/>
<path d="M518.734 249.635C504.495 249.635 492.953 262.77 492.953 278.975C492.953 295.18 504.495 308.316 518.734 308.316C533.02 308.316 544.562 295.18 544.562 278.975C544.562 262.77 533.02 249.635 518.734 249.635Z" fill="#D3D0CF"/>
<mask id="mask3_49_1564" style="mask-type:luminance" maskUnits="userSpaceOnUse" x="162" y="92" width="369" height="87">
<path d="M530.007 137.456C530.007 137.456 504.783 162.519 493.837 162.519C482.892 162.519 194.491 182.954 181.641 177.069C168.792 171.184 162.111 166.363 162.111 166.363C162.111 166.363 272.063 92.563 365.817 92.563C446.346 92.563 530.007 137.456 530.007 137.456Z" fill="white"/>
</mask>
<g mask="url(#mask3_49_1564)">
<path d="M525.37 141.856C525.37 141.856 436.253 99.3123 366.769 99.3123C302.52 99.3123 160.224 167.076 160.224 167.076L163.556 158.945C163.556 158.945 294.906 76.9429 367.72 86.6942C440.534 96.4423 534.763 131.414 534.763 131.414L525.37 141.856Z" fill="#0B2938"/>
</g>
<path d="M217.337 137.457C217.337 140.854 201.308 178.133 201.308 178.133H191.638L204.488 142.605L217.337 137.457Z" fill="#2A2730"/>
<path opacity="0.56" d="M470.421 160.054C470.421 160.054 490.031 173.894 478.608 200.975C467.188 228.056 456.236 230.859 453.621 250.04C451.006 269.221 451.958 284.385 451.958 284.385H334.409L336.789 172.094" stroke="#3C4278" stroke-miterlimit="10"/>
<path d="M426.637 200.213H460.83V196.398C460.83 193.277 458.608 190.748 455.866 190.748H431.605C428.863 190.748 426.64 193.277 426.64 196.398V200.213H426.637Z" fill="#7291DE"/>
<path d="M293.35 200.213H327.543V196.398C327.543 193.277 325.321 190.748 322.579 190.748H298.318C295.576 190.748 293.353 193.277 293.353 196.398L293.35 200.213Z" fill="#7291DE"/>
<path d="M445.112 104.461L475.75 163.512L447.928 165.261L451.483 137.456L432.483 101.199L445.112 104.461Z" fill="#2A2730"/>
<path opacity="0.35" d="M352.067 93.0708L389.251 168.256L380.852 169.461L341.853 94.1282L352.067 93.0708Z" fill="#1E5B7A"/>
<path opacity="0.35" d="M267.067 113.271L299.335 174.199L272.848 175.571L242.79 123.122C242.79 123.122 261.278 112.895 267.067 113.271Z" fill="#1E5B7A"/>
<path opacity="0.35" d="M386.907 93.534L426.638 167.077L401.352 168.256L360.982 92.6372L386.907 93.534Z" fill="#1E5B7A"/>
<path d="M342.559 171.759L332.378 172.354L336.84 94.7325L346.783 93.5337" fill="#2A2730"/>
<path d="M511.14 278.985C511.14 283.774 514.552 287.653 518.757 287.653C522.961 287.653 526.373 283.774 526.373 278.985C526.373 274.196 522.961 270.317 518.757 270.317C514.552 270.317 511.14 274.196 511.14 278.985Z" fill="#7F8287"/>
<path d="M635.066 224.17L637.322 223.759C639.169 223.421 640.423 221.445 640.129 219.346L639.406 214.21C639.11 212.108 637.373 210.681 635.529 211.015L633.272 211.427L635.066 224.17Z" fill="#EAB042"/>
<path d="M207.063 190.041L211.398 184.931L204.488 174.958L198.549 181.427C198.549 181.427 197.366 182.347 197.035 184.825C196.216 191.031 203.231 194.553 207.063 190.041Z" fill="#2A2730"/>
<path d="M224.64 188.132C235.179 188.517 243.453 176.272 239.062 165.361C237.992 162.699 236.252 160.723 233.516 160.183C222.57 158.017 208.292 157.236 204.485 174.958C203.361 180.19 205.95 183.423 210.155 185.381C214.129 187.232 219.545 187.945 224.64 188.132Z" fill="#57599B"/>
<path d="M562.986 188.022C569.636 188.022 575.027 181.886 575.027 174.318C575.027 166.749 569.636 160.613 562.986 160.613C556.336 160.613 550.944 166.749 550.944 174.318C550.944 181.886 556.336 188.022 562.986 188.022Z" fill="#1A123D"/>
<path d="M834.601 48.374L860.757 145.794V356.867H744.25V57.8458L770.403 48.374H834.601Z" fill="#77BC9C"/>
<path d="M795.336 356.41L796.409 145.337H860.757V356.41H795.336Z" fill="#5DA581"/>
<path d="M784.091 356.867H786.997V145.543L761.431 51.6396L758.655 52.6167L784.091 146.048V356.867Z" fill="#5DA581"/>
<path d="M757.297 165.88H767.619V123.841H757.297V165.88Z" fill="#141038"/>
<path d="M834.601 48.374L821.565 76.5126H777.915L770.403 48.374H834.601Z" fill="#3E7056"/>
<path d="M821.565 76.5126L832.113 126.169L860.757 145.794L834.601 48.374L821.565 76.5126Z" fill="#5DA581"/>
<path d="M815.581 81.9702L823.963 119.622H792.797L783.207 81.9702H815.581Z" fill="#103952"/>
<path d="M860.757 145.793H796.409L790.55 123.842H831.619L860.757 145.793Z" fill="#77BC9C"/>
<path d="M804.435 86.9419H797.268L803.752 98.6184H798.742L805.576 114.65L803.297 102.774H809.902L804.435 86.9419Z" fill="#DEF4F6"/>
<path d="M795.757 146.276L770.756 52.6102C770.623 52.1088 770.705 51.5655 770.979 51.1445C771.256 50.7235 771.688 50.4761 772.148 50.4761H833.873C834.511 50.4761 835.076 50.9517 835.262 51.6459L860.41 145.312C860.545 145.816 860.463 146.359 860.189 146.78C859.915 147.201 859.483 147.449 859.02 147.449H797.149C796.505 147.449 795.941 146.973 795.757 146.276ZM832.794 53.7833H774.105L798.225 144.142H857.055L832.794 53.7833Z" fill="#5DA581"/>
<path d="M860.757 229.203H795.977V232.511H860.757V229.203Z" fill="#77BC9C"/>
<path d="M860.757 149.143H795.977V152.45H860.757V149.143Z" fill="#77BC9C"/>
<path d="M785.545 229.203H744.25V232.511H785.545V229.203Z" fill="#5DA581"/>
<path d="M647.121 365.181H672.67C708.622 365.181 737.871 330.377 737.871 287.595V199.371C737.871 168.597 744.643 155.857 750.327 150.589C756.181 145.157 761.914 146.424 762.157 146.481L762.764 143.245C762.473 143.171 755.529 141.558 748.568 147.953C739.542 156.245 734.965 173.547 734.965 199.371V287.595C734.965 328.551 707.018 361.874 672.67 361.874H647.121C612.773 361.874 584.827 328.551 584.827 287.595V196.604C584.827 195.623 584.68 172.666 571.867 172.666V175.973C581.805 175.973 581.921 196.398 581.921 196.604V287.595C581.921 330.374 611.169 365.181 647.121 365.181Z" fill="#1A123D"/>
<path d="M391.803 42.1195H320.029C316.606 42.1195 313.822 38.9505 313.822 35.0551V7.06437C313.822 3.169 316.606 0 320.029 0H392.306C395.729 0 398.513 3.169 398.513 7.06437V9.34952C398.513 11.1269 399.781 12.5668 401.337 12.5668C404.76 12.5668 407.544 15.7358 407.544 19.6311V24.2014C407.544 28.0968 404.76 31.2658 401.337 31.2658H400.835C399.273 31.2658 398.008 32.7089 398.008 34.483V35.0551C398.008 38.9505 395.226 42.1195 391.803 42.1195ZM320.029 3.84723C318.47 3.84723 317.202 5.29024 317.202 7.06437V35.0551C317.202 36.8325 318.47 38.2724 320.029 38.2724H391.803C393.359 38.2724 394.627 36.8293 394.627 35.0551V34.483C394.627 30.5877 397.412 27.4187 400.835 27.4187H401.337C402.899 27.4187 404.164 25.9755 404.164 24.2014V19.6311C404.164 17.8538 402.896 16.4139 401.337 16.4139C397.915 16.4139 395.133 13.2449 395.133 9.34952V7.06437C395.133 5.28702 393.865 3.84723 392.306 3.84723H320.029Z" fill="#EEF0F1"/>
<path d="M386.935 8.78076L374.388 33.3422H390.095V8.78076H386.935Z" fill="#FF7C6E"/>
</svg>
