<svg width="22034" height="12609" viewBox="0 0 22034 12609" fill="none" xmlns="http://www.w3.org/2000/svg">
<path d="M7 6008.25C7 6008.25 484.282 5632.95 757.5 5642C1016.88 5650.59 1312 6008.25 1312 6008.25C1312 6008.25 1726.1 6373.85 2022 6314C2227.42 6272.46 2471.62 6184.83 2704.04 6008.25C2894.75 5863.36 2885.15 5620.35 3115 5553C3440.64 5457.6 3468.27 6056.13 3806 6218C4113.87 6365.56 4407.91 6353.66 4669.5 6354.5C4932.5 6355.35 5192.44 6190.06 5488.13 6008.25C5755.39 5843.92 5841.22 5524.97 6108.87 5498.25C6412.23 5467.98 6880.17 6008.25 6880.17 6008.25C6880.17 6008.25 7204.99 6213.27 7437.5 6218C7683.35 6223.01 8272.21 6008.25 8272.21 6008.25C8272.21 6008.25 8584.62 5802.52 8811 5793C9064.22 5782.36 9664.26 6008.25 9664.26 6008.25C9664.26 6008.25 10013.1 6223.44 10259.5 6218C10491.4 6212.88 11056.3 6008.25 11056.3 6008.25C11056.3 6008.25 11425 5777.66 11683.5 5793C11904.3 5806.1 12448.3 6008.25 12448.3 6008.25C12448.3 6008.25 13038.9 5847.99 13264 5893C13489.1 5938.01 13615.3 5963.24 13840.4 6008.25C13840.4 6008.25 14424.2 6175.96 14659 6175.5C14892.3 6175.05 15232.4 6008.25 15232.4 6008.25C15232.4 6008.25 15396.3 5843.86 15536 5793C15853.2 5677.56 16262.5 5999.5 16262.5 5999.5C16262.5 5999.5 16436.4 6270.3 16616 6320.5C16900.8 6400.13 16978.6 5930.3 17274 5945.5C17527.5 5958.55 17585.6 6223.34 17834 6275.5C18100.8 6331.53 18262.7 6250.06 18525 6175.5C18790.2 6100.12 18896.3 5892.33 19172 5893C19466.2 5893.71 19557.6 6206.34 19851.5 6218C20172.3 6230.72 20285.7 5882.69 20606.5 5893C20931.6 5903.46 21021.4 6287.09 21346.5 6275.5C21650.8 6264.65 22026 5893 22026 5893" stroke="white" stroke-width="20"/>
<path d="M5704.64 5321.56L4468.87 6058.15L4589.89 6261.18L5825.65 5524.59L5704.64 5321.56Z" fill="#141316"/>
<path d="M4325.26 5937.46C4325.26 5937.46 4362.61 5923.95 4361.66 5915.76C4360.72 5907.55 4567.65 5617.64 4800.08 5479.17C4986.5 5368.11 5188.15 5322.35 5423.51 5346.37C5423.51 5346.37 5661.66 5259.19 5745.86 5287.87C5745.86 5287.87 5837.88 5297.07 5889.82 5410.2C5922.59 5481.55 5877.38 5511.82 5815.25 5546.67C5815.25 5546.67 5717.45 5330.19 5563.69 5442.48C5433.06 5537.87 5571.04 5709.76 5571.04 5709.76L4877.89 6122.92C4877.89 6122.92 4825.34 6041.38 4810.39 6022.94C4780.47 5986 4695.82 5946.62 4617.14 6006.67C4530.86 6072.52 4555.8 6184.75 4608.84 6260.5C4608.84 6260.5 4524.97 6342.05 4459.83 6262.57L4431.71 6268.37C4431.71 6268.37 4315.05 6092.53 4351.32 5967.94L4326.14 5965.42L4325.26 5937.46Z" fill="#57599B"/>
<mask id="mask0_130_446" style="mask-type:luminance" maskUnits="userSpaceOnUse" x="4325" y="5282" width="1576" height="1016">
<path d="M4325.26 5937.46C4325.26 5937.46 4362.61 5923.95 4361.66 5915.76C4360.72 5907.55 4567.65 5617.64 4800.08 5479.17C4986.5 5368.11 5188.15 5322.35 5423.51 5346.37C5423.51 5346.37 5661.66 5259.19 5745.86 5287.87C5745.86 5287.87 5837.88 5297.07 5889.82 5410.2C5922.59 5481.55 5877.38 5511.82 5815.25 5546.67C5815.25 5546.67 5717.45 5330.19 5563.69 5442.48C5433.06 5537.87 5571.04 5709.76 5571.04 5709.76L4877.89 6122.92C4877.89 6122.92 4825.34 6041.38 4810.39 6022.94C4780.47 5986 4695.82 5946.62 4617.14 6006.67C4530.86 6072.52 4555.8 6184.75 4608.84 6260.5C4608.84 6260.5 4524.97 6342.05 4459.83 6262.57L4431.71 6268.37C4431.71 6268.37 4315.05 6092.53 4351.32 5967.94L4326.14 5965.42L4325.26 5937.46Z" fill="white"/>
</mask>
<g mask="url(#mask0_130_446)">
<path d="M4325.94 5959.31C4325.94 5959.31 4374.01 5944.67 4393.08 5913.82C4412.15 5882.96 4552.1 5707.26 4601.1 5663.76C4650.1 5620.27 4735.74 5520.39 4893.15 5452.55C5042.94 5388 5179.43 5355.43 5404.12 5367.07C5404.12 5367.07 5666.1 5277.95 5782.1 5308.4C5782.1 5308.4 5861.18 5365.32 5880.16 5401.72L5895.58 5424.82L5921.14 5409.59L5786.42 5244.46L5416.66 5303.69L5063.42 5329.71L4855.38 5410.82L4438.69 5760.55L4341.15 5887.57L4288.43 5926.8L4325.94 5959.31Z" fill="#BB3DC6"/>
</g>
<mask id="mask1_130_446" style="mask-type:luminance" maskUnits="userSpaceOnUse" x="4325" y="5282" width="1576" height="1016">
<path d="M4325.26 5937.46C4325.26 5937.46 4362.61 5923.95 4361.66 5915.76C4360.72 5907.55 4567.65 5617.64 4800.08 5479.17C4986.5 5368.11 5188.15 5322.35 5423.51 5346.37C5423.51 5346.37 5661.66 5259.19 5745.86 5287.87C5745.86 5287.87 5837.88 5297.07 5889.82 5410.2C5922.59 5481.55 5877.38 5511.82 5815.25 5546.67C5815.25 5546.67 5717.45 5330.19 5563.69 5442.48C5433.06 5537.87 5571.04 5709.76 5571.04 5709.76L4877.89 6122.92C4877.89 6122.92 4825.34 6041.38 4810.39 6022.94C4780.47 5986 4695.82 5946.62 4617.14 6006.67C4530.86 6072.52 4555.8 6184.75 4608.84 6260.5C4608.84 6260.5 4524.97 6342.05 4459.83 6262.57L4431.71 6268.37C4431.71 6268.37 4315.05 6092.53 4351.32 5967.94L4326.14 5965.42L4325.26 5937.46Z" fill="white"/>
</mask>
<g mask="url(#mask1_130_446)">
<path d="M4361.65 5915.77C4361.65 5915.77 4374.36 5927.58 4393.08 5913.81C4411.8 5900.06 4512.19 5761.7 4512.19 5761.7C4512.19 5761.7 4513.43 5737.21 4507.01 5731.09C4507.01 5731.09 4372.01 5863.59 4361.65 5915.77Z" fill="#A8C4D6"/>
</g>
<mask id="mask2_130_446" style="mask-type:luminance" maskUnits="userSpaceOnUse" x="4325" y="5282" width="1576" height="1016">
<path d="M4325.26 5937.46C4325.26 5937.46 4362.61 5923.95 4361.66 5915.76C4360.72 5907.55 4567.65 5617.64 4800.08 5479.17C4986.5 5368.11 5188.15 5322.35 5423.51 5346.37C5423.51 5346.37 5661.66 5259.19 5745.86 5287.87C5745.86 5287.87 5837.88 5297.07 5889.82 5410.2C5922.59 5481.55 5877.38 5511.82 5815.25 5546.67C5815.25 5546.67 5717.45 5330.19 5563.69 5442.48C5433.06 5537.87 5571.04 5709.76 5571.04 5709.76L4877.89 6122.92C4877.89 6122.92 4825.34 6041.38 4810.39 6022.94C4780.47 5986 4695.82 5946.62 4617.14 6006.67C4530.86 6072.52 4555.8 6184.75 4608.84 6260.5C4608.84 6260.5 4524.97 6342.05 4459.83 6262.57L4431.71 6268.37C4431.71 6268.37 4315.05 6092.53 4351.32 5967.94L4326.14 5965.42L4325.26 5937.46Z" fill="white"/>
</mask>
<g mask="url(#mask2_130_446)">
<path d="M5114.52 5348.64L5130.53 5375.49L5420.23 5366.63L5423.5 5346.37L5295.36 5324.02L5114.52 5348.64Z" fill="#A8C4D6"/>
</g>
<path d="M4504.64 5847.55C4504.64 5847.55 4500.47 5862.78 4516.88 5868.09C4533.28 5873.41 4603.02 5884.24 4626.15 5873.66C4649.27 5863.08 5338.17 5520.23 5369.9 5484.58C5401.62 5448.94 5411.37 5413.44 5394.11 5406.71L5372.52 5410.74L5065.63 5602.5L4504.64 5847.55Z" fill="#7291DE"/>
<path d="M5591.18 5460.81C5652.05 5424.53 5734.07 5450 5774.35 5517.57C5814.63 5585.15 5798 5669.42 5737.15 5705.69C5676.17 5742.04 5594.15 5716.57 5553.87 5648.99C5513.59 5581.42 5530.2 5497.16 5591.18 5460.81ZM5737.55 5539.51C5710.71 5494.46 5656.07 5477.66 5615.61 5501.78C5575.03 5525.97 5563.82 5582.02 5590.67 5627.06C5617.52 5672.1 5672.22 5689.03 5712.8 5664.84C5753.26 5640.72 5764.4 5584.55 5737.55 5539.51Z" fill="#2A2530"/>
<path d="M5615.6 5501.78C5656.07 5477.66 5710.7 5494.47 5737.55 5539.51C5764.4 5584.55 5753.26 5640.72 5712.8 5664.84C5672.22 5689.03 5617.52 5672.1 5590.67 5627.06C5563.82 5582.02 5575.03 5525.97 5615.6 5501.78ZM5722.98 5548.19C5701.49 5512.14 5657.73 5498.6 5625.25 5517.96C5592.66 5537.39 5583.75 5582.32 5605.24 5618.38C5626.73 5654.43 5670.49 5667.97 5703.08 5648.54C5735.57 5629.18 5744.47 5584.25 5722.98 5548.19Z" fill="#F0EAE8"/>
<path d="M5625.25 5517.96C5657.73 5498.59 5701.49 5512.13 5722.98 5548.19C5744.47 5584.25 5735.56 5629.18 5703.08 5648.54C5670.49 5667.97 5626.73 5654.43 5605.24 5618.37C5583.74 5582.31 5592.65 5537.38 5625.25 5517.96Z" fill="#D3D0CF"/>
<path d="M4366.69 6135.54C4366.69 6135.54 4413.66 6125.08 4410.06 6081.74C4406.46 6038.4 4403.46 5992.11 4398.88 5984.43C4393.13 5974.79 4368.11 5949.46 4351.31 5967.94C4351.31 5967.94 4328.08 6062.79 4366.69 6135.54Z" fill="#E7E0DB"/>
<path d="M5798.21 5336.85C5798.21 5336.85 5610.26 5359.12 5620.94 5322.31C5626.57 5302.88 5787.73 5295.64 5798.21 5336.85Z" fill="#E7E0DB"/>
<g opacity="0.56">
<path d="M5529.27 5735.87C5528.43 5734.82 5447.67 5617.4 5465.36 5512.32C5474.6 5457.41 5508.77 5416.11 5566.97 5389.66C5617.05 5366.87 5665.97 5365.41 5712.35 5385.3C5800.29 5423.01 5847.61 5523.09 5849.57 5527.33L5838.59 5532.13C5838.14 5531.15 5791.55 5432.72 5708.55 5397.18C5665.44 5378.72 5619.73 5380.21 5572.7 5401.62C5518.87 5426.11 5486.99 5463.75 5477.89 5513.46C5459.65 5613.12 5537.59 5727.03 5538.38 5728.08L5529.27 5735.87Z" fill="#3C4278"/>
</g>
<path d="M4511.15 5843.66C4511.15 5843.66 4601.94 5865.14 4626.92 5850.26C4651.9 5835.37 5337.01 5488.64 5358.52 5458.07C5380.03 5427.5 5388.87 5407.68 5388.87 5407.68C5388.87 5407.68 5040.12 5392.96 4826.21 5520.46C4642.49 5629.99 4511.15 5843.66 4511.15 5843.66Z" fill="#103952"/>
<g opacity="0.56">
<path d="M5414.8 5755.94L5150.73 5913.33L4999.51 5672.27L5009.61 5665.86L5153.96 5895.98L5408.02 5744.54C5431.47 5730.57 5443.17 5702.41 5437.12 5674.5C5429.39 5640.54 5395.07 5558.84 5318.84 5485.07L5326.71 5475.93C5395.08 5542.08 5437.93 5623.69 5448.85 5671.52C5456.29 5706 5442.51 5739.42 5414.8 5755.94Z" fill="#3C4278"/>
</g>
<path d="M4459.82 6262.56L4583.07 6209.66L4611.22 6261.27C4611.22 6261.27 4559.89 6303.5 4523.87 6299.17C4487.87 6294.86 4468.97 6277.85 4459.82 6262.56Z" fill="#2A2730"/>
<path d="M5675.77 5602.84C5685.37 5597.12 5688 5583.85 5681.65 5573.2C5675.3 5562.55 5662.38 5558.55 5652.78 5564.27C5643.19 5569.99 5640.56 5583.26 5646.91 5593.91C5653.25 5604.56 5666.18 5608.56 5675.77 5602.84Z" fill="#7F8287"/>
<path d="M4651.62 6020.85C4712.49 5984.56 4794.51 6010.04 4834.79 6077.61C4875.06 6145.18 4858.45 6229.45 4797.58 6265.73C4736.6 6302.07 4654.58 6276.6 4614.31 6209.03C4574.03 6141.46 4590.64 6057.19 4651.62 6020.85ZM4797.99 6099.54C4771.14 6054.5 4716.51 6037.7 4676.04 6061.82C4635.47 6086 4624.26 6142.05 4651.1 6187.1C4677.95 6232.14 4732.66 6249.06 4773.23 6224.88C4813.71 6200.75 4824.84 6144.59 4797.99 6099.54Z" fill="#2A2530"/>
<path d="M4676.04 6061.82C4716.52 6037.69 4771.14 6054.5 4797.99 6099.54C4824.84 6144.59 4813.7 6200.76 4773.23 6224.88C4732.66 6249.06 4677.95 6232.14 4651.1 6187.1C4624.25 6142.05 4635.47 6086 4676.04 6061.82ZM4783.42 6108.23C4761.92 6072.17 4718.17 6058.63 4685.68 6078C4653.09 6097.42 4644.18 6142.35 4665.68 6178.41C4687.17 6214.47 4730.93 6228.01 4763.52 6208.58C4796 6189.22 4804.91 6144.29 4783.42 6108.23Z" fill="#F0EAE8"/>
<path d="M4685.68 6077.99C4718.16 6058.63 4761.92 6072.17 4783.41 6108.23C4804.91 6144.28 4796 6189.21 4763.52 6208.57C4730.92 6228 4687.17 6214.46 4665.67 6178.41C4644.18 6142.35 4653.09 6097.42 4685.68 6077.99Z" fill="#D3D0CF"/>
<mask id="mask3_130_446" style="mask-type:luminance" maskUnits="userSpaceOnUse" x="4511" y="5407" width="878" height="449">
<path d="M4511.15 5843.66C4511.15 5843.66 4601.94 5865.14 4626.92 5850.26C4651.9 5835.37 5337.01 5488.64 5358.52 5458.07C5380.03 5427.5 5388.87 5407.68 5388.87 5407.68C5388.87 5407.68 5040.12 5392.96 4826.21 5520.46C4642.49 5629.99 4511.15 5843.66 4511.15 5843.66Z" fill="white"/>
</mask>
<g mask="url(#mask3_130_446)">
<path d="M4527.57 5847.17C4527.57 5847.17 4674.47 5631.3 4832.99 5536.81C4979.58 5449.43 5394.12 5406.72 5394.12 5406.72L5375.73 5393.15C5375.73 5393.15 4967.26 5389.29 4814.07 5510.01C4660.88 5630.73 4492.27 5836.7 4492.27 5836.7L4527.57 5847.17Z" fill="#0B2938"/>
</g>
<path d="M5224.54 5418.45C5229.04 5426.01 5315.06 5487.18 5315.06 5487.18L5337.12 5474.02L5260.68 5412.43L5224.54 5418.45Z" fill="#2A2730"/>
<g opacity="0.56">
<path d="M5160.99 5907.21L4882.01 6073.5L4878.76 6067.16C4878.59 6066.82 4860.75 6032.27 4830.21 5994.24C4814.18 5974.27 4799.03 5967.65 4778.05 5958.49C4760.33 5950.75 4738.29 5941.12 4709.5 5920.35C4643.53 5872.74 4671.19 5810.31 4671.46 5809.69L4682.66 5816.13C4681.68 5818.28 4659.49 5869.25 4715.83 5909.89C4743.41 5929.81 4763.84 5938.73 4781.86 5946.6C4803.78 5956.18 4821.08 5963.72 4839.31 5986.44C4863.36 6016.4 4879.49 6043.7 4886.1 6055.6L5143.65 5902.08L4992.86 5661.18L5002.96 5654.77L5160.99 5907.21Z" fill="#3C4278"/>
</g>
<path d="M4830.24 5842.75L4752.22 5889.25C4745.29 5877.62 4748.16 5863.13 4758.64 5856.88L4798.7 5833C4809.19 5826.75 4823.31 5831.12 4830.24 5842.75Z" fill="#7291DE"/>
<path d="M5134.34 5661.49L5056.32 5707.99C5049.39 5696.36 5052.26 5681.87 5062.74 5675.62L5102.8 5651.74C5113.29 5645.49 5127.41 5649.86 5134.34 5661.49Z" fill="#7291DE"/>
<path d="M4661.09 5654.79L4669.51 5827.87L4735.32 5793.93L4690.31 5736.88L4685.57 5630.36L4661.09 5654.79Z" fill="#2A2730"/>
<g opacity="0.35">
<path d="M4858.26 5502.9L4873.16 5720.79L4893.92 5712.06L4882.97 5491.38L4858.26 5502.9Z" fill="#1E5B7A"/>
</g>
<g opacity="0.35">
<path d="M5078.99 5432.27L5086.19 5611.75L5148.44 5578.78L5147.44 5421.17C5147.44 5421.17 5091.7 5423.56 5078.99 5432.27Z" fill="#1E5B7A"/>
</g>
<g opacity="0.35">
<path d="M4779.39 5551.31L4786.3 5769.01L4845.55 5737.25L4837.34 5514.06L4779.39 5551.31Z" fill="#1E5B7A"/>
</g>
<path d="M4984.35 5665.09L5008.35 5652.57L4895.21 5485.9L4870.93 5496.75" fill="#2A2730"/>
<path d="M4736.06 6162.62C4745.65 6156.9 4748.28 6143.63 4741.93 6132.98C4735.59 6122.33 4722.66 6118.33 4713.07 6124.05C4703.47 6129.77 4700.84 6143.04 4707.19 6153.69C4713.54 6164.34 4726.46 6168.34 4736.06 6162.62Z" fill="#7F8287"/>
<path d="M4386.49 6179.53C4378.68 6182.47 4369.49 6177.98 4365.96 6169.47C4362.43 6160.96 4365.88 6151.68 4373.68 6148.74L4386.49 6179.53Z" fill="#EAB042"/>
<path d="M5317.73 5521.5L5301.06 5516.03L5303.6 5484.44L5325.73 5490.76C5325.73 5490.76 5329.66 5491.2 5333.69 5496.27C5343.79 5508.97 5332.46 5526.34 5317.73 5521.5Z" fill="#2A2730"/>
<path d="M5275.08 5541.16C5251.54 5556.35 5216.43 5540.35 5211.97 5510.1C5210.88 5502.73 5212.22 5495.97 5217.75 5491.04C5239.86 5471.33 5271.39 5450.19 5303.59 5484.44C5313.1 5494.56 5311.48 5505.27 5304.48 5515.35C5297.88 5524.87 5286.47 5533.83 5275.08 5541.16Z" fill="#57599B"/>
<path d="M19475.5 5466.06L18097.7 5880.01L18165.7 6106.37L19543.5 5692.43L19475.5 5466.06Z" fill="#141316"/>
<path d="M17987.8 5728.02C17987.8 5728.02 18027.3 5724 18028.4 5715.82C18029.5 5707.63 18300.7 5476.75 18559.8 5398.96C18767.6 5336.57 18974.4 5341.22 19196.8 5421.76C19196.8 5421.76 19449 5395.11 19523.7 5443.41C19523.7 5443.41 19610.7 5474.71 19633.6 5597.08C19648 5674.25 19596.8 5692.63 19528.1 5711.31C19528.1 5711.31 19485.9 5477.55 19309.4 5549.07C19159.5 5609.83 19251.5 5810.12 19251.5 5810.12L18478.7 6042.31C18478.7 6042.31 18447.6 5950.44 18437.6 5928.91C18417.5 5885.81 18345 5827.03 18254.1 5866.14C18154.4 5909.03 18151.3 6023.95 18184.3 6110.33C18184.3 6110.33 18083.1 6169.03 18039.3 6076.1L18010.6 6074.89C18010.6 6074.89 17940.2 5875.95 18005.7 5763.93L17981.8 5755.36L17987.8 5728.02Z" fill="#57599B"/>
<mask id="mask4_130_446" style="mask-type:luminance" maskUnits="userSpaceOnUse" x="17977" y="5356" width="1660" height="773">
<path d="M17987.8 5728.02C17987.8 5728.02 18027.3 5724 18028.4 5715.82C18029.5 5707.63 18300.7 5476.75 18559.8 5398.96C18767.6 5336.57 18974.4 5341.22 19196.8 5421.76C19196.8 5421.76 19449 5395.11 19523.7 5443.41C19523.7 5443.41 19610.7 5474.71 19633.6 5597.08C19648 5674.25 19596.8 5692.63 19528.1 5711.31C19528.1 5711.31 19485.9 5477.55 19309.4 5549.07C19159.5 5609.83 19251.5 5810.12 19251.5 5810.12L18478.7 6042.31C18478.7 6042.31 18447.6 5950.44 18437.6 5928.91C18417.5 5885.81 18345 5827.03 18254.1 5866.14C18154.4 5909.03 18151.3 6023.95 18184.3 6110.33C18184.3 6110.33 18083.1 6169.03 18039.3 6076.1L18010.6 6074.89C18010.6 6074.89 17940.2 5875.95 18005.7 5763.93L17981.8 5755.36L17987.8 5728.02Z" fill="white"/>
</mask>
<g mask="url(#mask4_130_446)">
<path d="M17983.1 5749.38C17983.1 5749.38 18033.3 5746.87 18059.3 5721.59C18085.3 5696.29 18263.8 5559.9 18321.9 5529.63C18380 5499.35 18487.4 5423.3 18656.6 5395.78C18817.5 5369.6 18957.9 5371.19 19173 5437.12C19173 5437.12 19448.8 5414.39 19553.9 5472.14C19553.9 5472.14 19616.7 5546.58 19626.3 5586.5L19635.6 5612.66L19664.1 5604.11L19573.6 5411.16L19200.6 5378.7L18851.6 5318.03L18630.1 5346.11L18140.8 5584.01L18015.3 5683.5L17954.7 5708.72L17983.1 5749.38Z" fill="#BB3DC6"/>
</g>
<mask id="mask5_130_446" style="mask-type:luminance" maskUnits="userSpaceOnUse" x="17977" y="5356" width="1660" height="773">
<path d="M17987.8 5728.02C17987.8 5728.02 18027.3 5724 18028.4 5715.82C18029.5 5707.63 18300.7 5476.75 18559.8 5398.96C18767.6 5336.57 18974.4 5341.22 19196.8 5421.76C19196.8 5421.76 19449 5395.11 19523.7 5443.41C19523.7 5443.41 19610.7 5474.71 19633.6 5597.08C19648 5674.25 19596.8 5692.63 19528.1 5711.31C19528.1 5711.31 19485.9 5477.55 19309.4 5549.07C19159.5 5609.83 19251.5 5810.12 19251.5 5810.12L18478.7 6042.31C18478.7 6042.31 18447.6 5950.44 18437.6 5928.91C18417.5 5885.81 18345 5827.03 18254.1 5866.14C18154.4 5909.03 18151.3 6023.95 18184.3 6110.33C18184.3 6110.33 18083.1 6169.03 18039.3 6076.1L18010.6 6074.89C18010.6 6074.89 17940.2 5875.95 18005.7 5763.93L17981.8 5755.36L17987.8 5728.02Z" fill="white"/>
</mask>
<g mask="url(#mask5_130_446)">
<path d="M18028.4 5715.83C18028.4 5715.83 18037.8 5730.38 18059.3 5721.57C18080.8 5712.79 18211.8 5603 18211.8 5603C18211.8 5603 18219 5579.55 18214.3 5572.05C18214.3 5572.05 18051.1 5667.74 18028.4 5715.83Z" fill="#A8C4D6"/>
</g>
<mask id="mask6_130_446" style="mask-type:luminance" maskUnits="userSpaceOnUse" x="17977" y="5356" width="1660" height="773">
<path d="M17987.8 5728.02C17987.8 5728.02 18027.3 5724 18028.4 5715.82C18029.5 5707.63 18300.7 5476.75 18559.8 5398.96C18767.6 5336.57 18974.4 5341.22 19196.8 5421.76C19196.8 5421.76 19449 5395.11 19523.7 5443.41C19523.7 5443.41 19610.7 5474.71 19633.6 5597.08C19648 5674.25 19596.8 5692.63 19528.1 5711.31C19528.1 5711.31 19485.9 5477.55 19309.4 5549.07C19159.5 5609.83 19251.5 5810.12 19251.5 5810.12L18478.7 6042.31C18478.7 6042.31 18447.6 5950.44 18437.6 5928.91C18417.5 5885.81 18345 5827.03 18254.1 5866.14C18154.4 5909.03 18151.3 6023.95 18184.3 6110.33C18184.3 6110.33 18083.1 6169.03 18039.3 6076.1L18010.6 6074.89C18010.6 6074.89 17940.2 5875.95 18005.7 5763.93L17981.8 5755.36L17987.8 5728.02Z" fill="white"/>
</mask>
<g mask="url(#mask6_130_446)">
<path d="M18896.6 5348.82L18905.5 5378.76L19188.7 5440.61L19196.8 5421.76L19077.9 5368.92L18896.6 5348.82Z" fill="#A8C4D6"/>
</g>
<path d="M18183.6 5684.44C18183.6 5684.44 18175.9 5698.2 18190.5 5707.33C18205.1 5716.48 18270.2 5743.95 18295.2 5739.31C18320.2 5734.67 19071.8 5569.65 19111.2 5542.79C19150.6 5515.93 19168.7 5483.86 19153.6 5473.14L19131.7 5471.79L18787.4 5583.17L18183.6 5684.44Z" fill="#7291DE"/>
<path d="M19331.6 5573.54C19399.5 5553.15 19472.9 5597.81 19495.5 5673.15C19518.1 5748.49 19481.5 5826.18 19413.7 5846.57C19345.7 5867 19272.3 5822.34 19249.7 5747C19227 5671.66 19263.6 5593.97 19331.6 5573.54ZM19454.5 5685.47C19439.4 5635.25 19390.5 5605.67 19345.4 5619.22C19300.1 5632.82 19275.6 5684.46 19290.7 5734.68C19305.8 5784.9 19354.7 5814.62 19400 5801.03C19445.1 5787.47 19469.6 5735.69 19454.5 5685.47Z" fill="#2A2530"/>
<path d="M19345.3 5619.22C19390.5 5605.67 19439.4 5635.25 19454.5 5685.47C19469.5 5735.69 19445.1 5787.47 19400 5801.03C19354.7 5814.62 19305.8 5784.9 19290.7 5734.68C19275.6 5684.46 19300.1 5632.82 19345.3 5619.22ZM19438.2 5690.36C19426.1 5650.15 19387 5626.38 19350.8 5637.26C19314.4 5648.18 19294.9 5689.59 19306.9 5729.8C19319 5770 19358.2 5793.77 19394.5 5782.85C19430.7 5771.97 19450.3 5730.56 19438.2 5690.36Z" fill="#F0EAE8"/>
<path d="M19350.8 5637.26C19387 5626.38 19426.1 5650.15 19438.2 5690.35C19450.3 5730.55 19430.7 5771.97 19394.5 5782.85C19358.2 5793.77 19319 5769.99 19306.9 5729.79C19294.9 5689.59 19314.4 5648.17 19350.8 5637.26Z" fill="#D3D0CF"/>
<path d="M17979.8 5930.23C17979.8 5930.23 18027.9 5931.51 18035 5888.59C18042 5845.67 18050.3 5800.04 18047.8 5791.48C18044.5 5780.74 18026.4 5750.08 18005.6 5763.92C18005.6 5763.92 17960 5850.27 17979.8 5930.23Z" fill="#E7E0DB"/>
<path d="M19562.6 5503.65C19562.6 5503.65 19374.9 5479.54 19394.2 5446.44C19404.4 5428.96 19562.4 5461.13 19562.6 5503.65Z" fill="#E7E0DB"/>
<g opacity="0.56">
<path d="M19204.7 5825.29C19204.1 5824.07 19154.3 5690.54 19197.1 5592.91C19219.4 5541.89 19262.6 5510.14 19325.4 5498.64C19379.6 5488.72 19427.4 5499.2 19467.5 5529.76C19543.6 5587.73 19565.2 5696.32 19566.1 5700.9L19554.3 5702.89C19554.1 5701.82 19532.8 5595.02 19460.9 5540.37C19423.6 5511.97 19378.9 5502.3 19328.1 5511.64C19269.9 5522.3 19229.8 5551.05 19208.9 5597.06C19167 5689.29 19214.9 5818.74 19215.4 5819.95L19204.7 5825.29Z" fill="#3C4278"/>
</g>
<path d="M18190.9 5682.25C18190.9 5682.25 18273.8 5725.16 18301.6 5716.8C18329.4 5708.43 19078.3 5538.72 19106.6 5514.3C19134.9 5489.88 19148.3 5472.8 19148.3 5472.8C19148.3 5472.8 18813.6 5373.72 18575.1 5445.37C18370.3 5506.93 18190.9 5682.25 18190.9 5682.25Z" fill="#103952"/>
<g opacity="0.56">
<path d="M19088.8 5816.91L18794.3 5905.37L18706.3 5634.76L18717.6 5631L18801.7 5889.32L19085 5804.21C19111.1 5796.36 19129.3 5771.89 19130.2 5743.35C19131 5708.53 19117.6 5620.94 19061.6 5530.84L19071.4 5523.89C19121.7 5604.68 19143.4 5694.27 19142.3 5743.31C19141.2 5778.57 19119.7 5807.63 19088.8 5816.91Z" fill="#3C4278"/>
</g>
<path d="M18039.2 6076.08L18171.7 6054.74L18186.4 6111.65C18186.4 6111.65 18126.4 6140.13 18092.5 6127.17C18058.6 6114.23 18044.4 6093.14 18039.2 6076.08Z" fill="#2A2730"/>
<path d="M19379.1 5731.88C19389.8 5728.67 19395.6 5716.44 19392 5704.56C19388.5 5692.69 19376.9 5685.66 19366.2 5688.88C19355.5 5692.09 19349.7 5704.32 19353.3 5716.2C19356.9 5728.07 19368.4 5735.09 19379.1 5731.88Z" fill="#7F8287"/>
<path d="M18284.1 5888.27C18351.9 5867.88 18425.3 5912.54 18447.9 5987.88C18470.6 6063.21 18434 6140.91 18366.1 6161.3C18298.1 6181.72 18224.8 6137.07 18202.1 6061.73C18179.5 5986.39 18216.1 5908.7 18284.1 5888.27ZM18406.9 6000.2C18391.8 5949.98 18342.9 5920.4 18297.8 5933.95C18252.6 5947.54 18228.1 5999.18 18243.1 6049.4C18258.2 6099.63 18307.2 6129.35 18352.4 6115.75C18397.5 6102.19 18422 6050.42 18406.9 6000.2Z" fill="#2A2530"/>
<path d="M18297.8 5933.95C18342.9 5920.39 18391.8 5949.98 18406.9 6000.2C18422 6050.42 18397.5 6102.2 18352.4 6115.75C18307.2 6129.35 18258.2 6099.63 18243.1 6049.41C18228.1 5999.18 18252.6 5947.54 18297.8 5933.95ZM18390.7 6005.08C18378.6 5964.88 18339.4 5941.11 18303.2 5951.99C18266.9 5962.91 18247.3 6004.32 18259.4 6044.52C18271.5 6084.73 18310.6 6108.5 18347 6097.58C18383.2 6086.7 18402.7 6045.29 18390.7 6005.08Z" fill="#F0EAE8"/>
<path d="M18303.2 5951.98C18339.4 5941.1 18378.6 5964.88 18390.7 6005.08C18402.7 6045.28 18383.2 6086.7 18347 6097.58C18310.6 6108.49 18271.5 6084.72 18259.4 6044.52C18247.3 6004.32 18266.9 5962.9 18303.2 5951.98Z" fill="#D3D0CF"/>
<mask id="mask7_130_446" style="mask-type:luminance" maskUnits="userSpaceOnUse" x="18190" y="5419" width="959" height="299">
<path d="M18190.9 5682.25C18190.9 5682.25 18273.8 5725.16 18301.6 5716.8C18329.4 5708.43 19078.3 5538.72 19106.6 5514.3C19134.9 5489.88 19148.3 5472.8 19148.3 5472.8C19148.3 5472.8 18813.6 5373.72 18575.1 5445.37C18370.3 5506.93 18190.9 5682.25 18190.9 5682.25Z" fill="white"/>
</mask>
<g mask="url(#mask7_130_446)">
<path d="M18206 5689.64C18206 5689.64 18401 5515.97 18577.7 5462.87C18741.2 5413.77 19153.6 5473.16 19153.6 5473.16L19139.1 5455.52C19139.1 5455.52 18743.8 5352.44 18565.9 5432.28C18387.9 5512.12 18174.3 5670.9 18174.3 5670.9L18206 5689.64Z" fill="#0B2938"/>
</g>
<path d="M18986.3 5443.29C18988.8 5451.72 19057.4 5531.97 19057.4 5531.97L19082 5524.58L19022.8 5446.24L18986.3 5443.29Z" fill="#2A2730"/>
<g opacity="0.56">
<path d="M18805.8 5901.93L18494.7 5995.38L18493.1 5988.44C18493.1 5988.06 18484.1 5950.21 18463.8 5905.9C18453.1 5882.63 18440 5872.52 18421.9 5858.53C18406.6 5846.72 18387.5 5832.02 18364.7 5804.87C18312.2 5742.65 18354.3 5688.82 18354.7 5688.28L18364 5697.25C18362.5 5699.1 18328.6 5743.14 18373.3 5796.26C18395.2 5822.29 18412.9 5835.91 18428.5 5847.93C18447.4 5862.55 18462.3 5874.08 18474.5 5900.55C18490.5 5935.45 18499.5 5965.86 18503.1 5979L18790.2 5892.73L18702.5 5622.39L18713.9 5618.63L18805.8 5901.93Z" fill="#3C4278"/>
</g>
<path d="M18500.6 5758.96L18413.7 5785.1C18409.8 5772.13 18416.1 5758.77 18427.8 5755.26L18472.4 5741.84C18484.1 5738.32 18496.7 5745.99 18500.6 5758.96Z" fill="#7291DE"/>
<path d="M18839.7 5657.1L18752.7 5683.23C18748.8 5670.26 18755.1 5656.9 18766.8 5653.39L18811.5 5639.97C18823.2 5636.46 18835.8 5644.13 18839.7 5657.1Z" fill="#7291DE"/>
<path d="M18382.3 5535.51L18348.4 5705.44L18420.4 5688.52L18390.7 5622.24L18412 5517.76L18382.3 5535.51Z" fill="#2A2730"/>
<g opacity="0.35">
<path d="M18610.5 5436.13L18571.9 5651.1L18594.2 5647.68L18637.2 5430.96L18610.5 5436.13Z" fill="#1E5B7A"/>
</g>
<g opacity="0.35">
<path d="M18841.7 5421.3L18805.1 5597.14L18873.5 5580.3L18910.8 5427.18C18910.8 5427.18 18856.2 5415.94 18841.7 5421.3Z" fill="#1E5B7A"/>
</g>
<g opacity="0.35">
<path d="M18522.2 5463.9L18475.9 5676.75L18541.1 5660.35L18587.5 5441.87L18522.2 5463.9Z" fill="#1E5B7A"/>
</g>
<path d="M18693.3 5624.11L18719.7 5617.81L18650.4 5428.62L18624.3 5433.24" fill="#2A2730"/>
<path d="M18331.5 6046.32C18342.2 6043.11 18348 6030.88 18344.4 6019C18340.8 6007.13 18329.3 6000.11 18318.6 6003.32C18307.9 6006.53 18302.1 6018.77 18305.7 6030.64C18309.2 6042.52 18320.8 6049.54 18331.5 6046.32Z" fill="#7F8287"/>
<path d="M17988.3 5977.71C17980 5978.67 17972.2 5972.07 17970.8 5962.96C17969.5 5953.85 17975.1 5945.69 17983.4 5944.73L17988.3 5977.71Z" fill="#EAB042"/>
<path d="M19051.6 5565.91L19036.8 5556.55L19046.9 5526.52L19066.9 5538.04C19066.9 5538.04 19070.6 5539.42 19073.2 5545.31C19079.9 5560.09 19064.7 5574.18 19051.6 5565.91Z" fill="#2A2730"/>
<path d="M19005.5 5574.61C18978.9 5583.62 18948.8 5559.56 18951.8 5529.13C18952.5 5521.72 18955.5 5515.49 18962.1 5512.05C18988.3 5498.31 19024 5485.47 19046.9 5526.53C19053.7 5538.65 19049.5 5548.65 19040.3 5556.72C19031.5 5564.35 19018.3 5570.26 19005.5 5574.61Z" fill="#57599B"/>
<path d="M5224.29 5679.75L5245.91 5666.86L5246.82 5712.87L5261.93 5703.86L5269.44 5763.3L5255.48 5724.28L5235.56 5736.15L5224.29 5679.75Z" fill="#DEF4F6"/>
<path d="M10097.7 5795.67L10122.7 5672.06C10127.1 5650.16 10116.1 5628.8 10097.1 5622.64L9734.45 5504.34L9504.39 5245.37L9029.52 5149.25C9014.28 5146.16 8998.82 5155.98 8992.99 5172.39L8933.23 5341.58L8338.73 5221.24C8329.34 5219.34 8320.03 5226.32 8317.89 5236.86L8316.29 5244.77C8314.16 5255.31 8320.02 5265.36 8329.41 5267.26L8319.44 5316.53C8310.05 5314.63 8300.74 5321.61 8298.6 5332.15L8271.15 5467.79C8253.93 5464.3 8236.85 5477.17 8232.95 5496.43L8232.09 5500.68C8228.17 5520.01 8238.98 5538.45 8256.14 5541.92L8256.03 5542.47L8390.29 5589.48C8414.52 5597.98 8441.54 5585.86 8454.68 5560.59L8474.06 5523.36C8503.26 5467.36 8557.1 5432.39 8614.16 5432.26C8634.79 5432.21 8654.98 5436.79 8673.63 5445.63L8685.81 5451.41C8735.73 5475.09 8769.38 5527.14 8774.11 5587.96L8777.92 5636.64C8779.67 5659.3 8794.49 5677.42 8814.54 5681.48L9577.75 5835.98C9598.16 5840.11 9619.19 5829.1 9630.02 5808.71L9654.15 5763.22C9684.13 5706.75 9738.79 5671.74 9796.53 5671.96C9818.52 5672.05 9840.09 5677.26 9859.74 5687.29L9873.78 5694.42C9920.37 5718.13 9952.33 5766.46 9959.2 5823.57L9966.38 5883.13C9968.71 5902.6 9981.8 5917.84 9999.14 5921.35L10069.3 5935.55L10123 5835L10097.6 5795.66L10097.7 5795.67Z" fill="#C70203"/>
<path d="M9590.77 5779.09L8967.66 5652.96C8951.17 5649.62 8959.73 5567.99 8972.57 5461.54C8977.14 5423.77 8981.86 5384.7 8980.08 5380.47C8973.74 5367.23 8972.99 5351.39 8978.17 5336.96L9021.07 5216.05C9032.29 5184.49 9061.69 5165.89 9091.01 5171.82L9451.54 5244.8C9480.56 5250.68 9506.51 5266.13 9526.58 5289.61L9661.87 5447.64C9676.11 5464.31 9671.47 5487.22 9667.75 5505.6C9664.03 5523.99 9651.02 5587.34 9636.29 5648.94C9604.56 5781.88 9595.22 5780 9590.77 5779.09ZM9089.98 5176.61C9062.76 5171.1 9035.45 5188.36 9025.06 5217.71L8982.16 5338.61C8977.5 5351.74 8978.15 5366.15 8983.93 5378.15C8986.26 5383.06 8983.13 5410.28 8976.91 5462.07C8972.04 5502.24 8966.58 5547.78 8964.13 5584.64C8960.48 5640.46 8966.09 5647.72 8968.68 5648.24L9591.79 5774.37C9592.75 5774.57 9602.34 5772.71 9632.12 5647.89C9646.83 5586.35 9659.87 5522.86 9663.51 5504.89C9667.98 5482.79 9670.42 5464.85 9658.67 5451.07L9523.38 5293.04C9503.91 5270.32 9478.75 5255.31 9450.63 5249.61L9090.1 5176.63L9089.98 5176.61Z" fill="#AA0009"/>
<path d="M9015.33 5385.28L9622.47 5511.92C9647.74 5517.17 9665.51 5482.64 9648.02 5462.21L9512.72 5304.18C9495.34 5283.85 9472.53 5270.23 9447.36 5265.13L9086.83 5192.15C9066.6 5188.05 9046.04 5201.06 9038.31 5222.85L8995.41 5343.75C8988.94 5362.07 8998.38 5381.71 9015.33 5385.28Z" fill="#010101"/>
<path d="M8777.97 5636.72L8774.16 5588.04C8769.38 5527.14 8735.77 5475.17 8685.85 5451.48L8673.67 5445.71C8655.03 5436.87 8634.83 5432.29 8614.2 5432.34C8557.15 5432.4 8503.3 5467.44 8474.11 5523.43L8454.72 5560.67C8450.72 5568.37 8445.33 5574.88 8439.23 5579.9L8780.32 5648.95C8779.1 5645.04 8778.35 5641.02 8777.97 5636.72Z" fill="#231F20"/>
<path d="M9966.46 5883.08L9959.27 5823.51C9952.41 5766.4 9920.45 5718.07 9873.85 5694.36L9859.82 5687.23C9840.16 5677.2 9818.59 5671.99 9796.61 5671.9C9738.87 5671.68 9684.19 5706.76 9654.22 5763.17L9630.1 5808.65C9627.99 5812.59 9625.51 5816.17 9622.79 5819.35L9967.67 5889.16C9967.2 5887.16 9966.8 5885.11 9966.53 5883.02L9966.46 5883.08Z" fill="#231F20"/>
<path d="M8592.63 5712.62C8549.46 5703.88 8522.43 5657.54 8532.24 5609.08C8542.05 5560.62 8584.98 5528.44 8628.15 5537.18C8671.32 5545.92 8698.35 5592.26 8688.54 5640.72C8678.73 5689.18 8635.8 5721.36 8592.63 5712.62Z" fill="#231F20"/>
<path d="M9780.12 5953C9736.95 5944.27 9709.92 5897.92 9719.73 5849.46C9729.54 5801.01 9772.47 5768.82 9815.64 5777.56C9858.81 5786.3 9885.84 5832.65 9876.03 5881.1C9866.22 5929.56 9823.29 5961.74 9780.12 5953Z" fill="#231F20"/>
<path d="M8637.44 5631.84C8637.58 5631.17 8637.85 5630.45 8637.98 5629.77C8639.34 5623.08 8638.55 5616.45 8636.04 5610.88L8679.59 5568.19C8674.12 5559.63 8667.23 5552.18 8659.27 5546.28L8624.73 5598.31C8622.7 5597.2 8620.54 5596.41 8618.19 5595.94C8615.12 5595.31 8612.11 5595.34 8609.18 5595.87L8593.61 5534.11C8583.91 5536.8 8574.65 5541.39 8566.26 5547.5L8594.38 5604.27C8590.68 5608.31 8588.01 5613.46 8586.81 5619.41C8586.67 5620.09 8586.55 5620.69 8586.47 5621.38L8526.22 5627.06C8525.95 5638.26 8527.59 5649.07 8530.75 5659.14L8588.95 5638.84C8591.13 5643.57 8594.53 5647.5 8598.77 5650.11L8578.11 5712.84C8582.45 5714.63 8586.99 5716.04 8591.74 5717C8596.5 5717.97 8601.61 5718.44 8606.56 5718.45L8614.38 5653.49C8619.46 5652.83 8624.26 5650.49 8628.23 5647L8671.57 5686.17C8678.13 5678.21 8683.57 5668.97 8687.53 5658.72L8637.57 5631.8L8637.44 5631.84Z" fill="#E6E7E8"/>
<path d="M8619.33 5611.3C8618.72 5614.34 8615.99 5616.39 8613.28 5615.84C8610.57 5615.29 8608.84 5612.34 8609.46 5609.3C8610.08 5606.26 8612.81 5604.21 8615.52 5604.76C8618.23 5605.3 8619.95 5608.25 8619.33 5611.3Z" fill="#D1D3D4"/>
<path d="M8607.53 5644.22C8610.26 5644.77 8612.97 5642.74 8613.59 5639.68C8614.21 5636.61 8612.5 5633.69 8609.78 5633.13C8607.05 5632.58 8604.34 5634.62 8603.72 5637.68C8603.1 5640.74 8604.8 5643.67 8607.53 5644.22Z" fill="#D1D3D4"/>
<path d="M8623.04 5632.59C8620.34 5632.04 8618.61 5629.09 8619.23 5626.05C8619.85 5623 8622.58 5620.95 8625.29 5621.5C8628 5622.05 8629.72 5625 8629.1 5628.04C8628.49 5631.09 8625.75 5633.14 8623.04 5632.59Z" fill="#D1D3D4"/>
<path d="M8597.76 5627.47C8595.05 5626.92 8593.33 5623.97 8593.95 5620.93C8594.56 5617.89 8597.3 5615.84 8600.01 5616.39C8602.72 5616.93 8604.44 5619.89 8603.82 5622.93C8603.21 5625.97 8600.47 5628.02 8597.76 5627.47Z" fill="#D1D3D4"/>
<path d="M8643.15 5463.04C8563.5 5446.91 8484.29 5506.29 8466.19 5595.7C8448.09 5685.11 8497.97 5770.63 8577.62 5786.75C8657.28 5802.88 8736.49 5743.5 8754.59 5654.08C8772.69 5564.67 8722.81 5479.16 8643.15 5463.04ZM8591.26 5719.37C8544.78 5709.96 8515.71 5660.04 8526.26 5607.94C8536.81 5555.83 8583.06 5521.15 8629.48 5530.55C8675.91 5539.95 8705.03 5589.88 8694.48 5641.99C8683.94 5694.09 8637.68 5728.77 8591.26 5719.37Z" fill="#010101"/>
<path d="M8631.29 5521.63C8580.48 5511.34 8529.94 5549.23 8518.39 5606.27C8506.84 5663.31 8538.67 5717.87 8589.48 5728.16C8640.3 5738.45 8690.84 5700.56 8702.39 5643.52C8713.93 5586.48 8682.11 5531.92 8631.29 5521.63ZM8592.63 5712.62C8549.46 5703.88 8522.43 5657.53 8532.24 5609.07C8542.05 5560.62 8584.98 5528.43 8628.15 5537.17C8671.32 5545.91 8698.35 5592.26 8688.54 5640.71C8678.73 5689.17 8635.8 5721.35 8592.63 5712.62Z" fill="#D1D3D4"/>
<path d="M9824.94 5872.23C9825.08 5871.55 9825.35 5870.83 9825.49 5870.16C9826.84 5863.47 9826.05 5856.84 9823.54 5851.26L9867.09 5808.58C9861.62 5800.02 9854.73 5792.57 9846.77 5786.67L9812.24 5838.7C9810.2 5837.59 9808.04 5836.8 9805.7 5836.32C9802.63 5835.7 9799.61 5835.72 9796.68 5836.26L9781.11 5774.5C9771.41 5777.18 9762.15 5781.78 9753.76 5787.89L9781.88 5844.66C9778.19 5848.69 9775.51 5853.85 9774.31 5859.8C9774.17 5860.47 9774.05 5861.08 9773.97 5861.77L9713.72 5867.44C9713.46 5878.65 9715.09 5889.46 9718.26 5899.53L9776.45 5879.23C9778.63 5883.96 9782.03 5887.88 9786.27 5890.5L9765.61 5953.22C9769.95 5955.02 9774.49 5956.43 9779.25 5957.39C9784 5958.35 9789.11 5958.82 9794.06 5958.84L9801.88 5893.87C9806.97 5893.21 9811.76 5890.88 9815.73 5887.39L9859.07 5926.55C9865.63 5918.6 9871.08 5909.36 9875.03 5899.11L9825.07 5872.18L9824.94 5872.23Z" fill="#E6E7E8"/>
<path d="M9806.85 5851.68C9806.23 5854.73 9803.5 5856.78 9800.79 5856.23C9798.08 5855.68 9796.36 5852.73 9796.98 5849.69C9797.59 5846.64 9800.33 5844.6 9803.03 5845.14C9805.74 5845.69 9807.47 5848.64 9806.85 5851.68Z" fill="#D1D3D4"/>
<path d="M9801.11 5880.06C9800.49 5883.11 9797.76 5885.15 9795.05 5884.61C9792.34 5884.06 9790.62 5881.11 9791.23 5878.07C9791.85 5875.02 9794.58 5872.97 9797.29 5873.52C9800 5874.07 9801.72 5877.02 9801.11 5880.06Z" fill="#D1D3D4"/>
<path d="M9810.55 5872.97C9807.85 5872.43 9806.12 5869.47 9806.74 5866.43C9807.36 5863.39 9810.09 5861.34 9812.8 5861.89C9815.51 5862.44 9817.23 5865.39 9816.61 5868.43C9816 5871.47 9813.26 5873.52 9810.55 5872.97Z" fill="#D1D3D4"/>
<path d="M9785.27 5867.86C9782.56 5867.31 9780.84 5864.36 9781.46 5861.32C9782.07 5858.27 9784.81 5856.22 9787.52 5856.77C9790.23 5857.32 9791.95 5860.27 9791.33 5863.31C9790.72 5866.36 9787.98 5868.4 9785.27 5867.86Z" fill="#D1D3D4"/>
<path d="M9830.66 5703.42C9751 5687.3 9671.8 5746.68 9653.7 5836.09C9635.6 5925.5 9685.47 6011.02 9765.13 6027.14C9844.79 6043.27 9924 5983.88 9942.1 5894.47C9960.2 5805.06 9910.32 5719.55 9830.66 5703.42ZM9778.77 5959.76C9732.29 5950.35 9703.22 5900.43 9713.77 5848.32C9724.32 5796.22 9770.57 5761.54 9816.99 5770.94C9863.42 5780.34 9892.54 5830.27 9881.99 5882.38C9871.45 5934.48 9825.19 5969.16 9778.77 5959.76Z" fill="#010101"/>
<path d="M9818.79 5762.02C9767.98 5751.73 9717.44 5789.62 9705.89 5846.66C9694.34 5903.7 9726.17 5958.26 9776.99 5968.55C9827.8 5978.83 9878.34 5940.94 9889.89 5883.9C9901.44 5826.87 9869.61 5772.3 9818.79 5762.02ZM9780.13 5953C9736.96 5944.26 9709.93 5897.92 9719.74 5849.46C9729.55 5801 9772.48 5768.82 9815.65 5777.56C9858.82 5786.3 9885.85 5832.64 9876.04 5881.1C9866.23 5929.56 9823.3 5961.74 9780.13 5953Z" fill="#D1D3D4"/>
<path d="M8935.83 5341.54L8931.49 5341.09L8887.3 5696.15L8891.64 5696.61L8935.83 5341.54Z" fill="#AA0009"/>
<path d="M9271.73 5466.33L9267.38 5465.87L9237.54 5705.66L9241.89 5706.11L9271.73 5466.33Z" fill="#AA0009"/>
<path d="M9011.9 5396.75L9010.87 5401.54L9625.44 5535.75L9626.47 5530.97L9011.9 5396.75Z" fill="#AA0009"/>
<path d="M8888.02 5376.4L8347.05 5266.89L8346.08 5271.69L8887.05 5381.19L8888.02 5376.4Z" fill="#AA0009"/>
<path d="M9029.42 5639.22L8773.45 5581.36C8773.68 5583.59 8774 5585.76 8774.16 5588.04L8777.97 5636.73C8779.71 5659.38 8794.53 5677.5 8814.58 5681.56L9577.79 5836.06C9598.2 5840.19 9619.24 5829.18 9630.07 5808.79L9654.19 5763.3C9655.93 5760 9657.84 5756.73 9659.75 5753.52L9029.41 5639.29L9029.42 5639.22Z" fill="#AA0009"/>
<path d="M9966.47 5883.08C9968.79 5902.55 9981.88 5917.79 9999.22 5921.3L10069.4 5935.5L10123.1 5834.95L10097.7 5795.61L10013.5 5817.53L9956.57 5807.21C9957.67 5812.57 9958.66 5817.91 9959.29 5823.45L9966.48 5883.02L9966.47 5883.08Z" fill="#AA0009"/>
<path d="M8232.95 5496.43L8232.09 5500.68C8228.17 5520.01 8238.98 5538.45 8256.14 5541.92L8256.03 5542.47L8390.29 5589.48C8414.52 5597.98 8441.54 5585.86 8454.68 5560.59L8474.06 5523.36C8475.6 5520.43 8477.25 5517.53 8478.89 5514.69L8271.1 5467.71C8253.88 5464.22 8236.8 5477.09 8232.9 5496.35L8232.95 5496.43Z" fill="#AA0009"/>
<path d="M9261.1 5436.59L9297.31 5444.14C9294.31 5434.8 9290.44 5421.71 9289.79 5413.49C9288.69 5399.69 9297.62 5253.41 9297.62 5253.41L9304.17 5236.23L9271 5229.51C9274.27 5235.95 9278.69 5246.62 9278.47 5256.99C9278.09 5273.44 9273.76 5422.06 9267.89 5429.39C9266.13 5431.56 9263.68 5434.09 9261.1 5436.59Z" fill="#231F20"/>
<path d="M9661.25 5544.88L9617.83 5536.1C9612.36 5534.99 9609.34 5528.54 9611.59 5522.66L9635.23 5461.32C9636.96 5456.81 9641.24 5454.23 9645.45 5455.08L9678.09 5461.69C9705.3 5467.2 9723.62 5490.33 9718.97 5513.3C9714.32 5536.28 9688.45 5550.46 9661.23 5544.95L9661.25 5544.88Z" fill="#E01721"/>
<path d="M9666.29 5519.95L9622.88 5511.16C9620.59 5510.7 9618.69 5509.26 9617.52 5507.33L9611.59 5522.67C9609.34 5528.54 9612.36 5534.99 9617.83 5536.1L9661.25 5544.89C9688.46 5550.4 9714.33 5536.22 9718.98 5513.24C9719.86 5508.91 9719.92 5504.57 9719.27 5500.35C9709.59 5515.98 9688.39 5524.42 9666.35 5519.96L9666.29 5519.95Z" fill="#AA0009"/>
<path d="M10122.2 5674.29L10085.5 5666.85C10077.9 5665.3 10070.2 5671 10068.4 5679.65L10058 5731.35C10056.7 5737.77 10059 5744.22 10063.8 5747.66L10101.9 5774.5L10122.2 5674.34L10122.2 5674.29Z" fill="#D1D3D4"/>
<path d="M10068.5 5739.81C10066.4 5738.33 10065.4 5735.67 10066 5732.9L10076.5 5681.2C10077.2 5677.55 10080.4 5675.18 10083.6 5675.83L10112.3 5681.63L10096.5 5759.55L10068.4 5739.73L10068.5 5739.81Z" fill="white"/>
<path d="M8293.61 5356.82L8276.1 5443.33L8314.19 5429.16L8327.38 5364.01C8327.38 5364.01 8305.15 5358.95 8293.6 5356.89L8293.61 5356.82Z" fill="#FEAB01"/>
<path d="M9364.27 5447.69L9472.41 5291.52C9459.93 5281.96 9445.61 5275.33 9430.31 5272.23L9415.68 5269.27L9301.26 5434.51L9364.23 5447.61L9364.27 5447.69Z" fill="#28211F"/>
<path d="M9519.01 5342.18L9489.75 5308.05L9389.47 5452.94L9435.6 5462.55L9519.01 5342.18Z" fill="#28211F"/>
<path d="M9136.74 5212.81L9027.19 5370.94C9030.63 5375.65 9035.56 5379.18 9041.52 5380.38L9086.26 5389.72L9199.9 5225.59L9136.68 5212.79L9136.74 5212.81Z" fill="#28211F"/>
<path d="M9271.61 5240.11L9225.25 5230.72L9111.47 5394.96L9157.65 5404.59L9271.61 5240.11Z" fill="#28211F"/>
<g style="mix-blend-mode:screen">
<path d="M8363.44 5302.29L8881.78 5407.22L8872.73 5451.96L8363.44 5302.29Z" fill="#3D3533"/>
</g>
<g style="mix-blend-mode:screen">
<path d="M9015.76 5427.44L9254.65 5482.69L9251.56 5528.64L9015.76 5427.44Z" fill="#3D3533"/>
</g>
<g style="mix-blend-mode:screen">
<path d="M9286.09 5489.06L9621.03 5556.86L9281.01 5534.6L9286.09 5489.06Z" fill="#3D3533"/>
</g>
<path d="M12476.2 5698.63H12437C12446.7 5720.96 12460 5740.5 12470.9 5749.57H12482.9C12478.5 5734.51 12476.1 5718.57 12476.1 5702.04C12476.1 5700.92 12476.2 5699.75 12476.2 5698.63H12476.2Z" fill="#58595B"/>
<path d="M13975.9 5614.31V5811.91H12467.8C12448.3 5795.73 12420.8 5745.67 12422 5706.82C12422 5706.82 12429.6 5658.08 12441.7 5600.17C12442.6 5595.69 12443.7 5591.11 12444.7 5586.47C12452.1 5552.35 12461.1 5516.19 12471.1 5485.67C12478.2 5463.54 12486 5444.44 12494 5431.23C12494 5431.23 12719.5 5257.75 12768.8 5250H13218.9C13268.7 5250 13317.5 5263.89 13360.1 5290.21C13458.1 5350.95 13636.5 5459.25 13665.1 5462.03C13665.1 5462.03 13960.7 5512.09 13975.9 5614.31H13975.9Z" fill="#FF833E"/>
<path d="M12796.1 5765.17C12796.1 5781.4 12793.7 5797.04 12789.4 5811.86H12479.5C12475.2 5797.04 12472.9 5781.35 12472.9 5765.17C12472.9 5674.55 12545.4 5600.8 12634.5 5600.8C12723.5 5600.8 12796 5674.55 12796 5765.17H12796.1Z" fill="#F26522"/>
<path d="M13767.4 5765.17C13767.4 5781.4 13765.1 5797.04 13760.7 5811.86H13450.9C13446.5 5797.04 13444.2 5781.35 13444.2 5765.17C13444.2 5674.55 13516.7 5600.8 13605.8 5600.8C13694.9 5600.8 13767.4 5674.55 13767.4 5765.17Z" fill="#F26522"/>
<path d="M12796.1 5765.17C12796.1 5781.4 12793.7 5797.04 12789.4 5811.86H12479.5C12475.2 5797.04 12472.9 5781.35 12472.9 5765.17C12472.9 5674.55 12545.4 5600.8 12634.5 5600.8C12723.5 5600.8 12796 5674.55 12796 5765.17H12796.1Z" fill="#C1440E"/>
<path d="M13767.4 5765.17C13767.4 5781.4 13765.1 5797.04 13760.7 5811.86H13450.9C13446.5 5797.04 13444.2 5781.35 13444.2 5765.17C13444.2 5674.55 13516.7 5600.8 13605.8 5600.8C13694.9 5600.8 13767.4 5674.55 13767.4 5765.17Z" fill="#C1440E"/>
<path d="M12665.6 5896.72C12737.1 5879.31 12781.2 5806.23 12764.1 5733.47C12747 5660.71 12675.1 5615.83 12603.6 5633.23C12532.1 5650.63 12488 5723.72 12505.1 5796.48C12522.2 5869.24 12594 5914.12 12665.6 5896.72Z" fill="#58595B"/>
<path d="M12656.2 5857.05C12706.1 5844.94 12737 5793.92 12725.1 5743.09C12713.2 5692.26 12663 5660.87 12613 5672.98C12563.1 5685.09 12532.2 5736.11 12544.1 5786.94C12556 5837.77 12606.2 5869.16 12656.2 5857.05Z" fill="#A7A9AC"/>
<path d="M12653.4 5846.02C12697.2 5835.41 12724.3 5790.65 12713.9 5746.05C12703.5 5701.45 12659.5 5673.89 12615.6 5684.5C12571.8 5695.11 12544.7 5739.87 12555.1 5784.47C12565.5 5829.07 12609.5 5856.63 12653.4 5846.02Z" fill="#D1D3D4"/>
<path d="M12634.5 5786.57C12646.1 5786.57 12655.5 5776.99 12655.5 5765.17C12655.5 5753.35 12646.1 5743.77 12634.5 5743.77C12622.9 5743.77 12613.5 5753.35 12613.5 5765.17C12613.5 5776.99 12622.9 5786.57 12634.5 5786.57Z" fill="#58595B"/>
<path d="M12655.5 5705.36C12655.5 5696.05 12645.6 5695.17 12633.6 5695.17C12621.5 5695.17 12611.7 5696.05 12611.7 5705.36C12611.7 5714.67 12621.5 5736.17 12633.6 5736.17C12645.6 5736.17 12655.5 5714.62 12655.5 5705.36Z" fill="#58595B"/>
<path d="M12583.3 5728.32C12574.6 5725.44 12570.7 5734.66 12567 5746.4C12563.3 5758.1 12561.1 5767.9 12569.7 5770.77C12578.4 5773.65 12601.6 5770.77 12605.3 5759.08C12609.1 5747.38 12592 5731.2 12583.3 5728.37V5728.32Z" fill="#58595B"/>
<path d="M12582.5 5805.29C12577.1 5812.79 12584.5 5819.37 12594.3 5826.64C12604.1 5833.9 12612.6 5839.02 12617.9 5831.51C12623.3 5824 12627.8 5800.7 12618 5793.49C12608.3 5786.23 12587.8 5797.78 12582.5 5805.33V5805.29Z" fill="#58595B"/>
<path d="M12654.2 5829.85C12659.5 5837.36 12668 5832.19 12677.8 5824.98C12687.6 5817.76 12695 5811.18 12689.6 5803.63C12684.2 5796.07 12663.9 5784.57 12654.1 5791.78C12644.3 5799.05 12648.7 5822.3 12654.2 5829.8V5829.85Z" fill="#58595B"/>
<path d="M12699.3 5768.09C12707.9 5765.22 12705.7 5755.47 12702 5743.72C12698.2 5732.02 12694.4 5722.76 12685.7 5725.64C12677 5728.51 12659.9 5744.65 12663.6 5756.35C12667.4 5768.04 12690.5 5770.92 12699.3 5768.04V5768.09Z" fill="#58595B"/>
<path d="M13684.5 5874.22C13743.9 5829.98 13756.7 5745.2 13713.2 5684.88C13669.7 5624.56 13586.3 5611.53 13527 5655.77C13467.7 5700.02 13454.9 5784.79 13498.4 5845.11C13541.9 5905.44 13625.2 5918.47 13684.5 5874.22Z" fill="#58595B"/>
<path d="M13660.5 5841.49C13702 5810.75 13711.2 5751.58 13681 5709.33C13650.8 5667.08 13592.6 5657.75 13551.1 5688.49C13509.5 5719.23 13500.4 5778.4 13530.6 5820.66C13560.8 5862.91 13619 5872.24 13660.5 5841.49Z" fill="#A7A9AC"/>
<path d="M13653.8 5832.61C13690.3 5805.68 13698.4 5753.77 13671.9 5716.67C13645.4 5679.57 13594.4 5671.32 13557.9 5698.25C13521.4 5725.17 13513.3 5777.08 13539.8 5814.18C13566.3 5851.29 13617.3 5859.54 13653.8 5832.61Z" fill="#D1D3D4"/>
<path d="M13605.8 5786.57C13617.4 5786.57 13626.9 5776.99 13626.9 5765.17C13626.9 5753.35 13617.4 5743.77 13605.8 5743.77C13594.2 5743.77 13584.8 5753.35 13584.8 5765.17C13584.8 5776.99 13594.2 5786.57 13605.8 5786.57Z" fill="#58595B"/>
<path d="M13626.8 5705.36C13626.8 5696.05 13617 5695.17 13604.9 5695.17C13592.8 5695.17 13583 5696.05 13583 5705.36C13583 5714.67 13592.8 5736.16 13604.9 5736.16C13617 5736.16 13626.8 5714.62 13626.8 5705.36Z" fill="#58595B"/>
<path d="M13554.6 5728.32C13546 5725.44 13542.1 5734.65 13538.4 5746.4C13534.6 5758.1 13532.4 5767.9 13541.1 5770.77C13549.8 5773.65 13573 5770.77 13576.7 5759.07C13580.4 5747.38 13563.3 5731.19 13554.6 5728.37V5728.32Z" fill="#58595B"/>
<path d="M13553.8 5805.28C13548.4 5812.79 13555.8 5819.37 13565.6 5826.63C13575.4 5833.9 13583.9 5839.01 13589.2 5831.51C13594.6 5824 13599.1 5800.7 13589.3 5793.49C13579.6 5786.23 13559.2 5797.78 13553.8 5805.33V5805.28Z" fill="#58595B"/>
<path d="M13625.5 5829.85C13630.8 5837.35 13639.3 5832.19 13649.1 5824.97C13658.9 5817.76 13666.3 5811.18 13660.9 5803.62C13655.6 5796.12 13635.2 5784.57 13625.4 5791.78C13615.6 5799.04 13620.1 5822.29 13625.5 5829.8V5829.85Z" fill="#58595B"/>
<path d="M13670.6 5768.09C13679.3 5765.22 13677.1 5755.47 13673.3 5743.72C13669.6 5732.02 13665.8 5722.76 13657.1 5725.64C13648.4 5728.51 13631.3 5744.65 13635 5756.34C13638.7 5768.04 13661.9 5770.92 13670.6 5768.04V5768.09Z" fill="#58595B"/>
<path d="M13431.1 5378.73V5466.22H12561.8C12563.2 5463.01 12564.6 5460.03 12566.1 5457.25C12582 5445.12 12627 5411.14 12675.5 5376.63C12776.8 5304.69 12808.6 5291.09 12816.2 5288.55H13218.9C13261.8 5288.55 13303.7 5300.55 13340.4 5323.16C13374.1 5344.07 13404.2 5362.5 13431.1 5378.73H13431.1Z" fill="#6D6E71"/>
<path d="M12600.1 5450.77C12621.3 5434.88 12652.1 5412.12 12684.2 5389.26C12777 5323.36 12809.9 5307.57 12818.9 5303.96H13219C13259 5303.96 13298.3 5315.17 13332.5 5336.32C13362.8 5355.09 13390.9 5372.3 13415.9 5387.5V5450.82H12600L12600.1 5450.77Z" fill="#6D6E71"/>
<path d="M13052.6 5288.55L13061.2 5466.22H12989.9L13000 5288.55H13052.6Z" fill="#414042"/>
<path opacity="0.1" d="M13340.4 5323.16C13336.1 5320.53 13331.8 5318.04 13327.4 5315.71L13266.6 5466.22H13346.2L13391.3 5354.5C13375.3 5344.71 13358.4 5334.28 13340.4 5323.16Z" fill="white"/>
<path opacity="0.1" d="M13219 5288.55H13195L13123.2 5466.22H13220.1L13287.6 5299.08C13265.5 5292.16 13242.4 5288.55 13219 5288.55Z" fill="white"/>
<path opacity="0.1" d="M12835.5 5459.74H12765.6L12832.2 5294.99H12854.4C12869.8 5294.99 12885.1 5296.65 12900 5299.96L12835.5 5459.74Z" fill="white"/>
<path opacity="0.1" d="M12952.4 5294.99H12930.1L12863.6 5459.74H12911.1L12977 5296.5C12968.9 5295.53 12960.6 5295.04 12952.4 5295.04V5294.99Z" fill="white"/>
<path d="M13976 5614.31C13973.4 5597.34 13963.2 5581.8 13947.8 5567.71L13846.6 5554.21C13834.1 5552.55 13824.2 5564.93 13828.5 5577.07C13838.8 5606.7 13859.4 5651.45 13890.7 5657.4C13900.7 5659.3 13942.8 5661.2 13976 5662.42V5614.36L13976 5614.31Z" fill="#FFDE17"/>
<path d="M13874.3 5600.9C13870.1 5588.77 13879.9 5576.38 13892.5 5578.04L13965.3 5587.79C13960.7 5580.82 13954.8 5574.09 13947.8 5567.71L13846.6 5554.21C13834.1 5552.55 13824.2 5564.93 13828.5 5577.07C13838.8 5606.7 13859.4 5651.45 13890.7 5657.4C13893.2 5657.88 13897.9 5658.37 13904 5658.86C13890.4 5641.85 13880.5 5618.69 13874.4 5600.95L13874.3 5600.9Z" fill="#FFB917"/>
<path opacity="0.6" d="M13017.8 5773.99V5451.55H13405.5L13439.5 5454.72V5743.77C13439.5 5759.12 13427.3 5771.6 13412.2 5771.65L13017.8 5774.04V5773.99ZM13031.5 5465.45V5760L13412.1 5757.71C13419.7 5757.71 13425.8 5751.47 13425.8 5743.77V5467.4L13404.6 5465.45H13031.5Z" fill="#E85F1A"/>
<path d="M13340.4 5323.16C13303.8 5300.55 13261.9 5288.55 13219 5288.55H12816.2C12808.7 5291.04 12776.9 5304.69 12675.6 5376.63C12627 5411.14 12582 5445.12 12566.1 5457.25C12564.7 5460.03 12563.3 5463.01 12561.8 5466.22H13431.2V5378.73C13404.3 5362.5 13374.2 5344.07 13340.5 5323.16H13340.4ZM13416 5450.82H12600.1C12621.3 5434.93 12652.1 5412.17 12684.2 5389.31C12777 5323.41 12809.9 5307.61 12818.9 5304.01H13219C13259 5304.01 13298.3 5315.22 13332.5 5336.37C13362.8 5355.14 13390.9 5372.34 13415.9 5387.55V5450.87L13416 5450.82Z" fill="#414042"/>
<path d="M13547.7 5447.26C13517.8 5430.45 13479.8 5408.17 13431.1 5378.68V5466.18H13547.7V5447.26Z" fill="#414042"/>
<path d="M13166.8 5534.71H13083.4C13083.4 5548.16 13094.1 5559.03 13107.3 5559.03H13142.9C13156.1 5559.03 13166.8 5548.16 13166.8 5534.71Z" fill="#C1440E"/>
<path d="M13083.4 5527.64H13166.8C13166.8 5518.43 13159.4 5510.92 13150.4 5510.92H13099.9C13090.8 5510.92 13083.4 5518.43 13083.4 5527.64Z" fill="#C1440E"/>
<path d="M12828.2 5534.71H12744.8C12744.8 5548.16 12755.5 5559.03 12768.7 5559.03H12804.3C12817.5 5559.03 12828.2 5548.16 12828.2 5534.71Z" fill="#C1440E"/>
<path d="M12744.8 5527.64H12828.2C12828.2 5518.43 12820.8 5510.92 12811.8 5510.92H12761.3C12752.2 5510.92 12744.8 5518.43 12744.8 5527.64Z" fill="#C1440E"/>
<path opacity="0.6" d="M13007.6 5776.09H12901.3C12864.3 5776.09 12832 5751.76 12821 5715.59C12775.9 5568.24 12569.1 5595.59 12567 5595.88L12559.2 5596.95V5466.42H12572.9V5581.26C12612.4 5577.75 12790.8 5570.05 12834 5711.45C12843.3 5741.77 12870.3 5762.19 12901.2 5762.19H12993.9V5466.22H13007.6V5776.13L13007.6 5776.09Z" fill="#E85F1A"/>
<path d="M13444.3 5761.85H12796C12796 5762.97 12796.1 5764.1 12796.1 5765.22C12796.1 5781.45 12793.8 5797.14 12789.5 5811.91H13451C13446.6 5797.09 13444.3 5781.4 13444.3 5765.22C13444.3 5764.1 13444.3 5762.97 13444.4 5761.85H13444.3Z" fill="#58595B"/>
<path d="M13767.4 5761.85C13767.4 5762.97 13767.5 5764.1 13767.5 5765.22C13767.5 5781.45 13765.2 5797.14 13760.8 5811.91H13976V5761.85H13767.4H13767.4Z" fill="#58595B"/>
<path d="M12442.5 5600.17H12441.8C12442.7 5595.69 12443.7 5591.11 12444.7 5586.47C12452.2 5552.35 12461.1 5516.19 12471.1 5485.67H12518.2C12518.2 5485.67 12521.7 5594.81 12442.5 5600.17Z" fill="#FF453E"/>
<path d="M12442.5 5600.17H12441.8C12442.7 5595.69 12443.7 5591.11 12444.7 5586.47C12486 5566.73 12495.5 5513.02 12497.7 5485.67H12518.2C12518.2 5485.67 12521.8 5594.81 12442.6 5600.17H12442.5Z" fill="#E4453E"/>
<path d="M15905.1 5100.64L15995.5 5155.71L15830.9 5425.75L15740.5 5370.68C15721.6 5359.12 15717.4 5331.34 15731.2 5308.64L15845.7 5120.85C15859.5 5098.15 15886.1 5089.12 15905.1 5100.69L15905.1 5100.64Z" fill="#58595B"/>
<path d="M16424.4 5569.35L16355.1 5527.1C16348.6 5537.77 16350.5 5550.81 16359.5 5556.25L16396.5 5578.82C16405.4 5584.26 16417.9 5580.02 16424.4 5569.35Z" fill="#58595B"/>
<path d="M16358.5 5521.48L16427.8 5563.72C16432.3 5556.39 16430.9 5547.42 16424.8 5543.68L16377.6 5514.94C16371.5 5511.2 16362.9 5514.12 16358.4 5521.45L16358.5 5521.48Z" fill="#58595B"/>
<path d="M16833.2 6096.42L16878.8 6021.68L16869.5 5978.25L16919.2 5896.74L16641.4 5584.98L16627.7 5316.51L16119 5006.51L15904.6 5163.04L15719.2 5467.32L16795.4 6123.26L16833.2 6096.42Z" fill="#01B3C8"/>
<path d="M16919.2 5896.74L16869.8 5977.9L16826 5951.22L16819 5873.39L16851.3 5820.44L16919.2 5896.74Z" fill="#01B3C8"/>
<path d="M15797.2 5339.17L15872.2 5216.18L15905.9 5236.72C15905.9 5236.72 15847.9 5354.12 15797.2 5339.17Z" fill="#01B3C8"/>
<path d="M16090.2 5693.44L15793.3 5512.46C15857 5433.93 15959.1 5406.29 16033.8 5451.83C16108.6 5497.37 16130.8 5600.8 16090.2 5693.44Z" fill="#0498A0"/>
<path d="M16732.3 6084.74L16435.3 5903.77C16499 5825.24 16601.2 5797.59 16675.9 5843.14C16750.6 5888.68 16772.8 5992.11 16732.3 6084.74Z" fill="#0498A0"/>
<path d="M16340 5175.32L16116.2 5038.96L15923.9 5180.51L16191.1 5343.36L16340 5175.32Z" fill="#414042"/>
<path d="M16312.8 5181.44L16190 5320.01L15956.1 5177.46L16114.7 5060.73L16312.8 5181.44Z" fill="#6D6E71"/>
<path opacity="0.47" d="M16459.6 5898.82L16162.9 5718L16195.7 5544.67L16298.1 5376.8L16615.6 5585.84L16606.2 5658.34L16459.6 5898.87L16459.6 5898.82ZM16177.1 5709.7L16456.8 5880.13L16594 5655.06L16601.9 5594.12L16300.6 5395.84L16207.7 5548.3L16177.1 5709.68L16177.1 5709.7Z" fill="#05777C"/>
<path d="M16603.3 5335.8L16399 5211.29L16284 5399.95L16615.5 5602.02L16616.6 5600.33L16603.3 5335.8Z" fill="#414042"/>
<path d="M16307.9 5391.82L16402.7 5236.18L16586.7 5348.29L16597.7 5568.48L16307.9 5391.82Z" fill="#6D6E71"/>
<path d="M15755.8 5407.29L15719.2 5467.32L16795.4 6123.26L16833.2 6096.42L16847.7 6072.76L15755.8 5407.29Z" fill="#58595B"/>
<path d="M16090.2 5693.44L15793.3 5512.46C15857 5433.93 15959.1 5406.29 16033.8 5451.83C16108.6 5497.37 16130.8 5600.8 16090.2 5693.44Z" fill="#068787"/>
<path d="M16732.3 6084.74L16435.3 5903.77C16499 5825.24 16601.2 5797.59 16675.9 5843.14C16750.6 5888.68 16772.8 5992.11 16732.3 6084.74Z" fill="#068787"/>
<path d="M16001.3 5756.35C16072.4 5698.53 16095.5 5595.82 16052.9 5526.95C16010.4 5458.08 15918.2 5449.12 15847.1 5506.95C15776 5564.77 15752.8 5667.48 15795.4 5736.35C15838 5805.22 15930.2 5814.18 16001.3 5756.35Z" fill="#58595B"/>
<path d="M15937.7 5722.26C15985.5 5706.02 16018.3 5652.35 16010.8 5602.39C16003.3 5552.43 15958.4 5525.09 15910.6 5541.33C15862.7 5557.57 15830 5611.24 15837.5 5661.2C15845 5711.16 15889.9 5738.5 15937.7 5722.26Z" fill="#A7A9AC"/>
<path d="M15931.5 5707.07C15971 5695.91 15999.7 5653.16 15995.6 5611.59C15991.5 5570.03 15956.2 5545.38 15916.7 5556.55C15877.2 5567.71 15848.6 5610.46 15852.7 5652.03C15856.8 5693.59 15892.1 5718.24 15931.5 5707.07Z" fill="#D1D3D4"/>
<path d="M15986.9 5667.5L15998.8 5626.64L15966.8 5623.68C15958.3 5622.89 15955 5612.48 15960.6 5604.41L15983.8 5571.17L15953 5552.4L15935.6 5585.41C15931 5594.09 15920.2 5595.92 15915.7 5588.8L15896.9 5559.35L15866 5588.63L15887.3 5612.01C15892.9 5618.16 15889.5 5629.69 15881.1 5633.35L15846.2 5648.38L15858 5685.22L15888.5 5666.65C15896.6 5661.74 15905.3 5667.05 15904.6 5676.47L15901.9 5715.22L15940 5708.75L15937.6 5673.9C15937 5664.72 15945.7 5656.46 15953.8 5658.62L15986.9 5667.5ZM15929.6 5640.8L15916.6 5643L15912.6 5630.45L15923.1 5620.48L15933.6 5626.87L15929.6 5640.77L15929.6 5640.8Z" fill="#58595B"/>
<path d="M15975.8 5547.05C15936.7 5523.2 15881.8 5541.85 15853.3 5588.63C15824.8 5635.42 15833.4 5692.74 15872.5 5716.57C15911.6 5740.4 15966.5 5721.77 15995 5674.99C16023.5 5628.2 16014.9 5570.88 15975.8 5547.05ZM15881.8 5701.25C15849.8 5681.71 15842.7 5634.8 15866.1 5596.44C15889.5 5558.07 15934.4 5542.83 15966.5 5562.37C15998.5 5581.91 16005.6 5628.82 15982.2 5667.18C15958.8 5705.55 15913.9 5720.8 15881.8 5701.25Z" fill="#A7A9AC"/>
<path d="M15935.2 5613.67C15926.8 5608.56 15915.1 5612.54 15909 5622.57C15902.9 5632.59 15904.7 5644.84 15913.1 5649.95C15921.5 5655.06 15933.2 5651.08 15939.3 5641.05C15945.4 5631.03 15943.6 5618.78 15935.2 5613.67Z" fill="#A7A9AC"/>
<path d="M16643.3 6147.66C16714.4 6089.83 16737.6 5987.13 16695 5918.26C16652.4 5849.38 16560.3 5840.43 16489.1 5898.25C16418 5956.07 16394.9 6058.78 16437.5 6127.65C16480 6196.52 16572.2 6205.48 16643.3 6147.66Z" fill="#58595B"/>
<path d="M16579.7 6113.57C16627.6 6097.33 16660.3 6043.66 16652.8 5993.7C16645.3 5943.74 16600.5 5916.4 16552.6 5932.64C16504.8 5948.88 16472.1 6002.55 16479.6 6052.51C16487 6102.47 16531.9 6129.81 16579.7 6113.57Z" fill="#A7A9AC"/>
<path d="M16577.3 6097.22C16616.5 6083.92 16643.3 6039.95 16637.1 5999.02C16631 5958.08 16594.3 5935.69 16555.1 5948.99C16515.9 5962.3 16489.1 6006.26 16495.2 6047.2C16501.4 6088.13 16538.1 6110.53 16577.3 6097.22Z" fill="#D1D3D4"/>
<path d="M16629 6058.81L16640.8 6017.95L16608.8 6014.98C16600.4 6014.19 16597.1 6003.79 16602.7 5995.72L16625.9 5962.48L16595.1 5943.71L16577.7 5976.71C16573.1 5985.4 16562.3 5987.23 16557.7 5980.1L16538.9 5950.66L16508 5979.93L16529.3 6003.32C16534.9 6009.47 16531.6 6021 16523.1 6024.66L16488.3 6039.68L16500 6076.53L16530.6 6057.96C16538.6 6053.05 16547.4 6058.36 16546.7 6067.77L16544 6106.53L16582.1 6100.06L16579.7 6065.21C16579.1 6056.02 16587.8 6047.76 16595.8 6049.92L16629 6058.81ZM16571.7 6032.1L16558.7 6034.31L16554.7 6021.76L16565.2 6011.79L16575.7 6018.18L16571.6 6032.08L16571.7 6032.1Z" fill="#58595B"/>
<path d="M16617.9 5938.36C16578.7 5914.5 16523.9 5933.16 16495.4 5979.94C16466.8 6026.73 16475.4 6084.05 16514.5 6107.88C16553.6 6131.71 16608.5 6113.08 16637 6066.29C16665.6 6019.51 16657 5962.19 16617.9 5938.36ZM16523.9 6092.56C16491.8 6073.01 16484.8 6026.11 16508.2 5987.74C16531.5 5949.38 16576.4 5934.13 16608.5 5953.68C16640.6 5973.22 16647.6 6020.12 16624.2 6058.49C16600.8 6096.86 16555.9 6112.1 16523.9 6092.56Z" fill="#A7A9AC"/>
<path d="M16577.3 6004.98C16568.9 5999.87 16557.1 6003.85 16551 6013.88C16544.9 6023.9 16546.8 6036.15 16555.1 6041.26C16563.5 6046.37 16575.2 6042.38 16581.4 6032.36C16587.5 6022.33 16585.6 6010.08 16577.3 6004.98Z" fill="#A7A9AC"/>
<path d="M16386.2 5542.01L16319.5 5501.35C16311.8 5513.98 16314.1 5529.44 16324.7 5535.88L16353.1 5553.21C16363.7 5559.64 16378.5 5554.62 16386.2 5541.99L16386.2 5542.01Z" fill="#0498A0"/>
<path d="M16390.3 5535.37L16323.5 5494.71C16328.8 5486.03 16339 5482.58 16346.3 5487L16386.7 5511.63C16393.9 5516.05 16395.5 5526.67 16390.2 5535.35L16390.3 5535.37Z" fill="#0498A0"/>
<path d="M15797.2 5339.17L15872.2 5216.18L15905.9 5236.72C15905.9 5236.72 15847.9 5354.12 15797.2 5339.17Z" fill="#F95858"/>
<path d="M15906 5236.7L15872.3 5216.16L15862.8 5231.65L15881 5242.73C15881 5242.73 15843.8 5317.88 15803 5340.25C15852.3 5345.39 15905.9 5236.74 15905.9 5236.74L15906 5236.7Z" fill="#E4453E"/>
<path d="M16919.2 5896.74L16869.8 5977.9L16826 5951.22L16819 5873.39L16851.3 5820.44L16919.2 5896.74Z" fill="#FFDE17"/>
<path d="M16860.7 5946.68L16854 5871.14L16871.2 5842.85L16851.3 5820.44L16819 5873.39L16826 5951.22L16869.8 5977.9L16881.2 5959.15L16860.7 5946.68Z" fill="#FFB917"/>
<path opacity="0.1" d="M16515.9 5305.23L16363.4 5425.64L16307.9 5391.82L16317.3 5376.37L16454.6 5267.88L16515.9 5305.23Z" fill="white"/>
<path opacity="0.1" d="M16588.3 5382.66L16459.6 5484.3L16407.3 5452.42L16559.8 5332L16586.6 5348.34L16588.3 5382.66Z" fill="white"/>
<path opacity="0.1" d="M16207.3 5117.13L16054.7 5237.53L15997.9 5202.91L16150.4 5082.49L16207.3 5117.13Z" fill="white"/>
<path opacity="0.1" d="M16297.8 5172.31L16145.3 5292.73L16095.3 5262.27L16247.8 5141.85L16297.8 5172.31Z" fill="white"/>
</svg>
