<svg width="16379" height="1450" viewBox="0 0 16379 1450" fill="none" xmlns="http://www.w3.org/2000/svg">
<path d="M7 1027.25C7 1027.25 484.282 651.953 757.5 661.002C1016.88 669.592 1312 1027.25 1312 1027.25C1312 1027.25 1726.1 1392.84 2022 1333C2227.42 1291.46 2471.62 1203.83 2704.04 1027.25C2894.75 882.358 2885.15 639.346 3115 572.002C3440.64 476.593 3468.27 1075.12 3806 1237C4113.87 1384.56 4407.91 1372.66 4669.5 1373.5C4932.5 1374.35 5192.44 1209.06 5488.13 1027.25C5755.39 862.922 5841.22 543.966 6108.87 517.252C6412.23 486.974 6880.17 1027.25 6880.17 1027.25C6880.17 1027.25 7204.99 1232.27 7437.5 1237C7683.35 1242 8272.21 1027.25 8272.21 1027.25C8272.21 1027.25 8584.62 821.516 8811 812C9064.22 801.355 9664.26 1027.25 9664.26 1027.25C9664.26 1027.25 10013.1 1242.44 10259.5 1237C10491.4 1231.88 11056.3 1027.25 11056.3 1027.25C11056.3 1027.25 11425 796.659 11683.5 812C11904.3 825.102 12448.3 1027.25 12448.3 1027.25C12448.3 1027.25 13038.9 866.992 13264 912C13489.1 957.008 13615.3 982.242 13840.4 1027.25C13840.4 1027.25 14424.2 1194.96 14659 1194.5C14892.3 1194.05 15232.4 1027.25 15232.4 1027.25C15232.4 1027.25 15396.3 862.862 15536 812C15853.2 696.557 16373 1027.25 16373 1027.25" stroke="white" stroke-width="20"/>
<path d="M5704.64 340.561L4468.87 1077.15L4589.89 1280.18L5825.65 543.589L5704.64 340.561Z" fill="#141316"/>
<path d="M4325.26 956.458C4325.26 956.458 4362.61 942.952 4361.66 934.757C4360.72 926.55 4567.65 636.639 4800.08 498.169C4986.5 387.107 5188.15 341.347 5423.51 365.366C5423.51 365.366 5661.66 278.188 5745.86 306.871C5745.86 306.871 5837.88 316.067 5889.82 429.198C5922.59 500.547 5877.38 530.824 5815.25 565.666C5815.25 565.666 5717.45 349.187 5563.69 461.475C5433.06 556.867 5571.04 728.76 5571.04 728.76L4877.89 1141.92C4877.89 1141.92 4825.34 1060.38 4810.39 1041.94C4780.47 1005 4695.82 965.621 4617.14 1025.67C4530.86 1091.52 4555.8 1203.75 4608.84 1279.5C4608.84 1279.5 4524.97 1361.05 4459.83 1281.57L4431.71 1287.37C4431.71 1287.37 4315.05 1111.53 4351.32 986.945L4326.14 984.424L4325.26 956.458Z" fill="#57599B"/>
<mask id="mask0_128_353" style="mask-type:luminance" maskUnits="userSpaceOnUse" x="4325" y="301" width="1576" height="1016">
<path d="M4325.26 956.458C4325.26 956.458 4362.61 942.952 4361.66 934.757C4360.72 926.55 4567.65 636.639 4800.08 498.169C4986.5 387.107 5188.15 341.347 5423.51 365.366C5423.51 365.366 5661.66 278.188 5745.86 306.871C5745.86 306.871 5837.88 316.067 5889.82 429.198C5922.59 500.547 5877.38 530.824 5815.25 565.666C5815.25 565.666 5717.45 349.187 5563.69 461.475C5433.06 556.867 5571.04 728.76 5571.04 728.76L4877.89 1141.92C4877.89 1141.92 4825.34 1060.38 4810.39 1041.94C4780.47 1005 4695.82 965.621 4617.14 1025.67C4530.86 1091.52 4555.8 1203.75 4608.84 1279.5C4608.84 1279.5 4524.97 1361.05 4459.83 1281.57L4431.71 1287.37C4431.71 1287.37 4315.05 1111.53 4351.32 986.945L4326.14 984.424L4325.26 956.458Z" fill="white"/>
</mask>
<g mask="url(#mask0_128_353)">
<path d="M4325.94 978.309C4325.94 978.309 4374.01 963.67 4393.08 932.823C4412.15 901.961 4552.1 726.261 4601.1 682.764C4650.1 639.268 4735.74 539.389 4893.15 471.552C5042.94 407.005 5179.43 374.426 5404.12 386.066C5404.12 386.066 5666.1 296.952 5782.1 327.405C5782.1 327.405 5861.18 384.321 5880.16 420.72L5895.58 443.823L5921.14 428.593L5786.42 263.455L5416.66 322.692L5063.42 348.708L4855.38 429.816L4438.69 779.55L4341.15 906.574L4288.43 945.797L4325.94 978.309Z" fill="#BB3DC6"/>
</g>
<mask id="mask1_128_353" style="mask-type:luminance" maskUnits="userSpaceOnUse" x="4325" y="301" width="1576" height="1016">
<path d="M4325.26 956.458C4325.26 956.458 4362.61 942.952 4361.66 934.757C4360.72 926.55 4567.65 636.639 4800.08 498.169C4986.5 387.107 5188.15 341.347 5423.51 365.366C5423.51 365.366 5661.66 278.188 5745.86 306.871C5745.86 306.871 5837.88 316.067 5889.82 429.198C5922.59 500.547 5877.38 530.824 5815.25 565.666C5815.25 565.666 5717.45 349.187 5563.69 461.475C5433.06 556.867 5571.04 728.76 5571.04 728.76L4877.89 1141.92C4877.89 1141.92 4825.34 1060.38 4810.39 1041.94C4780.47 1005 4695.82 965.621 4617.14 1025.67C4530.86 1091.52 4555.8 1203.75 4608.84 1279.5C4608.84 1279.5 4524.97 1361.05 4459.83 1281.57L4431.71 1287.37C4431.71 1287.37 4315.05 1111.53 4351.32 986.945L4326.14 984.424L4325.26 956.458Z" fill="white"/>
</mask>
<g mask="url(#mask1_128_353)">
<path d="M4361.65 934.767C4361.65 934.767 4374.36 946.579 4393.08 932.811C4411.8 919.056 4512.19 780.702 4512.19 780.702C4512.19 780.702 4513.43 756.215 4507.01 750.09C4507.01 750.09 4372.01 882.593 4361.65 934.767Z" fill="#A8C4D6"/>
</g>
<mask id="mask2_128_353" style="mask-type:luminance" maskUnits="userSpaceOnUse" x="4325" y="301" width="1576" height="1016">
<path d="M4325.26 956.458C4325.26 956.458 4362.61 942.952 4361.66 934.757C4360.72 926.55 4567.65 636.639 4800.08 498.169C4986.5 387.107 5188.15 341.347 5423.51 365.366C5423.51 365.366 5661.66 278.188 5745.86 306.871C5745.86 306.871 5837.88 316.067 5889.82 429.198C5922.59 500.547 5877.38 530.824 5815.25 565.666C5815.25 565.666 5717.45 349.187 5563.69 461.475C5433.06 556.867 5571.04 728.76 5571.04 728.76L4877.89 1141.92C4877.89 1141.92 4825.34 1060.38 4810.39 1041.94C4780.47 1005 4695.82 965.621 4617.14 1025.67C4530.86 1091.52 4555.8 1203.75 4608.84 1279.5C4608.84 1279.5 4524.97 1361.05 4459.83 1281.57L4431.71 1287.37C4431.71 1287.37 4315.05 1111.53 4351.32 986.945L4326.14 984.424L4325.26 956.458Z" fill="white"/>
</mask>
<g mask="url(#mask2_128_353)">
<path d="M5114.52 367.637L5130.53 394.494L5420.23 385.626L5423.5 365.375L5295.36 343.021L5114.52 367.637Z" fill="#A8C4D6"/>
</g>
<path d="M4504.64 866.555C4504.64 866.555 4500.47 881.782 4516.88 887.088C4533.28 892.408 4603.02 903.244 4626.15 892.657C4649.27 882.077 5338.17 539.23 5369.9 503.583C5401.62 467.937 5411.37 432.436 5394.11 425.712L5372.52 429.735L5065.63 621.503L4504.64 866.555Z" fill="#7291DE"/>
<path d="M5591.18 479.81C5652.05 443.529 5734.07 469.003 5774.35 536.575C5814.63 604.147 5798 688.419 5737.15 724.693C5676.17 761.04 5594.15 735.566 5553.87 667.994C5513.59 600.422 5530.2 516.157 5591.18 479.81ZM5737.55 558.508C5710.71 513.465 5656.07 496.663 5615.61 520.782C5575.03 544.968 5563.82 601.017 5590.67 646.06C5617.52 691.104 5672.22 708.028 5712.8 683.843C5753.26 659.723 5764.4 603.552 5737.55 558.508Z" fill="#2A2530"/>
<path d="M5615.6 520.783C5656.07 496.663 5710.7 513.465 5737.55 558.509C5764.4 603.552 5753.26 659.724 5712.8 683.843C5672.22 708.029 5617.52 691.104 5590.67 646.061C5563.82 601.018 5575.03 544.968 5615.6 520.783ZM5722.98 567.195C5701.49 531.136 5657.73 517.599 5625.25 536.96C5592.66 556.387 5583.75 601.316 5605.24 637.375C5626.73 673.434 5670.49 686.971 5703.08 667.544C5735.57 648.183 5744.47 603.254 5722.98 567.195Z" fill="#F0EAE8"/>
<path d="M5625.25 536.955C5657.73 517.594 5701.49 531.131 5722.98 567.19C5744.47 603.249 5735.56 648.178 5703.08 667.539C5670.49 686.966 5626.73 673.429 5605.24 637.37C5583.74 601.311 5592.65 556.382 5625.25 536.955Z" fill="#D3D0CF"/>
<path d="M4366.69 1154.54C4366.69 1154.54 4413.66 1144.08 4410.06 1100.74C4406.46 1057.4 4403.46 1011.11 4398.88 1003.43C4393.13 993.79 4368.11 968.46 4351.31 986.938C4351.31 986.938 4328.08 1081.79 4366.69 1154.54Z" fill="#E7E0DB"/>
<path d="M5798.21 355.847C5798.21 355.847 5610.26 378.118 5620.94 341.31C5626.57 321.877 5787.73 314.639 5798.21 355.847Z" fill="#E7E0DB"/>
<g opacity="0.56">
<path d="M5529.27 754.87C5528.43 753.825 5447.67 636.405 5465.36 531.321C5474.6 476.411 5508.77 435.113 5566.97 408.664C5617.05 385.872 5665.97 384.413 5712.35 404.296C5800.29 442.005 5847.61 542.094 5849.57 546.332L5838.59 551.127C5838.14 550.146 5791.55 451.721 5708.55 416.181C5665.44 397.718 5619.73 399.209 5572.7 420.622C5518.87 445.111 5486.99 482.746 5477.89 532.462C5459.65 632.118 5537.59 746.031 5538.38 747.085L5529.27 754.87Z" fill="#3C4278"/>
</g>
<path d="M4511.15 862.665C4511.15 862.665 4601.94 884.144 4626.92 869.257C4651.9 854.369 5337.01 507.638 5358.52 477.067C5380.03 446.497 5388.87 426.675 5388.87 426.675C5388.87 426.675 5040.12 411.961 4826.21 539.46C4642.49 648.988 4511.15 862.665 4511.15 862.665Z" fill="#103952"/>
<g opacity="0.56">
<path d="M5414.8 774.936L5150.73 932.333L4999.51 691.268L5009.61 684.862L5153.96 914.979L5408.02 763.542C5431.47 749.566 5443.17 721.406 5437.12 693.502C5429.39 659.541 5395.07 577.84 5318.84 504.072L5326.71 494.929C5395.08 561.075 5437.93 642.693 5448.85 690.521C5456.29 725.002 5442.51 758.417 5414.8 774.936Z" fill="#3C4278"/>
</g>
<path d="M4459.82 1281.56L4583.07 1228.66L4611.22 1280.27C4611.22 1280.27 4559.89 1322.5 4523.87 1318.17C4487.87 1313.86 4468.97 1296.85 4459.82 1281.56Z" fill="#2A2730"/>
<path d="M5675.77 621.84C5685.37 616.122 5688 602.852 5681.65 592.201C5675.3 581.55 5662.38 577.552 5652.78 583.27C5643.19 588.989 5640.56 602.259 5646.91 612.91C5653.25 623.561 5666.18 627.559 5675.77 621.84Z" fill="#7F8287"/>
<path d="M4651.62 1039.85C4712.49 1003.56 4794.51 1029.04 4834.79 1096.61C4875.06 1164.18 4858.45 1248.45 4797.58 1284.73C4736.6 1321.07 4654.58 1295.6 4614.31 1228.03C4574.03 1160.46 4590.64 1076.19 4651.62 1039.85ZM4797.99 1118.54C4771.14 1073.5 4716.51 1056.7 4676.04 1080.82C4635.47 1105 4624.26 1161.05 4651.1 1206.1C4677.95 1251.14 4732.66 1268.06 4773.23 1243.88C4813.71 1219.75 4824.84 1163.59 4797.99 1118.54Z" fill="#2A2530"/>
<path d="M4676.04 1080.82C4716.52 1056.69 4771.14 1073.5 4797.99 1118.54C4824.84 1163.59 4813.7 1219.76 4773.23 1243.88C4732.66 1268.06 4677.95 1251.14 4651.1 1206.1C4624.25 1161.05 4635.47 1105 4676.04 1080.82ZM4783.42 1127.23C4761.92 1091.17 4718.17 1077.63 4685.68 1097C4653.09 1116.42 4644.18 1161.35 4665.68 1197.41C4687.17 1233.47 4730.93 1247.01 4763.52 1227.58C4796 1208.22 4804.91 1163.29 4783.42 1127.23Z" fill="#F0EAE8"/>
<path d="M4685.68 1096.99C4718.16 1077.63 4761.92 1091.17 4783.41 1127.23C4804.91 1163.28 4796 1208.21 4763.52 1227.57C4730.92 1247 4687.17 1233.46 4665.67 1197.41C4644.18 1161.35 4653.09 1116.42 4685.68 1096.99Z" fill="#D3D0CF"/>
<mask id="mask3_128_353" style="mask-type:luminance" maskUnits="userSpaceOnUse" x="4511" y="426" width="878" height="449">
<path d="M4511.15 862.665C4511.15 862.665 4601.94 884.144 4626.92 869.257C4651.9 854.369 5337.01 507.638 5358.52 477.067C5380.03 446.497 5388.87 426.675 5388.87 426.675C5388.87 426.675 5040.12 411.961 4826.21 539.46C4642.49 648.988 4511.15 862.665 4511.15 862.665Z" fill="white"/>
</mask>
<g mask="url(#mask3_128_353)">
<path d="M4527.57 866.165C4527.57 866.165 4674.47 650.295 4832.99 555.806C4979.58 468.429 5394.12 425.724 5394.12 425.724L5375.73 412.152C5375.73 412.152 4967.26 408.288 4814.07 529.011C4660.88 649.733 4492.27 855.698 4492.27 855.698L4527.57 866.165Z" fill="#0B2938"/>
</g>
<path d="M5224.54 437.451C5229.04 445.01 5315.06 506.177 5315.06 506.177L5337.12 493.025L5260.68 431.432L5224.54 437.451Z" fill="#2A2730"/>
<g opacity="0.56">
<path d="M5160.99 926.214L4882.01 1092.5L4878.76 1086.16C4878.59 1085.82 4860.75 1051.27 4830.21 1013.24C4814.18 993.272 4799.03 986.649 4778.05 977.489C4760.33 969.75 4738.29 960.119 4709.5 939.349C4643.53 891.744 4671.19 829.315 4671.46 828.691L4682.66 835.132C4681.68 837.277 4659.49 888.246 4715.83 928.885C4743.41 948.808 4763.84 957.728 4781.86 965.597C4803.78 975.177 4821.08 982.722 4839.31 1005.44C4863.36 1035.4 4879.49 1062.7 4886.1 1074.6L5143.65 921.082L4992.86 680.177L5002.96 673.771L5160.99 926.214Z" fill="#3C4278"/>
</g>
<path d="M4830.24 861.749L4752.22 908.254C4745.29 896.624 4748.16 882.127 4758.64 875.882L4798.7 852.003C4809.19 845.751 4823.31 850.119 4830.24 861.749Z" fill="#7291DE"/>
<path d="M5134.34 680.488L5056.32 726.993C5049.39 715.362 5052.26 700.865 5062.74 694.62L5102.8 670.741C5113.29 664.489 5127.41 668.857 5134.34 680.488Z" fill="#7291DE"/>
<path d="M4661.09 673.793L4669.51 846.872L4735.32 812.926L4690.31 755.879L4685.57 649.357L4661.09 673.793Z" fill="#2A2730"/>
<g opacity="0.35">
<path d="M4858.26 521.903L4873.16 739.788L4893.92 731.057L4882.97 510.376L4858.26 521.903Z" fill="#1E5B7A"/>
</g>
<g opacity="0.35">
<path d="M5078.99 451.274L5086.19 630.747L5148.44 597.782L5147.44 440.175C5147.44 440.175 5091.7 442.555 5078.99 451.274Z" fill="#1E5B7A"/>
</g>
<g opacity="0.35">
<path d="M4779.39 570.31L4786.3 788.014L4845.55 756.246L4837.34 533.061L4779.39 570.31Z" fill="#1E5B7A"/>
</g>
<path d="M4984.35 684.093L5008.35 671.571L4895.21 504.897L4870.93 515.748" fill="#2A2730"/>
<path d="M4736.06 1181.62C4745.65 1175.9 4748.28 1162.63 4741.93 1151.98C4735.59 1141.33 4722.66 1137.33 4713.07 1143.05C4703.47 1148.77 4700.84 1162.04 4707.19 1172.69C4713.54 1183.34 4726.46 1187.34 4736.06 1181.62Z" fill="#7F8287"/>
<path d="M4386.49 1198.53C4378.68 1201.47 4369.49 1196.98 4365.96 1188.47C4362.43 1179.96 4365.88 1170.68 4373.68 1167.74L4386.49 1198.53Z" fill="#EAB042"/>
<path d="M5317.73 540.505L5301.06 535.027L5303.6 503.438L5325.73 509.763C5325.73 509.763 5329.66 510.202 5333.69 515.268C5343.79 527.968 5332.46 545.338 5317.73 540.505Z" fill="#2A2730"/>
<path d="M5275.08 560.163C5251.54 575.351 5216.43 559.35 5211.97 529.103C5210.88 521.729 5212.22 514.971 5217.75 510.039C5239.86 490.334 5271.39 469.185 5303.59 503.443C5313.1 513.557 5311.48 524.269 5304.48 534.345C5297.88 543.871 5286.47 552.826 5275.08 560.163Z" fill="#57599B"/>
<path d="M5224.29 698.746L5245.91 685.863L5246.82 731.871L5261.93 722.865L5269.44 782.304L5255.48 743.283L5235.56 755.153L5224.29 698.746Z" fill="#DEF4F6"/>
<path d="M10097.7 814.668L10122.7 691.06C10127.1 669.164 10116.1 647.795 10097.1 641.641L9734.45 523.335L9504.39 264.374L9029.52 168.247C9014.28 165.163 8998.82 174.978 8992.99 191.386L8933.23 360.584L8338.73 240.239C8329.34 238.338 8320.03 245.317 8317.89 255.86L8316.29 263.767C8314.16 274.31 8320.02 284.361 8329.41 286.262L8319.44 335.53C8310.05 333.628 8300.74 340.608 8298.6 351.151L8271.15 486.787C8253.93 483.301 8236.85 496.165 8232.95 515.426L8232.09 519.684C8228.17 539.012 8238.98 557.451 8256.14 560.925L8256.03 561.465L8390.29 608.483C8414.52 616.975 8441.54 604.858 8454.68 579.588L8474.06 542.356C8503.26 486.357 8557.1 451.386 8614.16 451.259C8634.79 451.214 8654.98 455.794 8673.63 464.633L8685.81 470.406C8735.73 494.089 8769.38 546.137 8774.11 606.964L8777.92 655.645C8779.67 678.299 8794.49 696.425 8814.54 700.483L9577.75 854.979C9598.16 859.111 9619.19 848.102 9630.02 827.712L9654.15 782.224C9684.13 725.752 9738.79 690.736 9796.53 690.958C9818.52 691.046 9840.09 696.257 9859.74 706.286L9873.78 713.419C9920.37 737.132 9952.33 785.46 9959.2 842.568L9966.38 902.133C9968.71 921.599 9981.8 936.84 9999.14 940.351L10069.3 954.55L10123 853.996L10097.6 814.655L10097.7 814.668Z" fill="#C70203"/>
<path d="M9590.77 798.093L8967.66 671.959C8951.17 668.62 8959.73 586.987 8972.57 480.541C8977.14 442.774 8981.86 403.698 8980.08 399.469C8973.74 386.225 8972.99 370.387 8978.17 355.958L9021.07 235.055C9032.29 203.487 9061.69 184.885 9091.01 190.821L9451.54 263.803C9480.56 269.678 9506.51 285.133 9526.58 308.612L9661.87 466.641C9676.11 483.312 9671.47 506.222 9667.75 524.604C9664.03 542.986 9651.02 606.342 9636.29 667.943C9604.56 800.884 9595.22 798.995 9590.77 798.093ZM9089.98 195.607C9062.76 190.098 9035.45 207.363 9025.06 236.707L8982.16 357.61C8977.5 370.736 8978.15 385.15 8983.93 397.154C8986.26 402.057 8983.13 429.283 8976.91 481.069C8972.04 521.238 8966.58 566.776 8964.13 603.637C8960.48 659.46 8966.09 666.716 8968.68 667.241L9591.79 793.375C9592.75 793.57 9602.34 791.712 9632.12 666.887C9646.83 605.353 9659.87 541.863 9663.51 523.886C9667.98 501.787 9670.42 483.849 9658.67 470.073L9523.38 312.044C9503.91 289.319 9478.75 274.306 9450.63 268.614L9090.1 195.632L9089.98 195.607Z" fill="#AA0009"/>
<path d="M9015.33 404.283L9622.47 530.915C9647.74 536.169 9665.51 501.636 9648.02 481.212L9512.72 323.182C9495.34 302.85 9472.53 289.227 9447.36 284.132L9086.83 211.15C9066.6 207.055 9046.04 220.059 9038.31 241.85L8995.41 362.753C8988.94 381.072 8998.38 400.711 9015.33 404.283Z" fill="#010101"/>
<path d="M8777.97 655.724L8774.16 607.044C8769.38 546.136 8735.77 494.168 8685.85 470.485L8673.67 464.712C8655.03 455.873 8634.83 451.293 8614.2 451.338C8557.15 451.398 8503.3 486.436 8474.11 542.435L8454.72 579.667C8450.72 587.369 8445.33 593.875 8439.23 598.903L8780.32 667.948C8779.1 664.044 8778.35 660.022 8777.97 655.724Z" fill="#231F20"/>
<path d="M9966.46 902.075L9959.27 842.511C9952.41 785.403 9920.45 737.074 9873.85 713.361L9859.82 706.228C9840.16 696.199 9818.59 690.988 9796.61 690.9C9738.87 690.679 9684.19 725.762 9654.22 782.167L9630.1 827.655C9627.99 831.589 9625.51 835.167 9622.79 838.347L9967.67 908.16C9967.2 906.165 9966.8 904.114 9966.53 902.02L9966.46 902.075Z" fill="#231F20"/>
<path d="M8592.63 731.622C8549.46 722.883 8522.43 676.537 8532.24 628.08C8542.05 579.624 8584.98 547.441 8628.15 556.179C8671.32 564.918 8698.35 611.265 8688.54 659.721C8678.73 708.177 8635.8 740.361 8592.63 731.622Z" fill="#231F20"/>
<path d="M9780.12 972.005C9736.95 963.266 9709.92 916.919 9719.73 868.463C9729.54 820.007 9772.47 787.823 9815.64 796.562C9858.81 805.301 9885.84 851.647 9876.03 900.104C9866.22 948.56 9823.29 980.744 9780.12 972.005Z" fill="#231F20"/>
<path d="M8637.44 650.842C8637.58 650.166 8637.85 649.447 8637.98 648.771C8639.34 642.08 8638.55 635.448 8636.04 629.876L8679.59 587.194C8674.12 578.629 8667.23 571.184 8659.27 565.282L8624.73 617.315C8622.7 616.2 8620.54 615.412 8618.19 614.936C8615.12 614.315 8612.11 614.338 8609.18 614.871L8593.61 553.115C8583.91 555.796 8574.65 560.392 8566.26 566.504L8594.38 623.272C8590.68 627.307 8588.01 632.464 8586.81 638.411C8586.67 639.087 8586.55 639.695 8586.47 640.383L8526.22 646.056C8525.95 657.259 8527.59 668.072 8530.75 678.139L8588.95 657.84C8591.13 662.572 8594.53 666.498 8598.77 669.114L8578.11 731.836C8582.45 733.628 8586.99 735.04 8591.74 736.003C8596.5 736.966 8601.61 737.437 8606.56 737.454L8614.38 672.485C8619.46 671.826 8624.26 669.491 8628.23 666.002L8671.57 705.167C8678.13 697.209 8683.57 687.969 8687.53 677.725L8637.57 650.798L8637.44 650.842Z" fill="#E6E7E8"/>
<path d="M8619.33 630.296C8618.72 633.337 8615.99 635.387 8613.28 634.838C8610.57 634.29 8608.84 631.338 8609.46 628.297C8610.08 625.256 8612.81 623.207 8615.52 623.755C8618.23 624.304 8619.95 627.255 8619.33 630.296Z" fill="#D1D3D4"/>
<path d="M8607.53 663.218C8610.26 663.77 8612.97 661.736 8613.59 658.675C8614.21 655.615 8612.5 652.686 8609.78 652.134C8607.05 651.582 8604.34 653.616 8603.72 656.677C8603.1 659.737 8604.8 662.666 8607.53 663.218Z" fill="#D1D3D4"/>
<path d="M8623.04 651.587C8620.34 651.038 8618.61 648.087 8619.23 645.046C8619.85 642.004 8622.58 639.955 8625.29 640.503C8628 641.052 8629.72 644.003 8629.1 647.044C8628.49 650.086 8625.75 652.135 8623.04 651.587Z" fill="#D1D3D4"/>
<path d="M8597.76 646.47C8595.05 645.921 8593.33 642.97 8593.95 639.928C8594.56 636.887 8597.3 634.838 8600.01 635.386C8602.72 635.935 8604.44 638.886 8603.82 641.927C8603.21 644.969 8600.47 647.018 8597.76 646.47Z" fill="#D1D3D4"/>
<path d="M8643.15 482.036C8563.5 465.911 8484.29 525.293 8466.19 614.704C8448.09 704.115 8497.97 789.628 8577.62 805.753C8657.28 821.878 8736.49 762.496 8754.59 673.085C8772.69 583.674 8722.81 498.161 8643.15 482.036ZM8591.26 738.374C8544.78 728.965 8515.71 679.041 8526.26 626.935C8536.81 574.83 8583.06 540.153 8629.48 549.55C8675.91 558.947 8705.03 608.883 8694.48 660.989C8683.94 713.094 8637.68 747.771 8591.26 738.374Z" fill="#010101"/>
<path d="M8631.29 540.629C8580.48 530.342 8529.94 568.232 8518.39 625.271C8506.84 682.31 8538.67 736.873 8589.48 747.159C8640.3 757.446 8690.84 719.557 8702.39 662.517C8713.93 605.478 8682.11 550.916 8631.29 540.629ZM8592.63 731.616C8549.46 722.877 8522.43 676.53 8532.24 628.074C8542.05 579.618 8584.98 547.434 8628.15 556.173C8671.32 564.912 8698.35 611.258 8688.54 659.714C8678.73 708.17 8635.8 740.354 8592.63 731.616Z" fill="#D1D3D4"/>
<path d="M9824.94 891.228C9825.08 890.552 9825.35 889.833 9825.49 889.158C9826.84 882.467 9826.05 875.835 9823.54 870.262L9867.09 827.581C9861.62 819.016 9854.73 811.571 9846.77 805.669L9812.24 857.702C9810.2 856.587 9808.04 855.798 9805.7 855.323C9802.63 854.701 9799.61 854.725 9796.68 855.258L9781.11 793.501C9771.41 796.182 9762.15 800.779 9753.76 806.891L9781.88 863.658C9778.19 867.693 9775.51 872.851 9774.31 878.798C9774.17 879.474 9774.05 880.082 9773.97 880.77L9713.72 886.442C9713.46 897.646 9715.09 908.459 9718.26 918.526L9776.45 898.227C9778.63 902.959 9782.03 906.885 9786.27 909.5L9765.61 972.222C9769.95 974.015 9774.49 975.427 9779.25 976.39C9784 977.352 9789.11 977.824 9794.06 977.84L9801.88 912.872C9806.97 912.213 9811.76 909.877 9815.73 906.389L9859.07 945.554C9865.63 937.596 9871.08 928.356 9875.03 918.111L9825.07 891.185L9824.94 891.228Z" fill="#E6E7E8"/>
<path d="M9806.85 870.685C9806.23 873.726 9803.5 875.776 9800.79 875.227C9798.08 874.679 9796.36 871.727 9796.98 868.686C9797.59 865.645 9800.33 863.595 9803.03 864.144C9805.74 864.692 9807.47 867.644 9806.85 870.685Z" fill="#D1D3D4"/>
<path d="M9801.11 899.064C9800.49 902.105 9797.76 904.155 9795.05 903.606C9792.34 903.058 9790.62 900.106 9791.23 897.065C9791.85 894.024 9794.58 891.974 9797.29 892.523C9800 893.071 9801.72 896.023 9801.11 899.064Z" fill="#D1D3D4"/>
<path d="M9810.55 891.976C9807.85 891.427 9806.12 888.476 9806.74 885.434C9807.36 882.393 9810.09 880.344 9812.8 880.892C9815.51 881.44 9817.23 884.392 9816.61 887.433C9816 890.474 9813.26 892.524 9810.55 891.976Z" fill="#D1D3D4"/>
<path d="M9785.27 886.858C9782.56 886.31 9780.84 883.358 9781.46 880.317C9782.07 877.276 9784.81 875.226 9787.52 875.775C9790.23 876.323 9791.95 879.275 9791.33 882.316C9790.72 885.357 9787.98 887.407 9785.27 886.858Z" fill="#D1D3D4"/>
<path d="M9830.66 722.425C9751 706.3 9671.8 765.682 9653.7 855.093C9635.6 944.503 9685.47 1030.02 9765.13 1046.14C9844.79 1062.27 9924 1002.88 9942.1 913.473C9960.2 824.063 9910.32 738.55 9830.66 722.425ZM9778.77 978.763C9732.29 969.353 9703.22 919.43 9713.77 867.324C9724.32 815.218 9770.57 780.542 9816.99 789.939C9863.42 799.336 9892.54 849.272 9881.99 901.377C9871.45 953.483 9825.19 988.16 9778.77 978.763Z" fill="#010101"/>
<path d="M9818.79 781.016C9767.98 770.729 9717.44 808.618 9705.89 865.657C9694.34 922.697 9726.17 977.259 9776.99 987.546C9827.8 997.833 9878.34 959.943 9889.89 902.904C9901.44 845.865 9869.61 791.303 9818.79 781.016ZM9780.13 972.002C9736.96 963.263 9709.93 916.917 9719.74 868.461C9729.55 820.004 9772.48 787.821 9815.65 796.56C9858.82 805.298 9885.85 851.645 9876.04 900.101C9866.23 948.557 9823.3 980.741 9780.13 972.002Z" fill="#D1D3D4"/>
<path d="M8935.83 360.542L8931.49 360.088L8887.3 715.153L8891.64 715.607L8935.83 360.542Z" fill="#AA0009"/>
<path d="M9271.73 485.327L9267.38 484.873L9237.54 724.66L9241.89 725.114L9271.73 485.327Z" fill="#AA0009"/>
<path d="M9011.9 415.753L9010.87 420.539L9625.44 554.754L9626.47 549.968L9011.9 415.753Z" fill="#AA0009"/>
<path d="M8888.02 395.396L8347.05 285.887L8346.08 290.685L8887.05 400.195L8888.02 395.396Z" fill="#AA0009"/>
<path d="M9029.42 658.225L8773.45 600.357C8773.68 602.586 8774 604.76 8774.16 607.045L8777.97 655.725C8779.71 678.38 8794.53 696.505 8814.58 700.563L9577.79 855.059C9598.2 859.191 9619.24 848.182 9630.07 827.793L9654.19 782.305C9655.93 778.998 9657.84 775.727 9659.75 772.524L9029.41 658.292L9029.42 658.225Z" fill="#AA0009"/>
<path d="M9966.47 902.085C9968.79 921.551 9981.88 936.793 9999.22 940.303L10069.4 954.502L10123.1 853.948L10097.7 814.607L10013.5 836.532L9956.57 826.212C9957.67 831.572 9958.66 836.908 9959.29 842.453L9966.48 902.018L9966.47 902.085Z" fill="#AA0009"/>
<path d="M8232.95 515.426L8232.09 519.683C8228.17 539.012 8238.98 557.451 8256.14 560.924L8256.03 561.465L8390.29 608.483C8414.52 616.975 8441.54 604.857 8454.68 579.587L8474.06 542.356C8475.6 539.43 8477.25 536.528 8478.89 533.694L8271.1 486.707C8253.88 483.222 8236.8 496.085 8232.9 515.346L8232.95 515.426Z" fill="#AA0009"/>
<path d="M9261.1 455.595L9297.31 463.135C9294.31 453.804 9290.44 440.71 9289.79 432.487C9288.69 418.688 9297.62 272.406 9297.62 272.406L9304.17 255.229L9271 248.514C9274.27 254.945 9278.69 265.619 9278.47 275.987C9278.09 292.441 9273.76 441.062 9267.89 448.386C9266.13 450.563 9263.68 453.091 9261.1 455.595Z" fill="#231F20"/>
<path d="M9661.25 563.884L9617.83 555.097C9612.36 553.987 9609.34 547.537 9611.59 541.662L9635.23 480.317C9636.96 475.812 9641.24 473.232 9645.45 474.085L9678.09 480.691C9705.3 486.2 9723.62 509.326 9718.97 532.304C9714.32 555.281 9688.45 569.461 9661.23 563.952L9661.25 563.884Z" fill="#E01721"/>
<path d="M9666.29 538.95L9622.88 530.162C9620.59 529.699 9618.69 528.258 9617.52 526.332L9611.59 541.665C9609.34 547.54 9612.36 553.991 9617.83 555.1L9661.25 563.887C9688.46 569.396 9714.33 555.217 9718.98 532.239C9719.86 527.914 9719.92 523.565 9719.27 519.353C9709.59 534.981 9688.39 543.423 9666.35 538.962L9666.29 538.95Z" fill="#AA0009"/>
<path d="M10122.2 693.287L10085.5 685.853C10077.9 684.305 10070.2 689.998 10068.4 698.649L10058 750.349C10056.7 756.769 10059 763.22 10063.8 766.658L10101.9 793.499L10122.2 693.343L10122.2 693.287Z" fill="#D1D3D4"/>
<path d="M10068.5 758.807C10066.4 757.331 10065.4 754.673 10066 751.902L10076.5 700.202C10077.2 696.552 10080.4 694.183 10083.6 694.829L10112.3 700.63L10096.5 778.552L10068.4 758.728L10068.5 758.807Z" fill="white"/>
<path d="M8293.61 375.824L8276.1 462.329L8314.19 448.161L8327.38 383.012C8327.38 383.012 8305.15 377.95 8293.6 375.892L8293.61 375.824Z" fill="#FEAB01"/>
<path d="M9364.27 466.688L9472.41 310.52C9459.93 300.958 9445.61 294.33 9430.31 291.234L9415.68 288.272L9301.26 453.509L9364.23 466.609L9364.27 466.688Z" fill="#28211F"/>
<path d="M9519.01 361.184L9489.75 327.051L9389.47 471.936L9435.6 481.554L9519.01 361.184Z" fill="#28211F"/>
<path d="M9136.74 231.805L9027.19 389.941C9030.63 394.646 9035.56 398.176 9041.52 399.383L9086.26 408.721L9199.9 244.59L9136.68 231.793L9136.74 231.805Z" fill="#28211F"/>
<path d="M9271.61 259.107L9225.25 249.722L9111.47 413.963L9157.65 423.594L9271.61 259.107Z" fill="#28211F"/>
<g style="mix-blend-mode:screen">
<path d="M8363.44 321.291L8881.78 426.218L8872.73 470.957L8363.44 321.291Z" fill="#3D3533"/>
</g>
<g style="mix-blend-mode:screen">
<path d="M9015.76 446.441L9254.65 501.695L9251.56 547.64L9015.76 446.441Z" fill="#3D3533"/>
</g>
<g style="mix-blend-mode:screen">
<path d="M9286.09 508.061L9621.03 575.863L9281.01 553.604L9286.09 508.061Z" fill="#3D3533"/>
</g>
<path d="M12476.2 717.633H12437C12446.7 739.957 12460 759.503 12470.9 768.57H12482.9C12478.5 753.508 12476.1 737.569 12476.1 721.045C12476.1 719.924 12476.2 718.754 12476.2 717.633H12476.2Z" fill="#58595B"/>
<path d="M13975.9 633.307V830.912H12467.8C12448.3 814.729 12420.8 764.67 12422 725.821C12422 725.821 12429.6 677.078 12441.7 619.171C12442.6 614.687 12443.7 610.105 12444.7 605.474C12452.1 571.354 12461.1 535.187 12471.1 504.673C12478.2 482.544 12486 463.437 12494 450.227C12494 450.227 12719.5 276.75 12768.8 269H13218.9C13268.7 269 13317.5 282.892 13360.1 309.213C13458.1 369.947 13636.5 478.255 13665.1 481.033C13665.1 481.033 13960.7 531.092 13975.9 633.307H13975.9Z" fill="#FF833E"/>
<path d="M12796.1 784.167C12796.1 800.398 12793.7 816.045 12789.4 830.863H12479.5C12475.2 816.045 12472.9 800.35 12472.9 784.167C12472.9 693.553 12545.4 619.805 12634.5 619.805C12723.5 619.805 12796 693.553 12796 784.167H12796.1Z" fill="#F26522"/>
<path d="M13767.4 784.167C13767.4 800.398 13765.1 816.045 13760.7 830.863H13450.9C13446.5 816.045 13444.2 800.35 13444.2 784.167C13444.2 693.553 13516.7 619.805 13605.8 619.805C13694.9 619.805 13767.4 693.553 13767.4 784.167Z" fill="#F26522"/>
<path d="M12796.1 784.167C12796.1 800.398 12793.7 816.045 12789.4 830.863H12479.5C12475.2 816.045 12472.9 800.35 12472.9 784.167C12472.9 693.553 12545.4 619.805 12634.5 619.805C12723.5 619.805 12796 693.553 12796 784.167H12796.1Z" fill="#C1440E"/>
<path d="M13767.4 784.167C13767.4 800.398 13765.1 816.045 13760.7 830.863H13450.9C13446.5 816.045 13444.2 800.35 13444.2 784.167C13444.2 693.553 13516.7 619.805 13605.8 619.805C13694.9 619.805 13767.4 693.553 13767.4 784.167Z" fill="#C1440E"/>
<path d="M12665.6 915.716C12737.1 898.315 12781.2 825.226 12764.1 752.467C12747 679.707 12675.1 634.831 12603.6 652.231C12532.1 669.632 12488 742.721 12505.1 815.481C12522.2 888.24 12594 933.117 12665.6 915.716Z" fill="#58595B"/>
<path d="M12656.2 876.048C12706.1 863.939 12737 812.917 12725.1 762.088C12713.2 711.258 12663 679.869 12613 691.978C12563.1 704.088 12532.2 755.11 12544.1 805.939C12556 856.769 12606.2 888.157 12656.2 876.048Z" fill="#A7A9AC"/>
<path d="M12653.4 865.017C12697.2 854.408 12724.3 809.652 12713.9 765.051C12703.5 720.451 12659.5 692.895 12615.6 703.504C12571.8 714.113 12544.7 758.869 12555.1 803.469C12565.5 848.07 12609.5 875.626 12653.4 865.017Z" fill="#D1D3D4"/>
<path d="M12634.5 805.566C12646.1 805.566 12655.5 795.986 12655.5 784.168C12655.5 772.35 12646.1 762.77 12634.5 762.77C12622.9 762.77 12613.5 772.35 12613.5 784.168C12613.5 795.986 12622.9 805.566 12634.5 805.566Z" fill="#58595B"/>
<path d="M12655.5 724.361C12655.5 715.051 12645.6 714.174 12633.6 714.174C12621.5 714.174 12611.7 715.051 12611.7 724.361C12611.7 733.671 12621.5 755.167 12633.6 755.167C12645.6 755.167 12655.5 733.622 12655.5 724.361Z" fill="#58595B"/>
<path d="M12583.3 747.32C12574.6 744.444 12570.7 753.656 12567 765.403C12563.3 777.102 12561.1 786.899 12569.7 789.775C12578.4 792.651 12601.6 789.775 12605.3 778.076C12609.1 766.378 12592 750.195 12583.3 747.368V747.32Z" fill="#58595B"/>
<path d="M12582.5 824.286C12577.1 831.793 12584.5 838.373 12594.3 845.636C12604.1 852.898 12612.6 858.016 12617.9 850.51C12623.3 843.004 12627.8 819.704 12618 812.49C12608.3 805.228 12587.8 816.78 12582.5 824.335V824.286Z" fill="#58595B"/>
<path d="M12654.2 848.852C12659.5 856.358 12668 851.191 12677.8 843.977C12687.6 836.763 12695 830.183 12689.6 822.628C12684.2 815.073 12663.9 803.569 12654.1 810.783C12644.3 818.046 12648.7 841.296 12654.2 848.803V848.852Z" fill="#58595B"/>
<path d="M12699.3 787.093C12707.9 784.217 12705.7 774.469 12702 762.722C12698.2 751.023 12694.4 741.762 12685.7 744.638C12677 747.514 12659.9 763.648 12663.6 775.346C12667.4 787.045 12690.5 789.92 12699.3 787.044V787.093Z" fill="#58595B"/>
<path d="M13684.5 893.222C13743.9 848.975 13756.7 764.204 13713.2 703.881C13669.7 643.558 13586.3 630.525 13527 674.772C13467.7 719.019 13454.9 803.79 13498.4 864.114C13541.9 924.437 13625.2 937.469 13684.5 893.222Z" fill="#58595B"/>
<path d="M13660.5 860.494C13702 829.751 13711.2 770.578 13681 728.327C13650.8 686.076 13592.6 676.746 13551.1 707.488C13509.5 738.231 13500.4 797.404 13530.6 839.655C13560.8 881.906 13619 891.236 13660.5 860.494Z" fill="#A7A9AC"/>
<path d="M13653.8 851.609C13690.3 824.681 13698.4 772.774 13671.9 735.67C13645.4 698.567 13594.4 690.318 13557.9 717.245C13521.4 744.173 13513.3 796.08 13539.8 833.184C13566.3 870.287 13617.3 878.536 13653.8 851.609Z" fill="#D1D3D4"/>
<path d="M13605.8 805.566C13617.4 805.566 13626.9 795.986 13626.9 784.168C13626.9 772.35 13617.4 762.77 13605.8 762.77C13594.2 762.77 13584.8 772.35 13584.8 784.168C13584.8 795.986 13594.2 805.566 13605.8 805.566Z" fill="#58595B"/>
<path d="M13626.8 724.359C13626.8 715.049 13617 714.172 13604.9 714.172C13592.8 714.172 13583 715.049 13583 724.359C13583 733.669 13592.8 755.165 13604.9 755.165C13617 755.165 13626.8 733.62 13626.8 724.359Z" fill="#58595B"/>
<path d="M13554.6 747.318C13546 744.442 13542.1 753.654 13538.4 765.401C13534.6 777.1 13532.4 786.897 13541.1 789.773C13549.8 792.649 13573 789.773 13576.7 778.075C13580.4 766.376 13563.3 750.193 13554.6 747.366V747.318Z" fill="#58595B"/>
<path d="M13553.8 824.284C13548.4 831.791 13555.8 838.371 13565.6 845.634C13575.4 852.896 13583.9 858.015 13589.2 850.508C13594.6 843.002 13599.1 819.702 13589.3 812.488C13579.6 805.226 13559.2 816.778 13553.8 824.333V824.284Z" fill="#58595B"/>
<path d="M13625.5 848.848C13630.8 856.354 13639.3 851.188 13649.1 843.974C13658.9 836.76 13666.3 830.179 13660.9 822.624C13655.6 815.118 13635.2 803.566 13625.4 810.78C13615.6 818.042 13620.1 841.293 13625.5 848.799V848.848Z" fill="#58595B"/>
<path d="M13670.6 787.091C13679.3 784.215 13677.1 774.467 13673.3 762.72C13669.6 751.021 13665.8 741.76 13657.1 744.636C13648.4 747.512 13631.3 763.646 13635 775.344C13638.7 787.043 13661.9 789.918 13670.6 787.043V787.091Z" fill="#58595B"/>
<path d="M13431.1 397.73V485.224H12561.8C12563.2 482.007 12564.6 479.033 12566.1 476.255C12582 464.118 12627 430.144 12675.5 395.634C12776.8 323.689 12808.6 310.089 12816.2 307.555H13218.9C13261.8 307.555 13303.7 319.546 13340.4 342.162C13374.1 363.073 13404.2 381.498 13431.1 397.73H13431.1Z" fill="#6D6E71"/>
<path d="M12600.1 469.773C12621.3 453.883 12652.1 431.12 12684.2 408.26C12777 342.359 12809.9 326.566 12818.9 322.959H13219C13259 322.959 13298.3 334.17 13332.5 355.324C13362.8 374.091 13390.9 391.297 13415.9 406.505V469.822H12600L12600.1 469.773Z" fill="#6D6E71"/>
<path d="M13052.6 307.555L13061.2 485.224H12989.9L13000 307.555H13052.6Z" fill="#414042"/>
<path opacity="0.1" d="M13340.4 342.163C13336.1 339.531 13331.8 337.045 13327.4 334.705L13266.6 485.224H13346.2L13391.3 373.505C13375.3 363.707 13358.4 353.276 13340.4 342.163Z" fill="white"/>
<path opacity="0.1" d="M13219 307.555H13195L13123.2 485.224H13220.1L13287.6 318.083C13265.5 311.162 13242.4 307.555 13219 307.555Z" fill="white"/>
<path opacity="0.1" d="M12835.5 478.742H12765.6L12832.2 313.99H12854.4C12869.8 313.99 12885.1 315.647 12900 318.962L12835.5 478.742Z" fill="white"/>
<path opacity="0.1" d="M12952.4 313.99H12930.1L12863.6 478.742H12911.1L12977 315.501C12968.9 314.526 12960.6 314.039 12952.4 314.039V313.99Z" fill="white"/>
<path d="M13976 633.307C13973.4 616.344 13963.2 600.795 13947.8 586.708L13846.6 573.206C13834.1 571.549 13824.2 583.93 13828.5 596.067C13838.8 625.703 13859.4 670.449 13890.7 676.396C13900.7 678.297 13942.8 680.198 13976 681.416V633.356L13976 633.307Z" fill="#FFDE17"/>
<path d="M13874.3 619.902C13870.1 607.765 13879.9 595.385 13892.5 597.042L13965.3 606.79C13960.7 599.82 13954.8 593.094 13947.8 586.708L13846.6 573.206C13834.1 571.549 13824.2 583.93 13828.5 596.067C13838.8 625.703 13859.4 670.449 13890.7 676.396C13893.2 676.883 13897.9 677.371 13904 677.858C13890.4 660.847 13880.5 637.694 13874.4 619.951L13874.3 619.902Z" fill="#FFB917"/>
<path opacity="0.6" d="M13017.8 792.991V470.555H13405.5L13439.5 473.723V762.77C13439.5 778.124 13427.3 790.603 13412.2 790.651L13017.8 793.04V792.991ZM13031.5 484.447V779.002L13412.1 776.711C13419.7 776.711 13425.8 770.472 13425.8 762.77V486.396L13404.6 484.447H13031.5Z" fill="#E85F1A"/>
<path d="M13340.4 342.162C13303.8 319.546 13261.9 307.555 13219 307.555H12816.2C12808.7 310.041 12776.9 323.689 12675.6 395.634C12627 430.144 12582 464.118 12566.1 476.255C12564.7 479.033 12563.3 482.007 12561.8 485.224H13431.2V397.73C13404.3 381.498 13374.2 363.073 13340.5 342.162H13340.4ZM13416 469.821H12600.1C12621.3 453.931 12652.1 431.167 12684.2 408.307C12777 342.406 12809.9 326.613 12818.9 323.006H13219C13259 323.006 13298.3 334.217 13332.5 355.372C13362.8 374.138 13390.9 391.344 13415.9 406.552V469.87L13416 469.821Z" fill="#414042"/>
<path d="M13547.7 466.263C13517.8 449.447 13479.8 427.171 13431.1 397.682V485.176H13547.7V466.263Z" fill="#414042"/>
<path d="M13166.8 553.711H13083.4C13083.4 567.164 13094.1 578.034 13107.3 578.034H13142.9C13156.1 578.034 13166.8 567.164 13166.8 553.711Z" fill="#C1440E"/>
<path d="M13083.4 546.643H13166.8C13166.8 537.43 13159.4 529.924 13150.4 529.924H13099.9C13090.8 529.924 13083.4 537.43 13083.4 546.643Z" fill="#C1440E"/>
<path d="M12828.2 553.711H12744.8C12744.8 567.164 12755.5 578.034 12768.7 578.034H12804.3C12817.5 578.034 12828.2 567.164 12828.2 553.711Z" fill="#C1440E"/>
<path d="M12744.8 546.643H12828.2C12828.2 537.43 12820.8 529.924 12811.8 529.924H12761.3C12752.2 529.924 12744.8 537.43 12744.8 546.643Z" fill="#C1440E"/>
<path opacity="0.6" d="M13007.6 795.085H12901.3C12864.3 795.085 12832 770.762 12821 734.595C12775.9 587.244 12569.1 614.589 12567 614.882L12559.2 615.954V485.42H12572.9V600.259C12612.4 596.749 12790.8 589.048 12834 730.452C12843.3 760.77 12870.3 781.193 12901.2 781.193H12993.9V485.225H13007.6V795.134L13007.6 795.085Z" fill="#E85F1A"/>
<path d="M13444.3 780.854H12796C12796 781.975 12796.1 783.096 12796.1 784.217C12796.1 800.448 12793.8 816.144 12789.5 830.913H13451C13446.6 816.095 13444.3 800.4 13444.3 784.217C13444.3 783.096 13444.3 781.975 13444.4 780.854H13444.3Z" fill="#58595B"/>
<path d="M13767.4 780.854C13767.4 781.975 13767.5 783.096 13767.5 784.217C13767.5 800.448 13765.2 816.144 13760.8 830.913H13976V780.854H13767.4H13767.4Z" fill="#58595B"/>
<path d="M12442.5 619.172H12441.8C12442.7 614.687 12443.7 610.105 12444.7 605.475C12452.2 571.355 12461.1 535.187 12471.1 504.674H12518.2C12518.2 504.674 12521.7 613.81 12442.5 619.172Z" fill="#FF453E"/>
<path d="M12442.5 619.172H12441.8C12442.7 614.687 12443.7 610.105 12444.7 605.475C12486 585.734 12495.5 532.019 12497.7 504.674H12518.2C12518.2 504.674 12521.8 613.81 12442.6 619.172H12442.5Z" fill="#E4453E"/>
</svg>
