<svg width="2500" height="2500" viewBox="0 0 2500 2500" fill="none" xmlns="http://www.w3.org/2000/svg">
<path opacity="0.5" d="M1250 2165C1755.34 2165 2165 1755.34 2165 1250C2165 744.659 1755.34 335 1250 335C744.659 335 335 744.659 335 1250C335 1755.34 744.659 2165 1250 2165Z" fill="url(#paint0_linear_89_3)"/>
<path d="M1672.17 533.649H740.246V1709.62H1672.17V533.649Z" fill="url(#paint1_linear_89_3)"/>
<path d="M766.775 1150.37C765.556 1150.37 764.57 1149.38 764.57 1148.16V560.178C764.57 558.959 765.556 557.973 766.775 557.973H1698.7C1699.92 557.973 1700.91 558.959 1700.91 560.178V834.273C1700.91 835.492 1699.92 836.478 1698.7 836.478C1697.48 836.478 1696.5 835.492 1696.5 834.273V562.383H768.98V1148.16C768.98 1149.38 767.994 1150.37 766.775 1150.37Z" fill="#E6C2FB"/>
<path d="M1624.05 1648.9H788.363V594.367H1391.16V814.509L1624.05 815.714V1648.9Z" fill="#DAEBFE"/>
<path d="M1624.06 815.112H1391.16V594.367L1624.06 815.112Z" fill="#DAEBFE"/>
<path d="M1541.67 1015.56H980.994V1178.84H1541.67V1015.56Z" fill="#E7A0D2"/>
<path d="M1541.67 1227.81H980.994V1322.11H1541.67V1227.81Z" fill="#E7A0D2"/>
<path d="M1541.67 1360.46H980.994V1531.15H1541.67V1360.46Z" fill="url(#paint2_linear_89_3)"/>
<path d="M928.248 1052.95C932.096 1036.65 922.005 1020.32 905.708 1016.47C889.411 1012.62 873.08 1022.71 869.231 1039.01C865.383 1055.31 875.475 1071.64 891.772 1075.49C908.069 1079.33 924.4 1069.24 928.248 1052.95Z" fill="#DAEBFE"/>
<path d="M1541.67 834.273H980.994V968.054H1541.67V834.273Z" fill="#E7A0D2"/>
<path d="M920.177 886.035C932.018 874.194 932.018 854.996 920.177 843.155C908.336 831.314 889.138 831.314 877.297 843.155C865.456 854.996 865.456 874.194 877.297 886.035C889.138 897.876 908.336 897.876 920.177 886.035Z" fill="#DAEBFE"/>
<path d="M920.175 1279.57C932.016 1267.72 932.016 1248.53 920.175 1236.69C908.334 1224.85 889.136 1224.85 877.295 1236.69C865.454 1248.53 865.455 1267.73 877.295 1279.57C889.136 1291.41 908.334 1291.41 920.175 1279.57Z" fill="#DAEBFE"/>
<path d="M898.749 1421.1C915.495 1421.1 929.07 1407.53 929.07 1390.78C929.07 1374.04 915.495 1360.46 898.749 1360.46C882.003 1360.46 868.428 1374.04 868.428 1390.78C868.428 1407.53 882.003 1421.1 898.749 1421.1Z" fill="#DAEBFE"/>
<path d="M1365.68 503.694H1046.74V645.062H1365.68V503.694Z" fill="url(#paint3_linear_89_3)"/>
<path d="M1206.21 585.299C1142.08 585.299 1089.91 533.128 1089.91 469.001C1089.91 404.874 1142.08 352.703 1206.21 352.703C1270.34 352.703 1322.51 404.874 1322.51 469.001C1322.51 533.128 1270.34 585.299 1206.21 585.299ZM1206.21 357.113C1144.51 357.113 1094.32 407.305 1094.32 469.001C1094.32 530.697 1144.51 580.889 1206.21 580.889C1267.9 580.889 1318.1 530.697 1318.1 469.001C1318.1 407.305 1267.91 357.113 1206.21 357.113Z" fill="url(#paint4_linear_89_3)"/>
<path d="M1206.21 559.369C1156.38 559.369 1115.84 518.83 1115.84 469.001C1115.84 419.171 1156.38 378.631 1206.21 378.631C1256.04 378.631 1296.58 419.17 1296.58 469.001C1296.58 518.829 1256.04 559.369 1206.21 559.369ZM1206.21 383.041C1158.81 383.041 1120.25 421.602 1120.25 469.001C1120.25 516.398 1158.81 554.959 1206.21 554.959C1253.61 554.959 1292.17 516.398 1292.17 469.001C1292.17 421.602 1253.61 383.041 1206.21 383.041Z" fill="url(#paint5_linear_89_3)"/>
<path d="M988.177 1776.97H456.08L566.756 1268.87H906.14L988.177 1776.97Z" fill="#363E44"/>
<path d="M832.492 1150.18C868.983 1203.75 964.835 1364.8 1032 1323.81C1063.19 1304.78 1075.97 1276.17 1048.45 1220.46C1026.95 1176.93 968.886 1106 954.503 1081.63C913.833 1104.48 873.162 1127.33 832.492 1150.18Z" fill="#BC8271"/>
<path d="M1041.27 1205.87C1096.09 1210.17 1220.13 1219.74 1232.77 1220.61C1256.39 1222.23 1370.97 1231.31 1369.87 1247.97C1369.16 1258.62 1311.81 1255.16 1301.78 1255.34C1313.52 1258.16 1375.65 1263.08 1375.98 1272.81C1376.34 1283.38 1296.66 1284.11 1296.05 1284.29C1304.6 1285.27 1367.49 1291.2 1366.31 1300.35C1364.94 1310.96 1299.09 1310.55 1288.38 1309.88C1289.12 1311.22 1335.26 1312.91 1335.32 1323.41C1335.38 1332.78 1282.68 1333 1275.42 1334.08C1256.37 1336.39 1221.35 1335.79 1181.55 1337.13C1088.09 1340.26 1046.28 1337.73 1000.86 1331.07C983.243 1328.49 951.6 1315.73 940.473 1277.72C972.427 1255.48 1009.31 1228.11 1041.27 1205.87Z" fill="#BC8271"/>
<path d="M1285.63 1272.97C1276.86 1272.97 1264.42 1272.14 1246.72 1269.92C1245.51 1269.77 1244.66 1268.67 1244.81 1267.46C1244.96 1266.25 1246.06 1265.4 1247.27 1265.54C1300.37 1272.21 1302.77 1265.73 1302.79 1265.66C1302.85 1265.42 1303.92 1259.52 1262.33 1240.79C1261.22 1240.29 1260.72 1238.99 1261.22 1237.88C1261.73 1236.77 1263.02 1236.28 1264.14 1236.77C1309.64 1257.27 1307.82 1263.96 1307.04 1266.82C1306.51 1268.77 1305.37 1272.97 1285.63 1272.97Z" fill="#363E44"/>
<path d="M507.866 1050.35C457.383 1091.01 304.507 1199.42 350.723 1263.1C388.951 1315.78 533.175 1203.63 585.922 1166.52C559.903 1127.79 533.885 1089.07 507.866 1050.35Z" fill="#BC8271"/>
<path d="M948.029 1228.62L1030.96 1163.64C1030.96 1163.64 994.103 1068.02 948.029 1023.69C924.276 1000.84 842.149 975.158 804.941 974.047L948.029 1228.62Z" fill="white"/>
<path d="M393.264 1127.27C393.264 1127.27 445.493 1050.82 551.172 1000.62C614.579 970.494 729.27 967.946 773.752 970.021C926.459 977.146 968.296 1153.44 968.296 1153.44C968.296 1163.27 968.296 1350.27 968.296 1350.27H490.428L550.889 1189.48L523.585 1216.79L393.264 1127.27Z" fill="white"/>
<path d="M795.889 1293.29L613.965 1111.37L381.835 1343.5L563.759 1525.42L795.889 1293.29Z" fill="#EFBC73"/>
<path d="M696.989 1276.96C696.425 1276.96 695.861 1276.75 695.43 1276.31L624.548 1205.43C623.687 1204.57 623.687 1203.17 624.548 1202.31C625.409 1201.45 626.805 1201.45 627.666 1202.31L698.548 1273.2C699.409 1274.06 699.409 1275.45 698.548 1276.31C698.117 1276.75 697.553 1276.96 696.989 1276.96Z" fill="#363E44"/>
<path d="M664.354 1309.6C663.79 1309.6 663.226 1309.38 662.795 1308.95L591.911 1238.07C591.05 1237.2 591.05 1235.81 591.911 1234.95C592.772 1234.09 594.167 1234.09 595.029 1234.95L665.913 1305.84C666.774 1306.7 666.774 1308.09 665.913 1308.95C665.482 1309.38 664.918 1309.6 664.354 1309.6Z" fill="#363E44"/>
<path d="M672.512 1285.12C671.948 1285.12 671.384 1284.91 670.953 1284.48L616.388 1229.91C615.527 1229.05 615.527 1227.65 616.388 1226.79C617.249 1225.93 618.645 1225.93 619.506 1226.79L674.071 1281.36C674.932 1282.22 674.932 1283.61 674.071 1284.48C673.64 1284.91 673.076 1285.12 672.512 1285.12Z" fill="#363E44"/>
<path d="M477.595 1214C526.33 1252.94 645.641 1338.98 656.952 1347.84C678.098 1364.4 724.144 1398.46 716.01 1415C713.305 1420.5 706.938 1423.97 699.619 1424.4C701.86 1431.93 699.473 1440 693.635 1444.75C685.964 1451.01 676.505 1448.14 675.813 1447.92C678.3 1453.48 677.881 1459.8 674.512 1464.2C669.862 1470.28 660.159 1471.98 652.311 1467.07C652.154 1468.79 651.385 1474.89 646.358 1479.33C640.788 1484.25 632.241 1485.13 624.732 1481.53C605.932 1466.83 572.882 1448.7 534.672 1424.61C444.933 1368.02 407.292 1339.02 368.891 1303.83C353.996 1290.19 332.411 1258.06 346.173 1215.28C390.334 1214.76 433.436 1214.52 477.595 1214Z" fill="#BC8271"/>
<path d="M496.079 1230.82C495.605 1230.82 495.13 1230.67 494.727 1230.36C483.985 1221.99 475.114 1215.06 470.257 1211.21C469.303 1210.46 469.142 1209.07 469.898 1208.12C470.654 1207.16 472.043 1207 472.996 1207.76C477.845 1211.6 486.707 1218.52 497.436 1226.88C498.396 1227.63 498.569 1229.01 497.821 1229.97C497.386 1230.53 496.736 1230.82 496.079 1230.82Z" fill="#363E44"/>
<path d="M680.947 1400.5C680.422 1400.5 679.896 1400.32 679.476 1399.94C678.57 1399.13 678.492 1397.73 679.304 1396.83L687.189 1388.02C688.007 1387.11 689.4 1387.04 690.303 1387.85C691.209 1388.66 691.287 1390.05 690.475 1390.96L682.59 1399.77C682.155 1400.25 681.552 1400.5 680.947 1400.5Z" fill="#363E44"/>
<path d="M660.976 1422.88C660.451 1422.88 659.925 1422.69 659.505 1422.32C658.599 1421.5 658.521 1420.11 659.333 1419.2L667.216 1410.4C668.034 1409.49 669.427 1409.41 670.329 1410.22C671.235 1411.04 671.313 1412.43 670.501 1413.34L662.618 1422.14C662.184 1422.63 661.581 1422.88 660.976 1422.88Z" fill="#363E44"/>
<path d="M640.89 1445.89C640.367 1445.89 639.841 1445.71 639.419 1445.33C638.513 1444.52 638.435 1443.12 639.247 1442.22L647.13 1433.41C647.94 1432.5 649.335 1432.42 650.243 1433.24C651.149 1434.05 651.227 1435.44 650.415 1436.35L642.532 1445.16C642.098 1445.64 641.495 1445.89 640.89 1445.89Z" fill="#363E44"/>
<path d="M622.244 1466.39C621.721 1466.39 621.195 1466.2 620.773 1465.82C619.866 1465.01 619.789 1463.62 620.601 1462.71L628.484 1453.9C629.294 1453 630.689 1452.92 631.597 1453.73C632.503 1454.54 632.581 1455.93 631.769 1456.84L623.886 1465.65C623.451 1466.14 622.848 1466.39 622.244 1466.39Z" fill="#363E44"/>
<path d="M659.152 950.059C690.681 950.059 716.24 924.5 716.24 892.971C716.24 861.442 690.681 835.883 659.152 835.883C627.624 835.883 602.064 861.442 602.064 892.971C602.064 924.5 627.624 950.059 659.152 950.059Z" fill="#363E44"/>
<path d="M675.012 917.502C664.604 917.502 653.209 915.05 642.11 909.923C612.429 896.214 595.927 868.507 605.324 848.162C609.947 838.152 619.972 831.434 633.552 829.244C646.809 827.11 661.956 829.548 676.195 836.125C705.876 849.834 722.38 877.541 712.984 897.886C707.098 910.625 692.437 917.502 675.012 917.502ZM643.24 832.899C640.165 832.899 637.159 833.129 634.253 833.599C622.167 835.548 613.316 841.376 609.328 850.01C600.95 868.15 616.485 893.23 643.957 905.919C671.429 918.61 700.6 914.176 708.978 896.04C717.356 877.9 701.821 852.82 674.347 840.131C664.048 835.373 653.287 832.899 643.24 832.899Z" fill="#40484C"/>
<path d="M740.39 1019.88C778.264 1019.88 808.966 1007.29 808.966 991.76C808.966 976.231 778.264 963.643 740.39 963.643C702.515 963.643 671.812 976.231 671.812 991.76C671.812 1007.29 702.515 1019.88 740.39 1019.88Z" fill="#BC8271"/>
<path d="M811.453 935.059C791.334 949.347 734.501 910.556 734.501 910.556L701.984 842.54C701.984 807.825 730.125 779.683 764.84 779.683C799.555 779.683 827.697 807.825 827.697 842.54C827.697 842.54 831.945 920.506 811.453 935.059Z" fill="#BC8271"/>
<path d="M778.151 841.834H701.984V1000.74H778.151V841.834Z" fill="#BC8271"/>
<path d="M820.475 859.067C820.475 859.067 838.105 877.538 837.168 882.415C836.048 888.236 816.41 891.787 816.41 891.787C816.41 891.787 820.943 859.112 820.475 859.067Z" fill="#BC8271"/>
<path d="M763.748 856.378C763.748 856.378 774.271 850.718 786.956 850.719C789.655 850.719 784.563 872.316 782.001 871.093C770.738 865.717 763.748 856.378 763.748 856.378Z" fill="white"/>
<mask id="mask0_89_3" style="mask-type:luminance" maskUnits="userSpaceOnUse" x="763" y="850" width="59" height="25">
<path d="M763.748 856.378C763.748 856.378 779.225 848.054 795.266 851.597C811.307 855.14 821.837 869.21 821.837 869.21C821.837 869.21 806.36 877.534 790.319 873.991C774.279 870.448 763.748 856.378 763.748 856.378Z" fill="white"/>
</mask>
<g mask="url(#mask0_89_3)">
<path d="M787.494 850.164C795.884 841.774 809.487 841.774 817.877 850.164C826.267 858.554 826.267 872.157 817.877 880.547C809.487 888.937 795.884 888.937 787.494 880.547C779.104 872.157 779.104 858.554 787.494 850.164Z" fill="#363E44"/>
</g>
<path d="M800.85 904.873C798.764 904.873 796.681 904.285 794.866 903.107C791.378 900.842 789.44 896.695 789.931 892.542C790.075 891.332 791.15 890.462 792.379 890.611C793.589 890.755 794.452 891.851 794.31 893.059C794.015 895.559 795.176 898.052 797.266 899.409C799.438 900.819 802.259 900.815 804.458 899.405C805.479 898.748 806.846 899.043 807.505 900.066C808.164 901.089 807.869 902.454 806.844 903.113C805.021 904.285 802.934 904.873 800.85 904.873Z" fill="#363E44"/>
<path d="M792.155 940.775C792.028 940.775 791.897 940.764 791.767 940.741C766.974 936.327 734.625 914.393 733.26 913.463C732.254 912.776 731.994 911.405 732.681 910.399C733.366 909.389 734.744 909.137 735.745 909.82C736.072 910.044 768.684 932.152 792.539 936.4C793.738 936.613 794.537 937.759 794.324 938.956C794.133 940.026 793.203 940.775 792.155 940.775Z" fill="#363E44"/>
<path d="M688.068 878.223C673.325 864.852 680.128 822.726 698.439 799.903C722.046 770.478 767.455 762.489 798.579 774.701C806.23 777.703 823.02 786.887 825.643 799.851C830.555 824.134 788.459 854.693 773.206 863C749.926 875.679 704.267 892.916 688.068 878.223Z" fill="#363E44"/>
<path d="M729.386 889.987C712.656 889.987 695.595 885.503 680.053 876.464C679 875.852 678.645 874.504 679.256 873.451C679.867 872.398 681.217 872.043 682.27 872.654C714.042 891.13 752.426 889.692 780.059 868.987C811.297 845.584 813.691 808.185 813.853 800.927C813.881 799.728 814.863 798.772 816.058 798.772C816.073 798.772 816.09 798.772 816.107 798.772C817.323 798.8 818.288 799.81 818.262 801.026C818.092 808.644 815.575 847.89 782.703 872.518C767.208 884.128 748.512 889.987 729.386 889.987Z" fill="#40484C"/>
<path d="M1912.4 1913.2H2035.47L2052.18 1760.69H1929.11L1912.4 1913.2Z" fill="#E2A18D"/>
<path d="M1927.15 1906.92H2040.39L2035.08 2018.81H1748.31L1757.12 2003.92C1792.67 1943.8 1857.31 1906.92 1927.15 1906.92Z" fill="#E6D0BE"/>
<path d="M1589.17 1913.2H1712.24L1746.17 1763.85H1623.1L1589.17 1913.2Z" fill="#E2A18D"/>
<path d="M1603.93 1906.92H1717.16L1702.74 2018.81H1425.09L1433.89 2003.92C1469.44 1943.8 1534.09 1906.92 1603.93 1906.92Z" fill="white"/>
<path d="M1702.74 2021.02H1425.09C1423.87 2021.02 1422.88 2020.03 1422.88 2018.81C1422.88 2017.6 1423.87 2016.61 1425.09 2016.61H1700.8L1714.97 1906.64C1715.13 1905.43 1716.22 1904.61 1717.44 1904.73C1718.65 1904.89 1719.5 1905.99 1719.35 1907.2L1704.93 2019.1C1704.79 2020.2 1703.85 2021.02 1702.74 2021.02Z" fill="#D3BBA3"/>
<path d="M2093.82 1204.36L2090.01 1878.93H1879.56C1879.56 1878.93 1896.83 1376.61 1894.35 1317.47L1746.17 1891.55L1554.19 1869.03C1554.19 1869.03 1688.43 1328.06 1728.44 1180.72C1728.44 1180.72 1859.82 1008.5 2093.82 1204.36Z" fill="#776E42"/>
<path d="M1643.25 778.657C1665.14 785.211 1705.16 738.045 1705.16 738.045L1714.39 663.888C1704.07 633.434 1667.21 615.818 1636.76 626.138C1606.31 636.458 1589.98 669.511 1600.3 699.965C1600.3 699.965 1620.94 771.982 1643.25 778.657Z" fill="#E2A18D"/>
<path d="M1766.67 792.583L1724.09 867.015L1635.84 689.558L1714.35 662.952L1766.67 792.583Z" fill="#E2A18D"/>
<path d="M1664.69 687.394C1664.69 687.394 1652.73 685.381 1640.53 689.514C1637.93 690.393 1649.87 709.499 1651.93 707.489C1661.01 698.65 1664.69 687.394 1664.69 687.394Z" fill="white"/>
<path d="M1632.83 693.066C1618.56 701.699 1613.02 718.657 1613.02 718.657C1613.02 718.657 1630.61 721.618 1644.88 712.986C1647.53 711.383 1649.87 709.493 1651.94 707.479C1651.51 700.143 1647.39 693.242 1640.52 689.537C1637.92 690.416 1635.33 691.554 1632.83 693.066Z" fill="#363E44"/>
<path d="M1601.4 653.091C1596.66 645.299 1610.28 623.282 1630.68 613.724C1655.67 602.012 1689.01 599.985 1715.46 623.611C1740.87 646.308 1752.86 683.656 1734.48 722.428C1725.62 719.281 1717.83 716.698 1706.93 712.773C1716.47 693.298 1712.06 677.593 1703.76 672.915C1696.67 668.923 1686.58 671.763 1679.09 683.978C1673.17 676.813 1663.84 666.415 1644.78 660.476C1622.73 653.605 1605.07 659.13 1601.4 653.091Z" fill="#84524D"/>
<path d="M1665.74 777.114C1665.01 777.114 1664.31 776.756 1663.88 776.102C1663.23 775.077 1663.52 773.714 1664.55 773.055C1689.31 757.122 1702.11 737.664 1702.24 737.468C1702.9 736.447 1704.26 736.157 1705.29 736.82C1706.31 737.483 1706.6 738.848 1705.94 739.871C1705.4 740.698 1692.48 760.324 1666.93 776.763C1666.56 777 1666.15 777.114 1665.74 777.114Z" fill="#363E44"/>
<path d="M1636.73 750.157C1636.15 750.157 1635.56 750.11 1634.97 750.015C1633.77 749.819 1632.96 748.686 1633.15 747.483C1633.35 746.284 1634.46 745.465 1635.68 745.661C1638.38 746.107 1641.04 744.813 1642.13 742.526C1643.48 739.686 1641.56 736.738 1641.54 736.708C1640.87 735.7 1641.13 734.331 1642.13 733.653C1643.13 732.973 1644.49 733.222 1645.18 734.219C1645.32 734.421 1648.57 739.247 1646.1 744.423C1644.42 747.954 1640.72 750.157 1636.73 750.157Z" fill="#363E44"/>
<path d="M1606.08 716.027C1607.07 718.418 1608.02 722.537 1607.62 726.84C1607.14 732.031 1603.75 736.305 1604.8 739.115C1605.5 740.999 1608.6 743.133 1617.1 742.296L1606.08 716.027Z" fill="#E2A18D"/>
<path d="M1699.64 708.323C1699.38 708.323 1699.12 708.278 1698.87 708.185C1697.73 707.759 1697.15 706.488 1697.57 705.347C1701.77 694.071 1699.95 686.638 1697.74 685.648C1695.93 684.804 1691.48 687.618 1688.26 690.805C1687.39 691.664 1685.99 691.651 1685.14 690.788C1684.28 689.92 1684.29 688.525 1685.15 687.67C1687.2 685.65 1694.28 679.253 1699.55 681.626C1705.2 684.169 1706.12 695.029 1701.7 706.889C1701.37 707.776 1700.53 708.323 1699.64 708.323Z" fill="#363E44"/>
<path d="M1736.92 945.409C1694.11 979.851 1524.91 1127.96 1475.85 1071.78C1439.56 1030.22 1452.22 978.963 1593.65 867.015C1621 895.576 1709.57 916.846 1736.92 945.409Z" fill="#E2A18D"/>
<path d="M1478.95 983.24C1439.72 1018.71 1343.21 1097.65 1334.1 1105.74C1317.06 1120.84 1227.13 1192.92 1244.67 1208.77C1252.95 1216.24 1292.97 1180.61 1301.94 1172.71C1293.4 1183.37 1251.45 1225.03 1262.89 1233.88C1274.68 1242.98 1322.72 1191.61 1323.3 1191.39C1318.82 1197.1 1282.1 1236.18 1293.84 1246.75C1305.14 1256.94 1337.78 1210.94 1344.17 1206.38C1339.41 1214.34 1316.12 1241.52 1323.5 1248.15C1333.39 1257.03 1362.09 1220.63 1368.25 1217.19C1383.4 1203.78 1410.43 1186.74 1441.52 1164.38C1514.53 1111.87 1544.89 1085.4 1575.56 1053.64C1587.46 1041.33 1604.07 1013.03 1590.22 977.55C1552.83 979.383 1516.34 981.406 1478.95 983.24Z" fill="#E2A18D"/>
<path d="M1304.04 1140.1C1268.3 1141.16 1260.84 1136.92 1259.96 1133.22C1257.05 1121.03 1321.74 1099.29 1342.35 1103.62C1351.79 1105.6 1359.44 1110.89 1359.44 1110.89C1364.01 1114.05 1367.08 1116.16 1367.21 1118.33C1367.48 1122.78 1355.52 1129.58 1304.04 1140.1Z" fill="#E2A18D"/>
<path d="M1338.55 1153.13C1323.71 1153.13 1310.56 1142.73 1309.81 1142.13C1308.86 1141.36 1308.71 1139.97 1309.47 1139.03C1310.24 1138.08 1311.63 1137.93 1312.57 1138.69C1312.8 1138.87 1335.36 1156.66 1352.68 1144.2C1353.67 1143.49 1355.05 1143.71 1355.76 1144.7C1356.47 1145.69 1356.25 1147.07 1355.26 1147.78C1349.82 1151.69 1344.07 1153.13 1338.55 1153.13Z" fill="#363E44"/>
<path d="M2091.27 1008.24C2091.27 1008.24 2074.83 903.888 1968.62 850.204L1887.74 958.111L2091.27 1008.24Z" fill="#E2A18D"/>
<path d="M2117.03 1223.74C2078.6 1152.09 1992.28 1019.55 1937.12 936.369L2005.83 854.658C2005.83 854.658 1955.66 813.212 1890.69 799.97L1890.69 799.913C1840.17 788.08 1801.54 781.69 1764.59 787.425C1761.77 787.863 1737.04 836.212 1736.73 839.41C1734.76 836.644 1689.63 798.649 1689.63 798.649C1646.24 809.429 1618.94 825.73 1607.25 833.843C1561.88 855.904 1537.7 901.293 1537.7 901.293L1646.19 1013.64L1677.59 1236.78L2117.03 1223.74Z" fill="#363E44"/>
<path d="M1614.65 1079.26C1630.65 1072.73 1684.6 1037.15 1713.45 1054.97C1742.5 1072.92 1754.61 1108.67 1754.67 1142.82C1754.57 1142.92 1754.47 1143.03 1754.37 1143.13C1750.42 1151.72 1743.19 1163.96 1729.97 1172.34C1714.9 1181.88 1706.49 1177.26 1689.02 1184.85C1659.53 1197.68 1654.77 1224.29 1644.36 1219.68C1637.21 1216.52 1639.31 1200.89 1644.94 1187.13C1650.71 1173.01 1660.39 1166.3 1658.82 1164.36C1657.1 1162.22 1648.14 1170.31 1636.09 1179.33C1630.49 1183.53 1622.2 1204.52 1611.79 1201.63C1603.5 1199.34 1606.65 1175.36 1620.01 1159.03C1629.46 1147.48 1643.72 1144.92 1642.71 1142.39C1641.96 1140.49 1633.5 1142.22 1626.65 1145.89C1615.36 1151.93 1606.65 1173.31 1597.12 1170.47C1587.79 1167.69 1590.92 1146.8 1602.25 1131C1611.8 1117.68 1627.84 1115.59 1626.61 1112.44C1625.75 1110.22 1625.34 1109.4 1610.24 1112.87C1597.64 1115.77 1589.9 1140.48 1584.9 1127.75C1580.69 1117.04 1590.5 1089.11 1614.65 1079.26Z" fill="#E2A18D"/>
<path d="M1990.01 939.558C2027.1 930.643 2066.31 946.608 2085.32 979.678C2097.78 1001.36 2101.05 1029.7 2076.25 1063.43C2015.86 1145.56 1718.33 1150.75 1718.33 1150.75L1646.19 1085.74C1735.93 1023.51 1887.92 964.096 1990.01 939.558Z" fill="#E2A18D"/>
<path d="M2154.19 1952.25C2160.73 2003.22 2121.03 2048.34 2069.64 2048.34H495.278C448.196 2048.34 410.029 2010.18 410.029 1963.09V1902.96C432.032 1877.91 444.165 1845.71 444.165 1812.36V1767.52C444.165 1737.95 468.135 1713.98 497.704 1713.98H577.621C739.594 1561.43 953.544 1476.21 1176.05 1475.64L1273.53 1475.38C1362.9 1475.15 1449.59 1505.85 1518.9 1562.26L1680.96 1694.15C1696.91 1707.13 1716.06 1715.57 1736.4 1718.58L1963.17 1755.05C2063.51 1771.18 2141.26 1851.44 2154.19 1952.25Z" fill="url(#paint6_linear_89_3)"/>
<path d="M1920.07 2117.62C1974.76 2062.92 1974.76 1974.24 1920.07 1919.54C1865.37 1864.84 1776.68 1864.84 1721.98 1919.54C1667.29 1974.24 1667.29 2062.92 1721.98 2117.62C1776.68 2172.32 1865.37 2172.32 1920.07 2117.62Z" fill="#363E44"/>
<path d="M1821.05 2117.62C1875.75 2117.62 1920.09 2073.28 1920.09 2018.58C1920.09 1963.88 1875.75 1919.54 1821.05 1919.54C1766.35 1919.54 1722.01 1963.88 1722.01 2018.58C1722.01 2073.28 1766.35 2117.62 1821.05 2117.62Z" fill="#D3BBA3"/>
<path d="M861.845 2117.61C916.543 2062.91 916.543 1974.23 861.845 1919.53C807.146 1864.83 718.462 1864.83 663.763 1919.53C609.065 1974.23 609.065 2062.91 663.763 2117.61C718.462 2172.31 807.146 2172.31 861.845 2117.61Z" fill="#363E44"/>
<path d="M762.823 2117.62C817.523 2117.62 861.865 2073.28 861.865 2018.58C861.865 1963.88 817.523 1919.54 762.823 1919.54C708.124 1919.54 663.781 1963.88 663.781 2018.58C663.781 2073.28 708.124 2117.62 762.823 2117.62Z" fill="#D3BBA3"/>
<path d="M746.487 1720.57H1644.85L1404.95 1539.09C1388.81 1526.87 1369.53 1519.49 1349.36 1517.79C1124.91 1498.87 901.212 1552.08 712.363 1667.73L746.487 1720.57Z" fill="#363E44"/>
<path d="M2123.1 1873.12C2129.44 1856.28 2092.51 1826.79 2040.6 1807.25C1988.7 1787.7 1941.48 1785.5 1935.14 1802.34C1928.8 1819.18 1965.74 1848.67 2017.64 1868.22C2069.55 1887.76 2116.76 1889.96 2123.1 1873.12Z" fill="white"/>
<path d="M514.536 1838.46H441.572L444.639 1774.7H542.776L514.536 1838.46Z" fill="#D87355"/>
<path d="M1628.59 2020.78H984.663C983.952 2020.78 983.285 2020.44 982.872 2019.86L786.023 1745.22C785.545 1744.55 785.476 1743.68 785.842 1742.94L825.88 1662.87C826.427 1661.78 827.749 1661.34 828.838 1661.88C829.927 1662.43 830.369 1663.75 829.824 1664.84L790.381 1743.73L985.796 2016.37H1627.08L1681.36 1875.65C1711.68 1797.05 1681.32 1708.4 1609.19 1664.88L1397.83 1540.99C1396.78 1540.37 1396.43 1539.02 1397.04 1537.97C1397.65 1536.92 1399 1536.56 1400.06 1537.18L1611.44 1661.09C1685.44 1705.74 1716.56 1796.63 1685.47 1877.24L1630.65 2019.37C1630.32 2020.22 1629.5 2020.78 1628.59 2020.78Z" fill="#363E44"/>
<path d="M1241.5 2021.44C1240.42 2021.44 1239.47 2020.65 1239.32 2019.54L1196.01 1709.26C1195.84 1708.05 1196.68 1706.94 1197.89 1706.77C1199.09 1706.58 1200.21 1707.44 1200.38 1708.65L1243.69 2018.93C1243.86 2020.14 1243.02 2021.25 1241.81 2021.42C1241.71 2021.44 1241.6 2021.44 1241.5 2021.44Z" fill="#363E44"/>
<path d="M910.228 1778.83C944.624 1778.83 972.507 1774.81 972.507 1769.84C972.507 1764.87 944.624 1760.84 910.228 1760.84C875.832 1760.84 847.949 1764.87 847.949 1769.84C847.949 1774.81 875.832 1778.83 910.228 1778.83Z" fill="#FFD092"/>
<path d="M1319.86 1778.83C1354.26 1778.83 1382.14 1774.81 1382.14 1769.84C1382.14 1764.87 1354.26 1760.84 1319.86 1760.84C1285.47 1760.84 1257.59 1764.87 1257.59 1769.84C1257.59 1774.81 1285.47 1778.83 1319.86 1778.83Z" fill="#FFD092"/>
<path d="M512.467 1963H427.916C442.682 1928.31 474.975 1904.26 512.439 1900.04L512.467 1900.04C529.854 1900.04 543.949 1914.13 543.949 1931.52C543.949 1948.91 529.854 1963 512.467 1963Z" fill="#FFD092"/>
<path d="M2113.86 1992.87H2081.72C2073.07 1992.87 2066.34 1985.35 2067.3 1976.75L2070.89 1944.43C2071.71 1937.08 2077.92 1931.52 2085.32 1931.52H2117.46C2126.11 1931.52 2132.84 1939.04 2131.88 1947.64L2128.29 1979.96C2127.47 1987.31 2121.26 1992.87 2113.86 1992.87Z" fill="#FFD092"/>
<path d="M1323.98 893.112C1323.28 893.112 1322.6 892.772 1322.19 892.184L1303.01 865.194C1302.67 864.718 1302.53 864.126 1302.63 863.549C1302.73 862.972 1303.05 862.457 1303.53 862.119L1318.01 851.848L1304.56 832.922L1290.07 843.195C1289.08 843.901 1287.71 843.664 1287 842.674L1275 825.783C1274.66 825.307 1274.52 824.715 1274.62 824.138C1274.72 823.561 1275.04 823.046 1275.52 822.708L1290 812.437L1262.77 774.117L1248.28 784.39C1247.3 785.096 1245.92 784.861 1245.21 783.869L1234.2 768.377C1233.86 767.901 1233.73 767.309 1233.82 766.732C1233.92 766.155 1234.25 765.64 1234.72 765.302L1266.74 742.597L1260.82 734.271L1228.8 756.978C1227.82 757.684 1226.44 757.45 1225.73 756.457L1201.34 722.14C1155.23 737.007 1103.72 719.985 1075.58 680.39C1058.26 656.01 1051.47 626.35 1056.48 596.874C1061.48 567.395 1077.68 541.631 1102.08 524.322C1152.45 488.595 1222.53 500.467 1258.3 550.793C1286.43 590.385 1285.53 644.575 1256.28 683.166L1396.24 880.11C1396.69 880.739 1396.78 881.557 1396.47 882.265C1396.16 882.971 1395.51 883.469 1394.74 883.572L1324.28 893.091C1324.18 893.106 1324.08 893.112 1323.98 893.112ZM1307.88 864.439L1325.01 888.543L1390.54 879.691L1251.74 684.392C1251.18 683.597 1251.2 682.525 1251.8 681.757C1280.85 644.615 1282.04 591.812 1254.7 553.348C1220.34 505.006 1153.02 493.596 1104.63 527.919C1081.19 544.545 1065.63 569.298 1060.83 597.612C1056.02 625.928 1062.54 654.418 1079.18 677.838C1106.52 716.306 1156.81 732.588 1201.49 717.447C1202.4 717.137 1203.43 717.462 1203.99 718.259L1228.05 752.109L1260.07 729.402C1261.06 728.696 1262.43 728.933 1263.14 729.923L1271.61 741.843C1271.95 742.319 1272.08 742.911 1271.99 743.488C1271.89 744.065 1271.56 744.58 1271.09 744.918L1239.07 767.623L1247.53 779.521L1262.01 769.248C1263 768.54 1264.38 768.779 1265.09 769.769L1294.87 811.682C1295.21 812.158 1295.35 812.75 1295.25 813.327C1295.15 813.904 1294.83 814.419 1294.35 814.757L1279.87 825.028L1289.32 838.326L1303.8 828.053C1304.79 827.345 1306.17 827.584 1306.88 828.574L1322.88 851.094C1323.22 851.57 1323.35 852.162 1323.26 852.739C1323.16 853.316 1322.84 853.831 1322.36 854.169L1307.88 864.439Z" fill="#48BCD5"/>
<path d="M985.366 635.887C985.207 703.194 1039.69 757.885 1107.07 758.043C1174.44 758.201 1229.18 703.767 1229.34 636.46C1229.5 569.153 1175.01 514.462 1107.64 514.304C1040.27 514.145 985.524 568.58 985.366 635.887ZM1066.32 598.981L1107.54 557.993L1148.57 599.175L1107.35 640.163L1066.32 598.981Z" fill="#48BCD5"/>
<path d="M1023.9 952.614L1050.06 952.676L1050.11 930.385L1023.96 930.324L1024 912.492L1106.89 912.687L1106.74 976.95L1023.85 976.755L1023.9 952.614Z" fill="#48BCD5"/>
<path d="M1044.23 902.165L1064.01 902.211L1064.05 885.355L1044.27 885.308L1044.3 871.823L1106.99 871.97L1106.87 920.568L1044.19 920.421L1044.23 902.165Z" fill="#48BCD5"/>
<path d="M1086.46 692.786L1085.72 998.907L1127.37 999.007L1128.11 692.886L1086.46 692.786Z" fill="#48BCD5"/>
<path d="M1107.36 744.696C1107.27 744.696 1107.19 744.696 1107.1 744.696C1078.08 744.627 1050.83 733.276 1030.36 712.73C1009.9 692.185 998.662 664.904 998.731 635.919C998.871 576.167 1047.58 527.65 1107.35 527.65C1107.44 527.65 1107.52 527.65 1107.61 527.65C1136.63 527.719 1163.88 539.07 1184.34 559.616C1204.81 580.161 1216.05 607.44 1215.98 636.427C1215.84 696.179 1167.13 744.694 1107.36 744.696ZM1107.35 532.06C1050 532.06 1003.27 578.6 1003.14 635.928C1003.07 663.738 1013.85 689.907 1033.49 709.619C1053.13 729.329 1079.27 740.222 1107.11 740.286C1107.19 740.286 1107.28 740.286 1107.36 740.286C1164.71 740.29 1211.44 693.746 1211.57 636.418C1211.64 608.608 1200.86 582.437 1181.22 562.727C1161.58 543.017 1135.44 532.124 1107.6 532.06C1107.52 532.06 1107.43 532.06 1107.35 532.06Z" fill="#48BCD5"/>
<path d="M1113.33 982.759C1113.33 982.759 1113.33 982.759 1113.33 982.759C1112.11 982.757 1111.12 981.766 1111.13 980.55L1111.63 764.506C1111.64 763.289 1112.62 762.305 1113.84 762.305C1113.84 762.305 1113.84 762.305 1113.84 762.305C1115.06 762.307 1116.05 763.298 1116.04 764.514L1115.54 980.558C1115.53 981.775 1114.55 982.759 1113.33 982.759Z" fill="#48BCD5"/>
<defs>
<linearGradient id="paint0_linear_89_3" x1="219.216" y1="1510.47" x2="955.197" y2="1449.34" gradientUnits="userSpaceOnUse">
<stop stop-color="#E7C5EA"/>
<stop offset="1" stop-color="#987FDA"/>
</linearGradient>
<linearGradient id="paint1_linear_89_3" x1="740.255" y1="1121.72" x2="1672.15" y2="1121.72" gradientUnits="userSpaceOnUse">
<stop stop-color="#87BEC7"/>
<stop offset="1" stop-color="#57599B"/>
</linearGradient>
<linearGradient id="paint2_linear_89_3" x1="980.999" y1="1445.82" x2="1541.66" y2="1445.82" gradientUnits="userSpaceOnUse">
<stop stop-color="#87BEC7"/>
<stop offset="1" stop-color="#57599B"/>
</linearGradient>
<linearGradient id="paint3_linear_89_3" x1="1046.74" y1="574.388" x2="1365.67" y2="574.388" gradientUnits="userSpaceOnUse">
<stop stop-color="#87BEC7"/>
<stop offset="1" stop-color="#57599B"/>
</linearGradient>
<linearGradient id="paint4_linear_89_3" x1="1089.91" y1="469.017" x2="1322.5" y2="469.017" gradientUnits="userSpaceOnUse">
<stop stop-color="#87BEC7"/>
<stop offset="1" stop-color="#57599B"/>
</linearGradient>
<linearGradient id="paint5_linear_89_3" x1="1115.84" y1="469.012" x2="1296.57" y2="469.012" gradientUnits="userSpaceOnUse">
<stop stop-color="#87BEC7"/>
<stop offset="1" stop-color="#57599B"/>
</linearGradient>
<linearGradient id="paint6_linear_89_3" x1="1285.14" y1="1622.9" x2="1284.31" y2="2166.27" gradientUnits="userSpaceOnUse">
<stop stop-color="#395E6E"/>
<stop offset="1" stop-color="#D93C65"/>
</linearGradient>
</defs>
</svg>
