<svg width="22026" height="1275" viewBox="0 0 22026 1275" fill="none" xmlns="http://www.w3.org/2000/svg">
<path d="M3 1075.29C3 1075.29 480.282 944.7 753.5 947.849C1012.88 950.838 1308 1075.29 1308 1075.29C1308 1075.29 1722.1 1202.5 2018 1181.68C2223.42 1167.23 2467.62 1136.73 2700.04 1075.29C2890.75 1024.87 2881.15 940.313 3111 916.88C3436.64 883.681 3464.27 1091.95 3802 1148.28C4109.87 1199.62 4403.91 1195.48 4665.5 1195.77C4928.5 1196.07 5188.44 1138.55 5484.13 1075.29C5751.39 1018.11 5837.22 907.125 6104.87 897.829C6408.23 887.294 6876.17 1075.29 6876.17 1075.29C6876.17 1075.29 7200.99 1146.63 7433.5 1148.28C7679.35 1150.02 8268.21 1075.29 8268.21 1075.29C8268.21 1075.29 8580.62 1003.7 8807 1000.39C9060.22 996.687 9660.26 1075.29 9660.26 1075.29C9660.26 1075.29 10009.1 1150.17 10255.5 1148.28C10487.4 1146.49 11052.3 1075.29 11052.3 1075.29C11052.3 1075.29 11421 995.053 11679.5 1000.39C11900.3 1004.95 12444.3 1075.29 12444.3 1075.29C12444.3 1075.29 13034.9 1019.53 13260 1035.19C13485.1 1050.85 13611.3 1059.63 13836.4 1075.29C13836.4 1075.29 14420.2 1133.65 14655 1133.49C14888.3 1133.33 15228.4 1075.29 15228.4 1075.29C15228.4 1075.29 15392.3 1018.09 15532 1000.39C15849.2 960.221 16258.5 1072.25 16258.5 1072.25C16258.5 1072.25 16432.4 1166.47 16612 1183.94C16896.8 1211.65 16974.6 1048.16 17270 1053.46C17523.5 1058 17581.6 1150.13 17830 1168.28C18096.8 1187.78 18258.7 1159.43 18521 1133.49C18786.2 1107.26 18892.3 1034.96 19168 1035.19C19462.2 1035.44 19553.6 1144.22 19847.5 1148.28C20168.3 1152.7 20281.7 1031.6 20602.5 1035.19C20927.6 1038.82 21017.4 1172.32 21342.5 1168.28C21646.8 1164.51 22022 1035.19 22022 1035.19" stroke="white" stroke-width="20"/>
<path d="M5220.29 960.984L5241.9 956.501L5242.82 972.51L5257.93 969.376L5265.44 990.059L5251.48 976.481L5231.56 980.611L5220.29 960.984Z" fill="#DEF4F6"/>
<path d="M10119.8 814.53L10190.3 693.486C10202.7 672.044 10199.1 653.048 10181.8 649.557L9850.85 582.292L9707.34 364.198L9252.82 332.182C9238.24 331.155 9218.76 342.46 9206.83 358.842L9084.16 527.737L8515.12 487.655C8506.13 487.022 8494.02 494.849 8488.02 505.173L8483.51 512.916C8477.51 523.24 8479.92 532.09 8488.91 532.724L8460.84 580.969C8451.85 580.336 8439.74 588.163 8433.73 598.488L8356.46 731.311C8339.98 730.15 8317.73 744.567 8306.76 763.428L8304.33 767.597C8293.32 786.525 8297.8 802.754 8314.22 803.911L8313.92 804.441L8435.26 832.416C8457.16 837.471 8489.37 822.518 8512.03 796.764L8545.45 758.815C8595.75 701.734 8663.85 661.612 8722.68 654.32C8743.95 651.685 8763.1 653.516 8779.12 659.604L8789.59 663.58C8832.47 679.896 8848.34 725.312 8831.25 782.736L8817.59 828.689C8811.21 850.079 8819.93 865.505 8839.12 866.857L9569.64 918.313C9589.17 919.689 9614.82 906.546 9633.34 885.736L9674.63 839.317C9725.91 781.684 9794.87 741.417 9854.28 734.372C9876.9 731.694 9897.24 733.954 9913.87 741.05L9925.75 746.089C9965.19 762.853 9980.67 804.933 9967.12 858.541L9953.01 914.453C9948.38 932.727 9956.35 945.621 9972.95 946.79L10040.1 951.519L10131.8 848.853L10119.8 814.526L10119.8 814.53Z" fill="#C70203"/>
<path d="M9603.6 862.417L9007.19 820.407C8991.4 819.295 9029.7 740.356 9081.37 637.212C9099.72 600.614 9118.69 562.75 9118.38 558.939C9116.63 547.104 9121.58 532.091 9132.13 517.677L9219.99 396.966C9242.95 365.446 9279.95 344.009 9308.02 345.986L9653.11 370.294C9680.88 372.25 9702.04 383.73 9714.24 403.603L9796.55 537.335C9805.2 551.447 9792.15 573.881 9781.68 591.882C9771.21 609.883 9734.92 671.949 9697.5 732.556C9616.79 863.347 9607.86 862.717 9603.6 862.417ZM9305.23 350.681C9279.18 348.846 9244.81 368.746 9223.5 398.04L9135.64 518.751C9126.1 531.857 9121.57 545.523 9123.19 556.247C9123.82 560.631 9110.76 586.993 9085.65 637.169C9066.12 676.095 9044.06 720.217 9028.22 755.683C9004.3 809.388 9007.46 815.604 9009.94 815.778L9606.35 857.788C9607.27 857.853 9617.82 854.876 9693.58 732.073C9730.96 671.532 9767.33 609.335 9777.57 591.731C9790.16 570.09 9799.15 552.673 9792.02 541.01L9709.7 407.279C9697.85 388.05 9677.34 376.892 9650.43 374.997L9305.34 350.689L9305.23 350.681Z" fill="#AA0009"/>
<path d="M9152.96 559.102L9732.75 603.592C9756.88 605.429 9787.66 570.258 9777.02 552.974L9694.7 419.243C9684.13 402.033 9665.55 391.906 9641.46 390.209L9296.37 365.902C9277.01 364.538 9251.13 379.525 9235.3 401.282L9147.43 521.993C9134.16 540.278 9136.79 557.825 9152.96 559.102Z" fill="#010101"/>
<path d="M8817.61 828.766L8831.26 782.812C8848.33 725.318 8832.48 679.972 8789.6 663.656L8779.13 659.681C8763.12 653.593 8743.97 651.761 8722.7 654.397C8663.9 661.622 8595.77 701.81 8545.46 758.892L8512.05 796.84C8505.14 804.69 8497.24 811.573 8489.14 817.134L8815.62 840.131C8815.77 836.559 8816.45 832.818 8817.61 828.766Z" fill="#231F20"/>
<path d="M9953.11 914.393L9967.21 858.482C9980.76 804.874 9965.29 762.793 9925.85 746.03L9913.96 740.99C9897.33 733.894 9876.99 731.634 9854.38 734.313C9794.97 741.358 9725.97 781.69 9674.72 839.257L9633.44 885.676C9629.84 889.694 9626 893.419 9622.05 896.792L9952.16 920.044C9952.39 918.201 9952.72 916.295 9953.2 914.331L9953.11 914.393Z" fill="#231F20"/>
<path d="M8599.26 924.44C8557.94 921.53 8546.82 880.72 8574.43 833.269C8602.03 785.818 8657.89 749.726 8699.21 752.636C8740.53 755.547 8751.64 796.356 8724.04 843.807C8696.43 891.258 8640.58 927.351 8599.26 924.44Z" fill="#231F20"/>
<path d="M9735.88 1004.5C9694.56 1001.59 9683.44 960.781 9711.05 913.33C9738.65 865.878 9794.5 829.786 9835.82 832.697C9877.15 835.607 9888.26 876.416 9860.65 923.868C9833.05 971.319 9777.2 1007.41 9735.88 1004.5Z" fill="#231F20"/>
<path d="M8674.59 841.758C8674.97 841.097 8675.51 840.377 8675.9 839.715C8679.71 833.163 8681.29 826.936 8680.72 821.936L8741 775.753C8738.46 768.271 8734.05 762.036 8727.98 757.406L8673.61 811.376C8671.92 810.568 8669.98 810.088 8667.73 809.929C8664.79 809.722 8661.68 810.123 8658.47 810.999L8664.72 754.052C8653.77 757.828 8642.56 763.376 8631.72 770.26L8640.19 820.872C8634.92 825.186 8630.3 830.441 8626.91 836.264C8626.53 836.926 8626.18 837.522 8625.85 838.188L8561.73 851.17C8557.41 861.888 8555.19 871.997 8554.82 881.202L8622.11 854.527C8622.64 858.767 8624.73 862.083 8628.15 864.046L8584.21 926.468C8588.04 927.633 8592.2 928.409 8596.76 928.729C8601.31 929.05 8606.4 928.858 8611.49 928.252L8643.02 865.3C8648.49 864.032 8654.28 861.202 8659.62 857.376L8690.13 889.287C8699.77 880.871 8708.71 871.374 8716.49 861.106L8674.74 841.7L8674.59 841.758Z" fill="#E6E7E8"/>
<path d="M8663.36 824.43C8661.62 827.408 8658.07 829.707 8655.47 829.524C8652.88 829.341 8652.17 826.742 8653.91 823.764C8655.64 820.786 8659.19 818.488 8661.79 818.671C8664.38 818.853 8665.09 821.452 8663.36 824.43Z" fill="#D1D3D4"/>
<path d="M8639.31 857.315C8641.92 857.499 8645.45 855.219 8647.19 852.221C8648.93 849.224 8648.23 846.646 8645.62 846.462C8643.01 846.278 8639.48 848.559 8637.74 851.556C8635.99 854.553 8636.7 857.132 8639.31 857.315Z" fill="#D1D3D4"/>
<path d="M8659.49 844.272C8656.9 844.09 8656.19 841.491 8657.92 838.513C8659.66 835.535 8663.21 833.236 8665.81 833.419C8668.4 833.601 8669.11 836.2 8667.37 839.178C8665.64 842.157 8662.08 844.455 8659.49 844.272Z" fill="#D1D3D4"/>
<path d="M8635.29 842.565C8632.7 842.383 8631.99 839.784 8633.72 836.806C8635.46 833.828 8639.01 831.529 8641.61 831.712C8644.2 831.894 8644.91 834.493 8643.18 837.471C8641.44 840.45 8637.89 842.748 8635.29 842.565Z" fill="#D1D3D4"/>
<path d="M8741.44 680.025C8665.19 674.654 8562.14 741.248 8511.2 828.804C8460.27 916.361 8480.77 991.658 8557.02 997.028C8633.26 1002.4 8736.31 935.805 8787.25 848.249C8838.19 760.692 8817.68 685.395 8741.44 680.025ZM8595.4 931.047C8550.91 927.913 8539 883.947 8568.68 832.922C8598.36 781.897 8658.54 743.009 8702.97 746.139C8747.41 749.269 8759.38 793.239 8729.7 844.264C8700.01 895.289 8639.84 934.177 8595.4 931.047Z" fill="#010101"/>
<path d="M8708.06 737.408C8659.42 733.982 8593.67 776.472 8561.17 832.328C8528.68 888.185 8541.76 936.229 8590.4 939.655C8639.04 943.081 8704.8 900.59 8737.29 844.734C8769.78 788.878 8756.7 740.834 8708.06 737.408ZM8599.26 924.433C8557.94 921.523 8546.82 880.713 8574.43 833.262C8602.03 785.811 8657.88 749.719 8699.21 752.629C8740.53 755.54 8751.64 796.349 8724.03 843.8C8696.43 891.251 8640.58 927.344 8599.26 924.433Z" fill="#D1D3D4"/>
<path d="M9811.22 921.833C9811.6 921.171 9812.14 920.451 9812.53 919.789C9816.34 913.237 9817.92 907.011 9817.35 902.01L9877.63 855.827C9875.09 848.345 9870.68 842.11 9864.61 837.48L9810.24 891.451C9808.55 890.643 9806.61 890.162 9804.36 890.004C9801.42 889.796 9798.31 890.197 9795.1 891.073L9801.35 834.127C9790.4 837.902 9779.19 843.451 9768.35 850.334L9776.82 900.946C9771.55 905.26 9766.93 910.515 9763.54 916.339C9763.16 917 9762.81 917.596 9762.48 918.262L9698.36 931.244C9694.04 941.963 9691.82 952.071 9691.45 961.276L9758.74 934.601C9759.27 938.841 9761.36 942.158 9764.78 944.121L9720.85 1006.54C9724.67 1007.71 9728.84 1008.48 9733.39 1008.8C9737.94 1009.12 9743.03 1008.93 9748.12 1008.33L9779.65 945.374C9785.12 944.107 9790.91 941.276 9796.25 937.45L9826.76 969.361C9836.4 960.946 9845.34 951.449 9853.12 941.18L9811.37 921.774L9811.22 921.833Z" fill="#E6E7E8"/>
<path d="M9800 904.518C9798.27 907.496 9794.71 909.795 9792.11 909.612C9789.52 909.429 9788.81 906.83 9790.55 903.852C9792.28 900.874 9795.84 898.576 9798.43 898.759C9801.02 898.941 9801.73 901.54 9800 904.518Z" fill="#D1D3D4"/>
<path d="M9783.83 932.309C9782.1 935.287 9778.54 937.586 9775.95 937.403C9773.35 937.221 9772.65 934.622 9774.38 931.644C9776.11 928.666 9779.67 926.367 9782.26 926.55C9784.85 926.732 9785.56 929.331 9783.83 932.309Z" fill="#D1D3D4"/>
<path d="M9796.13 924.362C9793.53 924.18 9792.83 921.581 9794.56 918.603C9796.29 915.625 9799.85 913.326 9802.44 913.509C9805.03 913.691 9805.74 916.29 9804.01 919.268C9802.28 922.246 9798.72 924.545 9796.13 924.362Z" fill="#D1D3D4"/>
<path d="M9771.93 922.655C9769.33 922.473 9768.63 919.874 9770.36 916.896C9772.09 913.917 9775.65 911.619 9778.24 911.802C9780.83 911.984 9781.54 914.583 9779.81 917.561C9778.08 920.539 9774.52 922.838 9771.93 922.655Z" fill="#D1D3D4"/>
<path d="M9878.08 760.105C9801.83 754.734 9698.78 821.328 9647.84 908.884C9596.91 996.441 9617.41 1071.74 9693.66 1077.11C9769.9 1082.48 9872.95 1015.89 9923.89 928.329C9974.83 840.772 9954.32 765.475 9878.08 760.105ZM9732.04 1011.13C9687.55 1007.99 9675.64 964.027 9705.32 913.002C9735 861.977 9795.18 823.089 9839.61 826.219C9884.05 829.349 9896.02 873.319 9866.34 924.344C9836.65 975.369 9776.48 1014.26 9732.04 1011.13Z" fill="#010101"/>
<path d="M9844.69 817.48C9796.05 814.054 9730.3 856.544 9697.8 912.401C9665.31 968.257 9678.39 1016.3 9727.03 1019.73C9775.67 1023.15 9841.42 980.662 9873.92 924.806C9906.41 868.95 9893.33 820.906 9844.69 817.48ZM9735.89 1004.51C9694.57 1001.6 9683.45 960.786 9711.06 913.334C9738.66 865.883 9794.51 829.791 9835.83 832.701C9877.15 835.612 9888.27 876.421 9860.66 923.872C9833.06 971.324 9777.21 1007.42 9735.89 1004.51Z" fill="#D1D3D4"/>
<path d="M9086.85 527.374L9082.54 527.486L8908.79 871.708L8913.1 871.596L9086.85 527.374Z" fill="#AA0009"/>
<path d="M9387.84 604.192L9383.54 604.305L9266.2 836.769L9270.51 836.656L9387.84 604.192Z" fill="#AA0009"/>
<path d="M9145.28 570.477L9142.49 575.172L9727.2 625.961L9729.99 621.266L9145.28 570.477Z" fill="#AA0009"/>
<path d="M9025.01 566.631L8507.21 530.158L8504.47 534.857L9022.27 571.33L9025.01 566.631Z" fill="#AA0009"/>
<path d="M9075.77 799.549L8832.95 776.519C8832.39 778.616 8831.92 780.65 8831.27 782.809L8817.61 828.762C8811.23 850.151 8819.95 865.577 8839.14 866.929L9569.66 918.385C9589.19 919.761 9614.84 906.618 9633.36 885.809L9674.64 839.39C9677.63 836.017 9680.78 832.657 9683.9 829.363L9075.73 799.615L9075.77 799.549Z" fill="#AA0009"/>
<path d="M9953.11 914.398C9948.48 932.673 9956.45 945.567 9973.05 946.736L10040.2 951.465L10131.9 848.799L10119.9 814.472L10025.2 845.968L9970.31 843.273C9969.52 848.246 9968.61 853.212 9967.26 858.421L9953.15 914.333L9953.11 914.398Z" fill="#AA0009"/>
<path d="M8306.76 763.428L8304.34 767.597C8293.32 786.525 8297.8 802.754 8314.23 803.911L8313.92 804.441L8435.26 832.416C8457.16 837.472 8489.37 822.518 8512.04 796.764L8545.45 758.815C8548.09 755.832 8550.84 752.856 8553.55 749.947L8356.44 731.241C8339.96 730.08 8317.71 744.496 8306.74 763.358L8306.76 763.428Z" fill="#AA0009"/>
<path d="M9387.64 577.164L9422.22 579.807C9422.5 571.284 9423.24 559.28 9425.54 551.519C9429.39 538.495 9491.42 397.846 9491.42 397.846L9504.37 380.639L9472.62 378.402C9473.67 384.125 9474.36 393.751 9470.4 403.667C9464.06 419.41 9405.93 561.712 9397.24 569.436C9394.64 571.733 9391.2 574.453 9387.64 577.164Z" fill="#231F20"/>
<path d="M9760.79 630.173L9719.24 627.246C9713.99 626.877 9713.21 621.104 9717.66 615.217L9764.16 553.734C9767.57 549.22 9772.91 546.221 9776.95 546.505L9808.18 548.705C9834.23 550.54 9844.75 570.296 9831.66 592.797C9818.57 615.298 9786.8 632.074 9760.75 630.239L9760.79 630.173Z" fill="#E01721"/>
<path d="M9774.99 605.754L9733.44 602.828C9731.25 602.673 9729.81 601.538 9729.29 599.849L9717.65 615.219C9713.21 621.106 9713.99 626.879 9719.23 627.248L9760.79 630.175C9786.83 632.01 9818.61 615.234 9831.7 592.733C9834.16 588.497 9835.8 584.341 9836.65 580.405C9821.03 596.528 9796.14 607.244 9775.05 605.758L9774.99 605.754Z" fill="#AA0009"/>
<path d="M10189 695.672L10153.8 693.196C10146.5 692.68 10136.6 699.074 10131.6 707.545L10102.2 758.174C10098.5 764.461 10098.6 770.321 10102.3 772.995L10131.8 793.813L10188.9 695.734L10189 695.672Z" fill="#D1D3D4"/>
<path d="M10110 764.919C10108.3 763.772 10108.3 761.358 10109.9 758.645L10139.3 708.017C10141.4 704.443 10145.6 701.776 10148.7 701.991L10176.1 703.924L10131.7 780.229L10109.9 764.849L10110 764.919Z" fill="white"/>
<path d="M8419.68 622.652L8370.39 707.363L8414.76 689.063L8451.87 625.265C8451.87 625.265 8430.8 623.229 8419.64 622.719L8419.68 622.652Z" fill="#FEAB01"/>
<path d="M9489.93 574.778L9657.74 412.233C9648.33 404.681 9635.97 400.159 9621.33 399.128L9607.32 398.141L9429.76 570.127L9489.91 574.709L9489.93 574.778Z" fill="#28211F"/>
<path d="M9687.45 454.702L9669.63 425.822L9514 576.618L9558.05 579.996L9687.45 454.702Z" fill="#28211F"/>
<path d="M9340.33 379.328L9170.37 543.927C9172.21 547.983 9176.01 550.731 9181.71 551.133L9224.43 554.418L9400.78 383.586L9340.27 379.324L9340.33 379.328Z" fill="#28211F"/>
<path d="M9469.43 388.422L9425.05 385.296L9248.51 556.252L9292.62 559.634L9469.43 388.422Z" fill="#28211F"/>
<g style="mix-blend-mode:screen">
<path d="M8511.31 561.865L9007.45 596.812L8981.96 640.623L8511.31 561.865Z" fill="#3D3533"/>
</g>
<g style="mix-blend-mode:screen">
<path d="M9138.18 599.26L9364.35 621.942L9344.57 666.155L9138.18 599.26Z" fill="#3D3533"/>
</g>
<g style="mix-blend-mode:screen">
<path d="M9394.44 624.064L9715.03 646.647L9372.75 668.144L9394.44 624.064Z" fill="#3D3533"/>
</g>
<path d="M12476.1 822.541H12434.1C12444.4 842.97 12458.8 860.856 12470.4 869.152H12483.2C12478.5 855.37 12476 840.784 12476 825.663C12476 824.637 12476.1 823.567 12476.1 822.541H12476.1Z" fill="#58595B"/>
<path d="M14082.9 745.372V926.197H12467C12446.2 911.388 12416.7 865.58 12418 830.03C12418 830.03 12426.1 785.426 12439.1 732.437C12440.1 728.333 12441.2 724.141 12442.3 719.903C12450.3 688.68 12459.9 655.584 12470.6 627.662C12478.3 607.412 12486.6 589.927 12495.2 577.84C12495.2 577.84 12736.8 419.094 12789.6 412.002H13271.9C13325.1 412.002 13377.5 424.714 13423.1 448.8C13528.1 504.377 13719.2 603.487 13749.9 606.029C13749.9 606.029 14066.6 651.838 14082.8 745.372H14082.9Z" fill="#FF833E"/>
<path d="M12818.8 883.424C12818.8 898.277 12816.3 912.595 12811.7 926.155H12479.7C12475 912.595 12472.5 898.233 12472.5 883.424C12472.5 800.505 12550.2 733.02 12645.6 733.02C12741.1 733.02 12818.8 800.505 12818.8 883.424H12818.8Z" fill="#F26522"/>
<path d="M13859.5 883.424C13859.5 898.277 13857 912.595 13852.4 926.155H13520.4C13515.7 912.595 13513.3 898.233 13513.3 883.424C13513.3 800.505 13590.9 733.02 13686.4 733.02C13781.8 733.02 13859.5 800.505 13859.5 883.424Z" fill="#F26522"/>
<path d="M12818.8 883.422C12818.8 898.275 12816.3 912.593 12811.7 926.153H12479.7C12475 912.593 12472.5 898.231 12472.5 883.422C12472.5 800.503 12550.2 733.018 12645.6 733.018C12741.1 733.018 12818.8 800.503 12818.8 883.422H12818.8Z" fill="#C1440E"/>
<path d="M13859.5 883.422C13859.5 898.275 13857 912.593 13852.4 926.153H13520.4C13515.7 912.593 13513.3 898.231 13513.3 883.422C13513.3 800.503 13590.9 733.018 13686.4 733.018C13781.8 733.018 13859.5 800.503 13859.5 883.422Z" fill="#C1440E"/>
<path d="M12679 1003.8C12755.6 987.877 12802.9 920.994 12784.5 854.414C12766.2 787.833 12689.2 746.767 12612.6 762.69C12536 778.613 12488.7 845.496 12507 912.076C12525.3 978.657 12602.3 1019.72 12679 1003.8Z" fill="#58595B"/>
<path d="M12668.9 967.506C12722.4 956.425 12755.5 909.736 12742.7 863.222C12730 816.709 12676.2 787.986 12622.7 799.067C12569.2 810.148 12536.1 856.837 12548.8 903.35C12561.6 949.863 12615.3 978.587 12668.9 967.506Z" fill="#A7A9AC"/>
<path d="M12665.9 957.411C12712.9 947.703 12741.9 906.747 12730.7 865.934C12719.6 825.121 12672.4 799.905 12625.4 809.614C12578.5 819.322 12549.4 860.277 12560.6 901.09C12571.8 941.903 12618.9 967.119 12665.9 957.411Z" fill="#D1D3D4"/>
<path d="M12645.7 903.004C12658.1 903.004 12668.2 894.237 12668.2 883.423C12668.2 872.609 12658.1 863.842 12645.7 863.842C12633.2 863.842 12623.2 872.609 12623.2 883.423C12623.2 894.237 12633.2 903.004 12645.7 903.004Z" fill="#58595B"/>
<path d="M12668.1 828.695C12668.1 820.176 12657.6 819.373 12644.7 819.373C12631.7 819.373 12621.2 820.176 12621.2 828.695C12621.2 837.215 12631.7 856.885 12644.7 856.885C12657.6 856.885 12668.1 837.17 12668.1 828.695Z" fill="#58595B"/>
<path d="M12590.8 849.706C12581.5 847.074 12577.4 855.505 12573.4 866.254C12569.4 876.959 12567 885.925 12576.3 888.556C12585.6 891.188 12610.4 888.556 12614.4 877.851C12618.4 867.146 12600.1 852.338 12590.8 849.751V849.706Z" fill="#58595B"/>
<path d="M12589.9 920.134C12584.2 927.003 12592.1 933.024 12602.6 939.67C12613.1 946.316 12622.2 951 12627.9 944.131C12633.7 937.262 12638.5 915.941 12628 909.34C12617.6 902.694 12595.7 913.265 12589.9 920.178V920.134Z" fill="#58595B"/>
<path d="M12666.7 942.618C12672.5 949.487 12681.5 944.759 12692.1 938.158C12702.5 931.556 12710.5 925.535 12704.7 918.621C12698.9 911.708 12677.2 901.181 12666.6 907.782C12656.2 914.428 12660.9 935.705 12666.7 942.574V942.618Z" fill="#58595B"/>
<path d="M12715.1 886.097C12724.4 883.466 12722 874.545 12718 863.795C12714 853.09 12709.9 844.616 12700.5 847.247C12691.2 849.879 12672.9 864.643 12676.9 875.348C12680.9 886.053 12705.7 888.684 12715.1 886.053V886.097Z" fill="#58595B"/>
<path d="M13770.7 983.219C13834.3 942.73 13848 865.157 13801.4 809.957C13754.8 754.756 13665.5 742.83 13602 783.32C13538.4 823.81 13524.7 901.382 13571.3 956.582C13617.9 1011.78 13707.2 1023.71 13770.7 983.219Z" fill="#58595B"/>
<path d="M13745 953.268C13789.5 925.137 13799.3 870.989 13766.9 832.325C13734.5 793.662 13672.2 785.124 13627.7 813.256C13583.2 841.388 13573.4 895.536 13605.8 934.2C13638.1 972.863 13700.5 981.4 13745 953.268Z" fill="#A7A9AC"/>
<path d="M13737.8 945.136C13776.9 920.495 13785.5 872.996 13757.2 839.043C13728.8 805.09 13674.1 797.542 13635.1 822.182C13596 846.823 13587.3 894.323 13615.7 928.276C13644 962.228 13698.7 969.777 13737.8 945.136Z" fill="#D1D3D4"/>
<path d="M13686.4 903.008C13698.8 903.008 13708.9 894.241 13708.9 883.427C13708.9 872.613 13698.8 863.846 13686.4 863.846C13673.9 863.846 13663.8 872.613 13663.8 883.427C13663.8 894.241 13673.9 903.008 13686.4 903.008Z" fill="#58595B"/>
<path d="M13708.9 828.693C13708.9 820.174 13698.3 819.371 13685.4 819.371C13672.5 819.371 13661.9 820.174 13661.9 828.693C13661.9 837.213 13672.5 856.883 13685.4 856.883C13698.3 856.883 13708.9 837.168 13708.9 828.693Z" fill="#58595B"/>
<path d="M13631.6 849.704C13622.3 847.073 13618.1 855.503 13614.1 866.252C13610.1 876.957 13607.7 885.923 13617 888.554C13626.3 891.186 13651.2 888.554 13655.2 877.849C13659.2 867.144 13640.8 852.336 13631.6 849.749V849.704Z" fill="#58595B"/>
<path d="M13630.6 920.132C13624.9 927.001 13632.8 933.022 13643.3 939.668C13653.8 946.314 13662.9 950.998 13668.6 944.129C13674.4 937.26 13679.2 915.939 13668.7 909.338C13658.3 902.692 13636.4 913.263 13630.6 920.176V920.132Z" fill="#58595B"/>
<path d="M13707.4 942.615C13713.2 949.484 13722.2 944.756 13732.7 938.155C13743.2 931.553 13751.2 925.532 13745.4 918.618C13739.7 911.749 13717.9 901.178 13707.3 907.779C13696.9 914.425 13701.6 935.701 13707.4 942.57V942.615Z" fill="#58595B"/>
<path d="M13755.8 886.095C13765.1 883.464 13762.7 874.543 13758.7 863.793C13754.7 853.088 13750.6 844.614 13741.3 847.245C13732 849.877 13713.6 864.641 13717.7 875.346C13721.7 886.051 13746.5 888.682 13755.8 886.051V886.095Z" fill="#58595B"/>
<path d="M13499.2 529.801V609.865H12567.8C12569.3 606.921 12570.8 604.2 12572.4 601.658C12589.5 590.551 12637.6 559.462 12689.6 527.883C12798.2 462.047 12832.3 449.603 12840.3 447.283H13271.9C13317.8 447.283 13362.7 458.256 13402 478.952C13438.1 498.087 13470.4 514.947 13499.1 529.801H13499.2Z" fill="#6D6E71"/>
<path d="M12608.8 595.724C12631.5 581.183 12664.5 560.353 12698.9 539.434C12798.3 479.129 12833.6 464.678 12843.2 461.377H13271.9C13314.8 461.377 13356.9 471.636 13393.5 490.994C13426 508.167 13456.1 523.912 13482.9 537.828V595.769H12608.7L12608.8 595.724Z" fill="#6D6E71"/>
<path d="M13093.6 447.283L13102.9 609.865H13026.4L13037.3 447.283H13093.6Z" fill="#414042"/>
<path opacity="0.1" d="M13402 478.953C13397.4 476.545 13392.8 474.27 13388.1 472.129L13322.9 609.866H13408.2L13456.6 507.634C13439.4 498.668 13421.3 489.123 13402 478.953Z" fill="white"/>
<path opacity="0.1" d="M13271.9 447.283H13246.2L13169.3 609.865H13273.1L13345.5 456.918C13321.8 450.584 13297 447.283 13271.9 447.283Z" fill="white"/>
<path opacity="0.1" d="M12861 603.931H12786.2L12857.5 453.17H12881.3C12897.8 453.17 12914.2 454.686 12930.2 457.719L12861 603.931Z" fill="white"/>
<path opacity="0.1" d="M12986.2 453.17H12962.4L12891.1 603.931H12942L13012.7 454.553C13004 453.661 12995.1 453.215 12986.2 453.215V453.17Z" fill="white"/>
<path d="M14082.9 745.372C14080.2 729.85 14069.2 715.621 14052.8 702.731L13944.4 690.375C13930.9 688.859 13920.4 700.188 13924.9 711.295C13936 738.414 13958 779.36 13991.6 784.802C14002.3 786.541 14047.5 788.281 14083 789.396V745.417L14082.9 745.372Z" fill="#FFDE17"/>
<path d="M13974.1 733.106C13969.5 722 13980.1 710.67 13993.5 712.187L14071.6 721.107C14066.6 714.729 14060.3 708.574 14052.8 702.731L13944.4 690.375C13930.9 688.859 13920.4 700.188 13924.9 711.295C13936 738.414 13958 779.36 13991.6 784.802C13994.3 785.248 13999.4 785.694 14005.9 786.14C13991.3 770.573 13980.7 749.386 13974.1 733.151L13974.1 733.106Z" fill="#FFB917"/>
<path opacity="0.6" d="M13056.4 891.499V596.443H13471.8L13508.2 599.343V863.844C13508.2 877.894 13495.1 889.313 13478.9 889.358L13056.4 891.543V891.499ZM13071 609.156V878.697L13478.9 876.601C13487 876.601 13493.5 870.892 13493.5 863.844V610.94L13470.8 609.156H13071Z" fill="#E85F1A"/>
<path d="M13402 478.952C13362.8 458.256 13317.9 447.283 13271.9 447.283H12840.4C12832.3 449.558 12798.2 462.047 12689.7 527.883C12637.6 559.462 12589.5 590.551 12572.4 601.658C12570.9 604.2 12569.3 606.921 12567.8 609.865H13499.2V529.801C13470.5 514.947 13438.3 498.087 13402.1 478.952H13402ZM13483 595.77H12608.8C12631.5 581.229 12664.5 560.399 12698.9 539.48C12798.3 479.175 12833.6 464.723 12843.2 461.423H13271.9C13314.8 461.423 13356.9 471.682 13393.5 491.04C13426 508.212 13456.1 523.957 13482.9 537.874V595.814L13483 595.77Z" fill="#414042"/>
<path d="M13624.1 592.516C13592.1 577.127 13551.4 556.743 13499.2 529.758V609.822H13624.1V592.516Z" fill="#414042"/>
<path d="M13216 672.533H13126.7C13126.7 684.844 13138.1 694.791 13152.3 694.791H13190.4C13204.5 694.791 13216 684.844 13216 672.533Z" fill="#C1440E"/>
<path d="M13126.7 666.065H13216C13216 657.635 13208.1 650.766 13198.4 650.766H13144.3C13134.6 650.766 13126.7 657.635 13126.7 666.065Z" fill="#C1440E"/>
<path d="M12853.2 672.533H12763.9C12763.9 684.844 12775.3 694.791 12789.5 694.791H12827.6C12841.8 694.791 12853.2 684.844 12853.2 672.533Z" fill="#C1440E"/>
<path d="M12763.9 666.065H12853.2C12853.2 657.635 12845.3 650.766 12835.6 650.766H12781.5C12771.8 650.766 12763.9 657.635 12763.9 666.065Z" fill="#C1440E"/>
<path opacity="0.6" d="M13045.4 893.413H12931.5C12891.9 893.413 12857.3 871.155 12845.5 838.059C12797.2 703.221 12575.6 728.244 12573.4 728.512L12565 729.493V610.044H12579.7V715.131C12622 711.919 12813.1 704.872 12859.4 834.268C12869.4 862.011 12898.3 880.701 12931.5 880.701H13030.8V609.865H13045.4V893.457L13045.4 893.413Z" fill="#E85F1A"/>
<path d="M13513.4 880.391H12818.8C12818.8 881.417 12818.9 882.442 12818.9 883.468C12818.9 898.321 12816.4 912.684 12811.7 926.199H13520.4C13515.8 912.639 13513.3 898.277 13513.3 883.468C13513.3 882.442 13513.4 881.417 13513.4 880.391H13513.4Z" fill="#58595B"/>
<path d="M13859.5 880.391C13859.5 881.417 13859.6 882.442 13859.6 883.468C13859.6 898.321 13857.1 912.684 13852.5 926.199H14083V880.391H13859.5H13859.5Z" fill="#58595B"/>
<path d="M12440 732.437H12439.2C12440.2 728.333 12441.2 724.141 12442.3 719.903C12450.3 688.68 12459.9 655.584 12470.6 627.662H12521C12521 627.662 12524.8 727.53 12440 732.437Z" fill="#FF453E"/>
<path d="M12440 732.437H12439.2C12440.2 728.333 12441.2 724.141 12442.3 719.903C12486.6 701.839 12496.8 652.685 12499.1 627.662H12521.1C12521.1 627.662 12524.9 727.53 12440.1 732.437H12440Z" fill="#E4453E"/>
<path d="M19233.1 822.539H19191.1C19201.4 842.968 19215.8 860.854 19227.4 869.15H19240.2C19235.5 855.368 19233 840.782 19233 825.661C19233 824.636 19233.1 823.565 19233.1 822.539H19233.1Z" fill="#58595B"/>
<path d="M20839.9 745.37V926.195H19224C19203.2 911.386 19173.7 865.578 19175 830.028C19175 830.028 19183.1 785.424 19196.1 732.435C19197.1 728.331 19198.2 724.139 19199.3 719.901C19207.3 688.678 19216.9 655.582 19227.6 627.66C19235.3 607.41 19243.6 589.925 19252.2 577.838C19252.2 577.838 19493.8 419.092 19546.6 412H20028.9C20082.1 412 20134.5 424.712 20180.1 448.798C20285.1 504.375 20476.2 603.485 20506.9 606.027C20506.9 606.027 20823.6 651.836 20839.8 745.37H20839.9Z" fill="#FF833E"/>
<path d="M19575.8 883.422C19575.8 898.275 19573.3 912.593 19568.7 926.153H19236.7C19232 912.593 19229.5 898.231 19229.5 883.422C19229.5 800.503 19307.2 733.018 19402.6 733.018C19498.1 733.018 19575.8 800.503 19575.8 883.422H19575.8Z" fill="#F26522"/>
<path d="M20616.5 883.422C20616.5 898.275 20614 912.593 20609.4 926.153H20277.4C20272.7 912.593 20270.3 898.231 20270.3 883.422C20270.3 800.503 20347.9 733.018 20443.4 733.018C20538.8 733.018 20616.5 800.503 20616.5 883.422Z" fill="#F26522"/>
<path d="M19575.8 883.42C19575.8 898.273 19573.3 912.591 19568.7 926.151H19236.7C19232 912.591 19229.5 898.229 19229.5 883.42C19229.5 800.501 19307.2 733.016 19402.6 733.016C19498.1 733.016 19575.8 800.501 19575.8 883.42H19575.8Z" fill="#C1440E"/>
<path d="M20616.5 883.42C20616.5 898.273 20614 912.591 20609.4 926.151H20277.4C20272.7 912.591 20270.3 898.229 20270.3 883.42C20270.3 800.501 20347.9 733.016 20443.4 733.016C20538.8 733.016 20616.5 800.501 20616.5 883.42Z" fill="#C1440E"/>
<path d="M19436 1003.8C19512.6 987.875 19559.9 920.992 19541.5 854.412C19523.2 787.831 19446.2 746.765 19369.6 762.688C19293 778.611 19245.7 845.494 19264 912.074C19282.3 978.655 19359.3 1019.72 19436 1003.8Z" fill="#58595B"/>
<path d="M19425.9 967.504C19479.4 956.423 19512.5 909.734 19499.7 863.221C19487 816.707 19433.2 787.984 19379.7 799.065C19326.2 810.146 19293.1 856.835 19305.8 903.348C19318.6 949.861 19372.3 978.585 19425.9 967.504Z" fill="#A7A9AC"/>
<path d="M19422.9 957.409C19469.9 947.701 19498.9 906.746 19487.7 865.932C19476.6 825.119 19429.4 799.904 19382.4 809.612C19335.5 819.32 19306.4 860.275 19317.6 901.088C19328.8 941.901 19375.9 967.117 19422.9 957.409Z" fill="#D1D3D4"/>
<path d="M19402.7 903.002C19415.1 903.002 19425.2 894.235 19425.2 883.421C19425.2 872.607 19415.1 863.84 19402.7 863.84C19390.2 863.84 19380.2 872.607 19380.2 883.421C19380.2 894.235 19390.2 903.002 19402.7 903.002Z" fill="#58595B"/>
<path d="M19425.1 828.693C19425.1 820.174 19414.6 819.371 19401.7 819.371C19388.7 819.371 19378.2 820.174 19378.2 828.693C19378.2 837.213 19388.7 856.883 19401.7 856.883C19414.6 856.883 19425.1 837.168 19425.1 828.693Z" fill="#58595B"/>
<path d="M19347.8 849.704C19338.5 847.073 19334.4 855.503 19330.4 866.252C19326.4 876.957 19324 885.923 19333.3 888.554C19342.6 891.186 19367.4 888.554 19371.4 877.849C19375.4 867.144 19357.1 852.336 19347.8 849.749V849.704Z" fill="#58595B"/>
<path d="M19346.9 920.132C19341.2 927.001 19349.1 933.022 19359.6 939.668C19370.1 946.314 19379.2 950.998 19384.9 944.129C19390.7 937.26 19395.5 915.939 19385 909.338C19374.6 902.692 19352.7 913.263 19346.9 920.176V920.132Z" fill="#58595B"/>
<path d="M19423.7 942.616C19429.5 949.485 19438.5 944.757 19449.1 938.156C19459.5 931.554 19467.5 925.533 19461.7 918.619C19455.9 911.706 19434.2 901.179 19423.6 907.781C19413.2 914.427 19417.9 935.703 19423.7 942.572V942.616Z" fill="#58595B"/>
<path d="M19472.1 886.095C19481.4 883.464 19479 874.543 19475 863.793C19471 853.088 19466.9 844.614 19457.5 847.245C19448.2 849.877 19429.9 864.641 19433.9 875.346C19437.9 886.051 19462.7 888.682 19472.1 886.051V886.095Z" fill="#58595B"/>
<path d="M20527.7 983.217C20591.3 942.728 20605 865.155 20558.4 809.955C20511.8 754.754 20422.5 742.828 20359 783.318C20295.4 823.808 20281.7 901.38 20328.3 956.581C20374.9 1011.78 20464.2 1023.71 20527.7 983.217Z" fill="#58595B"/>
<path d="M20502 953.267C20546.5 925.135 20556.3 870.987 20523.9 832.323C20491.5 793.66 20429.2 785.122 20384.7 813.254C20340.2 841.386 20330.4 895.534 20362.8 934.198C20395.1 972.861 20457.5 981.398 20502 953.267Z" fill="#A7A9AC"/>
<path d="M20494.8 945.134C20533.9 920.493 20542.5 872.994 20514.2 839.041C20485.8 805.088 20431.1 797.54 20392.1 822.18C20353 846.821 20344.3 894.321 20372.7 928.274C20401 962.226 20455.7 969.775 20494.8 945.134Z" fill="#D1D3D4"/>
<path d="M20443.4 903.006C20455.8 903.006 20465.9 894.239 20465.9 883.425C20465.9 872.611 20455.8 863.844 20443.4 863.844C20430.9 863.844 20420.8 872.611 20420.8 883.425C20420.8 894.239 20430.9 903.006 20443.4 903.006Z" fill="#58595B"/>
<path d="M20465.9 828.691C20465.9 820.172 20455.3 819.369 20442.4 819.369C20429.5 819.369 20418.9 820.172 20418.9 828.691C20418.9 837.211 20429.5 856.881 20442.4 856.881C20455.3 856.881 20465.9 837.166 20465.9 828.691Z" fill="#58595B"/>
<path d="M20388.6 849.702C20379.3 847.071 20375.1 855.501 20371.1 866.25C20367.1 876.955 20364.7 885.921 20374 888.552C20383.3 891.184 20408.2 888.552 20412.2 877.847C20416.2 867.142 20397.8 852.334 20388.6 849.747V849.702Z" fill="#58595B"/>
<path d="M20387.6 920.13C20381.9 926.999 20389.8 933.02 20400.3 939.666C20410.8 946.312 20419.9 950.996 20425.6 944.127C20431.4 937.258 20436.2 915.937 20425.7 909.336C20415.3 902.69 20393.4 913.261 20387.6 920.174V920.13Z" fill="#58595B"/>
<path d="M20464.4 942.613C20470.2 949.482 20479.2 944.754 20489.7 938.153C20500.2 931.551 20508.2 925.53 20502.4 918.616C20496.7 911.747 20474.9 901.176 20464.3 907.777C20453.9 914.423 20458.6 935.699 20464.4 942.568V942.613Z" fill="#58595B"/>
<path d="M20512.8 886.093C20522.1 883.462 20519.7 874.541 20515.7 863.791C20511.7 853.086 20507.6 844.612 20498.3 847.243C20489 849.875 20470.6 864.639 20474.7 875.344C20478.7 886.049 20503.5 888.68 20512.8 886.049V886.093Z" fill="#58595B"/>
<path d="M20256.2 529.799V609.863H19324.8C19326.3 606.919 19327.8 604.198 19329.4 601.656C19346.5 590.549 19394.6 559.46 19446.6 527.881C19555.2 462.045 19589.3 449.601 19597.3 447.281H20028.9C20074.8 447.281 20119.7 458.254 20159 478.95C20195.1 498.085 20227.4 514.945 20256.1 529.799H20256.2Z" fill="#6D6E71"/>
<path d="M19365.8 595.722C19388.5 581.181 19421.5 560.351 19455.9 539.432C19555.3 479.127 19590.6 464.676 19600.2 461.375H20028.9C20071.8 461.375 20113.9 471.634 20150.5 490.992C20183 508.165 20213.1 523.91 20239.9 537.826V595.767H19365.7L19365.8 595.722Z" fill="#6D6E71"/>
<path d="M19850.6 447.281L19859.9 609.863H19783.4L19794.3 447.281H19850.6Z" fill="#414042"/>
<path opacity="0.1" d="M20159 478.951C20154.4 476.543 20149.8 474.268 20145.1 472.127L20079.9 609.864H20165.2L20213.6 507.632C20196.4 498.666 20178.3 489.121 20159 478.951Z" fill="white"/>
<path opacity="0.1" d="M20028.9 447.281H20003.2L19926.3 609.863H20030.1L20102.5 456.916C20078.8 450.582 20054 447.281 20028.9 447.281Z" fill="white"/>
<path opacity="0.1" d="M19618 603.929H19543.2L19614.5 453.168H19638.3C19654.8 453.168 19671.2 454.684 19687.2 457.718L19618 603.929Z" fill="white"/>
<path opacity="0.1" d="M19743.2 453.168H19719.4L19648.1 603.929H19699L19769.7 454.551C19761 453.659 19752.1 453.213 19743.2 453.213V453.168Z" fill="white"/>
<path d="M20839.9 745.37C20837.2 729.848 20826.2 715.619 20809.8 702.729L20701.4 690.373C20687.9 688.857 20677.4 700.186 20681.9 711.293C20693 738.412 20715 779.358 20748.6 784.8C20759.3 786.54 20804.5 788.279 20840 789.394V745.415L20839.9 745.37Z" fill="#FFDE17"/>
<path d="M20731.1 733.104C20726.5 721.998 20737.1 710.668 20750.5 712.185L20828.6 721.105C20823.6 714.727 20817.3 708.572 20809.8 702.729L20701.4 690.373C20687.9 688.857 20677.4 700.186 20681.9 711.293C20693 738.412 20715 779.358 20748.6 784.8C20751.3 785.246 20756.4 785.692 20762.9 786.138C20748.3 770.571 20737.7 749.384 20731.1 733.149L20731.1 733.104Z" fill="#FFB917"/>
<path opacity="0.6" d="M19813.4 891.497V596.441H20228.8L20265.2 599.341V863.842C20265.2 877.892 20252.1 889.311 20235.9 889.356L19813.4 891.541V891.497ZM19828 609.154V878.695L20235.9 876.599C20244 876.599 20250.5 870.89 20250.5 863.842V610.938L20227.8 609.154H19828Z" fill="#E85F1A"/>
<path d="M20159 478.95C20119.8 458.254 20074.9 447.281 20028.9 447.281H19597.4C19589.3 449.556 19555.2 462.045 19446.7 527.881C19394.6 559.46 19346.5 590.549 19329.4 601.656C19327.9 604.198 19326.3 606.919 19324.8 609.863H20256.2V529.799C20227.5 514.945 20195.3 498.085 20159.1 478.95H20159ZM20240 595.768H19365.8C19388.5 581.227 19421.5 560.397 19455.9 539.478C19555.3 479.173 19590.6 464.721 19600.2 461.421H20028.9C20071.8 461.421 20113.9 471.68 20150.5 491.038C20183 508.21 20213.1 523.955 20239.9 537.872V595.812L20240 595.768Z" fill="#414042"/>
<path d="M20381.1 592.514C20349.1 577.125 20308.4 556.741 20256.2 529.756V609.82H20381.1V592.514Z" fill="#414042"/>
<path d="M19973 672.531H19883.7C19883.7 684.842 19895.1 694.789 19909.3 694.789H19947.4C19961.5 694.789 19973 684.842 19973 672.531Z" fill="#C1440E"/>
<path d="M19883.7 666.063H19973C19973 657.633 19965.1 650.764 19955.4 650.764H19901.3C19891.6 650.764 19883.7 657.633 19883.7 666.063Z" fill="#C1440E"/>
<path d="M19610.2 672.531H19520.9C19520.9 684.842 19532.3 694.789 19546.5 694.789H19584.6C19598.8 694.789 19610.2 684.842 19610.2 672.531Z" fill="#C1440E"/>
<path d="M19520.9 666.063H19610.2C19610.2 657.633 19602.3 650.764 19592.6 650.764H19538.5C19528.8 650.764 19520.9 657.633 19520.9 666.063Z" fill="#C1440E"/>
<path opacity="0.6" d="M19802.4 893.411H19688.5C19648.9 893.411 19614.3 871.153 19602.5 838.057C19554.2 703.219 19332.6 728.242 19330.4 728.51L19322 729.491V610.042H19336.7V715.129C19379 711.917 19570.1 704.87 19616.4 834.266C19626.4 862.01 19655.3 880.699 19688.5 880.699H19787.8V609.863H19802.4V893.455L19802.4 893.411Z" fill="#E85F1A"/>
<path d="M20270.4 880.389H19575.8C19575.8 881.415 19575.9 882.44 19575.9 883.466C19575.9 898.319 19573.4 912.682 19568.7 926.197H20277.4C20272.8 912.637 20270.3 898.275 20270.3 883.466C20270.3 882.44 20270.4 881.415 20270.4 880.389H20270.4Z" fill="#58595B"/>
<path d="M20616.5 880.389C20616.5 881.415 20616.6 882.44 20616.6 883.466C20616.6 898.319 20614.1 912.682 20609.5 926.197H20840V880.389H20616.5H20616.5Z" fill="#58595B"/>
<path d="M19197 732.435H19196.2C19197.2 728.331 19198.2 724.139 19199.3 719.901C19207.3 688.678 19216.9 655.582 19227.6 627.66H19278C19278 627.66 19281.8 727.528 19197 732.435Z" fill="#FF453E"/>
<path d="M19197 732.435H19196.2C19197.2 728.331 19198.2 724.139 19199.3 719.901C19243.6 701.837 19253.8 652.683 19256.1 627.66H19278.1C19278.1 627.66 19281.9 727.528 19197.1 732.435H19197Z" fill="#E4453E"/>
<path d="M15742.9 194.607L15842.1 231.381L15732.2 527.909L15633 491.135C15612.1 483.414 15602.7 456.948 15612 432.023L15688.4 225.807C15697.6 200.882 15722 186.934 15742.8 194.655L15742.9 194.607Z" fill="#58595B"/>
<path d="M16342.2 555.346L16266.1 527.135C16261.8 538.859 16266.2 551.28 16276 554.912L16316.6 569.985C16326.4 573.616 16337.9 567.07 16342.2 555.346Z" fill="#58595B"/>
<path d="M16268.3 520.971L16344.5 549.183C16347.5 541.129 16344.4 532.577 16337.7 530.082L16285.9 510.89C16279.2 508.396 16271.3 512.902 16268.3 520.956L16268.3 520.971Z" fill="#58595B"/>
<path d="M16844.3 994.505L16874.7 912.438L16857.3 871.576L16890.5 782.074L16558.2 529.199L16493.4 268.305L15934.8 61.3009L15754.3 255.938L15630.5 590.068L16812.3 1028.08L16844.3 994.505Z" fill="#01B3C8"/>
<path d="M16890.5 782.074L16857.5 871.195L16809.4 853.376L16787.7 778.32L16809.2 720.178L16890.5 782.074Z" fill="#01B3C8"/>
<path d="M15682.6 449.365L15732.7 314.303L15769.7 328.017C15769.7 328.017 15735.2 454.338 15682.6 449.365Z" fill="#01B3C8"/>
<path d="M16037.9 741.063L15711.8 620.214C15759.4 530.942 15854.3 484.282 15936.4 514.694C16018.4 545.105 16060 642.372 16037.9 741.063Z" fill="#0498A0"/>
<path d="M16742.9 1002.36L16416.9 881.515C16464.4 792.243 16559.4 745.583 16641.4 775.994C16723.5 806.406 16765.1 903.673 16742.9 1002.36Z" fill="#0498A0"/>
<path d="M16184 184.747L15938.3 93.6899L15776.6 269.4L16070 378.142L16184 184.747Z" fill="#414042"/>
<path d="M16158.5 195.95L16064.5 355.437L15807.6 260.246L15941 115.346L16158.5 195.95Z" fill="#6D6E71"/>
<path opacity="0.47" d="M16439.8 872.009L16114 751.264L16113.1 574.859L16181.4 390.518L16533.1 534.962L16537.7 607.936L16439.8 872.057L16439.8 872.009ZM16126.4 740.398L16433.4 854.205L16525 607.05L16521.2 545.722L16187.5 408.722L16125.4 576.144L16126.3 740.384L16126.4 740.398Z" fill="#05777C"/>
<path d="M16473.1 291.91L16248.8 208.766L16172 415.935L16536.1 550.867L16536.8 549.008L16473.1 291.91Z" fill="#414042"/>
<path d="M16193.9 403.388L16257.2 232.486L16459.2 307.348L16512.2 521.357L16193.9 403.388Z" fill="#6D6E71"/>
<path d="M15654.9 524.156L15630.5 590.067L16812.3 1028.08L16844.3 994.504L16853.9 968.531L15654.9 524.156Z" fill="#58595B"/>
<path d="M16037.9 741.063L15711.8 620.214C15759.4 530.942 15854.3 484.282 15936.4 514.694C16018.4 545.105 16060 642.372 16037.9 741.063Z" fill="#068787"/>
<path d="M16742.9 1002.36L16416.9 881.515C16464.4 792.243 16559.4 745.583 16641.4 775.994C16723.5 806.406 16765.1 903.673 16742.9 1002.36Z" fill="#068787"/>
<path d="M15962.6 819.826C16021.4 749.47 16024.5 644.235 15969.5 584.777C15914.5 525.319 15822.4 534.154 15763.6 604.51C15704.9 674.866 15701.8 780.1 15756.8 839.558C15811.7 899.016 15903.9 890.182 15962.6 819.826Z" fill="#58595B"/>
<path d="M15893.7 798.519C15937.6 773.43 15959.4 714.497 15942.5 666.89C15925.6 619.282 15876.4 601.026 15832.5 626.115C15788.7 651.204 15766.8 710.137 15783.7 757.745C15800.6 805.353 15849.9 823.608 15893.7 798.519Z" fill="#A7A9AC"/>
<path d="M15884.8 784.788C15921.4 766.282 15941.3 718.842 15929.4 678.826C15917.4 638.811 15878 621.373 15841.4 639.879C15804.8 658.385 15784.9 705.826 15796.8 745.841C15808.8 785.857 15848.2 803.294 15884.8 784.788Z" fill="#D1D3D4"/>
<path d="M15931.6 735.363L15935.4 692.987L15903.4 696.197C15895 697.034 15889.7 687.45 15893.7 678.459L15910.1 641.394L15876.3 628.86L15865.5 664.591C15862.7 673.996 15852.4 677.851 15846.6 671.73L15822.5 646.427L15797.8 681.067L15823.1 699.948C15829.8 704.916 15828.7 716.874 15821.1 722.082L15789.8 743.488L15808.4 777.412L15834.8 753.339C15841.8 746.981 15851.4 750.524 15852.5 759.893L15857.3 798.453L15893.4 784.814L15884.4 751.066C15882.1 742.167 15889 732.393 15897.3 732.976L15931.6 735.363ZM15870.2 720.105L15857.9 724.753L15851.6 713.196L15860 701.404L15871.5 705.671L15870.2 720.091L15870.2 720.105Z" fill="#58595B"/>
<path d="M15897.6 619.254C15854.6 603.325 15804.4 632.123 15785.3 683.498C15766.3 734.873 15785.7 789.491 15828.6 805.405C15871.6 821.32 15921.9 792.537 15940.9 741.161C15960 689.786 15940.6 635.168 15897.6 619.254ZM15834.9 788.582C15799.7 775.532 15783.8 730.839 15799.4 688.709C15815 646.58 15856.2 623.027 15891.4 636.077C15926.6 649.127 15942.5 693.82 15926.9 735.95C15911.2 778.08 15870.1 801.633 15834.9 788.582Z" fill="#A7A9AC"/>
<path d="M15870.5 692.409C15861.3 688.999 15850.6 695.15 15846.5 706.159C15842.4 717.168 15846.5 728.841 15855.7 732.251C15864.9 735.661 15875.7 729.51 15879.8 718.501C15883.9 707.492 15879.7 695.819 15870.5 692.409Z" fill="#A7A9AC"/>
<path d="M16667.7 1081.12C16726.4 1010.76 16729.5 905.529 16674.5 846.071C16619.6 786.614 16527.4 795.449 16468.6 865.805C16409.9 936.161 16406.8 1041.4 16461.8 1100.85C16516.8 1160.31 16608.9 1151.48 16667.7 1081.12Z" fill="#58595B"/>
<path d="M16598.8 1059.82C16642.6 1034.73 16664.5 975.802 16647.5 928.194C16630.6 880.586 16581.4 862.331 16537.5 887.42C16493.7 912.509 16471.8 971.441 16488.7 1019.05C16505.7 1066.66 16554.9 1084.91 16598.8 1059.82Z" fill="#A7A9AC"/>
<path d="M16593.2 1044.24C16629.2 1023.69 16647 975.409 16633.2 936.406C16619.3 897.404 16579 882.448 16543.1 903.002C16507.1 923.556 16489.2 971.837 16503.1 1010.84C16516.9 1049.84 16557.3 1064.8 16593.2 1044.24Z" fill="#D1D3D4"/>
<path d="M16636.6 996.663L16640.4 954.288L16608.4 957.498C16600 958.335 16594.8 948.751 16598.7 939.759L16615.2 902.695L16581.3 890.161L16570.5 925.892C16567.7 935.296 16557.5 939.152 16551.6 933.031L16527.5 907.728L16502.8 942.368L16528.2 961.249C16534.9 966.216 16533.8 978.175 16526.2 983.383L16494.9 1004.79L16513.4 1038.71L16539.9 1014.64C16546.9 1008.28 16556.4 1011.82 16557.6 1021.19L16562.3 1059.75L16598.5 1046.11L16589.5 1012.37C16587.1 1003.47 16594.1 993.694 16602.4 994.277L16636.6 996.663ZM16575.3 981.406L16562.9 986.053L16556.6 974.497L16565 962.705L16576.5 966.971L16575.2 981.391L16575.3 981.406Z" fill="#58595B"/>
<path d="M16602.7 880.554C16559.7 864.625 16509.4 893.423 16490.4 944.799C16471.3 996.174 16490.7 1050.79 16533.7 1066.71C16576.6 1082.62 16626.9 1053.84 16646 1002.46C16665 951.087 16645.6 896.469 16602.7 880.554ZM16539.9 1049.88C16504.7 1036.83 16488.8 992.14 16504.4 950.01C16520 907.88 16561.2 884.327 16596.4 897.378C16631.6 910.428 16647.5 955.121 16631.9 997.251C16616.3 1039.38 16575.1 1062.93 16539.9 1049.88Z" fill="#A7A9AC"/>
<path d="M16575.5 953.71C16566.3 950.3 16555.6 956.451 16551.5 967.46C16547.4 978.469 16551.6 990.142 16560.8 993.552C16570 996.962 16580.7 990.811 16584.8 979.802C16588.9 968.793 16584.7 957.12 16575.5 953.71Z" fill="#A7A9AC"/>
<path d="M16299.5 535.821L16226.2 508.672C16221.1 522.54 16226.3 537.272 16237.9 541.567L16269.2 553.142C16280.7 557.438 16294.3 549.674 16299.5 535.806L16299.5 535.821Z" fill="#0498A0"/>
<path d="M16302.2 528.529L16228.9 501.381C16232.5 491.849 16241.8 486.52 16249.8 489.472L16294.1 505.918C16302.1 508.871 16305.7 518.983 16302.2 528.515L16302.2 528.529Z" fill="#0498A0"/>
<path d="M15682.6 449.365L15732.7 314.303L15769.7 328.017C15769.7 328.017 15735.2 454.338 15682.6 449.365Z" fill="#F95858"/>
<path d="M15769.7 327.986L15732.7 314.271L15726.4 331.285L15746.4 338.682C15746.4 338.682 15724.3 419.552 15688.5 449.318C15737.8 444.942 15769.7 328.034 15769.7 328.034L15769.7 327.986Z" fill="#E4453E"/>
<path d="M16890.5 782.074L16857.5 871.195L16809.4 853.376L16787.7 778.32L16809.2 720.178L16890.5 782.074Z" fill="#FFDE17"/>
<path d="M16842.6 842.28L16821.6 769.428L16833.1 738.354L16809.2 720.178L16787.7 778.32L16809.4 853.376L16857.5 871.195L16865.1 850.607L16842.6 842.28Z" fill="#FFB917"/>
<path opacity="0.1" d="M16381.5 278.608L16254.8 425.974L16193.9 403.387L16200.2 386.421L16314.2 253.674L16381.5 278.608Z" fill="white"/>
<path opacity="0.1" d="M16467.4 340.753L16360.5 465.14L16303 443.852L16429.7 296.486L16459.2 307.395L16467.4 340.753Z" fill="white"/>
<path opacity="0.1" d="M16042.6 153.006L15915.9 300.357L15853.5 277.238L15980.2 129.872L16042.6 153.006Z" fill="white"/>
<path opacity="0.1" d="M16142 189.854L16015.3 337.22L15960.4 316.877L16087.1 169.511L16142 189.854Z" fill="white"/>
<path d="M3998.9 678.171C3998.9 678.171 4002.31 428.534 4035.45 395.389L4018.89 375.63C4012.59 368.117 4016.47 355.347 4025.25 354.802L4800.68 306.718C4860.91 302.983 4921.23 319.618 4974.73 354.827C5061.61 411.971 5177.62 486.514 5190.62 485.708L5597.7 542.319C5597.7 542.319 5711.66 639.648 5720.6 859.185C5720.6 859.185 5646.34 948.454 5614.01 956.08L4213.91 1042.9L3990.39 994.695L3984.47 899.099L4010.75 869.247L3998.9 678.112L3998.9 678.171Z" fill="#D542E2"/>
<path d="M5221.34 940.38C5222.19 954.028 5224.09 967.318 5226.88 980.144L5583.02 958.059C5584.26 944.984 5584.45 931.565 5583.6 917.916C5576.15 797.764 5488.82 705.108 5388.96 711.3C5289.11 717.491 5213.9 820.286 5221.34 940.38Z" fill="#2F91D3"/>
<path d="M4169.88 1005.58C4170.48 1015.32 4171.61 1024.85 4173.21 1034.18L4213.92 1042.96L4531.51 1023.26C4532.74 1010.19 4532.93 996.77 4532.09 983.121C4524.64 862.969 4437.3 770.313 4337.45 776.505C4237.6 782.696 4162.38 885.491 4169.83 1005.58L4169.88 1005.58Z" fill="#2F91D3"/>
<path d="M4887.03 654.416L4800.86 659.76C4801.69 673.116 4811.33 683.351 4822.43 682.662L4868.5 679.805C4879.61 679.117 4887.91 667.77 4887.08 654.413L4887.03 654.416Z" fill="#0C6891"/>
<path d="M4800.43 652.766L4886.6 647.422C4886.03 638.265 4879.41 631.239 4871.8 631.712L4813.17 635.347C4805.56 635.819 4799.86 643.609 4800.43 652.766Z" fill="#0C6891"/>
<path d="M4481.33 679.574L4395.15 684.918C4395.98 698.275 4405.62 708.509 4416.72 707.82L4462.79 704.963C4473.9 704.275 4482.2 692.928 4481.37 679.571L4481.33 679.574Z" fill="#0C6891"/>
<path d="M4394.72 677.924L4480.89 672.58C4480.32 663.423 4473.71 656.398 4466.09 656.87L4407.46 660.505C4399.85 660.977 4394.15 668.767 4394.72 677.924Z" fill="#0C6891"/>
<path d="M4116.77 650.076L3999.42 657.353C3999.59 652.307 3999.77 646.5 3999.95 640.048C4002.14 577.263 4008.63 454.256 4027.35 409.065C4029.76 403.178 4032.44 398.562 4035.32 395.631L4037.17 395.517C4067.38 393.643 4095.41 416.204 4105.68 450.697L4148.09 592.98C4156.2 620.171 4140.63 648.597 4116.77 650.076Z" fill="#58595B"/>
<path d="M4132.33 621.47C4128.62 628.316 4122.54 632.44 4115.66 632.867L3999.95 640.042C4002.14 577.257 4008.63 454.25 4027.35 409.06C4051.49 415.349 4081.65 419.686 4092.14 456.156L4134.6 598.377C4136.93 606.196 4136.09 614.62 4132.38 621.408L4132.33 621.47Z" fill="#6D6E71"/>
<path d="M5552.18 595.731L5638.16 590.399C5660.53 622.913 5687.07 672.499 5704 740.714C5677.54 742.531 5644.56 744.576 5615.6 745.493C5581.69 746.601 5548.55 700.41 5526.01 659.593C5511.15 632.761 5525.66 597.376 5552.13 595.734L5552.18 595.731Z" fill="#FFDE17"/>
<path d="M5546.5 596.083C5567.2 639.473 5608.55 712.674 5651.16 711.32C5665.24 710.856 5680.34 710.154 5695.09 709.298C5698.24 719.291 5701.22 729.762 5703.95 740.717C5677.48 742.534 5644.5 744.579 5615.55 745.496C5578.72 746.726 5542.82 692.1 5520.39 649.226C5508.58 626.656 5520.9 597.671 5542.82 596.311L5546.5 596.083Z" fill="#FFB31A"/>
<path opacity="0.54" d="M5153.38 959.236L5139.56 960.093L5128.08 774.907C5118.2 742.029 5061.59 585.93 5061.06 584.324L5073.76 577.974C5076.16 584.559 5132.37 739.686 5141.5 770.737L5141.81 771.772L5153.43 959.174L5153.38 959.236Z" fill="#FD8BFF"/>
<path opacity="0.54" d="M4671.23 605.737L4657.41 606.594L4679 954.801L4692.83 953.944L4671.23 605.737Z" fill="#0C6891"/>
<path d="M3988.65 966.637L3990.4 994.75L4213.91 1042.95L5613.91 956.14C5646.3 948.511 5720.5 859.245 5720.5 859.245L3988.65 966.637Z" fill="#58595B"/>
<path d="M5221.35 940.38C5222.19 954.028 5224.09 967.318 5226.88 980.144L5583.03 958.059C5584.26 944.984 5584.45 931.565 5583.6 917.916C5576.15 797.764 5488.82 705.108 5388.97 711.3C5289.12 717.491 5213.9 820.286 5221.35 940.38Z" fill="#0C6891"/>
<path d="M4169.88 1005.58C4170.48 1015.32 4171.61 1024.85 4173.21 1034.18L4213.92 1042.96L4531.51 1023.26C4532.74 1010.19 4532.93 996.768 4532.09 983.119C4524.64 862.967 4437.3 770.311 4337.45 776.503C4237.6 782.694 4162.38 885.489 4169.83 1005.58L4169.88 1005.58Z" fill="#0C6891"/>
<path d="M5552.38 948.691C5559.42 849.505 5498.04 760.393 5415.26 749.656C5332.49 738.918 5259.68 810.62 5252.64 909.807C5245.6 1008.99 5306.98 1098.1 5389.75 1108.84C5472.52 1119.58 5545.33 1047.88 5552.38 948.691Z" fill="#58595B"/>
<path d="M5472.92 1024.51C5515.98 979.016 5519.38 899.36 5480.5 846.588C5441.63 793.816 5375.21 787.912 5332.15 833.402C5289.09 878.891 5285.7 958.548 5324.57 1011.32C5363.44 1064.09 5429.86 1069.99 5472.92 1024.51Z" fill="#A7A9AC"/>
<path d="M5472.34 1003.35C5505.57 957.932 5501.23 887.913 5462.65 846.953C5424.06 805.993 5365.84 809.603 5332.61 855.016C5299.38 900.429 5303.73 970.449 5342.31 1011.41C5380.9 1052.37 5439.11 1048.76 5472.34 1003.35Z" fill="#D1D3D4"/>
<path d="M5390.04 797.883L5400.41 918.791L5390.76 919.389L5367.4 799.287L5390.04 797.883Z" fill="#58595B"/>
<path d="M5422.73 795.856L5414.38 917.924L5404.73 918.523L5400.08 797.26L5422.73 795.856Z" fill="#58595B"/>
<path d="M5504.38 879.32L5412 925.917L5408.36 915.019L5495.74 853.801L5504.38 879.32Z" fill="#58595B"/>
<path d="M5516.79 916.081L5417.31 941.572L5413.62 930.734L5508.2 890.617L5516.79 916.081Z" fill="#58595B"/>
<path d="M5477.67 1033.32L5410.22 941.187L5417.61 933.879L5495 1016.14L5477.67 1033.32Z" fill="#58595B"/>
<path d="M5452.67 1058.05L5399.54 951.742L5406.92 944.434L5470.01 1040.94L5452.67 1058.05Z" fill="#58595B"/>
<path d="M5346.83 1047.05L5397.51 943.498L5405.74 949.838L5366.2 1061.95L5346.83 1047.05Z" fill="#58595B"/>
<path d="M5318.97 1025.54L5385.6 934.345L5393.84 940.685L5338.29 1040.44L5318.97 1025.54Z" fill="#58595B"/>
<path d="M5292.68 901.522L5391.45 929.65L5389.18 940.915L5287.31 927.91L5292.68 901.522Z" fill="#58595B"/>
<path d="M5300.5 863.505L5394.78 913.458L5392.5 924.665L5295.07 889.838L5300.5 863.505Z" fill="#58595B"/>
<path d="M5376.76 930.735C5375.7 913.646 5386.34 899.11 5400.55 898.228C5414.76 897.347 5427.11 910.458 5428.17 927.548C5429.23 944.637 5418.59 959.173 5404.38 960.054C5390.17 960.935 5377.82 947.825 5376.76 930.735Z" fill="#58595B"/>
<path d="M5391.61 929.819C5391.16 922.586 5395.65 916.453 5401.66 916.08C5407.67 915.707 5412.88 921.239 5413.33 928.472C5413.78 935.704 5409.29 941.837 5403.28 942.21C5397.27 942.583 5392.06 937.051 5391.61 929.819Z" fill="#D1D3D4"/>
<path d="M5297.72 935.633C5302.04 1005.22 5352.43 1058.71 5410.29 1055.12C5468.14 1051.53 5511.54 992.225 5507.22 922.642C5502.91 853.059 5452.52 799.565 5394.66 803.153C5336.81 806.741 5293.41 866.05 5297.72 935.633ZM5310.53 934.839C5306.74 873.772 5344.84 821.7 5395.62 818.551C5446.39 815.403 5490.63 862.369 5494.42 923.436C5498.21 984.504 5460.1 1036.58 5409.33 1039.72C5358.56 1042.87 5314.31 995.907 5310.53 934.839Z" fill="#A7A9AC"/>
<path d="M4500.86 1013.55C4507.81 914.351 4446.33 825.328 4363.55 814.712C4280.77 804.095 4208.04 875.906 4201.09 975.106C4194.15 1074.31 4255.63 1163.33 4338.41 1173.95C4421.18 1184.56 4493.92 1112.75 4500.86 1013.55Z" fill="#58595B"/>
<path d="M4399.56 1107.52C4451.03 1076.79 4471.04 1001.19 4444.27 938.659C4417.49 876.13 4354.07 850.351 4302.6 881.08C4251.14 911.81 4231.13 987.41 4257.9 1049.94C4284.67 1112.47 4348.1 1138.25 4399.56 1107.52Z" fill="#A7A9AC"/>
<path d="M4442.09 1013.8C4449.97 953.618 4415.58 896.032 4365.27 885.183C4314.97 874.333 4267.79 914.329 4259.91 974.515C4252.03 1034.7 4286.42 1092.29 4336.73 1103.14C4387.04 1113.99 4434.21 1073.99 4442.09 1013.8Z" fill="#D1D3D4"/>
<path d="M4338.53 863.098L4348.95 984.003L4339.25 984.604L4315.88 864.502L4338.53 863.098Z" fill="#58595B"/>
<path d="M4371.26 861.068L4362.87 983.139L4353.22 983.738L4348.57 862.475L4371.26 861.068Z" fill="#58595B"/>
<path d="M4452.87 944.535L4360.54 991.129L4356.84 980.234L4444.27 919.013L4452.87 944.535Z" fill="#58595B"/>
<path d="M4465.27 981.297L4365.79 1006.79L4362.15 995.947L4456.69 955.833L4465.27 981.297Z" fill="#58595B"/>
<path d="M4426.2 1098.53L4358.71 1006.4L4366.1 999.096L4443.54 1081.36L4426.2 1098.53Z" fill="#58595B"/>
<path d="M4401.15 1123.27L4348.02 1016.96L4355.46 1009.65L4418.49 1106.15L4401.15 1123.27Z" fill="#58595B"/>
<path d="M4295.37 1112.27L4346.01 1008.71L4354.29 1015.05L4314.7 1127.17L4295.37 1112.27Z" fill="#58595B"/>
<path d="M4267.45 1090.76L4334.14 999.557L4342.37 1005.9L4286.78 1105.66L4267.45 1090.76Z" fill="#58595B"/>
<path d="M4241.22 966.734L4339.98 994.862L4337.66 1006.13L4235.8 993.125L4241.22 966.734Z" fill="#58595B"/>
<path d="M4248.99 928.719L4343.31 978.669L4340.99 989.879L4243.61 955.049L4248.99 928.719Z" fill="#58595B"/>
<path d="M4325.3 995.95C4324.24 978.86 4334.88 964.324 4349.08 963.443C4363.29 962.562 4375.64 975.673 4376.7 992.762C4377.76 1009.85 4367.13 1024.39 4352.92 1025.27C4338.71 1026.15 4326.36 1013.04 4325.3 995.95Z" fill="#58595B"/>
<path d="M4340.14 995.02C4339.69 987.788 4344.18 981.654 4350.19 981.281C4356.21 980.909 4361.42 986.44 4361.87 993.673C4362.31 1000.91 4357.83 1007.04 4351.81 1007.41C4345.8 1007.78 4340.59 1002.25 4340.14 995.02Z" fill="#D1D3D4"/>
<path d="M4246.26 1000.85C4250.57 1070.43 4300.96 1123.92 4358.82 1120.34C4416.67 1116.75 4460.07 1057.44 4455.76 987.855C4451.44 918.272 4401.05 864.778 4343.19 868.366C4285.34 871.953 4241.94 931.263 4246.26 1000.85ZM4259.06 1000.05C4255.27 938.985 4293.37 886.913 4344.15 883.764C4394.92 880.616 4439.17 927.581 4442.95 988.649C4446.74 1049.72 4408.64 1101.79 4357.86 1104.94C4307.09 1108.09 4262.85 1061.12 4259.06 1000.05Z" fill="#A7A9AC"/>
<path opacity="0.54" d="M4547.35 941.183C4502.67 770.117 4349.04 761.61 4285.09 765.927C4275.4 766.645 4266.3 762.701 4259.05 755.011C4251.81 747.322 4247.41 736.822 4246.7 725.331L4239.82 614.453L4253.64 613.596L4260.52 724.474C4260.95 731.473 4263.64 737.923 4268.07 742.567C4272.5 747.269 4278.11 749.848 4284.01 749.248C4351.3 744.783 4512.86 753.911 4560.54 936.5L4547.3 941.127L4547.35 941.183Z" fill="#0C6891"/>
<path d="M4171.01 387.218C4160.97 387.841 4154.67 400.117 4158.58 411.351L4216.86 577.943C4228.29 616.229 4259.35 641.295 4292.91 639.214L5162.52 585.29C5161.66 571.525 5155.52 558.849 5145.93 551.012C5113.63 524.619 5058.77 479.95 4959.68 406.642C4908.97 369.094 4857.12 344.732 4803.19 348.076L4171.01 387.277L4171.01 387.218Z" fill="#58595B"/>
<path d="M5078 521.679C5047.04 497.251 5005.73 465.385 4950.67 424.652C4895.87 384.079 4849.41 366.467 4804.55 369.249L4176.54 408.191L4233.35 570.601L4233.53 571.175C4242.2 600.264 4266.08 619.511 4291.58 617.929L5080.98 568.978L5078.05 521.617L5078 521.679Z" fill="#6D6E71"/>
<path d="M4697.8 607.312L4648.32 361.132L4600.55 364.094L4624.58 611.853L4697.8 607.312Z" fill="#58595B"/>
<path opacity="0.1" d="M4397.05 394.517L4336.69 615.132L4291.64 617.925C4274.66 618.978 4258.39 610.853 4246.85 596.639L4300.55 400.502L4397.05 394.517Z" fill="white"/>
<path opacity="0.1" d="M4568.34 383.896L4507.93 604.513L4411.42 610.497L4471.84 389.88L4568.34 383.896Z" fill="white"/>
<path opacity="0.1" d="M4871.91 379.943L4815.67 585.429L4719.17 591.413L4779.53 370.799L4804.56 369.247C4826.38 367.894 4848.55 371.379 4871.91 379.943Z" fill="white"/>
<path opacity="0.1" d="M5014.85 472.771L4986.91 574.801L4890.41 580.785L4936.01 414.191C4940.84 417.463 4945.73 420.966 4950.68 424.641C4974.56 442.306 4995.85 458.375 5014.85 472.771Z" fill="white"/>
<path d="M3999.01 679.92L4007.3 813.662C4066.59 804.892 4057.39 705.224 4053.47 676.543L3999.01 679.92Z" fill="#FF453E"/>
<path d="M4053.47 676.543L4037.66 677.523C4041.24 708.509 4045.24 781.741 4006.64 803.047L4007.31 813.72C4066.59 804.95 4057.39 705.282 4053.47 676.601L4053.47 676.543Z" fill="#E4453E"/>
</svg>
