<svg width="936" height="779" viewBox="0 0 936 779" fill="none" xmlns="http://www.w3.org/2000/svg">
<mask id="mask0_101_38" style="mask-type:luminance" maskUnits="userSpaceOnUse" x="0" y="0" width="936" height="779">
<path d="M589.697 65.4281C558.569 64.4851 528.309 67.5401 499.384 74.1091C462.49 82.4881 424.158 72.5881 394.003 49.7411C350.028 16.4231 294.512 -2.44389 234.483 0.255107C106.315 6.01711 3.06268 111.674 0.0686786 239.936C-2.50532 350.184 67.5377 444.399 165.716 478.21C203.157 491.104 233.133 519.474 248.03 556.164C301.037 686.709 429.068 778.774 578.643 778.774C781.919 778.774 945.488 608.763 934.915 403.174C925.437 218.888 774.142 71.0151 589.697 65.4281Z" fill="white"/>
</mask>
<g mask="url(#mask0_101_38)">
<path d="M880.731 -91.4297H867.516V570.803H880.731V-91.4297Z" fill="#FFFFFE"/>
<path d="M970.835 -91.7354H-373.992V643.872H970.835V-91.7354Z" fill="#D7E2FF"/>
<path d="M656.919 143.863H230.082C230.082 143.863 297.747 82.3126 368.936 119.057C368.936 119.057 419.928 65.2656 455.907 70.6606C491.886 76.0556 510.788 114.549 510.788 114.549C510.788 114.549 640.201 78.2566 656.919 143.863Z" fill="white"/>
<path d="M443.5 348.873H16.6641C16.6641 348.873 84.3291 287.323 155.518 324.067C155.518 324.067 206.51 270.276 242.489 275.671C278.467 281.066 297.37 319.559 297.37 319.559C297.37 319.559 426.783 283.267 443.5 348.873Z" fill="white"/>
<path d="M-377.465 134.124H27.4422C27.4422 134.124 -18.8038 83.9395 -105.074 114.549C-105.074 114.549 -111.203 59.3025 -189.827 72.4675C-189.827 72.4675 -211.552 30.0645 -260.972 31.9685C-310.392 33.8725 -315.568 90.6655 -315.568 90.6655C-315.568 90.6655 -333.253 59.6935 -377.464 83.0155L-377.465 134.124Z" fill="white"/>
<path d="M970.45 245.159H565.543C565.543 245.159 611.789 194.975 698.059 225.584C698.059 225.584 704.188 170.338 782.812 183.503C782.812 183.503 804.537 141.1 853.957 143.004C903.377 144.908 908.553 201.701 908.553 201.701C908.553 201.701 926.238 170.729 970.449 194.051L970.45 245.159Z" fill="white"/>
<g opacity="0.43">
<path d="M466.937 -91.4297H407.637L-39.8086 597.933L-32.9086 602.411H16.5854L466.937 -91.4297Z" fill="#FFFFFE"/>
<path d="M184.605 -91.4297H167.162L-283.191 602.411H-265.747L184.605 -91.4297Z" fill="#FFFFFE"/>
<path d="M145.85 -91.4297H86.5499L-355.996 590.383L-337.465 602.411H-304.502L145.85 -91.4297Z" fill="#FFFFFE"/>
<path d="M868.939 -91.4297H809.638L359.746 601.702L360.838 602.411H418.586L868.939 -91.4297Z" fill="#FFFFFE"/>
<path d="M970.447 -55.2507V-91.4297H895.29L448.703 596.609L457.643 602.411H543.577L970.447 -55.2507Z" fill="#FFFFFE"/>
<path d="M970.449 7.05174V-19.8223L566.574 602.412H584.017L970.449 7.05174Z" fill="#FFFFFE"/>
<path d="M600.106 -90.6787L598.949 -91.4297H501.954L51.6016 602.411H150.241L600.106 -90.6787Z" fill="#FFFFFE"/>
<path d="M791.542 -91.4297H774.098L323.746 602.411H341.189L791.542 -91.4297Z" fill="#FFFFFE"/>
</g>
<path d="M970.448 564.412H-377.465V643.872H970.448V564.412Z" fill="#A2B2EA"/>
<path d="M970.448 581.225H-377.465V583.831H970.448V581.225Z" fill="#91A7E2"/>
<path d="M970.448 614.859H-377.465V617.465H970.448V614.859Z" fill="#91A7E2"/>
<path d="M970.448 560.383H-377.465V581.224H970.448V560.383Z" fill="#FFFFFE"/>
<path d="M275.778 -91.4297H262.562V570.803H275.778V-91.4297Z" fill="#FFFFFE"/>
<path d="M571.75 -91.4297H558.535V570.803H571.75V-91.4297Z" fill="#FFFFFE"/>
<path d="M970.448 285.406H-377.465V296.834H970.448V285.406Z" fill="#FFFFFE"/>
</g>
<path d="M478.1 669.828C730.659 669.828 935.399 655.081 935.399 636.888C935.399 618.696 730.659 603.948 478.1 603.948C225.54 603.948 20.8008 618.696 20.8008 636.888C20.8008 655.081 225.54 669.828 478.1 669.828Z" fill="#91A7E2"/>
<path d="M100.98 231.568C90.8984 232.561 94.1544 244.327 94.1544 259.473C94.1544 274.618 89.3074 267.971 93.7254 286.917C98.1434 305.864 91.7134 300.653 96.4244 319.546C101.135 338.439 98.5004 331.597 100.981 349.81C103.462 368.023 101.135 370.349 103.794 389.13C106.453 407.911 100.47 410.237 103.794 430.513C107.118 450.789 102.873 442.479 104.497 462.423C106.121 482.367 107.752 503.225 107.752 503.225H123.899C123.899 503.225 128.059 484.219 128.724 472.657C129.389 461.094 129.389 458.357 130.054 445.266C130.719 432.175 134.708 424.53 131.55 411.899C128.392 399.268 132.713 399.6 129.722 380.986C126.73 362.372 127.728 350.417 126.398 340.101C125.068 329.785 124.767 319.592 122.726 307.46C120.685 295.328 122.604 291.965 120.844 281.297C119.085 270.63 116.616 266.443 115.358 254.077C114.098 241.711 109.468 230.732 100.98 231.568Z" fill="#678CD6"/>
<path d="M67.6549 296.777C74.9259 296.995 74.4559 311.355 78.1789 323.85C81.9019 336.345 82.8859 332.902 84.2559 351.091C85.6259 369.28 90.9009 370.33 90.8389 389.179C90.7759 408.029 87.3359 409.466 90.6859 423.035C94.0359 436.604 94.3519 438.604 95.5889 450.196C96.8269 461.789 95.4329 461.684 97.7759 472.394C100.119 483.103 100.527 502.834 100.527 502.834L83.6259 502.758C83.6259 502.758 78.0089 489.297 77.4929 475.74C76.9769 462.183 68.0569 443.571 67.0479 431.311C66.0379 419.051 66.0939 406.759 63.7299 394.257C61.3659 381.756 61.3799 378.631 60.9559 365.427C60.5309 352.223 59.1009 347.462 59.1609 334.107C59.2199 320.753 56.1349 296.432 67.6549 296.777Z" fill="#678CD6"/>
<path d="M164.103 296.777C156.832 296.995 157.302 311.355 153.579 323.85C149.856 336.345 148.872 332.902 147.502 351.091C146.132 369.28 140.857 370.33 140.919 389.179C140.981 408.029 144.422 409.466 141.072 423.035C137.722 436.604 137.406 438.604 136.169 450.196C134.931 461.789 136.325 461.684 133.982 472.394C131.639 483.103 131.23 502.834 131.23 502.834L148.131 502.758C148.131 502.758 153.748 489.297 154.264 475.74C154.78 462.183 163.7 443.571 164.71 431.311C165.72 419.051 165.664 406.759 168.028 394.257C170.392 381.756 170.378 378.631 170.802 365.427C171.226 352.223 172.657 347.462 172.597 334.107C172.537 320.753 175.622 296.432 164.103 296.777Z" fill="#678CD6"/>
<path d="M100.98 235.602C100.98 235.602 124.26 381.486 115.356 503.226" stroke="#313F4A" stroke-width="0.5062" stroke-miterlimit="10"/>
<path d="M93.5544 501.314C93.5544 501.314 71.1804 394.33 67.1914 306.496" stroke="#313F4A" stroke-width="0.5062" stroke-miterlimit="10"/>
<path d="M138.207 501.314C138.207 501.314 160.581 394.33 164.57 306.496" stroke="#313F4A" stroke-width="0.5062" stroke-miterlimit="10"/>
<path d="M157.616 552.17H72.1874C68.3474 552.17 65.2344 549.057 65.2344 545.217V498.986H164.568V545.217C164.569 549.058 161.456 552.17 157.616 552.17Z" fill="#15244F"/>
<path d="M65.2344 510.201C72.5254 513.082 84.9634 516.73 96.8124 514.197C115.094 510.289 117.753 513.613 128.057 518.266C136.688 522.164 157.903 528.607 164.568 530.598V498.987H65.2344V510.201Z" fill="#0C193A"/>
<path d="M926.739 528.882C926.739 528.882 926.571 533.503 925.924 540.094C924.403 555.598 920.322 581.957 909.828 584.722C909.828 584.722 888.158 589.947 883.909 587.46C883.909 587.46 883.979 513.98 823.386 496.466C787.497 486.124 718.268 487.247 710.44 594.294C710.44 594.294 303.262 593.617 275.85 598.704C275.85 598.704 265.118 597.01 266.956 580.306C266.956 580.306 267.071 576.718 266.549 570.931C264.671 548.652 253.871 493.611 194.133 482.323C194.133 482.323 108.465 464.638 92.538 560.832C91.797 565.353 91.195 570.107 90.816 575.125C90.351 580.112 90.11 585.363 90.035 590.877C90.035 590.877 57.518 599.202 43.786 588.473C43.786 588.473 9.98 589.442 9.334 587.645L7.75 578.242C7.75 578.242 8.076 577.848 8.61 577.143C11.544 573.393 20.368 561.195 12.487 560.431C12.487 560.431 5.571 532.63 9.05 502.609C12.851 469.952 28.923 434.689 79.548 429.528C79.548 429.528 201.231 402.088 234.323 384.182C294.483 351.616 396.157 284.167 547.566 289.241C612.951 291.444 720.68 287.655 808.496 309.155C808.496 309.155 812.682 314.283 814.663 321.512C814.663 321.512 876.53 384.07 880.102 387.23C883.084 389.858 885.98 392.456 888.704 395.078C892.973 399.144 896.868 403.231 900.125 407.561C910.538 421.313 914.691 437.384 904.647 462.049C904.645 462.051 933.015 506.77 926.739 528.882Z" fill="#EF3E38"/>
<path d="M111.02 594.265L90.035 590.878C90.035 590.878 79.667 484.351 175.516 480.43C211.982 478.938 274.105 501.95 267.591 593.717C267.591 593.717 259.792 609.449 243.206 612.282C243.206 612.282 288.772 529.113 196.6 499.609C164.081 489.2 100.966 514.548 111.02 594.265Z" fill="#15244F"/>
<path d="M723.4 592.939L709.972 593.933C709.972 593.933 700.536 498.58 791.956 489.496C828.273 485.887 889.601 515.062 883.912 587.459C883.912 587.459 882.419 580.242 871.558 583.93C871.558 583.93 870.978 533.286 816.298 512.582C784.364 500.492 723.018 514.172 723.4 592.939Z" fill="#15244F"/>
<path d="M257.648 571.481C258.626 530.737 225.322 496.889 183.262 495.879C141.201 494.869 106.312 527.081 105.334 567.825C104.355 608.569 137.659 642.417 179.72 643.427C221.78 644.437 256.67 612.226 257.648 571.481Z" fill="#0C193A"/>
<path d="M233.901 572.511C233.181 602.489 207.98 626.2 177.613 625.47C147.246 624.74 123.213 599.847 123.934 569.869C124.654 539.891 149.855 516.18 180.222 516.91C210.588 517.639 234.621 542.533 233.901 572.511Z" fill="#D7E2FF"/>
<path d="M217.527 570.64C217.021 591.7 199.684 608.365 178.804 607.864C157.924 607.362 141.408 589.883 141.914 568.824C142.42 547.765 159.757 531.099 180.637 531.601C201.516 532.102 218.033 549.581 217.527 570.64Z" fill="#0C193A"/>
<path d="M226.323 579.555L227.556 565.107L197.844 564.224C197.671 563.687 197.478 563.159 197.257 562.645L220.124 544.833L210.847 533.688L189.259 553.782C188.767 553.505 188.258 553.253 187.74 553.018L191.716 523.611L177.261 522.467L175.9 551.686C175.154 551.835 174.427 552.03 173.715 552.261L155.024 529.139L144.269 538.865L164.057 559.368C163.173 560.634 162.445 562.01 161.906 563.477L132.613 561.583L132.48 576.083L161.777 575.401C161.933 575.858 162.101 576.31 162.293 576.751L139.551 596.485L149.647 606.894L170.271 585.549C171.067 585.997 171.909 586.374 172.774 586.708L167.25 615.839L181.577 618.077L184.874 587.355C185.431 587.205 185.975 587.026 186.51 586.829L186.177 587.089L203.833 611.466L215.295 602.584L195.546 579.823C196.329 578.682 196.98 577.453 197.486 576.15L226.323 579.555Z" fill="#D7E2FF"/>
<path d="M176.056 560.041C176.001 562.32 174.109 564.123 171.83 564.069C169.55 564.014 167.747 562.122 167.802 559.843C167.857 557.564 169.749 555.76 172.028 555.815C174.307 555.869 176.111 557.761 176.056 560.041Z" fill="#A2B2EA"/>
<path d="M193.775 562.441C193.72 564.72 191.828 566.524 189.549 566.469C187.269 566.414 185.466 564.522 185.521 562.243C185.576 559.964 187.468 558.16 189.747 558.215C192.026 558.27 193.829 560.162 193.775 562.441Z" fill="#A2B2EA"/>
<path d="M191.017 579.969C190.962 582.248 189.07 584.052 186.791 583.997C184.512 583.942 182.708 582.05 182.763 579.77C182.818 577.491 184.71 575.688 186.989 575.742C189.269 575.797 191.072 577.689 191.017 579.969Z" fill="#A2B2EA"/>
<path d="M173.122 577.565C173.067 579.845 171.175 581.648 168.896 581.593C166.617 581.538 164.813 579.646 164.868 577.367C164.923 575.087 166.815 573.284 169.094 573.339C171.373 573.393 173.177 575.285 173.122 577.565Z" fill="#A2B2EA"/>
<path d="M874.141 579.14C873.162 619.884 838.272 652.095 796.211 651.085C754.15 650.075 720.847 616.225 721.826 575.481C722.805 534.736 757.695 502.525 799.756 503.536C841.817 504.546 875.12 538.396 874.141 579.14Z" fill="#0C193A"/>
<path d="M850.37 580.14C849.65 610.118 824.449 633.829 794.082 633.099C763.716 632.37 739.682 607.476 740.403 577.498C741.123 547.52 766.324 523.81 796.691 524.539C827.057 525.269 851.09 550.162 850.37 580.14Z" fill="#D7E2FF"/>
<path d="M833.998 578.27C833.492 599.33 816.156 615.995 795.276 615.494C774.396 614.992 757.879 597.514 758.386 576.454C758.892 555.394 776.228 538.729 797.108 539.23C817.987 539.731 834.504 557.21 833.998 578.27Z" fill="#0C193A"/>
<path d="M842.792 587.184L844.025 572.736L814.312 571.853C814.14 571.316 813.946 570.789 813.725 570.274L836.592 552.463L827.315 541.318L805.727 561.412C805.235 561.134 804.727 560.882 804.208 560.648L808.184 531.241L793.729 530.097L792.368 559.316C791.622 559.465 790.895 559.66 790.183 559.891L771.492 536.769L760.737 546.495L780.526 566.998C779.641 568.263 778.914 569.64 778.375 571.107L749.082 569.212L748.949 583.712L778.246 583.03C778.402 583.487 778.57 583.939 778.762 584.38L756.02 604.114L766.116 614.523L786.74 593.178C787.536 593.626 788.378 594.003 789.243 594.337L783.719 623.468L798.046 625.706L801.343 594.984C801.9 594.834 802.444 594.655 802.979 594.458L802.646 594.718L820.301 619.095L831.763 610.213L812.014 587.453C812.797 586.312 813.448 585.083 813.955 583.779L842.792 587.184Z" fill="#D7E2FF"/>
<path d="M792.529 567.67C792.474 569.949 790.582 571.753 788.303 571.698C786.024 571.643 784.22 569.751 784.275 567.472C784.33 565.192 786.222 563.389 788.501 563.444C790.78 563.498 792.584 565.39 792.529 567.67Z" fill="#A2B2EA"/>
<path d="M810.247 570.07C810.193 572.349 808.3 574.153 806.021 574.098C803.742 574.043 801.939 572.151 801.993 569.872C802.047 567.593 803.94 565.79 806.219 565.844C808.498 565.899 810.301 567.791 810.247 570.07Z" fill="#A2B2EA"/>
<path d="M807.49 587.598C807.436 589.877 805.544 591.681 803.264 591.626C800.985 591.571 799.182 589.679 799.236 587.4C799.291 585.12 801.183 583.317 803.462 583.372C805.742 583.427 807.545 585.319 807.49 587.598Z" fill="#A2B2EA"/>
<path d="M789.595 585.194C789.54 587.473 787.648 589.276 785.369 589.222C783.09 589.167 781.286 587.275 781.341 584.996C781.396 582.717 783.288 580.913 785.567 580.968C787.847 581.023 789.65 582.915 789.595 585.194Z" fill="#A2B2EA"/>
<path d="M888.704 395.081C888.646 395.08 888.589 395.107 888.531 395.105C879.424 396.323 846.081 388.828 846.081 388.828C827.47 388.668 805.285 389.026 780.476 389.78C641.797 394.061 420.686 411.069 277.258 422.934C194.332 429.847 137.359 434.999 137.359 434.999C96.4068 465.614 9.33478 502.762 9.33478 502.762L9.05078 502.612C12.8518 469.955 28.9238 434.692 79.5488 429.531C79.5488 429.531 100.72 424.754 127.83 417.879C165.663 408.303 215.028 394.609 234.323 384.185C294.483 351.619 396.157 284.17 547.566 289.244C612.951 291.447 720.68 287.658 808.496 309.158C808.496 309.158 812.682 314.286 814.663 321.515C814.663 321.515 814.663 321.515 814.691 321.545C816.234 323.104 868.902 376.364 878.699 385.878C879.4 386.584 879.878 387.026 880.103 387.233C883.085 389.861 885.981 392.458 888.704 395.081Z" fill="#DB221E"/>
<path d="M533.342 432.892C533.194 439.036 520.221 443.708 504.365 443.327C488.509 442.946 475.775 437.656 475.923 431.512C476.071 425.368 489.044 420.696 504.9 421.077C520.755 421.458 533.489 426.748 533.342 432.892Z" fill="#F45E55"/>
<path d="M760.655 417.288C760.507 423.432 747.534 428.104 731.678 427.723C715.822 427.342 703.088 422.052 703.236 415.908C703.383 409.764 716.357 405.092 732.213 405.473C748.068 405.854 760.803 411.144 760.655 417.288Z" fill="#F45E55"/>
<path d="M847.567 446.545C847.323 456.719 838.877 464.769 828.703 464.525C818.528 464.28 810.479 455.834 810.724 445.66C810.968 435.486 819.414 427.436 829.588 427.681C839.762 427.925 847.812 436.371 847.567 446.545Z" fill="#F45E55"/>
<path d="M281.961 374.308C281.961 374.308 194.648 421.524 231.492 422.409L277.259 422.934C277.259 422.934 274.744 395.679 281.961 374.308Z" fill="#EF3E38"/>
<path d="M904.646 462.051C889.297 463.607 840.573 418.37 840.573 418.37C822.004 394.943 898.291 407.318 898.291 407.318L900.124 407.563C910.537 421.315 914.689 437.387 904.646 462.051Z" fill="white"/>
<path d="M364.206 336.992C386.333 328.712 480.208 295.539 542.752 303.978C544.78 304.252 546.122 306.219 545.693 308.22C542.672 322.308 531.656 373.077 525.208 394.713C524.049 398.601 520.616 401.356 516.572 401.666L356.652 413.924L346.723 388.789L357.805 343.638C358.831 340.568 361.174 338.127 364.206 336.992Z" fill="#D7E2FF"/>
<path d="M364.206 336.992C386.333 328.712 480.208 295.539 542.752 303.978C544.78 304.252 546.122 306.219 545.693 308.22C542.672 322.308 531.656 373.077 525.208 394.713C524.049 398.601 520.616 401.356 516.572 401.666L356.652 413.924L346.723 388.789L357.805 343.638C358.831 340.568 361.174 338.127 364.206 336.992Z" fill="#D7E2FF"/>
<path d="M364.206 336.992C386.333 328.712 480.208 295.539 542.752 303.978C544.78 304.252 546.122 306.219 545.693 308.22C542.672 322.308 531.656 373.077 525.208 394.713C524.049 398.601 520.616 401.356 516.572 401.666L356.652 413.924L346.723 388.789L357.805 343.638C358.831 340.568 361.174 338.127 364.206 336.992Z" fill="#D7E2FF"/>
<path d="M364.206 336.992C386.333 328.712 480.208 295.539 542.752 303.978C544.78 304.252 546.122 306.219 545.693 308.22C542.672 322.308 531.656 373.077 525.208 394.713C524.049 398.601 520.616 401.356 516.572 401.666L356.652 413.924L346.723 388.789L357.805 343.638C358.831 340.568 361.174 338.127 364.206 336.992Z" fill="#D7E2FF"/>
<path d="M90.816 575.128C90.351 580.115 90.11 585.366 90.035 590.88C90.035 590.88 57.518 599.205 43.786 588.476C43.786 588.476 9.98 589.445 9.334 587.648L7.75 578.245C7.75 578.245 77.767 577.802 89.319 575.207C89.84 575.076 90.357 575.059 90.816 575.128Z" fill="#F45E55"/>
<path d="M41.0154 568.646C41.0154 568.646 18.7144 578.595 8.60938 577.146C11.5434 573.396 20.3684 561.198 12.4864 560.434C12.4864 560.434 20.9144 508.556 42.5504 504.767C42.5504 504.767 58.5054 567.629 41.0154 568.646Z" fill="#F45E55"/>
<path d="M41.0162 568.646C36.5492 554.894 42.5512 504.767 42.5512 504.767C42.5512 504.767 58.5062 567.629 41.0162 568.646Z" fill="#F45E55"/>
<path d="M715.732 513.987C706.143 513.757 700.884 493.522 700.884 493.522C702.343 473.448 682.244 477.56 674.512 475.653C549.813 444.898 330.019 481.301 283.371 483.089C279.533 483.236 247.059 496.476 247.098 497.176C225.697 472.774 192.05 466.482 171.03 468.354C81.0126 476.368 91.7196 560.297 91.7196 560.297C91.7196 560.297 92.0026 560.476 92.5396 560.834C108.467 464.639 194.135 482.325 194.135 482.325C243.234 491.634 267.381 532.79 266.551 570.933C266.701 569.472 309.18 576.927 313.743 575.916L540.604 576.713L664.891 577.171C664.891 577.171 685.11 580.932 695.713 553.322C696.232 552.042 696.696 550.674 697.162 549.22C697.162 549.22 705.533 533.191 717.076 517.841C717.078 515.37 716.65 514.009 715.732 513.987Z" fill="#DB221E"/>
<path d="M315.453 564.467C315.453 564.467 494.539 523.526 636.921 545.618L315.453 564.467Z" fill="#F45E55"/>
<path d="M65.0352 476.939C65.0352 476.939 131.916 511.701 232.808 417.413L137.359 434.999C137.359 434.999 97.0122 461.19 65.0352 476.939Z" fill="#EF3E38"/>
<path d="M878.699 385.878C877.845 385.57 876.935 385.175 875.997 384.75C829.475 363.84 815.121 322.819 814.691 321.544C816.234 323.104 868.902 376.364 878.699 385.878Z" fill="#F45E55"/>
<path d="M728.367 296.46C728.367 296.46 741.317 285.52 743.866 298.987L728.367 296.46Z" fill="#111111"/>
<path d="M758.543 270.81L757.453 270.021L739.917 294.259L741.007 295.047L758.543 270.81Z" fill="#111111"/>
<path d="M925.924 540.093C924.403 555.597 920.322 581.956 909.828 584.721C909.828 584.721 888.158 589.947 883.909 587.46C883.909 587.46 883.979 513.979 823.386 496.465C787.497 486.123 718.268 487.247 710.44 594.294C710.44 594.294 303.262 593.616 275.85 598.703C275.85 598.703 265.118 597.01 266.956 580.306C266.956 580.306 267.013 575.539 266.492 569.752C266.492 569.752 632.32 525.541 695.712 553.32C695.712 553.32 729.335 465.479 817.944 483.895C817.944 483.895 853.01 489.046 876.654 521.213C876.654 521.213 907.614 547.809 925.03 540.328C925.348 540.195 925.637 540.115 925.924 540.093Z" fill="#F45E55"/>
<path d="M143.404 425.621C143.404 425.621 235.258 405.144 259.391 387.052C259.391 387.052 201.076 423.092 231.231 420.354C399.191 405.108 781.212 388.522 781.274 389.411C782.664 409.385 135.852 435.205 135.852 435.205C135.852 435.205 145.825 432.078 143.404 425.621Z" fill="#F45E55"/>
<path d="M808.494 309.157C808.494 309.157 783.829 313.636 777.632 318.567C776.012 319.856 773.894 320.27 771.898 319.72C758.084 315.915 713.412 304.348 666.992 300.251C666.992 300.251 744.571 299.482 808.494 309.157Z" fill="#F45E55"/>
<path d="M137.339 434.983L136.456 435.907C136.126 436.291 135.795 436.637 135.426 436.984C96.5562 476.907 38.2762 474.149 38.2762 474.149C38.2762 474.149 37.2901 455.418 54.4021 441.025C59.2801 436.886 65.5971 433.129 73.8181 430.271C75.3121 429.71 76.8832 429.223 78.4922 428.773C78.4922 428.773 100.733 424.771 127.842 417.874L128.184 418.017C128.184 418.017 156.771 424.944 137.339 434.983Z" fill="white"/>
<path d="M695.71 553.321C685.107 580.931 664.888 577.17 664.888 577.17L540.601 576.712L313.741 575.915C309.178 576.926 305.321 577.235 302.079 577.042L289.531 567.254C289.531 567.254 613.888 525.314 693.713 552.727C694.385 552.958 695.082 553.133 695.71 553.321Z" fill="#F45E55"/>
<path d="M667.702 578.692C665.833 578.734 664.687 578.54 664.638 578.531L313.891 577.3C309.524 578.256 305.521 578.633 301.998 578.425C295.878 578.073 291.195 575.94 288.084 572.088C283.259 566.113 283.849 557.997 284.073 556.052C275.945 537.616 271.431 514.829 270.655 488.315C269.626 452.801 275.786 422.803 275.849 422.504L276.035 421.612L276.927 421.43C306.069 415.45 440.206 406.623 547.599 400.269C665.966 393.26 779.524 387.598 780.657 387.54L781.841 387.481L782.081 388.642C796.274 456.6 744.355 493.641 743.83 494.007L743.678 494.1C736.038 498.066 727.461 506.333 718.183 518.673C706.844 533.746 698.47 549.701 698.387 549.859C698.004 551.131 697.527 552.528 696.996 553.841C688.599 575.704 674.02 578.551 667.702 578.692ZM313.593 574.53L313.747 574.529L664.895 575.784C665.922 575.953 684.385 578.943 694.418 552.825C694.933 551.552 695.385 550.216 695.84 548.796C696.015 548.416 704.489 532.27 715.969 517.007C725.463 504.378 734.326 495.86 742.313 491.684C744.406 490.176 792.371 454.658 779.605 390.367C767.16 390.99 659.606 396.411 547.763 403.036C441.533 409.318 309.143 418.022 278.383 423.965C277.382 429.181 272.503 456.476 273.423 488.237C274.194 514.559 278.683 537.117 286.762 555.283L286.927 555.655L286.864 556.057C286.851 556.144 285.616 564.642 290.249 570.362C292.849 573.573 296.856 575.355 302.159 575.661C305.472 575.855 309.268 575.491 313.441 574.563L313.593 574.53Z" fill="#F45E55"/>
<path d="M538.715 575.438C525.78 545.671 544.808 408.339 545.624 402.508L548.366 402.89C548.168 404.312 528.628 545.277 541.255 574.336L538.715 575.438Z" fill="#F45E55"/>
<path d="M780.727 388.924C780.721 389.182 780.657 389.468 780.477 389.78C715.766 391.787 633.092 396.552 548.73 402.252C452.339 408.813 353.765 416.613 277.259 422.934L277.205 422.789C277.205 422.789 274.504 371.391 292.644 362.462C292.644 362.462 416.361 288.62 569.679 295.521C620.01 297.793 763.486 299.459 768.544 328.077C768.544 328.077 780.756 378.153 780.727 388.924Z" fill="#0C193A"/>
<path d="M588.444 311.163C584.894 331.872 574.175 394.847 574.374 399.048L726.788 392.177C726.788 392.177 756.261 352.794 749.203 326.047C748.34 322.78 647.903 304.642 596.389 304.515C592.466 304.505 589.107 307.297 588.444 311.163Z" fill="#D7E2FF"/>
<path d="M300.267 369.482C309.805 361.316 333.052 351.484 345.086 346.821C346.954 346.097 348.892 347.66 348.568 349.637C346.811 360.332 341.779 389.591 338.998 391.478C338.998 391.478 308.623 400.324 296.822 393.337C296.822 393.337 293.504 375.272 300.267 369.482Z" fill="#D7E2FF"/>
<path d="M341.292 375.733C341.292 375.733 353.671 398.533 342.424 408.317C342.424 408.317 309.27 413.266 308.375 390.742C308.375 390.742 310.293 370.679 341.292 375.733Z" fill="#15244F"/>
<mask id="mask1_101_38" style="mask-type:luminance" maskUnits="userSpaceOnUse" x="574" y="304" width="177" height="96">
<path d="M588.444 311.163C584.894 331.872 574.175 394.847 574.374 399.048L726.788 392.177C726.788 392.177 756.261 352.794 749.203 326.047C748.34 322.78 647.903 304.642 596.389 304.515C592.466 304.505 589.107 307.297 588.444 311.163Z" fill="white"/>
</mask>
<g mask="url(#mask1_101_38)">
<g opacity="0.57">
<path d="M704.107 290.985L692.887 281.406L589.945 401.994L601.165 411.573L704.107 290.985Z" fill="white"/>
<path d="M747.71 311.376L722.684 290.012L619.742 410.6L644.768 431.964L747.71 311.376Z" fill="white"/>
</g>
</g>
<path d="M364.206 336.992C386.333 328.712 480.208 295.539 542.752 303.978C544.78 304.252 546.122 306.219 545.693 308.22C542.672 322.308 531.656 373.077 525.208 394.713C524.049 398.601 520.616 401.356 516.572 401.666L356.652 413.924L346.723 388.789L357.805 343.638C358.831 340.568 361.174 338.127 364.206 336.992Z" fill="#D7E2FF"/>
<mask id="mask2_101_38" style="mask-type:luminance" maskUnits="userSpaceOnUse" x="346" y="302" width="200" height="112">
<path d="M364.206 336.992C386.333 328.712 480.208 295.539 542.752 303.978C544.78 304.252 546.122 306.219 545.693 308.22C542.672 322.308 531.656 373.077 525.208 394.713C524.049 398.601 520.616 401.356 516.572 401.666L356.652 413.924L346.723 388.789L357.805 343.638C358.831 340.568 361.174 338.127 364.206 336.992Z" fill="white"/>
</mask>
<g mask="url(#mask2_101_38)">
<g opacity="0.56">
<path d="M494.799 287.268L484.285 279.213L367.153 432.09L377.666 440.146L494.799 287.268Z" fill="white"/>
<path d="M559.016 308.684L518.055 277.301L400.921 430.179L441.882 461.562L559.016 308.684Z" fill="white"/>
</g>
</g>
<path d="M361.757 625.417C361.757 625.417 358.495 634.659 359.401 643.901C359.401 643.901 367.375 646.619 374.442 646.619C381.51 646.619 395.826 649.7 397.457 646.619C399.088 643.538 376.617 633.571 374.442 632.484C372.267 631.397 371.542 627.512 371.542 627.512L361.757 625.417Z" fill="#1F282E"/>
<path d="M230.686 612.664C230.686 612.664 224.768 620.476 222.82 629.556C222.82 629.556 229.59 634.571 236.322 636.72C243.054 638.869 255.756 646.158 258.247 643.72C260.738 641.281 242.362 624.952 240.621 623.255C238.88 621.558 239.371 617.637 239.371 617.637L230.686 612.664Z" fill="#1F282E"/>
<path d="M318.262 390.717C318.262 390.717 325.279 469.235 327.811 489.153C330.343 509.072 339.042 562.775 341.941 577.242C344.841 591.709 354.506 627.511 354.506 627.511L380.602 629.886C380.602 629.886 374.085 550.632 373.477 530.818C372.869 511.004 372.386 432.717 370.936 416.286C369.486 399.855 365.197 344.764 365.197 344.764L322.127 329.3L273.801 333.792C273.801 333.792 256.887 390.19 251.571 426.917C246.255 463.645 242.872 496.989 242.872 496.989C242.872 496.989 227.408 595.09 226.441 613.454L247.704 621.186C247.704 621.186 277.666 540.965 285.398 511.003C293.133 481.043 318.262 390.717 318.262 390.717Z" fill="#15244F"/>
<path d="M254.613 409.531C261.536 374.704 273.803 333.793 273.803 333.793L322.129 329.301L365.199 344.765C365.199 344.765 367.441 373.562 369.231 395.726C365.597 398.233 359.495 401.395 350.383 402.958C335.549 405.501 332.823 406.516 319.865 408.417C318.903 397.889 318.262 390.718 318.262 390.718C318.262 390.718 316.21 398.095 313.103 409.311C297.982 410.739 269.276 408.103 254.613 409.531Z" fill="#0C193A"/>
<path d="M360.301 628.621L361.444 628.257C358.902 620.281 354.328 591.561 350.291 566.222C347.395 548.039 344.893 532.337 343.494 526.333C341.859 519.323 340.798 506.022 339.673 491.94C338.492 477.151 337.272 461.859 335.277 452.885C331.466 435.725 328.554 403.51 328.525 403.187L327.328 403.293C327.357 403.617 330.277 435.909 334.106 453.146C336.082 462.037 337.297 477.288 338.475 492.036C339.603 506.165 340.666 519.509 342.323 526.607C343.714 532.566 346.333 549.006 349.104 566.41C353.151 591.791 357.732 620.558 360.301 628.621Z" fill="#0C193A"/>
<path d="M231.872 616.025C234.374 592.622 243.307 550.379 249.218 522.425C252.566 506.581 254.989 495.133 255.209 492.203C257.812 457.921 268.005 403.892 268.109 403.351L266.928 403.128C266.827 403.67 256.621 457.765 254.012 492.113C253.797 494.964 251.257 506.973 248.042 522.177C242.125 550.155 233.185 592.435 230.68 615.898L231.872 616.025Z" fill="#0C193A"/>
<path d="M525.475 257.497C525.475 257.497 533.797 258.343 537.421 257.416C541.045 256.489 544.791 255.509 550.227 256.113C555.663 256.717 565.812 259.711 564.966 260.798C564.12 261.885 557.717 261.281 557.717 261.281C557.717 261.281 556.509 264.301 553.489 264.543C550.469 264.785 548.712 267.805 545.241 267.684C541.77 267.563 537.3 264.18 537.3 264.18L521.836 266.476L525.475 257.497Z" fill="#5E4A3A"/>
<path d="M405.732 218.896C416.847 223.95 422.172 232.407 422.172 232.407L459.373 252.723L527.754 255.603C527.754 255.603 528.479 258.159 526.063 271.62C526.063 271.62 491.447 282.615 470.578 285.54C449.709 288.465 435.703 287.74 422.047 282.907C408.391 278.074 394.134 271.62 394.134 271.62L384.348 268.409L405.732 218.896Z" fill="#3E60B5"/>
<path d="M394.134 271.62L384.348 268.409L400.912 230.056L404.614 228.866C404.614 228.866 405.974 238.447 405.732 249.32C405.49 260.193 412.014 266.373 416.122 271.62C419.877 276.415 445.969 279.923 454.225 287.107C441.759 287.675 431.791 286.355 422.047 282.907C408.39 278.074 394.134 271.62 394.134 271.62Z" fill="#314FA5"/>
<path d="M384.346 153.758C386.158 159.919 385.554 166.927 388.091 169.947C390.628 172.967 388.453 187.344 386.883 188.915C385.312 190.486 374.802 187.949 374.802 187.949L365.983 214.166C365.983 214.166 347.378 216.945 339.766 200.756L353.66 179.493C353.66 179.493 356.227 174.268 354.687 167.291C353.147 160.314 356.499 151.706 360.667 149.803C364.835 147.898 384.346 153.758 384.346 153.758Z" fill="#5E4A3A"/>
<path d="M358.982 174.538C358.982 174.538 361.996 179.249 363.688 181.062C368.656 186.385 374.803 187.949 374.803 187.949L372.4 195.092C372.4 195.092 366.724 195.092 364.512 189.399C362.561 184.377 360.388 183.123 359.573 180.133C358.757 177.142 358.982 174.538 358.982 174.538Z" fill="#453629"/>
<path d="M369.006 209.975C369.006 209.975 350.884 216.46 338.561 196.888C338.561 196.888 322.697 293.02 328.092 308.261C333.487 323.502 369.248 232.244 369.006 209.975Z" fill="#0C193A"/>
<path d="M344.755 193.123C344.755 193.123 342.91 194.956 339.769 208.245C336.628 221.535 332.037 276.143 330.587 297.889C330.587 297.889 337.419 287.257 344.755 271.31C352.092 255.362 365.985 214.165 365.985 214.165L369.64 203.301C369.64 203.301 381.57 207.84 386.161 209.976C390.752 212.112 405.733 218.898 405.733 218.898C405.733 218.898 404.766 235.792 399.209 251.256C393.652 266.72 387.852 271.026 383.02 284.216C378.187 297.407 373.113 316.012 366.831 328.093C366.831 328.093 372.63 352.739 373.596 363.612C374.563 374.485 374.321 382.218 374.321 382.218C374.321 382.218 360.469 392.543 338.318 390.433C333.244 389.95 332.761 388.983 331.794 380.285C330.828 371.586 326.237 339.208 326.237 339.208C326.237 339.208 320.921 357.33 316.814 366.995C312.706 376.66 313.431 381.976 307.149 383.909C300.867 385.842 264.622 376.66 255.924 361.438L272.355 320.12L277.429 300.065L279.845 257.055C279.845 257.055 264.139 280.976 250.608 290.883C237.077 300.79 218.713 294.991 214.364 288.225C210.015 281.459 208.09 272.754 208.09 272.754C208.09 272.754 237.319 243.281 242.393 236.516C247.467 229.751 256.547 216.917 265.348 207.279C272.399 199.557 281.839 190.625 302.317 190.969C318.328 191.237 344.755 193.123 344.755 193.123Z" fill="#3E60B5"/>
<path d="M327.812 295.561C327.889 295.561 327.966 295.551 328.046 295.527C328.477 295.399 328.721 294.945 328.591 294.514L316.297 253.371L328.325 243.605C328.567 243.408 328.676 243.093 328.604 242.79L321.336 211.669L339.102 195.696C339.434 195.395 339.464 194.881 339.163 194.547C338.86 194.212 338.349 194.185 338.012 194.486L319.889 210.78C319.668 210.978 319.575 211.281 319.642 211.57L326.902 242.663L314.848 252.45C314.593 252.657 314.486 252.999 314.582 253.314L327.033 294.978C327.137 295.333 327.461 295.561 327.812 295.561Z" fill="#15244F"/>
<path d="M277.427 300.064L279.843 257.054C279.843 257.054 296.744 238.06 299.657 228.542C303.04 217.487 299.657 207.52 299.657 207.52C303.281 209.936 304.731 220.568 305.428 227.334C306.125 234.1 302.799 234.1 304.248 243.04C305.698 251.98 305.939 259.229 304.248 270.102C302.556 280.975 306.181 305.138 301.348 310.532C296.515 315.926 271.773 321.577 271.773 321.577L272.353 320.119L277.427 300.064Z" fill="#314FA5"/>
<path d="M214.364 288.223C210.015 281.457 208.09 272.752 208.09 272.752C208.09 272.752 210.863 269.955 214.844 265.893C217.306 264.118 220.326 262.427 223.919 261.254C235.546 257.458 237.918 261.966 249.07 256.983C258.46 252.787 272.186 259.844 276.299 262.184C270.902 269.766 260.22 283.842 250.608 290.88C237.077 300.788 218.713 294.988 214.364 288.223Z" fill="#314FA5"/>
<path d="M247.735 299.375L295.473 316.582L318.497 252.704L270.759 235.497L247.735 299.375Z" fill="#F8F8F8"/>
<path d="M310.972 273.602L260.005 265.363L247.734 299.409L269.274 307.173L302.988 295.755L310.972 273.602Z" fill="#DBDBDB"/>
<path d="M326.235 340.021C326.278 340.021 326.32 340.018 326.363 340.01C326.807 339.94 327.11 339.522 327.038 339.078C327.022 338.977 325.432 328.912 325.958 323.249C326.49 317.544 331.324 298.28 331.375 298.086C331.484 297.651 331.221 297.208 330.785 297.099C330.344 296.981 329.907 297.253 329.796 297.689C329.597 298.485 324.882 317.268 324.337 323.097C323.792 328.967 325.366 338.914 325.433 339.336C325.496 339.737 325.842 340.021 326.235 340.021Z" fill="#15244F"/>
<path d="M365.2 326.127C365.394 326.127 365.588 326.058 365.742 325.92C366.077 325.62 366.106 325.105 365.806 324.771L358.014 316.073C357.711 315.738 357.198 315.713 356.865 316.009C356.53 316.309 356.501 316.824 356.801 317.158L364.593 325.856C364.756 326.035 364.976 326.127 365.2 326.127Z" fill="#15244F"/>
<path d="M364.111 328.483C364.427 328.483 364.725 328.298 364.858 327.99C365.036 327.576 364.845 327.099 364.433 326.922C364.433 326.922 363.162 326.377 358.806 324.562C354.533 322.783 352.804 321.57 351.953 319.755C351.762 319.347 351.275 319.177 350.871 319.364C350.464 319.555 350.289 320.039 350.48 320.446C351.517 322.658 353.533 324.128 358.179 326.064C362.516 327.871 363.787 328.415 363.79 328.416C363.896 328.462 364.005 328.483 364.111 328.483Z" fill="#15244F"/>
<path d="M368.247 363.814C369.265 363.814 370.311 363.771 371.382 363.688C371.829 363.653 372.164 363.261 372.129 362.813C372.094 362.365 371.717 362.038 371.254 362.066C363.204 362.702 356.844 360.856 352.315 356.597C345.755 350.434 344.938 340.896 344.837 338.341C351.966 337.037 366.629 339.276 366.781 339.3C367.246 339.373 367.643 339.062 367.709 338.619C367.778 338.175 367.475 337.76 367.031 337.691C366.379 337.59 350.972 335.234 343.826 336.888C343.462 336.972 343.204 337.292 343.196 337.666C343.188 338.173 343.074 350.138 351.19 357.774C355.456 361.787 361.187 363.814 368.247 363.814Z" fill="#15244F"/>
<path d="M278.025 355.173C279.913 355.173 281.931 355.024 284.061 354.669C297.214 352.476 299.461 336.595 299.482 336.435C299.538 336.014 299.261 335.621 298.846 335.532C290.746 333.811 272.66 325.515 272.48 325.431C272.065 325.245 271.589 325.423 271.4 325.83C271.211 326.238 271.392 326.722 271.799 326.91C272.525 327.244 289.19 334.888 297.74 336.95C297.142 339.96 294.206 351.33 283.795 353.064C271.563 355.1 262.981 349.873 262.893 349.821C262.521 349.583 262.013 349.696 261.773 350.08C261.534 350.462 261.651 350.963 262.031 351.201C262.339 351.391 268.516 355.171 278.025 355.173Z" fill="#15244F"/>
<path d="M275.253 278.921C275.253 278.921 289.992 279.163 292.529 278.921C295.066 278.679 299.899 273.484 303.282 273.605C306.665 273.726 299.658 276.263 300.02 278.437C300.382 280.612 307.148 280.129 309.323 280.008C311.498 279.887 311.739 282.666 309.323 283.391C309.323 283.391 310.29 285.082 308.598 286.532C308.598 286.532 308.598 288.707 306.665 289.915C306.665 289.915 307.648 291.606 305.526 292.09C303.403 292.573 297.967 288.828 292.651 288.587C287.335 288.345 273.441 292.134 273.441 292.134L275.253 278.921Z" fill="#5E4A3A"/>
<path d="M333.969 297.736C334.153 297.736 334.336 297.675 334.488 297.55L367.245 270.488C367.455 270.314 367.564 270.048 367.535 269.777L365.365 248.635L382.126 233.004C382.357 232.786 382.442 232.454 382.341 232.15L372.957 204.021C372.816 203.596 372.359 203.368 371.928 203.506C371.503 203.648 371.271 204.11 371.415 204.536L380.635 232.169L363.959 247.719C363.773 247.893 363.68 248.144 363.706 248.398L365.873 269.51L333.452 296.294C333.106 296.58 333.056 297.093 333.343 297.44C333.503 297.635 333.735 297.736 333.969 297.736Z" fill="#15244F"/>
<path d="M365.199 163.159C365.912 165.735 366.898 168.786 368.159 171.517L363.81 172.725C363.81 172.725 363.206 167.651 359.823 167.892C356.44 168.134 357.648 171.879 358.856 173.812C360.064 175.745 353.661 179.49 353.661 179.49C353.661 179.49 353.54 173.087 351.003 168.979C348.466 164.872 347.379 153.636 354.869 148.682C362.36 143.728 380.119 141.554 384.348 153.756C384.348 153.756 375.79 155.052 369.719 156.083C366.409 156.646 364.304 159.924 365.199 163.159Z" fill="#F59D00"/>
<path d="M278.877 274.258C278.877 274.258 255.922 270.826 240.7 267.685C225.478 264.544 212.188 267.541 206.63 274.258C201.073 280.975 205.18 306.829 227.289 305.198C258.575 302.89 280.568 297.889 280.568 297.889L278.877 274.258Z" fill="#3E60B5"/>
<path d="M297.353 205.09C297.454 205.09 297.555 205.071 297.654 205.031C298.069 204.866 298.274 204.397 298.111 203.979C297.991 203.676 295.061 196.548 283.219 194.959C282.754 194.911 282.36 195.213 282.304 195.658C282.243 196.103 282.557 196.513 283.001 196.573C293.837 198.025 296.489 204.311 296.598 204.577C296.726 204.896 297.032 205.09 297.353 205.09Z" fill="#15244F"/>
<path d="M244.076 269.177C244.419 269.177 244.735 268.96 244.85 268.619C244.988 268.192 244.757 267.732 244.331 267.591C243.706 267.385 228.934 262.622 215.659 267.602C215.239 267.76 215.026 268.23 215.186 268.65C215.343 269.073 215.803 269.288 216.234 269.126C228.961 264.347 243.675 269.086 243.821 269.137C243.905 269.163 243.991 269.177 244.076 269.177Z" fill="#15244F"/>
<path d="M442.339 606.569C442.339 606.569 435.815 631.698 436.419 634.719C437.023 637.739 446.326 643.176 446.326 643.176C446.326 643.176 456.354 645.955 455.991 647.646C455.628 649.337 432.311 647.888 428.083 647.646C423.854 647.404 419.143 648.371 418.055 646.196C416.968 644.021 422.888 633.752 423.25 631.336C423.612 628.92 425.183 607.294 425.183 607.294L442.339 606.569Z" fill="#F86C6C"/>
<path d="M508.485 606.569C508.485 606.569 505.448 631.698 506.052 634.719C506.656 637.739 515.959 643.176 515.959 643.176C515.959 643.176 525.987 645.955 525.624 647.646C525.261 649.337 501.944 647.888 497.716 647.646C493.487 647.404 488.776 648.371 487.688 646.196C486.601 644.021 492.521 633.752 492.883 631.336C493.245 628.92 491.33 607.294 491.33 607.294L508.485 606.569Z" fill="#F86C6C"/>
<path d="M418.055 646.196C417.376 644.838 419.429 640.324 421.155 636.537C427.822 639.836 435.096 640.405 436.961 639.551C437.92 639.112 438.156 638.152 438.144 637.233C440.996 640.058 446.326 643.176 446.326 643.176C446.326 643.176 456.354 645.955 455.991 647.646C455.629 649.337 432.311 647.888 428.083 647.646C423.854 647.404 419.142 648.371 418.055 646.196Z" fill="#0C193A"/>
<path d="M487.688 646.196C487.009 644.838 489.062 640.324 490.788 636.537C497.455 639.836 504.729 640.405 506.594 639.551C507.553 639.112 507.789 638.152 507.777 637.233C510.629 640.058 515.959 643.176 515.959 643.176C515.959 643.176 525.987 645.955 525.624 647.646C525.262 649.337 501.944 647.888 497.716 647.646C493.487 647.404 488.775 648.371 487.688 646.196Z" fill="#0C193A"/>
<path d="M495.858 330.267C495.858 330.267 503.107 335.824 502.624 345.006C502.624 345.006 518.571 420.877 520.021 470.894C521.471 520.911 509.873 612.247 509.873 612.247C509.873 612.247 503.108 614.422 494.651 613.939C486.194 613.456 478.945 618.67 475.804 614.009C472.663 609.348 471.213 538.309 471.696 527.436C472.179 516.563 471.605 498.441 471.605 498.441C471.605 498.441 460.581 559.573 444.875 609.59C444.875 609.59 436.66 612.006 427.478 611.04C418.296 610.073 417.813 612.248 414.672 611.04C411.531 609.832 414.914 595.334 414.672 578.42C414.43 561.506 422.887 494.817 426.512 483.943C430.136 473.07 428.445 425.227 428.928 415.32C429.411 405.413 423.854 347.906 437.143 329.3L495.858 330.267Z" fill="#15244F"/>
<path d="M456.715 392.725C456.784 392.725 456.851 392.713 456.92 392.688C457.231 392.576 457.393 392.232 457.279 391.92C447.32 364.419 454.583 344.713 454.657 344.518C454.774 344.208 454.62 343.861 454.309 343.743C454.009 343.626 453.652 343.779 453.535 344.09C453.458 344.291 446.041 364.415 456.152 392.33C456.239 392.572 456.471 392.725 456.715 392.725Z" fill="#15244F"/>
<path d="M429.691 353.554C430.974 343.58 433.243 334.761 437.142 329.301L495.858 330.267C495.858 330.267 499.555 333.121 501.49 338.098C498.872 339.217 493.794 341.08 488.971 341.08C482.085 341.08 469.037 340.718 462.332 343.073C456.418 345.151 441.77 353.981 429.691 353.554Z" fill="#0C193A"/>
<path d="M458.89 401.064C458.89 401.064 462.998 407.346 463.481 416.045C463.958 424.633 468.786 485.235 471.527 498.87C470.777 502.969 464.102 538.959 454.098 577.243C454.107 577.008 455.292 546.317 451.48 523.57C447.654 500.736 447.332 493.125 451.48 476.815C455.628 460.505 461.064 407.951 458.89 401.064Z" fill="#0C193A"/>
<path d="M417.057 600.273C418.932 600.273 421.243 599.937 423.851 599.556C427.002 599.096 430.582 598.583 433.866 598.652C441.86 598.857 448.399 596.719 448.673 596.628C448.989 596.524 449.16 596.185 449.056 595.87C448.952 595.556 448.615 595.387 448.301 595.487C448.234 595.507 441.653 597.605 433.893 597.452C430.487 597.376 426.875 597.903 423.679 598.368C419.531 598.972 415.622 599.539 414.055 598.436C413.786 598.241 413.411 598.308 413.22 598.578C413.029 598.849 413.092 599.223 413.364 599.414C414.246 600.042 415.504 600.273 417.057 600.273Z" fill="#3D2A2A"/>
<path d="M475.692 604.944C477.378 604.944 479.527 604.606 481.909 604.23C486.031 603.58 490.706 602.843 494.668 603.537C501.989 604.819 511.041 601.69 511.424 601.556C511.735 601.447 511.9 601.104 511.791 600.791C511.679 600.477 511.342 600.312 511.025 600.423C510.935 600.455 501.883 603.579 494.875 602.354C490.719 601.624 485.94 602.379 481.722 603.044C478.55 603.544 475.816 603.979 474.252 603.61C473.933 603.53 473.606 603.736 473.531 604.059C473.457 604.381 473.656 604.704 473.98 604.78C474.476 604.895 475.051 604.944 475.692 604.944Z" fill="#3D2A2A"/>
<path d="M428.625 245.214C419.383 248.838 417.933 271.31 416.121 281.821C414.309 292.332 408.186 311.661 415.155 319.757C423.37 329.301 444.03 316.072 444.03 316.072L428.625 245.214Z" fill="#F86C6C"/>
<path d="M422.172 323.102C422.784 322.951 426.353 321.852 429.692 316.071C432.422 311.344 434.969 297.889 434.969 297.889L440.233 298.604L444.03 316.071C444.03 316.071 431.587 324.006 422.172 323.102Z" fill="#ED3232"/>
<path d="M479.549 195.106C479.549 195.106 479.458 205.073 482.992 206.07C482.992 206.07 481.361 219.209 479.911 219.752C478.461 220.296 474.293 220.386 474.293 220.386L469.762 241.589L450.734 241.136C450.734 241.136 461.064 220.93 459.161 216.399C457.258 211.869 453.95 199.002 457.96 193.384C461.971 187.767 479.549 195.106 479.549 195.106Z" fill="#F86C6C"/>
<path d="M459.367 217.958C459.373 217.347 459.329 216.797 459.163 216.401C458.553 214.947 457.799 212.631 457.188 209.977C458.664 210.773 460.682 211.95 463.12 213.623C468.309 217.183 475.495 220.331 477.346 220.207C475.821 220.354 474.294 220.388 474.294 220.388L472.724 227.734C472.283 227.768 471.815 227.798 471.273 227.818C468.28 227.927 463.048 222.375 459.367 217.958Z" fill="#ED3232"/>
<path d="M482.087 242.999C482.087 242.999 474.476 239.959 461.972 239.778C449.468 239.597 432.976 239.597 428.627 245.215C424.278 250.833 419.566 266.962 423.553 279.103C427.54 291.245 436.239 322.958 436.239 322.958L432.433 331.475C432.433 331.475 467.368 334.705 497.235 333.539C499.226 333.461 500.61 331.535 500.096 329.611L496.767 317.159C496.767 317.159 493.884 246.871 482.087 242.999Z" fill="#ED3232"/>
<path d="M480.396 308.279C475.322 296.439 469.281 289.223 469.523 275.659C469.91 253.894 476.289 248.315 476.289 248.315C479.397 246.104 483.908 248.877 488.635 253.722C495.01 274.366 496.767 317.159 496.767 317.159L500.096 329.611C500.61 331.536 499.226 333.461 497.235 333.539C490.188 333.814 482.862 333.843 475.776 333.729C483.722 327.822 484.55 317.973 480.396 308.279Z" fill="#C61717"/>
<path d="M483.715 189.398C484.11 195.558 473.747 200.453 473.747 200.453C473.747 200.453 473.204 208.064 470.486 212.413C467.768 216.762 470.124 244.127 463.6 247.026C457.076 249.926 444.753 247.026 437.686 247.026C430.618 247.026 432.248 238.871 432.611 235.428C432.973 231.985 442.351 207.452 443.666 200.815C444.874 194.714 448.74 185.894 456.231 185.29C456.229 185.29 482.809 175.262 483.715 189.398Z" fill="#0C193A"/>
<path d="M481 243.039C470.564 244.291 471.939 264.604 476.288 277.109C480.637 289.613 498.408 334.737 514.803 335.462C531.198 336.187 560.556 294.928 560.556 294.928H548.595L519.675 311.36C519.675 311.36 504.739 280.19 500.209 267.504C495.679 254.819 490.061 241.952 481 243.039Z" fill="#F86C6C"/>
<path d="M523.63 319.875C524.529 315.389 521.431 312.107 521.301 311.97L520.434 312.801C520.463 312.83 523.226 315.781 522.455 319.638L523.63 319.875Z" fill="#A63B3B"/>
<path d="M531.117 304.857L548.592 294.928H560.553C560.553 294.928 558.537 297.757 555.284 301.905C547.593 302.134 537.511 303.718 531.117 304.857Z" fill="#ED3232"/>
</svg>
