<svg width="445" height="242" viewBox="0 0 445 242" fill="none" xmlns="http://www.w3.org/2000/svg">
<path d="M393.428 204.339H315.056V215.755H301.423L152.411 215.524H140.425L67.9679 211.748L65.6309 212.082L64.9629 220.096L59.9539 222.099L60.6219 207.741L61.2899 194.051C61.2899 194.051 60.6219 183.7 64.2949 177.69C67.9679 171.68 72.3089 157.99 93.0109 154.651C113.713 151.312 129.406 157.322 136.752 162.665C144.098 168.007 151.444 186.372 155.117 196.055C158.79 205.738 158.79 208.409 158.79 208.409H294.021C294.021 208.409 297.026 176.688 311.384 164C325.742 151.312 350.451 149.642 369.483 155.986C388.515 162.33 399.678 183.907 393.428 204.339Z" fill="#263238" stroke="#263238" stroke-miterlimit="10"/>
<path d="M49.58 200.011C51.747 206.502 55.713 210.836 57.522 211.92C59.321 213.003 59.321 213.003 59.321 213.003C59.321 213.003 61.13 192.069 66.538 181.244C71.955 170.419 86.331 158.327 108.755 158.153C127.435 158.018 143.755 174.028 148.079 186.304C152.413 198.57 151.329 214.803 152.413 215.529C153.496 216.245 301.419 216.603 301.419 216.603C301.419 216.603 298.536 193.773 310.803 176.563C325.372 156.113 347.206 156.084 357.711 158.879C370.722 162.342 384.769 173.312 389.461 181.613C394.153 189.913 393.427 204.337 393.427 204.337C393.427 204.337 397.393 201.454 398.119 197.846C398.845 194.238 398.119 181.971 393.427 171.504C388.735 161.047 381.161 152.389 380.803 149.138C380.435 145.888 382.602 123.164 378.994 109.446C375.386 95.738 363.119 60.022 363.119 60.022C363.119 60.022 369.252 57.129 367.811 54.963C367.134 53.957 359.879 52.477 349.421 51.035C337.464 49.39 321.328 47.804 306.111 47.03C277.612 45.589 240.813 45.221 222.403 49.555C222.403 49.555 205.445 52.438 202.204 53.521C198.954 54.604 154.938 80.946 133.288 101.871C133.288 101.871 125.617 104.26 118.235 106.331C114.888 107.279 111.599 108.159 109.113 108.73C101.18 110.529 66.896 120.997 65.455 126.772C64.014 132.538 61.131 159.237 61.131 159.237C61.131 159.237 54.998 165.012 53.914 169.704C52.831 174.394 47.413 193.51 49.58 200.011Z" fill="#9AACBB"/>
<path d="M314.212 154.535C352.499 154.535 371.59 148.497 380.875 143.427C380.779 146.261 380.711 148.317 380.803 149.136C381.161 152.386 388.735 161.044 393.427 171.502C398.119 181.969 398.844 194.236 398.119 197.844C397.393 201.452 393.427 204.335 393.427 204.335C393.427 204.335 394.153 189.911 389.461 181.611C384.769 173.311 370.723 162.341 357.711 158.877C347.205 156.081 325.371 156.11 310.803 176.561C298.537 193.771 301.419 216.601 301.419 216.601C301.419 216.601 153.496 216.243 152.413 215.527C151.33 214.802 152.413 198.569 148.079 186.302C144.741 176.826 134.254 165.133 121.054 160.35C138.835 158.04 157.978 152.833 181.579 146.845C224.509 135.954 248.216 154.535 314.212 154.535Z" fill="#71A0B5"/>
<path d="M53.9139 169.703C54.9969 165.011 61.1309 159.236 61.1309 159.236C61.1309 159.236 61.3329 157.363 61.6559 154.515C66.2029 156.014 71.7159 157.545 78.4219 159.02C82.7179 159.965 86.9439 160.625 91.1459 161.049C78.6819 165.309 70.3689 173.591 66.5389 181.244C61.1309 192.069 59.3219 213.003 59.3219 213.003C59.3219 213.003 59.3219 213.003 57.5229 211.919C55.7139 210.836 51.7479 206.502 49.5809 200.011C47.4129 193.51 52.8309 174.394 53.9139 169.703Z" fill="#71A0B5"/>
<path d="M49.58 200.011C51.747 206.502 55.713 210.836 57.522 211.92C59.321 213.003 59.321 213.003 59.321 213.003C59.321 213.003 61.13 192.069 66.538 181.244C71.955 170.419 86.331 158.327 108.755 158.153C127.435 158.018 143.755 174.028 148.079 186.304C152.413 198.57 151.329 214.803 152.413 215.529C153.496 216.245 301.419 216.603 301.419 216.603C301.419 216.603 298.536 193.773 310.803 176.563C325.372 156.113 347.206 156.084 357.711 158.879C370.722 162.342 384.769 173.312 389.461 181.613C394.153 189.913 393.427 204.337 393.427 204.337C393.427 204.337 397.393 201.454 398.119 197.846C398.845 194.238 398.119 181.971 393.427 171.504C388.735 161.047 381.161 152.389 380.803 149.138C380.435 145.888 382.602 123.164 378.994 109.446C375.386 95.738 363.119 60.022 363.119 60.022C363.119 60.022 369.252 57.129 367.811 54.963C367.134 53.957 359.879 52.477 349.421 51.035C337.464 49.39 321.328 47.804 306.111 47.03C277.612 45.589 240.813 45.221 222.403 49.555C222.403 49.555 205.445 52.438 202.204 53.521C198.954 54.604 154.938 80.946 133.288 101.871C133.288 101.871 125.617 104.26 118.235 106.331C114.888 107.279 111.599 108.159 109.113 108.73C101.18 110.529 66.896 120.997 65.455 126.772C64.014 132.538 61.131 159.237 61.131 159.237C61.131 159.237 54.998 165.012 53.914 169.704C52.831 174.394 47.413 193.51 49.58 200.011Z" stroke="#263238" stroke-miterlimit="10"/>
<path d="M118.235 106.329L134.419 107.238L151.087 107.47L156.214 102.981C156.214 102.981 211.21 65.166 223.234 61.829C235.249 58.482 269.069 55.531 279.652 56.199C290.235 56.866 306.903 68.997 314.478 91.973C322.053 114.948 321.646 119.011 320.06 128.937C318.483 138.862 307.542 151.719 291.512 175.439C275.482 199.159 247.912 196.596 247.912 196.596L160.46 201.394L163.913 209.423C163.913 209.423 269.068 208.785 277.406 206.859C285.735 204.934 287.66 198.52 295.361 186.341C303.052 174.152 340.238 122.861 347.938 113.884C355.629 104.907 368.814 101.221 368.814 101.221C368.814 101.221 344.088 70.284 341.766 62.497C340.479 58.182 345.065 53.955 349.418 51.033C337.461 49.388 321.325 47.802 306.108 47.028C277.609 45.587 240.81 45.219 222.4 49.553C222.4 49.553 205.442 52.436 202.201 53.519C198.951 54.602 154.935 80.944 133.285 101.869C133.288 101.87 125.617 104.259 118.235 106.329Z" fill="#9AACBB" stroke="#263238" stroke-miterlimit="10"/>
<path d="M276.888 56.048C276.888 56.048 231.427 55.687 213.026 61.46C194.625 67.233 137.618 113.416 138.7 114.859C139.782 116.302 146.999 116.663 150.246 116.302C153.493 115.941 282.301 105.117 282.301 105.117C282.301 105.117 287.352 109.447 294.568 110.89C301.784 112.333 320.907 110.168 320.907 110.168C320.907 110.168 311.887 80.943 303.588 70.479C295.289 60.017 285.187 56.048 276.888 56.048Z" fill="#263238" stroke="#263238" stroke-miterlimit="10"/>
<path d="M273.318 105.872V59.154C273.318 59.154 232.582 60.49 223.233 61.825C213.884 63.161 211.212 65.164 211.212 65.164L174.817 88.203L174.534 114.207C204.335 111.677 253.284 107.557 273.318 105.872Z" fill="white" stroke="#263238" stroke-miterlimit="10"/>
<path d="M183.165 110.909L163.465 112.912C163.465 112.912 158.123 109.239 158.123 108.237C158.123 107.235 162.798 105.9 162.798 105.9C162.798 105.9 160.795 98.22 169.81 93.879C178.825 89.538 183.5 95.549 183.834 98.888C184.166 102.228 183.165 110.909 183.165 110.909Z" fill="#CCCCCC" stroke="#263238" stroke-miterlimit="10"/>
<path d="M279.652 56.201L279.35 105.365C281.245 105.206 282.3 105.117 282.3 105.117C282.3 105.117 287.351 109.447 294.567 110.89C301.783 112.333 320.906 110.168 320.906 110.168C320.906 110.168 311.886 80.943 303.587 70.479C296.19 61.152 287.361 56.995 279.652 56.201Z" fill="white" stroke="#263238" stroke-miterlimit="10"/>
<path d="M314.476 91.975C309.468 92.184 300.903 92.836 296.358 94.882C289.68 97.887 282.301 105.118 282.301 105.118C282.301 105.118 287.352 109.448 294.568 110.891C301.784 112.334 320.907 110.169 320.907 110.169C320.907 110.169 318.24 101.535 314.476 91.975Z" fill="#263238" stroke="#263238" stroke-miterlimit="10"/>
<path d="M291.015 104.899L306.708 104.231C306.708 104.231 310.047 106.234 313.386 104.565C316.725 102.896 316.057 99.89 313.052 98.555C310.047 97.219 305.038 99.891 305.038 99.891L291.348 100.893C291.348 100.893 287.342 101.56 291.015 104.899Z" fill="#CCCCCC" stroke="#263238" stroke-miterlimit="10"/>
<path d="M199.009 55.157C187.898 61.355 152.126 83.66 133.288 101.87C133.288 101.87 117.052 106.921 109.114 108.725L134.415 107.236L197.856 58.486C197.856 58.486 198.411 56.822 199.009 55.157Z" fill="#CCCCCC" stroke="#263238" stroke-miterlimit="10"/>
<path d="M377.316 103.516C372.563 87.513 363.121 60.017 363.121 60.017C363.121 60.017 357.796 63.495 357.796 65.833C357.796 68.17 374.825 101.894 376.161 103.23C376.445 103.514 376.854 103.578 377.316 103.516Z" fill="#263238" stroke="#263238" stroke-miterlimit="10"/>
<path d="M160.459 201.397C160.459 201.397 149.774 156.988 149.44 148.307C149.106 139.626 150.776 123.264 154.115 118.924" stroke="#263238" stroke-miterlimit="10"/>
<path d="M378.498 113.246C378.498 113.246 374.157 107.236 368.481 107.236C362.805 107.236 362.471 113.246 363.472 116.251C364.474 119.256 367.813 129.941 371.82 133.948C375.827 137.955 379.834 138.623 380.501 132.946C381.169 127.27 382.839 119.591 378.498 113.246Z" fill="#263238" stroke="#263238" stroke-miterlimit="10"/>
<path d="M348.78 52.476C348.78 52.476 340.098 57.151 341.768 62.493C343.438 67.835 358.129 87.8699 362.804 93.5459C367.479 99.2219 368.814 101.226 368.814 101.226C368.814 101.226 357.795 103.229 356.126 109.24C354.457 115.25 371.486 145.302 371.486 145.302" stroke="#263238" stroke-miterlimit="10"/>
<path d="M362.137 152.647C362.137 152.647 373.49 144.299 380.168 142.63" stroke="#263238" stroke-miterlimit="10"/>
<path d="M160.694 185.703C160.694 185.703 257.86 182.698 271.216 176.02C284.572 169.342 294.589 160.994 299.932 153.982C299.932 153.982 300.266 150.977 288.579 150.977C276.892 150.977 219.127 163.665 177.389 181.362" fill="#DEDEDE"/>
<path d="M84.3301 134.95C84.3301 134.95 90.0061 129.274 88.3371 123.931C86.6681 118.589 74.6471 123.263 69.9721 126.602C65.2971 129.941 61.9581 151.979 63.9621 151.979C65.9651 151.979 84.3301 134.95 84.3301 134.95Z" fill="white" stroke="#263238" stroke-miterlimit="10"/>
<path d="M105.699 241.131C127.275 241.131 144.766 223.64 144.766 202.064C144.766 180.488 127.275 162.997 105.699 162.997C84.1227 162.997 66.6318 180.488 66.6318 202.064C66.6318 223.64 84.1227 241.131 105.699 241.131Z" fill="#263238" stroke="#263238" stroke-miterlimit="10"/>
<path d="M125.358 221.726C136.218 210.866 136.218 193.26 125.358 182.4C114.499 171.54 96.8918 171.54 86.0322 182.4C75.1726 193.26 75.1726 210.867 86.0322 221.726C96.8918 232.586 114.499 232.586 125.358 221.726Z" fill="white" stroke="#263238" stroke-miterlimit="10"/>
<path d="M348.849 241.131C370.425 241.131 387.916 223.64 387.916 202.064C387.916 180.488 370.425 162.997 348.849 162.997C327.273 162.997 309.782 180.488 309.782 202.064C309.782 223.64 327.273 241.131 348.849 241.131Z" fill="#263238" stroke="#263238" stroke-miterlimit="10"/>
<path d="M368.506 221.727C379.366 210.868 379.366 193.261 368.506 182.401C357.647 171.542 340.04 171.542 329.18 182.401C318.321 193.261 318.321 210.868 329.18 221.727C340.04 232.587 357.647 232.587 368.506 221.727Z" fill="white" stroke="#263238" stroke-miterlimit="10"/>
<path d="M14.659 226.94C6.843 219.218 2 208.495 2 196.64C2 184.879 6.767 174.231 14.475 166.523" stroke="#3F5B91" stroke-width="3" stroke-miterlimit="10" stroke-linecap="round" stroke-linejoin="round"/>
<path d="M22.0979 221.695C15.2369 215.531 10.9219 206.59 10.9219 196.641C10.9219 186.786 15.1559 177.92 21.9039 171.763" stroke="#3F5B91" stroke-width="3" stroke-miterlimit="10" stroke-linecap="round" stroke-linejoin="round"/>
<path d="M31.3639 216.259C25.0699 212.007 20.9319 204.807 20.9319 196.64C20.9319 188.473 25.0699 181.273 31.3639 177.021" stroke="#3F5B91" stroke-width="3" stroke-miterlimit="10" stroke-linecap="round" stroke-linejoin="round"/>
<path d="M39.5639 210.484C33.9079 208.429 29.8679 203.007 29.8679 196.64C29.8679 190.149 34.0679 184.639 39.8979 182.68" stroke="#3F5B91" stroke-width="3" stroke-miterlimit="10" stroke-linecap="round" stroke-linejoin="round"/>
<path d="M237.938 14.659C245.66 6.843 256.383 2 268.238 2C279.999 2 290.647 6.76699 298.355 14.475" stroke="#3F5B91" stroke-width="3" stroke-miterlimit="10" stroke-linecap="round" stroke-linejoin="round"/>
<path d="M243.184 22.097C249.348 15.236 258.289 10.921 268.238 10.921C278.093 10.921 286.959 15.155 293.116 21.903" stroke="#3F5B91" stroke-width="3" stroke-miterlimit="10" stroke-linecap="round" stroke-linejoin="round"/>
<path d="M248.619 31.363C252.871 25.069 260.071 20.931 268.238 20.931C276.405 20.931 283.605 25.069 287.857 31.363" stroke="#3F5B91" stroke-width="3" stroke-miterlimit="10" stroke-linecap="round" stroke-linejoin="round"/>
<path d="M254.395 39.563C256.45 33.907 261.873 29.867 268.239 29.867C274.73 29.867 280.24 34.067 282.199 39.897" stroke="#3F5B91" stroke-width="3" stroke-miterlimit="10" stroke-linecap="round" stroke-linejoin="round"/>
<path d="M430.43 226.94C438.246 219.218 443.089 208.495 443.089 196.64C443.089 184.879 438.322 174.231 430.614 166.523" stroke="#3F5B91" stroke-width="3" stroke-miterlimit="10" stroke-linecap="round" stroke-linejoin="round"/>
<path d="M422.992 221.695C429.853 215.531 434.168 206.59 434.168 196.641C434.168 186.786 429.934 177.92 423.186 171.763" stroke="#3F5B91" stroke-width="3" stroke-miterlimit="10" stroke-linecap="round" stroke-linejoin="round"/>
<path d="M413.726 216.259C420.02 212.007 424.157 204.807 424.157 196.64C424.157 188.473 420.019 181.273 413.726 177.021" stroke="#3F5B91" stroke-width="3" stroke-miterlimit="10" stroke-linecap="round" stroke-linejoin="round"/>
<path d="M405.526 210.484C411.182 208.429 415.222 203.007 415.222 196.64C415.222 190.149 411.022 184.639 405.192 182.68" stroke="#3F5B91" stroke-width="3" stroke-miterlimit="10" stroke-linecap="round" stroke-linejoin="round"/>
</svg>
