<svg width="893" height="497" viewBox="0 0 893 497" fill="none" xmlns="http://www.w3.org/2000/svg">
<path d="M893 400.687H774.171V407.915H893V400.687Z" fill="#4DA3A3"/>
<path d="M893 411.889H774.171V415.755H893V411.889Z" fill="#4DA3A3"/>
<path d="M893 419.824H774.171V421.784H893V419.824Z" fill="#4DA3A3"/>
<path d="M119.773 400.687H0.944092V407.915H119.773V400.687Z" fill="#4DA3A3"/>
<path d="M119.773 411.889H0.944092V415.755H119.773V411.889Z" fill="#4DA3A3"/>
<path d="M119.773 419.824H0.944092V421.784H119.773V419.824Z" fill="#4DA3A3"/>
<path d="M780.877 285.209L776.976 274.143C776.143 271.789 774.421 269.842 772.158 268.74C768.993 267.188 763.62 265.01 755.595 263.064C741.281 259.579 660.007 254.067 660.007 254.067C588.285 217.112 575.804 214.472 499.195 214.472C422.586 214.472 413.034 223.115 413.034 223.115L356.986 268.236H367.593C367.593 268.236 407.536 235.365 418.92 228.886C430.305 222.407 445.035 222.802 496.265 222.802C501.833 222.802 507.15 223.183 512.218 223.85L527.115 262.914C522.061 263.867 517.354 264.711 513.398 265.351C494.058 268.468 493.322 268.236 356.986 268.236C272.103 268.236 202.782 278.377 162.534 286.026C162.534 286.026 162.534 286.026 162.506 286.026C162.492 286.026 162.479 286.026 162.451 286.026C161.16 286.23 144.236 288.966 132.976 292.26C131.699 292.628 130.491 293.009 129.38 293.403C126.951 294.247 125.035 295.118 123.952 295.976C123.952 295.976 123.938 295.989 123.91 296.003C122.897 296.806 122.189 297.922 121.897 299.161C121.036 302.89 119.509 311.084 121.258 316.583L119.592 317.577C118.454 318.257 118.149 319.768 118.954 320.816L127.992 332.685C128.381 333.189 128.992 333.488 129.63 333.488H132.518L155.037 352.204L136.975 333.325L139.349 333.121C141.348 332.944 142.292 330.616 140.945 329.146L130.56 317.795C130.116 317.318 129.505 317.032 128.839 317.005C127.936 316.978 125.673 316.815 124.66 316.733C124.493 316.052 123.855 314.365 123.424 311.819C122.244 303.353 126.048 298.712 126.159 298.603C126.798 297.936 127.506 297.337 128.297 296.833C131.99 294.479 138.238 291.974 148.956 289.892C153.385 289.17 157.869 288.476 162.409 287.823C162.437 287.823 162.479 287.823 162.506 287.823C266.216 272.769 396.887 273.517 460.737 271.816C532.696 269.897 568.196 257.415 586.8 257.184C603.016 256.966 718.415 264.779 747.876 266.793C752.388 267.106 756.803 268.236 760.899 270.142L769.701 274.239C772.116 275.368 773.935 277.424 774.754 279.901L598.726 279.071C593.561 279.044 588.41 279.602 583.384 280.718L552.133 287.687C546.662 288.912 541.081 289.647 535.486 289.96C535.347 289.252 535.209 288.544 535.056 287.877C534.806 286.897 534.584 285.944 534.334 285.046C533.862 283.236 533.293 281.616 532.779 280.187C532.265 278.758 531.738 277.546 531.293 276.553C530.849 275.559 530.433 274.81 530.169 274.293C529.891 273.776 529.725 273.517 529.725 273.517C529.725 273.517 529.822 273.817 529.988 274.361C530.155 274.919 530.377 275.736 530.655 276.77C530.919 277.805 531.21 279.084 531.529 280.541C531.682 281.276 531.835 282.052 531.974 282.868C532.043 283.277 532.126 283.699 532.196 284.134C532.265 284.57 532.335 285.005 532.404 285.454C532.626 286.897 532.821 288.476 533.015 290.096C532.876 290.096 532.737 290.109 532.598 290.123L347.657 295.391C347.99 293.907 348.365 292.478 348.767 291.185C349.336 289.388 349.961 287.741 350.503 286.257C351.044 284.787 351.488 283.494 351.849 282.433C352.224 281.371 352.488 280.527 352.682 279.955C352.863 279.384 352.96 279.071 352.96 279.071C352.96 279.071 352.793 279.357 352.502 279.874C352.21 280.405 351.766 281.167 351.225 282.161C350.683 283.154 350.017 284.352 349.295 285.74C348.934 286.434 348.545 287.169 348.129 287.945C347.906 288.367 347.726 288.748 347.532 289.17C347.323 289.579 347.129 290.014 346.935 290.477C346.518 291.389 346.171 292.342 345.782 293.335C345.546 294.016 345.324 294.724 345.116 295.431L250.833 298.671L344.658 297.133C344.158 299.134 343.755 301.257 343.547 303.476C343.311 305.939 343.269 308.512 343.478 311.112C343.519 311.765 343.589 312.418 343.672 313.058C343.741 313.711 343.839 314.365 343.963 315.018C344.061 315.671 344.2 316.311 344.338 316.964C344.477 317.618 344.616 318.244 344.769 318.856C345.366 321.347 345.963 323.838 346.587 326.274C347.198 328.724 347.823 331.12 348.434 333.448C349.045 335.775 349.67 338.007 350.267 340.131C350.85 342.254 351.433 344.255 351.988 346.092C352.53 347.944 353.057 349.618 353.515 351.115C353.973 352.612 354.404 353.905 354.751 354.98C355.098 356.056 355.39 356.886 355.584 357.458C355.792 358.029 355.889 358.329 355.889 358.329C355.889 358.329 355.848 358.016 355.778 357.417C355.695 356.818 355.584 355.947 355.417 354.831C355.251 353.715 355.056 352.367 354.793 350.829C354.543 349.291 354.251 347.549 353.904 345.657C353.571 343.765 353.196 341.71 352.752 339.559C352.321 337.395 351.891 335.122 351.391 332.767C350.891 330.412 350.378 327.989 349.822 325.539C349.281 323.076 348.684 320.585 348.101 318.094C347.948 317.468 347.795 316.842 347.67 316.257C347.532 315.658 347.407 315.059 347.309 314.446C347.198 313.847 347.087 313.235 347.018 312.636C346.921 312.037 346.837 311.425 346.796 310.826C346.546 308.403 346.476 306.007 346.574 303.693C346.685 301.407 346.921 299.188 347.309 297.106L533.376 294.07C533.459 295.295 533.529 296.534 533.598 297.813C533.668 300.086 533.737 302.428 533.681 304.81C533.654 307.192 533.529 309.601 533.348 312.024C533.237 313.235 533.14 314.433 533.029 315.63C532.876 316.828 532.765 318.026 532.612 319.21C532.446 320.394 532.279 321.565 532.113 322.722C531.918 323.879 531.724 325.022 531.543 326.138C531.335 327.254 531.099 328.357 530.905 329.432C530.683 330.508 530.447 331.556 530.224 332.576C530.016 333.611 529.738 334.591 529.516 335.544C529.28 336.496 529.086 337.436 528.836 338.32C528.336 340.09 527.948 341.723 527.503 343.152C527.073 344.582 526.754 345.861 526.406 346.882C526.073 347.903 525.851 348.733 525.685 349.277C525.518 349.835 525.435 350.135 525.435 350.135C525.435 350.135 525.587 349.863 525.865 349.359C526.129 348.842 526.545 348.093 527.045 347.127C527.559 346.16 528.114 344.976 528.739 343.588C529.044 342.894 529.405 342.172 529.711 341.383C530.03 340.593 530.363 339.763 530.71 338.906C531.071 338.048 531.377 337.123 531.724 336.17C532.057 335.217 532.404 334.237 532.71 333.216C533.015 332.195 533.348 331.147 533.654 330.058C533.945 328.969 534.223 327.853 534.514 326.724C534.778 325.58 535.014 324.423 535.264 323.239C535.5 322.055 535.694 320.857 535.903 319.646C536.097 318.434 536.25 317.209 536.416 315.971C536.541 314.732 536.666 313.494 536.777 312.241C536.93 309.75 537.055 307.246 537.013 304.796C537.013 304.183 537 303.571 536.986 302.958C536.958 302.346 536.93 301.747 536.888 301.148C536.847 299.95 536.722 298.753 536.625 297.596C536.5 296.357 536.347 295.146 536.18 293.961C541.595 293.771 546.982 293.172 552.299 292.138L585.828 285.591C590.284 284.719 594.824 284.297 599.378 284.311L776.004 285.155L776.115 285.659C776.504 287.387 776.157 289.197 775.143 290.654L761.232 310.758L779.433 291.648C781.085 289.919 781.627 287.428 780.835 285.196L780.877 285.209ZM531.502 262.057L516.424 224.435C555.506 230.887 578.511 254.053 578.511 254.053C572.014 254.053 550.258 258.477 531.502 262.057Z" fill="#4DA3A3"/>
<path d="M607.639 301.815C576.068 311.18 578.206 355.498 578.761 353.647C590.756 313.33 591.978 306.851 638.085 302.768C684.192 298.685 697.479 339.967 697.479 339.967C690.62 294.138 639.224 292.451 607.653 301.815H607.639Z" fill="#4DA3A3"/>
<path d="M228.966 306.933C182.79 306.933 193.633 359.418 193.716 358.125C197.631 302.604 223.01 311.411 258.83 311.411C288.818 311.411 312.517 363.406 312.517 363.406C294.399 306.456 275.143 306.933 228.966 306.933Z" fill="#4DA3A3"/>
<path d="M556.853 306.348L548.995 307.055C548.079 307.137 547.329 307.831 547.204 308.73C546.357 314.759 543.275 336.565 542.845 337.395C542.567 337.953 540.79 339.641 539.346 340.961C538.735 341.519 539.193 342.513 540.026 342.445L551.022 341.478C553.202 341.288 554.951 339.641 555.243 337.504C556.201 330.331 558.311 314.528 559.005 308.498C559.144 307.26 558.103 306.225 556.839 306.334L556.853 306.348Z" fill="#4DA3A3"/>
<path d="M556.242 342.458L567.238 341.492C569.417 341.301 571.167 339.654 571.458 337.517C572.416 330.344 574.527 314.542 575.221 308.512C575.36 307.273 574.318 306.239 573.055 306.348L565.197 307.055C564.281 307.137 563.531 307.831 563.406 308.73C562.559 314.759 559.477 336.565 559.047 337.395C558.755 337.953 556.992 339.641 555.548 340.961C554.937 341.519 555.395 342.513 556.228 342.445L556.242 342.458Z" fill="#4DA3A3"/>
<path d="M756.345 294.288C752.263 294.261 739.935 294.193 735.159 294.247C734.076 294.247 733.159 295.064 733.048 296.126L732.66 299.596C732.521 300.849 733.52 301.938 734.798 301.938H752.707C753.263 301.938 753.804 301.72 754.193 301.352L757.83 297.922C758.497 297.283 758.677 296.303 758.275 295.486C757.914 294.764 757.178 294.302 756.359 294.302L756.345 294.288Z" fill="#4DA3A3"/>
<path d="M576.901 358.764L433.304 357.349C433.095 357.349 432.887 357.349 432.679 357.349C429.416 357.349 426.195 357.907 423.127 358.982L416.088 361.473C414.269 362.113 412.367 362.467 410.438 362.521L315.114 365.243C314.572 365.257 314.142 365.693 314.156 366.237C314.156 366.768 314.6 367.203 315.155 367.203H411.201C413.353 367.203 415.491 366.863 417.532 366.21L425.251 363.705C427.903 362.848 430.666 362.412 433.456 362.412L576.887 364.114C577.192 364.114 577.692 361.664 577.692 361.459C577.692 361.242 577.192 358.805 576.901 358.778V358.764Z" fill="#4DA3A3"/>
<path d="M686.372 342.485C686.275 341.41 686.219 340.839 686.219 340.839C686.219 340.839 686.136 341.41 685.983 342.472C685.928 343.003 685.803 343.656 685.65 344.418C685.581 344.799 685.497 345.194 685.414 345.63C685.317 346.065 685.206 346.514 685.095 346.991C685.039 347.236 684.984 347.481 684.928 347.726C684.859 347.971 684.789 348.229 684.72 348.502C684.567 349.019 684.428 349.577 684.262 350.135C684.081 350.693 683.887 351.278 683.679 351.877C683.484 352.476 683.22 353.089 682.984 353.728C681.985 356.246 680.652 358.996 678.889 361.786C677.139 364.576 674.918 367.38 672.28 370.035C671.961 370.375 671.6 370.688 671.253 371.015C670.906 371.341 670.573 371.682 670.212 371.981C669.49 372.607 668.754 373.247 667.976 373.832C667.213 374.445 666.394 375.003 665.588 375.588C665.186 375.874 664.755 376.132 664.339 376.418L663.7 376.827L663.048 377.208C661.312 378.256 659.466 379.181 657.564 380.012C657.078 380.216 656.606 380.406 656.12 380.61C655.634 380.787 655.134 380.964 654.634 381.141C654.148 381.332 653.635 381.482 653.135 381.645C652.635 381.795 652.135 381.985 651.622 382.108C649.581 382.707 647.47 383.074 645.346 383.401C643.222 383.7 641.056 383.823 638.904 383.836L637.252 383.795C636.975 383.795 636.655 383.796 636.405 383.768L635.628 383.714C635.1 383.673 634.6 383.659 634.073 383.591L632.476 383.401C630.352 383.074 628.242 382.693 626.201 382.108C625.687 381.985 625.187 381.795 624.688 381.645C624.188 381.482 623.674 381.332 623.188 381.141C622.688 380.964 622.203 380.787 621.703 380.61C621.217 380.406 620.731 380.202 620.259 380.012C618.357 379.168 616.51 378.256 614.775 377.208L614.122 376.827L613.484 376.418C613.067 376.146 612.637 375.874 612.234 375.588C611.429 375.003 610.61 374.445 609.846 373.832C608.291 372.648 606.875 371.341 605.542 370.035C604.89 369.368 604.237 368.714 603.64 368.02C603.349 367.68 603.029 367.353 602.752 366.999C602.474 366.645 602.183 366.305 601.905 365.965C601.336 365.284 600.85 364.563 600.322 363.882C599.85 363.174 599.378 362.48 598.92 361.786C597.157 358.996 595.824 356.246 594.824 353.728C594.588 353.089 594.338 352.49 594.13 351.877C593.936 351.278 593.741 350.693 593.547 350.135C593.38 349.563 593.228 349.019 593.089 348.502C593.019 348.243 592.95 347.984 592.881 347.726C592.825 347.467 592.77 347.222 592.714 346.991C592.603 346.514 592.492 346.052 592.395 345.63C592.311 345.194 592.228 344.786 592.159 344.418C592.006 343.656 591.895 343.016 591.825 342.485C591.673 341.424 591.589 340.852 591.589 340.852C591.589 340.852 591.534 341.424 591.437 342.499C591.381 343.044 591.353 343.697 591.34 344.486C591.34 344.881 591.312 345.303 591.312 345.752C591.326 346.201 591.34 346.678 591.353 347.195C591.437 349.223 591.673 351.7 592.297 354.491C592.922 357.281 593.908 360.398 595.421 363.651C596.935 366.89 599.031 370.225 601.683 373.437C603.029 375.03 604.501 376.595 606.139 378.065C607.75 379.562 609.555 380.937 611.457 382.244C613.345 383.564 615.413 384.707 617.552 385.756C619.69 386.817 621.967 387.675 624.299 388.41C626.631 389.145 629.047 389.676 631.504 390.057L633.351 390.288C633.962 390.37 634.628 390.397 635.253 390.451L636.211 390.519C636.544 390.547 636.808 390.547 637.1 390.56L638.932 390.615C641.417 390.574 643.902 390.411 646.36 390.043C646.971 389.961 647.582 389.839 648.192 389.73L649.109 389.553L650.011 389.335C650.608 389.186 651.205 389.063 651.802 388.9C652.385 388.723 652.982 388.559 653.565 388.382C655.898 387.647 658.161 386.79 660.299 385.728C662.437 384.68 664.506 383.537 666.394 382.217L667.102 381.74L667.796 381.237C668.254 380.896 668.712 380.57 669.157 380.216C670.031 379.508 670.906 378.814 671.697 378.052C673.335 376.582 674.807 375.016 676.154 373.424C678.806 370.212 680.902 366.89 682.415 363.651C683.929 360.411 684.928 357.294 685.553 354.504C686.192 351.714 686.428 349.237 686.497 347.209C686.511 346.705 686.525 346.229 686.539 345.766C686.539 345.317 686.511 344.881 686.511 344.5C686.497 343.71 686.469 343.057 686.414 342.513L686.372 342.485Z" fill="#4DA3A3"/>
<path d="M644.055 313.249L644.513 313.357C645.124 313.507 645.721 313.643 646.332 313.793C648.706 314.514 650.983 315.426 653.024 316.679C655.023 317.931 656.911 319.306 658.411 320.898C659.23 321.633 659.855 322.504 660.549 323.266C660.729 323.457 660.868 323.661 661.021 323.879C661.173 324.083 661.312 324.287 661.451 324.491C661.729 324.9 662.034 325.294 662.298 325.703C662.534 326.125 662.77 326.533 662.992 326.928C663.214 327.336 663.464 327.717 663.631 328.126C663.811 328.52 664.006 328.915 664.172 329.296C664.339 329.677 664.547 330.045 664.658 330.426C664.922 331.175 665.158 331.882 665.394 332.536C665.575 333.203 665.727 333.815 665.866 334.373C665.935 334.659 666.005 334.918 666.074 335.176C666.13 335.435 666.158 335.666 666.199 335.884C666.269 336.333 666.338 336.714 666.38 337.014C666.491 337.64 666.546 337.967 666.546 337.967C666.546 337.967 666.574 337.626 666.616 337.014C666.63 336.701 666.657 336.306 666.685 335.857C666.685 335.625 666.713 335.38 666.713 335.122C666.699 334.863 666.685 334.577 666.657 334.291C666.616 333.706 666.588 333.039 666.519 332.331C666.408 331.624 666.255 330.861 666.102 330.031C666.047 329.609 665.88 329.215 665.769 328.779C665.644 328.343 665.519 327.908 665.38 327.459C665.269 326.996 665.047 326.56 664.866 326.098C664.672 325.635 664.478 325.172 664.269 324.682C664.047 324.206 663.77 323.756 663.52 323.266C663.395 323.021 663.256 322.79 663.131 322.545C663.006 322.3 662.867 322.055 662.701 321.824C662.048 320.898 661.423 319.891 660.604 318.992C659.091 317.087 657.106 315.386 654.912 313.847C654.343 313.494 653.774 313.126 653.19 312.759C652.607 312.405 651.969 312.132 651.344 311.806C651.039 311.656 650.719 311.493 650.4 311.343C650.067 311.22 649.747 311.084 649.414 310.962C648.748 310.73 648.095 310.445 647.415 310.24C646.721 310.064 646.027 309.873 645.332 309.696L644.805 309.56L644.25 309.465L643.139 309.301L642.028 309.138C641.834 309.111 641.667 309.097 641.501 309.084L640.987 309.056L638.849 308.947C635.947 309.015 633.046 309.397 630.31 310.24C629.63 310.445 628.978 310.717 628.311 310.962C627.978 311.084 627.659 311.22 627.326 311.343C627.006 311.493 626.701 311.656 626.381 311.806C625.771 312.132 625.132 312.405 624.535 312.759C623.952 313.126 623.383 313.48 622.813 313.847C620.62 315.386 618.648 317.087 617.121 318.992C616.302 319.891 615.677 320.898 615.025 321.824C614.858 322.055 614.719 322.3 614.594 322.545C614.456 322.79 614.331 323.035 614.192 323.266C613.942 323.743 613.664 324.206 613.442 324.682C613.234 325.158 613.039 325.635 612.845 326.098C612.665 326.56 612.442 326.996 612.331 327.459C612.193 327.908 612.068 328.357 611.943 328.779C611.832 329.215 611.665 329.609 611.609 330.031C611.457 330.861 611.304 331.624 611.193 332.331C611.124 333.053 611.096 333.72 611.054 334.305C611.04 334.605 611.012 334.877 610.999 335.149C610.999 335.408 611.026 335.653 611.026 335.884C611.054 336.333 611.068 336.728 611.096 337.041C611.137 337.667 611.165 338.007 611.165 338.007C611.165 338.007 611.221 337.681 611.332 337.055C611.387 336.742 611.443 336.36 611.512 335.911C611.554 335.693 611.582 335.448 611.637 335.19C611.707 334.945 611.762 334.673 611.845 334.4C611.984 333.842 612.137 333.23 612.317 332.576C612.567 331.923 612.79 331.215 613.053 330.467C613.164 330.086 613.373 329.732 613.539 329.337C613.72 328.956 613.9 328.561 614.081 328.166C614.247 327.758 614.511 327.377 614.733 326.969C614.955 326.574 615.191 326.152 615.427 325.744C615.677 325.335 615.983 324.941 616.274 324.532C616.413 324.328 616.566 324.124 616.705 323.92C616.844 323.716 616.996 323.498 617.177 323.307C617.871 322.531 618.496 321.66 619.315 320.939C620.814 319.346 622.702 317.972 624.702 316.719C626.729 315.481 629.019 314.569 631.393 313.834C632.004 313.684 632.601 313.548 633.212 313.398L633.67 313.289L634.142 313.221L635.073 313.085L636.003 312.949C636.308 312.895 636.627 312.908 636.947 312.881L638.835 312.799L640.765 312.895L641.278 312.922C641.445 312.922 641.612 312.935 641.764 312.963L642.667 313.099L643.569 313.235L644.013 313.289L644.055 313.249Z" fill="#4DA3A3"/>
<path d="M643.347 341.927C643.305 341.832 643.292 341.778 643.292 341.778C643.292 341.778 643.264 341.832 643.208 341.927C643.167 342.023 643.097 342.172 643 342.336C642.958 342.417 642.903 342.499 642.847 342.594C642.778 342.69 642.722 342.785 642.653 342.88C642.514 343.084 642.334 343.288 642.153 343.479C641.959 343.67 641.737 343.874 641.487 344.037C641.251 344.214 640.973 344.364 640.695 344.486C640.418 344.609 640.112 344.704 639.821 344.772C639.515 344.826 639.21 344.867 638.904 344.867H638.877H638.793H638.627C638.502 344.867 638.446 344.854 638.391 344.84C638.28 344.84 638.113 344.799 637.96 344.772C637.669 344.69 637.363 344.609 637.086 344.486C636.808 344.35 636.53 344.214 636.294 344.037C636.044 343.874 635.836 343.67 635.628 343.479C635.433 343.275 635.267 343.071 635.128 342.88C634.989 342.676 634.864 342.499 634.781 342.322C634.684 342.159 634.628 342.023 634.573 341.927C634.517 341.832 634.489 341.778 634.489 341.778C634.489 341.778 634.462 341.832 634.434 341.927C634.406 342.023 634.323 342.186 634.295 342.39C634.281 342.499 634.253 342.608 634.239 342.73C634.239 342.853 634.239 342.989 634.226 343.139C634.226 343.438 634.281 343.765 634.392 344.132C634.503 344.486 634.67 344.881 634.934 345.235C635.184 345.616 635.517 345.956 635.905 346.269C636.308 346.582 636.766 346.827 637.28 347.004C637.544 347.086 637.794 347.168 638.099 347.208C638.252 347.236 638.404 347.249 638.502 347.249H638.668L638.752 347.263H638.793H638.89C639.446 347.249 639.987 347.168 640.501 346.991C641.015 346.814 641.487 346.569 641.875 346.256C642.264 345.943 642.597 345.602 642.847 345.221C643.097 344.854 643.264 344.473 643.389 344.119C643.5 343.751 643.541 343.425 643.555 343.125C643.555 342.975 643.555 342.839 643.541 342.717C643.528 342.581 643.5 342.472 643.486 342.363C643.458 342.159 643.375 342.023 643.347 341.914V341.927Z" fill="#4DA3A3"/>
<path d="M296.649 344.895C296.551 343.819 296.496 343.248 296.496 343.248C296.496 343.248 296.413 343.819 296.26 344.881C296.204 345.412 296.079 346.065 295.927 346.827C295.857 347.208 295.774 347.603 295.691 348.039C295.593 348.474 295.482 348.923 295.371 349.4C295.316 349.645 295.26 349.89 295.205 350.135C295.135 350.38 295.066 350.638 294.996 350.911C294.844 351.428 294.705 351.986 294.538 352.544C294.358 353.102 294.163 353.687 293.955 354.286C293.761 354.885 293.497 355.498 293.261 356.137C292.261 358.655 290.929 361.405 289.165 364.195C287.416 366.986 285.195 369.789 282.557 372.444C282.237 372.784 281.877 373.097 281.529 373.424C281.182 373.75 280.849 374.091 280.488 374.39C279.766 375.016 279.03 375.656 278.253 376.241C277.489 376.854 276.67 377.412 275.865 377.997C275.462 378.283 275.032 378.541 274.615 378.827L273.977 379.236L273.324 379.617C271.589 380.665 269.742 381.59 267.84 382.421C267.354 382.625 266.882 382.815 266.396 383.02C265.91 383.196 265.411 383.373 264.911 383.55C264.425 383.741 263.911 383.891 263.411 384.054C262.912 384.204 262.412 384.394 261.898 384.517C259.857 385.116 257.747 385.483 255.623 385.81C253.499 386.109 251.333 386.232 249.181 386.245L247.529 386.205C247.251 386.205 246.932 386.205 246.682 386.177L245.904 386.123C245.377 386.082 244.877 386.068 244.349 386L242.753 385.81C240.629 385.483 238.518 385.102 236.491 384.517C235.978 384.394 235.478 384.204 234.978 384.054C234.478 383.891 233.965 383.741 233.479 383.55C232.979 383.373 232.493 383.196 231.993 383.02C231.507 382.815 231.021 382.611 230.549 382.421C228.647 381.577 226.801 380.665 225.065 379.617L224.413 379.236L223.774 378.827C223.358 378.555 222.927 378.283 222.525 377.997C221.719 377.412 220.9 376.854 220.137 376.241C218.582 375.057 217.166 373.75 215.833 372.444C215.18 371.777 214.528 371.123 213.931 370.429C213.639 370.089 213.32 369.762 213.042 369.408C212.764 369.054 212.473 368.714 212.195 368.374C211.626 367.693 211.14 366.972 210.613 366.291C210.141 365.584 209.668 364.889 209.21 364.195C207.447 361.405 206.114 358.655 205.115 356.137C204.879 355.498 204.629 354.899 204.421 354.286C204.226 353.687 204.032 353.102 203.837 352.544C203.671 351.972 203.518 351.428 203.379 350.911C203.31 350.652 203.24 350.393 203.171 350.135C203.115 349.876 203.06 349.631 203.004 349.4C202.893 348.923 202.782 348.461 202.685 348.039C202.602 347.603 202.518 347.195 202.449 346.827C202.296 346.065 202.185 345.425 202.116 344.895C201.963 343.833 201.88 343.261 201.88 343.261C201.88 343.261 201.824 343.833 201.727 344.908C201.672 345.453 201.644 346.106 201.63 346.895C201.63 347.29 201.602 347.712 201.602 348.161C201.616 348.61 201.63 349.087 201.644 349.604C201.727 351.632 201.963 354.109 202.588 356.9C203.213 359.69 204.198 362.807 205.712 366.06C207.225 369.299 209.321 372.634 211.973 375.846C213.32 377.439 214.791 379.004 216.43 380.474C218.04 381.971 219.845 383.346 221.747 384.653C223.635 385.973 225.704 387.117 227.842 388.165C229.98 389.226 232.257 390.084 234.589 390.819C236.922 391.554 239.337 392.085 241.795 392.466L243.641 392.697C244.252 392.779 244.919 392.806 245.543 392.86L246.501 392.928C246.835 392.956 247.098 392.956 247.39 392.969L249.223 393.024C251.708 392.983 254.193 392.82 256.65 392.452C257.261 392.37 257.872 392.248 258.483 392.139L259.399 391.962L260.302 391.744C260.899 391.595 261.496 391.472 262.093 391.309C262.676 391.132 263.273 390.968 263.856 390.792C266.188 390.057 268.451 389.199 270.589 388.137C272.727 387.089 274.796 385.946 276.684 384.626L277.392 384.149L278.086 383.646C278.544 383.305 279.003 382.979 279.447 382.625C280.322 381.917 281.196 381.223 281.988 380.461C283.626 378.991 285.097 377.425 286.444 375.833C289.096 372.621 291.192 369.299 292.706 366.06C294.219 362.821 295.219 359.704 295.843 356.9C296.482 354.109 296.718 351.632 296.787 349.604C296.801 349.1 296.815 348.624 296.829 348.161C296.829 347.712 296.801 347.276 296.801 346.895C296.787 346.106 296.76 345.453 296.704 344.908L296.649 344.895Z" fill="#4DA3A3"/>
<path d="M254.346 318.298L254.804 318.407C255.415 318.557 256.012 318.693 256.622 318.843C258.996 319.564 261.287 320.476 263.314 321.728C265.313 322.98 267.202 324.355 268.701 325.948C269.52 326.683 270.145 327.554 270.839 328.316C271.02 328.507 271.158 328.711 271.311 328.929C271.464 329.133 271.603 329.337 271.742 329.541C272.019 329.949 272.325 330.344 272.588 330.752C272.824 331.174 273.06 331.583 273.283 331.977C273.505 332.386 273.755 332.767 273.921 333.175C274.102 333.57 274.296 333.965 274.463 334.346C274.629 334.727 274.838 335.094 274.949 335.476C275.212 336.224 275.448 336.932 275.684 337.585C275.865 338.252 276.018 338.865 276.156 339.423C276.226 339.709 276.295 339.967 276.365 340.226C276.42 340.485 276.448 340.716 276.49 340.934C276.559 341.383 276.629 341.764 276.67 342.063C276.781 342.69 276.837 343.016 276.837 343.016C276.837 343.016 276.865 342.676 276.906 342.063C276.92 341.75 276.948 341.356 276.976 340.906C276.976 340.675 277.003 340.43 277.003 340.171C276.99 339.913 276.976 339.627 276.948 339.341C276.906 338.756 276.878 338.089 276.809 337.381C276.698 336.673 276.545 335.911 276.393 335.081C276.337 334.659 276.17 334.264 276.059 333.829C275.934 333.393 275.809 332.957 275.671 332.508C275.559 332.046 275.337 331.61 275.157 331.147C274.963 330.684 274.768 330.222 274.56 329.732C274.338 329.255 274.06 328.806 273.81 328.316C273.685 328.071 273.546 327.84 273.421 327.595C273.296 327.35 273.158 327.105 272.991 326.873C272.339 325.948 271.714 324.94 270.895 324.042C269.381 322.137 267.396 320.435 265.202 318.897C264.633 318.543 264.064 318.176 263.481 317.808C262.898 317.454 262.259 317.182 261.634 316.855C261.329 316.706 261.01 316.542 260.69 316.393C260.357 316.27 260.038 316.134 259.705 316.012C259.038 315.78 258.386 315.494 257.705 315.29C257.011 315.113 256.317 314.923 255.623 314.746L255.095 314.61L254.54 314.514L253.429 314.351L252.319 314.188C252.124 314.16 251.958 314.147 251.791 314.133L251.277 314.106L249.139 313.997C246.238 314.065 243.336 314.446 240.601 315.29C239.921 315.494 239.268 315.767 238.602 316.012C238.268 316.134 237.949 316.27 237.616 316.393C237.297 316.542 236.991 316.706 236.672 316.855C236.061 317.168 235.422 317.454 234.825 317.808C234.242 318.176 233.673 318.53 233.104 318.897C230.91 320.435 228.939 322.137 227.412 324.042C226.592 324.94 225.968 325.948 225.315 326.873C225.149 327.105 225.01 327.35 224.885 327.595C224.746 327.84 224.621 328.085 224.482 328.316C224.232 328.792 223.955 329.255 223.732 329.732C223.524 330.208 223.33 330.684 223.135 331.147C222.955 331.61 222.719 332.046 222.622 332.508C222.483 332.957 222.358 333.407 222.233 333.829C222.122 334.264 221.955 334.659 221.9 335.081C221.747 335.911 221.594 336.673 221.483 337.381C221.414 338.103 221.386 338.769 221.344 339.355C221.331 339.654 221.303 339.926 221.289 340.199C221.289 340.457 221.317 340.702 221.317 340.934C221.344 341.383 221.358 341.778 221.386 342.091C221.428 342.717 221.456 343.057 221.456 343.057C221.456 343.057 221.511 342.73 221.622 342.104C221.678 341.791 221.733 341.41 221.803 340.961C221.844 340.743 221.872 340.498 221.928 340.239C221.997 339.994 222.053 339.722 222.122 339.45C222.261 338.892 222.414 338.279 222.594 337.626C222.844 336.973 223.066 336.265 223.33 335.516C223.441 335.135 223.649 334.781 223.816 334.387C223.996 334.006 224.177 333.611 224.357 333.216C224.524 332.808 224.788 332.427 225.01 332.018C225.232 331.624 225.468 331.202 225.704 330.793C225.954 330.385 226.259 329.99 226.551 329.582C226.69 329.378 226.842 329.174 226.981 328.969C227.12 328.765 227.273 328.547 227.453 328.357C228.147 327.581 228.772 326.71 229.591 325.989C231.091 324.396 232.979 323.021 234.978 321.769C237.005 320.53 239.296 319.618 241.67 318.883C242.281 318.734 242.878 318.598 243.489 318.448L243.947 318.339L244.419 318.271L245.349 318.135L246.279 317.999C246.585 317.944 246.904 317.958 247.223 317.931L249.111 317.849L251.041 317.944L251.555 317.972C251.722 317.972 251.888 317.985 252.041 318.012L252.943 318.148L253.846 318.285L254.29 318.339L254.346 318.298Z" fill="#4DA3A3"/>
<path d="M253.624 344.323C253.582 344.228 253.568 344.173 253.568 344.173C253.568 344.173 253.54 344.228 253.485 344.323C253.443 344.418 253.374 344.568 253.277 344.731C253.235 344.813 253.179 344.895 253.124 344.99C253.054 345.085 252.999 345.18 252.929 345.276C252.791 345.48 252.61 345.684 252.43 345.875C252.235 346.065 252.013 346.269 251.763 346.433C251.527 346.61 251.25 346.759 250.972 346.882C250.694 347.004 250.389 347.1 250.097 347.168C249.792 347.222 249.486 347.263 249.181 347.263H249.153H249.07H248.903C248.778 347.263 248.723 347.249 248.667 347.236C248.556 347.236 248.39 347.195 248.237 347.168C247.945 347.086 247.64 347.004 247.362 346.882C247.084 346.746 246.807 346.61 246.571 346.433C246.321 346.269 246.113 346.065 245.904 345.875C245.71 345.67 245.543 345.466 245.405 345.276C245.266 345.072 245.141 344.895 245.057 344.718C244.96 344.554 244.905 344.418 244.849 344.323C244.794 344.228 244.766 344.173 244.766 344.173C244.766 344.173 244.738 344.228 244.697 344.323C244.669 344.418 244.585 344.582 244.558 344.786C244.544 344.895 244.516 345.003 244.502 345.126C244.502 345.248 244.502 345.385 244.488 345.534C244.488 345.834 244.544 346.16 244.655 346.528C244.766 346.882 244.933 347.277 245.196 347.63C245.446 348.012 245.779 348.352 246.168 348.665C246.571 348.978 247.029 349.223 247.543 349.4C247.806 349.482 248.056 349.563 248.362 349.604C248.514 349.631 248.667 349.645 248.764 349.645H248.931L249.014 349.659H249.056H249.153C249.708 349.645 250.25 349.563 250.764 349.386C251.277 349.209 251.749 348.964 252.138 348.651C252.527 348.338 252.874 347.998 253.11 347.617C253.36 347.249 253.526 346.868 253.651 346.514C253.762 346.147 253.804 345.82 253.818 345.521C253.818 345.371 253.818 345.235 253.804 345.112C253.79 344.976 253.762 344.867 253.749 344.758C253.721 344.554 253.637 344.418 253.61 344.309L253.624 344.323Z" fill="#4DA3A3"/>
<path d="M170.184 313.97H149.345C148.303 313.97 147.693 315.113 148.276 315.957L149.72 318.012C150.65 319.346 152.191 320.136 153.843 320.136H170.184C171.558 320.136 172.669 319.047 172.669 317.699V316.42C172.669 315.072 171.558 313.983 170.184 313.983V313.97Z" fill="#4DA3A3"/>
<path d="M158.36 420.08C158.36 421.467 158.013 422.627 157.32 423.56C156.627 424.493 155.64 425.2 154.36 425.68C153.08 426.16 151.56 426.4 149.8 426.4C148.307 426.4 147.013 426.28 145.92 426.04C144.853 425.8 143.907 425.467 143.08 425.04V421.84C143.933 422.267 144.96 422.667 146.16 423.04C147.387 423.387 148.627 423.56 149.88 423.56C151.667 423.56 152.96 423.28 153.76 422.72C154.56 422.133 154.96 421.36 154.96 420.4C154.96 419.867 154.813 419.387 154.52 418.96C154.227 418.533 153.693 418.107 152.92 417.68C152.173 417.253 151.093 416.773 149.68 416.24C148.293 415.707 147.107 415.173 146.12 414.64C145.133 414.107 144.373 413.467 143.84 412.72C143.307 411.973 143.04 411.013 143.04 409.84C143.04 408.027 143.773 406.627 145.24 405.64C146.733 404.653 148.68 404.16 151.08 404.16C152.387 404.16 153.6 404.293 154.72 404.56C155.867 404.8 156.933 405.147 157.92 405.6L156.72 408.4C156.133 408.133 155.507 407.907 154.84 407.72C154.2 407.507 153.547 407.347 152.88 407.24C152.213 407.107 151.533 407.04 150.84 407.04C149.4 407.04 148.293 407.28 147.52 407.76C146.773 408.213 146.4 408.84 146.4 409.64C146.4 410.227 146.573 410.733 146.92 411.16C147.267 411.56 147.84 411.96 148.64 412.36C149.467 412.733 150.56 413.187 151.92 413.72C153.28 414.227 154.44 414.747 155.4 415.28C156.36 415.813 157.093 416.467 157.6 417.24C158.107 417.987 158.36 418.933 158.36 420.08Z" fill="#4DA3A3"/>
<path d="M267.1 404.52C267.1 405.027 267.073 405.547 267.02 406.08C266.993 406.613 266.953 407.093 266.9 407.52H267.14C267.593 406.773 268.166 406.16 268.86 405.68C269.553 405.2 270.326 404.84 271.18 404.6C272.033 404.333 272.913 404.2 273.82 404.2C275.553 404.2 276.993 404.48 278.14 405.04C279.313 405.573 280.193 406.413 280.78 407.56C281.366 408.707 281.66 410.2 281.66 412.04V426H278.18V412.28C278.18 410.547 277.793 409.253 277.02 408.4C276.246 407.547 275.033 407.12 273.38 407.12C271.78 407.12 270.526 407.427 269.62 408.04C268.713 408.627 268.06 409.507 267.66 410.68C267.286 411.827 267.1 413.24 267.1 414.92V426H263.58V395.6H267.1V404.52Z" fill="#4DA3A3"/>
<path d="M391.826 404.56V426H388.306V404.56H391.826ZM390.106 396.52C390.64 396.52 391.106 396.707 391.506 397.08C391.933 397.427 392.146 397.987 392.146 398.76C392.146 399.507 391.933 400.067 391.506 400.44C391.106 400.813 390.64 401 390.106 401C389.52 401 389.026 400.813 388.626 400.44C388.226 400.067 388.026 399.507 388.026 398.76C388.026 397.987 388.226 397.427 388.626 397.08C389.026 396.707 389.52 396.52 390.106 396.52Z" fill="#4DA3A3"/>
<path d="M507.219 426.4C505.325 426.4 503.632 426.013 502.139 425.24C500.672 424.467 499.512 423.267 498.659 421.64C497.832 420.013 497.419 417.933 497.419 415.4C497.419 412.76 497.859 410.613 498.739 408.96C499.619 407.307 500.805 406.093 502.299 405.32C503.819 404.547 505.539 404.16 507.459 404.16C508.552 404.16 509.605 404.28 510.619 404.52C511.632 404.733 512.459 405 513.099 405.32L512.019 408.24C511.379 408 510.632 407.773 509.779 407.56C508.925 407.347 508.125 407.24 507.379 407.24C505.939 407.24 504.752 407.547 503.819 408.16C502.885 408.773 502.192 409.68 501.739 410.88C501.285 412.08 501.059 413.573 501.059 415.36C501.059 417.067 501.285 418.52 501.739 419.72C502.192 420.92 502.872 421.827 503.779 422.44C504.685 423.053 505.819 423.36 507.179 423.36C508.352 423.36 509.379 423.24 510.259 423C511.165 422.76 511.992 422.467 512.739 422.12V425.24C512.019 425.613 511.219 425.893 510.339 426.08C509.485 426.293 508.445 426.4 507.219 426.4Z" fill="#4DA3A3"/>
<path d="M621.358 404.52C621.358 405.027 621.331 405.547 621.278 406.08C621.251 406.613 621.211 407.093 621.158 407.52H621.398C621.851 406.773 622.424 406.16 623.118 405.68C623.811 405.2 624.584 404.84 625.438 404.6C626.291 404.333 627.171 404.2 628.078 404.2C629.811 404.2 631.251 404.48 632.398 405.04C633.571 405.573 634.451 406.413 635.038 407.56C635.624 408.707 635.918 410.2 635.918 412.04V426H632.438V412.28C632.438 410.547 632.051 409.253 631.278 408.4C630.504 407.547 629.291 407.12 627.638 407.12C626.038 407.12 624.784 407.427 623.878 408.04C622.971 408.627 622.318 409.507 621.918 410.68C621.544 411.827 621.358 413.24 621.358 414.92V426H617.838V395.6H621.358V404.52Z" fill="#4DA3A3"/>
<path d="M746.084 404.56V426H742.564V404.56H746.084ZM744.364 396.52C744.897 396.52 745.364 396.707 745.764 397.08C746.191 397.427 746.404 397.987 746.404 398.76C746.404 399.507 746.191 400.067 745.764 400.44C745.364 400.813 744.897 401 744.364 401C743.777 401 743.284 400.813 742.884 400.44C742.484 400.067 742.284 399.507 742.284 398.76C742.284 397.987 742.484 397.427 742.884 397.08C743.284 396.707 743.777 396.52 744.364 396.52Z" fill="#4DA3A3"/>
</svg>
