<svg width="968" height="245" viewBox="0 0 968 245" fill="none" xmlns="http://www.w3.org/2000/svg">
<path d="M122.558 211.97L136.128 220.976C136.128 220.976 149.904 213.596 157.448 213.883C164.991 214.17 259.603 216.542 259.603 216.542L278.777 217.942L309.013 179.28L307.095 114.595L230.056 86.8672L160.905 92.2112L128.217 120.386L107.156 163.878L122.558 211.97Z" fill="black"/>
<path d="M945.787 162.155L945.047 165.481C945.047 165.481 929.895 186.67 910.184 190.243C890.473 193.816 891.951 194.556 891.951 194.556C891.951 194.556 859.798 202.194 848.094 195.663C836.39 189.134 738.573 203.672 738.573 203.672L725.391 209.093L711.347 211.803C711.347 211.803 683.751 185.686 683.751 185.317C683.751 184.947 682.766 159.569 682.766 159.569L709.006 87.8713L763.827 55.5942L791.054 51.4062C791.054 51.4062 872.979 79.2483 872.979 79.8643C872.979 80.4793 883.081 105.735 883.081 105.735L906.242 139.982L925.337 149.468L945.787 162.155Z" fill="#070707"/>
<path d="M956.628 143.062C956.628 143.062 959.584 160.678 957.859 164.62C957.859 164.62 928.646 169.237 924.836 168.469C921.024 167.701 913.701 156.49 913.701 156.49L956.628 143.062Z" fill="#332C2B"/>
<path d="M941.642 92.353C941.944 91.723 942.238 91.018 942.475 90.248C943.336 87.448 940.524 84.8621 940.524 84.8621L908.355 82.5029C908.355 82.5029 885.205 113.949 884.774 114.703C884.344 115.457 897.643 132.474 897.643 132.474H910.789L922.246 91.7561L941.642 92.353Z" fill="#473D3C"/>
<path d="M947.438 125.682L940.545 118.244L940.004 95.0938C940.004 95.0938 940.848 94.0108 941.641 92.3538L922.245 91.7568L910.788 132.475H936.351L947.438 125.682Z" fill="#332C2B"/>
<path d="M954.764 54.9307C954.764 54.9307 955.624 61.9298 951.425 67.2048C947.226 72.4808 943.227 82.0566 943.227 82.0566L913.954 83.0337L912.662 66.4517L928.922 53.4238L954.764 54.9307Z" fill="#3D000D"/>
<path d="M230.271 72.9336L222.132 74.7275L215.098 73.8315C215.098 73.8315 289.172 36.2425 396.903 12.1025L399.093 32.1016L238.666 84.3015L230.271 72.9336Z" fill="#636363"/>
<path d="M31.4307 202.007L8.76562 215.548C12.5706 217.939 22.7096 219.442 41.5046 219.751C63.0226 220.106 136.128 220.977 136.128 220.977C136.128 220.977 136.493 220.613 136.138 218.657C136.045 218.145 133.53 209.258 131.788 196.473L61.2756 195.744L31.4307 202.007Z" fill="#C92505"/>
<path d="M967.271 126.868C964.848 117.476 960.634 120.507 960.634 120.507L943.075 119.901L940.059 114.144L939.756 122.627L944.604 126.263L922.79 127.476L905.218 118.386L914.61 86.2699L940.969 86.5728L943.998 80.5138L916.125 80.8167L921.578 64.4559C921.578 64.4559 950.664 55.67 953.693 56.579C956.722 57.488 958.844 54.4579 957.631 53.5489C956.42 52.6399 707.979 10.2238 625.871 5.07285C543.765 -0.0771523 440.146 -4.92626 388.64 13.8587L390.458 17.495C390.458 17.495 260.596 49.7398 223.82 73.2428C223.82 73.2428 142.32 69.6059 49.3049 124.749C49.3049 124.749 20.8259 133.536 0.525879 159.591C0.525879 159.591 14.4149 184.375 23.0739 189.101C23.0739 189.101 5.18885 211.433 7.50085 214.455C7.79385 214.838 8.21289 215.202 8.76489 215.549L31.4299 202.008L61.2759 195.744L131.788 196.473C126.867 160.344 128.132 93.0748 207.76 95.6668C310.165 98.9998 277.446 218.977 277.446 218.977L712.523 212.31L699.193 170.498C699.193 170.498 698.814 80.5128 779.709 77.4828C860.605 74.4538 868.104 141.714 868.104 141.714V180.193L891.661 164.74C891.661 164.74 919.042 170.194 927.525 168.073C936.007 165.953 969.694 136.262 967.271 126.868Z" fill="#D5CC00"/>
<path d="M6.54688 159.296C6.54688 159.296 44.6359 141.365 113.546 135.154C113.546 135.154 36.0799 150.388 35.9629 154.139C35.8459 157.89 61.2759 196.563 61.2759 196.563C61.2759 196.563 7.13288 181.094 6.54688 159.296Z" fill="#BC2304"/>
<path d="M658.375 41.3127L682.681 44.5337C682.681 44.5337 622.237 16.5847 609.966 15.2207C597.695 13.8567 441.128 1.54173 387.038 23.3547C332.949 45.1687 500.439 38.7497 500.439 38.7497L658.375 41.3127Z" fill="#7F0619"/>
<path d="M581.032 19.9175C581.032 19.9175 468.627 2.95051 389.852 22.6445C311.079 42.3375 244.727 76.5744 244.727 76.5744C247.501 77.2394 250.204 77.8654 252.849 78.4624C267.572 72.1664 338.781 41.8155 347.739 39.9145C357.737 37.7945 443.177 12.0415 534.676 18.7065C534.676 18.7065 579.821 20.5235 585.576 36.5825C587.489 41.9195 586.953 46.6834 585.392 50.6704C597.4 48.8764 604.663 47.7925 604.663 47.7925L581.032 19.9175Z" fill="#484949"/>
<path d="M585.576 36.5825C582.673 28.4825 569.753 24.0085 557.656 21.5605L559.921 54.4785C569.703 53.0155 578.362 51.7214 585.393 50.6704C586.953 46.6834 587.489 41.9195 585.576 36.5825Z" fill="#636363"/>
<path d="M534.676 18.706C443.178 12.041 357.738 37.794 347.739 39.914C338.781 41.814 267.572 72.1658 252.849 78.4618C325.017 94.7418 349.714 86.4919 362.281 84.3009C370.443 82.8769 463.468 68.9139 531.846 58.6789L536.727 18.8229C535.422 18.7359 534.676 18.706 534.676 18.706Z" fill="#636363"/>
<path d="M536.728 18.8223L531.847 58.6782C541.846 57.1812 551.319 55.7643 559.921 54.4773L557.656 21.5593C548.843 19.7753 540.47 19.0683 536.728 18.8223Z" fill="#484949"/>
<path d="M671.017 41.7322L609.208 16.2812L593.757 17.6072L584.668 23.5522L603.812 47.9182C603.812 47.9182 642.536 39.3082 671.017 41.7322Z" fill="#484949"/>
<path d="M594.06 18.8223L617.691 38.0193L607.997 45.7932L588.304 23.2512L594.06 18.8223Z" fill="#050505"/>
<path d="M104.287 102.457C104.287 102.457 69.4799 110.661 55.6509 119.802C41.8219 128.944 34.6729 138.319 34.6729 138.319C34.6729 138.319 44.2819 138.085 46.9789 135.974C49.6749 133.865 80.9649 111.481 104.287 102.457Z" fill="#221411"/>
<path d="M36.7827 159.296L21.7817 166.445C21.7817 166.445 27.6408 169.609 28.6958 172.422C29.7518 175.234 32.6807 180.156 32.0947 183.203C31.5087 186.25 28.3447 203.243 28.3447 203.243L46.8607 205.704L61.2758 195.743C61.2758 195.743 41.7057 155.897 36.7827 159.296Z" fill="#221411"/>
<path d="M134.454 141.131C134.454 141.131 103.701 143.359 104.287 148.749C104.873 154.139 132.61 148.28 132.61 148.28L134.454 141.131Z" fill="#FDD8C5"/>
<path d="M726.813 51.4043C726.813 51.4043 524.785 74.6142 471.264 83.0322C417.743 91.4522 273.094 114.595 273.094 114.595C273.094 114.595 679.56 62.9493 726.813 51.4043Z" fill="#BC2304"/>
<path d="M563.358 71.6846C563.358 71.6846 628.45 72.3265 654.487 84.3005C654.487 84.3005 616.396 150.731 608.923 155.808C601.45 160.885 538.517 177.28 529.482 178.725C520.446 180.172 286.595 191.745 286.595 191.745L524.303 175.833C524.303 175.833 565.188 170.046 572.229 164.26C579.27 158.474 624.594 118.938 613.503 103.99C602.413 89.0415 563.358 71.6846 563.358 71.6846Z" fill="#BC2304"/>
<path d="M621.127 76.8525L629.69 86.8975C629.69 86.8975 601.039 155.069 574.692 165.607C574.692 165.607 598.246 162.729 604.665 157.83C611.083 152.93 654.488 86.5295 654.488 85.4155C654.488 84.3015 631.83 77.3455 621.127 76.8525Z" fill="#121117"/>
<path d="M303.437 190.149C301.373 190.149 300.48 190.12 300.424 190.118L299.416 190.079L299.559 189.081C301.472 175.692 285.87 110.57 285.711 109.914L285.564 109.303L317.977 87.3469L318.997 88.853L287.626 110.102C289.281 117.036 302.587 173.384 301.468 188.321C308.529 188.409 356.519 188.297 528.822 174.19L563.017 77.9929L563.133 77.8611C566.359 74.2041 568.974 70.368 568.92 69.385C567.845 68.119 558.21 60.4899 552.285 55.8989L553.398 54.4609C555.012 55.7119 569.206 66.7321 570.419 68.3521C571.742 70.1161 568.022 75.0489 564.611 78.9309L530.139 175.906L529.554 175.954C368.351 189.158 315.594 190.148 303.437 190.149Z" fill="#0F0503"/>
<path d="M309.014 196.791L333.404 213.884L510.475 211.579L335.709 210.619L309.014 196.791Z" fill="#0F0503"/>
<path d="M278.777 173.388C278.777 212.577 247.009 244.345 207.82 244.345C168.632 244.345 136.865 212.577 136.865 173.388C136.865 134.2 168.633 102.434 207.82 102.434C247.01 102.434 278.777 134.2 278.777 173.388Z" fill="#27262C"/>
<path d="M154.388 173.388C154.388 202.992 178.387 226.99 207.992 226.99C237.595 226.99 261.589 202.992 261.589 173.388C261.589 143.787 237.595 119.789 207.992 119.789C178.387 119.789 154.388 143.787 154.388 173.388Z" fill="#C3BFBE"/>
<path d="M189.391 137.452L201.794 151.55C201.794 151.55 203.937 154.933 206.868 154.933C209.803 154.933 211.945 152.564 211.945 152.564L224.913 137.453C224.913 137.453 226.718 135.309 224.913 133.845C223.11 132.378 216.78 130.238 207.992 130.238C199.2 130.236 186.231 132.603 189.391 137.452Z" fill="#27262C"/>
<path d="M189.389 209.326L201.79 195.228C201.79 195.228 203.936 191.846 206.867 191.846C209.8 191.846 211.945 194.213 211.945 194.213L224.911 209.325C224.911 209.325 226.718 211.468 224.911 212.932C223.107 214.399 216.778 216.541 207.99 216.541C199.199 216.543 186.231 214.174 189.389 209.326Z" fill="#27262C"/>
<path d="M244.365 155.469L230.271 167.873C230.271 167.873 226.885 170.016 226.885 172.946C226.885 175.882 229.254 178.022 229.254 178.022L244.364 190.992C244.364 190.992 246.509 192.798 247.971 190.992C249.44 189.188 251.583 182.858 251.583 174.069C251.585 165.278 249.215 152.311 244.365 155.469Z" fill="#27262C"/>
<path d="M172.497 155.47L186.593 167.873C186.593 167.873 189.975 170.016 189.975 172.947C189.975 175.881 187.607 178.021 187.607 178.021L172.498 190.992C172.498 190.992 170.352 192.798 168.884 190.992C167.42 189.186 165.276 182.859 165.276 174.068C165.274 165.279 167.645 152.31 172.497 155.47Z" fill="#27262C"/>
<path d="M857.998 160.433C857.998 200.252 825.72 232.531 785.9 232.531C746.083 232.531 713.805 200.253 713.805 160.433C713.805 120.615 746.082 88.3369 785.9 88.3369C825.72 88.3369 857.998 120.614 857.998 160.433Z" fill="#27262C"/>
<path d="M731.609 160.433C731.609 190.512 755.994 214.896 786.076 214.896C816.153 214.896 840.533 190.512 840.533 160.433C840.533 130.355 816.153 105.972 786.076 105.972C755.994 105.972 731.609 130.354 731.609 160.433Z" fill="#C3BFBE"/>
<path d="M767.175 123.919L779.778 138.242C779.778 138.242 781.956 141.68 784.934 141.68C787.915 141.68 790.092 139.273 790.092 139.273L803.269 123.919C803.269 123.919 805.102 121.741 803.269 120.252C801.437 118.763 795.005 116.587 786.077 116.587C777.143 116.587 763.965 118.993 767.175 123.919Z" fill="#27262C"/>
<path d="M767.174 196.948L779.774 182.624C779.774 182.624 781.956 179.186 784.932 179.186C787.912 179.186 790.092 181.592 790.092 181.592L803.267 196.947C803.267 196.947 805.102 199.124 803.267 200.612C801.434 202.102 795.003 204.28 786.075 204.28C777.141 204.281 763.965 201.874 767.174 196.948Z" fill="#27262C"/>
<path d="M823.033 142.225L808.712 154.829C808.712 154.829 805.273 157.007 805.273 159.984C805.273 162.965 807.68 165.141 807.68 165.141L823.034 178.321C823.034 178.321 825.214 180.155 826.699 178.321C828.191 176.487 830.37 170.055 830.37 161.126C830.369 152.192 827.961 139.017 823.033 142.225Z" fill="#27262C"/>
<path d="M750.01 142.225L764.333 154.829C764.333 154.829 767.769 157.006 767.769 159.984C767.769 162.965 765.362 165.14 765.362 165.14L750.01 178.319C750.01 178.319 747.83 180.154 746.337 178.319C744.851 176.485 742.672 170.055 742.672 161.125C742.672 152.192 745.079 139.014 750.01 142.225Z" fill="#27262C"/>
<path d="M707.505 121.229L695.497 125.534L671.672 164.228L687.491 200.823L705.79 202.349L691.685 197.2L681.011 165.606L697.402 127.439L707.505 121.229Z" fill="#030400"/>
<path d="M843.597 91.7563L873.649 81.7852C873.649 81.7852 876.854 85.5563 875.569 86.7703C874.284 87.9843 847.791 97.1343 847.791 97.1343C847.791 97.1343 844.74 92.4763 843.597 91.7563Z" fill="#FFD5BE"/>
</svg>
