<svg width="345" height="156" viewBox="0 0 345 156" fill="none" xmlns="http://www.w3.org/2000/svg">
<path opacity="0.54" d="M325.33 142.3H8.87C5.48449 142.3 2.73999 145.044 2.73999 148.43V149.01C2.73999 152.395 5.48449 155.14 8.87 155.14H325.33C328.716 155.14 331.46 152.395 331.46 149.01V148.43C331.46 145.044 328.716 142.3 325.33 142.3Z" fill="#D1D3D4"/>
<path d="M344.17 83.65V121.06L328.5 129.88H11.6899C-0.790079 125.29 1.25993 108.6 1.25993 108.6C-1.86007 59.89 11.7999 11.02 11.7999 11.02C11.8799 10.92 11.9699 10.8 12.0799 10.68C12.6299 9.98998 13.5099 8.96998 14.4899 7.82998C17.4099 4.43998 21.3999 -2.32819e-05 21.3999 -2.32819e-05H251.33C262.47 -0.0700233 272.79 3.09998 281.98 7.82998C283.71 8.71998 285.4 9.66998 287.05 10.65L287.1 10.68C310.34 24.67 325.08 47.42 325.08 47.42C341.45 53.26 344.17 83.65 344.17 83.65Z" fill="#BCBEC0"/>
<path d="M236.16 125.45C236.16 126.95 236.26 128.43 236.45 129.88H303.09C303.28 128.43 303.38 126.95 303.38 125.45C303.38 106.92 288.3 91.84 269.77 91.84C251.24 91.84 236.16 106.92 236.16 125.45Z" fill="#C9243C"/>
<path d="M40.3398 125.45C40.3398 126.95 40.4399 128.43 40.6299 129.88H107.27C107.46 128.43 107.56 126.95 107.56 125.45C107.56 106.92 92.4799 91.84 73.9499 91.84C55.4199 91.84 40.3398 106.92 40.3398 125.45Z" fill="#C9243C"/>
<path d="M219.89 61.05V13.49H251.72C260.29 13.49 269.08 15.43 277.83 19.26C285.02 22.41 292.22 26.82 299.21 32.39C310.76 41.59 317.98 60.07 318.73 61.06H219.89V61.05Z" fill="#58595B"/>
<path d="M295.88 34.67C289.45 29.66 282.87 25.65 276.3 22.78C268.04 19.17 259.77 17.34 251.73 17.34H251.35H223.75V57.21H295.89V34.67H295.88Z" fill="#6D6E71"/>
<path d="M323.81 72.72C323.81 72.72 323.8 93.64 331.35 95.63C331.72 95.73 332.11 95.76 332.5 95.76H344.17V83.66C344.17 83.66 343.74 78.87 342.2 72.72H323.81Z" fill="#FFDE17"/>
<path d="M323.81 72.72C323.81 72.72 323.8 93.64 331.35 95.63C331.72 95.73 332.11 95.76 332.5 95.76H344.17V92.3H336.97C336.59 92.3 336.2 92.27 335.82 92.17C330.21 90.69 328.77 78.75 328.4 72.72H323.8H323.81Z" fill="#FFB31A"/>
<path d="M2.14 66.13H7.31999C9.46999 66.13 11.22 67.88 11.22 70.03V99.37C11.22 99.37 7.99997 105.2 1.20997 108.03C0.329973 93.64 0.899997 79.25 2.14 66.13Z" fill="#FF453E"/>
<path d="M11.2299 70.04V99.38C11.2299 99.38 8.3299 104.6 2.2699 107.56C5.4899 104.89 7.0499 102.08 7.0499 102.08V72.74C7.0499 70.58 5.2999 68.84 3.1499 68.84H1.8999C1.9799 67.94 2.04992 67.02 2.13992 66.14H7.3299C9.4799 66.14 11.2299 67.88 11.2299 70.04Z" fill="#E4453E"/>
<path opacity="0.45" d="M318.56 61.06H315.71V129.89H318.56V61.06Z" fill="#6D6E71"/>
<path opacity="0.45" d="M287.1 10.68H12.0701C12.6201 9.98996 13.5001 8.96996 14.4801 7.82996H281.99L287.06 10.65L287.11 10.68H287.1Z" fill="#6D6E71"/>
<path opacity="0.45" d="M210.92 75.59H113.2V78.44H210.92V75.59Z" fill="#6D6E71"/>
<path opacity="0.45" d="M212.84 9.81995H209.99V129.89H212.84V9.81995Z" fill="#6D6E71"/>
<path d="M257.03 71.59H238.71C238.71 73.95 240.62 75.85 242.97 75.85H252.76C255.12 75.85 257.02 73.94 257.02 71.59H257.03Z" fill="#58595B"/>
<path d="M238.71 70.35H257.03C257.03 68.73 255.72 67.42 254.1 67.42H241.64C240.02 67.42 238.71 68.73 238.71 70.35Z" fill="#58595B"/>
<path d="M130.64 76.6H112.32C112.32 78.95 114.23 80.86 116.58 80.86H126.37C128.72 80.86 130.63 78.95 130.63 76.6H130.64Z" fill="#58595B"/>
<path d="M112.32 75.36H130.64C130.64 73.74 129.33 72.43 127.71 72.43H115.25C113.63 72.43 112.32 73.74 112.32 75.36Z" fill="#58595B"/>
<path opacity="0.45" d="M117.64 130.04C115.08 106.61 104.36 93.86 104.26 93.74L103.92 93.34V92.81V56.96H106.77V92.3C108.73 94.75 118.05 107.48 120.48 129.73L117.64 130.04Z" fill="#6D6E71"/>
<path d="M12.05 61.05C14.44 44.79 17.4001 23.15 18.6701 18.12C19.7501 17.51 21.3401 16.75 22.9201 16.08L200.67 13.48V61.04H12.05V61.05Z" fill="#58595B"/>
<path d="M115.6 18.58L196.82 17.39V57.21H122.4C118.64 57.21 115.59 54.16 115.59 50.4V18.58H115.6Z" fill="#6D6E71"/>
<path d="M91.98 57.21H16.49C16.82 54.95 17.15 52.62 17.49 50.29C19.14 38.84 20.98 26.04 22.04 20.7C22.57 20.44 23.15 20.17 23.73 19.92L97.88 18.84V51.31C97.88 54.57 95.24 57.21 91.98 57.21Z" fill="#6D6E71"/>
<path opacity="0.45" d="M22.7899 59.58H19.9399V126.69H22.7899V59.58Z" fill="#6D6E71"/>
<path d="M1.86987 117.86C2.96987 122.52 5.58987 127.64 11.6799 129.89H328.49L344.17 121.07V117.86H1.86987Z" fill="#58595B"/>
<path d="M236.16 125.45C236.16 126.95 236.26 128.43 236.45 129.88H303.09C303.28 128.43 303.38 126.95 303.38 125.45C303.38 106.92 288.3 91.84 269.77 91.84C251.24 91.84 236.16 106.92 236.16 125.45Z" fill="#808285"/>
<path d="M40.3398 125.45C40.3398 126.95 40.4399 128.43 40.6299 129.88H107.27C107.46 128.43 107.56 126.95 107.56 125.45C107.56 106.92 92.4799 91.84 73.9499 91.84C55.4199 91.84 40.3398 106.92 40.3398 125.45Z" fill="#808285"/>
<path d="M243.95 125.45C243.95 139.71 255.51 151.27 269.77 151.27C284.03 151.27 295.59 139.71 295.59 125.45C295.59 111.19 284.03 99.63 269.77 99.63C255.51 99.63 243.95 111.19 243.95 125.45ZM253.41 125.45C253.41 116.42 260.73 109.1 269.76 109.1C278.79 109.1 286.11 116.42 286.11 125.45C286.11 134.48 278.79 141.8 269.76 141.8C260.73 141.8 253.41 134.48 253.41 125.45Z" fill="#58595B"/>
<path d="M252.44 125.45C252.44 135.02 260.2 142.78 269.77 142.78C279.34 142.78 287.1 135.02 287.1 125.45C287.1 115.88 279.34 108.12 269.77 108.12C260.2 108.12 252.44 115.88 252.44 125.45ZM255.76 125.45C255.76 117.71 262.03 111.44 269.77 111.44C277.51 111.44 283.78 117.71 283.78 125.45C283.78 133.19 277.51 139.46 269.77 139.46C262.03 139.46 255.76 133.19 255.76 125.45Z" fill="#A7A9AC"/>
<path d="M269.77 140.26C277.949 140.26 284.58 133.629 284.58 125.45C284.58 117.271 277.949 110.64 269.77 110.64C261.591 110.64 254.96 117.271 254.96 125.45C254.96 133.629 261.591 140.26 269.77 140.26Z" fill="#D1D3D4"/>
<path d="M269.77 132.8C273.829 132.8 277.12 129.509 277.12 125.45C277.12 121.391 273.829 118.1 269.77 118.1C265.711 118.1 262.42 121.391 262.42 125.45C262.42 129.509 265.711 132.8 269.77 132.8Z" fill="#58595B"/>
<path d="M48.1399 125.45C48.1399 139.71 59.6999 151.27 73.9599 151.27C88.2199 151.27 99.7799 139.71 99.7799 125.45C99.7799 111.19 88.2199 99.63 73.9599 99.63C59.6999 99.63 48.1399 111.19 48.1399 125.45ZM57.5999 125.45C57.5999 116.42 64.9199 109.1 73.9499 109.1C82.9799 109.1 90.2999 116.42 90.2999 125.45C90.2999 134.48 82.9799 141.8 73.9499 141.8C64.9199 141.8 57.5999 134.48 57.5999 125.45Z" fill="#58595B"/>
<path d="M56.6199 125.45C56.6199 135.02 64.3799 142.78 73.9499 142.78C83.5199 142.78 91.2799 135.02 91.2799 125.45C91.2799 115.88 83.5199 108.12 73.9499 108.12C64.3799 108.12 56.6199 115.88 56.6199 125.45ZM59.9399 125.45C59.9399 117.71 66.2099 111.44 73.9499 111.44C81.6899 111.44 87.9599 117.71 87.9599 125.45C87.9599 133.19 81.6899 139.46 73.9499 139.46C66.2099 139.46 59.9399 133.19 59.9399 125.45Z" fill="#A7A9AC"/>
<path d="M73.9499 140.26C82.1292 140.26 88.7599 133.629 88.7599 125.45C88.7599 117.271 82.1292 110.64 73.9499 110.64C65.7706 110.64 59.1399 117.271 59.1399 125.45C59.1399 133.629 65.7706 140.26 73.9499 140.26Z" fill="#D1D3D4"/>
<path d="M73.9499 132.8C78.0092 132.8 81.2998 129.509 81.2998 125.45C81.2998 121.391 78.0092 118.1 73.9499 118.1C69.8906 118.1 66.5999 121.391 66.5999 125.45C66.5999 129.509 69.8906 132.8 73.9499 132.8Z" fill="#58595B"/>
<path opacity="0.1" d="M286.45 28.13L274.5 57.21H257.08L271.95 21.05C273.39 21.57 274.84 22.15 276.29 22.79C279.69 24.27 283.07 26.05 286.45 28.13Z" fill="white"/>
<path opacity="0.1" d="M262.56 18.42L246.62 57.21H225.06L241.44 17.34H251.73C255.31 17.34 258.93 17.7 262.57 18.42H262.56Z" fill="white"/>
<path opacity="0.1" d="M191.19 17.47L174.86 57.21H157.43L173.66 17.73L191.19 17.47Z" fill="white"/>
<path opacity="0.1" d="M90.94 18.93L75.21 57.21H57.78L73.41 19.2L90.94 18.93Z" fill="white"/>
<path opacity="0.1" d="M160.2 17.93L144.06 57.21H122.5L138.5 18.25L160.2 17.93Z" fill="white"/>
<path opacity="0.1" d="M63.85 19.33L48.28 57.21H26.72L42.14 19.65L63.85 19.33Z" fill="white"/>
</svg>
