<svg width="979" height="388" viewBox="0 0 979 388" fill="none" xmlns="http://www.w3.org/2000/svg">
<path d="M774.066 17.1444C774.066 17.1444 782.693 -0.403585 806.783 0.786415C806.783 0.786415 814.219 9.70942 805.594 19.2264C796.969 28.7434 774.066 17.1444 774.066 17.1444Z" fill="#100607"/>
<path d="M974.615 218.015C974.011 216.355 973.301 215.086 972.474 214.335C965.042 207.593 963.945 201.23 963.945 201.23V166.034C963.945 156.539 942.134 157.226 918.465 150.346C894.797 143.466 883.994 125.026 884.406 118.834C884.82 112.642 897.342 108.788 927.89 110.715C958.439 112.642 953.759 107.825 953.759 107.825C936.833 98.1933 942.064 105.761 910.277 92.8262C878.49 79.8912 850.006 50.5802 850.006 50.5802C850.006 50.5802 892.11 32.9663 886.469 27.1873C880.826 21.4073 758.631 10.9482 646.192 10.9482C533.754 10.9482 492.901 15.0762 466.891 18.7922C440.883 22.5072 353.088 57.0483 318.412 84.4323C283.734 111.816 242.59 124.477 236.535 127.091C230.48 129.706 180.529 135.485 117.23 146.907C53.9329 158.328 28.611 178.555 28.611 178.555C28.611 178.555 10.725 195.071 2.88197 235.803C1.81697 241.326 1.17482 246.349 0.846818 250.943C-1.24918 280.222 9.82594 291.466 11.9669 295.392C14.4439 299.934 8.12294 304.755 8.12294 304.755C1.24394 308.884 1.53578 312.063 1.53578 312.063C1.12278 325.273 87.028 336.445 87.028 336.445C87.028 336.445 73.569 206.23 180.653 209.204C287.733 212.179 278.534 332.11 278.534 332.11L291.022 331.92C295.167 328.883 302.958 325.684 317.647 324.152C350.02 320.776 661.04 311.332 674.014 314.196C679.864 315.487 682.746 320.653 684.155 325.939L697.516 325.736C697.516 325.736 691.143 187.209 797.797 196.132C904.455 205.055 890.463 310.112 890.463 310.112C897.893 305.572 928.99 298.415 939.174 295.939C949.358 293.462 966.971 274.059 972.475 271.72C977.363 269.639 979.432 231.268 974.615 218.015Z" fill="#353544"/>
<path d="M676.803 305.536C677.301 307.204 697.516 325.736 697.516 325.736C697.516 325.736 719.151 326.225 724.969 322.67C730.785 319.114 868.496 309.416 868.496 309.416C868.496 309.416 888.148 312.933 893.191 308.749C898.236 304.567 917.953 216.962 917.953 216.962L776.689 156.513C776.689 156.513 654.174 229.894 676.803 305.536Z" fill="#040402"/>
<path d="M879.811 29.1347C879.811 29.1347 885.829 26.1597 886.858 29.1347C887.883 32.1087 879.811 43.5817 915.504 69.5027C951.199 95.4237 946.947 108.597 946.947 108.597L844.117 81.8267C844.117 81.8267 821.596 35.5077 879.811 29.1347Z" fill="#7C82A2"/>
<path d="M940.15 106.472C940.15 106.472 958.421 106.472 961.822 116.245C965.222 126.018 964.371 165.961 961.822 168.936C959.271 171.911 858.562 132.818 858.562 132.818C858.562 132.818 879.811 96.6978 940.15 106.472Z" fill="#AE222F"/>
<path d="M72.947 305.213C72.947 305.213 82.0331 335.674 87.0271 336.444C92.0211 337.215 106.566 333.336 111.093 332.689C115.618 332.043 241.689 355.105 241.689 355.105C241.689 355.105 271.753 344.663 282.419 328.332C293.087 312.001 302.786 215.668 302.786 215.668L187.866 195.95L134.044 205.647L94.2839 241.852L72.947 305.213Z" fill="#040402"/>
<path d="M663.061 314.926L662.1 313.464C662.272 313.351 679.407 302.002 682.981 291.81C683.292 290.926 683.729 289.384 684.28 287.432C687.294 276.804 694.344 251.915 710.007 229.408C729.595 201.262 755.761 186.358 787.784 185.111C830.307 183.448 857.009 201.118 871.911 216.229C886.397 230.918 892.856 246.13 894.077 249.228C926.466 249.917 974.731 248.095 976.491 240.243L978.198 240.626C977.764 242.559 976.446 248.443 934.487 250.436C914.044 251.407 893.653 250.97 893.45 250.964L892.846 250.95L892.643 250.383C892.584 250.216 886.51 233.502 870.612 217.403C855.96 202.568 829.696 185.232 787.852 186.859C738.702 188.774 704.42 222.772 685.963 287.909C685.381 289.966 684.961 291.453 684.631 292.387C680.861 303.139 663.785 314.45 663.061 314.926Z" fill="#080705"/>
<path d="M82.6699 240.667C82.6699 240.667 109.99 175.916 175.559 184.386C241.129 192.856 301.233 240.667 301.233 240.667C301.233 240.667 301.233 272.085 444.667 262.524C588.097 252.961 655.032 246.131 655.032 246.131C655.032 246.131 675.522 237.934 608.589 239.3C541.653 240.666 357.241 239.3 357.241 239.3C357.241 239.3 301.233 227.542 305.333 197.221C309.431 166.9 441.933 195.92 527.991 186.874C614.054 177.83 717.87 196.892 717.87 196.892C717.87 196.892 762.948 153.537 808.026 167.049C853.104 180.561 900.069 224.274 905.958 224.274C910.771 224.274 958.218 229.443 974.616 218.014C974.012 216.354 973.302 215.085 972.475 214.334C965.043 207.592 963.946 201.229 963.946 201.229V166.033C963.946 156.538 942.135 157.225 918.466 150.345C894.798 143.465 883.995 125.025 884.407 118.833C884.821 112.641 897.343 108.787 927.891 110.714C958.44 112.641 953.76 107.824 953.76 107.824C936.834 98.1923 942.065 105.76 910.278 92.8253C878.491 79.8903 850.007 50.5793 850.007 50.5793C850.007 50.5793 892.111 32.9653 886.47 27.1863C880.827 21.4063 758.632 10.9473 646.193 10.9473C533.755 10.9473 492.902 15.0753 466.892 18.7913C440.884 22.5063 353.089 57.0473 318.413 84.4313C283.735 111.815 242.591 124.476 236.536 127.09C230.481 129.705 180.53 135.484 117.231 146.906C53.934 158.327 28.6121 178.554 28.6121 178.554C28.6121 178.554 10.7261 195.07 2.88306 235.802C1.81806 241.325 1.1759 246.348 0.8479 250.942C17.5009 244.615 55.6269 232.346 82.6699 240.667Z" fill="#3A394B"/>
<path d="M905.957 224.275C900.068 224.275 853.103 180.562 808.025 167.05C762.947 153.538 717.869 196.893 717.869 196.893C717.869 196.893 614.053 177.83 527.99 186.875C441.931 195.921 309.429 166.901 305.332 197.222C301.232 227.542 357.24 239.301 357.24 239.301C357.24 239.301 541.652 240.667 608.588 239.301C675.522 237.935 655.031 246.132 655.031 246.132C655.031 246.132 588.095 252.962 444.666 262.525C301.232 272.086 301.232 240.668 301.232 240.668C301.232 240.668 241.128 192.857 175.558 184.387C109.99 175.916 82.6688 240.668 82.6688 240.668C55.6258 232.347 17.5008 244.615 0.845842 250.944C-1.25016 280.223 9.82496 291.467 11.966 295.393C14.443 299.935 8.12196 304.756 8.12196 304.756C1.24296 308.885 1.53481 312.064 1.53481 312.064C1.12181 325.274 87.027 336.446 87.027 336.446C87.027 336.446 73.568 206.231 180.652 209.205C287.732 212.18 278.533 332.111 278.533 332.111L291.021 331.921C295.166 328.884 302.957 325.685 317.646 324.153C350.019 320.777 661.039 311.333 674.013 314.197C679.863 315.488 682.745 320.654 684.154 325.94L697.515 325.737C697.515 325.737 691.142 187.21 797.796 196.133C904.454 205.056 890.462 310.113 890.462 310.113C897.892 305.573 928.989 298.416 939.173 295.94C949.357 293.463 966.97 274.06 972.474 271.721C977.363 269.642 979.431 231.27 974.615 218.018C958.217 229.445 910.77 224.275 905.957 224.275Z" fill="#353544"/>
<path d="M674.014 314.195C661.039 311.331 350.02 320.775 317.647 324.151C302.958 325.683 295.167 328.882 291.022 331.919L684.155 325.938C682.746 320.652 679.863 315.486 674.014 314.195Z" fill="#040402"/>
<path d="M15.695 215.229C15.695 215.229 14.817 196.381 32.029 183.69C49.242 171 119.982 151.523 125.009 157.43C130.034 163.336 109.304 171.501 103.523 176.906C97.7439 182.309 67.0848 213.722 51.5048 215.229C35.9228 216.736 14.3089 226.064 15.6859 215.732" fill="#D2CCCE"/>
<path d="M6.39589 259.459C5.01489 258.203 3.882 255.815 9.412 254.81C14.941 253.805 30.3969 252.674 30.3969 252.674C30.3969 252.674 36.9279 252.173 41.9559 259.459C46.9829 266.746 52.7628 280.693 52.7628 280.693C52.7628 280.693 59.2958 291.5 49.1178 291.625C38.9398 291.751 13.434 291.625 13.434 291.625C13.434 291.625 19.0879 288.608 17.9569 283.08C16.8239 277.553 12.0509 262.474 12.0509 262.474C12.0509 262.474 7.77689 260.716 6.39589 259.459Z" fill="#D2CCCE"/>
<path d="M13.8101 258.831L24.49 283.835C24.49 283.835 25.873 287.353 31.905 286.85C37.936 286.348 47.4851 287.604 47.4851 287.604C47.4851 287.604 50.8781 288.734 47.4851 282.327C44.0921 275.918 33.915 258.077 33.915 258.077C33.915 258.077 33.7881 257.322 27.8821 256.82C21.9771 256.318 12.051 258.203 12.051 258.203C12.051 258.203 12.4291 259.208 13.8101 258.831Z" fill="#1B1A20"/>
<path d="M272.412 133.913C272.412 133.913 334.226 87.0197 370.271 68.8047C406.318 50.5907 426.529 40.4987 475.949 31.9647C525.369 23.4307 578.439 25.9468 578.439 25.9468H689.865C689.865 25.9468 772.812 27.2597 791.918 39.3607C811.022 51.4607 823.635 63.6877 821.723 69.5467C819.813 75.4057 791.155 96.8047 769.883 99.8607C748.613 102.918 596.274 118.84 596.274 118.84L445.34 132.596L285.481 144.823C285.481 144.823 271.606 147.281 269.754 140.9C268.605 136.953 272.412 133.913 272.412 133.913Z" fill="#7C82A2"/>
<path d="M299.143 144.503L308.065 115.82C308.065 115.82 370.532 72.5928 388.378 65.5238C406.226 58.4538 452.581 33.5948 545.728 35.5068C545.728 35.5068 624.005 29.6238 718.41 32.0778L742.771 102.434L751.056 101.16L721.099 27.8108C721.099 27.8108 489.724 17.0228 424.708 44.4308C359.696 71.8388 262.173 131.117 271.097 142.59L299.143 144.503Z" fill="#282C38"/>
<path d="M529.561 31.8806L507.092 125.92L556.014 121.557V31.6836L529.561 31.8806Z" fill="#292C3B"/>
<path d="M694.703 108.714L690.885 108.479L695.605 31.5667L699.422 30.2197L694.703 108.714Z" fill="#292C3B"/>
<path d="M721.266 31.5281C721.266 31.5281 731.62 31.3181 740.668 32.0781C749.717 32.8381 772.93 32.719 795.428 48.076C817.926 63.432 815.643 75.3821 814.643 77.3241C813.643 79.2641 818.522 75.9321 818.522 75.9321L819.596 67.718L802.571 45.4571L775.942 33.7501L718.542 27.0811L721.266 31.5281Z" fill="#292C3B"/>
<path d="M759.176 32.0995C759.176 32.0995 786.088 33.8785 806.43 55.6635C822.608 72.9865 817.002 76.6805 806.43 83.9395C795.86 91.1995 777.389 98.9695 777.389 98.9695C777.389 98.9695 821.461 85.0866 824.901 71.7126C828.338 58.3386 802.229 31.2085 759.176 32.0995Z" fill="#D8D6E1"/>
<path d="M266.215 302.116C266.215 349.034 228.184 387.067 181.266 387.067C134.35 387.067 96.3169 349.034 96.3169 302.116C96.3169 255.199 134.35 217.167 181.266 217.167C228.184 217.167 266.215 255.199 266.215 302.116Z" fill="#27262C"/>
<path d="M117.293 302.116C117.293 337.557 146.027 366.289 181.471 366.289C216.91 366.289 245.637 337.557 245.637 302.116C245.637 266.677 216.91 237.946 181.471 237.946C146.027 237.946 117.293 266.677 117.293 302.116Z" fill="#C3BFBE"/>
<path d="M159.201 259.092L174.049 275.97C174.049 275.97 176.615 280.02 180.125 280.02C183.637 280.02 186.201 277.185 186.201 277.185L201.728 259.092C201.728 259.092 203.888 256.527 201.728 254.773C199.568 253.018 191.992 250.454 181.47 250.454C170.943 250.453 155.418 253.288 159.201 259.092Z" fill="#27262C"/>
<path d="M159.197 345.14L174.045 328.262C174.045 328.262 176.615 324.213 180.123 324.213C183.635 324.213 186.201 327.048 186.201 327.048L201.726 345.14C201.726 345.14 203.888 347.706 201.726 349.46C199.566 351.215 191.988 353.781 181.468 353.781C170.943 353.781 155.418 350.944 159.197 345.14Z" fill="#27262C"/>
<path d="M225.018 280.663L208.141 295.513C208.141 295.513 204.09 298.079 204.09 301.587C204.09 305.101 206.926 307.663 206.926 307.663L225.018 323.192C225.018 323.192 227.586 325.353 229.334 323.192C231.094 321.031 233.66 313.453 233.66 302.931C233.66 292.407 230.822 276.881 225.018 280.663Z" fill="#27262C"/>
<path d="M138.973 280.662L155.85 295.512C155.85 295.512 159.901 298.078 159.901 301.587C159.901 305.1 157.063 307.662 157.063 307.662L138.973 323.191C138.973 323.191 136.407 325.353 134.649 323.191C132.895 321.03 130.329 313.454 130.329 302.93C130.328 292.407 133.166 276.88 138.973 280.662Z" fill="#27262C"/>
<path d="M879.133 292.098C879.133 339.015 841.1 377.049 794.182 377.049C747.268 377.049 709.235 339.015 709.235 292.098C709.235 245.181 747.268 207.15 794.182 207.15C841.1 207.149 879.133 245.181 879.133 292.098Z" fill="#27262C"/>
<path d="M730.211 292.099C730.211 327.54 758.943 356.272 794.389 356.272C829.827 356.272 858.555 327.54 858.555 292.099C858.555 256.659 829.826 227.929 794.389 227.929C758.943 227.929 730.211 256.659 730.211 292.099Z" fill="#C3BFBE"/>
<path d="M772.117 249.075L786.969 265.953C786.969 265.953 789.532 270.003 793.041 270.003C796.555 270.003 799.121 267.168 799.121 267.168L814.646 249.075C814.646 249.075 816.806 246.511 814.646 244.756C812.486 243 804.908 240.437 794.388 240.437C783.861 240.436 768.334 243.272 772.117 249.075Z" fill="#27262C"/>
<path d="M772.117 335.122L786.963 318.245C786.963 318.245 789.531 314.196 793.039 314.196C796.551 314.196 799.121 317.03 799.121 317.03L814.644 335.122C814.644 335.122 816.806 337.688 814.644 339.442C812.482 341.197 804.906 343.763 794.386 343.763C783.859 343.763 768.334 340.926 772.117 335.122Z" fill="#27262C"/>
<path d="M837.936 270.645L821.059 285.495C821.059 285.495 817.006 288.061 817.006 291.57C817.006 295.084 819.844 297.646 819.844 297.646L837.936 313.175C837.936 313.175 840.502 315.336 842.252 313.175C844.01 311.014 846.578 303.436 846.578 292.914C846.578 282.39 843.74 266.864 837.936 270.645Z" fill="#27262C"/>
<path d="M751.891 270.644L768.766 285.494C768.766 285.494 772.817 288.06 772.817 291.569C772.817 295.082 769.983 297.644 769.983 297.644L751.891 313.173C751.891 313.173 749.323 315.334 747.567 313.173C745.811 311.011 743.247 303.435 743.247 292.912C743.246 282.389 746.082 266.862 751.891 270.644Z" fill="#27262C"/>
<path d="M310.492 329.36C293.316 293.735 283.816 263.711 282.81 207.165C281.761 148.226 304.941 108.658 305.177 108.265L306.679 109.161C306.447 109.549 283.521 148.721 284.56 207.134C285.56 263.357 294.999 293.199 312.068 328.599L310.492 329.36Z" fill="#080705"/>
<path d="M530.703 317.269C530.644 317.03 524.446 293.236 521.356 280.285C518.27 267.356 521 243.01 521 241.367V147.777C521 141.017 529.399 127.386 530.423 125.69L544.721 27.2031L546.536 27.4511L532.392 126.292L532.321 126.444C532.231 126.591 523.408 141.202 523.408 147.776L523.404 241.525C523.375 241.779 520.335 267.084 523.391 279.877C526.477 292.823 532.339 316.61 532.4 316.849L530.703 317.269Z" fill="#080705"/>
<path d="M751.746 196.487L750.365 195.413C754.681 189.86 757.232 137.581 757.156 125.925C757.093 116.149 746.896 102.809 746.793 102.675L746.666 102.449L719.643 30.5261L721.282 29.9111L748.261 101.713C749.318 103.103 758.843 115.916 758.907 125.914C758.951 132.966 756.883 189.881 751.746 196.487Z" fill="#080705"/>
<path d="M279.732 146.199C273.589 146.199 269.837 144.455 268.878 141.155C267.575 136.673 271.665 133.341 271.843 133.201C272.478 132.718 334.156 86.0349 369.861 67.9919C405.982 49.7399 425.879 39.6859 475.793 31.0669C506.316 25.7959 538.119 25.1699 559.424 25.1699C571.024 25.1699 578.408 25.9999 578.485 25.9999H689.866C693.276 25.9999 773.302 26.9739 792.405 39.0719C808.581 49.3159 825.007 62.6629 822.591 70.0689C820.589 76.2079 791.417 97.8069 770.015 100.883C748.97 103.907 597.894 119.646 596.37 119.804L445.421 133.532L285.552 145.745C285.529 145.753 282.896 146.199 279.732 146.199ZM559.424 26.0819C538.192 26.0819 506.5 27.3979 476.102 32.6469C426.457 41.2199 406.647 51.3369 370.682 69.5089C335.123 87.4779 273.578 134.114 272.961 134.583C272.949 134.595 269.668 137.316 270.629 140.619C271.525 143.703 276.074 144.365 279.733 144.365C282.731 144.365 285.297 143.924 285.323 143.92L445.268 131.686L596.192 117.932C597.704 117.774 748.745 101.98 769.755 98.9599C791.118 95.8889 819.243 74.2219 820.859 69.2659C822.529 64.1439 810.427 51.7339 791.433 39.7029C772.756 27.8729 690.68 25.9999 689.85 25.9999H578.44C578.324 25.9999 570.977 26.0819 559.424 26.0819Z" fill="#D8D6E1"/>
<path d="M79.02 297H11.625C11.141 297 10.75 296.483 10.75 296C10.75 295.518 11.141 295 11.625 295H78.2371C78.7601 290 81.8831 268.967 94.7041 247.905C107.915 226.203 134.393 200.152 185.515 200.15C228.839 200.15 253.458 223.885 266.482 243.875C280.564 265.485 284.476 287.358 284.513 287.577C284.595 288.054 284.279 288.484 283.802 288.566C283.325 288.647 282.872 288.318 282.79 287.842C282.751 287.626 278.886 266.009 264.985 244.696C252.196 225.092 228.028 201.72 185.514 201.722C135.205 201.723 109.176 227.136 96.198 248.456C82.118 271.591 79.9131 295.483 79.8911 295.717C79.8521 296.169 79.473 297 79.02 297Z" fill="#080705"/>
<path d="M311.426 142.051C311.426 142.051 316.321 110.619 336.543 106.645C356.764 102.673 360.525 121.333 360.738 122.538C360.951 123.745 364.568 139.567 348.746 142.051C332.924 144.535 311.213 149.997 311.426 142.051Z" fill="#3A394B"/>
<path d="M442.014 159.104C441.842 153.817 453.782 150.065 467.598 148.529C481.414 146.994 495.233 148.018 496.424 152.111C497.619 156.205 485.678 166.098 469.219 165.756C452.76 165.416 442.184 164.393 442.014 159.104Z" fill="#100607"/>
<path d="M446.564 159.446C446.564 159.446 448.041 154.841 467.314 152.452C486.589 150.065 491.535 150.065 491.535 152.452C491.535 154.841 483.008 159.275 478.06 159.446C473.115 159.617 445.939 164.052 446.564 159.446Z" fill="#BEC0CC"/>
<path d="M676.068 134.517C675.898 129.229 687.838 125.477 701.654 123.942C715.47 122.406 729.287 123.43 730.482 127.524C731.673 131.617 719.734 141.51 703.275 141.169C686.814 140.828 676.24 139.804 676.068 134.517Z" fill="#100607"/>
<path d="M680.621 134.856C680.621 134.856 682.098 130.251 701.371 127.863C720.646 125.475 725.592 125.475 725.592 127.863C725.592 130.251 717.063 134.686 712.117 134.856C707.172 135.027 679.998 139.462 680.621 134.856Z" fill="#BEC0CC"/>
</svg>
