<svg width="1203" height="481" viewBox="0 0 1203 481" fill="none" xmlns="http://www.w3.org/2000/svg">
<path d="M56.021 374.805L71.2771 388.626C71.2771 388.626 77.2199 382.824 88.8259 381.715C100.43 380.607 261.547 394.219 261.547 394.219C261.547 394.219 282.969 390.622 291.449 388.627C299.928 386.632 842.736 381.946 842.736 381.946L849.062 390.335C849.062 390.335 860.812 382.392 877.546 380.384C894.284 378.376 1046.92 369.896 1046.92 369.896C1046.92 369.896 1055.67 377.273 1061.56 375.035C1067.45 372.797 1087.98 354.945 1087.98 354.945L1066.56 248.948L929.32 228.641L757.615 220.607L252.617 237.121L63.064 247.831L48.4309 327.497L56.021 374.805Z" fill="black"/>
<path d="M163.17 168.386C163.17 168.386 159.844 156.285 161.092 155.511C162.342 154.736 192.33 143.982 195.846 141.913C199.364 139.844 328.627 16.7855 352.412 19.0605C376.195 21.3355 330.902 97.8594 330.902 97.8594L191.502 181.622L163.17 168.386Z" fill="#2D2D2B"/>
<path d="M1181.63 312.491C1181.63 312.491 1200.7 315.887 1200.96 325.031C1201.23 334.175 1212.46 368.659 1154.73 366.047C1096.99 363.435 1150.02 307.789 1181.63 312.491Z" fill="#2E2E2E"/>
<path d="M47.141 210.786L37.1998 216.207C37.1998 216.207 24.8039 244.292 25.2179 255.666C25.6319 267.041 25.1068 299.658 26.9188 302.791C28.7328 305.924 47.142 305.51 47.142 305.51L63.0658 303.029C63.0638 303.029 59.756 216.784 47.141 210.786Z" fill="#2D2D2B"/>
<path d="M1163.61 144.966C1165.69 138.166 1144.87 69.0319 1144.87 69.0319H1162.35C1156.22 49.7999 1148.65 33.2959 1139.29 22.7529C1139.29 22.7529 1136.41 -1.80206 1076.34 3.48694L896.591 0.0869141L482.575 4.61987C482.575 4.61987 360.19 0.463884 336.768 26.5309L193.985 160.644C193.985 160.644 165.975 164.734 161.09 155.511L42.5019 207.176C42.5019 207.176 38.094 208.142 37.197 216.207C37.197 216.207 50.224 218.034 51.123 231.027C52.018 244.02 53.8279 300.938 50.2439 302.282C46.6599 303.626 27.8511 302.291 26.5061 298.707C26.5061 298.707 25.402 301.515 27.449 303.397C29.496 305.279 36.5841 307.218 40.5681 307.384C44.5521 307.55 88.0581 308.769 88.0581 308.769C88.0581 308.769 122.771 262.833 183.404 272.278C244.039 281.723 263.496 314.778 272.562 345.568C281.628 376.358 281.251 389.202 293.906 390.336C306.564 391.469 849.06 390.336 849.06 390.336C849.06 390.336 856.425 379.569 854.726 373.336C853.025 367.102 855.292 253.201 962.394 260.567C1069.5 267.933 1061.56 375.035 1061.56 375.035L1165.55 366.535C1165.55 366.535 1171.5 360.302 1171.5 350.668C1171.5 341.034 1171.5 320.067 1171.5 320.067C1171.5 320.067 1187.36 324.034 1187.36 309.867V233.932C1187.36 233.932 1185.71 192.295 1178.77 144.964H1163.61V144.966Z" fill="#83AD87"/>
<path d="M292.563 93.4221C292.563 93.4221 337.059 48.3221 347.184 43.0731C357.309 37.8231 372.62 26.2251 397.741 26.5991C422.864 26.9741 445.675 24.0001 445.675 24.0001H472.792C472.792 24.0001 480.171 22.9622 482.046 30.0862C483.921 37.2112 482.046 144.515 482.046 144.515C482.046 144.515 482.421 151.298 478.296 152.422C474.173 153.547 297.941 156.188 297.941 156.188L292.563 93.4221Z" fill="#2D2D2B"/>
<path d="M32.053 296.1C32.053 296.1 0.75 302.058 0.75 312.994C0.75 323.928 0.75 368.803 0.75 368.803C0.75 368.803 4.81798 387.722 25.928 388.629C47.035 389.535 71.2781 388.628 71.2781 388.628C71.2781 388.628 58.2209 321.337 87.8479 308.771C93.4959 306.374 32.053 296.1 32.053 296.1Z" fill="#393B3A"/>
<path d="M1163.61 144.966H1178.77C1175.03 119.427 1169.74 92.2412 1162.35 69.0322H1144.87C1144.87 69.0322 1165.69 138.166 1163.61 144.966Z" fill="#BA1F25"/>
<path d="M265.76 388.626C265.76 439.611 224.43 480.943 173.444 480.943C122.46 480.943 81.1299 439.611 81.1299 388.626C81.1299 337.641 122.46 296.312 173.444 296.312C224.43 296.313 265.76 337.641 265.76 388.626Z" fill="#27262C"/>
<path d="M103.926 388.627C103.926 427.141 135.149 458.363 173.668 458.363C212.18 458.363 243.398 427.141 243.398 388.627C243.398 350.114 212.179 318.893 173.668 318.893C135.148 318.893 103.926 350.114 103.926 388.627Z" fill="#BFC3BE"/>
<path d="M149.465 341.872L165.604 360.213C165.604 360.213 168.391 364.615 172.206 364.615C176.022 364.615 178.811 361.533 178.811 361.533L195.682 341.872C195.682 341.872 198.03 339.084 195.682 337.178C193.336 335.27 185.1 332.484 173.668 332.484C162.229 332.483 145.355 335.564 149.465 341.872Z" fill="#27262C"/>
<path d="M149.463 435.381L165.598 417.04C165.598 417.04 168.391 412.64 172.202 412.64C176.018 412.64 178.811 415.721 178.811 415.721L195.68 435.382C195.68 435.382 198.03 438.17 195.68 440.075C193.332 441.983 185.098 444.772 173.666 444.772C162.227 444.771 145.355 441.689 149.463 435.381Z" fill="#27262C"/>
<path d="M220.988 365.313L202.652 381.451C202.652 381.451 198.248 384.238 198.248 388.052C198.248 391.87 201.33 394.656 201.33 394.656L220.988 411.531C220.988 411.531 223.781 413.879 225.681 411.531C227.591 409.183 230.382 400.948 230.382 389.513C230.383 378.076 227.299 361.204 220.988 365.313Z" fill="#27262C"/>
<path d="M127.486 365.311L145.824 381.45C145.824 381.45 150.224 384.238 150.224 388.051C150.224 391.868 147.144 394.653 147.144 394.653L127.486 411.528C127.486 411.528 124.693 413.878 122.785 411.528C120.881 409.179 118.09 400.946 118.09 389.51C118.09 378.075 121.172 361.201 127.486 365.311Z" fill="#27262C"/>
<path d="M1052.31 382.958C1052.31 433.944 1010.97 475.276 959.987 475.276C909.003 475.276 867.674 433.944 867.674 382.958C867.674 331.974 909.002 290.645 959.987 290.645C1010.97 290.646 1052.31 331.974 1052.31 382.958Z" fill="#27262C"/>
<path d="M890.471 382.959C890.471 421.474 921.694 452.696 960.211 452.696C998.723 452.696 1029.94 421.474 1029.94 382.959C1029.94 344.447 998.722 313.225 960.211 313.225C921.693 313.226 890.471 344.447 890.471 382.959Z" fill="#BFC3BE"/>
<path d="M936.01 336.205L952.149 354.546C952.149 354.546 954.936 358.948 958.749 358.948C962.567 358.948 965.354 355.866 965.354 355.866L982.227 336.205C982.227 336.205 984.573 333.417 982.227 331.51C979.879 329.602 971.645 326.816 960.211 326.816C948.771 326.816 931.9 329.898 936.01 336.205Z" fill="#27262C"/>
<path d="M936.006 429.715L952.141 411.373C952.141 411.373 954.936 406.973 958.746 406.973C962.562 406.973 965.353 410.053 965.353 410.053L982.222 429.715C982.222 429.715 984.572 432.503 982.222 434.408C979.874 436.316 971.64 439.104 960.208 439.104C948.77 439.104 931.9 436.022 936.006 429.715Z" fill="#27262C"/>
<path d="M1007.53 359.645L989.195 375.783C989.195 375.783 984.791 378.57 984.791 382.383C984.791 386.201 987.873 388.987 987.873 388.987L1007.53 405.862C1007.53 405.862 1010.32 408.21 1012.23 405.862C1014.14 403.514 1016.92 395.279 1016.92 383.844C1016.93 372.408 1013.84 355.537 1007.53 359.645Z" fill="#27262C"/>
<path d="M914.029 359.645L932.369 375.784C932.369 375.784 936.769 378.571 936.769 382.385C936.769 386.202 933.687 388.987 933.687 388.987L914.029 405.862C914.029 405.862 911.238 408.211 909.328 405.862C907.424 403.513 904.635 395.28 904.635 383.844C904.635 372.408 907.717 355.534 914.029 359.645Z" fill="#27262C"/>
<path d="M511.635 380.136H303.567C295.563 380.136 293.721 376.52 293.536 376.108L293.454 375.835C292.53 370.372 288.638 360.027 283.706 346.931C274.796 323.259 262.591 290.839 258.948 262.949C253.368 220.212 261.446 97.5347 261.53 96.3007L263.79 96.4507C263.708 97.6827 255.644 220.139 261.196 262.655C264.803 290.285 276.956 322.563 285.827 346.132C290.745 359.194 294.64 369.541 295.655 375.262C295.952 375.702 297.706 377.869 303.567 377.869H510.985C511.887 377.238 515.034 374.761 515.034 370.871C515.034 365.687 511.323 8.23368 511.284 4.62268L513.552 4.59961C513.589 8.20961 517.302 365.676 517.302 370.871C517.302 376.699 512.124 379.845 511.904 379.976L511.635 380.136Z" fill="#CCCCCC"/>
<path d="M315.254 146.887C315.254 154.902 308.758 161.4 300.742 161.4H300.299C292.283 161.4 285.787 154.902 285.787 146.887V104.512C285.787 96.497 292.283 89.999 300.299 89.999H300.742C308.758 89.999 315.254 96.497 315.254 104.512V146.887Z" fill="#D8D8D6"/>
<path d="M507 209.844C507 216.292 501.975 221 495.525 221H494.879C488.432 221 483 216.292 483 209.844V180.196C483 173.748 488.432 168.001 494.879 168.001H495.525C501.974 168.001 507 173.748 507 180.196V209.844Z" fill="#D8D8D6"/>
<path d="M502 207.18C502 209.29 500.289 211 498.18 211H497.821C495.712 211 494.001 209.29 494.001 207.18V176.821C494.001 174.711 495.712 173.001 497.821 173.001H498.18C500.289 173.001 502 174.711 502 176.821V207.18Z" fill="white"/>
<path d="M1124.84 173.866H565.348C553.682 173.866 543.057 163.241 543.057 151.576V60.1549C543.057 49.1129 553.057 40.1309 565.348 40.1309H1096.51C1108.14 40.1309 1113.05 47.6469 1117.6 60.6299L1146 151.97V152.142C1146 163.918 1136.31 173.866 1124.84 173.866ZM565.348 42.3978C554.307 42.3978 545.325 50.3639 545.325 60.1549V151.576C545.325 162.055 554.87 171.599 565.348 171.599H1124.84C1135.03 171.599 1143.64 162.784 1143.73 152.311L1115.45 61.3408C1111.15 49.0688 1106.85 42.3969 1096.51 42.3969L565.348 42.3978Z" fill="#CCCCCC"/>
<path d="M320.254 141.887C320.254 149.902 313.758 156.4 305.742 156.4H305.299C297.283 156.4 290.787 149.902 290.787 141.887V99.512C290.787 91.497 297.283 84.999 305.299 84.999H305.742C313.758 84.999 320.254 91.497 320.254 99.512V141.887Z" fill="#E5E5E3"/>
</svg>
