<svg width="1300" height="36" viewBox="0 0 1300 36" fill="none" xmlns="http://www.w3.org/2000/svg">
<g clip-path="url(#clip0_94_23)">
<path d="M1300 18H8V19H1300V18Z" fill="#E1E1E1"/>
<path d="M10 28C15.5228 28 20 23.5228 20 18C20 12.4772 15.5228 8 10 8C4.47715 8 0 12.4772 0 18C0 23.5228 4.47715 28 10 28Z" fill="#9DBBD9"/>
<path d="M348 36C357.941 36 366 27.9411 366 18C366 8.05887 357.941 0 348 0C338.059 0 330 8.05887 330 18C330 27.9411 338.059 36 348 36Z" fill="#9DBBD9"/>
<path d="M348 28C353.523 28 358 23.5228 358 18C358 12.4772 353.523 8 348 8C342.477 8 338 12.4772 338 18C338 23.5228 342.477 28 348 28Z" fill="#3B51F8"/>
<path d="M670 28C675.523 28 680 23.5228 680 18C680 12.4772 675.523 8 670 8C664.477 8 660 12.4772 660 18C660 23.5228 664.477 28 670 28Z" fill="#9DBBD9"/>
<path d="M1000 28C1005.52 28 1010 23.5228 1010 18C1010 12.4772 1005.52 8 1000 8C994.477 8 990 12.4772 990 18C990 23.5228 994.477 28 1000 28Z" fill="#9DBBD9"/>
</g>
<defs>
<clipPath id="clip0_94_23">
<rect width="1300" height="36" fill="white"/>
</clipPath>
</defs>
</svg>
