<svg width="36" height="750" viewBox="0 0 36 750" fill="none" xmlns="http://www.w3.org/2000/svg">
<g clip-path="url(#clip0_94_16)">
<path d="M19 8H18V754H19V8Z" fill="#E1E1E1"/>
<path d="M18 20C23.5228 20 28 15.5228 28 10C28 4.47715 23.5228 0 18 0C12.4772 0 8 4.47715 8 10C8 15.5228 12.4772 20 18 20Z" fill="#9DBBD9"/>
<path d="M18 213C27.9411 213 36 204.941 36 195C36 185.059 27.9411 177 18 177C8.05887 177 0 185.059 0 195C0 204.941 8.05887 213 18 213Z" fill="#9DBBD9"/>
<path d="M18 205C23.5228 205 28 200.523 28 195C28 189.477 23.5228 185 18 185C12.4772 185 8 189.477 8 195C8 200.523 12.4772 205 18 205Z" fill="#3B51F8"/>
<path d="M18 390C23.5228 390 28 385.523 28 380C28 374.477 23.5228 370 18 370C12.4772 370 8 374.477 8 380C8 385.523 12.4772 390 18 390Z" fill="#9DBBD9"/>
<path d="M18 575C23.5228 575 28 570.523 28 565C28 559.477 23.5228 555 18 555C12.4772 555 8 559.477 8 565C8 570.523 12.4772 575 18 575Z" fill="#9DBBD9"/>
</g>
<defs>
<clipPath id="clip0_94_16">
<rect width="36" height="750" fill="white"/>
</clipPath>
</defs>
</svg>
