<svg width="1083" height="1136" viewBox="0 0 1083 1136" fill="none" xmlns="http://www.w3.org/2000/svg">
<path d="M708.944 499.248H373.803V835.297H708.944V499.248Z" fill="#E2988F"/>
<path d="M1082.75 865.398C903.891 794.558 708.944 769.443 708.944 769.443C619.487 852.242 452.876 853.41 373.803 769.443C373.803 769.443 178.856 794.558 0 865.398C111.165 1027.43 312.036 1135.63 541.379 1135.63C770.711 1135.63 971.57 1027.43 1082.75 865.398Z" fill="#D85D63"/>
<path d="M536.624 870.063C535.569 870.063 534.525 870.063 533.458 870.053C446.873 869.237 373.86 835.358 333.109 777.11L340.338 773.131C379.522 829.142 449.948 861.712 533.56 862.508C534.582 862.518 535.614 862.518 536.636 862.518C622.835 862.518 701.249 828.397 741.807 773.061L748.945 777.181C706.821 834.633 625.672 870.063 536.624 870.063Z" fill="#B73D49"/>
<path d="M858.226 313.986C858.226 469.338 762.12 671.059 549.402 667.272C320.615 667.272 233.701 488.146 233.701 332.795C193.653 231.823 241.78 122.258 325.143 102.08C377.31 24.8324 467.912 6.66449e-07 558.923 6.66449e-07C733.92 -0.0100733 906.58 114.189 858.226 313.986Z" fill="#4C224B"/>
<path d="M857.727 335.695C839.911 297.867 803.495 316.444 803.495 316.444C811.075 168.225 726.034 65.4199 541.368 65.4199C356.702 65.4199 272.681 188.796 279.229 316.444C279.229 316.444 242.825 297.877 225.008 335.695C207.192 373.523 239.726 462.235 259.869 490.422C280.012 518.619 310.526 506.691 310.526 506.691C310.526 506.691 317.971 571.568 327.265 593.57C336.559 615.571 441.914 716.754 472.894 732.228C513.52 753.454 573.369 753.454 609.83 732.228C640.81 716.754 746.165 615.571 755.47 593.57C764.764 571.558 772.061 505.543 772.061 505.543C772.061 505.543 802.723 518.609 822.866 490.412C843.009 462.235 875.543 373.523 857.727 335.695Z" fill="#E2988F"/>
<path d="M542.922 737.236C467.708 737.236 412.023 690.966 376.697 656.16L383.017 651.104C417.277 684.841 471.112 729.681 542.934 729.681C610.795 729.681 660.284 689.959 699.729 651.104L706.05 656.16C665.333 696.255 614.12 737.236 542.922 737.236Z" fill="#C46966"/>
<path d="M309.81 465.899L301.34 466.742L306.461 507.259L314.93 506.415L309.81 465.899Z" fill="#C46966"/>
<path d="M772.577 465.602L767.935 504.979L776.4 505.765L781.043 466.388L772.577 465.602Z" fill="#C46966"/>
<path d="M248.657 420.761C246.932 415.18 232.396 365.808 252.516 352.288C259.2 348.41 264.669 348.813 268.119 349.81C278.378 352.772 283.496 364.014 284.041 365.284L276.097 367.994C274.985 365.465 270.922 358.544 265.464 356.993C263.013 356.288 260.357 356.751 257.396 358.464C245.934 366.19 250.95 399.576 256.851 418.767L248.657 420.761Z" fill="#C46966"/>
<path d="M834.089 420.761L825.885 418.767C831.797 399.576 836.802 366.19 825.09 358.312C822.412 356.771 819.768 356.288 817.272 357.003C811.825 358.564 807.751 365.475 806.65 368.004L798.706 365.294C799.262 364.025 804.369 352.782 814.628 349.82C818.077 348.823 823.558 348.41 829.981 352.137C850.34 365.818 835.814 415.18 834.089 420.761Z" fill="#C46966"/>
<path d="M279.24 316.444C295.003 268.109 319.151 226 357.076 194.125C463.611 304.345 594.987 376.173 803.518 316.444L819.587 269.499C819.587 269.499 794.439 169.948 794.439 166.391C794.439 162.835 711.928 94.574 711.928 94.574L604.587 55.4668H494.047L405.929 77.5086L328.23 135.817L279.229 223.279V316.444H279.24Z" fill="#4C224B"/>
</svg>
