<svg width="668" height="656" viewBox="0 0 668 656" fill="none" xmlns="http://www.w3.org/2000/svg">
<g clip-path="url(#clip0_103_600)">
<path d="M344.394 41.6095C173.389 36.8319 25.2621 154.243 2.88267 308.306C-21.5859 476.749 113.087 628.31 278.795 652.584C484.909 682.777 684.825 508.104 666.875 318.611C653.35 175.844 518.223 46.4676 344.394 41.6095Z" fill="#F4F7FA"/>
<g opacity="0.4">
<path d="M326.308 70.1621L329.723 86.0919C322.402 88.8949 315.422 92.2434 308.866 96.1326L297.525 83.9908C294.432 80.6792 289.076 80.403 285.565 83.3763L263.574 101.987C260.055 104.967 259.702 110.076 262.794 113.402L274.234 125.712C269.401 131.545 265.089 137.766 261.366 144.306L244.896 139.133C240.455 137.738 235.628 140.06 234.115 144.32L224.625 171.011C223.105 175.287 225.479 179.894 229.93 181.298L246.455 186.515C245.288 193.805 244.799 201.262 244.977 208.803L227.755 212.251C223.132 213.176 220.121 217.516 221.028 221.948L226.724 249.721C227.636 254.172 232.136 257.028 236.773 256.1L254.046 252.641C256.896 259.702 260.33 266.435 264.333 272.769L251.117 284.047C247.555 287.09 247.195 292.318 250.317 295.731L269.883 317.106C273.018 320.53 278.453 320.832 282.021 317.776L295.234 306.465C301.365 311.166 307.92 315.341 314.814 318.954L309.216 335.088C307.701 339.456 310.13 344.172 314.644 345.617L342.912 354.668C347.438 356.118 352.328 353.741 353.834 349.361L359.342 333.351C367.083 334.463 375 334.893 383.006 334.674L386.544 351.184C387.512 355.704 392.089 358.61 396.769 357.674L426.016 351.819C430.693 350.883 433.687 346.459 432.704 341.944L429.144 325.575C436.629 322.733 443.755 319.311 450.443 315.336L461.949 327.717C465.145 331.156 470.614 331.457 474.163 328.392L496.34 309.242C499.881 306.184 500.159 300.928 496.96 297.501L485.491 285.223C490.409 279.215 494.757 272.799 498.497 266.065L514.731 271.188C519.267 272.619 524.129 270.258 525.585 265.913L534.681 238.801C536.133 234.472 533.638 229.814 529.112 228.392L513.034 223.343C514.123 215.88 514.495 208.258 514.179 200.562L530.697 197.255C535.335 196.328 538.278 191.978 537.274 187.548L530.999 159.893C529.997 155.479 525.437 152.655 520.816 153.581L504.346 156.878C501.336 149.774 497.739 143.015 493.56 136.684L506.005 126.029C509.505 123.033 509.775 117.899 506.611 114.559L486.858 93.7231C483.706 90.3977 478.317 90.1215 474.822 93.104L462.297 103.794C456.085 99.1841 449.468 95.097 442.517 91.5921L447.753 76.3711C449.21 72.1367 446.773 67.5846 442.311 66.2015L414.437 57.5739C409.984 56.1954 405.188 58.5036 403.722 62.7288L398.427 77.9843C390.766 76.9648 382.943 76.6012 375.034 76.8843L371.597 61.0903C370.651 56.7454 366.169 53.9677 361.585 54.8836L332.916 60.6231C328.332 61.5414 325.369 65.808 326.303 70.1575L326.308 70.1621ZM277.488 224.998C266.198 171.248 302.457 118.831 358.416 107.628C414.372 96.4249 469.33 130.581 481.233 184.209C493.208 238.161 457.107 291.32 400.536 302.644C343.965 313.969 288.845 279.074 277.488 224.998Z" fill="url(#paint0_linear_103_600)"/>
</g>
<path d="M92.9043 258.33L95.0469 268.331C90.4529 270.092 86.0704 272.193 81.953 274.635L74.8344 267.013C72.8913 264.932 69.5302 264.76 67.3268 266.626L53.5227 278.31C51.312 280.181 51.0931 283.389 53.0314 285.476L60.2132 293.204C57.178 296.868 54.4736 300.771 52.1364 304.879L41.7979 301.632C39.0108 300.757 35.9805 302.214 35.0296 304.888L29.0736 321.642C28.1202 324.325 29.6086 327.218 32.403 328.099L42.778 331.374C42.046 335.951 41.7395 340.63 41.849 345.366L31.0387 347.529C28.1373 348.109 26.2452 350.836 26.8167 353.616L30.3917 371.051C30.9657 373.845 33.7893 375.638 36.7004 375.055L47.5423 372.885C49.3323 377.318 51.4871 381.545 54.0018 385.52L45.7062 392.601C43.4687 394.511 43.245 397.793 45.2052 399.935L57.4869 413.352C59.4544 415.501 62.8665 415.69 65.1064 413.773L73.402 406.671C77.2519 409.621 81.3668 412.243 85.6934 414.512L82.1791 424.64C81.2282 427.383 82.7531 430.342 85.5864 431.249L103.33 436.931C106.171 437.84 109.243 436.349 110.186 433.599L113.645 423.549C118.504 424.246 123.475 424.518 128.499 424.38L130.72 434.743C131.328 437.58 134.202 439.405 137.138 438.816L155.5 435.141C158.435 434.554 160.315 431.776 159.697 428.941L157.462 418.666C162.161 416.882 166.633 414.733 170.833 412.238L178.057 420.012C180.063 422.17 183.495 422.359 185.725 420.435L199.646 408.413C201.868 406.494 202.044 403.194 200.035 401.044L192.836 393.337C195.922 389.565 198.651 385.538 201 381.31L211.19 384.528C214.038 385.428 217.09 383.943 218.005 381.216L223.715 364.198C224.627 361.48 223.061 358.557 220.218 357.664L210.125 354.495C210.811 349.81 211.042 345.025 210.845 340.195L221.215 338.119C224.126 337.537 225.975 334.808 225.342 332.025L221.402 314.664C220.775 311.893 217.912 310.121 215.009 310.701L204.67 312.77C202.78 308.31 200.521 304.066 197.899 300.092L205.711 293.404C207.907 291.524 208.077 288.3 206.09 286.204L193.692 273.125C191.712 271.038 188.332 270.863 186.136 272.736L178.273 279.447C174.375 276.554 170.221 273.988 165.858 271.786L169.146 262.231C170.06 259.573 168.53 256.714 165.729 255.847L148.23 250.429C145.436 249.564 142.425 251.012 141.503 253.665L138.181 263.243C133.373 262.603 128.46 262.376 123.497 262.553L121.339 252.639C120.746 249.912 117.932 248.167 115.055 248.743L97.0582 252.346C94.1811 252.922 92.3207 255.603 92.9068 258.332L92.9043 258.33ZM61.023 355.768C53.7999 321.377 77.0014 287.835 112.806 280.669C148.61 273.5 183.774 295.356 191.389 329.669C199.05 364.191 175.953 398.204 139.755 405.449C103.557 412.696 68.2899 390.368 61.023 355.768Z" fill="#D8DEE8"/>
<g style="mix-blend-mode:soft-light" opacity="0.7">
<path d="M332.431 477.492C327.314 478.263 315.465 475.672 312.67 473.792C294.073 461.277 257.648 439.988 252.206 417.748C251.277 413.951 267.829 405.569 269.235 401.454C278.418 393.687 282.112 391.533 287.01 380.091C301.469 346.312 233.063 309.514 288.414 274.453C328.955 248.771 371.209 252.819 345.984 188.549C320.759 124.28 338.528 -10.5959 425.985 14.7647C476.177 29.3206 450.889 96.998 485.317 132.125C518.033 165.506 510.535 202.581 473.935 238.286C437.338 273.991 466.406 285.495 490.731 319.101C519.951 359.469 449.844 387.605 416.306 397.982C389.299 406.338 326.487 444.855 332.431 477.495V477.492Z" fill="url(#paint1_linear_103_600)"/>
<mask id="mask0_103_600" style="mask-type:luminance" maskUnits="userSpaceOnUse" x="252" y="11" width="255" height="467">
<path d="M332.431 477.492C327.314 478.263 315.465 475.672 312.67 473.792C294.073 461.277 257.648 439.988 252.206 417.748C251.277 413.951 267.829 405.569 269.235 401.454C278.418 393.687 282.112 391.533 287.01 380.091C301.469 346.312 233.063 309.514 288.414 274.453C328.955 248.771 371.209 252.819 345.984 188.549C320.759 124.28 338.528 -10.5959 425.985 14.7647C476.177 29.3206 450.889 96.998 485.317 132.125C518.033 165.506 510.535 202.581 473.935 238.286C437.338 273.991 466.406 285.495 490.731 319.101C519.951 359.469 449.844 387.605 416.306 397.982C389.299 406.338 326.487 444.855 332.431 477.495V477.492Z" fill="white"/>
</mask>
<g mask="url(#mask0_103_600)">
<path d="M283.636 447.484L282.895 446.713C408.221 338.454 452.088 171.566 400.237 0.287666L401.297 0C425.87 81.1747 428.962 164.543 410.237 241.094C390.553 321.574 346.776 392.942 283.639 447.481L283.636 447.484Z" fill="#FCFDFE"/>
<path d="M504.912 334.562C458.519 333.218 387.65 352.579 346.933 377.723L346.332 376.851C387.209 351.608 458.363 332.171 504.946 333.519L504.912 334.562Z" fill="#FCFDFE"/>
<path d="M307.985 425.964L307.046 425.419C320.257 405.032 322.071 379.109 312.433 348.368C305.366 325.827 292.422 301.272 273.961 275.377L274.875 274.795C293.4 300.777 306.392 325.429 313.491 348.071C323.221 379.107 321.368 405.315 307.987 425.964H307.985Z" fill="#FCFDFE"/>
<path d="M412.45 230.133C412.45 230.133 412.375 228.107 412.832 227.353C436.026 189.169 479.729 168.397 512.632 157.652L512.992 158.64C479.625 169.539 435.097 190.787 412.452 230.135L412.45 230.133Z" fill="#FCFDFE"/>
<path d="M421.632 127.655C410.216 77.9643 366.926 43.136 342.355 26.9186L342.985 26.0625C367.286 42.1027 409.445 76.0611 421.758 124.792C421.963 125.599 421.632 127.655 421.632 127.655Z" fill="#FCFDFE"/>
</g>
</g>
<g style="mix-blend-mode:soft-light">
<path d="M322.293 506.717C316.993 505.591 306.516 498.724 304.566 495.866C291.581 476.859 264.827 442.77 268.633 419.117C269.282 415.078 288.835 412.986 291.888 409.495C304.011 405.299 308.491 404.554 317.947 395.208C345.859 367.615 294.315 306.697 362.574 292.847C412.574 282.703 452.065 302.138 453.819 230.302C455.572 158.464 528.112 33.633 602.894 90.3998C645.812 122.977 593.47 179.613 612.612 226.445C630.802 270.948 608.318 304.303 558.055 325.655C507.795 347.005 531.39 368.869 541.315 410.517C553.24 460.543 473.445 462.234 436.537 460.041C406.815 458.276 329.871 472.754 322.293 506.717Z" fill="#D8DEE8"/>
<mask id="mask1_103_600" style="mask-type:luminance" maskUnits="userSpaceOnUse" x="268" y="76" width="353" height="431">
<path d="M322.293 506.717C316.993 505.591 306.516 498.724 304.566 495.866C291.581 476.859 264.827 442.77 268.633 419.117C269.282 415.078 288.835 412.986 291.888 409.495C304.011 405.299 308.491 404.554 317.947 395.208C345.859 367.615 294.315 306.697 362.574 292.847C412.574 282.703 452.065 302.138 453.819 230.302C455.572 158.464 528.112 33.633 602.894 90.3998C645.812 122.977 593.47 179.613 612.612 226.445C630.802 270.948 608.318 304.303 558.055 325.655C507.795 347.005 531.39 368.869 541.315 410.517C553.24 460.543 473.445 462.234 436.537 460.041C406.815 458.276 329.871 472.754 322.293 506.717Z" fill="white"/>
</mask>
<g mask="url(#mask1_103_600)">
<path d="M287.069 459.601L286.66 458.579C453.039 399.106 564.102 252.67 583.751 66.8613L584.901 66.9695C575.589 155.03 544.459 237.35 494.875 305.035C442.747 376.192 370.891 429.64 287.069 459.601Z" fill="#FCFDFE"/>
<path d="M548.794 430.77C504.166 412.449 427.222 405.319 377.273 414.874C377.273 414.874 378.776 413.48 379.654 413.323C429.837 404.461 505.212 411.689 549.254 429.766L548.794 430.77Z" fill="#FCFDFE"/>
<path d="M318.899 446.698C340.114 431.688 352.495 407.108 355.698 373.637C358.048 349.096 355.499 320.435 348.123 288.449L349.251 288.217C356.652 320.311 359.208 349.082 356.846 373.736C353.889 404.645 343.147 428.068 324.889 443.473C323.187 444.91 318.895 446.698 318.895 446.698H318.899Z" fill="#FCFDFE"/>
<path d="M501.52 295.169C501.52 295.169 502.531 292.971 503.417 292.313C541.599 263.896 592.443 259.726 628.76 261.321L628.707 262.414C591.75 260.791 539.685 265.159 501.52 295.171V295.169Z" fill="#FCFDFE"/>
<path d="M552.438 198.543C561.67 145.967 533.767 96.3754 516.48 71.5717L517.444 70.9688C534.502 95.4434 561.568 143.81 553.778 195.65C553.63 196.628 552.438 198.543 552.438 198.543Z" fill="#FCFDFE"/>
</g>
</g>
<path d="M208.353 126.701C208.446 165.969 186.387 198.013 147.105 199.067C146.497 199.083 136.473 199.067 135.862 199.067C95.7338 199.159 63.1278 166.91 63.0354 127.035C62.9429 87.1601 95.3982 54.762 135.527 54.6699C136.465 54.6699 145.274 54.7505 146.203 54.7827C185.035 56.1566 208.263 87.7584 208.353 126.701Z" fill="url(#paint2_linear_103_600)"/>
<path d="M149.276 199.715C189.405 199.715 221.935 167.391 221.935 127.516C221.935 87.6412 189.405 55.3164 149.276 55.3164C109.148 55.3164 76.6172 87.6412 76.6172 127.516C76.6172 167.391 109.148 199.715 149.276 199.715Z" fill="url(#paint3_linear_103_600)"/>
<path style="mix-blend-mode:multiply" opacity="0.3" d="M149.277 197.895C188.394 197.895 220.105 166.385 220.105 127.516C220.105 88.6465 188.394 57.1367 149.277 57.1367C110.16 57.1367 78.4492 88.6465 78.4492 127.516C78.4492 166.385 110.16 197.895 149.277 197.895Z" fill="url(#paint4_linear_103_600)"/>
<path d="M149.276 195.772C187.212 195.772 217.966 165.213 217.966 127.517C217.966 89.8205 187.212 59.2617 149.276 59.2617C111.339 59.2617 80.5859 89.8205 80.5859 127.517C80.5859 165.213 111.339 195.772 149.276 195.772Z" fill="url(#paint5_linear_103_600)"/>
<path d="M147.807 194.313C184.932 194.313 215.028 164.407 215.028 127.517C215.028 90.6263 184.932 60.7207 147.807 60.7207C110.682 60.7207 80.5859 90.6263 80.5859 127.517C80.5859 164.407 110.682 194.313 147.807 194.313Z" fill="url(#paint6_linear_103_600)"/>
<path d="M154.906 125.601L206.112 144.392C207.778 139.083 208.678 133.438 208.678 127.585C208.678 97.4425 184.861 72.8275 154.906 71.3086V125.604V125.601Z" fill="url(#paint7_linear_103_600)"/>
<g style="mix-blend-mode:multiply" opacity="0.2">
<path d="M130.932 126C125.615 109.708 144.835 97.9509 141.805 78.9604C140.468 70.5813 135.265 63.7164 128.864 58.207C98.6101 66.9889 76.542 94.7912 76.6174 127.682C76.7098 167.557 109.316 199.805 149.444 199.713C159.284 199.69 168.66 197.723 177.208 194.181C175.97 171.138 168.499 158.119 160.556 150.279C148.313 138.192 134.983 138.424 130.929 126.002L130.932 126Z" fill="#D8DEE8"/>
</g>
<path d="M147.621 132.806C149.981 132.806 151.894 130.905 151.894 128.56C151.894 126.215 149.981 124.314 147.621 124.314C145.261 124.314 143.348 126.215 143.348 128.56C143.348 130.905 145.261 132.806 147.621 132.806Z" fill="url(#paint8_linear_103_600)"/>
<path d="M147.62 94.7168C146.129 94.7168 144.918 95.9181 144.918 97.4001V126.029C144.918 127.511 146.127 128.712 147.62 128.712C149.113 128.712 150.322 127.511 150.322 126.029V97.4001C150.322 95.9181 149.113 94.7168 147.62 94.7168Z" fill="url(#paint9_linear_103_600)"/>
<path d="M147.326 129.194C146.745 128.549 145.745 128.494 145.096 129.072L108.725 162.142C108.075 162.719 108.02 163.711 108.603 164.358C109.184 165.002 110.184 165.057 110.833 164.48L147.204 131.41C147.854 130.832 147.909 129.84 147.326 129.194Z" fill="url(#paint10_linear_103_600)"/>
<path d="M485.854 602.479C485.854 602.479 487.581 609.103 487.635 611.501C487.69 613.901 459.785 617.245 459.353 615.477C458.917 613.71 463.589 610.493 466.962 609.227C470.336 607.961 480.227 604.514 480.227 604.514L485.854 602.479Z" fill="url(#paint11_linear_103_600)"/>
<path d="M478.492 596.306L480.092 604.581C480.092 604.581 483.519 606.369 486.25 604.581L486.917 595.39L478.492 596.303V596.306Z" fill="url(#paint12_linear_103_600)"/>
<path d="M536.746 609.568C536.746 609.568 538.473 616.192 538.529 618.59C538.585 620.99 510.68 624.334 510.247 622.566C509.812 620.799 514.484 617.582 517.857 616.316C521.23 615.05 531.121 611.603 531.121 611.603L536.749 609.568H536.746Z" fill="url(#paint13_linear_103_600)"/>
<path d="M529.381 603.393L530.982 611.669C530.982 611.669 534.406 613.457 537.14 611.669L537.803 602.478L529.379 603.391L529.381 603.393Z" fill="url(#paint14_linear_103_600)"/>
<path d="M465.127 378.093C462.416 384.548 459.704 391.006 456.992 397.461C457.391 433.099 459.359 471.736 463.68 512.889C466.895 543.506 471.088 572.422 475.884 599.499C480.257 598.977 484.63 598.452 489.002 597.93C494.341 585.528 500.304 566.901 499.105 544.557C497.855 521.249 490.143 518.727 488.73 496.427C486.899 467.525 499.034 458.856 502.909 423.63C504.39 410.158 504.677 392.688 500.81 371.811C488.915 373.905 477.02 375.999 465.125 378.091L465.127 378.093Z" fill="url(#paint15_linear_103_600)"/>
<path style="mix-blend-mode:multiply" opacity="0.3" d="M500.811 371.811C494.388 372.941 487.963 374.071 481.54 375.203C471.505 395.289 469.942 415.523 472.736 424.208C476.69 436.497 484.687 439.921 485.331 452.512C485.966 464.969 478.502 468.778 474.835 483.796C472.296 494.193 473.981 503.449 477.459 521.536C484.461 557.968 494.785 568.487 487.953 581.124C486.012 584.714 482.338 589.093 474.728 592.801C475.112 595.038 475.491 597.284 475.885 599.495C480.258 598.973 484.631 598.448 489.004 597.926C494.342 585.524 500.305 566.897 499.106 544.553C497.856 521.246 490.144 518.723 488.731 496.423C486.9 467.521 499.036 458.854 502.91 423.626C504.391 410.154 504.678 392.684 500.811 371.807V371.811Z" fill="url(#paint16_linear_103_600)"/>
<path d="M483.492 387.953C492.223 418.848 500.434 452.001 507.635 487.274C516.329 529.862 522.46 570.172 526.707 607.704C531.534 607.47 536.364 607.233 541.192 606.996C557.165 570.018 556.285 545.838 552.221 530.359C550.655 524.394 546.785 512.759 544.631 495.094C543.13 482.779 543.167 473.321 543.249 461.945C543.432 437.003 545.74 431.388 544.533 412.411C543.403 394.604 542.717 385.601 536.909 380.757C521.607 367.994 486.177 386.517 483.492 387.953Z" fill="url(#paint17_linear_103_600)"/>
<path d="M343.301 316.177C343.301 316.177 332.692 315.316 331.158 313.689C329.623 312.062 328.631 311.977 328.4 310.486C328.169 308.994 323.704 309.712 325.562 312.948C327.42 316.184 323.227 314.488 322.405 314.409C320.513 314.23 313.297 314.03 313.506 314.453C313.715 314.877 310.271 319.129 315.396 321.327C319.883 323.251 318.567 322.402 321.486 322.535C324.402 322.667 333.434 319.88 333.434 319.88L341.168 320.437L343.303 316.181L343.301 316.177Z" fill="url(#paint18_linear_103_600)"/>
<path d="M337.081 311.487C336.614 314.833 336.147 318.179 335.68 321.525C342.706 327.071 358.239 337.701 379.85 339.296C417.948 342.108 455.729 315.426 462.765 285.417C466.247 270.555 463.402 249.703 453.642 246.35C450.933 245.418 446.862 245.551 438.471 250.886C416.075 265.122 414.171 283.818 401.799 296.463C392.895 305.565 375.387 314.784 337.083 311.487H337.081Z" fill="white"/>
<path d="M453.847 404.099C448.618 397.201 453.823 389.773 453.981 375.942C454.159 360.265 447.604 358.155 439.155 332.84C433.538 316.004 428.141 299.842 431.283 280.204C432.788 270.794 435.342 254.832 448.404 246.225C455.146 241.784 464.833 241.443 483.936 240.941C507.558 240.322 519.368 240.012 528.508 243.717C529.845 244.26 557.694 255.971 561.425 278.218C565.224 300.861 539.26 305.912 538.336 336.564C537.92 350.323 542.497 371.091 545.464 384.56C548.314 397.494 549.795 400.748 547.405 404.911C541.646 414.942 521.309 413.75 480.636 411.366C464.682 410.43 457.748 409.247 453.847 404.099Z" fill="white"/>
<path d="M509.471 333.833C511.672 339.625 518.163 343.586 523.64 357.667C524.822 360.707 533.244 382.361 525.214 388.457C520.576 391.978 515.668 386.346 503.698 386.468C482.957 386.682 474.518 403.832 460.666 400.373C458.263 399.772 455.035 398.35 451.631 394.774C451.307 398.251 451.665 401.225 453.841 404.097C457.745 409.245 464.676 410.428 480.63 411.364C521.303 413.748 541.64 414.943 547.399 404.909C549.789 400.746 548.306 397.492 545.458 384.558C542.491 371.089 537.916 350.322 538.33 336.562C539.254 305.911 565.218 300.859 561.419 278.216C560.403 272.164 557.577 266.919 554.011 262.438C521.824 277.699 502.547 315.627 509.469 333.833H509.471Z" fill="#F4F7FA"/>
<path d="M574.875 403.845C574.875 403.845 581.351 405.902 582.037 416.054C580.982 415.964 578.513 416.017 578.513 416.017C578.513 416.017 578.97 408.636 574.359 407.141C574.731 406.284 574.873 403.843 574.873 403.843L574.875 403.845Z" fill="url(#paint19_linear_103_600)"/>
<path d="M550.848 402.876C551.013 404.745 551.176 406.616 551.341 408.484C554.6 407.688 558.156 406.765 561.969 406.639C566.911 406.475 571.425 407.051 575.431 407.997C575.608 407.764 575.985 407.21 576.16 406.296C576.44 404.825 575.97 403.594 575.885 403.376C573.847 402.664 571.632 402.061 569.253 401.636C562.414 400.411 556.205 401.426 550.848 402.876Z" fill="url(#paint20_linear_103_600)"/>
<path d="M550.539 404.489C550.549 403.815 550.602 402.97 550.845 402.876C551.074 402.786 551.383 403.401 551.514 403.744C551.57 403.886 551.692 404.229 551.767 405.32C551.864 406.726 551.75 407.412 551.646 407.838C551.582 408.093 551.485 408.48 551.339 408.487C551.222 408.494 551.12 408.247 550.967 407.771C550.763 407.131 550.515 406.063 550.537 404.492L550.539 404.489Z" fill="url(#paint21_linear_103_600)"/>
<path d="M544.508 416.231C545.882 416.487 549.216 417.244 549.216 417.244C549.216 417.244 547.042 410.653 551.137 407.675C551.245 407.18 551.352 406.395 551.223 405.447C551.123 404.715 550.914 404.126 550.734 403.719C548.995 404.619 545.206 407.682 544.508 416.229V416.231Z" fill="url(#paint22_linear_103_600)"/>
<path d="M515.785 417.692C515.785 417.692 515.958 414.205 521.795 414.267C522.712 414.912 522.758 417.759 522.758 417.759L515.785 417.692Z" fill="url(#paint23_linear_103_600)"/>
<path d="M510.577 486.347L526.56 495.269L536.157 461.573L520.31 416.477L515.784 417.692L508.889 482.798C508.734 484.276 509.407 485.694 510.58 486.347H510.577Z" fill="url(#paint24_linear_103_600)"/>
<path style="mix-blend-mode:multiply" opacity="0.3" d="M536.158 461.573L520.311 416.477L515.785 417.692C516.901 421.696 517.437 428.202 517.687 431.824C518.757 447.225 522.305 451.5 520.586 462.238C519.156 471.177 516.028 472.42 516.303 478.431C516.602 484.976 520.622 490.395 525.387 494.616L526.559 495.272L536.156 461.576L536.158 461.573Z" fill="url(#paint25_linear_103_600)"/>
<path d="M520.309 416.477L605.315 417.317L618.234 486.598L526.559 495.269L520.309 416.477Z" fill="url(#paint26_linear_103_600)"/>
<g style="mix-blend-mode:multiply" opacity="0.2">
<path d="M605.317 417.317L577.259 417.038C576.736 418.472 575.938 420.456 574.771 422.699C562.013 447.236 532.359 450.403 532.899 454.494C533.709 460.604 598.838 451.754 600.46 459.949C601.243 463.902 587.768 473.039 573.54 476.626C556.314 480.971 543.517 475.892 534.942 485.374C532.026 488.598 530.737 492.347 530.109 494.878L618.236 486.596L605.317 417.317Z" fill="url(#paint27_linear_103_600)"/>
</g>
<path d="M521.792 414.267C520.804 414.256 519.425 414.125 517.92 414.946C517.599 415.121 517.314 415.317 517.066 415.512L517.759 415.287C518.873 414.988 520.408 415.416 520.979 416.481C521.682 417.791 521.935 420.803 522.089 422.297C522.526 426.543 525.209 452.934 525.209 452.934C525.411 455.157 527.184 456.833 529.275 456.782L608.019 452.531C608.6 452.518 609.174 452.338 609.653 451.977C610.653 451.222 611.103 449.919 610.872 448.681L606.998 418.186C606.669 416.431 605.261 415.156 603.627 415.14L521.789 414.265L521.792 414.267Z" fill="url(#paint28_linear_103_600)"/>
<path d="M522.663 414.277C521.678 414.265 520.506 414.125 519.2 414.445C518.847 414.53 518.283 414.689 518.035 414.887C518.035 414.887 520.805 414.288 521.851 416.491C522.491 417.835 522.807 420.813 522.96 422.306C523.398 426.552 526.078 452.934 526.078 452.934C526.28 455.158 528.05 456.833 530.142 456.78L609.7 454.799C610.282 454.785 610.853 454.605 611.332 454.242C612.329 453.487 612.782 452.184 612.548 450.946L607.816 418.196C607.487 416.44 606.082 415.167 604.447 415.149L522.661 414.275L522.663 414.277Z" fill="url(#paint29_linear_103_600)"/>
<path style="mix-blend-mode:multiply" opacity="0.1" d="M612.555 450.948L607.822 418.198C607.494 416.442 606.088 415.17 604.453 415.151L522.667 414.277C521.682 414.265 520.51 414.125 519.204 414.445C518.851 414.53 518.287 414.689 518.039 414.887C518.039 414.887 520.809 414.288 521.855 416.491C521.955 416.702 522.047 416.958 522.132 417.239C530.112 417.616 538.047 417.476 545.937 418.039C561.404 419.117 576.872 419.259 591.153 425.291C595.691 427.208 598.792 433.992 597.566 437.115C596.681 439.368 593.655 439.184 592.6 442.146C591.486 445.264 594.154 447.379 593.035 449.568C591.863 451.864 588.295 450.778 582.5 452.435C579.297 453.351 576.836 454.697 575.294 455.657L609.704 454.801C610.285 454.787 610.857 454.608 611.336 454.244C612.333 453.489 612.786 452.187 612.552 450.948H612.555Z" fill="url(#paint30_linear_103_600)"/>
<path d="M575.126 461.105L565.163 463.48L564.107 463.57C563.042 463.662 562.125 462.783 562.079 461.616L561.639 450.593C561.592 449.426 562.436 448.459 563.504 448.441L564.567 448.425L574.587 449.635C575.54 449.619 576.342 449.129 576.386 450.218L576.795 460.5C576.839 461.588 576.08 461.025 575.129 461.105H575.126Z" fill="url(#paint31_linear_103_600)"/>
<path d="M575.882 462.619L564.845 463.562C563.78 463.655 562.863 462.775 562.817 461.609L562.377 450.588C562.331 449.421 563.175 448.454 564.242 448.436L575.31 448.261C576.264 448.245 577.071 449.124 577.115 450.21L577.523 460.49C577.567 461.576 576.83 462.534 575.882 462.614V462.619Z" fill="url(#paint32_linear_103_600)"/>
<path d="M562.541 388.815C562.541 388.815 561.614 394.631 560.685 395.181C559.758 395.729 556.857 398.803 557.438 400.778C558.017 402.752 555.814 407.261 559.931 408.354C564.049 409.447 568.781 410.616 569.255 407.122C569.73 403.629 568.57 399.68 568.686 396.716C568.803 393.752 570.425 390.79 570.425 390.79L562.538 388.815H562.541Z" fill="url(#paint33_linear_103_600)"/>
<path d="M523.642 241.966C518.138 267.354 522.888 283.809 528.627 294.355C540.245 315.707 560.214 320.745 563.539 339.685C565.937 353.345 566.98 380.287 559.932 389.025C566.285 391.423 566.948 391.29 571.742 391.29C578.167 387.817 591.86 364.645 597.633 335.075C604.638 299.207 575.332 256.851 523.639 241.968L523.642 241.966Z" fill="white"/>
<path d="M506.5 241.699C503.774 240.645 490.541 238.098 487.606 232.669C484.359 226.663 483.26 218.398 483.26 218.398C483.26 218.398 474.13 220.693 475.465 225.157C476.803 229.62 474.526 239.851 469.285 242.137C465.615 243.736 461.07 244.378 460.085 245.448C459.978 245.464 459.91 245.478 459.886 245.492C459.129 245.938 461.481 249.37 470.915 254.345C503.465 249.708 506.892 244.433 507.033 242.62C507.176 242.224 507.023 241.902 506.498 241.699H506.5Z" fill="url(#paint34_linear_103_600)"/>
<path d="M471.041 216.299C466.807 212.946 466.224 212.562 465.689 211.333C463.544 206.399 467.106 199.152 472.406 197.032C472.681 196.922 476.239 195.539 477.759 196.933C479.05 198.116 477.457 200.005 478.493 202.397C479.464 204.633 481.582 204.647 485.736 207.363C489.158 209.6 491.283 210.99 491.928 213.123C493.256 217.523 488.085 224.436 483.007 224.643C481.181 224.717 480.611 223.875 471.041 216.301V216.299Z" fill="url(#paint35_linear_103_600)"/>
<path d="M482.57 225.369C482.57 225.369 478.776 230.156 472.295 229.159C466.492 228.269 466.898 215.798 470.894 213.508C472.226 212.744 474.756 212.608 476.728 213.329C477.893 213.754 478.251 214.263 480.167 214.926C481.935 215.536 482.468 215.393 482.971 215.878C483.601 216.486 483.966 217.869 482.453 221.388C483.676 220.421 485.055 220.134 485.96 220.642C486.104 220.723 486.481 221.02 486.665 221.429C487.337 222.921 485.787 224.603 482.57 225.369Z" fill="url(#paint36_linear_103_600)"/>
<path d="M479.838 253.297C479.838 253.297 478 262.59 475.123 262.772C472.248 262.954 470.139 263.315 470.139 263.315L466.922 251.951C466.922 251.951 471.115 255.182 479.838 253.297Z" fill="url(#paint37_linear_103_600)"/>
<path d="M476.485 261.996C476.485 261.996 482.884 329.977 505.312 340.86C504.738 343.037 505.312 360.723 505.312 360.723C505.312 360.723 484.404 354.767 483.212 355.161C482.021 355.554 457.893 317.709 470.135 263.317L476.483 261.998L476.485 261.996Z" fill="url(#paint38_linear_103_600)"/>
<path d="M203.941 602.109L212.794 600.385L254.586 549.625C254.586 549.625 231.601 541.98 230.764 542.242C229.927 542.507 210.425 553.316 209.45 554.37C208.475 555.424 196.215 578.23 196.215 579.945C196.215 581.659 203.939 602.111 203.939 602.111L203.941 602.109Z" fill="url(#paint39_linear_103_600)"/>
<path d="M19.1665 561.748H23.6463L58.0204 528.4C58.0204 528.4 45.3788 524.545 44.333 524.641C43.2873 524.738 27.4062 530.386 27.4062 530.386C27.4062 530.386 20.1977 546.886 19.8839 547.876C19.5702 548.865 19.1641 561.746 19.1641 561.746L19.1665 561.748Z" fill="url(#paint40_linear_103_600)"/>
<path d="M265.945 552.677C265.945 552.677 265.962 552.677 265.969 552.677C268.151 552.845 270.274 553.613 272.283 554.736C274.209 555.62 276.646 556.656 276.672 558.034V558.064C283.587 565.18 289.158 578.458 289.479 593.431C289.908 613.369 281.595 629.637 270.322 631.695L270.318 631.706C269.556 631.824 260.132 635.237 230.211 632.56C229.182 620.439 227.363 551.744 227.363 551.744C227.363 551.744 251.199 550.159 265.945 552.672V552.677Z" fill="url(#paint41_linear_103_600)"/>
<path d="M207.064 591.049C207.512 613.855 219.039 632.56 232.571 632.8C245.843 633.034 256.047 615.351 255.593 593.33C255.138 571.329 244.201 552.707 230.937 551.696C217.415 550.665 206.619 568.268 207.064 591.051V591.049Z" fill="url(#paint42_linear_103_600)"/>
<path d="M217.655 591.385C217.976 607.568 225.676 620.891 234.745 621.128C243.697 621.363 250.604 608.726 250.278 592.92C249.952 577.126 242.522 563.843 233.575 563.236C224.511 562.619 217.334 575.214 217.655 591.385Z" fill="white"/>
<path d="M68.8746 531.84C68.8746 531.84 68.8868 531.84 68.8941 531.84C70.6621 531.987 72.6588 532.645 74.2883 533.614C75.8521 534.376 76.4066 535.297 78.1236 536.454V536.482C83.3257 542.624 88 554.064 88.2772 566.961C88.6445 584.135 81.7813 598.144 72.6394 599.906L72.5688 599.918C71.9511 600.019 64.2757 602.951 39.9993 600.62C39.1529 590.179 39.4302 531.007 39.4302 531.007C39.4302 531.007 56.9115 529.661 68.877 531.84H68.8746Z" fill="url(#paint43_linear_103_600)"/>
<path d="M21.145 564.839C21.5293 584.485 30.8998 600.606 41.878 600.822C52.6445 601.036 60.9061 585.813 60.5145 566.843C60.123 547.892 51.2339 531.842 40.4723 530.961C29.5014 530.061 20.7608 545.213 21.145 564.839Z" fill="url(#paint44_linear_103_600)"/>
<path d="M29.7359 565.138C30.0132 579.077 36.2708 590.561 43.63 590.772C50.8921 590.982 56.4833 580.106 56.2036 566.489C55.9239 552.883 49.8828 541.437 42.6232 540.905C35.2688 540.366 29.4611 551.208 29.7359 565.138Z" fill="white"/>
<path d="M529.556 533.09H529.585C532.29 533.041 534.544 533.753 537.047 534.855C539.454 535.686 540.425 536.866 542.147 538.323V538.36C552.456 545.943 558.3 561.392 558.65 579.291C559.117 603.112 548.684 622.936 534.556 625.879L534.646 625.891C533.7 626.063 522.126 630.457 486.31 628.583C485.118 614.78 483.09 536.268 483.09 536.268C483.09 536.268 511.498 531.803 529.556 533.088V533.09Z" fill="url(#paint45_linear_103_600)"/>
<path d="M489.106 628.766C504.858 628.491 517.221 607.463 516.72 581.8C516.218 556.136 503.041 535.556 487.288 535.832C471.536 536.107 459.172 557.135 459.674 582.798C460.176 608.462 473.353 629.042 489.106 628.766Z" fill="url(#paint46_linear_103_600)"/>
<path d="M491.68 615.292C502.308 615.106 510.633 600.079 510.274 581.728C509.915 563.377 501.008 548.651 490.38 548.837C479.752 549.023 471.428 564.05 471.786 582.402C472.145 600.753 481.052 615.478 491.68 615.292Z" fill="url(#paint47_linear_103_600)"/>
<path d="M602.456 591.852L602.475 592.805C602.699 604.251 593.061 613.696 580.967 613.91L313.423 618.6C289.173 619.026 284.153 615.332 283.494 614.688C283.448 614.663 283.382 614.628 283.363 614.594L262.798 611.365C264.551 605.701 265.369 599.398 265.24 592.77C264.765 568.505 250.251 549.063 233.071 549.365C217.699 549.634 205.697 565.61 202.715 586.363C202.715 586.376 202.715 586.387 202.715 586.398C202.764 588.835 202.766 591.313 202.815 593.863C202.871 596.685 203.515 599.442 203.936 602.116L66.2884 580.474L63.7226 579.524C64.7124 575.358 65.1964 570.834 65.1015 566.091C64.71 546.095 54.0675 530.071 41.3602 530.294C29.7424 530.496 20.4108 544.164 19.1583 561.753C18.2584 560.77 17.361 559.677 16.5001 558.462C12.3267 552.561 10.9502 546.493 10.4954 542.192C7.50892 504.738 18.4433 479.95 29.329 464.971C38.8917 451.789 48.4203 446.189 48.4203 446.189L88.2933 421.906C110.906 408.109 137.14 400.568 164.019 400.096L318.895 397.381C342.507 396.966 365.514 401.875 386.609 411.916C429.386 432.287 476.331 463.318 476.331 463.318C532.307 468.556 563.245 491.921 563.245 491.921C570.397 497.019 576.154 502.473 580.804 508.095C581.455 508.878 582.081 509.672 582.679 510.465C589.433 519.291 593.506 528.418 595.856 537.085C595.894 537.216 595.936 537.345 595.965 537.476C602.303 561.403 595.491 581.611 595.491 581.611C599.674 583.512 602.371 587.472 602.458 591.857L602.456 591.852Z" fill="url(#paint48_linear_103_600)"/>
<path d="M283.417 614.591C283.434 614.624 283.47 614.653 283.519 614.686C285.404 615.758 287.872 621.645 349.879 617.96L580.962 613.91C593.066 613.698 602.702 604.251 602.478 592.798L602.458 591.852C602.454 591.597 602.432 591.355 602.41 591.099C602.06 587.019 599.431 583.397 595.483 581.606L326.378 588.727C326.378 588.727 300.869 584.798 292.25 589.261C291.043 589.891 290.161 590.676 289.74 591.661C286.24 599.702 281.648 610.886 283.414 614.589L283.417 614.591Z" fill="url(#paint49_linear_103_600)"/>
<path d="M595.855 537.078C592.205 540.129 587.389 542.161 582.029 542.815L552.497 546.417C549.394 546.803 546.225 546.186 543.732 544.702C541.2 543.183 539.615 540.949 539.364 538.482L539.053 535.308C538.615 530.862 542.535 526.95 548.158 526.1C558.346 524.577 567.169 521.217 574.028 516.467L582.678 510.463C585.074 512.955 587.929 516.43 590.422 520.966C593.883 527.263 595.262 533.073 595.855 537.082V537.078Z" fill="white"/>
<path d="M405.719 537.517C407.655 539.637 410.845 541.335 412.803 541.305C448.751 540.67 484.662 540.037 520.534 539.404C522.487 539.368 525.218 537.563 526.595 535.391C527.964 533.232 527.281 531.527 525.08 531.566C485.516 532.259 445.903 532.954 406.246 533.649C404.055 533.692 403.778 535.412 405.716 537.517H405.719Z" fill="url(#paint50_linear_103_600)"/>
<path d="M418.133 551.231C420.179 553.452 423.114 555.252 424.717 555.219C453.928 554.697 483.115 554.177 512.275 553.657C513.867 553.629 516.341 551.74 517.79 549.457C519.237 547.19 518.885 545.39 517.049 545.427C484.01 546.014 450.941 546.599 417.839 547.186C415.993 547.218 416.11 549.02 418.133 551.229V551.231Z" fill="url(#paint51_linear_103_600)"/>
<path d="M374.91 555.319C381.465 555.045 386.594 550.454 386.484 544.958L386.419 541.607C386.316 536.383 381.501 532.094 375.285 531.689L363.577 530.929L293.605 514.797L295.296 523.077C297.849 535.587 308.19 545.971 322.415 550.311L332.822 553.487C339.67 555.576 346.957 556.495 354.248 556.189L374.91 555.321V555.319Z" fill="white"/>
<g style="mix-blend-mode:soft-light" opacity="0.4">
<path d="M292.254 589.263L321.445 596.026L602.414 591.101C602.064 587.021 599.435 583.399 595.488 581.608L326.382 588.729C326.382 588.729 300.873 584.8 292.254 589.263Z" fill="white"/>
</g>
<path d="M108.917 574.113C108.934 574.113 108.951 574.113 108.971 574.113C109.873 572.496 110.615 572.919 110.571 572.035C110.542 571.499 107.842 518.032 109.083 496.312C110.16 477.497 113.419 474.038 113.708 473.778C114.431 473.377 114.747 472.473 114.411 471.723C114.049 470.908 113.052 470.503 112.193 470.844C110.98 471.329 106.921 474.56 105.697 495.951C104.445 517.834 107.159 571.658 107.186 572.196C107.232 573.064 108.005 574.132 108.915 574.116L108.917 574.113Z" fill="url(#paint52_linear_103_600)"/>
<path style="mix-blend-mode:multiply" opacity="0.2" d="M15.5326 556.992C16.7097 558.863 17.916 560.476 19.166 561.746C20.4136 544.162 29.7477 530.49 41.3606 530.287C54.0728 530.064 64.7153 546.095 65.1068 566.084C65.1993 570.825 64.7129 575.354 63.7279 579.519L66.2864 580.467L203.941 602.107C203.518 599.437 202.869 596.678 202.815 593.859C202.766 591.311 202.769 588.828 202.72 586.393V586.361C202.365 568.213 172.395 569.331 159.221 570.139C144.76 571.018 127.965 575.494 115.355 566.294C107.898 560.849 104.318 551.809 96.9906 546.01C88.7874 539.536 78.6945 535.258 69.4869 530.243C50.094 519.655 44.7995 507.41 45.4488 483.508C45.8623 468.374 36.3653 465.224 29.3148 464.964C18.4316 479.946 7.50936 504.733 10.4959 542.192C10.7221 545.708 11.814 551.08 15.5326 556.994V556.992Z" fill="url(#paint53_linear_103_600)"/>
<path d="M192.508 410.809C192.508 410.809 211.426 454.27 216.055 460.598C216.49 461.183 217.042 461.735 217.696 462.237C224.039 467.06 239.341 467.675 239.341 467.675L464.483 463.728C413.559 428.84 370.249 407.695 370.249 407.695L192.508 410.811V410.809Z" fill="url(#paint54_linear_103_600)"/>
<path style="mix-blend-mode:multiply" opacity="0.3" d="M464.482 463.728C413.555 428.84 370.248 407.695 370.248 407.695L358.587 407.9C355.406 412.784 351.21 416.956 345.996 419.973C322.046 433.258 293.139 427.006 267.537 435.604C250.897 440.972 239.119 452.573 231.543 466.869C235.867 467.537 239.342 467.677 239.342 467.677L464.484 463.73L464.482 463.728Z" fill="url(#paint55_linear_103_600)"/>
<path d="M54.8438 450.077C54.8438 450.077 79.0472 458.946 111.483 467.127C112.441 462.401 114.017 456.458 116.617 449.909C121.391 437.792 129.614 423.563 143.795 410.895C132.654 411.859 119.625 414.139 105.936 418.928C89.1328 424.799 71.3547 434.453 54.8462 450.077H54.8438Z" fill="url(#paint56_linear_103_600)"/>
<path d="M119.785 469.162C135.948 472.996 153.695 476.498 171.278 478.625C181.293 479.828 191.248 480.583 200.818 480.687C203.612 480.719 206.389 480.701 209.116 480.622C209.116 480.622 209.116 480.606 209.099 480.59C208.641 478.899 190.229 412.821 174.311 411.129C170.646 410.745 164.863 410.268 157.581 410.285C140.669 422.583 131.041 437.67 125.603 450.521C122.543 457.738 120.792 464.241 119.785 469.162Z" fill="url(#paint57_linear_103_600)"/>
<path opacity="0.3" d="M200.816 480.686C203.611 480.719 206.388 480.7 209.114 480.622C209.114 480.622 209.114 480.606 209.097 480.59C206.845 480.613 204.051 480.645 200.819 480.686H200.816Z" fill="url(#paint58_linear_103_600)"/>
<path style="mix-blend-mode:multiply" opacity="0.7" d="M125.603 450.521C122.543 457.737 120.792 464.241 119.785 469.161C135.948 472.995 153.695 476.498 171.278 478.624C168.761 476.346 166.419 473.453 164.349 469.822C155.319 454.037 139.878 451.568 125.6 450.521H125.603Z" fill="url(#paint59_linear_103_600)"/>
<path style="mix-blend-mode:multiply" opacity="0.7" d="M54.8438 450.077C54.8438 450.077 79.0472 458.946 111.483 467.127C112.441 462.4 114.017 456.458 116.617 449.909C108 449.244 100.544 448.107 96.2002 443.345C88.5856 434.955 97.64 425.246 105.933 418.931C89.1303 424.801 71.3523 434.455 54.8438 450.079V450.077Z" fill="url(#paint60_linear_103_600)"/>
<path d="M208.336 483.645C208.336 483.645 200.5 456.496 190.101 455.587C179.702 454.678 149.951 447.197 147.524 460.699C145.097 474.203 150.61 480.821 165.615 481.385C180.621 481.949 190.6 480.948 190.6 480.948L197.655 487.836C197.655 487.836 208.944 494.915 208.339 483.647L208.336 483.645Z" fill="url(#paint61_linear_103_600)"/>
<path d="M211.797 483.586C211.797 483.586 203.961 456.437 193.562 455.528C183.163 454.619 153.412 447.137 150.985 460.639C148.557 474.143 154.071 480.762 169.076 481.326C184.082 481.89 194.058 480.888 194.058 480.888L201.113 487.776C201.113 487.776 212.403 494.855 211.797 483.588V483.586Z" fill="url(#paint62_linear_103_600)"/>
<path d="M304.762 318.269C304.762 318.269 313.451 311.024 315.21 308.378C316.97 305.733 317.019 310.918 315.256 311.965C313.495 313.012 340.104 309.526 335.415 313.894C330.726 318.259 327.345 322.377 321.047 322.653C314.748 322.929 307.318 324.738 306.034 325.534C304.75 326.33 304.762 318.269 304.762 318.269Z" fill="url(#paint63_linear_103_600)"/>
<path d="M132.773 267.801C130.64 268.565 98.0994 280.81 91.4113 312.946C90.8714 315.542 85.6426 343.153 105.432 362.659C127.622 384.531 170.347 383.99 187.308 365.704C191.263 361.439 193.349 356.712 194.519 352.742L190.052 341.507C184.599 335.278 177.174 333.803 173.21 332.877C163.436 330.597 156.057 334.718 150.458 330.256C147.36 327.789 146.745 324.236 146.195 321.065C144.322 310.258 150.77 303.607 151.237 296.942C151.587 291.96 153.43 281.045 146.56 273.927C142.209 269.418 136.182 268.192 132.775 267.796L132.773 267.801Z" fill="url(#paint64_linear_103_600)"/>
<path d="M120.095 625.963C119.715 623.984 112.964 622.193 109.62 624.845C107.959 626.161 106.816 628.828 107.777 630.032C108.127 630.469 106.694 631.24 108.066 631.256C112.614 631.307 120.472 627.931 120.095 625.963Z" fill="url(#paint65_linear_103_600)"/>
<path d="M113.018 626.684L106.074 625.754C109.292 622.088 108.696 610.418 108.696 610.418L116.082 611.978C116.082 611.978 115.24 615.182 113.81 619.909C113.319 621.526 113.1 624.058 113.02 626.686L113.018 626.684Z" fill="url(#paint66_linear_103_600)"/>
<path d="M113.634 625.873C113.634 625.873 105.272 624.05 104.37 625.62C103.465 627.189 102.762 631.392 108.067 631.256C113.371 631.12 114.105 627.206 113.634 625.873Z" fill="url(#paint67_linear_103_600)"/>
<path d="M215.372 633.383C214.703 631.475 207.752 630.596 204.834 633.661C203.384 635.185 202.648 637.976 203.776 639.042C204.187 639.431 202.883 640.383 204.243 640.215C208.754 639.663 216.033 635.279 215.369 633.383H215.372Z" fill="url(#paint68_linear_103_600)"/>
<path d="M208.475 635.033H201.461C204.105 630.978 201.787 619.499 201.787 619.499L209.329 620.065C209.329 620.065 208.969 623.349 208.251 628.216C208.005 629.883 208.164 632.419 208.472 635.031L208.475 635.033Z" fill="#893976"/>
<path d="M226.649 384.076C229.898 394.227 234.536 410.612 237.522 431.17C246.041 489.805 227.935 491.676 231.316 556.65C232.395 577.389 212.326 625.216 210.558 626.272C209.702 626.35 208.773 626.403 207.783 626.375C206.037 626.325 203.576 626.072 200.716 625.261C197.537 624.744 186.075 595.367 188.733 577.902C190.613 565.542 190.069 552.275 188.979 525.743C188.801 521.444 177.179 442.101 177.179 442.101C173.643 471.468 169.576 496.424 166.05 515.771C154.724 577.93 117.896 615.552 115.975 616.155C115.595 616.3 112.139 617.488 109.313 615.725C108.056 614.94 107.628 613.927 107.628 613.927C106.643 613.198 107.917 551.87 119.151 505.714C135.455 438.721 128.356 423.046 133.522 393.122C137.992 367.23 226.649 384.078 226.649 384.078V384.076Z" fill="url(#paint69_linear_103_600)"/>
<path d="M231.009 394.199C221.22 398.954 196.002 407.466 165.957 403.237C152.229 401.306 141.248 396.988 133.521 393.129C134.46 390.434 135.2 387.887 135.769 385.475C139.886 367.918 134.852 357.505 132.313 347.821C128.203 332.107 128.135 333.292 124.747 320.812C119.153 300.218 118.236 279.181 122.076 274.871C132.434 263.263 151.095 262.849 160.792 262.573C171.612 262.273 196.491 258.663 210.198 270.328C210.436 270.533 207.628 271.953 209.014 273.481C210.298 274.901 214.7 279.89 218.686 286.617C221.58 291.496 224.19 297.182 226.821 305.651C230.452 317.353 232.062 327.693 232.801 334.291C233.001 336.118 233.139 337.663 233.239 338.864C235.746 370.038 233.263 384.421 231.006 394.199H231.009Z" fill="url(#paint70_linear_103_600)"/>
<path d="M208.963 634.149C208.963 634.149 200.415 633.452 199.753 635.125C199.089 636.798 199.016 641.051 204.248 640.215C209.479 639.378 209.627 635.403 208.963 634.149Z" fill="url(#paint71_linear_103_600)"/>
<path d="M188.503 250.983C189.614 249.206 190.832 247.674 190.691 245.938C190.431 242.769 190.142 239.727 189.937 238.919C188.61 233.702 188.116 232.911 187.092 231.806L185.645 230.358C185.645 230.358 185.555 230.294 185.46 230.234C184.453 229.578 180.696 228.515 179.883 228.476C177.291 228.354 172.018 237.147 168.998 250.697C168.752 251.181 168.509 251.671 168.268 252.163C166.77 255.238 165.486 258.262 164.382 261.21C146.869 262.611 144.439 264.556 144.361 265.679C144.196 268.043 154.175 270.774 161.68 271.814C178.047 274.081 194.87 269.996 194.792 267.111C194.758 265.854 191.506 264.215 177.631 262.496C177.955 260.324 178.281 258.151 178.604 255.979C179.733 255.742 186.175 254.709 188.5 250.99L188.503 250.983Z" fill="url(#paint72_linear_103_600)"/>
<path d="M191.793 227.843C190.611 231.979 187.306 235.882 186.056 236.326C185.895 236.383 184.971 236.761 184.011 237.564C183.879 237.672 183.753 237.808 183.624 237.99C181.931 240.358 185.45 244.532 184.273 245.487C183.42 246.18 180.761 244.295 180.2 244.937C179.672 245.543 181.746 247.593 181.133 248.323C180.671 248.873 179.309 247.92 178.079 248.631C177.466 248.985 177.5 249.397 176.583 250.723C176.065 251.471 175.411 252.269 174.959 252.69C172.762 254.739 168.229 254.548 167.68 253.367C167.526 253.038 167.787 252.861 167.808 251.892C167.808 251.892 167.828 250.994 167.483 249.862C166.989 248.247 165.131 246.712 163.387 244.696C160.157 240.965 159.727 238.369 159.622 237.504C159.586 237.196 159.571 236.965 159.564 236.802C159.384 233.488 160.644 229.005 162.869 226.614C166.6 222.61 171.459 226.184 177.232 222.739C183.894 218.764 182.846 210.772 185.876 210.684C189.217 210.585 193.974 220.196 191.791 227.843H191.793Z" fill="#26264F"/>
<path d="M182.975 244.118C182.297 242.454 180.042 243.287 179.524 245.089C179.004 246.891 180.325 249.231 182.217 249.328C184.109 249.425 183.892 246.359 182.978 244.118H182.975Z" fill="url(#paint73_linear_103_600)"/>
<path style="mix-blend-mode:multiply" opacity="0.3" d="M136.971 379.134C136.954 379.134 136.937 379.134 136.92 379.132C136.665 379.104 136.482 378.888 136.509 378.646C137.786 367.775 135.405 359.874 133.304 352.904C132.786 351.182 132.294 349.555 131.866 347.921C129.532 339.006 128.508 335.563 127.426 331.92C126.72 329.545 125.991 327.092 124.862 322.989C124.799 322.754 124.947 322.515 125.195 322.452C125.441 322.393 125.696 322.531 125.762 322.768C126.888 326.862 127.618 329.313 128.321 331.683C129.405 335.333 130.429 338.783 132.769 347.712C133.192 349.33 133.681 350.95 134.196 352.664C136.322 359.713 138.73 367.703 137.433 378.745C137.407 378.971 137.205 379.136 136.974 379.136L136.971 379.134Z" fill="url(#paint74_linear_103_600)"/>
<path d="M182.954 240.882L184.578 244.571C184.578 244.571 186.203 248.999 188.348 247.34C190.099 245.982 190.42 246.104 190.481 246.194C190.493 246.21 190.49 246.233 190.493 246.233C190.517 246.233 190.542 245.349 190.559 244.571C190.967 245.639 191.468 247.328 191.468 249.429C191.468 251.473 191.468 253.659 189.778 255.332C189.681 255.429 187.84 257.201 185.359 257.116C185.359 257.116 184.384 257.084 180.68 255.457C180.68 255.457 185.748 253.611 186.011 252.934C186.718 251.095 184.243 249.379 183.28 244.999C182.907 243.31 182.9 241.86 182.956 240.88L182.954 240.882Z" fill="#26264F"/>
<path style="mix-blend-mode:multiply" opacity="0.3" d="M231.011 394.199C221.222 398.954 196.004 407.466 165.959 403.237C152.231 401.306 141.25 396.988 133.523 393.129C134.462 390.434 135.202 387.887 135.771 385.475C155.757 398.721 164.113 385.839 177.018 382.803C190.447 379.65 207.715 386.204 197.203 356.858C186.682 327.511 204.13 329.645 204.13 329.645L232.803 334.291C233.003 336.118 233.141 337.663 233.241 338.864C235.748 370.038 233.265 384.421 231.008 394.199H231.011Z" fill="url(#paint75_linear_103_600)"/>
<path d="M304.939 317.137C308.854 319.729 310.953 323.25 312.04 325.496C309.163 331.889 302.636 343.757 289.123 352.504C266.97 366.846 234.491 367.329 211.866 350.974C184.836 331.433 180.32 293.961 191.672 277.913C192.978 276.065 197.276 269.992 203.947 269.295C208.159 268.855 213.894 270.499 222.953 280.535C241.828 301.447 235.162 314.507 246.313 320.624C263.035 329.799 287.886 305.845 304.936 317.135L304.939 317.137Z" fill="url(#paint76_linear_103_600)"/>
<path style="mix-blend-mode:multiply" opacity="0.3" d="M228.85 359.969C228.818 359.969 228.784 359.966 228.75 359.96C228.483 359.904 201.879 354.119 189.93 322.929C189.843 322.701 189.967 322.45 190.208 322.367C190.448 322.285 190.714 322.402 190.801 322.63C202.567 353.346 228.682 359.048 228.945 359.101C229.195 359.152 229.353 359.387 229.3 359.624C229.254 359.828 229.062 359.969 228.848 359.969H228.85Z" fill="url(#paint77_linear_103_600)"/>
<path d="M330.044 311.74C330.044 311.74 328.072 308.155 325.329 309.911C322.583 311.667 318.731 312.875 321.297 313.496C323.86 314.118 330.047 311.74 330.047 311.74H330.044Z" fill="url(#paint78_linear_103_600)"/>
</g>
<defs>
<linearGradient id="paint0_linear_103_600" x1="295.959" y1="285.101" x2="784.687" y2="-231.381" gradientUnits="userSpaceOnUse">
<stop stop-color="#E38DDD"/>
<stop offset="1" stop-color="#9571F6"/>
</linearGradient>
<linearGradient id="paint1_linear_103_600" x1="336.042" y1="34.4802" x2="461.846" y2="884.396" gradientUnits="userSpaceOnUse">
<stop stop-color="#FF9085"/>
<stop offset="1" stop-color="#FB6FBB"/>
</linearGradient>
<linearGradient id="paint2_linear_103_600" x1="75.1273" y1="69.7781" x2="194.499" y2="190.801" gradientUnits="userSpaceOnUse">
<stop stop-color="#AB316D"/>
<stop offset="1" stop-color="#792D3D"/>
</linearGradient>
<linearGradient id="paint3_linear_103_600" x1="179.297" y1="84.8355" x2="44.8494" y2="298.294" gradientUnits="userSpaceOnUse">
<stop stop-color="#FFC444"/>
<stop offset="1" stop-color="#F36F56"/>
</linearGradient>
<linearGradient id="paint4_linear_103_600" x1="186.275" y1="78.5552" x2="145.748" y2="138.449" gradientUnits="userSpaceOnUse">
<stop stop-color="#FFC444"/>
<stop offset="1" stop-color="#F36F56"/>
</linearGradient>
<linearGradient id="paint5_linear_103_600" x1="103.841" y1="12.4896" x2="163.52" y2="181.225" gradientUnits="userSpaceOnUse">
<stop stop-color="#FFC444"/>
<stop offset="1" stop-color="#F36F56"/>
</linearGradient>
<linearGradient id="paint6_linear_103_600" x1="64.2014" y1="340.746" x2="183.024" y2="2.30346" gradientUnits="userSpaceOnUse">
<stop stop-color="#EBEFF2"/>
<stop offset="1" stop-color="white"/>
</linearGradient>
<linearGradient id="paint7_linear_103_600" x1="196.319" y1="77.7592" x2="125.054" y2="229.236" gradientUnits="userSpaceOnUse">
<stop stop-color="#FFC444"/>
<stop offset="1" stop-color="#F36F56"/>
</linearGradient>
<linearGradient id="paint8_linear_103_600" x1="110.676" y1="63.3914" x2="187.425" y2="214.592" gradientUnits="userSpaceOnUse">
<stop stop-color="#FF9085"/>
<stop offset="1" stop-color="#FB6FBB"/>
</linearGradient>
<linearGradient id="paint9_linear_103_600" x1="118.093" y1="59.6285" x2="194.842" y2="210.827" gradientUnits="userSpaceOnUse">
<stop stop-color="#FF9085"/>
<stop offset="1" stop-color="#FB6FBB"/>
</linearGradient>
<linearGradient id="paint10_linear_103_600" x1="87.3936" y1="75.2113" x2="164.142" y2="226.412" gradientUnits="userSpaceOnUse">
<stop stop-color="#FF9085"/>
<stop offset="1" stop-color="#FB6FBB"/>
</linearGradient>
<linearGradient id="paint11_linear_103_600" x1="450.174" y1="532.386" x2="482.841" y2="656.961" gradientUnits="userSpaceOnUse">
<stop stop-color="#311944"/>
<stop offset="1" stop-color="#893976"/>
</linearGradient>
<linearGradient id="paint12_linear_103_600" x1="482.403" y1="619.805" x2="482.873" y2="578.092" gradientUnits="userSpaceOnUse">
<stop stop-color="#FFC444"/>
<stop offset="1" stop-color="#F36F56"/>
</linearGradient>
<linearGradient id="paint13_linear_103_600" x1="495.509" y1="520.5" x2="528.176" y2="645.075" gradientUnits="userSpaceOnUse">
<stop stop-color="#311944"/>
<stop offset="1" stop-color="#893976"/>
</linearGradient>
<linearGradient id="paint14_linear_103_600" x1="533.375" y1="620.38" x2="533.843" y2="578.667" gradientUnits="userSpaceOnUse">
<stop stop-color="#FFC444"/>
<stop offset="1" stop-color="#F36F56"/>
</linearGradient>
<linearGradient id="paint15_linear_103_600" x1="456.992" y1="485.655" x2="503.925" y2="485.655" gradientUnits="userSpaceOnUse">
<stop stop-color="#444B8C"/>
<stop offset="1" stop-color="#26264F"/>
</linearGradient>
<linearGradient id="paint16_linear_103_600" x1="456.994" y1="-0.00027188" x2="503.924" y2="-0.00027188" gradientUnits="userSpaceOnUse">
<stop stop-color="#444B8C"/>
<stop offset="1" stop-color="#26264F"/>
</linearGradient>
<linearGradient id="paint17_linear_103_600" x1="483.492" y1="492.001" x2="554.736" y2="492.001" gradientUnits="userSpaceOnUse">
<stop stop-color="#444B8C"/>
<stop offset="1" stop-color="#26264F"/>
</linearGradient>
<linearGradient id="paint18_linear_103_600" x1="316.14" y1="306.327" x2="357.75" y2="351.086" gradientUnits="userSpaceOnUse">
<stop stop-color="#FFC444"/>
<stop offset="1" stop-color="#F36F56"/>
</linearGradient>
<linearGradient id="paint19_linear_103_600" x1="574.359" y1="409.948" x2="582.037" y2="409.948" gradientUnits="userSpaceOnUse">
<stop stop-color="#FFC444"/>
<stop offset="1" stop-color="#F36F56"/>
</linearGradient>
<linearGradient id="paint20_linear_103_600" x1="562.093" y1="424.704" x2="563.745" y2="398.726" gradientUnits="userSpaceOnUse">
<stop offset="0.1" stop-color="#311944"/>
<stop offset="0.27" stop-color="#361B47"/>
<stop offset="0.48" stop-color="#462050"/>
<stop offset="0.72" stop-color="#602A5F"/>
<stop offset="0.97" stop-color="#843773"/>
<stop offset="1" stop-color="#893976"/>
</linearGradient>
<linearGradient id="paint21_linear_103_600" x1="551.76" y1="405.999" x2="572.302" y2="417.639" gradientUnits="userSpaceOnUse">
<stop offset="0.1" stop-color="#311944"/>
<stop offset="0.27" stop-color="#361B47"/>
<stop offset="0.48" stop-color="#462050"/>
<stop offset="0.72" stop-color="#602A5F"/>
<stop offset="0.97" stop-color="#843773"/>
<stop offset="1" stop-color="#893976"/>
</linearGradient>
<linearGradient id="paint22_linear_103_600" x1="544.508" y1="410.482" x2="551.283" y2="410.482" gradientUnits="userSpaceOnUse">
<stop stop-color="#FFC444"/>
<stop offset="1" stop-color="#F36F56"/>
</linearGradient>
<linearGradient id="paint23_linear_103_600" x1="521.8" y1="439.384" x2="510.996" y2="335.035" gradientUnits="userSpaceOnUse">
<stop offset="0.1" stop-color="#311944"/>
<stop offset="0.69" stop-color="#6D2E66"/>
<stop offset="1" stop-color="#893976"/>
</linearGradient>
<linearGradient id="paint24_linear_103_600" x1="574.221" y1="482.633" x2="496.578" y2="436.942" gradientUnits="userSpaceOnUse">
<stop stop-color="#311944"/>
<stop offset="1" stop-color="#893976"/>
</linearGradient>
<linearGradient id="paint25_linear_103_600" x1="502.219" y1="424.135" x2="524.373" y2="463.394" gradientUnits="userSpaceOnUse">
<stop stop-color="#311944"/>
<stop offset="1" stop-color="#893976"/>
</linearGradient>
<linearGradient id="paint26_linear_103_600" x1="563.528" y1="378.59" x2="571.39" y2="490.105" gradientUnits="userSpaceOnUse">
<stop offset="0.1" stop-color="#311944"/>
<stop offset="0.69" stop-color="#6D2E66"/>
<stop offset="1" stop-color="#893976"/>
</linearGradient>
<linearGradient id="paint27_linear_103_600" x1="547.941" y1="441.681" x2="609.865" y2="492.105" gradientUnits="userSpaceOnUse">
<stop stop-color="#311944"/>
<stop offset="1" stop-color="#893976"/>
</linearGradient>
<linearGradient id="paint28_linear_103_600" x1="531.291" y1="435.288" x2="558.498" y2="434.172" gradientUnits="userSpaceOnUse">
<stop offset="0.1" stop-color="#311944"/>
<stop offset="0.69" stop-color="#6D2E66"/>
<stop offset="1" stop-color="#893976"/>
</linearGradient>
<linearGradient id="paint29_linear_103_600" x1="573.648" y1="521.659" x2="565.179" y2="421.098" gradientUnits="userSpaceOnUse">
<stop offset="0.1" stop-color="#311944"/>
<stop offset="0.27" stop-color="#361B47"/>
<stop offset="0.48" stop-color="#462050"/>
<stop offset="0.72" stop-color="#602A5F"/>
<stop offset="0.97" stop-color="#843773"/>
<stop offset="1" stop-color="#893976"/>
</linearGradient>
<linearGradient id="paint30_linear_103_600" x1="578.253" y1="544.967" x2="563.887" y2="406.177" gradientUnits="userSpaceOnUse">
<stop stop-color="#311944"/>
<stop offset="1" stop-color="#893976"/>
</linearGradient>
<linearGradient id="paint31_linear_103_600" x1="600.85" y1="471.921" x2="553.708" y2="445.878" gradientUnits="userSpaceOnUse">
<stop stop-color="#FFC444"/>
<stop offset="1" stop-color="#F36F56"/>
</linearGradient>
<linearGradient id="paint32_linear_103_600" x1="557.53" y1="451.695" x2="606.201" y2="470.099" gradientUnits="userSpaceOnUse">
<stop stop-color="#FFC444"/>
<stop offset="1" stop-color="#F36F56"/>
</linearGradient>
<linearGradient id="paint33_linear_103_600" x1="567.582" y1="437.169" x2="563.89" y2="393.327" gradientUnits="userSpaceOnUse">
<stop stop-color="#FFC444"/>
<stop offset="1" stop-color="#F36F56"/>
</linearGradient>
<linearGradient id="paint34_linear_103_600" x1="483.423" y1="258.715" x2="483.423" y2="215.248" gradientUnits="userSpaceOnUse">
<stop stop-color="#FFC444"/>
<stop offset="1" stop-color="#F36F56"/>
</linearGradient>
<linearGradient id="paint35_linear_103_600" x1="492.701" y1="245.583" x2="475.434" y2="199.238" gradientUnits="userSpaceOnUse">
<stop stop-color="#444B8C"/>
<stop offset="1" stop-color="#3E4177"/>
</linearGradient>
<linearGradient id="paint36_linear_103_600" x1="452.942" y1="232.141" x2="492.691" y2="209.263" gradientUnits="userSpaceOnUse">
<stop stop-color="#FFC444"/>
<stop offset="1" stop-color="#F36F56"/>
</linearGradient>
<linearGradient id="paint37_linear_103_600" x1="475.621" y1="221.542" x2="472.188" y2="274.716" gradientUnits="userSpaceOnUse">
<stop stop-color="#444B8C"/>
<stop offset="1" stop-color="#26264F"/>
</linearGradient>
<linearGradient id="paint38_linear_103_600" x1="485.997" y1="327.425" x2="485.997" y2="208.044" gradientUnits="userSpaceOnUse">
<stop stop-color="#444B8C"/>
<stop offset="1" stop-color="#26264F"/>
</linearGradient>
<linearGradient id="paint39_linear_103_600" x1="233.546" y1="579.714" x2="208.874" y2="554.944" gradientUnits="userSpaceOnUse">
<stop stop-color="#444B8C"/>
<stop offset="1" stop-color="#3E4177"/>
</linearGradient>
<linearGradient id="paint40_linear_103_600" x1="40.0065" y1="546.343" x2="25.7542" y2="532.034" gradientUnits="userSpaceOnUse">
<stop stop-color="#444B8C"/>
<stop offset="1" stop-color="#3E4177"/>
</linearGradient>
<linearGradient id="paint41_linear_103_600" x1="289.4" y1="591.691" x2="228.124" y2="592.889" gradientUnits="userSpaceOnUse">
<stop stop-color="#444B8C"/>
<stop offset="1" stop-color="#3E4177"/>
</linearGradient>
<linearGradient id="paint42_linear_103_600" x1="191.87" y1="522.373" x2="251.04" y2="639.551" gradientUnits="userSpaceOnUse">
<stop stop-color="#EBEFF2"/>
<stop offset="0.99" stop-color="#B7C0CE"/>
</linearGradient>
<linearGradient id="paint43_linear_103_600" x1="88.2008" y1="565.471" x2="39.1136" y2="566.431" gradientUnits="userSpaceOnUse">
<stop stop-color="#444B8C"/>
<stop offset="1" stop-color="#3E4177"/>
</linearGradient>
<linearGradient id="paint44_linear_103_600" x1="6.99745" y1="505.998" x2="57.7162" y2="606.442" gradientUnits="userSpaceOnUse">
<stop stop-color="#EBEFF2"/>
<stop offset="0.99" stop-color="#B7C0CE"/>
</linearGradient>
<linearGradient id="paint45_linear_103_600" x1="558.63" y1="580.174" x2="483.937" y2="581.634" gradientUnits="userSpaceOnUse">
<stop stop-color="#444B8C"/>
<stop offset="1" stop-color="#3E4177"/>
</linearGradient>
<linearGradient id="paint46_linear_103_600" x1="443.432" y1="503.008" x2="510.617" y2="636.06" gradientUnits="userSpaceOnUse">
<stop stop-color="#444B8C"/>
<stop offset="1" stop-color="#3E4177"/>
</linearGradient>
<linearGradient id="paint47_linear_103_600" x1="510.25" y1="581.772" x2="471.762" y2="582.524" gradientUnits="userSpaceOnUse">
<stop stop-color="#444B8C"/>
<stop offset="1" stop-color="#3E4177"/>
</linearGradient>
<linearGradient id="paint48_linear_103_600" x1="263.401" y1="684.441" x2="342.505" y2="413.142" gradientUnits="userSpaceOnUse">
<stop stop-color="#E38DDD"/>
<stop offset="1" stop-color="#9571F6"/>
</linearGradient>
<linearGradient id="paint49_linear_103_600" x1="442.548" y1="623.847" x2="444.027" y2="455.821" gradientUnits="userSpaceOnUse">
<stop stop-color="#E38DDD"/>
<stop offset="1" stop-color="#9571F6"/>
</linearGradient>
<linearGradient id="paint50_linear_103_600" x1="516.434" y1="50.142" x2="527.662" y2="-69.805" gradientUnits="userSpaceOnUse">
<stop stop-color="#E38DDD"/>
<stop offset="1" stop-color="#9571F6"/>
</linearGradient>
<linearGradient id="paint51_linear_103_600" x1="519.553" y1="50.435" x2="530.781" y2="-69.5126" gradientUnits="userSpaceOnUse">
<stop stop-color="#E38DDD"/>
<stop offset="1" stop-color="#9571F6"/>
</linearGradient>
<linearGradient id="paint52_linear_103_600" x1="109.961" y1="653.157" x2="109.961" y2="448.882" gradientUnits="userSpaceOnUse">
<stop stop-color="#E38DDD"/>
<stop offset="1" stop-color="#9571F6"/>
</linearGradient>
<linearGradient id="paint53_linear_103_600" x1="176.099" y1="629.81" x2="20.5597" y2="473.643" gradientUnits="userSpaceOnUse">
<stop stop-color="#E38DDD"/>
<stop offset="1" stop-color="#9571F6"/>
</linearGradient>
<linearGradient id="paint54_linear_103_600" x1="193.079" y1="439.651" x2="463.924" y2="434.355" gradientUnits="userSpaceOnUse">
<stop stop-color="#444B8C"/>
<stop offset="1" stop-color="#3E4177"/>
</linearGradient>
<linearGradient id="paint55_linear_103_600" x1="231.541" y1="437.684" x2="464.482" y2="437.684" gradientUnits="userSpaceOnUse">
<stop stop-color="#444B8C"/>
<stop offset="1" stop-color="#3E4177"/>
</linearGradient>
<linearGradient id="paint56_linear_103_600" x1="54.6569" y1="440.301" x2="144.338" y2="438.547" gradientUnits="userSpaceOnUse">
<stop stop-color="#444B8C"/>
<stop offset="1" stop-color="#3E4177"/>
</linearGradient>
<linearGradient id="paint57_linear_103_600" x1="119.348" y1="446.593" x2="208.421" y2="444.851" gradientUnits="userSpaceOnUse">
<stop stop-color="#444B8C"/>
<stop offset="1" stop-color="#3E4177"/>
</linearGradient>
<linearGradient id="paint58_linear_103_600" x1="207.086" y1="482.608" x2="202.988" y2="478.492" gradientUnits="userSpaceOnUse">
<stop stop-color="#EBEFF2"/>
<stop offset="0.99" stop-color="#B7C0CE"/>
</linearGradient>
<linearGradient id="paint59_linear_103_600" x1="162.854" y1="486.985" x2="126.052" y2="450.038" gradientUnits="userSpaceOnUse">
<stop stop-color="#EBEFF2"/>
<stop offset="0.99" stop-color="#B7C0CE"/>
</linearGradient>
<linearGradient id="paint60_linear_103_600" x1="113.899" y1="464.685" x2="77.1678" y2="427.807" gradientUnits="userSpaceOnUse">
<stop stop-color="#EBEFF2"/>
<stop offset="0.99" stop-color="#B7C0CE"/>
</linearGradient>
<linearGradient id="paint61_linear_103_600" x1="190.342" y1="483.05" x2="137.687" y2="430.183" gradientUnits="userSpaceOnUse">
<stop stop-color="#E38DDD"/>
<stop offset="1" stop-color="#9571F6"/>
</linearGradient>
<linearGradient id="paint62_linear_103_600" x1="220.583" y1="507.067" x2="167.925" y2="454.197" gradientUnits="userSpaceOnUse">
<stop stop-color="#E38DDD"/>
<stop offset="1" stop-color="#9571F6"/>
</linearGradient>
<linearGradient id="paint63_linear_103_600" x1="162.489" y1="344.711" x2="338.164" y2="307.631" gradientUnits="userSpaceOnUse">
<stop offset="0.1" stop-color="#311944"/>
<stop offset="0.27" stop-color="#361B47"/>
<stop offset="0.48" stop-color="#462050"/>
<stop offset="0.72" stop-color="#602A5F"/>
<stop offset="0.97" stop-color="#843773"/>
<stop offset="1" stop-color="#893976"/>
</linearGradient>
<linearGradient id="paint64_linear_103_600" x1="142.454" y1="421.232" x2="142.454" y2="213.459" gradientUnits="userSpaceOnUse">
<stop stop-color="#FCB148"/>
<stop offset="0.05" stop-color="#FDB946"/>
<stop offset="0.14" stop-color="#FEC144"/>
<stop offset="0.32" stop-color="#FFC444"/>
<stop offset="0.48" stop-color="#FDB946"/>
<stop offset="0.78" stop-color="#F99C4C"/>
<stop offset="0.87" stop-color="#F8924F"/>
<stop offset="1" stop-color="#F8924F"/>
</linearGradient>
<linearGradient id="paint65_linear_103_600" x1="123.821" y1="620.22" x2="109.468" y2="630.3" gradientUnits="userSpaceOnUse">
<stop stop-color="#444B8C"/>
<stop offset="1" stop-color="#26264F"/>
</linearGradient>
<linearGradient id="paint66_linear_103_600" x1="103.377" y1="670.126" x2="109.28" y2="626.012" gradientUnits="userSpaceOnUse">
<stop offset="0.1" stop-color="#311944"/>
<stop offset="0.27" stop-color="#361B47"/>
<stop offset="0.48" stop-color="#462050"/>
<stop offset="0.72" stop-color="#602A5F"/>
<stop offset="0.97" stop-color="#843773"/>
<stop offset="1" stop-color="#893976"/>
</linearGradient>
<linearGradient id="paint67_linear_103_600" x1="122.706" y1="618.63" x2="108.353" y2="628.709" gradientUnits="userSpaceOnUse">
<stop stop-color="#444B8C"/>
<stop offset="1" stop-color="#26264F"/>
</linearGradient>
<linearGradient id="paint68_linear_103_600" x1="218.242" y1="627.231" x2="205.559" y2="639.153" gradientUnits="userSpaceOnUse">
<stop stop-color="#444B8C"/>
<stop offset="1" stop-color="#26264F"/>
</linearGradient>
<linearGradient id="paint69_linear_103_600" x1="256.548" y1="347.94" x2="80.6614" y2="723.008" gradientUnits="userSpaceOnUse">
<stop offset="0.1" stop-color="#311944"/>
<stop offset="0.27" stop-color="#361B47"/>
<stop offset="0.48" stop-color="#462050"/>
<stop offset="0.72" stop-color="#602A5F"/>
<stop offset="0.97" stop-color="#843773"/>
<stop offset="1" stop-color="#893976"/>
</linearGradient>
<linearGradient id="paint70_linear_103_600" x1="177.021" y1="421.233" x2="177.021" y2="213.46" gradientUnits="userSpaceOnUse">
<stop stop-color="#FCB148"/>
<stop offset="0.05" stop-color="#FDB946"/>
<stop offset="0.14" stop-color="#FEC144"/>
<stop offset="0.32" stop-color="#FFC444"/>
<stop offset="0.48" stop-color="#FDB946"/>
<stop offset="0.78" stop-color="#F99C4C"/>
<stop offset="0.87" stop-color="#F8924F"/>
<stop offset="1" stop-color="#F8924F"/>
</linearGradient>
<linearGradient id="paint71_linear_103_600" x1="216.901" y1="625.807" x2="204.219" y2="637.729" gradientUnits="userSpaceOnUse">
<stop stop-color="#444B8C"/>
<stop offset="1" stop-color="#26264F"/>
</linearGradient>
<linearGradient id="paint72_linear_103_600" x1="169.577" y1="300.988" x2="169.577" y2="236.97" gradientUnits="userSpaceOnUse">
<stop offset="0.1" stop-color="#311944"/>
<stop offset="0.27" stop-color="#361B47"/>
<stop offset="0.48" stop-color="#462050"/>
<stop offset="0.72" stop-color="#602A5F"/>
<stop offset="0.97" stop-color="#843773"/>
<stop offset="1" stop-color="#893976"/>
</linearGradient>
<linearGradient id="paint73_linear_103_600" x1="181.533" y1="300.988" x2="181.533" y2="236.97" gradientUnits="userSpaceOnUse">
<stop offset="0.1" stop-color="#311944"/>
<stop offset="0.27" stop-color="#361B47"/>
<stop offset="0.48" stop-color="#462050"/>
<stop offset="0.72" stop-color="#602A5F"/>
<stop offset="0.97" stop-color="#843773"/>
<stop offset="1" stop-color="#893976"/>
</linearGradient>
<linearGradient id="paint74_linear_103_600" x1="124.85" y1="350.786" x2="137.798" y2="350.786" gradientUnits="userSpaceOnUse">
<stop stop-color="#FF9085"/>
<stop offset="1" stop-color="#FB6FBB"/>
</linearGradient>
<linearGradient id="paint75_linear_103_600" x1="133.523" y1="366.995" x2="234.294" y2="366.995" gradientUnits="userSpaceOnUse">
<stop stop-color="#FCB148"/>
<stop offset="0.05" stop-color="#FDB946"/>
<stop offset="0.14" stop-color="#FEC144"/>
<stop offset="0.32" stop-color="#FFC444"/>
<stop offset="0.48" stop-color="#FDB946"/>
<stop offset="0.78" stop-color="#F99C4C"/>
<stop offset="0.87" stop-color="#F8924F"/>
<stop offset="1" stop-color="#F8924F"/>
</linearGradient>
<linearGradient id="paint76_linear_103_600" x1="248.949" y1="421.233" x2="248.949" y2="213.46" gradientUnits="userSpaceOnUse">
<stop stop-color="#FCB148"/>
<stop offset="0.05" stop-color="#FDB946"/>
<stop offset="0.14" stop-color="#FEC144"/>
<stop offset="0.32" stop-color="#FFC444"/>
<stop offset="0.48" stop-color="#FDB946"/>
<stop offset="0.78" stop-color="#F99C4C"/>
<stop offset="0.87" stop-color="#F8924F"/>
<stop offset="1" stop-color="#F8924F"/>
</linearGradient>
<linearGradient id="paint77_linear_103_600" x1="189.904" y1="341.153" x2="229.312" y2="341.153" gradientUnits="userSpaceOnUse">
<stop stop-color="#FF9085"/>
<stop offset="1" stop-color="#FB6FBB"/>
</linearGradient>
<linearGradient id="paint78_linear_103_600" x1="322.444" y1="309.554" x2="332.747" y2="320.636" gradientUnits="userSpaceOnUse">
<stop stop-color="#FFC444"/>
<stop offset="1" stop-color="#F36F56"/>
</linearGradient>
<clipPath id="clip0_103_600">
<rect width="668" height="656" fill="white"/>
</clipPath>
</defs>
</svg>
