<svg width="900" height="689" viewBox="0 0 900 689" fill="none" xmlns="http://www.w3.org/2000/svg">
<g clip-path="url(#clip0_102_443)">
<path d="M620.687 516.29H600.607C597.359 516.29 594.727 518.923 594.727 522.17V527.04C594.727 530.287 597.359 532.92 600.607 532.92H620.687C623.934 532.92 626.567 530.287 626.567 527.04V522.17C626.567 518.923 623.934 516.29 620.687 516.29Z" fill="#D6332B"/>
<path d="M449.788 570.43H416.728C397.648 570.43 382.168 596.88 382.168 629.5C382.168 633.75 382.428 637.89 382.928 641.89C386.178 667.93 399.478 687.6 415.548 688.52V688.56H449.788C466.388 688.56 480.258 668.56 483.588 641.88C484.088 637.88 484.348 633.74 484.348 629.49C484.348 596.86 468.878 570.42 449.788 570.42V570.43Z" fill="#2C2933"/>
<path d="M710.417 570.43H677.357C658.277 570.43 642.797 596.88 642.797 629.5C642.797 633.75 643.057 637.89 643.557 641.89C646.807 667.93 660.107 687.6 676.177 688.52V688.56H710.417C727.017 688.56 740.887 668.56 744.217 641.88C744.717 637.88 744.977 633.74 744.977 629.49C744.977 596.86 729.507 570.42 710.417 570.42V570.43Z" fill="#3A3842"/>
<path d="M247.228 506.929H178.108L160.168 500.529H276.808L247.228 506.929Z" fill="#4B4554"/>
<path d="M341.79 557.069H172.53C170.127 557.069 168.18 559.017 168.18 561.419V633.639C168.18 636.042 170.127 637.989 172.53 637.989H341.79C344.192 637.989 346.14 636.042 346.14 633.639V561.419C346.14 559.017 344.192 557.069 341.79 557.069Z" fill="#433144"/>
<path d="M345.379 470.06C318.349 470.06 316.619 465.61 300.529 471.55C275.269 480.88 217.969 523.62 217.969 523.62L199.109 553.47L391.039 545.68L345.379 470.06Z" fill="#F9543E"/>
<path d="M293.877 475C335.597 449.11 491.807 455.43 524.507 470.14C550.937 477.43 625.557 543.71 625.557 543.71L298.497 531.26C298.497 529.45 298.707 526.54 299.197 522.93C282.107 514.74 261.457 495.12 293.867 475.01L293.877 475Z" fill="#F9543E"/>
<path d="M330.51 471.34C339.73 470.14 350.25 470.14 352.41 470.14H517.46C540.37 470.14 623.73 543.71 623.73 543.71L280.3 535.98C225.54 535.84 280.78 480.33 330.51 471.34Z" fill="#7AB1AD"/>
<path opacity="0.4" d="M506.307 470.14H517.447C540.357 470.14 623.717 543.71 623.717 543.71L616.847 543.56C608.427 538.84 599.947 534.85 599.947 534.85C593.027 527.36 533.177 470.14 506.297 470.14H506.307Z" fill="#8C4C57"/>
<g style="mix-blend-mode:multiply" opacity="0.4">
<path d="M330.51 471.34C339.73 470.14 350.25 470.14 352.41 470.14H508.15C505.99 470.14 495.48 470.14 486.25 471.34C436.52 480.33 381.28 535.84 436.04 535.98L620.58 540.96C622.6 542.71 623.73 543.71 623.73 543.71L280.3 535.98C225.54 535.84 280.78 480.33 330.51 471.34Z" fill="#8C4C57"/>
</g>
<path d="M418.43 484.109C418.43 484.109 435.54 523.129 435.54 529.559" stroke="#647F7F" stroke-width="5.88" stroke-miterlimit="10" stroke-linecap="square"/>
<g style="mix-blend-mode:screen">
<path d="M607.289 532.2C606.619 531.84 605.909 531.44 605.159 530.99C590.039 521.95 548.349 500.93 487.869 500.93C484.559 500.93 481.189 500.99 477.859 501.12L476.339 501.18C455.759 501.96 440.879 502.52 429.239 502.52C405.229 502.52 396.769 500.21 389.889 491.76C387.059 488.29 387.289 485.5 387.599 481.64C387.829 478.85 388.079 475.76 387.109 472.1H517.469C529.099 472.1 562.439 494.45 607.299 532.2H607.289Z" fill="url(#paint0_linear_102_443)"/>
</g>
<g style="mix-blend-mode:multiply" opacity="0.3">
<path d="M330.51 471.34C339.73 470.14 350.25 470.14 352.41 470.14H372.7C375.26 471.62 377.5 473.97 379.04 477.88C383.53 489.33 390.12 530.54 396.06 536.89V538.58L347.99 537.5L273.78 532.67C273.78 532.67 265.31 531.93 258.67 528.48C250.41 512.98 292.1 478.29 330.52 471.34H330.51Z" fill="#2C2933"/>
</g>
<path opacity="0.7" d="M295.948 484.109H393.168C415.458 484.109 398.848 495.849 398.848 495.849L380.348 514.389C380.348 514.389 375.008 519.039 363.928 519.039H262.238C263.488 507.839 275.218 495.509 295.938 484.109H295.948Z" fill="#7AB1AD"/>
<g style="mix-blend-mode:screen" opacity="0.8">
<path d="M382.99 512.17C377.24 507.71 365.14 504.61 351.82 504.61H351.13C348.8 504.63 346.42 504.64 344.01 504.64C337.88 504.64 331.46 504.59 325.25 504.54C319.19 504.49 312.93 504.44 307.11 504.44C286.75 504.44 275.9 505.04 270.63 506.68C270.59 506.26 270.49 505.85 270.32 505.47C282.78 492.76 306.43 477.69 330.87 473.28C338.13 472.34 346.45 472.15 350.76 472.12C366.26 472.24 373.69 478.49 378.17 495.19C379.28 499.33 380.56 503.74 381.91 508.42C382.26 509.63 382.62 510.88 383 512.17H382.99Z" fill="url(#paint1_linear_102_443)"/>
</g>
<path d="M520.199 473.809C523.829 473.809 533.989 476.719 561.229 496.209C577.219 507.649 592.089 517.399 604.509 527.709C599.839 528.199 506.189 528.369 475.429 527.389C455.909 526.759 431.289 526.269 431.289 526.269L413.889 525.639C405.479 525.639 401.829 513.379 397.429 500.579C396.749 498.609 396.109 496.759 395.459 494.939C393.959 490.749 391.159 482.949 393.549 478.519C393.689 478.259 395.199 475.959 405.339 474.689C411.839 473.879 418.899 473.849 423.119 473.829C423.689 473.829 424.199 473.829 424.619 473.829H520.199V473.809ZM517.449 470.149H420.039C413.059 470.209 389.469 469.839 385.739 476.769C382.669 482.479 385.429 490.599 387.429 496.169C392.919 511.479 398.649 532.959 411.139 532.959C411.149 532.959 411.169 532.959 411.179 532.959L433.169 536.339C451.879 536.339 526.409 536.009 572.789 536.009C597.159 536.009 613.759 535.089 610.409 532.279C584.999 510.979 534.019 470.149 517.449 470.149Z" fill="#4E4C59"/>
<path d="M433.18 532.67C454.24 535.25 492.59 531.65 542.8 533.41C621.12 536.16 575.74 532.05 629.66 532.05C683.58 532.05 735.88 548.88 747.07 568.47L753.62 584.25C755.75 590.15 754.36 599.45 754.36 606.12L741.92 634.66C741.92 641.33 743.48 645.48 738.63 645.48C738.63 645.48 741.13 647.54 734.9 647.54C728.67 647.54 727.14 646.93 727.14 634.48C727.14 634.14 727.14 633.81 727.14 633.47C727.14 633.3 727.14 633.14 727.14 632.97C727.14 596.31 709.44 566.49 687.69 566.49C665.94 566.49 648.25 596.31 648.25 632.97C648.25 633.14 648.25 633.3 648.25 633.47C648.25 633.81 648.25 634.14 648.25 634.48C648.25 644.73 647.21 647.53 641.3 647.53H459.55C449.23 647.53 449.97 644.23 449.97 638.45C449.97 636.66 450.05 634.99 450.05 633.58C450.05 610.96 443.38 590.93 433.19 578.74V532.67H433.18Z" fill="#D6332B"/>
<path d="M685.109 565.97H240.929C238.731 565.97 236.949 567.752 236.949 569.95V657.53C236.949 659.728 238.731 661.51 240.929 661.51H685.109C687.307 661.51 689.089 659.728 689.089 657.53V569.95C689.089 567.752 687.307 565.97 685.109 565.97Z" fill="#433144"/>
<path d="M211.489 688.57H245.729C262.329 688.57 276.199 668.57 279.529 641.89C280.029 637.89 280.289 633.75 280.289 629.5C280.289 596.87 264.819 570.43 245.729 570.43H212.669L209.609 631.15L211.489 688.57Z" fill="#2C2933"/>
<path d="M470.45 688.57H504.69C521.29 688.57 535.16 668.57 538.49 641.89C538.99 637.89 539.25 633.75 539.25 629.5C539.25 596.87 523.78 570.43 504.69 570.43H471.63L468.57 631.15L470.45 688.57Z" fill="#2C2933"/>
<path d="M661.717 645.48C661.447 643.28 661.297 641 661.297 638.66C661.297 620.69 669.817 606.13 680.327 606.13L661.717 645.49V645.48Z" fill="#2C2933"/>
<path d="M680.326 606.13C690.836 606.13 699.356 620.7 699.356 638.66C699.356 641 699.216 643.28 698.936 645.48L680.316 606.12L680.326 606.13Z" fill="#2C2933"/>
<path d="M524.91 565.44L528.89 565.46V649.54H731.59C734.81 649.54 745.36 644.09 745.36 637.42L756.32 609.81C756.32 603.14 755.67 592.92 753.54 587.01L745.8 566.96C744.9 564.44 727.88 562.12 726.64 560.2H524.91V565.43V565.44Z" fill="#EF553C"/>
<path d="M467.76 534C522.7 544.31 554.42 564 554.42 564C563.39 565.75 594.78 583.24 594.78 583.24L701.39 581.87L717.13 576.83C661.84 534.01 606.12 534.01 566.72 534.01H467.75L467.76 534Z" fill="#EF553C"/>
<path d="M699.367 557.95C698.077 559.07 689.427 558.73 689.427 558.73C689.427 558.73 693.027 560.6 696.287 562.62C702.807 566.66 708.407 576.83 689.087 576.83C669.767 576.83 703.427 585.28 703.427 585.28L712.967 585.49C712.967 585.49 738.127 564.45 736.067 563.31C734.007 562.16 716.447 554.09 717.127 553.48C724.647 546.74 699.367 557.97 699.367 557.97V557.95Z" fill="#D6332B"/>
<path d="M594.99 583.24C594.99 583.24 543.42 532.67 433.18 532.67L258.93 534.92L441.89 551.63L565.57 583.24H595H594.99Z" fill="#F9543E"/>
<path d="M204.28 522.7C178.36 522.7 167.77 525.9 167.77 564.02V610.35H176.59C182.21 584.69 196.87 566.35 214.02 566.35C236.02 566.35 253.91 596.51 253.91 633.58C253.91 634.99 253.83 636.67 253.83 638.45C253.83 644.23 253.09 647.53 263.41 647.53H426.84C432.75 647.53 433.79 644.73 433.79 634.48C433.79 634.14 433.79 633.8 433.79 633.47C433.79 633.3 433.79 633.14 433.79 632.97C433.79 596.31 451.48 566.49 473.23 566.49C494.98 566.49 516.34 596.31 516.34 632.97C516.34 633.14 521.83 633.3 521.83 633.47C521.83 633.81 516.34 634.14 516.34 634.48C516.34 646.93 531.62 638.38 537.84 638.38C544.06 638.38 526.01 647.54 526.01 647.54C530.86 647.54 541.03 641.33 541.03 634.66L537.37 607.05C537.37 600.38 531.009 575.96 520.849 575.09L550.95 578.54C539.77 558.95 469.14 541.21 415.22 541.21C361.3 541.21 370.04 539.82 291.72 537.07C213.4 534.32 218.89 522.7 218.89 522.7H204.29H204.28Z" fill="#D6332B"/>
<g style="mix-blend-mode:multiply" opacity="0.2">
<path d="M198.288 522.79C185.198 523.2 176.758 525.41 172.148 534.91C176.518 526.2 208.598 527.98 212.438 529.18L206.438 525.81L198.298 522.79H198.288Z" fill="#2C2933"/>
</g>
<path d="M215.328 557.069H235.128L243.088 562.079L239.808 566.169L220.408 564.399L215.328 557.069Z" fill="#2C2933"/>
<path d="M214.019 566.35C230.499 566.35 244.689 583.29 250.759 607.38C253.829 602.75 262.779 602.23 264.339 606.92C266.709 614.09 267.519 601.59 267.519 601.59C267.519 601.59 269.419 569.65 228.239 558.53C187.059 547.41 173.309 595 173.309 610.35H176.589C182.209 584.69 196.869 566.35 214.019 566.35Z" fill="url(#paint2_linear_102_443)"/>
<g style="mix-blend-mode:multiply" opacity="0.3">
<path d="M441.877 581.71C398.847 577.41 245.767 566.72 244.367 566.68C244.367 566.68 254.587 560.91 265.087 585.13C275.597 609.35 266.877 627.51 286.357 637.53C305.837 647.55 421.437 645.49 421.437 645.49L429.047 640.5L433.167 606.13L437.057 594.23L446.167 583.7C446.167 583.7 451.017 582.63 441.867 581.71H441.877Z" fill="#8C4C57"/>
</g>
<path d="M436.29 580.62C445.72 564.72 458.84 555.97 473.23 555.97C487.39 555.97 501.41 564.78 511.7 580.14C521.49 594.76 526.88 613.53 526.88 632.99H516.34C516.34 596.33 494.98 566.51 473.23 566.51C451.48 566.51 433.79 596.33 433.79 632.99H423.25C423.25 613.4 427.88 594.8 436.29 580.63V580.62Z" fill="#F9543E"/>
<path d="M403.177 560.479H394.527C392.329 560.479 390.547 562.261 390.547 564.46V568.58C390.547 570.778 392.329 572.56 394.527 572.56H403.177C405.375 572.56 407.157 570.778 407.157 568.58V564.46C407.157 562.261 405.375 560.479 403.177 560.479Z" fill="#F97830"/>
<path d="M293.348 550.67C292.588 553.49 288.458 555.52 284.158 555.19L275.858 554.55C271.558 554.22 268.658 551.65 269.418 548.83C270.178 546.01 274.308 543.98 278.608 544.31L286.908 544.95C291.208 545.28 294.108 547.85 293.348 550.67Z" fill="#2C2933"/>
<path d="M471.619 570.43C490.709 570.43 506.179 596.88 506.179 629.5C506.179 633.75 505.919 637.89 505.419 641.89C502.089 668.56 488.219 688.57 471.619 688.57C455.019 688.57 441.159 668.56 437.819 641.89C437.319 637.89 437.059 633.75 437.059 629.5C437.059 596.87 452.529 570.43 471.619 570.43Z" fill="#4B4554"/>
<path d="M471.22 586.689C485.05 586.689 496.27 605.859 496.26 629.499C496.26 632.579 496.07 635.579 495.71 638.479C493.3 657.809 483.25 672.299 471.22 672.299C459.19 672.299 449.14 657.799 446.73 638.479C446.37 635.579 446.18 632.579 446.18 629.499C446.18 605.859 457.39 586.689 471.22 586.699V586.689Z" fill="#8C98A4" stroke="#DFE7E8" stroke-width="4.9" stroke-miterlimit="10"/>
<path d="M212.669 570.43C231.759 570.43 247.229 596.88 247.229 629.5C247.229 633.75 246.969 637.89 246.469 641.89C243.139 668.56 229.269 688.57 212.669 688.57C196.069 688.57 182.209 668.56 178.869 641.89C178.369 637.89 178.109 633.75 178.109 629.5C178.109 596.87 193.579 570.43 212.669 570.43Z" fill="#4B4554"/>
<path d="M516.34 670.27V632.98L756.32 609.81L748.08 670.27H516.34Z" fill="#EF553C"/>
<path d="M750.549 670.309H733.669L671 682.079L654 670.309H565.02V662.279H750.549V670.309Z" fill="#3A3842"/>
<path d="M739.49 608.82C740.82 603.96 737.78 599.979 732.74 599.979H568.75C563.71 599.979 560.72 603.939 562.11 608.789L571.3 640.849C572.69 645.689 577.95 649.659 582.98 649.659H719.16C724.2 649.659 729.41 645.68 730.74 640.82L739.48 608.82H739.49Z" fill="#2C2933" stroke="#C82E27" stroke-width="1.96" stroke-miterlimit="10"/>
<path d="M588.219 585.45C572.979 578.19 528.369 551.39 514.959 559.35C501.549 567.31 518.019 581.85 535.069 584.65C552.119 587.45 588.219 585.45 588.219 585.45Z" fill="#EADCDA"/>
<path opacity="0.2" d="M389.888 533.22C389.888 533.22 384.838 536.34 382.698 540.62C380.558 544.9 375.968 562.33 374.598 576.29V640.2" stroke="#37333F" stroke-width="1.96" stroke-miterlimit="10" stroke-linecap="square"/>
<path d="M234.637 557.069C261.087 557.069 282.707 592.569 283.607 636.779C270.127 634.199 268.677 627.959 266.757 620.709C266.277 617.239 264.927 610.569 264.917 610.569C264.017 605.169 263.147 601.759 261.757 599.209C254.787 578.389 242.607 563.139 228.227 558.529C231.197 557.579 231.507 557.069 234.627 557.069H234.637Z" fill="#2C2933"/>
<path d="M761.149 661.89C761.149 659.19 758.939 656.99 756.249 656.99H537.939C535.239 656.99 533.039 659.2 533.039 661.89V665.37C533.039 668.07 535.249 670.27 537.939 670.27H593.569C596.269 670.27 600.249 668.96 602.419 667.36L603.229 666.76C605.399 665.16 609.379 663.85 612.079 663.85H722.389C725.089 663.85 728.249 665.29 729.419 667.06C730.589 668.82 733.749 670.27 736.449 670.27H756.259C758.959 670.27 761.159 668.06 761.159 665.37V661.89H761.149Z" fill="#EF553C"/>
<path d="M370.937 533.47C351.427 533.2 247.227 536.9 260.717 514.45C269.707 499.49 247.227 526.92 247.227 526.92L258.917 534.68L271.237 536.04L362.737 539.98L367.677 536.05L370.927 533.47H370.937Z" fill="#F9543E"/>
<path d="M350.27 464.6C353.15 464.39 356.18 464.06 359.17 463.72C359.85 461.05 362.76 458.85 365.87 460.64C366.98 461.28 368.08 461.94 369.16 462.62C374.73 462.1 379.13 462 380.54 463.22C381.25 463.83 381.6 465.28 381.74 467.09C387.95 461.33 397.51 460.08 405.7 460.01C411.61 459.96 425.96 470.08 420.05 470.13C413.07 470.19 389.48 469.82 385.75 476.75C382.68 482.46 385.44 490.58 387.44 496.15C392.93 511.48 398.67 533 411.19 532.94C417.11 532.92 392.65 540.45 391.21 534.77C386.87 517.67 382.94 505.43 380.05 494.66C375 475.81 365.84 470.13 350.26 470.13C327.05 470.13 337.89 465.51 350.26 464.59L350.27 464.6Z" fill="#F9543E"/>
<path d="M216.56 529.18C204.71 522.73 196.28 517.19 191.35 509.99L177.43 506.92L191.21 524.1C191.21 524.1 193.14 524.04 199.77 525.02C204.07 525.66 212.44 529.17 212.44 529.17H216.56V529.18Z" fill="#EF553C"/>
<path d="M269.069 627.71C281.559 643.13 320.949 640.04 339.269 640.04H412.099C420.349 640.04 423.089 639.58 423.239 632.98L433.809 630.46C433.789 631.3 433.769 632.14 433.769 632.98C433.769 633.15 433.769 633.31 433.769 633.48C433.769 633.82 433.769 634.15 433.769 634.49C433.769 644.74 432.729 647.54 426.819 647.54H263.389C253.069 647.54 253.809 644.24 253.809 638.46C253.809 636.67 253.889 635 253.889 633.59C261.329 625.28 269.049 627.72 269.049 627.72L269.069 627.71Z" fill="#F9543E"/>
<path d="M703.769 585.45H597.379L579.379 571.33H702.259L703.769 585.45Z" fill="#2C2933"/>
<path d="M212.439 529.18C200.589 522.73 192.159 517.19 187.229 509.99L173.309 506.92L187.089 524.1C187.089 524.1 189.019 524.04 195.649 525.02C204.079 526.27 212.439 529.17 212.439 529.17V529.18Z" fill="#D6332B"/>
<path d="M152.708 505.66C153.978 510.54 159.138 514.53 164.178 514.53H181.128C186.168 514.53 193.818 512.4 198.138 509.81L204.428 506.02C208.748 503.42 208.198 500.67 203.218 499.91L158.118 493.01C157.358 492.89 156.648 492.87 155.988 492.94H150.758V497.86L157.388 500.53L152.708 505.67V505.66Z" fill="#EF553C"/>
<path d="M196.748 499.81C202.078 500.63 202.658 503.57 198.038 506.35L192.848 509.48C188.228 512.26 180.038 514.53 174.648 514.53H158.978C153.588 514.53 148.068 510.26 146.708 505.04L145.688 501.11C144.328 495.89 147.578 492.29 152.908 493.11L196.738 499.81H196.748Z" fill="#F9543E"/>
<path d="M288.229 490.729C288.229 490.729 274.539 521.95 274.539 527.09" stroke="#45424F" stroke-width="4.9" stroke-miterlimit="10"/>
<path d="M350.737 474.07C363.267 474.17 371.457 477.75 376.267 495.69C377.377 499.84 378.667 504.27 380.017 508.95C381.757 514.97 383.697 521.65 385.747 529.36L370.937 529.55C370.137 529.54 369.197 529.53 368.137 529.53C366.097 529.53 363.597 529.55 360.727 529.57C356.817 529.6 352.387 529.63 347.457 529.63C325.417 529.63 308.197 528.97 294.827 527.61C268.937 524.97 264.407 520.32 263.637 518.96C263.467 518.67 263.127 518.06 264.077 516.48C264.237 516.22 264.377 515.98 264.517 515.74C269.317 507.98 278.967 499.17 291.007 491.57C304.017 483.36 318.247 477.56 331.107 475.22C338.327 474.29 346.477 474.1 350.737 474.07ZM350.737 470.15C346.877 470.18 338.247 470.34 330.507 471.34C301.857 476.52 271.377 497.14 261.157 513.71C261.017 513.95 260.877 514.19 260.717 514.45C250.237 531.89 310.767 533.54 347.457 533.54C356.077 533.54 363.377 533.45 368.137 533.45C369.197 533.45 370.137 533.45 370.937 533.47L390.807 533.21C386.627 516.93 382.847 505.1 380.047 494.67C375.047 476.01 366.017 470.26 350.737 470.14V470.15Z" fill="#45424F"/>
<path d="M721.588 640.82L730.328 608.82C731.658 603.96 728.618 599.979 723.578 599.979H732.738C737.778 599.979 740.808 603.96 739.488 608.82L730.748 640.82C729.418 645.68 724.208 649.659 719.168 649.659H710.008C715.048 649.659 720.258 645.68 721.588 640.82Z" fill="#C82E27"/>
<path d="M442.508 529.56C449.268 531.18 445.398 532.32 458.938 533.63C472.478 534.93 513.708 536.07 540.588 536.07C567.468 536.07 614.498 535.68 610.158 532.07H576.648L478.298 529.57H442.518L442.508 529.56Z" fill="#4E4C59"/>
<path d="M588.218 585.45C574.478 578.9 536.848 556.47 519.758 557.97C539.248 564.23 538.028 577.81 560.288 581.9C577.288 585.02 588.218 585.46 588.218 585.46V585.45Z" fill="#F2E1DD"/>
<path opacity="0.7" d="M524.909 564C520.089 560.3 519.769 560.24 515.149 559.25C515.089 559.28 515.019 559.31 514.959 559.34C504.289 565.67 512.549 576.17 524.959 581.61C544.429 588.18 530.589 568.34 524.919 563.99L524.909 564Z" fill="#F4EEED"/>
<path d="M754.067 585.82C753.937 585.28 753.787 584.75 753.607 584.26L747.057 568.479C745.597 565.919 743.427 563.419 740.657 560.979C728.317 567.099 718.297 580.61 712.867 585.45C712.867 585.45 737.007 586.72 754.067 585.82Z" fill="#F2E1DD"/>
<path opacity="0.7" d="M577.757 586.07C571.117 578.39 549.117 566.6 531.407 559.44C528.777 558.75 526.307 558.26 524.047 558.03C521.677 557.8 549.117 563.55 559.197 585.94C565.797 586.19 571.527 586.18 577.747 586.07H577.757Z" fill="white"/>
<path d="M521.727 600.819C529.277 625.379 527.567 645.609 527.197 667.319L542.057 669.539C542.057 669.539 548.207 627.369 532.277 587.439L521.727 600.809V600.819Z" fill="#D6332B"/>
<path d="M515.988 670.27H549.418C551.938 670.27 553.998 668.21 553.998 665.69V661.57C553.998 659.05 551.938 656.99 549.418 656.99H515.988V670.27Z" fill="#D6332B"/>
<path d="M671.44 612.59H608.09C606.571 612.59 605.34 613.821 605.34 615.34V632.08C605.34 633.599 606.571 634.83 608.09 634.83H671.44C672.959 634.83 674.19 633.599 674.19 632.08V615.34C674.19 613.821 672.959 612.59 671.44 612.59Z" fill="#FFFDF4"/>
<path d="M608.09 634.83H616.23V612.59H608.09C606.58 612.59 605.34 613.83 605.34 615.34V632.08C605.34 633.59 606.58 634.83 608.09 634.83Z" fill="#8CBFB1"/>
<path opacity="0.3" d="M584.699 615.75H706.079L709.799 603.12H584.699V615.75Z" fill="#2C2933"/>
<path opacity="0.2" d="M261.327 517.14C258.257 524.29 249.507 546.82 249.527 567.39" stroke="#37333F" stroke-width="1.96" stroke-miterlimit="10" stroke-linecap="square"/>
<path d="M294.789 547.04L268.379 545.18" stroke="#D6332B" stroke-width="8.82" stroke-linejoin="round"/>
<g style="mix-blend-mode:lighten">
<path d="M478.528 588.55C488.798 593.89 496.268 610.2 496.268 629.5C496.268 632.58 496.078 635.58 495.718 638.48C493.808 653.73 487.148 665.97 478.508 670.45C469.878 665.97 463.208 653.73 461.308 638.47C460.948 635.57 460.758 632.57 460.758 629.49C460.758 610.17 468.248 593.87 478.528 588.54V588.55Z" fill="#CAD5D7"/>
</g>
<g style="mix-blend-mode:darken">
<path d="M421.019 633.67H408.739C404.279 633.67 400.629 628.31 400.629 621.76V613.79C400.629 607.24 405.989 601.88 412.539 601.88H425.099C425.099 601.88 421.019 610.35 421.019 623.92V633.67Z" fill="#2C2933"/>
<path d="M424.687 611.78H396.527" stroke="#D6332B" stroke-width="5.88" stroke-linejoin="round"/>
<path d="M421.937 624.609H396.527" stroke="#D6332B" stroke-width="5.88" stroke-linejoin="round"/>
</g>
<path d="M484.017 597.939C484.987 598.439 493.477 607.659 493.477 628.499C493.477 649.339 485.037 661.429 484.007 661.969C476.987 661.969 470.217 648.899 468.727 636.969C468.447 634.709 468.297 632.359 468.297 629.949C468.297 614.849 475.067 597.939 484.027 597.939H484.017Z" fill="#3A3842"/>
<g style="mix-blend-mode:lighten">
<path d="M460.75 629.5H496.27" stroke="#CAD5D7" stroke-width="3.92" stroke-miterlimit="10"/>
</g>
<g style="mix-blend-mode:lighten">
<path d="M484.629 662.19L486.469 629.5L484.629 596.8" stroke="#CAD5D7" stroke-width="3.92" stroke-miterlimit="10"/>
</g>
<path d="M471.398 608.12L486.468 629.5L471.398 651.78" stroke="#CAD5D7" stroke-width="3.92" stroke-miterlimit="10"/>
<g style="mix-blend-mode:lighten">
<path d="M494.469 645.45L486.469 629.5L493.469 609.81" stroke="#CAD5D7" stroke-width="3.92" stroke-miterlimit="10"/>
</g>
<g style="mix-blend-mode:lighten">
<path d="M484.96 617.77C488.75 617.77 491.83 623.03 491.83 629.51C491.83 630.35 491.78 631.179 491.68 631.969C491.02 637.269 488.26 641.25 484.96 641.25C481.66 641.25 478.9 637.269 478.24 631.969C478.14 631.179 478.09 630.35 478.09 629.51C478.09 623.02 481.17 617.77 484.96 617.77Z" fill="#CAD5D7"/>
</g>
<path d="M211.997 586.3C225.827 586.3 237.047 605.47 237.037 629.11C237.037 632.19 236.847 635.19 236.487 638.09C234.077 657.42 224.027 671.91 211.997 671.91C199.967 671.91 189.917 657.41 187.507 638.09C187.147 635.19 186.957 632.19 186.957 629.11C186.957 605.47 198.167 586.3 211.997 586.31V586.3Z" fill="#8C98A4" stroke="#DFE7E8" stroke-width="4.9" stroke-miterlimit="10"/>
<g style="mix-blend-mode:lighten">
<path d="M219.305 588.15C229.575 593.49 237.045 609.8 237.045 629.1C237.045 632.18 236.855 635.18 236.495 638.08C234.585 653.33 227.925 665.57 219.285 670.05C210.655 665.57 203.985 653.33 202.085 638.07C201.725 635.17 201.535 632.17 201.535 629.09C201.535 609.77 209.025 593.47 219.305 588.14V588.15Z" fill="#CAD5D7"/>
</g>
<path d="M224.798 597.54C225.768 598.04 234.258 607.26 234.258 628.1C234.258 648.94 225.818 661.03 224.788 661.57C217.768 661.57 210.998 648.5 209.508 636.57C209.228 634.31 209.078 631.96 209.078 629.55C209.078 614.45 215.848 597.54 224.808 597.54H224.798Z" fill="#3A3842"/>
<g style="mix-blend-mode:lighten">
<path d="M201.535 629.1H237.045" stroke="#CAD5D7" stroke-width="3.92" stroke-miterlimit="10"/>
</g>
<g style="mix-blend-mode:lighten">
<path d="M225.418 661.789L227.248 629.099L225.418 596.399" stroke="#CAD5D7" stroke-width="3.92" stroke-miterlimit="10"/>
</g>
<path d="M212.176 607.72L227.246 629.1L212.176 651.39" stroke="#CAD5D7" stroke-width="3.92" stroke-miterlimit="10"/>
<g style="mix-blend-mode:lighten">
<path d="M235.246 645.05L227.246 629.1L234.256 609.42" stroke="#CAD5D7" stroke-width="3.92" stroke-miterlimit="10"/>
</g>
<g style="mix-blend-mode:lighten">
<path d="M225.749 617.37C229.539 617.37 232.619 622.63 232.619 629.11C232.619 629.95 232.569 630.78 232.469 631.57C231.809 636.87 229.049 640.85 225.749 640.85C222.449 640.85 219.689 636.87 219.029 631.57C218.929 630.78 218.879 629.95 218.879 629.11C218.879 622.62 221.959 617.37 225.749 617.37Z" fill="#CAD5D7"/>
</g>
<path d="M479.595 637.33C479.085 637.33 477.275 635.57 476.765 631.49C476.685 630.84 476.645 630.18 476.645 629.51C476.645 624.46 478.855 621.69 479.595 621.69C480.335 621.69 482.545 624.46 482.545 629.51C482.545 630.17 482.505 630.84 482.425 631.49C481.915 635.57 480.105 637.33 479.595 637.33Z" fill="#DFEBED"/>
<path d="M220.376 636.93C219.866 636.93 218.056 635.17 217.546 631.09C217.466 630.45 217.426 629.78 217.426 629.11C217.426 624.06 219.636 621.29 220.376 621.29C221.116 621.29 223.326 624.06 223.326 629.11C223.326 629.78 223.286 630.45 223.206 631.08C222.696 635.17 220.886 636.93 220.376 636.93Z" fill="#DFEBED"/>
<path d="M380.64 536.059C379.72 538.079 375.98 540.539 367.27 542.259C358.57 543.979 340.93 539.979 340.93 539.979C340.93 539.979 349.75 534.819 373.68 534.819L380.63 536.049L380.64 536.059Z" fill="#933838"/>
<path d="M378.897 529.55L365.188 525.59L362.688 528.39C362.688 528.39 371.477 536 373.337 537.92C376.997 541.7 386.938 532.4 378.888 529.56L378.897 529.55Z" fill="#D6332B"/>
<path d="M366.519 529.06C366.519 529.06 369.729 531.92 372.329 532.81C374.939 533.69 378.729 530.71 377.199 529.06L378.899 529.55C386.949 532.39 377.009 541.69 373.349 537.91C371.819 536.34 365.649 530.95 363.469 529.05H366.519V529.06Z" fill="#C12F2F"/>
<path d="M366.21 513.54H336.97C333.722 513.54 331.09 516.173 331.09 519.42V524.29C331.09 527.537 333.722 530.17 336.97 530.17H366.21C369.457 530.17 372.09 527.537 372.09 524.29V519.42C372.09 516.173 369.457 513.54 366.21 513.54Z" fill="#C12F2F"/>
<path d="M342.77 517.74C342.77 519.04 344.09 520.1 345.71 520.1H367.32C368.94 520.1 370.26 519.04 370.26 517.74C370.26 516.44 368.94 515.38 367.32 515.38H345.71C344.09 515.38 342.77 516.44 342.77 517.74Z" fill="#F9543E"/>
<path d="M749.589 586L735.199 564.24C731.659 566.69 728.359 569.58 725.379 572.5L738.019 586.14C741.879 586.16 745.829 586.12 749.589 586.01V586Z" fill="white"/>
<path d="M610.391 263.65C564.301 258.01 553.731 296.48 503.101 307.69C503.101 307.69 439.971 309.34 450.271 328.84C452.951 333.92 460.941 337.94 467.431 339.22C453.691 341.08 443.611 343.06 443.611 343.06C370.101 303.43 354.371 323.66 354.371 323.66L446.081 365.81C446.081 365.81 565.631 361.86 568.011 361.71C570.381 361.56 607.071 308.03 607.071 308.03L842.651 393.19L859.081 334.29C859.081 334.29 624.301 265.35 610.411 263.65H610.391Z" fill="#F58D6C"/>
<path d="M338.989 323.78C349.609 316.24 377.999 312.34 428.469 351.12C428.469 351.12 468.529 344.94 505.249 362.76C505.249 362.76 600.699 270.87 626.079 269.44C651.459 268.01 859.059 334.29 859.059 334.29L874.849 407.96L806.399 422.63L648.549 336.86C648.549 336.86 550.149 403.1 536.289 412.29C518.409 424.15 461.799 386.14 425.159 379.92C412.649 377.8 357.009 344.35 339.459 333.66C335.849 331.46 335.549 326.23 338.999 323.78H338.989Z" fill="#FFB287"/>
<path d="M657.73 391.25L696.151 282.4L877.24 335.73L900 419.96L800.201 440.14L657.73 391.25Z" fill="white"/>
<path d="M657.73 391.251L714.63 287.851L900 419.961L800.201 440.141L657.73 391.251Z" fill="#90AFAF"/>
<path d="M673.199 405.251L716.319 283.061L899.999 342.091V440.141V498.751L673.199 405.251Z" fill="#BA4200"/>
<path d="M710.63 392.79C711.29 397.36 708.1 401.8 703.49 402.71C698.89 403.62 694.61 400.66 693.95 396.09C693.29 391.52 696.48 387.08 701.09 386.17C705.69 385.26 709.97 388.22 710.63 392.79Z" fill="#8E2F00"/>
<path d="M736.52 402.601C737.18 407.171 733.99 411.611 729.38 412.521C724.77 413.431 720.5 410.471 719.84 405.901C719.18 401.331 722.37 396.891 726.98 395.981C731.58 395.071 735.86 398.031 736.52 402.601Z" fill="#8E2F00"/>
<path d="M308.469 85.9796C308.469 85.9796 385.199 110.99 418.089 72.1496L461.799 77.4796C461.799 77.4796 487.209 142.5 513.049 134.64C524.159 131.26 510.609 118.08 480.299 60.6996C480.299 60.6996 438.499 29.9996 371.409 27.3496L308.479 85.9696L308.469 85.9796Z" fill="#F58D6C"/>
<path d="M0 179.81L170.99 69.6601C175.1 67.0201 178.96 64.0201 182.68 60.8601C190.62 54.1001 200.39 48.9801 211.22 45.9701C260.34 32.2901 384.78 0.140066 400.16 6.55899e-05C407.78 -0.0699344 459.69 55.9101 472.68 71.8601C475.02 74.7301 476.53 77.9901 477.13 81.4201C480.14 98.6901 489.3 153.38 485.1 157.22C480.11 161.78 458.16 163.46 443.15 85.3801L388.86 65.4601L372.62 90.2701C372.62 90.2701 313.31 146.34 237.52 112.95L0 337.33V179.81Z" fill="#FFB287"/>
<path d="M176.579 66.5703C176.579 66.5703 199.559 102.72 235.309 115.04L217.969 132.63L169.969 72.8303L176.589 66.5803L176.579 66.5703Z" fill="#F58D6C"/>
<path d="M251.54 171.729L175.66 65.8691L17.7305 173.469L20.5405 291.079L111.95 278.809L251.54 171.729Z" fill="white"/>
<path d="M251.541 171.73L157.271 78.7695L8.94141 292.64L111.951 278.81L251.541 171.73Z" fill="#90AFAF"/>
<path d="M241.43 192.08L156.25 73.2402L0 172.2V374.69L241.43 192.08Z" fill="#374C58"/>
<path d="M203.898 193.04C204.378 196.62 207.668 199.14 211.258 198.66C214.838 198.18 217.358 194.88 216.878 191.3C216.398 187.72 213.108 185.2 209.518 185.68C205.938 186.16 203.418 189.46 203.898 193.04Z" fill="#2A3C44"/>
<path d="M186.91 206.921C187.39 210.501 190.68 213.021 194.27 212.541C197.85 212.061 200.37 208.761 199.89 205.181C199.41 201.591 196.12 199.081 192.53 199.561C188.95 200.041 186.43 203.341 186.91 206.921Z" fill="#2A3C44"/>
<path d="M377.791 91.3092L368.781 78.2992C368.161 77.7292 368.161 74.4492 370.781 75.5492C376.591 78.0092 376.081 85.9792 388.861 66.4492L377.791 91.2992V91.3092Z" fill="#F58D6C"/>
<path d="M490.258 176.58C490.388 171.65 489.088 166.62 486.238 162.15C478.638 150.23 462.848 146.75 450.968 154.37C439.088 161.99 435.618 177.83 443.208 189.74C448.628 198.24 458.228 202.45 467.598 201.4" stroke="#DFEDED" stroke-width="3.07" stroke-miterlimit="10"/>
<path d="M440.708 209.52L440.188 218.17C439.588 228.2 447.438 237.43 457.728 238.78L464.208 239.63C474.498 240.98 483.338 233.94 483.938 223.91L484.458 215.26C485.058 205.23 477.208 196 466.918 194.65L460.238 190.84C449.948 189.49 441.308 199.49 440.698 209.52H440.708ZM463.818 198.28C470.578 199.17 470.058 207.81 463.298 206.93C456.538 206.04 457.058 197.4 463.818 198.28Z" fill="#102333"/>
<path d="M472.448 218.859L469.878 261.619L475.578 262.249L473.918 265.609L469.468 268.479L469.408 269.479L474.898 269.849L473.438 273.469L468.988 276.339L468.928 277.339L474.418 277.709L472.968 281.329L469.848 283.339L468.368 286.679L457.698 295.139L448.598 284.089L451.538 235.229L453.778 231.509L472.448 218.859Z" fill="#819DA5"/>
<path d="M470.098 280.709L469.938 283.189L459.268 291.649L450.168 280.599L451.628 256.419L451.988 250.429L454.258 212.779L474.018 215.369L471.948 249.999L471.578 255.979L471.458 258.129L475.488 262.119L471.028 264.989L470.978 265.989L475.008 269.979L470.558 272.859L470.498 273.849L474.538 277.839L470.098 280.709Z" fill="#C8D6D6"/>
<path d="M471.579 256.04C464.919 257.26 458.279 258.42 451.629 259.51L451.989 253.47C458.639 252.37 465.299 251.21 471.949 250L471.579 256.03V256.04Z" fill="#D4E8E7"/>
<path d="M458.318 285.581L454.648 279.031L458.488 215.131L462.528 215.661L458.318 285.581Z" fill="#819DA5"/>
<path d="M486.329 219.931L486.849 211.281C487.459 201.251 479.599 192.031 469.309 190.671L462.819 189.821C452.879 188.521 444.289 195.051 443.179 204.551C443.139 204.881 443.109 205.211 443.089 205.541L442.569 214.191C442.269 219.111 444.009 223.841 447.089 227.541C450.269 231.381 454.869 234.111 460.109 234.801L466.599 235.651C476.889 237.001 485.729 229.961 486.329 219.931ZM465.479 206.291C458.709 205.411 459.329 195.191 466.089 196.071C472.849 196.961 472.239 207.181 465.479 206.291Z" fill="#1F3242"/>
<path d="M465.578 207.52C469.128 207.99 472.168 205.56 472.378 202.1C472.588 198.64 469.878 195.46 466.328 194.99" stroke="#102333" stroke-width="2.9" stroke-miterlimit="10"/>
<path d="M449.09 230.29C452.1 232.61 455.93 234.26 460.15 234.81L466.63 235.66C470.56 236.18 474.27 235.67 477.38 234.39" stroke="#102333" stroke-width="1.18" stroke-miterlimit="10"/>
<path d="M466.339 195C462.789 194.53 459.749 196.96 459.539 200.42C459.329 203.88 462.039 207.06 465.589 207.53" stroke="#102333" stroke-width="2.9" stroke-miterlimit="10"/>
<path d="M461.289 211.031L463.109 219.511C465.219 229.341 475.249 236.121 485.529 234.661L491.999 233.741C502.279 232.281 511.129 222.461 508.879 210.461L504.989 204.841C502.879 195.011 492.849 188.231 482.569 189.691L475.119 187.811C464.839 189.271 459.199 201.211 461.299 211.041L461.289 211.031ZM480.539 194.011C487.289 193.051 489.109 201.521 482.349 202.481C475.599 203.441 473.779 194.971 480.539 194.011Z" fill="#102333"/>
<path d="M495.037 210.859L504.007 252.739L509.667 251.829L508.967 255.509L505.447 259.469L505.657 260.439L511.047 259.329L510.617 263.209L507.097 267.169L507.307 268.139L512.697 267.029L512.267 270.899L509.807 273.679L509.267 277.289L501.267 288.299L489.527 280.089L479.277 232.229L480.427 228.049L495.037 210.859Z" fill="#819DA5"/>
<path d="M509.339 271.08L509.849 273.51L501.839 284.52L490.109 276.31L485.039 252.62L483.779 246.76L475.879 209.88L495.619 207.07L502.889 241L504.139 246.85L504.599 248.96L509.549 251.72L506.029 255.68L506.239 256.66L511.199 259.42L507.679 263.39L507.889 264.36L512.849 267.13L509.339 271.08Z" fill="#C8D6D6"/>
<path d="M504.137 246.85C497.777 248.83 491.417 250.75 485.037 252.62L483.777 246.76C490.157 244.9 496.537 242.97 502.887 241L504.137 246.86V246.85Z" fill="#D4E8E7"/>
<path d="M499.29 278.929L494 273.599L480.59 211.009L484.62 210.439L499.29 278.929Z" fill="#819DA5"/>
<path d="M508.688 208.169L506.868 199.689C504.768 189.859 494.728 183.079 484.448 184.529L477.968 185.449C468.038 186.859 461.518 195.449 462.988 204.899C463.038 205.219 463.098 205.549 463.168 205.879L464.988 214.359C466.018 219.179 468.958 223.279 472.918 226.009C477.008 228.859 482.178 230.259 487.408 229.519L493.888 228.599C504.168 227.139 510.788 217.989 508.688 208.159V208.169ZM486.358 200.009C480.128 202.789 475.308 193.759 481.538 190.979C487.768 188.209 492.588 197.239 486.358 200.009Z" fill="#2B4454"/>
<path d="M485.38 201.771C488.92 201.271 491.21 198.111 490.48 194.731C489.75 191.341 486.29 189.001 482.75 189.501" stroke="#102333" stroke-width="2.9" stroke-miterlimit="10"/>
<path d="M475.598 228.13C479.118 229.56 483.248 230.12 487.458 229.52L493.928 228.6C497.858 228.04 501.288 226.56 503.938 224.49" stroke="#102333" stroke-width="1.18" stroke-miterlimit="10"/>
<path d="M477.207 197.21C485.047 195.09 490.067 183.85 490.257 176.59" stroke="#DFEDED" stroke-width="3.07" stroke-miterlimit="10"/>
<path d="M482.747 189.5C479.207 190 476.917 193.16 477.647 196.54C478.377 199.93 481.837 202.27 485.377 201.77" stroke="#102333" stroke-width="2.9" stroke-miterlimit="10"/>
<path d="M222.951 109.791C222.951 109.791 267.621 126.131 320.361 128.601C350.061 129.991 379.121 137.161 405.911 149.111C412.561 152.071 418.951 154.941 424.371 157.381C448.271 168.151 463.351 188.651 473.541 170.851C483.731 153.051 447.111 128.681 415.591 117.241C384.081 105.811 366.661 56.3105 366.661 56.3105L222.941 109.781L222.951 109.791Z" fill="#FFB287"/>
</g>
<defs>
<linearGradient id="paint0_linear_102_443" x1="506.239" y1="418.36" x2="493.269" y2="538.51" gradientUnits="userSpaceOnUse">
<stop offset="0.21" stop-color="white"/>
<stop offset="1" stop-color="#231F20"/>
</linearGradient>
<linearGradient id="paint1_linear_102_443" x1="345.71" y1="425.62" x2="326.14" y2="511.02" gradientUnits="userSpaceOnUse">
<stop stop-color="white"/>
<stop offset="1" stop-color="#231F20"/>
</linearGradient>
<linearGradient id="paint2_linear_102_443" x1="203.129" y1="581.86" x2="253.819" y2="626.45" gradientUnits="userSpaceOnUse">
<stop stop-color="#F9543E"/>
<stop offset="0.27" stop-color="#F14C39"/>
<stop offset="0.68" stop-color="#DC392E"/>
<stop offset="0.79" stop-color="#D6332B"/>
</linearGradient>
<clipPath id="clip0_102_443">
<rect width="900" height="688.57" fill="white"/>
</clipPath>
</defs>
</svg>
