<svg width="2747" height="2851" viewBox="0 0 2747 2851" fill="none" xmlns="http://www.w3.org/2000/svg">
<g clip-path="url(#clip0_103_600)">
<path d="M1416.08 180.809C712.939 160.049 103.869 670.239 11.8491 1339.69C-88.7609 2071.63 464.989 2730.21 1146.35 2835.69C1993.85 2966.89 2815.87 2207.88 2742.06 1384.47C2686.45 764.099 2130.83 201.919 1416.08 180.809Z" fill="#F4F7FA"/>
<g opacity="0.4">
<path d="M1341.72 304.879L1355.76 374.099C1325.66 386.279 1296.96 400.829 1270 417.729L1223.37 364.969C1210.65 350.579 1188.63 349.379 1174.19 362.299L1083.77 443.169C1069.3 456.119 1067.85 478.319 1080.56 492.769L1127.6 546.259C1107.73 571.609 1090 598.639 1074.69 627.059L1006.97 604.579C988.709 598.519 968.859 608.609 962.639 627.119L923.619 743.099C917.369 761.679 927.129 781.699 945.429 787.799L1013.38 810.469C1008.58 842.149 1006.57 874.549 1007.3 907.319L936.489 922.299C917.479 926.319 905.099 945.179 908.829 964.439L932.249 1085.12C935.999 1104.46 954.499 1116.87 973.569 1112.84L1044.59 1097.81C1056.31 1128.49 1070.43 1157.75 1086.89 1185.27L1032.55 1234.28C1017.9 1247.5 1016.42 1270.22 1029.26 1285.05L1109.71 1377.93C1122.6 1392.81 1144.95 1394.12 1159.62 1380.84L1213.95 1331.69C1239.16 1352.12 1266.11 1370.26 1294.46 1385.96L1271.44 1456.07C1265.21 1475.05 1275.2 1495.54 1293.76 1501.82L1409.99 1541.15C1428.6 1547.45 1448.71 1537.12 1454.9 1518.09L1477.55 1448.52C1509.38 1453.35 1541.93 1455.22 1574.85 1454.27L1589.4 1526.01C1593.38 1545.65 1612.2 1558.28 1631.44 1554.21L1751.7 1528.77C1770.93 1524.7 1783.24 1505.48 1779.2 1485.86L1764.56 1414.73C1795.34 1402.38 1824.64 1387.51 1852.14 1370.24L1899.45 1424.04C1912.59 1438.98 1935.08 1440.29 1949.67 1426.97L2040.86 1343.76C2055.42 1330.47 2056.56 1307.63 2043.41 1292.74L1996.25 1239.39C2016.47 1213.28 2034.35 1185.4 2049.73 1156.14L2116.48 1178.4C2135.13 1184.62 2155.12 1174.36 2161.11 1155.48L2198.51 1037.67C2204.48 1018.86 2194.22 998.619 2175.61 992.439L2109.5 970.499C2113.98 938.069 2115.51 904.949 2114.21 871.509L2182.13 857.139C2201.2 853.109 2213.3 834.209 2209.17 814.959L2183.37 694.789C2179.25 675.609 2160.5 663.339 2141.5 667.359L2073.78 681.689C2061.4 650.819 2046.61 621.449 2029.43 593.939L2080.6 547.639C2094.99 534.619 2096.1 512.309 2083.09 497.799L2001.87 407.259C1988.91 392.809 1966.75 391.609 1952.38 404.569L1900.88 451.019C1875.34 430.989 1848.13 413.229 1819.55 397.999L1841.08 331.859C1847.07 313.459 1837.05 293.679 1818.7 287.669L1704.09 250.179C1685.78 244.189 1666.06 254.219 1660.03 272.579L1638.26 338.869C1606.76 334.439 1574.59 332.859 1542.07 334.089L1527.94 265.459C1524.05 246.579 1505.62 234.509 1486.77 238.489L1368.89 263.429C1350.04 267.419 1337.86 285.959 1341.7 304.859L1341.72 304.879ZM1140.98 977.689C1094.56 744.129 1243.65 516.359 1473.74 467.679C1703.82 418.999 1929.8 567.419 1978.74 800.449C2027.98 1034.89 1879.54 1265.88 1646.93 1315.09C1414.32 1364.3 1187.68 1212.67 1140.98 977.689Z" fill="url(#paint0_linear_103_600)"/>
</g>
<path d="M381.999 1122.53L390.809 1165.99C371.919 1173.64 353.899 1182.77 336.969 1193.38L307.699 1160.26C299.709 1151.22 285.889 1150.47 276.829 1158.58L220.069 1209.35C210.979 1217.48 210.079 1231.42 218.049 1240.49L247.579 1274.07C235.099 1289.99 223.979 1306.95 214.369 1324.8L171.859 1310.69C160.399 1306.89 147.939 1313.22 144.029 1324.84L119.539 1397.64C115.619 1409.3 121.739 1421.87 133.229 1425.7L175.889 1439.93C172.879 1459.82 171.619 1480.15 172.069 1500.73L127.619 1510.13C115.689 1512.65 107.909 1524.5 110.259 1536.58L124.959 1612.34C127.319 1624.48 138.929 1632.27 150.899 1629.74L195.479 1620.31C202.839 1639.57 211.699 1657.94 222.039 1675.21L187.929 1705.98C178.729 1714.28 177.809 1728.54 185.869 1737.85L236.369 1796.15C244.459 1805.49 258.489 1806.31 267.699 1797.98L301.809 1767.12C317.639 1779.94 334.559 1791.33 352.349 1801.19L337.899 1845.2C333.989 1857.12 340.259 1869.98 351.909 1873.92L424.869 1898.61C436.549 1902.56 449.179 1896.08 453.059 1884.13L467.279 1840.46C487.259 1843.49 507.699 1844.67 528.359 1844.07L537.489 1889.1C539.989 1901.43 551.809 1909.36 563.879 1906.8L639.379 1890.83C651.449 1888.28 659.179 1876.21 656.639 1863.89L647.449 1819.24C666.769 1811.49 685.159 1802.15 702.429 1791.31L732.129 1825.09C740.379 1834.47 754.489 1835.29 763.659 1826.93L820.899 1774.69C830.039 1766.35 830.759 1752.01 822.499 1742.67L792.899 1709.18C805.589 1692.79 816.809 1675.29 826.469 1656.92L868.369 1670.9C880.079 1674.81 892.629 1668.36 896.389 1656.51L919.869 1582.56C923.619 1570.75 917.179 1558.05 905.489 1554.17L863.989 1540.4C866.809 1520.04 867.759 1499.25 866.949 1478.26L909.589 1469.24C921.559 1466.71 929.159 1454.85 926.559 1442.76L910.359 1367.32C907.779 1355.28 896.009 1347.58 884.069 1350.1L841.559 1359.09C833.789 1339.71 824.499 1321.27 813.719 1304L845.839 1274.94C854.869 1266.77 855.569 1252.76 847.399 1243.65L796.419 1186.82C788.279 1177.75 774.379 1176.99 765.349 1185.13L733.019 1214.29C716.989 1201.72 699.909 1190.57 681.969 1181L695.489 1139.48C699.249 1127.93 692.959 1115.51 681.439 1111.74L609.489 1088.2C597.999 1084.44 585.619 1090.73 581.829 1102.26L568.169 1143.88C548.399 1141.1 528.199 1140.11 507.789 1140.88L498.919 1097.8C496.479 1085.95 484.909 1078.37 473.079 1080.87L399.079 1096.53C387.249 1099.03 379.599 1110.68 382.009 1122.54L381.999 1122.53ZM250.909 1545.93C221.209 1396.49 316.609 1250.74 463.829 1219.6C611.049 1188.45 755.639 1283.42 786.949 1432.52C818.449 1582.53 723.479 1730.33 574.639 1761.81C425.799 1793.3 280.789 1696.28 250.909 1545.93Z" fill="#D8DEE8"/>
<g style="mix-blend-mode:soft-light" opacity="0.7">
<path d="M1366.89 2074.86C1345.85 2078.21 1297.13 2066.95 1285.64 2058.78C1209.17 2004.4 1059.4 1911.89 1037.02 1815.25C1033.2 1798.75 1101.26 1762.33 1107.04 1744.45C1144.8 1710.7 1159.99 1701.34 1180.13 1651.62C1239.58 1504.84 958.308 1344.94 1185.9 1192.59C1352.6 1080.99 1526.34 1098.58 1422.62 819.309C1318.9 540.039 1391.96 -46.0406 1751.57 64.1594C1957.95 127.409 1853.97 421.489 1995.53 574.129C2130.05 719.179 2099.22 880.279 1948.73 1035.43C1798.25 1190.58 1917.77 1240.57 2017.79 1386.6C2137.94 1562.01 1849.67 1684.27 1711.77 1729.36C1600.72 1765.67 1342.45 1933.04 1366.89 2074.87V2074.86Z" fill="url(#paint1_linear_103_600)"/>
<mask id="mask0_103_600" style="mask-type:luminance" maskUnits="userSpaceOnUse" x="1036" y="50" width="1045" height="2026">
<path d="M1366.89 2074.86C1345.85 2078.21 1297.13 2066.95 1285.64 2058.78C1209.17 2004.4 1059.4 1911.89 1037.02 1815.25C1033.2 1798.75 1101.26 1762.33 1107.04 1744.45C1144.8 1710.7 1159.99 1701.34 1180.13 1651.62C1239.58 1504.84 958.308 1344.94 1185.9 1192.59C1352.6 1080.99 1526.34 1098.58 1422.62 819.309C1318.9 540.039 1391.96 -46.0406 1751.57 64.1594C1957.95 127.409 1853.97 421.489 1995.53 574.129C2130.05 719.179 2099.22 880.279 1948.73 1035.43C1798.25 1190.58 1917.77 1240.57 2017.79 1386.6C2137.94 1562.01 1849.67 1684.27 1711.77 1729.36C1600.72 1765.67 1342.45 1933.04 1366.89 2074.87V2074.86Z" fill="white"/>
</mask>
<g mask="url(#mask0_103_600)">
<path d="M1166.27 1944.46L1163.22 1941.11C1678.54 1470.69 1858.91 745.51 1645.71 1.25L1650.07 0C1751.11 352.73 1763.82 714.99 1686.83 1047.63C1605.89 1397.34 1425.89 1707.46 1166.28 1944.45L1166.27 1944.46Z" fill="#FCFDFE"/>
<path d="M2076.1 1453.78C1885.34 1447.94 1593.94 1532.07 1426.52 1641.33L1424.05 1637.54C1592.13 1527.85 1884.7 1443.39 2076.24 1449.25L2076.1 1453.78Z" fill="#FCFDFE"/>
<path d="M1266.38 1850.95L1262.52 1848.58C1316.84 1759.99 1324.3 1647.35 1284.67 1513.77C1255.61 1415.82 1202.39 1309.12 1126.48 1196.6L1130.24 1194.07C1206.41 1306.97 1259.83 1414.09 1289.02 1512.48C1329.03 1647.34 1321.41 1761.22 1266.39 1850.95H1266.38Z" fill="#FCFDFE"/>
<path d="M1695.92 1000C1695.92 1000 1695.61 991.201 1697.49 987.921C1792.86 822.001 1972.56 731.741 2107.85 685.051L2109.33 689.341C1972.13 736.701 1789.04 829.031 1695.93 1000.01L1695.92 1000Z" fill="#FCFDFE"/>
<path d="M1733.68 554.7C1686.74 338.78 1508.74 187.44 1407.71 116.97L1410.3 113.25C1510.22 182.95 1683.57 330.51 1734.2 542.26C1735.04 545.77 1733.68 554.7 1733.68 554.7Z" fill="#FCFDFE"/>
</g>
</g>
<g style="mix-blend-mode:soft-light">
<path d="M1325.21 2201.85C1303.42 2196.96 1260.34 2167.12 1252.32 2154.7C1198.93 2072.11 1088.92 1923.98 1104.57 1821.2C1107.24 1803.65 1187.64 1794.56 1200.19 1779.39C1250.04 1761.16 1268.46 1757.92 1307.34 1717.31C1422.11 1597.41 1210.17 1332.7 1490.84 1272.52C1696.43 1228.44 1858.81 1312.89 1866.02 1000.74C1873.23 688.579 2171.5 146.15 2478.99 392.82C2655.46 534.38 2440.24 780.479 2518.95 983.979C2593.74 1177.36 2501.29 1322.3 2294.62 1415.08C2087.96 1507.85 2184.98 1602.86 2225.79 1783.83C2274.82 2001.21 1946.72 2008.56 1794.96 1999.03C1672.75 1991.36 1356.37 2054.27 1325.21 2201.85Z" fill="#D8DEE8"/>
<mask id="mask1_103_600" style="mask-type:luminance" maskUnits="userSpaceOnUse" x="1103" y="330" width="1448" height="1872">
<path d="M1325.21 2201.85C1303.42 2196.96 1260.34 2167.12 1252.32 2154.7C1198.93 2072.11 1088.92 1923.98 1104.57 1821.2C1107.24 1803.65 1187.64 1794.56 1200.19 1779.39C1250.04 1761.16 1268.46 1757.92 1307.34 1717.31C1422.11 1597.41 1210.17 1332.7 1490.84 1272.52C1696.43 1228.44 1858.81 1312.89 1866.02 1000.74C1873.23 688.579 2171.5 146.15 2478.99 392.82C2655.46 534.38 2440.24 780.479 2518.95 983.979C2593.74 1177.36 2501.29 1322.3 2294.62 1415.08C2087.96 1507.85 2184.98 1602.86 2225.79 1783.83C2274.82 2001.21 1946.72 2008.56 1794.96 1999.03C1672.75 1991.36 1356.37 2054.27 1325.21 2201.85Z" fill="white"/>
</mask>
<g mask="url(#mask1_103_600)">
<path d="M1180.37 1997.12L1178.69 1992.68C1862.81 1734.25 2319.48 1097.94 2400.27 290.539L2405 291.009C2366.71 673.659 2238.71 1031.37 2034.83 1325.48C1820.49 1634.68 1525.03 1866.93 1180.37 1997.12Z" fill="#FCFDFE"/>
<path d="M2256.53 1871.84C2073.03 1792.23 1756.65 1761.25 1551.27 1802.77C1551.27 1802.77 1557.45 1796.71 1561.06 1796.03C1767.4 1757.52 2077.33 1788.93 2258.42 1867.48L2256.53 1871.84Z" fill="#FCFDFE"/>
<path d="M1311.25 1941.05C1398.48 1875.83 1449.39 1769.02 1462.56 1623.58C1472.22 1516.94 1461.74 1392.4 1431.41 1253.41L1436.05 1252.4C1466.48 1391.86 1476.99 1516.88 1467.28 1624.01C1455.12 1758.32 1410.95 1860.1 1335.88 1927.04C1328.88 1933.28 1311.23 1941.05 1311.23 1941.05H1311.25Z" fill="#FCFDFE"/>
<path d="M2062.15 1282.61C2062.15 1282.61 2066.31 1273.06 2069.95 1270.2C2226.95 1146.72 2436.01 1128.6 2585.34 1135.53L2585.12 1140.28C2433.16 1133.23 2219.08 1152.21 2062.15 1282.62V1282.61Z" fill="#FCFDFE"/>
<path d="M2271.51 862.739C2309.47 634.279 2194.74 418.789 2123.66 311.009L2127.62 308.389C2197.76 414.739 2309.05 624.909 2277.02 850.169C2276.41 854.419 2271.51 862.739 2271.51 862.739Z" fill="#FCFDFE"/>
</g>
</g>
<path d="M856.708 550.559C857.088 721.189 766.388 860.429 604.868 865.009C602.368 865.079 561.148 865.009 558.638 865.009C393.638 865.409 259.568 725.279 259.188 552.009C258.808 378.739 392.258 237.959 557.258 237.559C561.118 237.559 597.338 237.909 601.158 238.049C760.828 244.019 856.338 381.339 856.708 550.559Z" fill="url(#paint2_linear_103_600)"/>
<path d="M613.799 867.829C778.8 867.829 912.559 727.367 912.559 554.099C912.559 380.831 778.8 240.369 613.799 240.369C448.798 240.369 315.039 380.831 315.039 554.099C315.039 727.367 448.798 867.829 613.799 867.829Z" fill="url(#paint3_linear_103_600)"/>
<path style="mix-blend-mode:multiply" opacity="0.3" d="M613.798 859.919C774.64 859.919 905.028 722.999 905.028 554.099C905.028 385.2 774.64 248.279 613.798 248.279C452.956 248.279 322.568 385.2 322.568 554.099C322.568 722.999 452.956 859.919 613.798 859.919Z" fill="url(#paint4_linear_103_600)"/>
<path d="M613.797 850.688C769.785 850.688 896.237 717.9 896.237 554.098C896.237 390.296 769.785 257.508 613.797 257.508C457.81 257.508 331.357 390.296 331.357 554.098C331.357 717.9 457.81 850.688 613.797 850.688Z" fill="url(#paint5_linear_103_600)"/>
<path d="M607.757 844.348C760.409 844.348 884.157 714.398 884.157 554.098C884.157 393.797 760.409 263.848 607.757 263.848C455.106 263.848 331.357 393.797 331.357 554.098C331.357 714.398 455.106 844.348 607.757 844.348Z" fill="url(#paint6_linear_103_600)"/>
<path d="M636.949 545.779L847.499 627.429C854.349 604.359 858.049 579.829 858.049 554.399C858.049 423.419 760.119 316.459 636.949 309.859V545.789V545.779Z" fill="url(#paint7_linear_103_600)"/>
<g style="mix-blend-mode:multiply" opacity="0.2">
<path d="M538.358 547.508C516.498 476.718 595.528 425.628 583.068 343.108C577.568 306.698 556.178 276.868 529.858 252.928C405.458 291.088 314.718 411.898 315.028 554.818C315.408 728.088 449.478 868.218 614.478 867.818C654.938 867.718 693.488 859.168 728.638 843.778C723.548 743.648 692.828 687.078 660.168 653.008C609.828 600.488 555.018 601.498 538.348 547.518L538.358 547.508Z" fill="#D8DEE8"/>
</g>
<path d="M606.988 577.089C616.692 577.089 624.558 568.829 624.558 558.639C624.558 548.45 616.692 540.189 606.988 540.189C597.284 540.189 589.418 548.45 589.418 558.639C589.418 568.829 597.284 577.089 606.988 577.089Z" fill="url(#paint8_linear_103_600)"/>
<path d="M606.989 411.578C600.859 411.578 595.879 416.798 595.879 423.238V547.638C595.879 554.078 600.849 559.298 606.989 559.298C613.129 559.298 618.099 554.078 618.099 547.638V423.238C618.099 416.798 613.129 411.578 606.989 411.578Z" fill="url(#paint9_linear_103_600)"/>
<path d="M605.768 561.388C603.378 558.588 599.268 558.348 596.598 560.858L447.048 704.558C444.378 707.068 444.148 711.378 446.548 714.188C448.938 716.988 453.048 717.228 455.718 714.718L605.268 571.018C607.938 568.508 608.168 564.198 605.768 561.388Z" fill="url(#paint10_linear_103_600)"/>
<path d="M1997.74 2617.97C1997.74 2617.97 2004.84 2646.75 2005.06 2657.17C2005.29 2667.6 1890.55 2682.13 1888.77 2674.45C1886.98 2666.77 1906.19 2652.79 1920.06 2647.29C1933.93 2641.79 1974.6 2626.81 1974.6 2626.81L1997.74 2617.97Z" fill="url(#paint11_linear_103_600)"/>
<path d="M1967.46 2591.14L1974.04 2627.1C1974.04 2627.1 1988.13 2634.87 1999.36 2627.1L2002.1 2587.16L1967.46 2591.13V2591.14Z" fill="url(#paint12_linear_103_600)"/>
<path d="M2206.99 2648.77C2206.99 2648.77 2214.09 2677.55 2214.32 2687.97C2214.55 2698.4 2099.81 2712.93 2098.03 2705.25C2096.24 2697.57 2115.45 2683.59 2129.32 2678.09C2143.19 2672.59 2183.86 2657.61 2183.86 2657.61L2207 2648.77H2206.99Z" fill="url(#paint13_linear_103_600)"/>
<path d="M2176.71 2621.94L2183.29 2657.9C2183.29 2657.9 2197.37 2665.67 2208.61 2657.9L2211.34 2617.96L2176.7 2621.93L2176.71 2621.94Z" fill="url(#paint14_linear_103_600)"/>
<path d="M1912.51 1642.94C1901.36 1670.99 1890.21 1699.05 1879.06 1727.1C1880.7 1881.96 1888.79 2049.85 1906.56 2228.67C1919.78 2361.71 1937.02 2487.36 1956.74 2605.02C1974.72 2602.75 1992.7 2600.47 2010.68 2598.2C2032.63 2544.31 2057.15 2463.37 2052.22 2366.28C2047.08 2265 2015.37 2254.04 2009.56 2157.14C2002.03 2031.55 2051.93 1993.88 2067.86 1840.81C2073.95 1782.27 2075.13 1706.36 2059.23 1615.64C2010.32 1624.74 1961.41 1633.84 1912.5 1642.93L1912.51 1642.94Z" fill="url(#paint15_linear_103_600)"/>
<path style="mix-blend-mode:multiply" opacity="0.3" d="M2059.24 1615.64C2032.83 1620.55 2006.41 1625.46 1980 1630.38C1938.74 1717.66 1932.31 1805.58 1943.8 1843.32C1960.06 1896.72 1992.94 1911.6 1995.59 1966.31C1998.2 2020.44 1967.51 2036.99 1952.43 2102.25C1941.99 2147.43 1948.92 2187.65 1963.22 2266.24C1992.01 2424.55 2034.46 2470.26 2006.37 2525.17C1998.39 2540.77 1983.28 2559.8 1951.99 2575.91C1953.57 2585.63 1955.13 2595.39 1956.75 2605C1974.73 2602.73 1992.71 2600.45 2010.69 2598.18C2032.64 2544.29 2057.16 2463.35 2052.23 2366.26C2047.09 2264.98 2015.38 2254.02 2009.57 2157.12C2002.04 2031.53 2051.94 1993.87 2067.87 1840.79C2073.96 1782.25 2075.14 1706.34 2059.24 1615.62V1615.64Z" fill="url(#paint16_linear_103_600)"/>
<path d="M1988.02 1685.78C2023.92 1820.03 2057.68 1964.09 2087.29 2117.36C2123.04 2302.42 2148.25 2477.58 2165.71 2640.67C2185.56 2639.65 2205.42 2638.62 2225.27 2637.59C2290.95 2476.91 2287.33 2371.84 2270.62 2304.58C2264.18 2278.66 2248.27 2228.1 2239.41 2151.34C2233.24 2097.83 2233.39 2056.73 2233.73 2007.3C2234.48 1898.92 2243.97 1874.52 2239.01 1792.06C2234.36 1714.68 2231.54 1675.56 2207.66 1654.51C2144.74 1599.05 1999.06 1679.54 1988.02 1685.78Z" fill="url(#paint17_linear_103_600)"/>
<path d="M1411.58 1373.89C1411.58 1373.89 1367.96 1370.15 1361.65 1363.08C1355.34 1356.01 1351.26 1355.64 1350.31 1349.16C1349.36 1342.68 1331 1345.8 1338.64 1359.86C1346.28 1373.92 1329.04 1366.55 1325.66 1366.21C1317.88 1365.43 1288.21 1364.56 1289.07 1366.4C1289.93 1368.24 1275.77 1386.72 1296.84 1396.27C1315.29 1404.63 1309.88 1400.94 1321.88 1401.52C1333.87 1402.09 1371.01 1389.98 1371.01 1389.98L1402.81 1392.4L1411.59 1373.91L1411.58 1373.89Z" fill="url(#paint18_linear_103_600)"/>
<path d="M1386.01 1353.51C1384.09 1368.05 1382.17 1382.59 1380.25 1397.13C1409.14 1421.23 1473.01 1467.42 1561.87 1474.35C1718.52 1486.57 1873.87 1370.63 1902.8 1240.23C1917.12 1175.65 1905.42 1085.04 1865.29 1070.47C1854.15 1066.42 1837.41 1067 1802.91 1090.18C1710.82 1152.04 1702.99 1233.28 1652.12 1288.23C1615.51 1327.78 1543.52 1367.84 1386.02 1353.51H1386.01Z" fill="white"/>
<path d="M1866.12 1755.94C1844.62 1725.97 1866.02 1693.69 1866.67 1633.59C1867.4 1565.47 1840.45 1556.3 1805.71 1446.3C1782.61 1373.14 1760.42 1302.91 1773.34 1217.58C1779.53 1176.69 1790.03 1107.33 1843.74 1069.93C1871.46 1050.63 1911.29 1049.15 1989.84 1046.97C2086.97 1044.28 2135.53 1042.93 2173.11 1059.03C2178.61 1061.39 2293.12 1112.28 2308.46 1208.95C2324.08 1307.34 2217.32 1329.29 2213.52 1462.48C2211.81 1522.27 2230.63 1612.51 2242.83 1671.04C2254.55 1727.24 2260.64 1741.38 2250.81 1759.47C2227.13 1803.06 2143.51 1797.88 1976.27 1787.52C1910.67 1783.45 1882.16 1778.31 1866.12 1755.94Z" fill="white"/>
<path d="M2094.84 1450.61C2103.89 1475.78 2130.58 1492.99 2153.1 1554.18C2157.96 1567.39 2192.59 1661.48 2159.57 1687.97C2140.5 1703.27 2120.32 1678.8 2071.1 1679.33C1985.82 1680.26 1951.12 1754.78 1894.16 1739.75C1884.28 1737.14 1871.01 1730.96 1857.01 1715.42C1855.68 1730.53 1857.15 1743.45 1866.1 1755.93C1882.15 1778.3 1910.65 1783.44 1976.25 1787.51C2143.49 1797.87 2227.11 1803.06 2250.79 1759.46C2260.62 1741.37 2254.52 1727.23 2242.81 1671.03C2230.61 1612.5 2211.8 1522.26 2213.5 1462.47C2217.3 1329.28 2324.06 1307.33 2308.44 1208.94C2304.26 1182.64 2292.64 1159.85 2277.98 1140.38C2145.63 1206.69 2066.37 1371.5 2094.83 1450.61H2094.84Z" fill="#F4F7FA"/>
<path d="M2363.77 1754.84C2363.77 1754.84 2390.4 1763.78 2393.22 1807.89C2388.88 1807.5 2378.73 1807.73 2378.73 1807.73C2378.73 1807.73 2380.61 1775.66 2361.65 1769.16C2363.18 1765.44 2363.76 1754.83 2363.76 1754.83L2363.77 1754.84Z" fill="url(#paint19_linear_103_600)"/>
<path d="M2264.97 1750.63C2265.65 1758.75 2266.32 1766.88 2267 1775C2280.4 1771.54 2295.02 1767.53 2310.7 1766.98C2331.02 1766.27 2349.58 1768.77 2366.05 1772.88C2366.78 1771.87 2368.33 1769.46 2369.05 1765.49C2370.2 1759.1 2368.27 1753.75 2367.92 1752.8C2359.54 1749.71 2350.43 1747.09 2340.65 1745.24C2312.53 1739.92 2287 1744.33 2264.97 1750.63Z" fill="url(#paint20_linear_103_600)"/>
<path d="M2263.71 1757.64C2263.75 1754.71 2263.97 1751.04 2264.97 1750.63C2265.91 1750.24 2267.18 1752.91 2267.72 1754.4C2267.95 1755.02 2268.45 1756.51 2268.76 1761.25C2269.16 1767.36 2268.69 1770.34 2268.26 1772.19C2268 1773.3 2267.6 1774.98 2267 1775.01C2266.52 1775.04 2266.1 1773.97 2265.47 1771.9C2264.63 1769.12 2263.61 1764.48 2263.7 1757.65L2263.71 1757.64Z" fill="url(#paint21_linear_103_600)"/>
<path d="M2238.91 1808.66C2244.56 1809.77 2258.27 1813.06 2258.27 1813.06C2258.27 1813.06 2249.33 1784.42 2266.17 1771.48C2266.61 1769.33 2267.05 1765.92 2266.52 1761.8C2266.11 1758.62 2265.25 1756.06 2264.51 1754.29C2257.36 1758.2 2241.78 1771.51 2238.91 1808.65V1808.66Z" fill="url(#paint22_linear_103_600)"/>
<path d="M2120.8 1815.01C2120.8 1815.01 2121.51 1799.86 2145.51 1800.13C2149.28 1802.93 2149.47 1815.3 2149.47 1815.3L2120.8 1815.01Z" fill="url(#paint23_linear_103_600)"/>
<path d="M2099.39 2113.34L2165.11 2152.11L2204.57 2005.69L2139.41 1809.73L2120.8 1815.01L2092.45 2097.92C2091.81 2104.34 2094.58 2110.5 2099.4 2113.34H2099.39Z" fill="url(#paint24_linear_103_600)"/>
<path style="mix-blend-mode:multiply" opacity="0.3" d="M2204.57 2005.69L2139.41 1809.73L2120.8 1815.01C2125.39 1832.41 2127.59 1860.68 2128.62 1876.42C2133.02 1943.34 2147.61 1961.92 2140.54 2008.58C2134.66 2047.42 2121.8 2052.82 2122.93 2078.94C2124.16 2107.38 2140.69 2130.93 2160.28 2149.27L2165.1 2152.12L2204.56 2005.7L2204.57 2005.69Z" fill="url(#paint25_linear_103_600)"/>
<path d="M2139.41 1809.73L2488.94 1813.38L2542.06 2114.43L2165.11 2152.11L2139.41 1809.73Z" fill="url(#paint26_linear_103_600)"/>
<g style="mix-blend-mode:multiply" opacity="0.2">
<path d="M2488.94 1813.38L2373.57 1812.17C2371.42 1818.4 2368.14 1827.02 2363.34 1836.77C2310.88 1943.39 2188.95 1957.15 2191.17 1974.93C2194.5 2001.48 2462.3 1963.02 2468.97 1998.63C2472.19 2015.81 2416.78 2055.51 2358.28 2071.1C2287.45 2089.98 2234.83 2067.91 2199.57 2109.11C2187.58 2123.12 2182.28 2139.41 2179.7 2150.41L2542.06 2114.42L2488.94 1813.38Z" fill="url(#paint27_linear_103_600)"/>
</g>
<path d="M2145.51 1800.13C2141.45 1800.08 2135.78 1799.51 2129.59 1803.08C2128.27 1803.84 2127.1 1804.69 2126.08 1805.54L2128.93 1804.56C2133.51 1803.26 2139.82 1805.12 2142.17 1809.75C2145.06 1815.44 2146.1 1828.53 2146.73 1835.02C2148.53 1853.47 2159.56 1968.15 2159.56 1968.15C2160.39 1977.81 2167.68 1985.09 2176.28 1984.87L2500.06 1966.4C2502.45 1966.34 2504.81 1965.56 2506.78 1963.99C2510.89 1960.71 2512.74 1955.05 2511.79 1949.67L2495.86 1817.16C2494.51 1809.53 2488.72 1803.99 2482 1803.92L2145.5 1800.12L2145.51 1800.13Z" fill="url(#paint28_linear_103_600)"/>
<path d="M2149.09 1800.17C2145.04 1800.12 2140.22 1799.51 2134.85 1800.9C2133.4 1801.27 2131.08 1801.96 2130.06 1802.82C2130.06 1802.82 2141.45 1800.22 2145.75 1809.79C2148.38 1815.63 2149.68 1828.57 2150.31 1835.06C2152.11 1853.51 2163.13 1968.15 2163.13 1968.15C2163.96 1977.81 2171.24 1985.09 2179.84 1984.86L2506.97 1976.25C2509.36 1976.19 2511.71 1975.41 2513.68 1973.83C2517.78 1970.55 2519.64 1964.89 2518.68 1959.51L2499.22 1817.2C2497.87 1809.57 2492.09 1804.04 2485.37 1803.96L2149.08 1800.16L2149.09 1800.17Z" fill="url(#paint29_linear_103_600)"/>
<path style="mix-blend-mode:multiply" opacity="0.1" d="M2518.7 1959.52L2499.24 1817.21C2497.89 1809.58 2492.11 1804.05 2485.39 1803.97L2149.1 1800.17C2145.05 1800.12 2140.23 1799.51 2134.86 1800.9C2133.41 1801.27 2131.09 1801.96 2130.07 1802.82C2130.07 1802.82 2141.46 1800.22 2145.76 1809.79C2146.17 1810.71 2146.55 1811.82 2146.9 1813.04C2179.71 1814.68 2212.34 1814.07 2244.78 1816.52C2308.38 1821.2 2371.98 1821.82 2430.7 1848.03C2449.36 1856.36 2462.11 1885.84 2457.07 1899.41C2453.43 1909.2 2440.99 1908.4 2436.65 1921.27C2432.07 1934.82 2443.04 1944.01 2438.44 1953.52C2433.62 1963.5 2418.95 1958.78 2395.12 1965.98C2381.95 1969.96 2371.83 1975.81 2365.49 1979.98L2506.98 1976.26C2509.37 1976.2 2511.72 1975.42 2513.69 1973.84C2517.79 1970.56 2519.65 1964.9 2518.69 1959.52H2518.7Z" fill="url(#paint30_linear_103_600)"/>
<path d="M2364.81 2003.65L2323.84 2013.97L2319.5 2014.36C2315.12 2014.76 2311.35 2010.94 2311.16 2005.87L2309.35 1957.97C2309.16 1952.9 2312.63 1948.7 2317.02 1948.62L2321.39 1948.55L2362.59 1953.81C2366.51 1953.74 2369.81 1951.61 2369.99 1956.34L2371.67 2001.02C2371.85 2005.75 2368.73 2003.3 2364.82 2003.65H2364.81Z" fill="url(#paint31_linear_103_600)"/>
<path d="M2367.91 2010.23L2322.53 2014.33C2318.15 2014.73 2314.38 2010.91 2314.19 2005.84L2312.38 1957.95C2312.19 1952.88 2315.66 1948.68 2320.05 1948.6L2365.56 1947.84C2369.48 1947.77 2372.8 1951.59 2372.98 1956.31L2374.66 2000.98C2374.84 2005.7 2371.81 2009.86 2367.91 2010.21V2010.23Z" fill="url(#paint32_linear_103_600)"/>
<path d="M2313.05 1689.53C2313.05 1689.53 2309.24 1714.8 2305.42 1717.19C2301.61 1719.57 2289.68 1732.93 2292.07 1741.51C2294.45 1750.09 2285.39 1769.68 2302.32 1774.43C2319.25 1779.18 2338.71 1784.26 2340.66 1769.08C2342.61 1753.9 2337.84 1736.74 2338.32 1723.86C2338.8 1710.98 2345.47 1698.11 2345.47 1698.11L2313.04 1689.53H2313.05Z" fill="url(#paint33_linear_103_600)"/>
<path d="M2153.1 1051.42C2130.47 1161.74 2150 1233.24 2173.6 1279.07C2221.37 1371.85 2303.48 1393.74 2317.15 1476.04C2327.01 1535.4 2331.3 1652.47 2302.32 1690.44C2328.44 1700.86 2331.17 1700.28 2350.88 1700.28C2377.3 1685.19 2433.6 1584.5 2457.34 1456.01C2486.14 1300.15 2365.64 1116.1 2153.09 1051.43L2153.1 1051.42Z" fill="white"/>
<path d="M2082.63 1050.26C2071.42 1045.68 2017.01 1034.61 2004.94 1011.02C1991.59 984.92 1987.07 949.01 1987.07 949.01C1987.07 949.01 1949.53 958.98 1955.02 978.38C1960.52 997.77 1951.16 1042.23 1929.61 1052.16C1914.52 1059.11 1895.83 1061.9 1891.78 1066.55C1891.34 1066.62 1891.06 1066.68 1890.96 1066.74C1887.85 1068.68 1897.52 1083.59 1936.31 1105.21C2070.15 1085.06 2084.24 1062.14 2084.82 1054.26C2085.41 1052.54 2084.78 1051.14 2082.62 1050.26H2082.63Z" fill="url(#paint34_linear_103_600)"/>
<path d="M1936.83 939.889C1919.42 925.319 1917.02 923.649 1914.82 918.309C1906 896.869 1920.65 865.379 1942.44 856.169C1943.57 855.689 1958.2 849.679 1964.45 855.739C1969.76 860.879 1963.21 869.089 1967.47 879.479C1971.46 889.199 1980.17 889.259 1997.25 901.059C2011.32 910.779 2020.06 916.819 2022.71 926.089C2028.17 945.209 2006.91 975.249 1986.03 976.149C1978.52 976.469 1976.18 972.809 1936.83 939.899V939.889Z" fill="url(#paint35_linear_103_600)"/>
<path d="M1984.23 979.3C1984.23 979.3 1968.63 1000.1 1941.98 995.77C1918.12 991.9 1919.79 937.71 1936.22 927.76C1941.7 924.44 1952.1 923.85 1960.21 926.98C1965 928.83 1966.47 931.04 1974.35 933.92C1981.62 936.57 1983.81 935.95 1985.88 938.06C1988.47 940.7 1989.97 946.71 1983.75 962C1988.78 957.8 1994.45 956.55 1998.17 958.76C1998.76 959.11 2000.31 960.4 2001.07 962.18C2003.83 968.66 1997.46 975.97 1984.23 979.3Z" fill="url(#paint36_linear_103_600)"/>
<path d="M1972.99 1100.66C1972.99 1100.66 1965.43 1141.04 1953.6 1141.83C1941.78 1142.62 1933.11 1144.19 1933.11 1144.19L1919.88 1094.81C1919.88 1094.81 1937.12 1108.85 1972.99 1100.66Z" fill="url(#paint37_linear_103_600)"/>
<path d="M1959.21 1138.46C1959.21 1138.46 1985.52 1433.86 2077.74 1481.15C2075.38 1490.61 2077.74 1567.46 2077.74 1567.46C2077.74 1567.46 1991.77 1541.58 1986.87 1543.29C1981.97 1545 1882.76 1380.55 1933.1 1144.2L1959.2 1138.47L1959.21 1138.46Z" fill="url(#paint38_linear_103_600)"/>
<path d="M838.569 2616.36L874.969 2608.87L1046.81 2388.3C1046.81 2388.3 952.299 2355.08 948.859 2356.22C945.419 2357.37 865.229 2404.34 861.219 2408.92C857.209 2413.5 806.799 2512.6 806.799 2520.05C806.799 2527.5 838.559 2616.37 838.559 2616.37L838.569 2616.36Z" fill="url(#paint39_linear_103_600)"/>
<path d="M78.8088 2440.98H97.2288L238.569 2296.07C238.569 2296.07 186.589 2279.32 182.289 2279.74C177.989 2280.16 112.689 2304.7 112.689 2304.7C112.689 2304.7 83.0488 2376.4 81.7588 2380.7C80.4688 2385 78.7988 2440.97 78.7988 2440.97L78.8088 2440.98Z" fill="url(#paint40_linear_103_600)"/>
<path d="M1093.52 2401.56C1093.52 2401.56 1093.59 2401.56 1093.62 2401.56C1102.59 2402.29 1111.32 2405.63 1119.58 2410.51C1127.5 2414.35 1137.52 2418.85 1137.63 2424.84V2424.97C1166.06 2455.89 1188.97 2513.59 1190.29 2578.65C1192.05 2665.29 1157.87 2735.98 1111.52 2744.92L1111.5 2744.97C1108.37 2745.48 1069.62 2760.31 946.589 2748.68C942.359 2696.01 934.879 2397.51 934.879 2397.51C934.879 2397.51 1032.89 2390.62 1093.52 2401.54V2401.56Z" fill="url(#paint41_linear_103_600)"/>
<path d="M851.408 2568.3C853.248 2667.4 900.648 2748.68 956.288 2749.72C1010.86 2750.74 1052.82 2673.9 1050.95 2578.21C1049.08 2482.61 1004.11 2401.69 949.568 2397.3C893.968 2392.82 849.578 2469.31 851.408 2568.31V2568.3Z" fill="url(#paint42_linear_103_600)"/>
<path d="M894.949 2569.76C896.269 2640.08 927.929 2697.97 965.219 2699C1002.03 2700.02 1030.43 2645.11 1029.09 2576.43C1027.75 2507.8 997.199 2450.08 960.409 2447.44C923.139 2444.76 893.629 2499.49 894.949 2569.76Z" fill="white"/>
<path d="M283.2 2311.02C283.2 2311.02 283.25 2311.02 283.28 2311.02C290.55 2311.66 298.76 2314.52 305.46 2318.73C311.89 2322.04 314.17 2326.04 321.23 2331.07V2331.19C342.62 2357.88 361.84 2407.59 362.98 2463.63C364.49 2538.26 336.27 2599.13 298.68 2606.79L298.39 2606.84C295.85 2607.28 264.29 2620.02 164.47 2609.89C160.99 2564.52 162.13 2307.4 162.13 2307.4C162.13 2307.4 234.01 2301.55 283.21 2311.02H283.2Z" fill="url(#paint43_linear_103_600)"/>
<path d="M86.9388 2454.41C88.5188 2539.78 127.049 2609.83 172.189 2610.77C216.459 2611.7 250.429 2545.55 248.819 2463.12C247.209 2380.77 210.659 2311.03 166.409 2307.2C121.299 2303.29 85.3588 2369.13 86.9388 2454.41Z" fill="url(#paint44_linear_103_600)"/>
<path d="M122.269 2455.71C123.409 2516.28 149.139 2566.18 179.399 2567.1C209.259 2568.01 232.249 2520.75 231.099 2461.58C229.949 2402.46 205.109 2352.72 175.259 2350.41C145.019 2348.07 121.139 2395.18 122.269 2455.71Z" fill="white"/>
<path d="M2177.43 2316.45H2177.55C2188.67 2316.24 2197.94 2319.33 2208.23 2324.12C2218.13 2327.73 2222.12 2332.86 2229.2 2339.19V2339.35C2271.59 2372.3 2295.62 2439.43 2297.06 2517.21C2298.98 2620.72 2256.08 2706.86 2197.99 2719.65L2198.36 2719.7C2194.47 2720.45 2146.88 2739.54 1999.61 2731.4C1994.71 2671.42 1986.37 2330.26 1986.37 2330.26C1986.37 2330.26 2103.18 2310.86 2177.43 2316.44V2316.45Z" fill="url(#paint45_linear_103_600)"/>
<path d="M2011.11 2732.2C2075.88 2731 2126.72 2639.63 2124.65 2528.11C2122.59 2416.6 2068.41 2327.17 2003.64 2328.37C1938.87 2329.56 1888.03 2420.94 1890.09 2532.45C1892.16 2643.97 1946.34 2733.39 2011.11 2732.2Z" fill="url(#paint46_linear_103_600)"/>
<path d="M2021.69 2673.65C2065.39 2672.84 2099.62 2607.54 2098.15 2527.8C2096.67 2448.06 2060.05 2384.07 2016.35 2384.88C1972.65 2385.69 1938.42 2450.99 1939.9 2530.73C1941.37 2610.47 1977.99 2674.46 2021.69 2673.65Z" fill="url(#paint47_linear_103_600)"/>
<path d="M2477.19 2571.79L2477.27 2575.93C2478.19 2625.67 2438.56 2666.71 2388.83 2667.64L1288.74 2688.02C1189.03 2689.87 1168.39 2673.82 1165.68 2671.02C1165.49 2670.91 1165.22 2670.76 1165.14 2670.61L1080.58 2656.58C1087.79 2631.97 1091.15 2604.58 1090.62 2575.78C1088.67 2470.34 1028.99 2385.86 958.349 2387.17C895.139 2388.34 845.789 2457.76 833.529 2547.94C833.529 2547.99 833.529 2548.04 833.529 2548.09C833.729 2558.68 833.739 2569.45 833.939 2580.53C834.169 2592.79 836.819 2604.77 838.549 2616.39L272.569 2522.35L262.019 2518.22C266.089 2500.12 268.079 2480.46 267.689 2459.85C266.079 2372.96 222.319 2303.33 170.069 2304.3C122.299 2305.18 83.9287 2364.57 78.7787 2441C75.0787 2436.73 71.3887 2431.98 67.8487 2426.7C50.6887 2401.06 45.0287 2374.69 43.1587 2356C30.8787 2193.25 75.8387 2085.54 120.599 2020.45C159.919 1963.17 199.099 1938.84 199.099 1938.84L363.049 1833.32C456.029 1773.37 563.899 1740.6 674.419 1738.55L1311.24 1726.75C1408.33 1724.95 1502.93 1746.28 1589.67 1789.91C1765.56 1878.43 1958.59 2013.27 1958.59 2013.27C2188.75 2036.03 2315.96 2137.56 2315.96 2137.56C2345.37 2159.71 2369.04 2183.41 2388.16 2207.84C2390.84 2211.24 2393.41 2214.69 2395.87 2218.14C2423.64 2256.49 2440.39 2296.15 2450.05 2333.81C2450.21 2334.38 2450.38 2334.94 2450.5 2335.51C2476.56 2439.48 2448.55 2527.29 2448.55 2527.29C2465.75 2535.55 2476.84 2552.76 2477.2 2571.81L2477.19 2571.79Z" fill="url(#paint48_linear_103_600)"/>
<path d="M1165.36 2670.6C1165.43 2670.74 1165.58 2670.87 1165.78 2671.01C1173.53 2675.67 1183.68 2701.25 1438.64 2685.24L2388.81 2667.64C2438.58 2666.72 2478.2 2625.67 2477.28 2575.9L2477.2 2571.79C2477.18 2570.68 2477.09 2569.63 2477 2568.52C2475.56 2550.79 2464.75 2535.05 2448.52 2527.27L1342.01 2558.21C1342.01 2558.21 1237.12 2541.14 1201.68 2560.53C1196.72 2563.27 1193.09 2566.68 1191.36 2570.96C1176.97 2605.9 1158.09 2654.5 1165.35 2670.59L1165.36 2670.6Z" fill="url(#paint49_linear_103_600)"/>
<path d="M2450.05 2333.78C2435.04 2347.04 2415.24 2355.87 2393.2 2358.71L2271.77 2374.36C2259.01 2376.04 2245.98 2373.36 2235.73 2366.91C2225.32 2360.31 2218.8 2350.6 2217.77 2339.88L2216.49 2326.09C2214.69 2306.77 2230.81 2289.77 2253.93 2286.08C2295.82 2279.46 2332.1 2264.86 2360.3 2244.22L2395.87 2218.13C2405.72 2228.96 2417.46 2244.06 2427.71 2263.77C2441.94 2291.13 2447.61 2316.38 2450.05 2333.8V2333.78Z" fill="white"/>
<path d="M1668.24 2335.69C1676.2 2344.9 1689.32 2352.28 1697.37 2352.15C1845.18 2349.39 1992.84 2346.64 2140.34 2343.89C2148.37 2343.73 2159.6 2335.89 2165.26 2326.45C2170.89 2317.07 2168.08 2309.66 2159.03 2309.83C1996.35 2312.84 1833.47 2315.86 1670.41 2318.88C1661.4 2319.07 1660.26 2326.54 1668.23 2335.69H1668.24Z" fill="url(#paint50_linear_103_600)"/>
<path d="M1719.28 2395.28C1727.69 2404.93 1739.76 2412.75 1746.35 2412.61C1866.46 2410.34 1986.47 2408.08 2106.37 2405.82C2112.92 2405.7 2123.09 2397.49 2129.05 2387.57C2135 2377.72 2133.55 2369.9 2126 2370.06C1990.15 2372.61 1854.18 2375.15 1718.07 2377.7C1710.48 2377.84 1710.96 2385.67 1719.28 2395.27V2395.28Z" fill="url(#paint51_linear_103_600)"/>
<path d="M1541.56 2413.04C1568.51 2411.85 1589.6 2391.9 1589.15 2368.02L1588.88 2353.46C1588.46 2330.76 1568.66 2312.12 1543.1 2310.36L1494.96 2307.06L1207.25 2236.96L1214.2 2272.94C1224.7 2327.3 1267.22 2372.42 1325.71 2391.28L1368.5 2405.08C1396.66 2414.16 1426.62 2418.15 1456.6 2416.82L1541.56 2413.05V2413.04Z" fill="white"/>
<g style="mix-blend-mode:soft-light" opacity="0.4">
<path d="M1201.69 2560.54L1321.72 2589.93L2477.01 2568.53C2475.57 2550.8 2464.76 2535.06 2448.53 2527.28L1342.02 2558.22C1342.02 2558.22 1237.13 2541.15 1201.69 2560.54Z" fill="white"/>
</g>
<path d="M447.849 2494.71C447.919 2494.71 447.989 2494.71 448.069 2494.71C451.779 2487.68 454.829 2489.52 454.649 2485.68C454.529 2483.35 443.429 2251.02 448.529 2156.64C452.959 2074.88 466.359 2059.85 467.549 2058.72C470.519 2056.98 471.819 2053.05 470.439 2049.79C468.949 2046.25 464.849 2044.49 461.319 2045.97C456.329 2048.08 439.639 2062.12 434.609 2155.07C429.459 2250.16 440.619 2484.04 440.729 2486.38C440.919 2490.15 444.099 2494.79 447.839 2494.72L447.849 2494.71Z" fill="url(#paint52_linear_103_600)"/>
<path style="mix-blend-mode:multiply" opacity="0.2" d="M63.8685 2420.31C68.7085 2428.44 73.6685 2435.45 78.8085 2440.97C83.9385 2364.56 122.319 2305.15 170.069 2304.27C222.339 2303.3 266.099 2372.96 267.709 2459.82C268.089 2480.42 266.089 2500.1 262.039 2518.2L272.559 2522.32L838.569 2616.35C836.829 2604.75 834.159 2592.76 833.939 2580.51C833.739 2569.44 833.749 2558.65 833.549 2548.07V2547.93C832.089 2469.07 708.859 2473.93 654.689 2477.44C595.229 2481.26 526.169 2500.71 474.319 2460.73C443.659 2437.07 428.939 2397.79 398.809 2372.59C365.079 2344.46 323.579 2325.87 285.719 2304.08C205.979 2258.07 184.209 2204.86 186.879 2101C188.579 2035.24 149.529 2021.55 120.539 2020.42C75.7885 2085.52 30.8785 2193.23 43.1585 2356C44.0885 2371.28 48.5785 2394.62 63.8685 2420.32V2420.31Z" fill="url(#paint53_linear_103_600)"/>
<path d="M791.559 1785.1C791.559 1785.1 869.349 1973.95 888.379 2001.45C890.169 2003.99 892.439 2006.39 895.129 2008.57C921.209 2029.53 984.129 2032.2 984.129 2032.2L1909.87 2015.05C1700.48 1863.45 1522.4 1771.57 1522.4 1771.57L791.559 1785.11V1785.1Z" fill="url(#paint54_linear_103_600)"/>
<path style="mix-blend-mode:multiply" opacity="0.3" d="M1909.87 2015.05C1700.47 1863.45 1522.4 1771.57 1522.4 1771.57L1474.45 1772.46C1461.37 1793.68 1444.12 1811.81 1422.68 1824.92C1324.2 1882.65 1205.34 1855.48 1100.07 1892.84C1031.65 1916.17 983.218 1966.58 952.068 2028.7C969.848 2031.6 984.138 2032.21 984.138 2032.21L1909.88 2015.06L1909.87 2015.05Z" fill="url(#paint55_linear_103_600)"/>
<path d="M225.508 1955.73C225.508 1955.73 325.028 1994.27 458.398 2029.82C462.338 2009.28 468.818 1983.46 479.508 1955C499.138 1902.35 532.948 1840.52 591.258 1785.47C545.448 1789.66 491.878 1799.57 435.588 1820.38C366.498 1845.89 293.398 1887.84 225.518 1955.73H225.508Z" fill="url(#paint56_linear_103_600)"/>
<path d="M492.537 2038.66C558.997 2055.32 631.967 2070.54 704.267 2079.78C745.447 2085.01 786.377 2088.29 825.727 2088.74C837.217 2088.88 848.637 2088.8 859.847 2088.46C859.847 2088.46 859.847 2088.39 859.777 2088.32C857.897 2080.97 782.187 1793.84 716.737 1786.49C701.667 1784.82 677.887 1782.75 647.947 1782.82C578.407 1836.26 538.817 1901.82 516.457 1957.66C503.877 1989.02 496.677 2017.28 492.537 2038.66Z" fill="url(#paint57_linear_103_600)"/>
<path opacity="0.3" d="M825.729 2088.74C837.219 2088.88 848.639 2088.8 859.849 2088.46C859.849 2088.46 859.849 2088.39 859.779 2088.32C850.519 2088.42 839.029 2088.56 825.739 2088.74H825.729Z" fill="url(#paint58_linear_103_600)"/>
<path style="mix-blend-mode:multiply" opacity="0.7" d="M516.447 1957.66C503.867 1989.02 496.667 2017.28 492.527 2038.66C558.987 2055.32 631.957 2070.54 704.257 2079.78C693.907 2069.88 684.277 2057.31 675.767 2041.53C638.637 1972.94 575.147 1962.21 516.437 1957.66H516.447Z" fill="url(#paint59_linear_103_600)"/>
<path style="mix-blend-mode:multiply" opacity="0.7" d="M225.508 1955.73C225.508 1955.73 325.028 1994.27 458.398 2029.82C462.338 2009.28 468.818 1983.46 479.508 1955C444.078 1952.11 413.418 1947.17 395.558 1926.48C364.248 1890.02 401.478 1847.83 435.578 1820.39C366.488 1845.9 293.388 1887.85 225.508 1955.74V1955.73Z" fill="url(#paint60_linear_103_600)"/>
<path d="M856.648 2101.6C856.648 2101.6 824.428 1983.63 781.668 1979.68C738.908 1975.73 616.578 1943.22 606.598 2001.89C596.618 2060.57 619.288 2089.33 680.988 2091.78C742.688 2094.23 783.718 2089.88 783.718 2089.88L812.728 2119.81C812.728 2119.81 859.148 2150.57 856.658 2101.61L856.648 2101.6Z" fill="url(#paint61_linear_103_600)"/>
<path d="M870.878 2101.34C870.878 2101.34 838.658 1983.37 795.898 1979.42C753.138 1975.47 630.808 1942.96 620.828 2001.63C610.848 2060.31 633.518 2089.07 695.218 2091.52C756.918 2093.97 797.938 2089.62 797.938 2089.62L826.948 2119.55C826.948 2119.55 873.368 2150.31 870.878 2101.35V2101.34Z" fill="url(#paint62_linear_103_600)"/>
<path d="M1253.12 1382.98C1253.12 1382.98 1288.85 1351.5 1296.08 1340C1303.32 1328.51 1303.52 1351.04 1296.27 1355.59C1289.03 1360.14 1398.44 1344.99 1379.16 1363.97C1359.88 1382.94 1345.98 1400.83 1320.08 1402.03C1294.18 1403.23 1263.63 1411.09 1258.35 1414.55C1253.07 1418.01 1253.12 1382.98 1253.12 1382.98Z" fill="url(#paint63_linear_103_600)"/>
<path d="M545.939 1163.68C537.169 1167 403.369 1220.21 375.869 1359.85C373.649 1371.13 352.149 1491.11 433.519 1575.87C524.759 1670.91 700.439 1668.56 770.179 1589.1C786.439 1570.57 795.019 1550.03 799.829 1532.78L781.459 1483.96C759.039 1456.89 728.509 1450.48 712.209 1446.46C672.019 1436.55 641.679 1454.46 618.659 1435.07C605.919 1424.35 603.389 1408.91 601.129 1395.13C593.429 1348.17 619.939 1319.27 621.859 1290.31C623.299 1268.66 630.879 1221.23 602.629 1190.3C584.739 1170.71 559.959 1165.38 545.949 1163.66L545.939 1163.68Z" fill="url(#paint64_linear_103_600)"/>
<path d="M493.809 2720.01C492.249 2711.41 464.489 2703.63 450.739 2715.15C443.909 2720.87 439.209 2732.46 443.159 2737.69C444.599 2739.59 438.709 2742.94 444.349 2743.01C463.049 2743.23 495.359 2728.56 493.809 2720.01Z" fill="url(#paint65_linear_103_600)"/>
<path d="M464.708 2723.14L436.158 2719.1C449.388 2703.17 446.938 2652.46 446.938 2652.46L477.308 2659.24C477.308 2659.24 473.848 2673.16 467.968 2693.7C465.948 2700.73 465.048 2711.73 464.718 2723.15L464.708 2723.14Z" fill="url(#paint66_linear_103_600)"/>
<path d="M467.24 2719.62C467.24 2719.62 432.86 2711.7 429.15 2718.52C425.43 2725.34 422.54 2743.6 444.35 2743.01C466.16 2742.42 469.18 2725.41 467.24 2719.62Z" fill="url(#paint67_linear_103_600)"/>
<path d="M885.578 2752.25C882.828 2743.96 854.248 2740.14 842.248 2753.46C836.288 2760.08 833.258 2772.21 837.898 2776.84C839.588 2778.53 834.228 2782.67 839.818 2781.94C858.368 2779.54 888.298 2760.49 885.568 2752.25H885.578Z" fill="url(#paint68_linear_103_600)"/>
<path d="M857.209 2759.42H828.369C839.239 2741.8 829.709 2691.92 829.709 2691.92L860.719 2694.38C860.719 2694.38 859.239 2708.65 856.289 2729.8C855.279 2737.04 855.929 2748.06 857.199 2759.41L857.209 2759.42Z" fill="#893976"/>
<path d="M931.938 1668.93C945.298 1713.04 964.368 1784.24 976.648 1873.57C1011.68 2128.36 937.228 2136.49 951.128 2418.82C955.568 2508.94 873.048 2716.76 865.778 2721.35C862.258 2721.69 858.438 2721.92 854.368 2721.8C847.188 2721.58 837.068 2720.48 825.308 2716.96C812.238 2714.71 765.108 2587.06 776.038 2511.17C783.768 2457.46 781.528 2399.81 777.048 2284.52C776.318 2265.84 728.528 1921.07 728.528 1921.07C713.988 2048.68 697.268 2157.12 682.768 2241.19C636.198 2511.29 484.768 2674.77 476.868 2677.39C475.308 2678.02 461.098 2683.18 449.478 2675.52C444.308 2672.11 442.548 2667.71 442.548 2667.71C438.498 2664.54 443.738 2398.05 489.928 2197.49C556.968 1906.38 527.778 1838.27 549.018 1708.24C567.398 1595.73 931.938 1668.94 931.938 1668.94V1668.93Z" fill="url(#paint69_linear_103_600)"/>
<path d="M949.869 1712.92C909.619 1733.58 805.929 1770.57 682.389 1752.19C625.939 1743.8 580.789 1725.04 549.019 1708.27C552.879 1696.56 555.919 1685.49 558.259 1675.01C575.189 1598.72 554.489 1553.47 544.049 1511.39C527.149 1443.11 526.869 1448.26 512.939 1394.03C489.939 1304.54 486.169 1213.13 501.959 1194.4C544.549 1143.96 621.279 1142.16 661.149 1140.96C705.639 1139.66 807.939 1123.97 864.299 1174.66C865.279 1175.55 853.729 1181.72 859.429 1188.36C864.709 1194.53 882.809 1216.21 899.199 1245.44C911.099 1266.64 921.829 1291.35 932.649 1328.15C947.579 1379 954.199 1423.93 957.239 1452.6C958.059 1460.54 958.629 1467.25 959.039 1472.47C969.349 1607.93 959.139 1670.43 949.859 1712.92H949.869Z" fill="url(#paint70_linear_103_600)"/>
<path d="M859.219 2755.58C859.219 2755.58 824.069 2752.55 821.349 2759.82C818.619 2767.09 818.319 2785.57 839.829 2781.94C861.339 2778.3 861.949 2761.03 859.219 2755.58Z" fill="url(#paint71_linear_103_600)"/>
<path d="M775.088 1090.6C779.658 1082.88 784.668 1076.22 784.088 1068.68C783.018 1054.91 781.828 1041.69 780.988 1038.18C775.528 1015.51 773.498 1012.07 769.288 1007.27L763.338 1000.98C763.338 1000.98 762.968 1000.7 762.578 1000.44C758.438 997.59 742.988 992.97 739.648 992.8C728.988 992.27 707.308 1030.48 694.888 1089.36C693.878 1091.46 692.878 1093.59 691.888 1095.73C685.728 1109.09 680.448 1122.23 675.908 1135.04C603.898 1141.13 593.908 1149.58 593.588 1154.46C592.908 1164.73 633.938 1176.6 664.798 1181.12C732.098 1190.97 801.268 1173.22 800.948 1160.68C800.808 1155.22 787.438 1148.1 730.388 1140.63C731.718 1131.19 733.058 1121.75 734.388 1112.31C739.028 1111.28 765.518 1106.79 775.078 1090.63L775.088 1090.6Z" fill="url(#paint72_linear_103_600)"/>
<path d="M788.619 990.05C783.759 1008.02 770.169 1024.98 765.029 1026.91C764.369 1027.16 760.569 1028.8 756.619 1032.29C756.079 1032.76 755.559 1033.35 755.029 1034.14C748.069 1044.43 762.539 1062.57 757.699 1066.72C754.189 1069.73 743.259 1061.54 740.949 1064.33C738.779 1066.96 747.309 1075.87 744.789 1079.04C742.889 1081.43 737.289 1077.29 732.229 1080.38C729.709 1081.92 729.849 1083.71 726.079 1089.47C723.949 1092.72 721.259 1096.19 719.399 1098.02C710.369 1106.92 691.729 1106.09 689.469 1100.96C688.839 1099.53 689.909 1098.76 689.999 1094.55C689.999 1094.55 690.079 1090.65 688.659 1085.73C686.629 1078.71 678.989 1072.04 671.819 1063.28C658.539 1047.07 656.769 1035.79 656.339 1032.03C656.189 1030.69 656.129 1029.69 656.099 1028.98C655.359 1014.58 660.539 995.1 669.689 984.71C685.029 967.31 705.009 982.84 728.749 967.87C756.139 950.6 751.829 915.87 764.289 915.49C778.029 915.06 797.589 956.82 788.609 990.05H788.619Z" fill="#26264F"/>
<path d="M752.359 1060.77C749.569 1053.54 740.299 1057.16 738.169 1064.99C736.029 1072.82 741.459 1082.99 749.239 1083.41C757.019 1083.83 756.129 1070.51 752.369 1060.77H752.359Z" fill="url(#paint73_linear_103_600)"/>
<path style="mix-blend-mode:multiply" opacity="0.3" d="M563.2 1647.46C563.13 1647.46 563.06 1647.46 562.99 1647.45C561.94 1647.33 561.19 1646.39 561.3 1645.34C566.55 1598.1 556.76 1563.77 548.12 1533.48C545.99 1526 543.97 1518.93 542.21 1511.83C532.61 1473.09 528.4 1458.13 523.95 1442.3C521.05 1431.98 518.05 1421.32 513.41 1403.49C513.15 1402.47 513.76 1401.43 514.78 1401.16C515.79 1400.9 516.84 1401.5 517.11 1402.53C521.74 1420.32 524.74 1430.97 527.63 1441.27C532.09 1457.13 536.3 1472.12 545.92 1510.92C547.66 1517.95 549.67 1524.99 551.79 1532.44C560.53 1563.07 570.43 1597.79 565.1 1645.77C564.99 1646.75 564.16 1647.47 563.21 1647.47L563.2 1647.46Z" fill="url(#paint74_linear_103_600)"/>
<path d="M752.28 1046.71L758.96 1062.74C758.96 1062.74 765.64 1081.98 774.46 1074.77C781.66 1068.87 782.98 1069.4 783.23 1069.79C783.28 1069.86 783.27 1069.96 783.28 1069.96C783.38 1069.96 783.48 1066.12 783.55 1062.74C785.23 1067.38 787.29 1074.72 787.29 1083.85C787.29 1092.73 787.29 1102.23 780.34 1109.5C779.94 1109.92 772.37 1117.62 762.17 1117.25C762.17 1117.25 758.16 1117.11 742.93 1110.04C742.93 1110.04 763.77 1102.02 764.85 1099.08C767.76 1091.09 757.58 1083.63 753.62 1064.6C752.09 1057.26 752.06 1050.96 752.29 1046.7L752.28 1046.71Z" fill="#26264F"/>
<path style="mix-blend-mode:multiply" opacity="0.3" d="M949.87 1712.92C909.62 1733.58 805.93 1770.57 682.39 1752.19C625.94 1743.8 580.79 1725.04 549.02 1708.27C552.88 1696.56 555.92 1685.49 558.26 1675.01C640.44 1732.57 674.799 1676.59 727.859 1663.4C783.079 1649.7 854.079 1678.18 810.859 1550.66C767.599 1423.14 839.34 1432.41 839.34 1432.41L957.24 1452.6C958.06 1460.54 958.629 1467.25 959.039 1472.47C969.349 1607.93 959.139 1670.43 949.859 1712.92H949.87Z" fill="url(#paint75_linear_103_600)"/>
<path d="M1253.86 1378.06C1269.96 1389.32 1278.59 1404.62 1283.06 1414.38C1271.23 1442.16 1244.39 1493.73 1188.83 1531.74C1097.74 1594.06 964.189 1596.16 871.159 1525.09C760.019 1440.18 741.449 1277.35 788.129 1207.62C793.499 1199.59 811.169 1173.2 838.599 1170.17C855.919 1168.26 879.499 1175.4 916.749 1219.01C994.359 1309.88 966.949 1366.63 1012.8 1393.21C1081.56 1433.08 1183.74 1328.99 1253.85 1378.05L1253.86 1378.06Z" fill="url(#paint76_linear_103_600)"/>
<path style="mix-blend-mode:multiply" opacity="0.3" d="M940.989 1564.18C940.859 1564.18 940.719 1564.17 940.579 1564.14C939.479 1563.9 830.089 1538.76 780.959 1403.23C780.599 1402.24 781.109 1401.15 782.099 1400.79C783.089 1400.43 784.179 1400.94 784.539 1401.93C832.919 1535.4 940.299 1560.18 941.379 1560.41C942.409 1560.63 943.059 1561.65 942.839 1562.68C942.649 1563.57 941.859 1564.18 940.979 1564.18H940.989Z" fill="url(#paint77_linear_103_600)"/>
<path d="M1357.08 1354.61C1357.08 1354.61 1348.97 1339.03 1337.69 1346.66C1326.4 1354.29 1310.56 1359.54 1321.11 1362.24C1331.65 1364.94 1357.09 1354.61 1357.09 1354.61H1357.08Z" fill="url(#paint78_linear_103_600)"/>
</g>
<defs>
<linearGradient id="paint0_linear_103_600" x1="1216.93" y1="1238.86" x2="3343.85" y2="-888.06" gradientUnits="userSpaceOnUse">
<stop stop-color="#E38DDD"/>
<stop offset="1" stop-color="#9571F6"/>
</linearGradient>
<linearGradient id="paint1_linear_103_600" x1="1381.74" y1="149.829" x2="1958" y2="3833.76" gradientUnits="userSpaceOnUse">
<stop stop-color="#FF9085"/>
<stop offset="1" stop-color="#FB6FBB"/>
</linearGradient>
<linearGradient id="paint2_linear_103_600" x1="308.908" y1="303.209" x2="827.218" y2="800.449" gradientUnits="userSpaceOnUse">
<stop stop-color="#AB316D"/>
<stop offset="1" stop-color="#792D3D"/>
</linearGradient>
<linearGradient id="paint3_linear_103_600" x1="737.239" y1="368.639" x2="139.669" y2="1266.4" gradientUnits="userSpaceOnUse">
<stop stop-color="#FFC444"/>
<stop offset="1" stop-color="#F36F56"/>
</linearGradient>
<linearGradient id="paint4_linear_103_600" x1="765.928" y1="341.349" x2="586.408" y2="592.399" gradientUnits="userSpaceOnUse">
<stop stop-color="#FFC444"/>
<stop offset="1" stop-color="#F36F56"/>
</linearGradient>
<linearGradient id="paint5_linear_103_600" x1="426.977" y1="54.2678" x2="697.517" y2="778.078" gradientUnits="userSpaceOnUse">
<stop stop-color="#FFC444"/>
<stop offset="1" stop-color="#F36F56"/>
</linearGradient>
<linearGradient id="paint6_linear_103_600" x1="263.987" y1="1480.65" x2="802.727" y2="28.6177" gradientUnits="userSpaceOnUse">
<stop stop-color="#EBEFF2"/>
<stop offset="1" stop-color="white"/>
</linearGradient>
<linearGradient id="paint7_linear_103_600" x1="807.229" y1="337.889" x2="486.759" y2="982.459" gradientUnits="userSpaceOnUse">
<stop stop-color="#FFC444"/>
<stop offset="1" stop-color="#F36F56"/>
</linearGradient>
<linearGradient id="paint8_linear_103_600" x1="455.078" y1="275.459" x2="799.278" y2="917.12" gradientUnits="userSpaceOnUse">
<stop stop-color="#FF9085"/>
<stop offset="1" stop-color="#FB6FBB"/>
</linearGradient>
<linearGradient id="paint9_linear_103_600" x1="485.579" y1="259.108" x2="829.779" y2="900.758" gradientUnits="userSpaceOnUse">
<stop stop-color="#FF9085"/>
<stop offset="1" stop-color="#FB6FBB"/>
</linearGradient>
<linearGradient id="paint10_linear_103_600" x1="359.338" y1="326.818" x2="703.538" y2="968.478" gradientUnits="userSpaceOnUse">
<stop stop-color="#FF9085"/>
<stop offset="1" stop-color="#FB6FBB"/>
</linearGradient>
<linearGradient id="paint11_linear_103_600" x1="1851.03" y1="2313.39" x2="1999.92" y2="2850.67" gradientUnits="userSpaceOnUse">
<stop stop-color="#311944"/>
<stop offset="1" stop-color="#893976"/>
</linearGradient>
<linearGradient id="paint12_linear_103_600" x1="1983.54" y1="2693.25" x2="1985.7" y2="2512" gradientUnits="userSpaceOnUse">
<stop stop-color="#FFC444"/>
<stop offset="1" stop-color="#F36F56"/>
</linearGradient>
<linearGradient id="paint13_linear_103_600" x1="2037.43" y1="2261.74" x2="2186.32" y2="2799.02" gradientUnits="userSpaceOnUse">
<stop stop-color="#311944"/>
<stop offset="1" stop-color="#893976"/>
</linearGradient>
<linearGradient id="paint14_linear_103_600" x1="2193.13" y1="2695.75" x2="2195.28" y2="2514.5" gradientUnits="userSpaceOnUse">
<stop stop-color="#FFC444"/>
<stop offset="1" stop-color="#F36F56"/>
</linearGradient>
<linearGradient id="paint15_linear_103_600" x1="1879.06" y1="2110.33" x2="2072.04" y2="2110.33" gradientUnits="userSpaceOnUse">
<stop stop-color="#444B8C"/>
<stop offset="1" stop-color="#26264F"/>
</linearGradient>
<linearGradient id="paint16_linear_103_600" x1="1879.07" y1="-0.000955478" x2="2072.04" y2="-0.000955478" gradientUnits="userSpaceOnUse">
<stop stop-color="#444B8C"/>
<stop offset="1" stop-color="#26264F"/>
</linearGradient>
<linearGradient id="paint17_linear_103_600" x1="1988.02" y1="2137.9" x2="2280.96" y2="2137.9" gradientUnits="userSpaceOnUse">
<stop stop-color="#444B8C"/>
<stop offset="1" stop-color="#26264F"/>
</linearGradient>
<linearGradient id="paint18_linear_103_600" x1="1299.9" y1="1331.09" x2="1481.16" y2="1515.59" gradientUnits="userSpaceOnUse">
<stop stop-color="#FFC444"/>
<stop offset="1" stop-color="#F36F56"/>
</linearGradient>
<linearGradient id="paint19_linear_103_600" x1="2361.65" y1="1781.36" x2="2393.22" y2="1781.36" gradientUnits="userSpaceOnUse">
<stop stop-color="#FFC444"/>
<stop offset="1" stop-color="#F36F56"/>
</linearGradient>
<linearGradient id="paint20_linear_103_600" x1="2311.21" y1="1845.48" x2="2318.79" y2="1732.65" gradientUnits="userSpaceOnUse">
<stop offset="0.1" stop-color="#311944"/>
<stop offset="0.27" stop-color="#361B47"/>
<stop offset="0.48" stop-color="#462050"/>
<stop offset="0.72" stop-color="#602A5F"/>
<stop offset="0.97" stop-color="#843773"/>
<stop offset="1" stop-color="#893976"/>
</linearGradient>
<linearGradient id="paint21_linear_103_600" x1="2268.73" y1="1764.2" x2="2355.4" y2="1810.67" gradientUnits="userSpaceOnUse">
<stop offset="0.1" stop-color="#311944"/>
<stop offset="0.27" stop-color="#361B47"/>
<stop offset="0.48" stop-color="#462050"/>
<stop offset="0.72" stop-color="#602A5F"/>
<stop offset="0.97" stop-color="#843773"/>
<stop offset="1" stop-color="#893976"/>
</linearGradient>
<linearGradient id="paint22_linear_103_600" x1="2238.91" y1="1783.68" x2="2266.77" y2="1783.68" gradientUnits="userSpaceOnUse">
<stop stop-color="#FFC444"/>
<stop offset="1" stop-color="#F36F56"/>
</linearGradient>
<linearGradient id="paint23_linear_103_600" x1="2145.53" y1="1909.27" x2="2095.98" y2="1456.4" gradientUnits="userSpaceOnUse">
<stop offset="0.1" stop-color="#311944"/>
<stop offset="0.69" stop-color="#6D2E66"/>
<stop offset="1" stop-color="#893976"/>
</linearGradient>
<linearGradient id="paint24_linear_103_600" x1="2361.08" y1="2097.2" x2="2033" y2="1914.51" gradientUnits="userSpaceOnUse">
<stop stop-color="#311944"/>
<stop offset="1" stop-color="#893976"/>
</linearGradient>
<linearGradient id="paint25_linear_103_600" x1="2065.02" y1="1843.01" x2="2163.96" y2="2008.92" gradientUnits="userSpaceOnUse">
<stop stop-color="#311944"/>
<stop offset="1" stop-color="#893976"/>
</linearGradient>
<linearGradient id="paint26_linear_103_600" x1="2317.12" y1="1645.1" x2="2353.2" y2="2129.39" gradientUnits="userSpaceOnUse">
<stop offset="0.1" stop-color="#311944"/>
<stop offset="0.69" stop-color="#6D2E66"/>
<stop offset="1" stop-color="#893976"/>
</linearGradient>
<linearGradient id="paint27_linear_103_600" x1="2253.02" y1="1919.25" x2="2518.72" y2="2123.98" gradientUnits="userSpaceOnUse">
<stop stop-color="#311944"/>
<stop offset="1" stop-color="#893976"/>
</linearGradient>
<linearGradient id="paint28_linear_103_600" x1="2184.57" y1="1891.47" x2="2296.46" y2="1887.13" gradientUnits="userSpaceOnUse">
<stop offset="0.1" stop-color="#311944"/>
<stop offset="0.69" stop-color="#6D2E66"/>
<stop offset="1" stop-color="#893976"/>
</linearGradient>
<linearGradient id="paint29_linear_103_600" x1="2358.73" y1="2266.78" x2="2319.87" y2="1830.17" gradientUnits="userSpaceOnUse">
<stop offset="0.1" stop-color="#311944"/>
<stop offset="0.27" stop-color="#361B47"/>
<stop offset="0.48" stop-color="#462050"/>
<stop offset="0.72" stop-color="#602A5F"/>
<stop offset="0.97" stop-color="#843773"/>
<stop offset="1" stop-color="#893976"/>
</linearGradient>
<linearGradient id="paint30_linear_103_600" x1="2377.66" y1="2368.06" x2="2311.77" y2="1765.72" gradientUnits="userSpaceOnUse">
<stop stop-color="#311944"/>
<stop offset="1" stop-color="#893976"/>
</linearGradient>
<linearGradient id="paint31_linear_103_600" x1="2470.58" y1="2050.65" x2="2271.88" y2="1946.78" gradientUnits="userSpaceOnUse">
<stop stop-color="#FFC444"/>
<stop offset="1" stop-color="#F36F56"/>
</linearGradient>
<linearGradient id="paint32_linear_103_600" x1="2292.45" y1="1962.76" x2="2495.23" y2="2035.32" gradientUnits="userSpaceOnUse">
<stop stop-color="#FFC444"/>
<stop offset="1" stop-color="#F36F56"/>
</linearGradient>
<linearGradient id="paint33_linear_103_600" x1="2333.78" y1="1899.64" x2="2316.84" y2="1709.29" gradientUnits="userSpaceOnUse">
<stop stop-color="#FFC444"/>
<stop offset="1" stop-color="#F36F56"/>
</linearGradient>
<linearGradient id="paint34_linear_103_600" x1="1987.74" y1="1124.2" x2="1987.74" y2="935.32" gradientUnits="userSpaceOnUse">
<stop stop-color="#FFC444"/>
<stop offset="1" stop-color="#F36F56"/>
</linearGradient>
<linearGradient id="paint35_linear_103_600" x1="2025.89" y1="1067.14" x2="1947.71" y2="868.579" gradientUnits="userSpaceOnUse">
<stop stop-color="#444B8C"/>
<stop offset="1" stop-color="#3E4177"/>
</linearGradient>
<linearGradient id="paint36_linear_103_600" x1="1862.4" y1="1008.73" x2="2030.21" y2="917.332" gradientUnits="userSpaceOnUse">
<stop stop-color="#FFC444"/>
<stop offset="1" stop-color="#F36F56"/>
</linearGradient>
<linearGradient id="paint37_linear_103_600" x1="1955.65" y1="962.669" x2="1939.89" y2="1193.62" gradientUnits="userSpaceOnUse">
<stop stop-color="#444B8C"/>
<stop offset="1" stop-color="#26264F"/>
</linearGradient>
<linearGradient id="paint38_linear_103_600" x1="1998.32" y1="1422.77" x2="1998.32" y2="904.019" gradientUnits="userSpaceOnUse">
<stop stop-color="#444B8C"/>
<stop offset="1" stop-color="#26264F"/>
</linearGradient>
<linearGradient id="paint39_linear_103_600" x1="960.299" y1="2519.05" x2="853.229" y2="2417.33" gradientUnits="userSpaceOnUse">
<stop stop-color="#444B8C"/>
<stop offset="1" stop-color="#3E4177"/>
</linearGradient>
<linearGradient id="paint40_linear_103_600" x1="164.499" y1="2374.04" x2="102.649" y2="2315.28" gradientUnits="userSpaceOnUse">
<stop stop-color="#444B8C"/>
<stop offset="1" stop-color="#3E4177"/>
</linearGradient>
<linearGradient id="paint41_linear_103_600" x1="1189.96" y1="2571.09" x2="937.997" y2="2575.75" gradientUnits="userSpaceOnUse">
<stop stop-color="#444B8C"/>
<stop offset="1" stop-color="#3E4177"/>
</linearGradient>
<linearGradient id="paint42_linear_103_600" x1="788.932" y1="2269.88" x2="1054.35" y2="2767.25" gradientUnits="userSpaceOnUse">
<stop stop-color="#EBEFF2"/>
<stop offset="0.99" stop-color="#B7C0CE"/>
</linearGradient>
<linearGradient id="paint43_linear_103_600" x1="362.666" y1="2457.16" x2="160.82" y2="2460.89" gradientUnits="userSpaceOnUse">
<stop stop-color="#444B8C"/>
<stop offset="1" stop-color="#3E4177"/>
</linearGradient>
<linearGradient id="paint44_linear_103_600" x1="28.7667" y1="2198.73" x2="256.273" y2="2625.07" gradientUnits="userSpaceOnUse">
<stop stop-color="#EBEFF2"/>
<stop offset="0.99" stop-color="#B7C0CE"/>
</linearGradient>
<linearGradient id="paint45_linear_103_600" x1="2296.98" y1="2521.04" x2="1989.84" y2="2526.73" gradientUnits="userSpaceOnUse">
<stop stop-color="#444B8C"/>
<stop offset="1" stop-color="#3E4177"/>
</linearGradient>
<linearGradient id="paint46_linear_103_600" x1="1823.31" y1="2185.74" x2="2124.68" y2="2750.49" gradientUnits="userSpaceOnUse">
<stop stop-color="#444B8C"/>
<stop offset="1" stop-color="#3E4177"/>
</linearGradient>
<linearGradient id="paint47_linear_103_600" x1="2098.05" y1="2527.99" x2="1939.79" y2="2530.92" gradientUnits="userSpaceOnUse">
<stop stop-color="#444B8C"/>
<stop offset="1" stop-color="#3E4177"/>
</linearGradient>
<linearGradient id="paint48_linear_103_600" x1="1083.06" y1="2974.12" x2="1443.02" y2="1805.93" gradientUnits="userSpaceOnUse">
<stop stop-color="#E38DDD"/>
<stop offset="1" stop-color="#9571F6"/>
</linearGradient>
<linearGradient id="paint49_linear_103_600" x1="1819.68" y1="2710.82" x2="1826.47" y2="1980.7" gradientUnits="userSpaceOnUse">
<stop stop-color="#E38DDD"/>
<stop offset="1" stop-color="#9571F6"/>
</linearGradient>
<linearGradient id="paint50_linear_103_600" x1="2123.48" y1="217.888" x2="2174.99" y2="-302.792" gradientUnits="userSpaceOnUse">
<stop stop-color="#E38DDD"/>
<stop offset="1" stop-color="#9571F6"/>
</linearGradient>
<linearGradient id="paint51_linear_103_600" x1="2136.3" y1="219.16" x2="2187.8" y2="-301.523" gradientUnits="userSpaceOnUse">
<stop stop-color="#E38DDD"/>
<stop offset="1" stop-color="#9571F6"/>
</linearGradient>
<linearGradient id="paint52_linear_103_600" x1="452.139" y1="2838.18" x2="452.139" y2="1950.54" gradientUnits="userSpaceOnUse">
<stop stop-color="#E38DDD"/>
<stop offset="1" stop-color="#9571F6"/>
</linearGradient>
<linearGradient id="paint53_linear_103_600" x1="724.088" y1="2736.73" x2="49.099" y2="2095.44" gradientUnits="userSpaceOnUse">
<stop stop-color="#E38DDD"/>
<stop offset="1" stop-color="#9571F6"/>
</linearGradient>
<linearGradient id="paint54_linear_103_600" x1="793.906" y1="1910.43" x2="1907.62" y2="1889.82" gradientUnits="userSpaceOnUse">
<stop stop-color="#444B8C"/>
<stop offset="1" stop-color="#3E4177"/>
</linearGradient>
<linearGradient id="paint55_linear_103_600" x1="952.058" y1="1901.88" x2="1909.87" y2="1901.88" gradientUnits="userSpaceOnUse">
<stop stop-color="#444B8C"/>
<stop offset="1" stop-color="#3E4177"/>
</linearGradient>
<linearGradient id="paint56_linear_103_600" x1="224.74" y1="1913.25" x2="593.506" y2="1906.43" gradientUnits="userSpaceOnUse">
<stop stop-color="#444B8C"/>
<stop offset="1" stop-color="#3E4177"/>
</linearGradient>
<linearGradient id="paint57_linear_103_600" x1="490.74" y1="1940.59" x2="857.008" y2="1933.82" gradientUnits="userSpaceOnUse">
<stop stop-color="#444B8C"/>
<stop offset="1" stop-color="#3E4177"/>
</linearGradient>
<linearGradient id="paint58_linear_103_600" x1="851.507" y1="2097.09" x2="833.724" y2="2080.19" gradientUnits="userSpaceOnUse">
<stop stop-color="#EBEFF2"/>
<stop offset="0.99" stop-color="#B7C0CE"/>
</linearGradient>
<linearGradient id="paint59_linear_103_600" x1="669.616" y1="2116.11" x2="509.912" y2="1964.39" gradientUnits="userSpaceOnUse">
<stop stop-color="#EBEFF2"/>
<stop offset="0.99" stop-color="#B7C0CE"/>
</linearGradient>
<linearGradient id="paint60_linear_103_600" x1="468.33" y1="2019.21" x2="308.931" y2="1867.77" gradientUnits="userSpaceOnUse">
<stop stop-color="#EBEFF2"/>
<stop offset="0.99" stop-color="#B7C0CE"/>
</linearGradient>
<linearGradient id="paint61_linear_103_600" x1="782.66" y1="2099.02" x2="554.154" y2="1881.92" gradientUnits="userSpaceOnUse">
<stop stop-color="#E38DDD"/>
<stop offset="1" stop-color="#9571F6"/>
</linearGradient>
<linearGradient id="paint62_linear_103_600" x1="907.002" y1="2203.37" x2="678.487" y2="1986.26" gradientUnits="userSpaceOnUse">
<stop stop-color="#E38DDD"/>
<stop offset="1" stop-color="#9571F6"/>
</linearGradient>
<linearGradient id="paint63_linear_103_600" x1="668.119" y1="1497.88" x2="1393.7" y2="1352.96" gradientUnits="userSpaceOnUse">
<stop offset="0.1" stop-color="#311944"/>
<stop offset="0.27" stop-color="#361B47"/>
<stop offset="0.48" stop-color="#462050"/>
<stop offset="0.72" stop-color="#602A5F"/>
<stop offset="0.97" stop-color="#843773"/>
<stop offset="1" stop-color="#893976"/>
</linearGradient>
<linearGradient id="paint64_linear_103_600" x1="585.749" y1="1830.39" x2="585.749" y2="927.55" gradientUnits="userSpaceOnUse">
<stop stop-color="#FCB148"/>
<stop offset="0.05" stop-color="#FDB946"/>
<stop offset="0.14" stop-color="#FEC144"/>
<stop offset="0.32" stop-color="#FFC444"/>
<stop offset="0.48" stop-color="#FDB946"/>
<stop offset="0.78" stop-color="#F99C4C"/>
<stop offset="0.87" stop-color="#F8924F"/>
<stop offset="1" stop-color="#F8924F"/>
</linearGradient>
<linearGradient id="paint65_linear_103_600" x1="509.132" y1="2695.06" x2="448.001" y2="2735.68" gradientUnits="userSpaceOnUse">
<stop stop-color="#444B8C"/>
<stop offset="1" stop-color="#26264F"/>
</linearGradient>
<linearGradient id="paint66_linear_103_600" x1="425.066" y1="2911.91" x2="452.122" y2="2720.61" gradientUnits="userSpaceOnUse">
<stop offset="0.1" stop-color="#311944"/>
<stop offset="0.27" stop-color="#361B47"/>
<stop offset="0.48" stop-color="#462050"/>
<stop offset="0.72" stop-color="#602A5F"/>
<stop offset="0.97" stop-color="#843773"/>
<stop offset="1" stop-color="#893976"/>
</linearGradient>
<linearGradient id="paint67_linear_103_600" x1="504.544" y1="2688.15" x2="443.414" y2="2728.77" gradientUnits="userSpaceOnUse">
<stop stop-color="#444B8C"/>
<stop offset="1" stop-color="#26264F"/>
</linearGradient>
<linearGradient id="paint68_linear_103_600" x1="897.378" y1="2725.52" x2="842.538" y2="2774.3" gradientUnits="userSpaceOnUse">
<stop stop-color="#444B8C"/>
<stop offset="1" stop-color="#26264F"/>
</linearGradient>
<linearGradient id="paint69_linear_103_600" x1="1054.88" y1="1511.91" x2="263.848" y2="3108.09" gradientUnits="userSpaceOnUse">
<stop offset="0.1" stop-color="#311944"/>
<stop offset="0.27" stop-color="#361B47"/>
<stop offset="0.48" stop-color="#462050"/>
<stop offset="0.72" stop-color="#602A5F"/>
<stop offset="0.97" stop-color="#843773"/>
<stop offset="1" stop-color="#893976"/>
</linearGradient>
<linearGradient id="paint70_linear_103_600" x1="727.879" y1="1830.39" x2="727.879" y2="927.549" gradientUnits="userSpaceOnUse">
<stop stop-color="#FCB148"/>
<stop offset="0.05" stop-color="#FDB946"/>
<stop offset="0.14" stop-color="#FEC144"/>
<stop offset="0.32" stop-color="#FFC444"/>
<stop offset="0.48" stop-color="#FDB946"/>
<stop offset="0.78" stop-color="#F99C4C"/>
<stop offset="0.87" stop-color="#F8924F"/>
<stop offset="1" stop-color="#F8924F"/>
</linearGradient>
<linearGradient id="paint71_linear_103_600" x1="891.859" y1="2719.33" x2="837.019" y2="2768.11" gradientUnits="userSpaceOnUse">
<stop stop-color="#444B8C"/>
<stop offset="1" stop-color="#26264F"/>
</linearGradient>
<linearGradient id="paint72_linear_103_600" x1="697.268" y1="1307.89" x2="697.268" y2="1029.71" gradientUnits="userSpaceOnUse">
<stop offset="0.1" stop-color="#311944"/>
<stop offset="0.27" stop-color="#361B47"/>
<stop offset="0.48" stop-color="#462050"/>
<stop offset="0.72" stop-color="#602A5F"/>
<stop offset="0.97" stop-color="#843773"/>
<stop offset="1" stop-color="#893976"/>
</linearGradient>
<linearGradient id="paint73_linear_103_600" x1="746.429" y1="1307.89" x2="746.429" y2="1029.71" gradientUnits="userSpaceOnUse">
<stop offset="0.1" stop-color="#311944"/>
<stop offset="0.27" stop-color="#361B47"/>
<stop offset="0.48" stop-color="#462050"/>
<stop offset="0.72" stop-color="#602A5F"/>
<stop offset="0.97" stop-color="#843773"/>
<stop offset="1" stop-color="#893976"/>
</linearGradient>
<linearGradient id="paint74_linear_103_600" x1="513.36" y1="1524.28" x2="566.6" y2="1524.28" gradientUnits="userSpaceOnUse">
<stop stop-color="#FF9085"/>
<stop offset="1" stop-color="#FB6FBB"/>
</linearGradient>
<linearGradient id="paint75_linear_103_600" x1="549.02" y1="1594.71" x2="963.369" y2="1594.71" gradientUnits="userSpaceOnUse">
<stop stop-color="#FCB148"/>
<stop offset="0.05" stop-color="#FDB946"/>
<stop offset="0.14" stop-color="#FEC144"/>
<stop offset="0.32" stop-color="#FFC444"/>
<stop offset="0.48" stop-color="#FDB946"/>
<stop offset="0.78" stop-color="#F99C4C"/>
<stop offset="0.87" stop-color="#F8924F"/>
<stop offset="1" stop-color="#F8924F"/>
</linearGradient>
<linearGradient id="paint76_linear_103_600" x1="1023.64" y1="1830.39" x2="1023.64" y2="927.551" gradientUnits="userSpaceOnUse">
<stop stop-color="#FCB148"/>
<stop offset="0.05" stop-color="#FDB946"/>
<stop offset="0.14" stop-color="#FEC144"/>
<stop offset="0.32" stop-color="#FFC444"/>
<stop offset="0.48" stop-color="#FDB946"/>
<stop offset="0.78" stop-color="#F99C4C"/>
<stop offset="0.87" stop-color="#F8924F"/>
<stop offset="1" stop-color="#F8924F"/>
</linearGradient>
<linearGradient id="paint77_linear_103_600" x1="780.849" y1="1482.42" x2="942.889" y2="1482.42" gradientUnits="userSpaceOnUse">
<stop stop-color="#FF9085"/>
<stop offset="1" stop-color="#FB6FBB"/>
</linearGradient>
<linearGradient id="paint78_linear_103_600" x1="1325.83" y1="1345.11" x2="1370.71" y2="1390.79" gradientUnits="userSpaceOnUse">
<stop stop-color="#FFC444"/>
<stop offset="1" stop-color="#F36F56"/>
</linearGradient>
<clipPath id="clip0_103_600">
<rect width="2746.69" height="2850.53" fill="white"/>
</clipPath>
</defs>
</svg>
