<svg width="720" height="656" viewBox="0 0 720 656" fill="none" xmlns="http://www.w3.org/2000/svg">
<g clip-path="url(#clip0_103_600)">
<path d="M371.203 41.6095C186.886 36.8319 27.2286 154.243 3.10707 308.306C-23.2662 476.749 121.89 628.31 300.498 652.584C522.656 682.777 738.135 508.104 718.787 318.611C704.21 175.844 558.563 46.4676 371.203 41.6095Z" fill="#F4F7FA"/>
<g opacity="0.4">
<path d="M351.711 70.1621L355.392 86.0919C347.502 88.8949 339.978 92.2434 332.911 96.1326L320.688 83.9908C317.354 80.6792 311.581 80.403 307.796 83.3763L284.094 101.987C280.301 104.967 279.921 110.076 283.253 113.402L295.583 125.712C290.375 131.545 285.727 137.766 281.714 144.306L263.962 139.133C259.176 137.738 253.972 140.06 252.342 144.32L242.113 171.011C240.475 175.287 243.033 179.894 247.83 181.298L265.642 186.515C264.384 193.805 263.857 201.262 264.049 208.803L245.487 212.251C240.504 213.176 237.259 217.516 238.236 221.948L244.376 249.721C245.359 254.172 250.208 257.028 255.207 256.1L273.824 252.641C276.896 259.702 280.597 266.435 284.912 272.769L270.668 284.047C266.827 287.09 266.439 292.318 269.805 295.731L290.894 317.106C294.273 320.53 300.131 320.832 303.977 317.776L318.219 306.465C324.827 311.166 331.891 315.341 339.323 318.954L333.289 335.088C331.656 339.456 334.274 344.172 339.139 345.617L369.607 354.668C374.486 356.118 379.757 353.741 381.38 349.361L387.317 333.351C395.661 334.463 404.193 334.893 412.823 334.674L416.637 351.184C417.68 355.704 422.613 358.61 427.657 357.674L459.181 351.819C464.222 350.883 467.449 346.459 466.39 341.944L462.552 325.575C470.621 322.733 478.301 319.311 485.51 315.336L497.911 327.717C501.356 331.156 507.251 331.457 511.076 328.392L534.98 309.242C538.796 306.184 539.095 300.928 535.648 297.501L523.286 285.223C528.586 279.215 533.273 272.799 537.305 266.065L554.802 271.188C559.691 272.619 564.931 270.258 566.501 265.913L576.305 238.801C577.87 234.472 575.18 229.814 570.302 228.392L552.972 223.343C554.147 215.88 554.548 208.258 554.207 200.562L572.011 197.255C577.01 196.328 580.182 191.978 579.099 187.548L572.336 159.893C571.256 155.479 566.341 152.655 561.361 153.581L543.609 156.878C540.364 149.774 536.487 143.015 531.983 136.684L545.397 126.029C549.169 123.033 549.46 117.899 546.05 114.559L524.759 93.7231C521.362 90.3977 515.553 90.1215 511.786 93.104L498.286 103.794C491.591 99.1841 484.459 95.097 476.967 91.5921L482.61 76.3711C484.181 72.1367 481.554 67.5846 476.744 66.2015L446.701 57.5739C441.901 56.1954 436.732 58.5036 435.151 62.7288L429.445 77.9843C421.187 76.9648 412.754 76.6012 404.23 76.8843L400.526 61.0903C399.506 56.7454 394.675 53.9677 389.734 54.8836L358.834 60.6231C353.892 61.5414 350.7 65.808 351.706 70.1575L351.711 70.1621ZM299.091 224.998C286.922 171.248 326.004 118.831 386.318 107.628C446.63 96.4249 505.867 130.581 518.696 184.209C531.603 238.161 492.692 291.32 431.717 302.644C370.742 313.969 311.332 279.074 299.091 224.998Z" fill="url(#paint0_linear_103_600)"/>
</g>
<path d="M100.135 258.33L102.444 268.331C97.4926 270.092 92.769 272.193 88.3311 274.635L80.6584 267.013C78.564 264.932 74.9413 264.76 72.5663 266.626L57.6876 278.31C55.3048 280.181 55.0689 283.389 57.1581 285.476L64.8989 293.204C61.6275 296.868 58.7126 300.771 56.1935 304.879L45.0502 301.632C42.0461 300.757 38.7799 302.214 37.755 304.888L31.3353 321.642C30.3078 324.325 31.912 327.218 34.9239 328.099L46.1066 331.374C45.3175 335.951 44.9873 340.63 45.1052 345.366L33.4534 347.529C30.3261 348.109 28.2867 350.836 28.9027 353.616L32.7561 371.051C33.3747 373.845 36.4181 375.638 39.5558 375.055L51.2418 372.885C53.1711 377.318 55.4936 381.545 58.204 385.52L49.2626 392.601C46.851 394.511 46.6099 397.793 48.7227 399.935L61.9604 413.352C64.0811 415.501 67.7588 415.69 70.1731 413.773L79.1144 406.671C83.264 409.621 87.6993 412.243 92.3627 414.512L88.5748 424.64C87.5499 427.383 89.1935 430.342 92.2473 431.249L111.373 436.931C114.434 437.84 117.745 436.349 118.762 433.599L122.49 423.549C127.727 424.246 133.085 424.518 138.501 424.38L140.894 434.743C141.549 437.58 144.648 439.405 147.812 438.816L167.603 435.141C170.767 434.554 172.793 431.776 172.127 428.941L169.718 418.666C174.783 416.882 179.603 414.733 184.13 412.238L191.916 420.012C194.078 422.17 197.777 422.359 200.181 420.435L215.185 408.413C217.581 406.494 217.77 403.194 215.605 401.044L207.846 393.337C211.172 389.565 214.113 385.538 216.645 381.31L227.629 384.528C230.698 385.428 233.988 383.943 234.974 381.216L241.129 364.198C242.112 361.48 240.424 358.557 237.359 357.664L226.481 354.495C227.22 349.81 227.469 345.025 227.257 340.195L238.434 338.119C241.572 337.537 243.564 334.808 242.882 332.025L238.636 314.664C237.96 311.893 234.874 310.121 231.744 310.701L220.601 312.77C218.564 308.31 216.129 304.066 213.303 300.092L221.723 293.404C224.09 291.524 224.274 288.3 222.132 286.204L208.768 273.125C206.635 271.038 202.991 270.863 200.624 272.736L192.149 279.447C187.947 276.554 183.47 273.988 178.767 271.786L182.311 262.231C183.297 259.573 181.648 256.714 178.628 255.847L159.768 250.429C156.756 249.564 153.511 251.012 152.517 253.665L148.936 263.243C143.754 262.603 138.459 262.376 133.109 262.553L130.784 252.639C130.144 249.912 127.111 248.167 124.01 248.743L104.612 252.346C101.511 252.922 99.5058 255.603 100.138 258.332L100.135 258.33ZM65.7718 355.768C57.9865 321.377 82.994 287.835 121.585 280.669C160.177 273.5 198.079 295.356 206.286 329.669C214.543 364.191 189.648 398.204 150.632 405.449C111.616 412.696 73.6044 390.368 65.7718 355.768Z" fill="#D8DEE8"/>
<g style="mix-blend-mode:soft-light" opacity="0.7">
<path d="M358.308 477.492C352.792 478.263 340.021 475.672 337.009 473.792C316.964 461.277 277.704 439.988 271.837 417.748C270.836 413.951 288.677 405.569 290.192 401.454C300.09 393.687 304.072 391.533 309.351 380.091C324.935 346.312 251.205 309.514 310.864 274.453C354.562 248.771 400.105 252.819 372.916 188.549C345.728 124.28 364.879 -10.5959 459.145 14.7647C513.244 29.3206 485.988 96.998 523.095 132.125C558.357 165.506 550.276 202.581 510.827 238.286C471.382 273.991 502.712 285.495 528.93 319.101C560.426 359.469 484.86 387.605 448.712 397.982C419.602 406.338 351.901 444.855 358.308 477.495V477.492Z" fill="url(#paint1_linear_103_600)"/>
<mask id="mask0_103_600" style="mask-type:luminance" maskUnits="userSpaceOnUse" x="271" y="11" width="275" height="467">
<path d="M358.308 477.492C352.792 478.263 340.021 475.672 337.009 473.792C316.964 461.277 277.704 439.988 271.837 417.748C270.836 413.951 288.677 405.569 290.192 401.454C300.09 393.687 304.072 391.533 309.351 380.091C324.935 346.312 251.205 309.514 310.864 274.453C354.562 248.771 400.105 252.819 372.916 188.549C345.728 124.28 364.879 -10.5959 459.145 14.7647C513.244 29.3206 485.988 96.998 523.095 132.125C558.357 165.506 550.276 202.581 510.827 238.286C471.382 273.991 502.712 285.495 528.93 319.101C560.426 359.469 484.86 387.605 448.712 397.982C419.602 406.338 351.901 444.855 358.308 477.495V477.492Z" fill="white"/>
</mask>
<g mask="url(#mask0_103_600)">
<path d="M305.717 447.484L304.918 446.713C440.001 338.454 487.282 171.566 431.395 0.287666L432.538 0C459.024 81.1747 462.355 164.543 442.174 241.094C420.957 321.574 373.773 392.942 305.72 447.481L305.717 447.484Z" fill="#FCFDFE"/>
<path d="M544.217 334.562C494.213 333.218 417.827 352.579 373.94 377.723L373.293 376.851C417.352 351.608 494.045 332.171 544.254 333.519L544.217 334.562Z" fill="#FCFDFE"/>
<path d="M331.962 425.964L330.95 425.419C345.189 405.032 347.144 379.109 336.756 348.368C329.138 325.827 315.188 301.272 295.289 275.377L296.275 274.795C316.241 300.777 330.245 325.429 337.896 348.071C348.384 379.107 346.387 405.315 331.964 425.964H331.962Z" fill="#FCFDFE"/>
<path d="M444.56 230.133C444.56 230.133 444.478 228.107 444.971 227.353C469.971 189.169 517.076 168.397 552.54 157.652L552.928 158.64C516.964 169.539 468.97 190.787 444.562 230.135L444.56 230.133Z" fill="#FCFDFE"/>
<path d="M454.456 127.655C442.151 77.9643 395.491 43.136 369.008 26.9186L369.687 26.0625C395.879 42.1027 441.32 76.0611 454.592 124.792C454.812 125.599 454.456 127.655 454.456 127.655Z" fill="#FCFDFE"/>
</g>
</g>
<g style="mix-blend-mode:soft-light">
<path d="M347.381 506.717C341.669 505.591 330.377 498.724 328.274 495.866C314.279 476.859 285.442 442.77 289.544 419.117C290.244 415.078 311.319 412.986 314.609 409.495C327.677 405.299 332.505 404.554 342.697 395.208C372.782 367.615 317.225 306.697 390.798 292.847C444.69 282.703 487.256 302.138 489.146 230.302C491.036 158.464 569.222 33.633 649.826 90.3998C696.085 122.977 639.668 179.613 660.301 226.445C679.906 270.948 655.671 304.303 601.496 325.655C547.324 347.005 572.756 368.869 583.454 410.517C596.306 460.543 510.3 462.234 470.519 460.041C438.483 458.276 355.549 472.754 347.381 506.717Z" fill="#D8DEE8"/>
<mask id="mask1_103_600" style="mask-type:luminance" maskUnits="userSpaceOnUse" x="289" y="76" width="380" height="431">
<path d="M347.381 506.717C341.669 505.591 330.377 498.724 328.274 495.866C314.279 476.859 285.442 442.77 289.544 419.117C290.244 415.078 311.319 412.986 314.609 409.495C327.677 405.299 332.505 404.554 342.697 395.208C372.782 367.615 317.225 306.697 390.798 292.847C444.69 282.703 487.256 302.138 489.146 230.302C491.036 158.464 569.222 33.633 649.826 90.3998C696.085 122.977 639.668 179.613 660.301 226.445C679.906 270.948 655.671 304.303 601.496 325.655C547.324 347.005 572.756 368.869 583.454 410.517C596.306 460.543 510.3 462.234 470.519 460.041C438.483 458.276 355.549 472.754 347.381 506.717Z" fill="white"/>
</mask>
<g mask="url(#mask1_103_600)">
<path d="M309.413 459.601L308.973 458.579C488.304 399.106 608.012 252.67 629.19 66.8613L630.43 66.9695C620.393 155.03 586.84 237.35 533.396 305.035C477.21 376.192 399.76 429.64 309.413 459.601Z" fill="#FCFDFE"/>
<path d="M591.509 430.77C543.408 412.449 460.474 405.319 406.637 414.874C406.637 414.874 408.257 413.48 409.203 413.323C463.292 404.461 544.535 411.689 592.005 429.766L591.509 430.77Z" fill="#FCFDFE"/>
<path d="M343.72 446.698C366.586 431.688 379.931 407.108 383.384 373.637C385.916 349.096 383.169 320.435 375.218 288.449L376.434 288.217C384.411 320.311 387.166 349.082 384.621 373.736C381.433 404.645 369.855 428.068 350.176 443.473C348.342 444.91 343.715 446.698 343.715 446.698H343.72Z" fill="#FCFDFE"/>
<path d="M540.559 295.169C540.559 295.169 541.649 292.971 542.603 292.313C583.758 263.896 638.56 259.726 677.704 261.321L677.647 262.414C637.813 260.791 581.695 265.159 540.559 295.171V295.169Z" fill="#FCFDFE"/>
<path d="M595.436 198.543C605.387 145.967 575.312 96.3754 556.68 71.5717L557.718 70.9688C576.104 95.4434 605.277 143.81 596.881 195.65C596.721 196.628 595.436 198.543 595.436 198.543Z" fill="#FCFDFE"/>
</g>
</g>
<path d="M224.572 126.701C224.671 165.969 200.896 198.013 158.556 199.067C157.901 199.083 147.096 199.067 146.438 199.067C103.185 199.159 68.0412 166.91 67.9416 127.035C67.842 87.1601 102.824 54.762 146.076 54.6699C147.088 54.6699 156.582 54.7505 157.583 54.7827C199.438 56.1566 224.475 87.7584 224.572 126.701Z" fill="url(#paint2_linear_103_600)"/>
<path d="M160.897 199.715C204.149 199.715 239.212 167.391 239.212 127.516C239.212 87.6412 204.149 55.3164 160.897 55.3164C117.645 55.3164 82.582 87.6412 82.582 127.516C82.582 167.391 117.645 199.715 160.897 199.715Z" fill="url(#paint3_linear_103_600)"/>
<path style="mix-blend-mode:multiply" opacity="0.3" d="M160.896 197.895C203.058 197.895 237.237 166.385 237.237 127.516C237.237 88.6465 203.058 57.1367 160.896 57.1367C118.734 57.1367 84.5547 88.6465 84.5547 127.516C84.5547 166.385 118.734 197.895 160.896 197.895Z" fill="url(#paint4_linear_103_600)"/>
<path d="M160.896 195.772C201.786 195.772 234.933 165.213 234.933 127.517C234.933 89.8205 201.786 59.2617 160.896 59.2617C120.007 59.2617 86.8594 89.8205 86.8594 127.517C86.8594 165.213 120.007 195.772 160.896 195.772Z" fill="url(#paint5_linear_103_600)"/>
<path d="M159.313 194.313C199.328 194.313 231.767 164.407 231.767 127.517C231.767 90.6263 199.328 60.7207 159.313 60.7207C119.298 60.7207 86.8594 90.6263 86.8594 127.517C86.8594 164.407 119.298 194.313 159.313 194.313Z" fill="url(#paint6_linear_103_600)"/>
<path d="M166.965 125.601L222.157 144.392C223.953 139.083 224.923 133.438 224.923 127.585C224.923 97.4425 199.252 72.8275 166.965 71.3086V125.604V125.601Z" fill="url(#paint7_linear_103_600)"/>
<g style="mix-blend-mode:multiply" opacity="0.2">
<path d="M141.121 126C135.39 109.708 156.107 97.9509 152.841 78.9604C151.399 70.5813 145.792 63.7164 138.893 58.207C106.283 66.9889 82.4971 94.7912 82.5783 127.682C82.6779 167.557 117.822 199.805 161.074 199.713C171.68 199.69 181.785 197.723 190.999 194.181C189.665 171.138 181.612 158.119 173.051 150.279C159.855 138.192 145.488 138.424 141.118 126.002L141.121 126Z" fill="#D8DEE8"/>
</g>
<path d="M159.114 132.806C161.657 132.806 163.719 130.905 163.719 128.56C163.719 126.215 161.657 124.314 159.114 124.314C156.57 124.314 154.508 126.215 154.508 128.56C154.508 130.905 156.57 132.806 159.114 132.806Z" fill="url(#paint8_linear_103_600)"/>
<path d="M159.112 94.7168C157.505 94.7168 156.199 95.9181 156.199 97.4001V126.029C156.199 127.511 157.502 128.712 159.112 128.712C160.721 128.712 162.024 127.511 162.024 126.029V97.4001C162.024 95.9181 160.721 94.7168 159.112 94.7168Z" fill="url(#paint9_linear_103_600)"/>
<path d="M158.793 129.194C158.167 128.549 157.09 128.494 156.39 129.072L117.188 162.142C116.488 162.719 116.427 163.711 117.057 164.358C117.683 165.002 118.76 165.057 119.46 164.48L158.662 131.41C159.362 130.832 159.423 129.84 158.793 129.194Z" fill="url(#paint10_linear_103_600)"/>
<path d="M523.677 602.479C523.677 602.479 525.538 609.103 525.596 611.501C525.656 613.901 495.579 617.245 495.113 615.477C494.643 613.71 499.679 610.493 503.315 609.227C506.951 607.961 517.612 604.514 517.612 604.514L523.677 602.479Z" fill="url(#paint11_linear_103_600)"/>
<path d="M515.738 596.306L517.463 604.581C517.463 604.581 521.157 606.369 524.1 604.581L524.819 595.39L515.738 596.303V596.306Z" fill="url(#paint12_linear_103_600)"/>
<path d="M578.53 609.568C578.53 609.568 580.391 616.192 580.452 618.59C580.512 620.99 550.435 624.334 549.968 622.566C549.499 620.799 554.534 617.582 558.17 616.316C561.806 615.05 572.467 611.603 572.467 611.603L578.533 609.568H578.53Z" fill="url(#paint13_linear_103_600)"/>
<path d="M570.592 603.393L572.317 611.669C572.317 611.669 576.008 613.457 578.955 611.669L579.67 602.478L570.59 603.391L570.592 603.393Z" fill="url(#paint14_linear_103_600)"/>
<path d="M501.335 378.093C498.412 384.548 495.489 391.006 492.566 397.461C492.996 433.099 495.117 471.736 499.775 512.889C503.24 543.506 507.76 572.422 512.929 599.499C517.642 598.977 522.355 598.452 527.068 597.93C532.822 585.528 539.25 566.901 537.957 544.557C536.61 521.249 528.298 518.727 526.775 496.427C524.801 467.525 537.881 458.856 542.057 423.63C543.654 410.158 543.963 392.688 539.795 371.811C526.974 373.905 514.153 375.999 501.332 378.091L501.335 378.093Z" fill="url(#paint15_linear_103_600)"/>
<path style="mix-blend-mode:multiply" opacity="0.3" d="M539.8 371.811C532.877 372.941 525.951 374.071 519.028 375.203C508.213 395.289 506.527 415.523 509.539 424.208C513.801 436.497 522.42 439.921 523.115 452.512C523.799 464.969 515.754 468.778 511.801 483.796C509.064 494.193 510.881 503.449 514.63 521.536C522.176 557.968 533.304 568.487 525.941 581.124C523.849 584.714 519.888 589.093 511.686 592.801C512.1 595.038 512.509 597.284 512.934 599.495C517.647 598.973 522.36 598.448 527.073 597.926C532.827 585.524 539.254 566.897 537.962 544.553C536.615 521.246 528.302 518.723 526.779 496.423C524.806 467.521 537.886 458.854 542.062 423.626C543.658 410.154 543.968 392.684 539.8 371.807V371.811Z" fill="url(#paint16_linear_103_600)"/>
<path d="M521.129 387.953C530.54 418.848 539.389 452.001 547.151 487.274C556.522 529.862 563.131 570.172 567.707 607.704C572.911 607.47 578.117 607.233 583.32 606.996C600.537 570.018 599.588 545.838 595.208 530.359C593.52 524.394 589.349 512.759 587.027 495.094C585.409 482.779 585.449 473.321 585.538 461.945C585.734 437.003 588.222 431.388 586.922 412.411C585.703 394.604 584.964 385.601 578.704 380.757C562.21 367.994 524.023 386.517 521.129 387.953Z" fill="url(#paint17_linear_103_600)"/>
<path d="M370.025 316.177C370.025 316.177 358.591 315.316 356.937 313.689C355.283 312.062 354.213 311.977 353.964 310.486C353.715 308.994 348.903 309.712 350.905 312.948C352.908 316.184 348.389 314.488 347.503 314.409C345.463 314.23 337.686 314.03 337.911 314.453C338.137 314.877 334.425 319.129 339.948 321.327C344.784 323.251 343.366 322.402 346.512 322.535C349.655 322.667 359.39 319.88 359.39 319.88L367.726 320.437L370.028 316.181L370.025 316.177Z" fill="url(#paint18_linear_103_600)"/>
<path d="M363.322 311.487C362.819 314.833 362.316 318.179 361.812 321.525C369.386 327.071 386.128 337.701 409.421 339.296C450.484 342.108 491.207 315.426 498.79 285.417C502.544 270.555 499.477 249.703 488.958 246.35C486.038 245.418 481.65 245.551 472.606 250.886C448.466 265.122 446.414 283.818 433.079 296.463C423.482 305.565 404.611 314.784 363.325 311.487H363.322Z" fill="white"/>
<path d="M489.176 404.099C483.54 397.201 489.15 389.773 489.32 375.942C489.512 360.265 482.447 358.155 473.341 332.84C467.285 316.004 461.468 299.842 464.855 280.204C466.478 270.794 469.23 254.832 483.309 246.225C490.576 241.784 501.017 241.443 521.607 240.941C547.068 240.322 559.797 240.012 569.648 243.717C571.09 244.26 601.107 255.971 605.128 278.218C609.223 300.861 581.237 305.912 580.241 336.564C579.793 350.323 584.726 371.091 587.924 384.56C590.997 397.494 592.593 400.748 590.016 404.911C583.809 414.942 561.889 413.75 518.05 411.366C500.854 410.43 493.381 409.247 489.176 404.099Z" fill="white"/>
<path d="M549.13 333.833C551.503 339.625 558.499 343.586 564.402 357.667C565.676 360.707 574.754 382.361 566.098 388.457C561.099 391.978 555.81 386.346 542.907 386.468C520.553 386.682 511.457 403.832 496.525 400.373C493.935 399.772 490.457 398.35 486.787 394.774C486.438 398.251 486.824 401.225 489.17 404.097C493.377 409.245 500.848 410.428 518.044 411.364C561.883 413.748 583.803 414.943 590.01 404.909C592.587 400.746 590.988 397.492 587.918 384.558C584.72 371.089 579.79 350.322 580.235 336.562C581.231 305.911 609.217 300.859 605.122 278.216C604.026 272.164 600.98 266.919 597.138 262.438C562.444 277.699 541.667 315.627 549.128 333.833H549.13Z" fill="#F4F7FA"/>
<path d="M619.626 403.845C619.626 403.845 626.607 405.902 627.346 416.054C626.208 415.964 623.548 416.017 623.548 416.017C623.548 416.017 624.04 408.636 619.07 407.141C619.471 406.284 619.623 403.843 619.623 403.843L619.626 403.845Z" fill="url(#paint19_linear_103_600)"/>
<path d="M593.727 402.876C593.905 404.745 594.08 406.616 594.259 408.484C597.771 407.688 601.604 406.765 605.714 406.639C611.04 406.475 615.906 407.051 620.223 407.997C620.414 407.764 620.821 407.21 621.009 406.296C621.311 404.825 620.805 403.594 620.713 403.376C618.517 402.664 616.128 402.061 613.565 401.636C606.194 400.411 599.501 401.426 593.727 402.876Z" fill="url(#paint20_linear_103_600)"/>
<path d="M593.399 404.489C593.409 403.815 593.467 402.97 593.729 402.876C593.975 402.786 594.308 403.401 594.45 403.744C594.51 403.886 594.641 404.229 594.722 405.32C594.827 406.726 594.704 407.412 594.591 407.838C594.523 408.093 594.418 408.48 594.261 408.487C594.135 408.494 594.025 408.247 593.86 407.771C593.64 407.131 593.372 406.063 593.396 404.492L593.399 404.489Z" fill="url(#paint21_linear_103_600)"/>
<path d="M586.898 416.231C588.379 416.487 591.973 417.244 591.973 417.244C591.973 417.244 589.63 410.653 594.044 407.675C594.16 407.18 594.275 406.395 594.136 405.447C594.029 404.715 593.803 404.126 593.609 403.719C591.735 404.619 587.651 407.682 586.898 416.229V416.231Z" fill="url(#paint22_linear_103_600)"/>
<path d="M555.938 417.692C555.938 417.692 556.124 414.205 562.415 414.267C563.403 414.912 563.453 417.759 563.453 417.759L555.938 417.692Z" fill="url(#paint23_linear_103_600)"/>
<path d="M550.324 486.347L567.551 495.269L577.895 461.573L560.814 416.477L555.936 417.692L548.504 482.798C548.337 484.276 549.063 485.694 550.326 486.347H550.324Z" fill="url(#paint24_linear_103_600)"/>
<path style="mix-blend-mode:multiply" opacity="0.3" d="M577.896 461.573L560.816 416.477L555.938 417.692C557.141 421.696 557.717 428.202 557.987 431.824C559.141 447.225 562.965 451.5 561.112 462.238C559.571 471.177 556.2 472.42 556.496 478.431C556.818 484.976 561.151 490.395 566.287 494.616L567.55 495.272L577.894 461.576L577.896 461.573Z" fill="url(#paint25_linear_103_600)"/>
<path d="M560.812 416.477L652.436 417.317L666.361 486.598L567.549 495.269L560.812 416.477Z" fill="url(#paint26_linear_103_600)"/>
<g style="mix-blend-mode:multiply" opacity="0.2">
<path d="M652.437 417.317L622.195 417.038C621.631 418.472 620.772 420.456 619.513 422.699C605.762 447.236 573.8 450.403 574.382 454.494C575.255 460.604 645.454 451.754 647.202 459.949C648.046 463.902 633.522 473.039 618.187 476.626C599.62 480.971 585.826 475.892 576.584 485.374C573.441 488.598 572.051 492.347 571.375 494.878L666.362 486.596L652.437 417.317Z" fill="url(#paint27_linear_103_600)"/>
</g>
<path d="M562.414 414.267C561.349 414.256 559.863 414.125 558.24 414.946C557.894 415.121 557.588 415.317 557.32 415.512L558.067 415.287C559.268 414.988 560.922 415.416 561.538 416.481C562.296 417.791 562.568 420.803 562.733 422.297C563.205 426.543 566.097 452.934 566.097 452.934C566.314 455.157 568.225 456.833 570.479 456.782L655.353 452.531C655.98 452.518 656.598 452.338 657.115 451.977C658.192 451.222 658.677 449.919 658.428 448.681L654.252 418.186C653.898 416.431 652.38 415.156 650.619 415.14L562.411 414.265L562.414 414.267Z" fill="url(#paint28_linear_103_600)"/>
<path d="M563.352 414.277C562.29 414.265 561.027 414.125 559.619 414.445C559.239 414.53 558.631 414.689 558.363 414.887C558.363 414.887 561.349 414.288 562.476 416.491C563.166 417.835 563.506 420.813 563.671 422.306C564.143 426.552 567.032 452.934 567.032 452.934C567.25 455.158 569.158 456.833 571.412 456.78L657.164 454.799C657.791 454.785 658.407 454.605 658.923 454.242C659.998 453.487 660.485 452.184 660.234 450.946L655.133 418.196C654.779 416.44 653.264 415.167 651.502 415.149L563.349 414.275L563.352 414.277Z" fill="url(#paint29_linear_103_600)"/>
<path style="mix-blend-mode:multiply" opacity="0.1" d="M660.24 450.948L655.139 418.198C654.785 416.442 653.27 415.17 651.508 415.151L563.356 414.277C562.294 414.265 561.03 414.125 559.623 414.445C559.243 414.53 558.635 414.689 558.367 414.887C558.367 414.887 561.353 414.288 562.48 416.491C562.588 416.702 562.687 416.958 562.779 417.239C571.379 417.616 579.933 417.476 588.437 418.039C605.108 419.117 621.78 419.259 637.172 425.291C642.064 427.208 645.406 433.992 644.085 437.115C643.131 439.368 639.87 439.184 638.732 442.146C637.532 445.264 640.407 447.379 639.201 449.568C637.938 451.864 634.092 450.778 627.846 452.435C624.393 453.351 621.741 454.697 620.079 455.657L657.168 454.801C657.794 454.787 658.41 454.608 658.927 454.244C660.002 453.489 660.489 452.187 660.238 450.948H660.24Z" fill="url(#paint30_linear_103_600)"/>
<path d="M619.899 461.105L609.16 463.48L608.022 463.57C606.874 463.662 605.886 462.783 605.836 461.616L605.361 450.593C605.312 449.426 606.221 448.459 607.372 448.441L608.517 448.425L619.317 449.635C620.345 449.619 621.21 449.129 621.257 450.218L621.697 460.5C621.745 461.588 620.927 461.025 619.902 461.105H619.899Z" fill="url(#paint31_linear_103_600)"/>
<path d="M620.711 462.619L608.815 463.562C607.667 463.655 606.679 462.775 606.629 461.609L606.154 450.588C606.104 449.421 607.014 448.454 608.165 448.436L620.095 448.261C621.122 448.245 621.992 449.124 622.04 450.21L622.48 460.49C622.527 461.576 621.733 462.534 620.711 462.614V462.619Z" fill="url(#paint32_linear_103_600)"/>
<path d="M606.331 388.815C606.331 388.815 605.332 394.631 604.331 395.181C603.332 395.729 600.205 398.803 600.832 400.778C601.455 402.752 599.08 407.261 603.518 408.354C607.956 409.447 613.057 410.616 613.569 407.122C614.08 403.629 612.829 399.68 612.955 396.716C613.081 393.752 614.829 390.79 614.829 390.79L606.328 388.815H606.331Z" fill="url(#paint33_linear_103_600)"/>
<path d="M564.402 241.966C558.47 267.354 563.589 283.809 569.775 294.355C582.298 315.707 603.821 320.745 607.405 339.685C609.989 353.345 611.114 380.287 603.517 389.025C610.364 391.423 611.08 391.29 616.246 391.29C623.172 387.817 637.93 364.645 644.153 335.075C651.703 299.207 620.116 256.851 564.399 241.968L564.402 241.966Z" fill="white"/>
<path d="M545.932 241.699C542.993 240.645 528.731 238.098 525.567 232.669C522.067 226.663 520.882 218.398 520.882 218.398C520.882 218.398 511.042 220.693 512.481 225.157C513.923 229.62 511.469 239.851 505.82 242.137C501.865 243.736 496.965 244.378 495.904 245.448C495.788 245.464 495.715 245.478 495.689 245.492C494.873 245.938 497.408 249.37 507.577 254.345C542.66 249.708 546.354 244.433 546.506 242.62C546.661 242.224 546.496 241.902 545.929 241.699H545.932Z" fill="url(#paint34_linear_103_600)"/>
<path d="M507.711 216.299C503.147 212.946 502.518 212.562 501.941 211.333C499.629 206.399 503.469 199.152 509.181 197.032C509.477 196.922 513.312 195.539 514.951 196.933C516.343 198.116 514.626 200.005 515.742 202.397C516.788 204.633 519.072 204.647 523.549 207.363C527.237 209.6 529.528 210.99 530.223 213.123C531.654 217.523 526.081 224.436 520.608 224.643C518.639 224.717 518.026 223.875 507.711 216.301V216.299Z" fill="url(#paint35_linear_103_600)"/>
<path d="M520.137 225.369C520.137 225.369 516.048 230.156 509.062 229.159C502.807 228.269 503.245 215.798 507.552 213.508C508.988 212.744 511.714 212.608 513.84 213.329C515.096 213.754 515.481 214.263 517.547 214.926C519.453 215.536 520.027 215.393 520.569 215.878C521.248 216.486 521.641 217.869 520.011 221.388C521.33 220.421 522.816 220.134 523.791 220.642C523.946 220.723 524.352 221.02 524.551 221.429C525.275 222.921 523.605 224.603 520.137 225.369Z" fill="url(#paint36_linear_103_600)"/>
<path d="M517.188 253.297C517.188 253.297 515.206 262.59 512.105 262.772C509.006 262.954 506.734 263.315 506.734 263.315L503.266 251.951C503.266 251.951 507.785 255.182 517.188 253.297Z" fill="url(#paint37_linear_103_600)"/>
<path d="M513.577 261.996C513.577 261.996 520.474 329.977 544.648 340.86C544.029 343.037 544.648 360.723 544.648 360.723C544.648 360.723 522.112 354.767 520.828 355.161C519.543 355.554 493.537 317.709 506.733 263.317L513.574 261.998L513.577 261.996Z" fill="url(#paint38_linear_103_600)"/>
<path d="M219.82 602.109L229.362 600.385L274.407 549.625C274.407 549.625 249.633 541.98 248.731 542.242C247.829 542.507 226.809 553.316 225.757 554.37C224.706 555.424 211.492 578.23 211.492 579.945C211.492 581.659 219.818 602.111 219.818 602.111L219.82 602.109Z" fill="url(#paint39_linear_103_600)"/>
<path d="M20.6628 561.748H25.4913L62.5413 528.4C62.5413 528.4 48.9155 524.545 47.7884 524.641C46.6612 524.738 29.5439 530.386 29.5439 530.386C29.5439 530.386 21.7742 546.886 21.4361 547.876C21.0979 548.865 20.6602 561.746 20.6602 561.746L20.6628 561.748Z" fill="url(#paint40_linear_103_600)"/>
<path d="M286.651 552.677C286.651 552.677 286.67 552.677 286.678 552.677C289.029 552.845 291.317 553.613 293.482 554.736C295.559 555.62 298.185 556.656 298.214 558.034V558.064C305.666 565.18 311.672 578.458 312.018 593.431C312.479 613.369 303.52 629.637 291.37 631.695L291.364 631.706C290.544 631.824 280.386 635.237 248.136 632.56C247.027 620.439 245.066 551.744 245.066 551.744C245.066 551.744 270.758 550.159 286.651 552.672V552.677Z" fill="url(#paint41_linear_103_600)"/>
<path d="M223.186 591.049C223.669 613.855 236.094 632.56 250.679 632.8C264.983 633.034 275.983 615.351 275.492 593.33C275.002 571.329 263.214 552.707 248.917 551.696C234.343 550.665 222.706 568.268 223.186 591.051V591.049Z" fill="url(#paint42_linear_103_600)"/>
<path d="M234.601 591.385C234.947 607.568 243.246 620.891 253.021 621.128C262.67 621.363 270.115 608.726 269.764 592.92C269.412 577.126 261.404 563.843 251.76 563.236C241.991 562.619 234.255 575.214 234.601 591.385Z" fill="white"/>
<path d="M74.2365 531.84C74.2365 531.84 74.2496 531.84 74.2574 531.84C76.1632 531.987 78.3153 532.645 80.0716 533.614C81.7571 534.376 82.3548 535.297 84.2054 536.454V536.482C89.8125 542.624 94.8507 554.064 95.1495 566.961C95.5453 584.135 88.1479 598.144 78.2943 599.906L78.2183 599.918C77.5525 600.019 69.2795 602.951 43.1133 600.62C42.2011 590.179 42.4999 531.007 42.4999 531.007C42.4999 531.007 61.3421 529.661 74.2391 531.84H74.2365Z" fill="url(#paint43_linear_103_600)"/>
<path d="M22.7905 564.839C23.2047 584.485 33.3047 600.606 45.1374 600.822C56.7421 601.036 65.6467 585.813 65.2247 566.843C64.8027 547.892 55.2217 531.842 43.6223 530.961C31.7974 530.061 22.3763 545.213 22.7905 564.839Z" fill="url(#paint44_linear_103_600)"/>
<path d="M32.0531 565.138C32.3519 579.077 39.0966 590.561 47.0288 590.772C54.8561 590.982 60.8825 580.106 60.5811 566.489C60.2796 552.883 53.7682 541.437 45.9435 540.905C38.0166 540.366 31.7569 551.208 32.0531 565.138Z" fill="white"/>
<path d="M570.779 533.09H570.81C573.725 533.041 576.155 533.753 578.852 534.855C581.447 535.686 582.493 536.866 584.349 538.323V538.36C595.461 545.943 601.76 561.392 602.138 579.291C602.641 603.112 591.395 622.936 576.168 625.879L576.265 625.891C575.245 626.063 562.77 630.457 524.166 628.583C522.882 614.78 520.695 536.268 520.695 536.268C520.695 536.268 551.315 531.803 570.779 533.088V533.09Z" fill="url(#paint45_linear_103_600)"/>
<path d="M527.182 628.766C544.161 628.491 557.487 607.463 556.946 581.8C556.405 556.136 542.202 535.556 525.224 535.832C508.245 536.107 494.919 557.135 495.46 582.798C496.001 608.462 510.203 629.042 527.182 628.766Z" fill="url(#paint46_linear_103_600)"/>
<path d="M529.959 615.292C541.414 615.106 550.387 600.079 550 581.728C549.613 563.377 540.013 548.651 528.558 548.837C517.103 549.023 508.13 564.05 508.517 582.402C508.903 600.753 518.503 615.478 529.959 615.292Z" fill="url(#paint47_linear_103_600)"/>
<path d="M649.357 591.852L649.378 592.805C649.619 604.251 639.231 613.696 626.195 613.91L337.824 618.6C311.687 619.026 306.276 615.332 305.566 614.688C305.516 614.663 305.445 614.628 305.424 614.594L283.258 611.365C285.148 605.701 286.029 599.398 285.89 592.77C285.379 568.505 269.735 549.063 251.218 549.365C234.648 549.634 221.712 565.61 218.498 586.363C218.498 586.376 218.498 586.387 218.498 586.398C218.551 588.835 218.553 591.313 218.606 593.863C218.666 596.685 219.361 599.442 219.814 602.116L71.4517 580.474L68.6861 579.524C69.753 575.358 70.2747 570.834 70.1724 566.091C69.7504 546.095 58.2794 530.071 44.5829 530.294C32.0608 530.496 22.0027 544.164 20.6528 561.753C19.6829 560.77 18.7156 559.677 17.7876 558.462C13.2894 552.561 11.8057 546.493 11.3156 542.192C8.09655 504.738 19.8821 479.95 31.6152 464.971C41.9223 451.789 52.1927 446.189 52.1927 446.189L95.1695 421.906C119.543 408.109 147.819 400.568 176.79 400.096L343.722 397.381C369.173 396.966 393.971 401.875 416.708 411.916C462.815 432.287 513.414 463.318 513.414 463.318C573.747 468.556 607.093 491.921 607.093 491.921C614.802 497.019 621.007 502.473 626.019 508.095C626.722 508.878 627.395 509.672 628.04 510.465C635.32 519.291 639.71 528.418 642.243 537.085C642.285 537.216 642.329 537.345 642.361 537.476C649.192 561.403 641.849 581.611 641.849 581.611C646.358 583.512 649.265 587.472 649.36 591.857L649.357 591.852Z" fill="url(#paint48_linear_103_600)"/>
<path d="M305.482 614.591C305.501 614.624 305.54 614.653 305.592 614.686C307.624 615.758 310.285 621.645 377.118 617.96L626.19 613.91C639.236 613.698 649.622 604.251 649.381 592.798L649.36 591.852C649.355 591.597 649.331 591.355 649.307 591.099C648.93 587.019 646.096 583.397 641.842 581.606L351.788 588.727C351.788 588.727 324.293 584.798 315.003 589.261C313.703 589.891 312.751 590.676 312.298 591.661C308.526 599.702 303.577 610.886 305.48 614.589L305.482 614.591Z" fill="url(#paint49_linear_103_600)"/>
<path d="M642.244 537.078C638.31 540.129 633.119 542.161 627.342 542.815L595.511 546.417C592.166 546.803 588.751 546.186 586.064 544.702C583.335 543.183 581.626 540.949 581.356 538.482L581.02 535.308C580.548 530.862 584.774 526.95 590.835 526.1C601.815 524.577 611.326 521.217 618.718 516.467L628.042 510.463C630.624 512.955 633.701 516.43 636.388 520.966C640.118 527.263 641.605 533.073 642.244 537.082V537.078Z" fill="white"/>
<path d="M437.304 537.517C439.391 539.637 442.83 541.335 444.94 541.305C483.686 540.67 522.393 540.037 561.058 539.404C563.163 539.368 566.106 537.563 567.59 535.391C569.066 533.232 568.329 531.527 565.957 531.566C523.313 532.259 480.617 532.954 437.873 533.649C435.511 533.692 435.212 535.412 437.302 537.517H437.304Z" fill="url(#paint50_linear_103_600)"/>
<path d="M450.684 551.231C452.889 553.452 456.052 555.252 457.78 555.219C489.265 554.697 520.724 554.177 552.153 553.657C553.87 553.629 556.536 551.74 558.099 549.457C559.658 547.19 559.278 545.39 557.299 545.427C521.688 546.014 486.046 546.599 450.367 547.186C448.377 547.218 448.503 549.02 450.684 551.229V551.231Z" fill="url(#paint51_linear_103_600)"/>
<path d="M404.099 555.319C411.163 555.045 416.692 550.454 416.574 544.958L416.503 541.607C416.393 536.383 411.203 532.094 404.502 531.689L391.883 530.929L316.465 514.797L318.287 523.077C321.039 535.587 332.185 545.971 347.517 550.311L358.734 553.487C366.116 555.576 373.969 556.495 381.828 556.189L404.099 555.321V555.319Z" fill="white"/>
<g style="mix-blend-mode:soft-light" opacity="0.4">
<path d="M315.004 589.263L346.468 596.026L649.308 591.101C648.931 587.021 646.097 583.399 641.843 581.608L351.789 588.729C351.789 588.729 324.294 584.8 315.004 589.263Z" fill="white"/>
</g>
<path d="M117.401 574.113C117.419 574.113 117.437 574.113 117.458 574.113C118.431 572.496 119.23 572.919 119.183 572.035C119.152 571.499 116.242 518.032 117.579 496.312C118.74 477.497 122.253 474.038 122.565 473.778C123.343 473.377 123.684 472.473 123.322 471.723C122.932 470.908 121.857 470.503 120.932 470.844C119.623 471.329 115.248 474.56 113.93 495.951C112.58 517.834 115.505 571.658 115.534 572.196C115.584 573.064 116.418 574.132 117.398 574.116L117.401 574.113Z" fill="url(#paint52_linear_103_600)"/>
<path style="mix-blend-mode:multiply" opacity="0.2" d="M16.7448 556.992C18.0135 558.863 19.3137 560.476 20.6611 561.746C22.0058 544.162 32.0665 530.49 44.5834 530.287C58.2852 530.064 69.7561 546.095 70.1782 566.084C70.2778 570.825 69.7535 575.354 68.6919 579.519L71.4495 580.467L219.82 602.107C219.364 599.437 218.664 596.678 218.606 593.859C218.554 591.311 218.556 588.828 218.504 586.393V586.361C218.121 568.213 185.818 569.331 171.619 570.139C156.032 571.018 137.929 575.494 124.338 566.294C116.301 560.849 112.442 551.809 104.544 546.01C95.7021 539.536 84.8236 535.258 74.8992 530.243C53.9966 519.655 48.29 507.41 48.9899 483.508C49.4355 468.374 39.1992 465.224 31.5999 464.964C19.8695 479.946 8.09703 504.733 11.316 542.192C11.5598 545.708 12.7368 551.08 16.7448 556.994V556.992Z" fill="url(#paint53_linear_103_600)"/>
<path d="M207.496 410.809C207.496 410.809 227.887 454.27 232.876 460.598C233.345 461.183 233.94 461.735 234.645 462.237C241.482 467.06 257.975 467.675 257.975 467.675L500.643 463.728C445.755 428.84 399.074 407.695 399.074 407.695L207.496 410.811V410.809Z" fill="url(#paint54_linear_103_600)"/>
<path style="mix-blend-mode:multiply" opacity="0.3" d="M500.646 463.728C445.755 428.84 399.077 407.695 399.077 407.695L386.508 407.9C383.079 412.784 378.557 416.956 372.937 419.973C347.122 433.258 315.965 427.006 288.37 435.604C270.435 440.972 257.74 452.573 249.574 466.869C254.235 467.537 257.981 467.677 257.981 467.677L500.648 463.73L500.646 463.728Z" fill="url(#paint55_linear_103_600)"/>
<path d="M59.1172 450.077C59.1172 450.077 85.2047 458.946 120.166 467.127C121.198 462.401 122.897 456.458 125.699 449.909C130.845 437.792 139.708 423.563 154.993 410.895C142.984 411.859 128.942 414.139 114.186 418.928C96.0754 424.799 76.9134 434.453 59.1198 450.077H59.1172Z" fill="url(#paint56_linear_103_600)"/>
<path d="M129.113 469.162C146.535 472.996 165.663 476.498 184.615 478.625C195.41 479.828 206.139 480.583 216.454 480.687C219.466 480.719 222.459 480.701 225.398 480.622C225.398 480.622 225.398 480.606 225.379 480.59C224.886 478.899 205.04 412.821 187.884 411.129C183.933 410.745 177.7 410.268 169.851 410.285C151.623 422.583 141.245 437.67 135.384 450.521C132.086 457.738 130.199 464.241 129.113 469.162Z" fill="url(#paint57_linear_103_600)"/>
<path opacity="0.3" d="M216.453 480.686C219.465 480.719 222.459 480.7 225.397 480.622C225.397 480.622 225.397 480.606 225.379 480.59C222.951 480.613 219.94 480.645 216.456 480.686H216.453Z" fill="url(#paint58_linear_103_600)"/>
<path style="mix-blend-mode:multiply" opacity="0.7" d="M135.384 450.521C132.086 457.737 130.199 464.241 129.113 469.161C146.535 472.995 165.663 476.498 184.615 478.624C181.902 476.346 179.377 473.453 177.147 469.822C167.414 454.037 150.771 451.568 135.381 450.521H135.384Z" fill="url(#paint59_linear_103_600)"/>
<path style="mix-blend-mode:multiply" opacity="0.7" d="M59.1172 450.077C59.1172 450.077 85.2047 458.946 120.166 467.127C121.198 462.4 122.897 456.458 125.699 449.909C116.412 449.244 108.375 448.107 103.693 443.345C95.4856 434.955 105.245 425.246 114.184 418.931C96.0728 424.801 76.9108 434.455 59.1172 450.079V450.077Z" fill="url(#paint60_linear_103_600)"/>
<path d="M224.558 483.645C224.558 483.645 216.112 456.496 204.904 455.587C193.695 454.678 161.628 447.197 159.012 460.699C156.396 474.203 162.338 480.821 178.512 481.385C194.686 481.949 205.441 480.948 205.441 480.948L213.045 487.836C213.045 487.836 225.214 494.915 224.561 483.647L224.558 483.645Z" fill="url(#paint61_linear_103_600)"/>
<path d="M228.289 483.586C228.289 483.586 219.843 456.437 208.634 455.528C197.425 454.619 165.358 447.137 162.742 460.639C160.126 474.143 166.069 480.762 182.242 481.326C198.416 481.89 209.169 480.888 209.169 480.888L216.773 487.776C216.773 487.776 228.942 494.855 228.289 483.588V483.586Z" fill="url(#paint62_linear_103_600)"/>
<path d="M328.488 318.269C328.488 318.269 337.854 311.024 339.75 308.378C341.647 305.733 341.7 310.918 339.799 311.965C337.902 313.012 366.582 309.526 361.528 313.894C356.474 318.259 352.83 322.377 346.041 322.653C339.251 322.929 331.243 324.738 329.859 325.534C328.475 326.33 328.488 318.269 328.488 318.269Z" fill="url(#paint63_linear_103_600)"/>
<path d="M143.111 267.801C140.812 268.565 105.738 280.81 98.5298 312.946C97.9479 315.542 92.312 343.153 113.642 362.659C137.559 384.531 183.611 383.99 201.892 365.704C206.154 361.439 208.403 356.712 209.664 352.742L204.849 341.507C198.972 335.278 190.969 333.803 186.696 332.877C176.161 330.597 168.208 334.718 162.173 330.256C158.834 327.789 158.17 324.236 157.578 321.065C155.56 310.258 162.509 303.607 163.012 296.942C163.39 291.96 165.377 281.045 157.971 273.927C153.282 269.418 146.786 268.192 143.114 267.796L143.111 267.801Z" fill="url(#paint64_linear_103_600)"/>
<path d="M129.444 625.963C129.035 623.984 121.759 622.193 118.154 624.845C116.364 626.161 115.132 628.828 116.167 630.032C116.545 630.469 115.001 631.24 116.479 631.256C121.381 631.307 129.851 627.931 129.444 625.963Z" fill="url(#paint65_linear_103_600)"/>
<path d="M121.816 626.684L114.332 625.754C117.8 622.088 117.158 610.418 117.158 610.418L125.119 611.978C125.119 611.978 124.212 615.182 122.671 619.909C122.141 621.526 121.905 624.058 121.819 626.686L121.816 626.684Z" fill="url(#paint66_linear_103_600)"/>
<path d="M122.482 625.873C122.482 625.873 113.469 624.05 112.497 625.62C111.522 627.189 110.764 631.392 116.481 631.256C122.199 631.12 122.99 627.206 122.482 625.873Z" fill="url(#paint67_linear_103_600)"/>
<path d="M232.142 633.383C231.421 631.475 223.929 630.596 220.783 633.661C219.221 635.185 218.427 637.976 219.643 639.042C220.086 639.431 218.681 640.383 220.146 640.215C225.009 639.663 232.855 635.279 232.139 633.383H232.142Z" fill="url(#paint68_linear_103_600)"/>
<path d="M224.704 635.033H217.145C219.994 630.978 217.496 619.499 217.496 619.499L225.625 620.065C225.625 620.065 225.237 623.349 224.463 628.216C224.199 629.883 224.369 632.419 224.702 635.031L224.704 635.033Z" fill="#893976"/>
<path d="M244.294 384.076C247.796 394.227 252.795 410.612 256.014 431.17C265.196 489.805 245.681 491.676 249.324 556.65C250.488 577.389 228.857 625.216 226.951 626.272C226.028 626.35 225.027 626.403 223.96 626.375C222.078 626.325 219.425 626.072 216.343 625.261C212.916 624.744 200.562 595.367 203.427 577.902C205.454 565.542 204.866 552.275 203.692 525.743C203.501 521.444 190.973 442.101 190.973 442.101C187.162 471.468 182.779 496.424 178.978 515.771C166.77 577.93 127.076 615.552 125.005 616.155C124.596 616.3 120.871 617.488 117.825 615.725C116.47 614.94 116.008 613.927 116.008 613.927C114.947 613.198 116.32 551.87 128.428 505.714C146.002 438.721 138.35 423.046 143.918 393.122C148.736 367.23 244.294 384.078 244.294 384.078V384.076Z" fill="url(#paint69_linear_103_600)"/>
<path d="M248.994 394.199C238.443 398.954 211.263 407.466 178.879 403.237C164.081 401.306 152.246 396.988 143.918 393.129C144.93 390.434 145.727 387.887 146.34 385.475C150.778 367.918 145.352 357.505 142.615 347.821C138.185 332.107 138.112 333.292 134.46 320.812C128.431 300.218 127.443 279.181 131.582 274.871C142.746 263.263 162.86 262.849 173.311 262.573C184.973 262.273 211.79 258.663 226.564 270.328C226.82 270.533 223.793 271.953 225.287 273.481C226.671 274.901 231.416 279.89 235.712 286.617C238.831 291.496 241.644 297.182 244.48 305.651C248.394 317.353 250.129 327.693 250.926 334.291C251.141 336.118 251.291 337.663 251.398 338.864C254.101 370.038 251.424 384.421 248.992 394.199H248.994Z" fill="url(#paint70_linear_103_600)"/>
<path d="M225.232 634.149C225.232 634.149 216.018 633.452 215.305 635.125C214.59 636.798 214.511 641.051 220.149 640.215C225.788 639.378 225.948 635.403 225.232 634.149Z" fill="url(#paint71_linear_103_600)"/>
<path d="M203.177 250.983C204.375 249.206 205.688 247.674 205.536 245.938C205.256 242.769 204.944 239.727 204.724 238.919C203.292 233.702 202.76 232.911 201.657 231.806L200.097 230.358C200.097 230.358 200 230.294 199.898 230.234C198.813 229.578 194.763 228.515 193.887 228.476C191.093 228.354 185.41 237.147 182.154 250.697C181.889 251.181 181.627 251.671 181.368 252.163C179.753 255.238 178.369 258.262 177.179 261.21C158.302 262.611 155.684 264.556 155.6 265.679C155.422 268.043 166.177 270.774 174.266 271.814C191.908 274.081 210.04 269.996 209.956 267.111C209.919 265.854 206.414 264.215 191.46 262.496C191.808 260.324 192.16 258.151 192.508 255.979C193.725 255.742 200.668 254.709 203.174 250.99L203.177 250.983Z" fill="url(#paint72_linear_103_600)"/>
<path d="M206.725 227.843C205.451 231.979 201.889 235.882 200.541 236.326C200.368 236.383 199.372 236.761 198.337 237.564C198.195 237.672 198.059 237.808 197.92 237.99C196.096 240.358 199.889 244.532 198.62 245.487C197.7 246.18 194.835 244.295 194.229 244.937C193.66 245.543 195.896 247.593 195.236 248.323C194.738 248.873 193.27 247.92 191.943 248.631C191.283 248.985 191.319 249.397 190.331 250.723C189.773 251.471 189.068 252.269 188.58 252.69C186.213 254.739 181.327 254.548 180.734 253.367C180.569 253.038 180.85 252.861 180.873 251.892C180.873 251.892 180.894 250.994 180.522 249.862C179.99 248.247 177.987 246.712 176.108 244.696C172.627 240.965 172.163 238.369 172.05 237.504C172.011 237.196 171.995 236.965 171.987 236.802C171.793 233.488 173.151 229.005 175.549 226.614C179.571 222.61 184.808 226.184 191.031 222.739C198.211 218.764 197.081 210.772 200.347 210.684C203.949 210.585 209.076 220.196 206.722 227.843H206.725Z" fill="#26264F"/>
<path d="M197.218 244.118C196.486 242.454 194.056 243.287 193.498 245.089C192.937 246.891 194.361 249.231 196.4 249.328C198.439 249.425 198.206 246.359 197.22 244.118H197.218Z" fill="url(#paint73_linear_103_600)"/>
<path style="mix-blend-mode:multiply" opacity="0.3" d="M147.634 379.134C147.615 379.134 147.597 379.134 147.579 379.132C147.303 379.104 147.107 378.888 147.136 378.646C148.512 367.775 145.946 359.874 143.681 352.904C143.122 351.182 142.593 349.555 142.132 347.921C139.615 339.006 138.512 335.563 137.345 331.92C136.585 329.545 135.798 327.092 134.582 322.989C134.514 322.754 134.674 322.515 134.941 322.452C135.206 322.393 135.481 322.531 135.552 322.768C136.766 326.862 137.552 329.313 138.31 331.683C139.479 335.333 140.582 338.783 143.104 347.712C143.56 349.33 144.087 350.95 144.643 352.664C146.934 359.713 149.529 367.703 148.132 378.745C148.103 378.971 147.885 379.136 147.636 379.136L147.634 379.134Z" fill="url(#paint74_linear_103_600)"/>
<path d="M197.201 240.882L198.952 244.571C198.952 244.571 200.703 248.999 203.015 247.34C204.902 245.982 205.248 246.104 205.314 246.194C205.327 246.21 205.324 246.233 205.327 246.233C205.353 246.233 205.38 245.349 205.398 244.571C205.838 245.639 206.378 247.328 206.378 249.429C206.378 251.473 206.378 253.659 204.556 255.332C204.452 255.429 202.467 257.201 199.793 257.116C199.793 257.116 198.742 257.084 194.75 255.457C194.75 255.457 200.213 253.611 200.496 252.934C201.259 251.095 198.59 249.379 197.552 244.999C197.151 243.31 197.143 241.86 197.204 240.88L197.201 240.882Z" fill="#26264F"/>
<path style="mix-blend-mode:multiply" opacity="0.3" d="M248.994 394.199C238.443 398.954 211.263 407.466 178.879 403.237C164.081 401.306 152.246 396.988 143.918 393.129C144.93 390.434 145.727 387.887 146.34 385.475C167.882 398.721 176.889 385.839 190.798 382.803C205.273 379.65 223.884 386.204 212.555 356.858C201.215 327.511 220.021 329.645 220.021 329.645L250.926 334.291C251.141 336.118 251.291 337.663 251.398 338.864C254.101 370.038 251.424 384.421 248.992 394.199H248.994Z" fill="url(#paint75_linear_103_600)"/>
<path d="M328.681 317.137C332.902 319.729 335.164 323.25 336.336 325.496C333.235 331.889 326.199 343.757 311.635 352.504C287.757 366.846 252.749 367.329 228.363 350.974C199.229 331.433 194.362 293.961 206.598 277.913C208.006 276.065 212.637 269.992 219.828 269.295C224.368 268.855 230.549 270.499 240.314 280.535C260.658 301.447 253.473 314.507 265.492 320.624C283.516 329.799 310.301 305.845 328.679 317.135L328.681 317.137Z" fill="url(#paint76_linear_103_600)"/>
<path style="mix-blend-mode:multiply" opacity="0.3" d="M246.667 359.969C246.633 359.969 246.596 359.966 246.56 359.96C246.271 359.904 217.596 354.119 204.718 322.929C204.623 322.701 204.757 322.45 205.017 322.367C205.276 322.285 205.562 322.402 205.656 322.63C218.338 353.346 246.486 359.048 246.769 359.101C247.039 359.152 247.21 359.387 247.152 359.624C247.102 359.828 246.895 359.969 246.664 359.969H246.667Z" fill="url(#paint77_linear_103_600)"/>
<path d="M355.736 311.74C355.736 311.74 353.611 308.155 350.654 309.911C347.694 311.667 343.542 312.875 346.308 313.496C349.07 314.118 355.739 311.74 355.739 311.74H355.736Z" fill="url(#paint78_linear_103_600)"/>
</g>
<defs>
<linearGradient id="paint0_linear_103_600" x1="319" y1="285.101" x2="804.354" y2="-267.744" gradientUnits="userSpaceOnUse">
<stop stop-color="#E38DDD"/>
<stop offset="1" stop-color="#9571F6"/>
</linearGradient>
<linearGradient id="paint1_linear_103_600" x1="362.2" y1="34.4802" x2="479.268" y2="886.941" gradientUnits="userSpaceOnUse">
<stop stop-color="#FF9085"/>
<stop offset="1" stop-color="#FB6FBB"/>
</linearGradient>
<linearGradient id="paint2_linear_103_600" x1="80.9749" y1="69.7781" x2="199.89" y2="199.722" gradientUnits="userSpaceOnUse">
<stop stop-color="#AB316D"/>
<stop offset="1" stop-color="#792D3D"/>
</linearGradient>
<linearGradient id="paint3_linear_103_600" x1="193.255" y1="84.8355" x2="63.3815" y2="307.083" gradientUnits="userSpaceOnUse">
<stop stop-color="#FFC444"/>
<stop offset="1" stop-color="#F36F56"/>
</linearGradient>
<linearGradient id="paint4_linear_103_600" x1="200.774" y1="78.5552" x2="161.455" y2="141.188" gradientUnits="userSpaceOnUse">
<stop stop-color="#FFC444"/>
<stop offset="1" stop-color="#F36F56"/>
</linearGradient>
<linearGradient id="paint5_linear_103_600" x1="111.925" y1="12.4896" x2="168.164" y2="183.878" gradientUnits="userSpaceOnUse">
<stop stop-color="#FFC444"/>
<stop offset="1" stop-color="#F36F56"/>
</linearGradient>
<linearGradient id="paint6_linear_103_600" x1="69.1994" y1="340.746" x2="181.151" y2="-2.94762" gradientUnits="userSpaceOnUse">
<stop stop-color="#EBEFF2"/>
<stop offset="1" stop-color="white"/>
</linearGradient>
<linearGradient id="paint7_linear_103_600" x1="211.601" y1="77.7592" x2="143.772" y2="233.157" gradientUnits="userSpaceOnUse">
<stop stop-color="#FFC444"/>
<stop offset="1" stop-color="#F36F56"/>
</linearGradient>
<linearGradient id="paint8_linear_103_600" x1="119.293" y1="63.3914" x2="192.589" y2="219.031" gradientUnits="userSpaceOnUse">
<stop stop-color="#FF9085"/>
<stop offset="1" stop-color="#FB6FBB"/>
</linearGradient>
<linearGradient id="paint9_linear_103_600" x1="127.286" y1="59.6285" x2="200.582" y2="215.266" gradientUnits="userSpaceOnUse">
<stop stop-color="#FF9085"/>
<stop offset="1" stop-color="#FB6FBB"/>
</linearGradient>
<linearGradient id="paint10_linear_103_600" x1="94.1958" y1="75.2113" x2="167.492" y2="230.851" gradientUnits="userSpaceOnUse">
<stop stop-color="#FF9085"/>
<stop offset="1" stop-color="#FB6FBB"/>
</linearGradient>
<linearGradient id="paint11_linear_103_600" x1="485.22" y1="532.386" x2="515.801" y2="658.087" gradientUnits="userSpaceOnUse">
<stop stop-color="#311944"/>
<stop offset="1" stop-color="#893976"/>
</linearGradient>
<linearGradient id="paint12_linear_103_600" x1="519.953" y1="619.805" x2="520.39" y2="578.091" gradientUnits="userSpaceOnUse">
<stop stop-color="#FFC444"/>
<stop offset="1" stop-color="#F36F56"/>
</linearGradient>
<linearGradient id="paint13_linear_103_600" x1="534.083" y1="520.5" x2="564.664" y2="646.201" gradientUnits="userSpaceOnUse">
<stop stop-color="#311944"/>
<stop offset="1" stop-color="#893976"/>
</linearGradient>
<linearGradient id="paint14_linear_103_600" x1="574.897" y1="620.38" x2="575.331" y2="578.667" gradientUnits="userSpaceOnUse">
<stop stop-color="#FFC444"/>
<stop offset="1" stop-color="#F36F56"/>
</linearGradient>
<linearGradient id="paint15_linear_103_600" x1="492.566" y1="485.655" x2="543.153" y2="485.655" gradientUnits="userSpaceOnUse">
<stop stop-color="#444B8C"/>
<stop offset="1" stop-color="#26264F"/>
</linearGradient>
<linearGradient id="paint16_linear_103_600" x1="492.571" y1="-0.00027188" x2="543.155" y2="-0.00027188" gradientUnits="userSpaceOnUse">
<stop stop-color="#444B8C"/>
<stop offset="1" stop-color="#26264F"/>
</linearGradient>
<linearGradient id="paint17_linear_103_600" x1="521.129" y1="492.001" x2="597.918" y2="492.001" gradientUnits="userSpaceOnUse">
<stop stop-color="#444B8C"/>
<stop offset="1" stop-color="#26264F"/>
</linearGradient>
<linearGradient id="paint18_linear_103_600" x1="340.75" y1="306.327" x2="382.018" y2="354.174" gradientUnits="userSpaceOnUse">
<stop stop-color="#FFC444"/>
<stop offset="1" stop-color="#F36F56"/>
</linearGradient>
<linearGradient id="paint19_linear_103_600" x1="619.07" y1="409.948" x2="627.346" y2="409.948" gradientUnits="userSpaceOnUse">
<stop stop-color="#FFC444"/>
<stop offset="1" stop-color="#F36F56"/>
</linearGradient>
<linearGradient id="paint20_linear_103_600" x1="605.848" y1="424.704" x2="607.381" y2="398.712" gradientUnits="userSpaceOnUse">
<stop offset="0.1" stop-color="#311944"/>
<stop offset="0.27" stop-color="#361B47"/>
<stop offset="0.48" stop-color="#462050"/>
<stop offset="0.72" stop-color="#602A5F"/>
<stop offset="0.97" stop-color="#843773"/>
<stop offset="1" stop-color="#893976"/>
</linearGradient>
<linearGradient id="paint21_linear_103_600" x1="594.715" y1="405.999" x2="616.019" y2="419.01" gradientUnits="userSpaceOnUse">
<stop offset="0.1" stop-color="#311944"/>
<stop offset="0.27" stop-color="#361B47"/>
<stop offset="0.48" stop-color="#462050"/>
<stop offset="0.72" stop-color="#602A5F"/>
<stop offset="0.97" stop-color="#843773"/>
<stop offset="1" stop-color="#893976"/>
</linearGradient>
<linearGradient id="paint22_linear_103_600" x1="586.898" y1="410.482" x2="594.202" y2="410.482" gradientUnits="userSpaceOnUse">
<stop stop-color="#FFC444"/>
<stop offset="1" stop-color="#F36F56"/>
</linearGradient>
<linearGradient id="paint23_linear_103_600" x1="562.42" y1="439.384" x2="552.382" y2="334.88" gradientUnits="userSpaceOnUse">
<stop offset="0.1" stop-color="#311944"/>
<stop offset="0.69" stop-color="#6D2E66"/>
<stop offset="1" stop-color="#893976"/>
</linearGradient>
<linearGradient id="paint24_linear_103_600" x1="618.921" y1="482.633" x2="538.577" y2="431.672" gradientUnits="userSpaceOnUse">
<stop stop-color="#311944"/>
<stop offset="1" stop-color="#893976"/>
</linearGradient>
<linearGradient id="paint25_linear_103_600" x1="541.316" y1="424.135" x2="562.585" y2="464.76" gradientUnits="userSpaceOnUse">
<stop stop-color="#311944"/>
<stop offset="1" stop-color="#893976"/>
</linearGradient>
<linearGradient id="paint26_linear_103_600" x1="607.396" y1="378.59" x2="614.695" y2="490.182" gradientUnits="userSpaceOnUse">
<stop offset="0.1" stop-color="#311944"/>
<stop offset="0.69" stop-color="#6D2E66"/>
<stop offset="1" stop-color="#893976"/>
</linearGradient>
<linearGradient id="paint27_linear_103_600" x1="590.595" y1="441.681" x2="653.296" y2="496.712" gradientUnits="userSpaceOnUse">
<stop stop-color="#311944"/>
<stop offset="1" stop-color="#893976"/>
</linearGradient>
<linearGradient id="paint28_linear_103_600" x1="572.653" y1="435.288" x2="601.97" y2="433.992" gradientUnits="userSpaceOnUse">
<stop offset="0.1" stop-color="#311944"/>
<stop offset="0.69" stop-color="#6D2E66"/>
<stop offset="1" stop-color="#893976"/>
</linearGradient>
<linearGradient id="paint29_linear_103_600" x1="618.305" y1="521.659" x2="610.44" y2="420.999" gradientUnits="userSpaceOnUse">
<stop offset="0.1" stop-color="#311944"/>
<stop offset="0.27" stop-color="#361B47"/>
<stop offset="0.48" stop-color="#462050"/>
<stop offset="0.72" stop-color="#602A5F"/>
<stop offset="0.97" stop-color="#843773"/>
<stop offset="1" stop-color="#893976"/>
</linearGradient>
<linearGradient id="paint30_linear_103_600" x1="623.269" y1="544.967" x2="609.92" y2="405.972" gradientUnits="userSpaceOnUse">
<stop stop-color="#311944"/>
<stop offset="1" stop-color="#893976"/>
</linearGradient>
<linearGradient id="paint31_linear_103_600" x1="647.625" y1="471.921" x2="598.665" y2="442.768" gradientUnits="userSpaceOnUse">
<stop stop-color="#FFC444"/>
<stop offset="1" stop-color="#F36F56"/>
</linearGradient>
<linearGradient id="paint32_linear_103_600" x1="600.93" y1="451.695" x2="652.349" y2="472.652" gradientUnits="userSpaceOnUse">
<stop stop-color="#FFC444"/>
<stop offset="1" stop-color="#F36F56"/>
</linearGradient>
<linearGradient id="paint33_linear_103_600" x1="611.765" y1="437.169" x2="608.336" y2="393.284" gradientUnits="userSpaceOnUse">
<stop stop-color="#FFC444"/>
<stop offset="1" stop-color="#F36F56"/>
</linearGradient>
<linearGradient id="paint34_linear_103_600" x1="521.058" y1="258.715" x2="521.058" y2="215.248" gradientUnits="userSpaceOnUse">
<stop stop-color="#FFC444"/>
<stop offset="1" stop-color="#F36F56"/>
</linearGradient>
<linearGradient id="paint35_linear_103_600" x1="531.056" y1="245.583" x2="514.759" y2="198.437" gradientUnits="userSpaceOnUse">
<stop stop-color="#444B8C"/>
<stop offset="1" stop-color="#3E4177"/>
</linearGradient>
<linearGradient id="paint36_linear_103_600" x1="488.202" y1="232.141" x2="529.388" y2="206.591" gradientUnits="userSpaceOnUse">
<stop stop-color="#FFC444"/>
<stop offset="1" stop-color="#F36F56"/>
</linearGradient>
<linearGradient id="paint37_linear_103_600" x1="512.642" y1="221.542" x2="509.455" y2="274.747" gradientUnits="userSpaceOnUse">
<stop stop-color="#444B8C"/>
<stop offset="1" stop-color="#26264F"/>
</linearGradient>
<linearGradient id="paint38_linear_103_600" x1="523.829" y1="327.425" x2="523.829" y2="208.044" gradientUnits="userSpaceOnUse">
<stop stop-color="#444B8C"/>
<stop offset="1" stop-color="#26264F"/>
</linearGradient>
<linearGradient id="paint39_linear_103_600" x1="251.73" y1="579.714" x2="227.134" y2="553.098" gradientUnits="userSpaceOnUse">
<stop stop-color="#444B8C"/>
<stop offset="1" stop-color="#3E4177"/>
</linearGradient>
<linearGradient id="paint40_linear_103_600" x1="43.125" y1="546.343" x2="28.9169" y2="530.968" gradientUnits="userSpaceOnUse">
<stop stop-color="#444B8C"/>
<stop offset="1" stop-color="#3E4177"/>
</linearGradient>
<linearGradient id="paint41_linear_103_600" x1="311.933" y1="591.691" x2="245.891" y2="593.083" gradientUnits="userSpaceOnUse">
<stop stop-color="#444B8C"/>
<stop offset="1" stop-color="#3E4177"/>
</linearGradient>
<linearGradient id="paint42_linear_103_600" x1="206.809" y1="522.373" x2="263.304" y2="642.963" gradientUnits="userSpaceOnUse">
<stop stop-color="#EBEFF2"/>
<stop offset="0.99" stop-color="#B7C0CE"/>
</linearGradient>
<linearGradient id="paint43_linear_103_600" x1="95.0671" y1="565.471" x2="42.162" y2="566.586" gradientUnits="userSpaceOnUse">
<stop stop-color="#444B8C"/>
<stop offset="1" stop-color="#3E4177"/>
</linearGradient>
<linearGradient id="paint44_linear_103_600" x1="7.54162" y1="505.998" x2="55.9671" y2="609.366" gradientUnits="userSpaceOnUse">
<stop stop-color="#EBEFF2"/>
<stop offset="0.99" stop-color="#B7C0CE"/>
</linearGradient>
<linearGradient id="paint45_linear_103_600" x1="602.116" y1="580.174" x2="521.613" y2="581.87" gradientUnits="userSpaceOnUse">
<stop stop-color="#444B8C"/>
<stop offset="1" stop-color="#3E4177"/>
</linearGradient>
<linearGradient id="paint46_linear_103_600" x1="477.953" y1="503.008" x2="542.101" y2="639.934" gradientUnits="userSpaceOnUse">
<stop stop-color="#444B8C"/>
<stop offset="1" stop-color="#3E4177"/>
</linearGradient>
<linearGradient id="paint47_linear_103_600" x1="549.975" y1="581.772" x2="508.493" y2="582.646" gradientUnits="userSpaceOnUse">
<stop stop-color="#444B8C"/>
<stop offset="1" stop-color="#3E4177"/>
</linearGradient>
<linearGradient id="paint48_linear_103_600" x1="283.908" y1="684.441" x2="358.109" y2="410.15" gradientUnits="userSpaceOnUse">
<stop stop-color="#E38DDD"/>
<stop offset="1" stop-color="#9571F6"/>
</linearGradient>
<linearGradient id="paint49_linear_103_600" x1="477.002" y1="623.847" x2="478.373" y2="455.82" gradientUnits="userSpaceOnUse">
<stop stop-color="#E38DDD"/>
<stop offset="1" stop-color="#9571F6"/>
</linearGradient>
<linearGradient id="paint50_linear_103_600" x1="556.639" y1="50.142" x2="567.068" y2="-69.9502" gradientUnits="userSpaceOnUse">
<stop stop-color="#E38DDD"/>
<stop offset="1" stop-color="#9571F6"/>
</linearGradient>
<linearGradient id="paint51_linear_103_600" x1="559.998" y1="50.435" x2="570.428" y2="-69.6578" gradientUnits="userSpaceOnUse">
<stop stop-color="#E38DDD"/>
<stop offset="1" stop-color="#9571F6"/>
</linearGradient>
<linearGradient id="paint52_linear_103_600" x1="118.525" y1="653.157" x2="118.525" y2="448.882" gradientUnits="userSpaceOnUse">
<stop stop-color="#E38DDD"/>
<stop offset="1" stop-color="#9571F6"/>
</linearGradient>
<linearGradient id="paint53_linear_103_600" x1="189.811" y1="629.81" x2="34.7538" y2="462.009" gradientUnits="userSpaceOnUse">
<stop stop-color="#E38DDD"/>
<stop offset="1" stop-color="#9571F6"/>
</linearGradient>
<linearGradient id="paint54_linear_103_600" x1="208.111" y1="439.651" x2="500.022" y2="433.499" gradientUnits="userSpaceOnUse">
<stop stop-color="#444B8C"/>
<stop offset="1" stop-color="#3E4177"/>
</linearGradient>
<linearGradient id="paint55_linear_103_600" x1="249.572" y1="437.684" x2="500.646" y2="437.684" gradientUnits="userSpaceOnUse">
<stop stop-color="#444B8C"/>
<stop offset="1" stop-color="#3E4177"/>
</linearGradient>
<linearGradient id="paint56_linear_103_600" x1="58.9158" y1="440.301" x2="155.572" y2="438.263" gradientUnits="userSpaceOnUse">
<stop stop-color="#444B8C"/>
<stop offset="1" stop-color="#3E4177"/>
</linearGradient>
<linearGradient id="paint57_linear_103_600" x1="128.642" y1="446.593" x2="224.643" y2="444.57" gradientUnits="userSpaceOnUse">
<stop stop-color="#444B8C"/>
<stop offset="1" stop-color="#3E4177"/>
</linearGradient>
<linearGradient id="paint58_linear_103_600" x1="223.211" y1="482.608" x2="219.126" y2="478.185" gradientUnits="userSpaceOnUse">
<stop stop-color="#EBEFF2"/>
<stop offset="0.99" stop-color="#B7C0CE"/>
</linearGradient>
<linearGradient id="paint59_linear_103_600" x1="175.534" y1="486.985" x2="138.847" y2="447.285" gradientUnits="userSpaceOnUse">
<stop stop-color="#EBEFF2"/>
<stop offset="0.99" stop-color="#B7C0CE"/>
</linearGradient>
<linearGradient id="paint60_linear_103_600" x1="122.769" y1="464.685" x2="86.1522" y2="425.06" gradientUnits="userSpaceOnUse">
<stop stop-color="#EBEFF2"/>
<stop offset="0.99" stop-color="#B7C0CE"/>
</linearGradient>
<linearGradient id="paint61_linear_103_600" x1="205.164" y1="483.05" x2="152.672" y2="426.244" gradientUnits="userSpaceOnUse">
<stop stop-color="#E38DDD"/>
<stop offset="1" stop-color="#9571F6"/>
</linearGradient>
<linearGradient id="paint62_linear_103_600" x1="237.758" y1="507.067" x2="185.264" y2="450.258" gradientUnits="userSpaceOnUse">
<stop stop-color="#E38DDD"/>
<stop offset="1" stop-color="#9571F6"/>
</linearGradient>
<linearGradient id="paint63_linear_103_600" x1="175.14" y1="344.711" x2="363.193" y2="301.928" gradientUnits="userSpaceOnUse">
<stop offset="0.1" stop-color="#311944"/>
<stop offset="0.27" stop-color="#361B47"/>
<stop offset="0.48" stop-color="#462050"/>
<stop offset="0.72" stop-color="#602A5F"/>
<stop offset="0.97" stop-color="#843773"/>
<stop offset="1" stop-color="#893976"/>
</linearGradient>
<linearGradient id="paint64_linear_103_600" x1="153.546" y1="421.232" x2="153.546" y2="213.459" gradientUnits="userSpaceOnUse">
<stop stop-color="#FCB148"/>
<stop offset="0.05" stop-color="#FDB946"/>
<stop offset="0.14" stop-color="#FEC144"/>
<stop offset="0.32" stop-color="#FFC444"/>
<stop offset="0.48" stop-color="#FDB946"/>
<stop offset="0.78" stop-color="#F99C4C"/>
<stop offset="0.87" stop-color="#F8924F"/>
<stop offset="1" stop-color="#F8924F"/>
</linearGradient>
<linearGradient id="paint65_linear_103_600" x1="133.461" y1="620.22" x2="118.774" y2="631.336" gradientUnits="userSpaceOnUse">
<stop stop-color="#444B8C"/>
<stop offset="1" stop-color="#26264F"/>
</linearGradient>
<linearGradient id="paint66_linear_103_600" x1="111.424" y1="670.126" x2="116.915" y2="625.904" gradientUnits="userSpaceOnUse">
<stop offset="0.1" stop-color="#311944"/>
<stop offset="0.27" stop-color="#361B47"/>
<stop offset="0.48" stop-color="#462050"/>
<stop offset="0.72" stop-color="#602A5F"/>
<stop offset="0.97" stop-color="#843773"/>
<stop offset="1" stop-color="#893976"/>
</linearGradient>
<linearGradient id="paint67_linear_103_600" x1="132.26" y1="618.63" x2="117.574" y2="629.746" gradientUnits="userSpaceOnUse">
<stop stop-color="#444B8C"/>
<stop offset="1" stop-color="#26264F"/>
</linearGradient>
<linearGradient id="paint68_linear_103_600" x1="235.235" y1="627.231" x2="222.529" y2="640.105" gradientUnits="userSpaceOnUse">
<stop stop-color="#444B8C"/>
<stop offset="1" stop-color="#26264F"/>
</linearGradient>
<linearGradient id="paint69_linear_103_600" x1="276.521" y1="347.94" x2="109.136" y2="732.664" gradientUnits="userSpaceOnUse">
<stop offset="0.1" stop-color="#311944"/>
<stop offset="0.27" stop-color="#361B47"/>
<stop offset="0.48" stop-color="#462050"/>
<stop offset="0.72" stop-color="#602A5F"/>
<stop offset="0.97" stop-color="#843773"/>
<stop offset="1" stop-color="#893976"/>
</linearGradient>
<linearGradient id="paint70_linear_103_600" x1="190.803" y1="421.233" x2="190.803" y2="213.46" gradientUnits="userSpaceOnUse">
<stop stop-color="#FCB148"/>
<stop offset="0.05" stop-color="#FDB946"/>
<stop offset="0.14" stop-color="#FEC144"/>
<stop offset="0.32" stop-color="#FFC444"/>
<stop offset="0.48" stop-color="#FDB946"/>
<stop offset="0.78" stop-color="#F99C4C"/>
<stop offset="0.87" stop-color="#F8924F"/>
<stop offset="1" stop-color="#F8924F"/>
</linearGradient>
<linearGradient id="paint71_linear_103_600" x1="233.788" y1="625.807" x2="221.082" y2="638.68" gradientUnits="userSpaceOnUse">
<stop stop-color="#444B8C"/>
<stop offset="1" stop-color="#26264F"/>
</linearGradient>
<linearGradient id="paint72_linear_103_600" x1="182.778" y1="300.988" x2="182.778" y2="236.97" gradientUnits="userSpaceOnUse">
<stop offset="0.1" stop-color="#311944"/>
<stop offset="0.27" stop-color="#361B47"/>
<stop offset="0.48" stop-color="#462050"/>
<stop offset="0.72" stop-color="#602A5F"/>
<stop offset="0.97" stop-color="#843773"/>
<stop offset="1" stop-color="#893976"/>
</linearGradient>
<linearGradient id="paint73_linear_103_600" x1="195.663" y1="300.988" x2="195.663" y2="236.97" gradientUnits="userSpaceOnUse">
<stop offset="0.1" stop-color="#311944"/>
<stop offset="0.27" stop-color="#361B47"/>
<stop offset="0.48" stop-color="#462050"/>
<stop offset="0.72" stop-color="#602A5F"/>
<stop offset="0.97" stop-color="#843773"/>
<stop offset="1" stop-color="#893976"/>
</linearGradient>
<linearGradient id="paint74_linear_103_600" x1="134.569" y1="350.786" x2="148.525" y2="350.786" gradientUnits="userSpaceOnUse">
<stop stop-color="#FF9085"/>
<stop offset="1" stop-color="#FB6FBB"/>
</linearGradient>
<linearGradient id="paint75_linear_103_600" x1="143.918" y1="366.995" x2="252.533" y2="366.995" gradientUnits="userSpaceOnUse">
<stop stop-color="#FCB148"/>
<stop offset="0.05" stop-color="#FDB946"/>
<stop offset="0.14" stop-color="#FEC144"/>
<stop offset="0.32" stop-color="#FFC444"/>
<stop offset="0.48" stop-color="#FDB946"/>
<stop offset="0.78" stop-color="#F99C4C"/>
<stop offset="0.87" stop-color="#F8924F"/>
<stop offset="1" stop-color="#F8924F"/>
</linearGradient>
<linearGradient id="paint76_linear_103_600" x1="268.333" y1="421.233" x2="268.333" y2="213.46" gradientUnits="userSpaceOnUse">
<stop stop-color="#FCB148"/>
<stop offset="0.05" stop-color="#FDB946"/>
<stop offset="0.14" stop-color="#FEC144"/>
<stop offset="0.32" stop-color="#FFC444"/>
<stop offset="0.48" stop-color="#FDB946"/>
<stop offset="0.78" stop-color="#F99C4C"/>
<stop offset="0.87" stop-color="#F8924F"/>
<stop offset="1" stop-color="#F8924F"/>
</linearGradient>
<linearGradient id="paint77_linear_103_600" x1="204.689" y1="341.153" x2="247.165" y2="341.153" gradientUnits="userSpaceOnUse">
<stop stop-color="#FF9085"/>
<stop offset="1" stop-color="#FB6FBB"/>
</linearGradient>
<linearGradient id="paint78_linear_103_600" x1="347.545" y1="309.554" x2="357.763" y2="321.401" gradientUnits="userSpaceOnUse">
<stop stop-color="#FFC444"/>
<stop offset="1" stop-color="#F36F56"/>
</linearGradient>
<clipPath id="clip0_103_600">
<rect width="720" height="656" fill="white"/>
</clipPath>
</defs>
</svg>
