<svg width="1156" height="828" viewBox="0 0 1156 828" fill="none" xmlns="http://www.w3.org/2000/svg">
<path d="M455.758 668.226C482.798 707.584 517.079 740.962 556.267 766.87H962.279C1090.48 681.997 1157.57 521.209 1113.93 362.048C1063.59 178.479 878.427 62.9863 691.363 98.1843C659.793 104.124 629.983 113.9 602.294 126.921C566.979 143.529 526.168 142.04 490.729 125.696C439.05 101.862 378.941 95.1433 319.059 111.149C191.207 145.325 110.568 274.628 135.942 404.514C157.752 516.158 249.175 595.575 355.572 607.908C396.148 612.612 432.628 634.559 455.758 668.226Z" fill="#E1EDFF"/>
<mask id="mask0_101_249" style="mask-type:luminance" maskUnits="userSpaceOnUse" x="131" y="91" width="997" height="737">
<path d="M691.36 98.1843C659.791 104.124 629.98 113.9 602.291 126.921C566.976 143.529 526.165 142.04 490.726 125.696C439.047 101.862 378.938 95.1433 319.056 111.149C191.203 145.324 110.564 274.628 135.938 404.514C157.748 516.158 249.171 595.575 355.569 607.908C396.144 612.611 432.625 634.559 455.755 668.226C538.055 788.017 687.424 852.432 838.12 819.324C1042.92 774.329 1170.08 566.838 1113.92 362.048C1063.59 178.479 878.424 62.9863 691.36 98.1843Z" fill="white"/>
</mask>
<g mask="url(#mask0_101_249)">
<path d="M1291.26 270.812V734.251H97.9258V193.821C212.215 165.265 462.68 122.067 667.66 223.275C909.724 342.779 1220.25 286.116 1291.26 270.812Z" fill="#CBDAF4"/>
<g opacity="0.5">
<mask id="mask1_101_249" style="mask-type:luminance" maskUnits="userSpaceOnUse" x="97" y="159" width="1195" height="576">
<path d="M1291.26 270.812V734.251H97.9258V193.821C212.215 165.265 462.68 122.067 667.66 223.275C909.724 342.779 1220.25 286.116 1291.26 270.812Z" fill="white"/>
</mask>
<g mask="url(#mask1_101_249)">
<path opacity="0.5" d="M351.027 1014.61L407.021 998.325L164.9 165.72L108.906 182.003L351.027 1014.61Z" fill="url(#paint0_linear_101_249)"/>
<path opacity="0.5" d="M422.262 993.893L444.002 987.571L201.881 154.965L180.141 161.287L422.262 993.893Z" fill="url(#paint1_linear_101_249)"/>
<path opacity="0.5" d="M635.492 1004.25L691.486 987.966L449.365 155.361L393.371 171.644L635.492 1004.25Z" fill="url(#paint2_linear_101_249)"/>
<path opacity="0.5" d="M706.726 983.534L728.466 977.212L486.346 144.607L464.605 150.929L706.726 983.534Z" fill="url(#paint3_linear_101_249)"/>
<path opacity="0.5" d="M972.246 1019.98L1028.24 1003.7L786.119 171.097L730.125 187.38L972.246 1019.98Z" fill="url(#paint4_linear_101_249)"/>
<path opacity="0.5" d="M1043.48 999.27L1065.22 992.948L823.099 160.342L801.359 166.665L1043.48 999.27Z" fill="url(#paint5_linear_101_249)"/>
<path opacity="0.5" d="M1296.41 1004.25L1352.4 987.966L1110.28 155.361L1054.29 171.644L1296.41 1004.25Z" fill="url(#paint6_linear_101_249)"/>
<path opacity="0.5" d="M1367.64 983.534L1389.38 977.212L1147.26 144.607L1125.52 150.929L1367.64 983.534Z" fill="url(#paint7_linear_101_249)"/>
</g>
</g>
<path d="M1291.25 272.952C1290.06 272.953 1288.86 273.072 1287.65 273.334C1227.33 286.337 914.315 345.216 675.227 227.18C583.424 181.855 473.505 159.93 348.493 162.028C247.337 163.723 157.092 180.897 97.9219 195.446V230.142C99.2909 230.141 100.679 229.995 102.067 229.649C202.069 204.663 456.629 157.395 660.087 257.846C762.477 308.396 887.44 333.995 1031.72 333.993C1035.72 333.993 1039.75 333.972 1043.77 333.935C1158.25 332.815 1252.61 315.684 1291.25 307.534L1291.25 272.952Z" fill="#5775B2"/>
<mask id="mask2_101_249" style="mask-type:luminance" maskUnits="userSpaceOnUse" x="97" y="159" width="1195" height="576">
<path d="M1291.26 270.812V734.251H97.9258V193.821C212.215 165.265 462.68 122.067 667.66 223.275C909.724 342.779 1220.25 286.116 1291.26 270.812Z" fill="white"/>
</mask>
<g mask="url(#mask2_101_249)">
<path d="M223.855 67.8984V817.055" stroke="#3B869D" stroke-miterlimit="10"/>
<path d="M385.941 67.8984V817.055" stroke="#3B869D" stroke-miterlimit="10"/>
<path d="M548.027 67.8984V817.055" stroke="#3B869D" stroke-miterlimit="10"/>
<path d="M710.113 67.8984V817.055" stroke="#3B869D" stroke-miterlimit="10"/>
<path d="M872.199 67.8984V817.055" stroke="#3B869D" stroke-miterlimit="10"/>
<path d="M1034.29 67.8984V817.055" stroke="#3B869D" stroke-miterlimit="10"/>
<path d="M92.3711 637.692H1315.41" stroke="#3B869D" stroke-miterlimit="10"/>
<path d="M92.3711 475.606H1315.41" stroke="#3B869D" stroke-miterlimit="10"/>
<path d="M92.3711 313.521H1315.41" stroke="#3B869D" stroke-miterlimit="10"/>
</g>
<path d="M1031.73 314.754C887.443 314.756 762.48 289.157 660.09 238.607C456.633 138.156 202.073 185.424 102.07 210.41C92.8926 212.698 83.6226 207.126 81.3346 197.966C79.0446 188.804 84.6166 179.52 93.7786 177.232C152.832 162.477 244.958 144.524 348.495 142.79C473.507 140.692 583.425 162.617 675.229 207.942C914.317 325.978 1227.33 267.099 1287.65 254.096C1296.87 252.102 1305.98 257.975 1307.97 267.209C1309.96 276.441 1304.09 285.538 1294.86 287.527C1258.74 295.311 1161.99 313.539 1043.77 314.696C1039.75 314.733 1035.72 314.754 1031.73 314.754Z" fill="#728BC4"/>
</g>
<path d="M1155.11 754.319C1155.11 767.055 904.311 777.38 594.943 777.38C285.573 777.38 34.7812 767.055 34.7812 754.319C34.7812 741.582 285.574 731.257 594.943 731.257C904.311 731.257 1155.11 741.582 1155.11 754.319Z" fill="#91A7E2"/>
<path d="M502.332 663.895C506.604 659.171 507.05 655.088 508.623 647.224C510.196 639.36 514.285 632.44 523.092 627.721C531.899 623.003 531.585 612.623 542.594 610.421C553.603 608.219 557.378 611.837 563.669 608.141C569.96 604.445 580.34 604.759 584.115 610.421C587.89 616.083 585.059 624.576 581.284 628.665C577.509 632.754 576.88 637.787 574.049 644.707C571.218 651.627 562.725 654.458 557.692 658.547C552.659 662.636 549.514 673.016 542.279 676.162C535.045 679.307 530.267 677.105 526.207 682.453C522.147 687.8 513.34 691.832 513.34 691.832H485.031C485.031 691.832 491.461 675.918 502.332 663.895Z" fill="#728BC4"/>
<path d="M513.202 691.833C525.346 664.77 525.953 651.084 525.953 639.055C525.953 632.085 527.307 627.429 529.154 622.249C527.59 624.336 525.763 626.29 523.091 627.722C514.284 632.44 510.194 639.36 508.622 647.224C507.049 655.088 506.603 659.171 502.331 663.895C491.46 675.918 485.031 691.833 485.031 691.833H513.202Z" fill="#5975AD"/>
<path d="M572.163 618.371C567.13 623.317 563.041 624.261 557.065 628.665C551.089 633.069 547.314 639.045 542.281 644.392C537.248 649.74 531.527 652.256 526.209 657.603C520.891 662.95 517.186 668.517 511.454 673.33C505.723 678.144 500.445 681.194 500.445 681.194" stroke="#0C193A" stroke-miterlimit="10"/>
<path d="M477.482 659.491C477.482 659.491 474.022 655.442 470.876 651.018C467.73 646.594 466.695 640.391 463.641 634.956C460.587 629.52 460.453 630.238 455.284 623.632C450.115 617.026 449.171 611.367 445.711 605.703C442.251 600.04 437.202 602.234 433.129 595.322C429.056 588.41 424.112 583.264 417.611 584.732C411.11 586.2 404.819 587.46 409.223 605.703C413.627 623.946 414.256 620.486 414.571 634.012C414.886 647.538 424.637 649.74 431.242 659.491C437.847 669.242 436.589 673.96 446.969 678.679C457.349 683.397 465.213 691.833 465.213 691.833H477.481L477.482 659.491Z" fill="#728BC4"/>
<path d="M463.639 634.956C460.585 629.52 460.451 630.238 455.282 623.632C452.915 620.608 451.447 617.787 450.205 615.068C449.851 617.277 448.753 619.84 446.6 623.31C439.68 634.46 456.666 658.713 454.778 667.626C453.948 671.546 453.848 677.339 453.997 682.602C460.693 686.999 465.212 691.833 465.212 691.833H477.48V659.491C477.48 659.491 474.02 655.442 470.874 651.018C467.729 646.595 466.693 640.392 463.639 634.956Z" fill="#5975AD"/>
<path d="M420.445 595.637C420.445 595.637 422.372 604.13 428.224 613.881C434.075 623.632 434.075 625.519 438.164 634.327C442.253 643.134 446.342 648.482 452.004 654.773C457.666 661.064 473.079 676.163 475.281 678.365" stroke="#0C193A" stroke-miterlimit="10"/>
<path d="M470.248 691.833C470.248 691.833 468.361 673.226 470.248 664.314C472.135 655.402 455.15 631.149 462.07 619.999C468.99 608.848 465.027 607.058 460.403 596.315C455.779 585.572 452.445 569.215 460.403 556.633C468.361 544.051 452.914 533.469 455.604 516.427C458.295 499.385 483.459 475.793 483.459 475.793C483.459 475.793 504.219 483.028 507.365 494.981C510.511 506.934 505.478 525.178 516.172 534.615C526.867 544.051 527.496 554.117 524.98 568.587C522.463 583.056 526.238 589.243 522.463 603.45C518.689 617.657 514.285 622.69 514.285 635.272C514.285 647.854 513.656 662.21 499.816 691.835H470.248V691.833Z" fill="#728BC4"/>
<path d="M489.48 498.156C487.593 503.504 486.02 503.818 487.593 514.513C489.166 525.208 489.78 530.87 488.215 536.846C486.65 542.823 494.62 557.606 494.566 565.785C494.513 573.963 491.092 581.512 490.758 589.376C490.424 597.24 494.935 606.676 494.567 618.629C494.199 630.582 489.541 633.727 490.769 642.22C491.997 650.713 488.837 683.025 486.95 691.832" stroke="#0C193A" stroke-miterlimit="10"/>
<path d="M521.743 761.705H459.401C453.437 761.705 448.602 756.87 448.602 750.906V686.144H532.542V750.906C532.542 756.87 527.707 761.705 521.743 761.705Z" fill="#5975AD"/>
<path d="M950.609 594.458V721.676C950.609 731.086 956.848 738.728 964.545 738.728H996.828C1004.51 738.728 1010.75 731.085 1010.75 721.676V594.458H950.609Z" fill="#0C193A"/>
<path d="M967.363 594.458V721.676C967.363 731.086 973.602 738.728 981.299 738.728H996.828C1004.51 738.728 1010.75 731.085 1010.75 721.676V594.458H967.363Z" fill="#0C193A"/>
<path d="M657.493 594.458V721.676C657.493 731.086 651.254 738.728 643.557 738.728H611.274C603.593 738.728 597.355 731.085 597.355 721.676V594.458H657.493Z" fill="#0C193A"/>
<path d="M640.739 594.458V721.676C640.739 731.086 634.501 738.728 626.803 738.728H611.274C603.593 738.728 597.355 731.085 597.355 721.676V594.458H640.739Z" fill="#0C193A"/>
<path d="M989.973 617.096V744.612C989.973 754.044 997.634 761.705 1007.09 761.705H1046.73C1056.16 761.705 1063.82 754.044 1063.82 744.612V617.096H989.973Z" fill="#15244F"/>
<path d="M1010.54 617.096V744.612C1010.54 754.044 1018.2 761.705 1027.66 761.705H1046.73C1056.16 761.705 1063.82 754.044 1063.82 744.612V617.096H1010.54Z" fill="#0C193A"/>
<path d="M618.955 617.096V744.612C618.955 754.044 611.294 761.705 601.841 761.705H562.198C552.766 761.705 545.105 754.044 545.105 744.612V617.096H618.955Z" fill="#15244F"/>
<path d="M598.381 617.096V744.612C598.381 754.044 590.72 761.705 581.268 761.705H562.198C552.766 761.705 545.105 754.044 545.105 744.612V617.096H598.381Z" fill="#0C193A"/>
<path d="M555.281 696.917L600.036 708.333C603.305 709.167 606.666 709.589 610.04 709.589H1006.16C1010.17 709.589 1014.16 708.993 1017.99 707.82L1053.65 696.916L952.506 642.547H601.638L555.281 696.917Z" fill="#D62222"/>
<path d="M1070.12 624.839C1070.12 624.839 1068.06 670.145 1053.65 696.917C1053.65 696.917 1014.52 682.502 998.045 682.502C981.57 682.502 804.464 680.443 804.464 680.443C804.464 680.443 803.002 680.463 800.345 680.505C773.655 680.793 625.855 682.503 610.883 682.503C594.408 682.503 555.28 696.918 555.28 696.918C548.278 683.923 544.201 666.583 541.853 652.168C539.958 640.594 539.176 630.895 538.929 626.858C538.847 625.56 538.805 624.84 538.805 624.84C539.931 542.324 551.161 499.366 555.28 493.188C559.399 487.01 579.993 455.972 579.993 455.972C593.613 421.466 605.633 397.771 614.814 382.062C624.843 364.903 642.275 353.403 662.005 351.005C730.242 342.707 804.464 342.707 804.464 342.707C804.464 342.707 878.686 342.707 946.923 351.005C966.652 353.404 984.085 364.903 994.114 382.062C1003.3 397.772 1015.31 421.467 1028.94 455.972C1028.94 455.972 1046.92 475.476 1051.04 481.654C1055.16 487.831 1063.82 541.944 1070.12 624.839Z" fill="#ED3232"/>
<path d="M1028.93 455.97C808.582 460.089 579.992 455.97 579.992 455.97C593.612 421.464 605.632 397.769 614.813 382.06C624.842 364.901 642.274 353.401 662.004 351.003C730.241 342.705 804.463 342.705 804.463 342.705C804.463 342.705 878.685 342.705 946.922 351.003C966.651 353.402 984.084 364.901 994.113 382.06C1003.29 397.769 1015.31 421.465 1028.93 455.97Z" fill="#ED3232"/>
<path d="M968.83 379.448L972.562 412.45C973.425 420.083 969.941 425.787 963.317 427.438C906.586 441.579 804.465 439.304 804.465 439.304C804.465 439.304 702.344 441.578 645.613 427.438C638.989 425.787 635.505 420.083 636.368 412.45L640.1 379.448C640.959 371.852 650.202 363.924 658.212 363.587C681.563 362.604 729.806 361.074 804.465 361.074C879.124 361.074 927.367 362.604 950.718 363.587C958.728 363.924 967.971 371.852 968.83 379.448Z" fill="#15244F"/>
<path d="M951.002 378.148L953.257 408.473C953.774 415.425 950.515 420.606 944.619 422.103C894.292 434.882 804.466 432.832 804.466 432.832C804.466 432.832 714.64 434.882 664.313 422.103C658.417 420.606 655.158 415.426 655.675 408.473L657.931 378.148C658.455 371.106 666.469 363.731 673.625 363.417C694.491 362.501 737.638 361.074 804.466 361.074C871.295 361.074 914.441 362.501 935.308 363.417C942.464 363.731 950.479 371.106 951.002 378.148Z" fill="#D7E2FF"/>
<path d="M1070 626.851C1069.39 635.945 1066.25 673.511 1053.64 696.917C1053.64 696.917 1014.52 682.503 998.035 682.503C984.204 682.503 856.89 681.034 816.614 680.603C773.171 681.034 624.731 682.503 610.875 682.503C594.41 682.503 555.273 696.917 555.273 696.917C542.684 673.511 539.517 635.945 538.934 626.851C540.935 626.268 568.242 618.567 584.099 616.592C587.797 616.136 600.032 615.579 617.232 614.996C672.251 613.172 777.933 611.222 816.689 612.184C852.659 611.246 942.103 613.096 991.676 614.869C1008.6 615.502 1020.88 616.11 1024.81 616.592C1040.67 618.568 1067.97 626.269 1070 626.851Z" fill="#ED3232"/>
<path d="M895.191 515.115V538.546C895.191 547.462 888.352 554.707 879.916 554.707H728.994C726.613 554.707 724.384 554.15 722.382 553.086C717.24 550.502 713.719 544.955 713.719 538.546V515.115H895.191Z" fill="#D62222"/>
<path d="M895.19 521.145V538.548C895.19 547.464 888.351 554.709 879.915 554.709H728.993C726.612 554.709 724.383 554.152 722.381 553.088C720.912 550.631 720.051 547.718 720.051 544.577V521.145H895.19Z" fill="#D62222"/>
<path d="M861.355 547.159H747.574C737.872 547.159 730.008 539.294 730.008 529.593V515.115H878.922V529.593C878.921 539.295 871.057 547.159 861.355 547.159Z" fill="#D7E2FF"/>
<path d="M659.035 658.207H621.016C615.42 658.207 610.883 662.743 610.883 668.34V682.502H669.167V668.34C669.168 662.744 664.631 658.207 659.035 658.207Z" fill="#FF8D8D"/>
<path d="M988.754 658.207H950.734C945.138 658.207 940.602 662.743 940.602 668.34V682.502H998.885V668.34C998.886 662.744 994.35 658.207 988.754 658.207Z" fill="#FF8D8D"/>
<path d="M991.678 614.869V616.896C991.678 624.369 985.624 630.423 978.151 630.423H630.786C623.314 630.423 617.234 624.369 617.234 616.896V614.996C672.253 613.172 777.935 611.222 816.691 612.184C852.662 611.247 942.105 613.096 991.678 614.869Z" fill="#0C193A"/>
<path d="M937.188 480.547C937.188 487.528 877.765 493.187 804.463 493.187C731.161 493.187 671.738 487.528 671.738 480.547C671.738 473.566 731.161 476.333 804.463 476.333C877.765 476.333 937.188 473.566 937.188 480.547Z" fill="#D62222"/>
<path d="M681.373 573.63H624.733C609.255 573.63 595.298 564.359 589.295 550.098L579.543 526.894H615.513L616.957 533.176H648.064L656.069 555.746C659.841 566.462 669.999 573.63 681.373 573.63Z" fill="#D62222"/>
<path d="M910.59 573.63H967.231C982.708 573.63 996.666 564.359 1002.67 550.098L1012.42 526.894H976.451L975.007 533.176H943.9L935.896 555.746C932.122 566.462 921.964 573.63 910.59 573.63Z" fill="#D62222"/>
<path d="M927.565 575.153H681.374C669.36 575.153 658.613 567.558 654.631 556.252L646.987 534.699H615.743L597.715 456.537L600.684 455.853L618.171 531.653H649.141L657.505 555.238C661.06 565.329 670.652 572.108 681.375 572.108H927.566C938.268 572.108 947.861 565.329 951.436 555.238L959.8 531.653H990.839L1014.62 455.74L1017.53 456.65L993.076 534.699H961.954L954.31 556.255C950.302 567.558 939.552 575.153 927.565 575.153Z" fill="#0C193A"/>
<path d="M577.749 488.667L576.897 489.209C575.89 489.848 575.058 490.7 574.458 491.706C573.587 493.119 573.199 494.823 573.393 496.546L575.949 518.365C576.51 523.108 579.008 527.193 582.59 529.865C585.397 531.956 588.863 533.176 592.579 533.176H648.065L635.462 496.141L631.644 484.901L592.374 481.653C590.767 481.75 589.199 482.253 587.824 483.105L577.749 488.667Z" fill="#FF8D8D"/>
<path d="M635.461 496.141L693.141 507.06L701.192 533.177H648.065L635.461 496.141Z" fill="#FF8D8D"/>
<path d="M693.143 507.059L692.057 504.013C690.809 500.513 687.865 497.89 684.245 497.053L631.645 484.9L635.463 496.14L693.143 507.059Z" fill="url(#paint8_radial_101_249)"/>
<path d="M1031.82 488.667L1021.75 483.104C1020.37 482.252 1018.81 481.749 1017.2 481.652L977.929 484.9L974.111 496.14L961.508 533.175H1016.99C1020.71 533.175 1024.18 531.955 1026.98 529.864C1030.56 527.192 1033.06 523.107 1033.62 518.364L1036.18 496.545C1036.37 494.822 1035.98 493.118 1035.11 491.705C1034.51 490.698 1033.68 489.846 1032.67 489.208L1031.82 488.667Z" fill="#FF8D8D"/>
<path d="M974.11 496.141L916.43 507.06L908.379 533.177H961.507L974.11 496.141Z" fill="#FF8D8D"/>
<path d="M916.43 507.059L917.516 504.013C918.763 500.513 921.708 497.89 925.328 497.053L977.927 484.9L974.109 496.14L916.43 507.059Z" fill="url(#paint9_radial_101_249)"/>
<path d="M782.492 342.706C782.492 342.706 796.939 323.143 804.763 323.143C812.588 323.143 826.432 342.706 826.432 342.706C826.432 342.706 804.161 353.24 782.492 342.706Z" fill="#D62222"/>
<path d="M92.9855 666.565L44.5486 680.624C44.5486 680.624 28.3145 691.615 20.5785 694.076C20.5785 694.076 4.25955 709.309 1.32855 708.269C-1.60345 707.228 0.0865402 696.468 8.71954 685.831C14.3425 678.903 20.4885 670.743 24.0895 665.895C25.8795 663.486 29.1915 662.805 31.7845 664.316L37.6716 667.745C37.6716 667.745 40.4035 667.594 44.6835 664.977C48.9625 662.361 87.4285 640.353 87.4285 640.353L92.9855 666.565Z" fill="#AD6E47"/>
<path d="M375.66 664.008L399.963 715.868C399.963 715.868 415.152 732.142 419.275 740.387C419.275 740.387 439.238 756.01 438.587 759.482C437.936 762.954 425.568 762.954 412.114 755.142C403.351 750.054 393.115 744.598 387.043 741.411C384.025 739.827 382.678 736.232 383.916 733.057L386.726 725.849C386.726 725.849 386.075 722.811 382.386 718.471C378.697 714.131 347.234 674.857 347.234 674.857L375.66 664.008Z" fill="#AD6E47"/>
<path d="M438.585 759.483C439.236 756.011 419.273 740.388 419.273 740.388C418.406 738.655 417.036 736.56 415.435 734.342C401.059 735.645 386.725 725.85 386.725 725.85L383.915 733.058C382.677 736.233 384.024 739.829 387.042 741.412C393.114 744.598 403.35 750.054 412.113 755.143C425.566 762.955 437.934 762.955 438.585 759.483Z" fill="#0C193A"/>
<path d="M261.526 415.701C261.526 415.701 264.708 417.148 264.419 421.777C264.13 426.406 262.104 425.204 259.79 430.29C257.475 435.375 253.425 458.81 253.425 458.81C253.425 458.81 297.296 507.889 316.496 532.007C345.976 569.039 378.988 666.25 378.988 666.25C378.988 666.25 372.189 673.772 360.906 677.244C349.622 680.715 343.547 679.414 336.169 684.188C328.791 688.961 319.244 690.264 319.244 690.264C319.244 690.264 306.659 673.773 294.508 657.281C282.357 640.79 253.425 583.071 253.425 583.071L228.978 571.353C228.978 571.353 216.393 606.071 203.374 629.072C190.354 652.073 146.089 673.338 130.466 682.017C114.843 690.696 84.8991 697.206 84.8991 697.206C84.8991 697.206 77.9551 687.658 80.5591 676.375C83.1631 665.092 78.9561 653.375 79.9751 644.261C79.9751 644.261 113.975 619.091 120.485 611.713C126.995 604.335 127.863 596.09 135.24 595.222C135.24 595.222 151.731 547.919 151.731 534.031C151.731 520.144 148.992 504.967 151.162 480.664C153.332 456.362 167.137 435.519 167.137 435.519C167.137 435.519 159.976 430.637 167.137 426.351C174.297 422.066 261.526 415.701 261.526 415.701Z" fill="#F59D00"/>
<path d="M253.425 459.756C253.303 459.756 253.181 459.732 253.063 459.683C252.775 459.564 246.017 456.74 241.958 454.423C238.086 452.207 231.31 450.781 231.243 450.767C230.731 450.66 230.403 450.159 230.508 449.647C230.616 449.134 231.141 448.814 231.629 448.913C231.917 448.974 238.767 450.417 242.9 452.78C246.853 455.038 253.72 457.906 253.788 457.934C254.272 458.136 254.499 458.69 254.3 459.173C254.147 459.538 253.794 459.756 253.425 459.756Z" fill="#B57400"/>
<path d="M151.432 478.377C151.341 479.14 151.228 479.894 151.16 480.664C148.99 504.967 151.73 520.144 151.73 534.031C151.73 547.918 135.239 595.222 135.239 595.222C127.861 596.09 126.994 604.335 120.484 611.713C114.991 617.938 89.9226 636.833 82.2266 642.583C82.2266 642.583 102.691 641.657 117.012 630.374C131.333 619.091 134.371 614.317 147.824 610.845C161.277 607.373 186.448 603.033 186.448 603.033C195.127 586.542 228.978 571.353 228.978 571.353C213.789 563.975 189.486 541.843 176.033 530.559C162.605 519.299 149.898 503.636 151.432 478.377Z" fill="#B57400"/>
<path d="M184.712 620.472C184.634 620.472 184.556 620.462 184.478 620.443C167.343 616.103 155.141 606.696 155.019 606.601C154.609 606.279 154.535 605.685 154.856 605.273C155.178 604.858 155.771 604.787 156.184 605.107C156.303 605.2 168.21 614.369 184.945 618.607C185.45 618.736 185.758 619.251 185.629 619.757C185.522 620.186 185.136 620.472 184.712 620.472Z" fill="#B57400"/>
<path d="M171.471 627.919C169.201 627.919 166.027 625.436 165.017 624.592C164.617 624.257 164.563 623.66 164.895 623.259C165.234 622.859 165.83 622.805 166.23 623.139C168.141 624.731 170.827 626.327 171.66 626.003C171.691 625.993 171.785 625.957 171.843 625.644C172.155 623.981 164.946 618.991 158.014 615.373C157.55 615.132 157.37 614.56 157.611 614.098C157.855 613.63 158.431 613.451 158.888 613.697C162.547 615.604 174.427 622.132 173.706 625.994C173.479 627.195 172.727 627.632 172.3 627.786C172.044 627.878 171.763 627.919 171.471 627.919Z" fill="#B57400"/>
<path d="M164.531 636.529C164.226 636.529 163.925 636.38 163.742 636.104L149.852 615.056C149.564 614.619 149.683 614.033 150.12 613.745C150.55 613.459 151.14 613.574 151.431 614.013L165.321 635.061C165.609 635.498 165.49 636.084 165.053 636.372C164.893 636.479 164.711 636.529 164.531 636.529Z" fill="#B57400"/>
<path d="M255.451 580.402C255.224 580.402 254.997 580.321 254.817 580.158C254.427 579.807 254.397 579.209 254.749 578.822C262.005 570.778 279.157 552.181 282.65 552.181C282.677 552.181 282.704 552.183 282.728 552.184C283.348 552.242 283.826 552.579 284.042 553.111C284.967 555.381 279.12 562.729 275.549 566.906C275.21 567.301 274.611 567.351 274.218 567.011C273.818 566.671 273.771 566.074 274.113 565.676C277.826 561.326 281.698 556.004 282.22 554.185C279.327 555.532 266.982 568.085 256.152 580.089C255.966 580.297 255.708 580.402 255.451 580.402Z" fill="#B57400"/>
<path d="M260.659 582.428C260.253 582.428 259.876 582.164 259.751 581.754C259.602 581.253 259.886 580.724 260.388 580.575C261.218 580.326 280.812 574.464 287.778 573.883C294.445 573.327 298.697 571.385 298.737 571.364C299.201 571.147 299.774 571.347 299.994 571.823C300.214 572.297 300.011 572.86 299.537 573.08C299.354 573.166 294.964 575.184 287.934 575.77C281.169 576.334 261.134 582.329 260.931 582.388C260.842 582.414 260.747 582.428 260.659 582.428Z" fill="#B57400"/>
<path d="M250.533 573.169C250.038 573.169 249.625 572.788 249.588 572.29C249.564 571.934 249.039 563.541 254.934 559.688C260.226 556.229 265.639 549.154 265.693 549.083C266.008 548.665 266.608 548.585 267.018 548.902C267.435 549.219 267.516 549.813 267.198 550.228C266.971 550.53 261.537 557.634 255.971 561.274C250.994 564.524 251.472 572.081 251.479 572.155C251.516 572.677 251.123 573.131 250.602 573.166C250.577 573.168 250.553 573.169 250.533 573.169Z" fill="#B57400"/>
<path d="M262.407 426.351C263.475 425.208 264.247 424.484 264.417 421.776C264.706 417.147 261.524 415.7 261.524 415.7C261.524 415.7 174.295 422.065 167.134 426.351C159.973 430.637 167.134 435.519 167.134 435.519C167.134 435.519 158.324 448.852 153.676 466.611C170.378 487.687 217.911 443.113 228.976 436.821C240.041 430.528 248.721 435.953 262.407 426.351Z" fill="#B57400"/>
<path d="M79.8685 429.115C79.8685 429.115 56.7624 449.178 53.5534 451.532C50.3444 453.886 39.0045 455.383 36.8655 458.806C34.7255 462.229 39.0045 468.22 39.4325 472.713C39.8605 477.206 48.6314 472.713 48.6314 472.713C48.6314 472.713 55.0965 473.355 58.0685 470.36C61.0415 467.365 62.7525 460.09 62.7525 460.09L92.0635 441.476C92.0635 441.476 91.2085 427.451 79.8685 429.115Z" fill="#AD6E47"/>
<path d="M183.831 388.785L182.117 388.514C182.236 387.775 185.122 370.298 196.925 359.37L198.104 360.644C186.737 371.169 183.858 388.61 183.831 388.785Z" fill="#0C193A"/>
<path d="M87.4167 419.506L77.7188 429.294C77.7188 429.294 80.4998 437.986 90.3188 445.935L100.786 438.957C100.786 438.957 96.9577 417.667 87.4167 419.506Z" fill="#F59D00"/>
<path d="M192.628 322.471C206.161 317.096 223.95 299.519 248.694 298.166C273.438 296.813 296.025 306.629 310.781 319.865C325.536 333.102 341.376 343.372 345.499 348.435C349.622 353.498 357.216 354.366 358.301 358.272C359.386 362.178 366.33 358.055 368.066 360.008C369.802 361.961 385.208 358.055 392.586 362.612C392.586 362.612 404.954 381.924 401.699 388.651C398.444 395.378 389.981 412.953 370.887 413.605C351.792 414.256 352.66 410.568 343.547 406.661C334.433 402.755 318.593 399.501 311.215 390.387C303.838 381.274 284.092 374.981 282.573 371.509C282.573 371.509 272.157 387.132 270.422 397.222C268.686 407.312 274.395 411.218 263.838 417.293C253.28 423.369 223.987 429.227 203.156 430.746C182.325 432.265 169.638 433.784 164.264 426.623C158.891 419.463 167.136 410.132 167.136 410.132C167.136 410.132 168.655 382.792 175.599 374.329C182.54 365.867 184.168 325.831 192.628 322.471Z" fill="#ED3232"/>
<path d="M268.939 348.896L268.787 348.854C258.749 346.091 254.941 339.809 254.786 339.543L254.59 339.213L254.895 338.978C254.956 338.934 260.749 334.396 259.502 326.516C259.245 324.873 258.489 323.697 257.259 323.018C253.475 320.928 246.432 323.923 246.364 323.953L246.046 324.09L245.843 323.812C238.441 313.798 240.819 299.324 240.846 299.18L241.7 299.326C241.676 299.467 239.403 313.322 246.341 323.025C247.832 322.432 253.97 320.21 257.676 322.258C259.153 323.073 260.058 324.46 260.362 326.381C261.514 333.683 256.984 338.29 255.734 339.405C256.622 340.679 260.524 345.633 268.865 347.976C270.135 347.385 279.492 342.954 282.111 339.469C281.03 337.938 275.905 330.253 279.143 326.735C281.914 323.718 285.105 323.935 286.352 324.174C286.396 321.889 286.081 312.32 278.459 303.285L279.123 302.726C288.053 313.309 287.206 324.643 287.199 324.756L287.152 325.3L286.63 325.132C286.481 325.083 282.873 323.97 279.78 327.32C276.734 330.633 282.931 339.124 282.992 339.209L283.172 339.455L283.006 339.707C280.364 343.664 269.543 348.622 269.083 348.83L268.939 348.896Z" fill="#0C193A"/>
<path d="M395.291 358.588C395.291 358.588 386.299 360.244 384.169 363.084C382.039 365.923 377.543 372.786 384.169 383.198C390.795 393.61 398.367 392.19 400.734 390.534C403.1 388.878 409.726 382.016 406.65 372.786C403.573 363.558 401.207 358.588 395.291 358.588Z" fill="#F59D00"/>
<path d="M334 395.304C330.384 387.059 330.239 383.762 323.729 378.828C317.219 373.894 309.697 370.567 307.672 355.812C305.647 341.057 297.72 322.382 297.257 327.892C296.622 335.439 296.809 339.863 296.375 349.699C295.941 359.536 284.817 365.214 282.574 371.507C284.093 374.978 303.839 381.271 311.216 390.385C318.594 399.499 334.434 402.753 343.548 406.659C344.45 407.045 345.233 407.428 345.969 407.807L345.977 407.808C345.977 407.808 337.616 403.55 334 395.304Z" fill="#C61717"/>
<path d="M350.201 376.807C349.91 370.684 351.055 366.332 353.602 363.875C355.858 361.698 358.374 361.873 358.483 361.89L358.413 362.754C358.386 362.761 356.157 362.607 354.189 364.516C351.872 366.764 350.794 371 351.069 376.768L350.201 376.807Z" fill="#0C193A"/>
<path d="M339.512 367.394C339.095 367.394 338.699 367.321 338.35 367.143C337.649 366.787 337.256 366.086 337.181 365.061C336.954 361.98 339.759 361.704 343.004 361.384C344.525 361.235 346.246 361.064 347.913 360.601C352.679 359.278 353.255 357.864 353.259 357.85L354.092 358.096C354.041 358.284 353.438 359.968 348.143 361.438C346.409 361.921 344.644 362.095 343.089 362.248C339.667 362.585 337.889 362.861 338.048 364.997C338.099 365.708 338.326 366.157 338.742 366.371C339.874 366.949 342.218 365.783 343.024 365.28L343.485 366.019C343.212 366.186 341.209 367.394 339.512 367.394Z" fill="#0C193A"/>
<path d="M392.586 362.611C392.586 362.611 438.298 337.441 439.889 335.56C441.48 333.68 440.178 325.145 445.241 322.83C450.304 320.515 451.751 322.975 452.33 329.484C452.908 335.994 445.965 343.661 445.965 343.661C445.965 343.661 408.643 377.656 404.448 382.429C400.253 387.203 394.467 383.297 390.561 376.787C386.655 370.278 387.417 366.279 392.586 362.611Z" fill="#AD6E47"/>
<path d="M443.469 338.417V337.55C444.191 337.55 444.794 337.296 445.315 336.774C447.131 334.955 447.144 330.651 447.144 330.607L447.141 328.669L447.971 330.422C447.974 330.432 448.476 331.476 449.289 331.836C449.509 331.594 449.57 329.414 448.713 327.413C448.252 326.337 447.632 326.309 446.846 326.273C446.219 326.244 445.508 326.212 444.979 325.563L445.65 325.014C445.921 325.346 446.28 325.378 446.887 325.405C447.71 325.442 448.835 325.493 449.512 327.07C450.291 328.891 450.606 331.709 449.824 332.478C449.59 332.715 449.251 332.771 448.936 332.627C448.54 332.451 448.208 332.173 447.94 331.887C447.794 333.428 447.337 335.974 445.928 337.385C445.248 338.072 444.421 338.417 443.469 338.417Z" fill="#704226"/>
<path d="M234.68 426.618L233.996 426.083C240.158 418.19 241.872 408.792 243.688 398.843C244.305 395.46 244.945 391.963 245.768 388.548C247.767 380.279 251.581 378.348 255.616 376.305C258.204 374.996 260.88 373.641 263.509 370.575C268.208 365.089 268.164 360.393 268.113 355.422C268.089 353.174 268.066 350.847 268.475 348.365L269.329 348.504C268.936 350.914 268.96 353.201 268.98 355.413C269.031 360.552 269.082 365.405 264.166 371.14C261.429 374.336 258.549 375.793 256.008 377.08C251.987 379.114 248.518 380.871 246.614 388.751C245.791 392.144 245.157 395.628 244.541 398.999C242.709 409.057 240.974 418.556 234.68 426.618Z" fill="#0C193A"/>
<path d="M211.401 381.923C219.646 373.244 234.835 367.168 238.308 355.451C241.78 343.734 238.525 343.734 237.223 333.101C235.921 322.469 231.581 323.553 222.855 320.374L183.461 346.905C181.161 358.267 179.028 370.149 175.599 374.329C168.655 382.792 167.136 410.132 167.136 410.132C167.136 410.132 158.891 419.463 164.264 426.623C165.507 428.279 167.159 429.454 169.193 430.289C189.337 430.532 203.765 389.961 211.401 381.923Z" fill="#C61717"/>
<path d="M1.3287 708.268C4.2597 709.308 20.5787 694.075 20.5787 694.075C22.2047 693.557 24.2157 692.652 26.3627 691.562C27.1927 678.877 37.6728 667.744 37.6728 667.744L31.7857 664.315C29.1927 662.804 25.8807 663.485 24.0907 665.894C20.4897 670.741 14.3447 678.901 8.72073 685.829C0.0857286 696.467 -1.6033 707.227 1.3287 708.268Z" fill="#0C193A"/>
<path d="M292.337 243.919C303.186 243.991 306.079 246.306 306.658 251.658C307.237 257.01 304.054 259.036 304.633 262.941C305.212 266.847 309.696 270.463 309.841 276.973C309.985 283.483 318.086 292.018 315.193 302.867C315.193 302.867 311.721 302.578 305.211 304.748C298.701 306.918 295.23 305.616 289.299 304.748C283.368 303.88 273.222 301.809 270.983 302.162C268.745 302.516 257.261 299.974 257.729 289.124C258.198 278.275 292.337 243.919 292.337 243.919Z" fill="#0C193A"/>
<path d="M287.563 248.476C293.725 251.376 293.856 256.721 294.29 261.278C294.724 265.835 296.895 270.392 301.235 271.043C301.235 271.043 299.715 276.467 299.498 280.807C299.281 285.147 300.584 288.402 297.329 290.138C294.074 291.874 283.876 293.393 283.876 293.393L275.196 311.62C275.196 311.62 278.684 330.065 270.423 341.998C268.47 344.819 269.337 330.064 267.818 323.988C266.299 317.912 255.667 307.28 250.676 299.902C245.685 292.524 250.898 266.92 257.73 259.759C264.563 252.599 276.497 243.269 287.563 248.476Z" fill="#AD6E47"/>
<path d="M262.935 288.727C262.935 288.727 259.608 295.958 275.194 311.619L283.874 293.392C271.18 295.779 262.935 288.727 262.935 288.727Z" fill="#15244F"/>
<path d="M290.6 250.862C283.518 253.061 278.232 252.598 277.581 261.928C276.93 271.258 277.581 275.598 275.628 275.381C273.675 275.164 273.024 269.956 269.986 268.003C266.948 266.05 264.561 268.654 264.127 273.211C263.693 277.768 266.731 279.938 271.288 279.287L274.109 302.288C274.109 302.288 273.158 301.203 264.086 303.59C255.014 305.977 250.891 309.449 242.212 304.675C233.532 299.901 234.617 300.77 226.155 300.335C217.693 299.901 216.391 291.872 224.636 281.24C232.881 270.608 231.58 263.013 238.523 258.239C245.467 253.465 237.438 251.078 252.193 247.824C266.948 244.569 285.392 244.352 292.336 243.918C299.28 243.484 296.312 249.088 290.6 250.862Z" fill="#0C193A"/>
<path d="M85.0742 421.372C85.0742 421.372 86.6342 400.802 105.729 384.31C124.824 367.819 139.145 363.045 153.466 350.894C167.787 338.743 195.128 314.006 215.524 317.912C235.921 321.818 238.091 342.214 229.845 356.102C221.6 369.989 189.051 388.217 182.542 396.462C176.032 404.707 161.711 409.047 161.711 409.047C161.711 409.047 140.28 434.156 130.899 436.822C111.804 442.247 97.4832 439.425 97.4832 439.425C97.4832 439.425 89.4742 433.181 85.0742 421.372Z" fill="#ED3232"/>
<path d="M162.803 404.44C162.745 404.408 161.367 403.644 161.028 401.64C160.533 398.698 162.479 394.812 166.815 390.093L167.451 390.679C162.312 396.277 161.584 399.634 161.878 401.465C162.135 403.056 163.175 403.652 163.219 403.675L162.803 404.44Z" fill="#0C193A"/>
<path d="M158.453 393.206H157.586V407.311H158.453V393.206Z" fill="#0C193A"/>
<g opacity="0.77">
<path d="M525.351 318.693C609.997 318.693 678.616 250.074 678.616 165.428C678.616 80.7822 609.997 12.1631 525.351 12.1631C440.705 12.1631 372.086 80.7822 372.086 165.428C372.086 250.074 440.705 318.693 525.351 318.693Z" fill="#E1F2F9"/>
</g>
<path d="M397.371 439.462L426.379 451.226L482.72 312.291L453.713 300.528L397.371 439.462Z" fill="#0C193A"/>
<path d="M362.851 546.803L376.355 552.278C389.246 557.505 403.934 551.292 409.162 538.401L451.727 433.426L391.539 409.021L348.974 513.996C343.746 526.887 349.96 541.576 362.851 546.803Z" fill="#728BC4"/>
<path d="M463.22 318.651C378.734 284.393 337.871 187.787 372.126 103.302C388.725 62.3735 420.262 30.3596 460.938 13.1526C501.579 -4.05244 546.547 -4.38844 587.477 12.2066C628.404 28.8026 660.419 60.3426 677.625 101.016C694.831 141.689 695.167 186.628 678.572 227.558C659.541 274.488 621.274 307.956 576.534 322.567C540.727 334.262 500.777 333.88 463.22 318.651ZM470.886 36.6716C436.494 51.2186 409.824 78.2896 395.793 112.898C366.825 184.334 401.379 266.019 472.817 294.987C544.256 323.957 625.944 289.399 654.906 217.963C668.941 183.356 668.656 145.356 654.107 110.965C639.561 76.5716 612.489 49.9026 577.881 35.8746C547.02 23.3596 513.46 22.2306 482.169 32.4496C478.372 33.6886 474.607 35.0976 470.886 36.6716Z" fill="#839ADD"/>
<path d="M422.885 135.076C425.864 151.228 428.843 167.38 431.821 183.532C432.662 188.094 431.186 193.354 426.121 194.76C421.98 195.91 415.797 193.967 414.892 189.06C411.913 172.908 408.934 156.756 405.956 140.604C405.115 136.042 406.591 130.782 411.656 129.376C415.797 128.226 421.98 130.17 422.885 135.076Z" fill="white"/>
<path d="M452.881 220.863C457.248 225.428 460.697 231.011 461.932 237.278C462.357 238.429 462.468 239.595 462.268 240.777C462.269 241.938 461.982 243.036 461.408 244.073C460.419 246.021 458.372 247.913 456.232 248.507C454.011 249.124 451.506 249.146 449.437 247.983C448.809 247.556 448.182 247.129 447.554 246.702C446.357 245.632 445.507 244.334 445.003 242.807C444.588 240.703 443.912 238.674 442.99 236.738C443.336 237.455 443.681 238.172 444.027 238.889C443.05 236.888 441.83 235.032 440.374 233.346C440.879 233.927 441.383 234.508 441.888 235.089C441.616 234.78 441.338 234.478 441.054 234.181C440.118 233.411 439.441 232.472 439.022 231.362C438.403 230.319 438.086 229.178 438.071 227.937C437.971 225.797 438.794 223.174 440.309 221.608C441.934 219.929 444.144 218.631 446.553 218.625C448.763 218.619 451.295 219.205 452.881 220.863Z" fill="white"/>
<path d="M384.345 479.985C383.269 492.015 379.252 503.824 372.801 514.033C371.559 515.999 369.046 517.242 366.816 515.988C364.876 514.896 363.533 512.105 364.861 510.003C371.118 500.101 374.589 489.857 375.641 478.1C375.849 475.771 378.809 474.132 380.935 474.691C383.504 475.366 384.568 477.494 384.345 479.985Z" fill="white"/>
<defs>
<linearGradient id="paint0_linear_101_249" x1="286.319" y1="682.415" x2="136.65" y2="195.471" gradientUnits="userSpaceOnUse">
<stop stop-color="#FDFDFE" stop-opacity="0"/>
<stop offset="0.1996" stop-color="#FAFBFC" stop-opacity="0.1996"/>
<stop offset="0.3599" stop-color="#F0F4F6" stop-opacity="0.3599"/>
<stop offset="0.5066" stop-color="#DFE9EB" stop-opacity="0.5066"/>
<stop offset="0.6452" stop-color="#C7DADD" stop-opacity="0.6452"/>
<stop offset="0.7781" stop-color="#A8C6CA" stop-opacity="0.7781"/>
<stop offset="0.9049" stop-color="#83AEB3" stop-opacity="0.9049"/>
<stop offset="1" stop-color="#62989E"/>
</linearGradient>
<linearGradient id="paint1_linear_101_249" x1="327.53" y1="624.713" x2="184.238" y2="158.621" gradientUnits="userSpaceOnUse">
<stop stop-color="#FDFDFE" stop-opacity="0"/>
<stop offset="0.1996" stop-color="#FAFBFC" stop-opacity="0.1996"/>
<stop offset="0.3599" stop-color="#F0F4F6" stop-opacity="0.3599"/>
<stop offset="0.5066" stop-color="#DFE9EB" stop-opacity="0.5066"/>
<stop offset="0.6452" stop-color="#C7DADD" stop-opacity="0.6452"/>
<stop offset="0.7781" stop-color="#A8C6CA" stop-opacity="0.7781"/>
<stop offset="0.9049" stop-color="#83AEB3" stop-opacity="0.9049"/>
<stop offset="1" stop-color="#62989E"/>
</linearGradient>
<linearGradient id="paint2_linear_101_249" x1="570.783" y1="672.057" x2="421.114" y2="185.113" gradientUnits="userSpaceOnUse">
<stop stop-color="#FDFDFE" stop-opacity="0"/>
<stop offset="0.1996" stop-color="#FAFBFC" stop-opacity="0.1996"/>
<stop offset="0.3599" stop-color="#F0F4F6" stop-opacity="0.3599"/>
<stop offset="0.5066" stop-color="#DFE9EB" stop-opacity="0.5066"/>
<stop offset="0.6452" stop-color="#C7DADD" stop-opacity="0.6452"/>
<stop offset="0.7781" stop-color="#A8C6CA" stop-opacity="0.7781"/>
<stop offset="0.9049" stop-color="#83AEB3" stop-opacity="0.9049"/>
<stop offset="1" stop-color="#62989E"/>
</linearGradient>
<linearGradient id="paint3_linear_101_249" x1="611.995" y1="614.355" x2="468.703" y2="148.263" gradientUnits="userSpaceOnUse">
<stop stop-color="#FDFDFE" stop-opacity="0"/>
<stop offset="0.1996" stop-color="#FAFBFC" stop-opacity="0.1996"/>
<stop offset="0.3599" stop-color="#F0F4F6" stop-opacity="0.3599"/>
<stop offset="0.5066" stop-color="#DFE9EB" stop-opacity="0.5066"/>
<stop offset="0.6452" stop-color="#C7DADD" stop-opacity="0.6452"/>
<stop offset="0.7781" stop-color="#A8C6CA" stop-opacity="0.7781"/>
<stop offset="0.9049" stop-color="#83AEB3" stop-opacity="0.9049"/>
<stop offset="1" stop-color="#62989E"/>
</linearGradient>
<linearGradient id="paint4_linear_101_249" x1="907.537" y1="687.792" x2="757.868" y2="200.848" gradientUnits="userSpaceOnUse">
<stop stop-color="#FDFDFE" stop-opacity="0"/>
<stop offset="0.1996" stop-color="#FAFBFC" stop-opacity="0.1996"/>
<stop offset="0.3599" stop-color="#F0F4F6" stop-opacity="0.3599"/>
<stop offset="0.5066" stop-color="#DFE9EB" stop-opacity="0.5066"/>
<stop offset="0.6452" stop-color="#C7DADD" stop-opacity="0.6452"/>
<stop offset="0.7781" stop-color="#A8C6CA" stop-opacity="0.7781"/>
<stop offset="0.9049" stop-color="#83AEB3" stop-opacity="0.9049"/>
<stop offset="1" stop-color="#62989E"/>
</linearGradient>
<linearGradient id="paint5_linear_101_249" x1="948.749" y1="630.09" x2="805.457" y2="163.998" gradientUnits="userSpaceOnUse">
<stop stop-color="#FDFDFE" stop-opacity="0"/>
<stop offset="0.1996" stop-color="#FAFBFC" stop-opacity="0.1996"/>
<stop offset="0.3599" stop-color="#F0F4F6" stop-opacity="0.3599"/>
<stop offset="0.5066" stop-color="#DFE9EB" stop-opacity="0.5066"/>
<stop offset="0.6452" stop-color="#C7DADD" stop-opacity="0.6452"/>
<stop offset="0.7781" stop-color="#A8C6CA" stop-opacity="0.7781"/>
<stop offset="0.9049" stop-color="#83AEB3" stop-opacity="0.9049"/>
<stop offset="1" stop-color="#62989E"/>
</linearGradient>
<linearGradient id="paint6_linear_101_249" x1="1231.7" y1="672.057" x2="1082.03" y2="185.113" gradientUnits="userSpaceOnUse">
<stop stop-color="#FDFDFE" stop-opacity="0"/>
<stop offset="0.1996" stop-color="#FAFBFC" stop-opacity="0.1996"/>
<stop offset="0.3599" stop-color="#F0F4F6" stop-opacity="0.3599"/>
<stop offset="0.5066" stop-color="#DFE9EB" stop-opacity="0.5066"/>
<stop offset="0.6452" stop-color="#C7DADD" stop-opacity="0.6452"/>
<stop offset="0.7781" stop-color="#A8C6CA" stop-opacity="0.7781"/>
<stop offset="0.9049" stop-color="#83AEB3" stop-opacity="0.9049"/>
<stop offset="1" stop-color="#62989E"/>
</linearGradient>
<linearGradient id="paint7_linear_101_249" x1="1272.91" y1="614.355" x2="1129.62" y2="148.263" gradientUnits="userSpaceOnUse">
<stop stop-color="#FDFDFE" stop-opacity="0"/>
<stop offset="0.1996" stop-color="#FAFBFC" stop-opacity="0.1996"/>
<stop offset="0.3599" stop-color="#F0F4F6" stop-opacity="0.3599"/>
<stop offset="0.5066" stop-color="#DFE9EB" stop-opacity="0.5066"/>
<stop offset="0.6452" stop-color="#C7DADD" stop-opacity="0.6452"/>
<stop offset="0.7781" stop-color="#A8C6CA" stop-opacity="0.7781"/>
<stop offset="0.9049" stop-color="#83AEB3" stop-opacity="0.9049"/>
<stop offset="1" stop-color="#62989E"/>
</linearGradient>
<radialGradient id="paint8_radial_101_249" cx="0" cy="0" r="1" gradientUnits="userSpaceOnUse" gradientTransform="translate(662.394 495.98) scale(23.1111 23.1111)">
<stop stop-color="#FF0050"/>
<stop offset="0.3019" stop-color="#FA1348"/>
<stop offset="0.7183" stop-color="#F52740"/>
<stop offset="1" stop-color="#F32E3D"/>
</radialGradient>
<radialGradient id="paint9_radial_101_249" cx="0" cy="0" r="1" gradientUnits="userSpaceOnUse" gradientTransform="translate(947.178 495.98) scale(23.1111 23.1111)">
<stop stop-color="#FF0050"/>
<stop offset="0.3019" stop-color="#FA1348"/>
<stop offset="0.7183" stop-color="#F52740"/>
<stop offset="1" stop-color="#F32E3D"/>
</radialGradient>
</defs>
</svg>
