<svg width="750" height="507" viewBox="0 0 750 507" fill="none" xmlns="http://www.w3.org/2000/svg">
<path d="M295.923 409.18C313.48 433.281 335.738 453.719 361.182 469.584H624.803C708.045 417.613 751.606 319.156 723.267 221.695C690.582 109.289 570.359 38.5681 448.899 60.1212C428.401 63.7585 409.046 69.7447 391.068 77.718C368.138 87.8877 341.639 86.976 318.629 76.9679C285.074 62.3734 246.046 58.2591 207.165 68.0602C124.152 88.9875 71.7934 168.165 88.2686 247.699C102.43 316.063 161.79 364.693 230.873 372.245C257.218 375.126 280.905 388.565 295.923 409.18Z" fill="#E1EDFF"/>
<mask id="mask0_106_755" style="mask-type:luminance" maskUnits="userSpaceOnUse" x="85" y="56" width="647" height="452">
<path d="M448.892 60.1251C428.395 63.7624 409.039 69.7486 391.06 77.7219C368.131 87.8916 341.632 86.9799 318.622 76.9718C285.067 62.3773 246.039 58.263 207.158 68.0641C124.144 88.9908 71.7856 168.169 88.2608 247.703C102.422 316.067 161.782 364.697 230.866 372.249C257.211 375.129 280.898 388.569 295.916 409.184C349.352 482.537 446.337 521.981 544.182 501.707C677.158 474.155 759.723 347.1 723.259 221.699C690.575 109.293 570.352 38.572 448.892 60.1251Z" fill="white"/>
</mask>
<g mask="url(#mask0_106_755)">
<path d="M838.399 165.83V449.612H63.5781V118.685C137.785 101.2 300.41 74.7477 433.502 136.721C590.673 209.898 792.296 175.201 838.399 165.83Z" fill="#CBDAF4"/>
<g opacity="0.5">
<mask id="mask1_106_755" style="mask-type:luminance" maskUnits="userSpaceOnUse" x="63" y="97" width="776" height="353">
<path d="M838.403 165.832V449.614H63.582V118.687C137.789 101.201 300.414 74.7497 433.506 136.723C590.677 209.9 792.299 175.203 838.403 165.832Z" fill="white"/>
</mask>
<g mask="url(#mask1_106_755)">
<path opacity="0.5" d="M227.922 621.285L264.279 611.314L107.071 101.478L70.7148 111.448L227.922 621.285Z" fill="url(#paint0_linear_106_755)"/>
<path opacity="0.5" d="M274.172 608.601L288.288 604.73L131.08 94.8926L116.965 98.7638L274.172 608.601Z" fill="url(#paint1_linear_106_755)"/>
<path opacity="0.5" d="M412.621 614.942L448.978 604.971L291.77 95.1348L255.414 105.105L412.621 614.942Z" fill="url(#paint2_linear_106_755)"/>
<path opacity="0.5" d="M458.871 602.258L472.987 598.387L315.78 88.5498L301.664 92.421L458.871 602.258Z" fill="url(#paint3_linear_106_755)"/>
<path opacity="0.5" d="M631.278 624.578L667.634 614.607L510.427 104.771L474.07 114.741L631.278 624.578Z" fill="url(#paint4_linear_106_755)"/>
<path opacity="0.5" d="M677.528 611.894L691.643 608.023L534.436 98.1855L520.32 102.057L677.528 611.894Z" fill="url(#paint5_linear_106_755)"/>
<path opacity="0.5" d="M841.754 614.942L878.111 604.971L720.903 95.1348L684.547 105.105L841.754 614.942Z" fill="url(#paint6_linear_106_755)"/>
<path opacity="0.5" d="M888.004 602.258L902.12 598.387L744.912 88.5498L730.797 92.421L888.004 602.258Z" fill="url(#paint7_linear_106_755)"/>
</g>
</g>
<path d="M838.4 167.141C837.628 167.142 836.845 167.215 836.06 167.375C796.895 175.337 593.656 211.391 438.418 139.113C378.811 111.359 307.441 97.9333 226.272 99.218C160.592 100.256 101.997 110.772 63.5781 119.681V140.927C64.467 140.926 65.3682 140.837 66.2695 140.625C131.2 125.325 296.484 96.381 428.588 157.891C495.069 188.845 576.206 204.52 669.89 204.519C672.481 204.519 675.099 204.506 677.71 204.483C752.042 203.798 813.308 193.308 838.399 188.317L838.4 167.141Z" fill="#5775B2"/>
<mask id="mask2_106_755" style="mask-type:luminance" maskUnits="userSpaceOnUse" x="63" y="97" width="776" height="353">
<path d="M838.403 165.832V449.614H63.582V118.687C137.789 101.201 300.414 74.7497 433.506 136.723C590.677 209.9 792.299 175.203 838.403 165.832Z" fill="white"/>
</mask>
<g mask="url(#mask2_106_755)">
<path d="M145.348 41.5781V500.316" stroke="#3B869D" stroke-miterlimit="10"/>
<path d="M250.59 41.5781V500.316" stroke="#3B869D" stroke-miterlimit="10"/>
<path d="M355.832 41.5781V500.316" stroke="#3B869D" stroke-miterlimit="10"/>
<path d="M461.074 41.5781V500.316" stroke="#3B869D" stroke-miterlimit="10"/>
<path d="M566.312 41.5781V500.316" stroke="#3B869D" stroke-miterlimit="10"/>
<path d="M671.555 41.5781V500.316" stroke="#3B869D" stroke-miterlimit="10"/>
<path d="M59.9766 390.485H854.087" stroke="#3B869D" stroke-miterlimit="10"/>
<path d="M59.9766 291.233H854.087" stroke="#3B869D" stroke-miterlimit="10"/>
<path d="M59.9766 191.982H854.087" stroke="#3B869D" stroke-miterlimit="10"/>
</g>
<path d="M669.89 192.737C576.207 192.738 495.069 177.063 428.588 146.109C296.485 84.5992 131.201 113.543 66.2697 128.843C60.3111 130.244 54.2922 126.832 52.8066 121.223C51.3197 115.613 54.9376 109.928 60.8864 108.527C99.2291 99.4919 159.046 88.4985 226.272 87.4367C307.441 86.152 378.81 99.5776 438.418 127.332C593.656 199.61 796.895 163.556 836.06 155.594C842.047 154.373 847.96 157.969 849.252 163.623C850.544 169.276 846.733 174.847 840.738 176.065C817.29 180.831 754.465 191.993 677.71 192.702C675.1 192.724 672.481 192.737 669.89 192.737Z" fill="#728BC4"/>
</g>
<path d="M750 461.899C750 469.698 587.162 476.02 386.291 476.02C185.419 476.02 22.582 469.698 22.582 461.899C22.582 454.1 185.42 447.777 386.291 447.777C587.162 447.777 750 454.1 750 461.899Z" fill="#91A7E2"/>
<path d="M326.159 406.53C328.933 403.637 329.223 401.137 330.244 396.322C331.265 391.506 333.92 387.269 339.639 384.379C345.357 381.49 345.153 375.134 352.301 373.786C359.449 372.438 361.9 374.653 365.985 372.39C370.07 370.127 376.809 370.319 379.26 373.786C381.711 377.253 379.873 382.454 377.422 384.957C374.971 387.461 374.563 390.543 372.725 394.781C370.886 399.018 365.372 400.752 362.104 403.255C358.836 405.759 356.794 412.115 352.097 414.042C347.4 415.968 344.297 414.619 341.661 417.894C339.025 421.168 333.307 423.637 333.307 423.637H314.926C314.926 423.637 319.101 413.892 326.159 406.53Z" fill="#728BC4"/>
<path d="M333.217 423.637C341.102 407.066 341.496 398.685 341.496 391.319C341.496 387.051 342.375 384.2 343.574 381.028C342.559 382.306 341.373 383.503 339.638 384.38C333.919 387.269 331.264 391.506 330.243 396.321C329.222 401.137 328.932 403.637 326.158 406.53C319.1 413.892 314.926 423.637 314.926 423.637H333.217Z" fill="#5975AD"/>
<path d="M371.5 378.654C368.232 381.683 365.577 382.261 361.697 384.958C357.816 387.654 355.365 391.314 352.097 394.588C348.829 397.863 345.115 399.403 341.662 402.678C338.209 405.952 335.803 409.361 332.082 412.308C328.361 415.256 324.934 417.123 324.934 417.123" stroke="#0C193A" stroke-miterlimit="10"/>
<path d="M310.024 403.832C310.024 403.832 307.777 401.353 305.735 398.644C303.692 395.935 303.02 392.137 301.037 388.808C299.054 385.48 298.967 385.919 295.611 381.874C292.255 377.829 291.642 374.364 289.395 370.896C287.149 367.428 283.87 368.772 281.226 364.539C278.581 360.307 275.371 357.155 271.15 358.054C266.929 358.953 262.844 359.725 265.704 370.896C268.563 382.067 268.972 379.948 269.176 388.23C269.381 396.513 275.712 397.861 280.001 403.832C284.289 409.803 283.472 412.692 290.212 415.582C296.952 418.471 302.058 423.637 302.058 423.637H310.023L310.024 403.832Z" fill="#728BC4"/>
<path d="M301.036 388.809C299.053 385.48 298.966 385.92 295.61 381.875C294.073 380.023 293.12 378.296 292.314 376.631C292.084 377.984 291.371 379.553 289.973 381.678C285.48 388.505 296.509 403.356 295.283 408.814C294.744 411.215 294.679 414.762 294.776 417.985C299.123 420.677 302.058 423.637 302.058 423.637H310.023V403.833C310.023 403.833 307.776 401.353 305.734 398.644C303.692 395.936 303.019 392.138 301.036 388.809Z" fill="#5975AD"/>
<path d="M272.992 364.733C272.992 364.733 274.243 369.934 278.043 375.905C281.842 381.876 281.842 383.031 284.497 388.425C287.152 393.818 289.807 397.092 293.483 400.945C297.159 404.797 307.167 414.043 308.597 415.391" stroke="#0C193A" stroke-miterlimit="10"/>
<path d="M305.328 423.637C305.328 423.637 304.103 412.244 305.328 406.786C306.554 401.329 295.525 386.478 300.019 379.651C304.512 372.822 301.939 371.726 298.936 365.148C295.934 358.57 293.769 348.554 298.936 340.849C304.103 333.145 294.074 326.665 295.82 316.229C297.568 305.794 313.906 291.348 313.906 291.348C313.906 291.348 327.386 295.778 329.428 303.097C331.471 310.417 328.203 321.588 335.147 327.367C342.091 333.145 342.499 339.309 340.866 348.169C339.231 357.029 341.682 360.818 339.231 369.517C336.781 378.217 333.921 381.298 333.921 389.003C333.921 396.707 333.513 405.498 324.527 423.639H305.328V423.637Z" fill="#728BC4"/>
<path d="M317.815 305.042C316.59 308.317 315.569 308.509 316.59 315.058C317.611 321.607 318.01 325.074 316.994 328.733C315.978 332.393 321.152 341.446 321.117 346.454C321.083 351.462 318.862 356.084 318.645 360.9C318.428 365.715 321.357 371.493 321.118 378.812C320.879 386.132 317.855 388.057 318.652 393.258C319.449 398.459 317.398 418.245 316.172 423.637" stroke="#0C193A" stroke-miterlimit="10"/>
<path d="M338.763 466.423H298.285C294.413 466.423 291.273 463.463 291.273 459.811V420.154H345.775V459.811C345.775 463.463 342.636 466.423 338.763 466.423Z" fill="#5975AD"/>
<path d="M617.23 364.01V441.91C617.23 447.672 621.281 452.352 626.279 452.352H647.24C652.227 452.352 656.278 447.672 656.278 441.91V364.01H617.23Z" fill="#0C193A"/>
<path d="M628.109 364.01V441.91C628.109 447.672 632.16 452.352 637.158 452.352H647.241C652.228 452.352 656.278 447.672 656.278 441.91V364.01H628.109Z" fill="#0C193A"/>
<path d="M426.91 364.01V441.91C426.91 447.672 422.859 452.352 417.862 452.352H396.901C391.914 452.352 387.863 447.672 387.863 441.91V364.01H426.91Z" fill="#0C193A"/>
<path d="M416.032 364.01V441.91C416.032 447.672 411.982 452.352 406.984 452.352H396.901C391.914 452.352 387.863 447.672 387.863 441.91V364.01H416.032Z" fill="#0C193A"/>
<path d="M642.789 377.872V455.955C642.789 461.731 647.763 466.422 653.9 466.422H679.64C685.764 466.422 690.739 461.731 690.739 455.955V377.872H642.789Z" fill="#15244F"/>
<path d="M656.148 377.872V455.955C656.148 461.731 661.123 466.422 667.26 466.422H679.642C685.767 466.422 690.741 461.731 690.741 455.955V377.872H656.148Z" fill="#0C193A"/>
<path d="M401.892 377.872V455.955C401.892 461.731 396.917 466.422 390.78 466.422H365.04C358.916 466.422 353.941 461.731 353.941 455.955V377.872H401.892Z" fill="#15244F"/>
<path d="M388.533 377.872V455.955C388.533 461.731 383.559 466.422 377.422 466.422H365.04C358.916 466.422 353.941 461.731 353.941 455.955V377.872H388.533Z" fill="#0C193A"/>
<path d="M360.543 426.75L389.602 433.74C391.725 434.251 393.907 434.509 396.098 434.509H653.293C655.898 434.509 658.487 434.145 660.978 433.426L684.13 426.749L618.458 393.457H390.642L360.543 426.75Z" fill="#D62222"/>
<path d="M694.825 382.614C694.825 382.614 693.488 410.357 684.128 426.75C684.128 426.75 658.722 417.923 648.025 417.923C637.328 417.923 522.334 416.663 522.334 416.663C522.334 416.663 521.385 416.675 519.66 416.7C502.33 416.877 406.365 417.924 396.643 417.924C385.946 417.924 360.541 426.751 360.541 426.751C355.994 418.793 353.347 408.176 351.823 399.349C350.592 392.261 350.085 386.322 349.924 383.85C349.871 383.056 349.844 382.615 349.844 382.615C350.575 332.087 357.866 305.782 360.541 301.999C363.215 298.216 376.587 279.21 376.587 279.21C385.43 258.081 393.235 243.571 399.196 233.952C405.708 223.445 417.026 216.403 429.837 214.935C474.142 209.853 522.334 209.854 522.334 209.854C522.334 209.854 570.526 209.853 614.832 214.935C627.642 216.404 638.961 223.445 645.473 233.952C651.434 243.572 659.238 258.081 668.082 279.21C668.082 279.21 679.762 291.153 682.436 294.936C685.11 298.719 690.733 331.854 694.825 382.614Z" fill="#ED3232"/>
<path d="M668.085 279.208C525.012 281.73 376.59 279.208 376.59 279.208C385.433 258.079 393.238 243.569 399.199 233.95C405.711 223.443 417.029 216.401 429.84 214.933C474.145 209.852 522.337 209.852 522.337 209.852C522.337 209.852 570.529 209.852 614.835 214.933C627.645 216.402 638.964 223.443 645.476 233.95C651.437 243.569 659.241 258.079 668.085 279.208Z" fill="#ED3232"/>
<path d="M629.059 232.352L631.482 252.56C632.042 257.234 629.78 260.727 625.479 261.738C588.644 270.397 522.338 269.004 522.338 269.004C522.338 269.004 456.031 270.396 419.196 261.738C414.895 260.727 412.633 257.234 413.194 252.56L415.617 232.352C416.174 227.7 422.176 222.846 427.377 222.639C442.538 222.037 473.862 221.101 522.338 221.101C570.813 221.101 602.137 222.037 617.299 222.639C622.5 222.846 628.501 227.7 629.059 232.352Z" fill="#15244F"/>
<path d="M617.484 231.556L618.948 250.125C619.284 254.382 617.168 257.554 613.339 258.471C580.662 266.296 522.339 265.041 522.339 265.041C522.339 265.041 464.016 266.296 431.339 258.471C427.51 257.554 425.394 254.382 425.73 250.125L427.195 231.556C427.535 227.244 432.739 222.728 437.385 222.535C450.933 221.974 478.948 221.101 522.339 221.101C565.731 221.101 593.745 221.974 607.294 222.535C611.94 222.728 617.144 227.244 617.484 231.556Z" fill="#D7E2FF"/>
<path d="M694.743 383.846C694.348 389.414 692.309 412.418 684.118 426.75C684.118 426.75 658.723 417.924 648.017 417.924C639.036 417.924 556.372 417.024 530.221 416.76C502.014 417.024 405.633 417.924 396.636 417.924C385.946 417.924 360.535 426.75 360.535 426.75C352.361 412.418 350.304 389.414 349.926 383.846C351.225 383.489 368.955 378.773 379.251 377.564C381.652 377.285 389.596 376.944 400.764 376.587C436.488 375.47 505.106 374.276 530.27 374.865C553.625 374.29 611.7 375.423 643.888 376.509C654.874 376.896 662.852 377.269 665.401 377.564C675.697 378.774 693.428 383.489 694.743 383.846Z" fill="#ED3232"/>
<path d="M581.243 315.426V329.773C581.243 335.233 576.802 339.67 571.325 339.67H473.332C471.786 339.67 470.339 339.328 469.039 338.677C465.7 337.095 463.414 333.698 463.414 329.773V315.426H581.243Z" fill="#D62222"/>
<path d="M581.244 319.117V329.774C581.244 335.233 576.803 339.67 571.326 339.67H473.333C471.787 339.67 470.34 339.329 469.04 338.677C468.086 337.173 467.527 335.389 467.527 333.466V319.117H581.244Z" fill="#D62222"/>
<path d="M559.275 335.048H485.398C479.098 335.048 473.992 330.232 473.992 324.291V315.426H570.681V324.291C570.68 330.232 565.574 335.048 559.275 335.048Z" fill="#D7E2FF"/>
<path d="M427.909 403.047H403.224C399.59 403.047 396.645 405.824 396.645 409.252V417.924H434.488V409.252C434.489 405.825 431.543 403.047 427.909 403.047Z" fill="#FF8D8D"/>
<path d="M641.991 403.047H617.306C613.672 403.047 610.727 405.824 610.727 409.252V417.924H648.57V409.252C648.571 405.825 645.625 403.047 641.991 403.047Z" fill="#FF8D8D"/>
<path d="M643.893 376.509V377.75C643.893 382.326 639.962 386.033 635.11 386.033H409.569C404.717 386.033 400.77 382.326 400.77 377.75V376.587C436.493 375.47 505.112 374.276 530.276 374.865C553.631 374.291 611.706 375.423 643.893 376.509Z" fill="#0C193A"/>
<path d="M608.511 294.257C608.511 298.532 569.928 301.997 522.334 301.997C474.739 301.997 436.156 298.532 436.156 294.257C436.156 289.983 474.739 291.677 522.334 291.677C569.928 291.677 608.511 289.983 608.511 294.257Z" fill="#D62222"/>
<path d="M442.41 351.257H405.635C395.585 351.257 386.523 345.58 382.625 336.847L376.293 322.639H399.648L400.586 326.485H420.783L425.981 340.306C428.43 346.868 435.025 351.257 442.41 351.257Z" fill="#D62222"/>
<path d="M591.242 351.257H628.019C638.068 351.257 647.131 345.58 651.028 336.847L657.36 322.639H634.005L633.068 326.485H612.87L607.673 340.306C605.223 346.868 598.627 351.257 591.242 351.257Z" fill="#D62222"/>
<path d="M602.267 352.19H442.417C434.616 352.19 427.638 347.539 425.053 340.616L420.09 327.418H399.803L388.098 279.556L390.025 279.138L401.38 325.553H421.488L426.919 339.995C429.227 346.174 435.455 350.325 442.418 350.325H602.268C609.216 350.325 615.445 346.174 617.766 339.995L623.197 325.553H643.35L658.791 279.068L660.68 279.626L644.803 327.418H624.595L619.632 340.618C617.03 347.539 610.05 352.19 602.267 352.19Z" fill="#0C193A"/>
<path d="M375.138 299.232L374.584 299.564C373.93 299.956 373.39 300.477 373.001 301.093C372.435 301.959 372.183 303.002 372.309 304.057L373.969 317.418C374.333 320.322 375.955 322.823 378.281 324.46C380.103 325.74 382.354 326.487 384.766 326.487H420.793L412.61 303.809L410.131 296.926L384.633 294.938C383.59 294.997 382.572 295.305 381.679 295.827L375.138 299.232Z" fill="#FF8D8D"/>
<path d="M412.609 303.809L450.061 310.495L455.288 326.487H420.793L412.609 303.809Z" fill="#FF8D8D"/>
<path d="M450.063 310.495L449.358 308.629C448.548 306.486 446.636 304.88 444.286 304.368L410.133 296.926L412.612 303.808L450.063 310.495Z" fill="url(#paint8_radial_106_755)"/>
<path d="M669.96 299.233L663.419 295.827C662.526 295.305 661.508 294.997 660.464 294.938L634.967 296.926L632.488 303.809L624.305 326.487H660.331C662.744 326.487 664.995 325.74 666.817 324.46C669.143 322.823 670.764 320.322 671.129 317.418L672.788 304.057C672.914 303.002 672.662 301.959 672.097 301.093C671.707 300.477 671.167 299.955 670.513 299.564L669.96 299.233Z" fill="#FF8D8D"/>
<path d="M632.487 303.81L595.036 310.496L589.809 326.488H624.304L632.487 303.81Z" fill="#FF8D8D"/>
<path d="M595.035 310.495L595.74 308.629C596.55 306.486 598.462 304.88 600.813 304.368L634.965 296.926L632.486 303.808L595.035 310.495Z" fill="url(#paint9_radial_106_755)"/>
<path d="M508.07 209.852C508.07 209.852 517.451 197.873 522.531 197.873C527.611 197.873 536.6 209.852 536.6 209.852C536.6 209.852 522.14 216.303 508.07 209.852Z" fill="#D62222"/>
<path d="M60.3748 408.164L28.9251 416.773C28.9251 416.773 18.3844 423.503 13.3615 425.01C13.3615 425.01 2.76569 434.338 0.862617 433.701C-1.04111 433.063 0.0561899 426.475 5.66153 419.961C9.31251 415.719 13.3031 410.722 15.6412 407.754C16.8034 406.279 18.9539 405.862 20.6375 406.787L24.4599 408.886C24.4599 408.886 26.2337 408.794 29.0127 407.192C31.791 405.59 56.7667 392.113 56.7667 392.113L60.3748 408.164Z" fill="#AD6E47"/>
<path d="M243.914 406.599L259.694 438.355C259.694 438.355 269.556 448.32 272.233 453.369C272.233 453.369 285.195 462.935 284.772 465.061C284.349 467.187 276.319 467.187 267.583 462.404C261.893 459.288 255.247 455.947 251.305 453.996C249.345 453.026 248.471 450.824 249.274 448.88L251.099 444.466C251.099 444.466 250.676 442.606 248.281 439.948C245.886 437.291 225.457 413.242 225.457 413.242L243.914 406.599Z" fill="#AD6E47"/>
<path d="M284.771 465.062C285.194 462.936 272.232 453.369 272.232 453.369C271.669 452.308 270.779 451.025 269.74 449.667C260.405 450.465 251.099 444.467 251.099 444.467L249.274 448.881C248.47 450.825 249.345 453.027 251.304 453.996C255.247 455.947 261.893 459.288 267.583 462.404C276.318 467.188 284.348 467.188 284.771 465.062Z" fill="#0C193A"/>
<path d="M169.806 254.551C169.806 254.551 171.872 255.437 171.684 258.271C171.496 261.106 170.181 260.37 168.678 263.484C167.175 266.598 164.546 280.948 164.546 280.948C164.546 280.948 193.031 311.001 205.497 325.769C224.638 348.446 246.073 407.972 246.073 407.972C246.073 407.972 241.658 412.578 234.332 414.704C227.006 416.829 223.061 416.033 218.271 418.956C213.48 421.879 207.282 422.676 207.282 422.676C207.282 422.676 199.11 412.578 191.221 402.48C183.331 392.382 164.546 357.038 164.546 357.038L148.672 349.863C148.672 349.863 140.501 371.122 132.048 385.206C123.594 399.291 94.8532 412.312 84.7093 417.626C74.5654 422.941 55.123 426.927 55.123 426.927C55.123 426.927 50.6143 421.081 52.3051 414.172C53.9958 407.263 51.2643 400.088 51.9259 394.507C51.9259 394.507 74.0019 379.094 78.2288 374.577C82.4557 370.059 83.0192 365.01 87.809 364.479C87.809 364.479 98.5165 335.513 98.5165 327.009C98.5165 318.505 96.7381 309.212 98.1471 294.33C99.5561 279.449 108.52 266.686 108.52 266.686C108.52 266.686 103.87 263.697 108.52 261.072C113.168 258.448 169.806 254.551 169.806 254.551Z" fill="#F59D00"/>
<path d="M164.549 281.527C164.47 281.527 164.39 281.512 164.314 281.482C164.127 281.409 159.739 279.681 157.103 278.262C154.589 276.905 150.19 276.031 150.146 276.023C149.814 275.957 149.601 275.65 149.669 275.337C149.739 275.023 150.08 274.827 150.397 274.888C150.584 274.925 155.031 275.809 157.715 277.256C160.282 278.639 164.74 280.395 164.784 280.412C165.099 280.536 165.246 280.874 165.117 281.17C165.018 281.393 164.788 281.527 164.549 281.527Z" fill="#B57400"/>
<path d="M98.3249 292.93C98.2658 293.397 98.1925 293.859 98.1483 294.33C96.7393 309.212 98.5184 318.505 98.5184 327.009C98.5184 335.512 87.8109 364.478 87.8109 364.478C83.0204 365.01 82.4575 370.059 78.2306 374.577C74.6641 378.388 58.3876 389.959 53.3906 393.48C53.3906 393.48 66.6777 392.912 75.9763 386.003C85.2748 379.094 87.2473 376.171 95.9823 374.045C104.717 371.919 121.061 369.261 121.061 369.261C126.696 359.163 148.675 349.863 148.675 349.863C138.813 345.345 123.033 331.792 114.298 324.883C105.579 317.988 97.3289 308.397 98.3249 292.93Z" fill="#B57400"/>
<path d="M119.929 379.94C119.878 379.94 119.828 379.934 119.777 379.922C108.652 377.265 100.729 371.504 100.65 371.446C100.383 371.249 100.335 370.885 100.544 370.633C100.753 370.379 101.138 370.336 101.406 370.532C101.483 370.588 109.214 376.203 120.08 378.798C120.408 378.877 120.608 379.192 120.524 379.502C120.455 379.765 120.204 379.94 119.929 379.94Z" fill="#B57400"/>
<path d="M111.33 384.499C109.856 384.499 107.796 382.978 107.14 382.462C106.88 382.257 106.845 381.891 107.061 381.645C107.281 381.4 107.668 381.367 107.927 381.572C109.168 382.547 110.912 383.524 111.453 383.326C111.473 383.32 111.534 383.298 111.572 383.106C111.774 382.088 107.094 379.032 102.593 376.817C102.292 376.669 102.175 376.319 102.331 376.036C102.49 375.749 102.864 375.64 103.16 375.79C105.536 376.958 113.25 380.955 112.782 383.32C112.634 384.056 112.146 384.323 111.869 384.417C111.702 384.474 111.52 384.499 111.33 384.499Z" fill="#B57400"/>
<path d="M106.832 389.773C106.634 389.773 106.439 389.682 106.32 389.513L97.3012 376.624C97.1142 376.357 97.1915 375.998 97.4752 375.822C97.7544 375.646 98.1375 375.717 98.3264 375.986L107.345 388.874C107.532 389.142 107.455 389.501 107.171 389.677C107.067 389.742 106.949 389.773 106.832 389.773Z" fill="#B57400"/>
<path d="M165.857 355.402C165.71 355.402 165.563 355.352 165.446 355.253C165.192 355.038 165.173 354.671 165.402 354.434C170.113 349.509 181.25 338.121 183.517 338.121C183.535 338.121 183.553 338.122 183.568 338.123C183.971 338.158 184.281 338.365 184.421 338.691C185.022 340.081 181.226 344.58 178.907 347.138C178.687 347.38 178.298 347.41 178.043 347.202C177.783 346.994 177.752 346.628 177.974 346.385C180.385 343.721 182.899 340.462 183.238 339.348C181.36 340.173 173.344 347.86 166.313 355.21C166.192 355.338 166.024 355.402 165.857 355.402Z" fill="#B57400"/>
<path d="M169.24 356.644C168.977 356.644 168.732 356.482 168.651 356.231C168.554 355.924 168.738 355.6 169.064 355.509C169.603 355.357 182.325 351.767 186.848 351.411C191.177 351.071 193.938 349.882 193.964 349.869C194.265 349.736 194.637 349.859 194.78 350.15C194.923 350.44 194.791 350.785 194.483 350.92C194.365 350.972 191.514 352.208 186.95 352.567C182.557 352.912 169.549 356.583 169.417 356.619C169.359 356.635 169.297 356.644 169.24 356.644Z" fill="#B57400"/>
<path d="M162.667 350.974C162.345 350.974 162.077 350.741 162.053 350.436C162.038 350.218 161.697 345.079 165.524 342.719C168.96 340.601 172.475 336.269 172.51 336.226C172.715 335.97 173.104 335.921 173.37 336.115C173.641 336.309 173.694 336.673 173.487 336.927C173.34 337.112 169.812 341.462 166.198 343.691C162.966 345.681 163.276 350.308 163.281 350.353C163.305 350.673 163.05 350.951 162.712 350.973C162.695 350.974 162.68 350.974 162.667 350.974Z" fill="#B57400"/>
<path d="M170.38 261.073C171.073 260.373 171.574 259.93 171.685 258.271C171.872 255.437 169.806 254.551 169.806 254.551C169.806 254.551 113.169 258.448 108.519 261.073C103.87 263.697 108.519 266.687 108.519 266.687C108.519 266.687 102.799 274.851 99.7812 285.726C110.626 298.631 141.489 271.337 148.673 267.484C155.857 263.631 161.493 266.952 170.38 261.073Z" fill="#B57400"/>
<path d="M51.8592 262.764C51.8592 262.764 36.8567 275.049 34.7731 276.491C32.6895 277.932 25.3265 278.849 23.9377 280.945C22.5482 283.041 25.3266 286.709 25.6045 289.46C25.8824 292.212 31.5773 289.46 31.5773 289.46C31.5773 289.46 35.775 289.854 37.7047 288.02C39.635 286.186 40.746 281.731 40.746 281.731L59.7774 270.333C59.7774 270.333 59.2222 261.745 51.8592 262.764Z" fill="#AD6E47"/>
<path d="M119.359 238.07L118.246 237.904C118.323 237.451 120.197 226.749 127.861 220.058L128.626 220.838C121.246 227.283 119.377 237.962 119.359 238.07Z" fill="#0C193A"/>
<path d="M56.7578 256.88L50.4609 262.874C50.4609 262.874 52.2666 268.197 58.642 273.064L65.4382 268.791C65.4382 268.791 62.9527 255.754 56.7578 256.88Z" fill="#F59D00"/>
<path d="M125.074 197.462C133.861 194.171 145.411 183.408 161.477 182.579C177.543 181.751 192.209 187.762 201.79 195.866C211.37 203.972 221.655 210.261 224.332 213.361C227.009 216.461 231.94 216.993 232.644 219.385C233.349 221.776 237.857 219.252 238.984 220.448C240.112 221.643 250.115 219.252 254.905 222.042C254.905 222.042 262.936 233.868 260.822 237.987C258.709 242.106 253.214 252.868 240.816 253.267C228.418 253.666 228.981 251.407 223.064 249.015C217.147 246.623 206.862 244.631 202.071 239.05C197.282 233.47 184.461 229.616 183.474 227.49C183.474 227.49 176.711 237.057 175.585 243.235C174.458 249.414 178.165 251.805 171.31 255.525C164.455 259.246 145.435 262.833 131.91 263.763C118.384 264.693 110.147 265.624 106.657 261.239C103.169 256.854 108.522 251.14 108.522 251.14C108.522 251.14 109.508 234.399 114.017 229.217C118.524 224.035 119.581 199.52 125.074 197.462Z" fill="#ED3232"/>
<path d="M174.619 213.643L174.521 213.618C168.003 211.926 165.531 208.079 165.43 207.916L165.303 207.714L165.501 207.57C165.54 207.543 169.302 204.764 168.492 199.939C168.325 198.933 167.834 198.213 167.036 197.797C164.579 196.517 160.006 198.351 159.962 198.37L159.755 198.454L159.623 198.283C154.817 192.151 156.361 183.288 156.379 183.2L156.933 183.29C156.918 183.376 155.442 191.86 159.947 197.801C160.915 197.438 164.9 196.078 167.306 197.332C168.265 197.831 168.853 198.68 169.05 199.856C169.798 204.328 166.857 207.149 166.045 207.832C166.622 208.612 169.156 211.645 174.571 213.08C175.396 212.718 181.471 210.005 183.172 207.871C182.47 206.933 179.142 202.227 181.245 200.073C183.044 198.226 185.116 198.359 185.926 198.505C185.954 197.106 185.75 191.246 180.801 185.714L181.232 185.372C187.03 191.852 186.48 198.792 186.475 198.861L186.445 199.194L186.106 199.092C186.009 199.062 183.667 198.38 181.658 200.431C179.681 202.46 183.704 207.659 183.744 207.712L183.861 207.862L183.753 208.016C182.038 210.439 175.012 213.475 174.713 213.603L174.619 213.643Z" fill="#0C193A"/>
<path d="M256.659 219.578C256.659 219.578 250.821 220.592 249.438 222.331C248.055 224.07 245.135 228.272 249.438 234.648C253.74 241.023 258.656 240.154 260.193 239.14C261.729 238.126 266.032 233.924 264.034 228.272C262.036 222.621 260.5 219.578 256.659 219.578Z" fill="#F59D00"/>
<path d="M216.863 242.061C214.515 237.012 214.421 234.993 210.194 231.972C205.967 228.95 201.083 226.913 199.769 217.878C198.454 208.843 193.307 197.408 193.006 200.782C192.594 205.403 192.715 208.112 192.434 214.135C192.152 220.159 184.929 223.635 183.473 227.489C184.459 229.614 197.28 233.468 202.07 239.049C206.86 244.629 217.145 246.622 223.063 249.014C223.648 249.25 224.157 249.485 224.635 249.717L224.64 249.717C224.64 249.717 219.211 247.11 216.863 242.061Z" fill="#C61717"/>
<path d="M227.384 230.735C227.195 226.986 227.939 224.321 229.592 222.816C231.057 221.483 232.691 221.59 232.762 221.601L232.716 222.13C232.699 222.134 231.251 222.04 229.974 223.209C228.469 224.585 227.769 227.179 227.948 230.711L227.384 230.735Z" fill="#0C193A"/>
<path d="M220.44 224.97C220.169 224.97 219.912 224.925 219.685 224.816C219.23 224.598 218.975 224.169 218.926 223.542C218.779 221.655 220.6 221.486 222.707 221.29C223.695 221.199 224.812 221.094 225.895 220.811C228.989 220 229.363 219.135 229.366 219.126L229.906 219.277C229.873 219.392 229.482 220.423 226.044 221.323C224.918 221.619 223.772 221.725 222.762 221.819C220.54 222.025 219.386 222.194 219.489 223.502C219.522 223.938 219.67 224.213 219.94 224.344C220.675 224.698 222.197 223.984 222.72 223.676L223.019 224.128C222.842 224.23 221.542 224.97 220.44 224.97Z" fill="#0C193A"/>
<path d="M254.903 222.041C254.903 222.041 284.584 206.628 285.617 205.476C286.65 204.325 285.805 199.099 289.092 197.681C292.379 196.264 293.319 197.77 293.695 201.756C294.07 205.742 289.562 210.437 289.562 210.437C289.562 210.437 265.329 231.253 262.605 234.176C259.882 237.099 256.125 234.707 253.589 230.721C251.052 226.735 251.547 224.287 254.903 222.041Z" fill="#AD6E47"/>
<path d="M287.941 207.226V206.695C288.41 206.695 288.802 206.539 289.14 206.22C290.319 205.106 290.328 202.47 290.328 202.443L290.326 201.257L290.865 202.33C290.867 202.336 291.192 202.976 291.72 203.196C291.863 203.048 291.903 201.713 291.346 200.488C291.047 199.829 290.644 199.812 290.134 199.789C289.727 199.772 289.265 199.752 288.922 199.355L289.358 199.019C289.533 199.222 289.767 199.241 290.161 199.258C290.695 199.281 291.425 199.312 291.865 200.278C292.371 201.393 292.575 203.118 292.068 203.589C291.916 203.734 291.696 203.768 291.491 203.68C291.234 203.573 291.018 203.402 290.844 203.227C290.75 204.171 290.453 205.73 289.538 206.594C289.096 207.014 288.56 207.226 287.941 207.226Z" fill="#704226"/>
<path d="M152.378 261.236L151.934 260.908C155.935 256.075 157.047 250.32 158.227 244.228C158.627 242.156 159.043 240.015 159.577 237.924C160.875 232.861 163.351 231.678 165.971 230.427C167.652 229.626 169.389 228.796 171.096 226.918C174.147 223.559 174.119 220.684 174.085 217.64C174.07 216.263 174.055 214.838 174.321 213.318L174.875 213.403C174.62 214.879 174.635 216.28 174.648 217.634C174.682 220.781 174.715 223.753 171.523 227.264C169.746 229.221 167.876 230.114 166.226 230.902C163.615 232.147 161.363 233.223 160.126 238.048C159.592 240.126 159.18 242.259 158.78 244.324C157.591 250.482 156.464 256.299 152.378 261.236Z" fill="#0C193A"/>
<path d="M137.263 233.867C142.616 228.552 152.478 224.832 154.733 217.657C156.988 210.482 154.874 210.482 154.029 203.971C153.184 197.461 150.366 198.124 144.7 196.178L119.122 212.424C117.628 219.381 116.243 226.657 114.017 229.216C109.508 234.399 108.522 251.14 108.522 251.14C108.522 251.14 103.169 256.854 106.657 261.238C107.464 262.252 108.537 262.972 109.858 263.483C122.937 263.632 132.305 238.789 137.263 233.867Z" fill="#C61717"/>
<path d="M0.862715 433.701C2.76579 434.338 13.3616 425.01 13.3616 425.01C14.4173 424.693 15.7231 424.138 17.1171 423.471C17.656 415.703 24.4606 408.886 24.4606 408.886L20.6382 406.787C18.9546 405.861 16.8042 406.278 15.6419 407.753C13.3038 410.721 9.31393 415.718 5.66231 419.96C0.055663 426.474 -1.04101 433.063 0.862715 433.701Z" fill="#0C193A"/>
<path d="M189.812 149.361C196.856 149.405 198.734 150.823 199.11 154.1C199.486 157.377 197.42 158.618 197.795 161.009C198.171 163.401 201.083 165.615 201.177 169.602C201.271 173.588 206.53 178.814 204.652 185.458C204.652 185.458 202.398 185.281 198.171 186.609C193.944 187.938 191.69 187.141 187.839 186.609C183.988 186.078 177.401 184.81 175.947 185.026C174.494 185.243 167.037 183.686 167.341 177.042C167.646 170.399 189.812 149.361 189.812 149.361Z" fill="#0C193A"/>
<path d="M186.713 152.151C190.714 153.927 190.799 157.2 191.081 159.991C191.363 162.781 192.772 165.572 195.59 165.97C195.59 165.97 194.604 169.291 194.463 171.949C194.322 174.607 195.167 176.6 193.054 177.663C190.94 178.726 184.319 179.656 184.319 179.656L178.683 190.817C178.683 190.817 180.948 202.112 175.584 209.419C174.316 211.146 174.879 202.111 173.893 198.39C172.907 194.67 166.004 188.159 162.763 183.642C159.522 179.124 162.907 163.445 167.343 159.061C171.78 154.676 179.528 148.963 186.713 152.151Z" fill="#AD6E47"/>
<path d="M170.721 176.8C170.721 176.8 168.561 181.228 178.68 190.817L184.316 179.656C176.074 181.118 170.721 176.8 170.721 176.8Z" fill="#15244F"/>
<path d="M188.684 153.613C184.085 154.96 180.653 154.676 180.23 160.39C179.808 166.103 180.23 168.76 178.962 168.627C177.694 168.494 177.272 165.305 175.299 164.11C173.327 162.914 171.777 164.508 171.495 167.299C171.213 170.089 173.186 171.418 176.144 171.019L177.976 185.104C177.976 185.104 177.359 184.439 171.468 185.901C165.578 187.362 162.901 189.489 157.266 186.565C151.63 183.642 152.334 184.174 146.84 183.908C141.346 183.642 140.5 178.725 145.854 172.215C151.207 165.705 150.362 161.054 154.87 158.131C159.379 155.207 154.166 153.746 163.746 151.753C173.327 149.76 185.302 149.627 189.811 149.361C194.319 149.096 192.392 152.527 188.684 153.613Z" fill="#0C193A"/>
<path d="M55.2383 258.023C55.2383 258.023 56.2512 245.427 68.6494 235.328C81.0476 225.23 90.3462 222.307 99.6447 214.866C108.943 207.426 126.696 192.278 139.939 194.67C153.182 197.062 154.591 209.551 149.237 218.055C143.884 226.559 122.75 237.721 118.524 242.77C114.297 247.818 104.998 250.476 104.998 250.476C104.998 250.476 91.0831 265.851 84.9921 267.484C72.5939 270.805 63.2954 269.077 63.2954 269.077C63.2954 269.077 58.0952 265.254 55.2383 258.023Z" fill="#ED3232"/>
<path d="M105.709 247.654C105.672 247.635 104.777 247.167 104.557 245.94C104.235 244.138 105.498 241.759 108.314 238.869L108.727 239.228C105.39 242.656 104.918 244.711 105.109 245.833C105.275 246.807 105.951 247.172 105.979 247.186L105.709 247.654Z" fill="#0C193A"/>
<path d="M102.887 240.775H102.324V249.412H102.887V240.775Z" fill="#0C193A"/>
<g opacity="0.77">
<path d="M341.112 195.149C396.071 195.149 440.625 153.13 440.625 101.298C440.625 49.4664 396.071 7.44824 341.112 7.44824C286.152 7.44824 241.598 49.4664 241.598 101.298C241.598 153.13 286.152 195.149 341.112 195.149Z" fill="#E1F2F9"/>
</g>
<path d="M258.017 269.101L276.852 276.304L313.434 191.229L294.599 184.025L258.017 269.101Z" fill="#0C193A"/>
<path d="M235.6 334.83L244.368 338.183C252.738 341.384 262.275 337.579 265.669 329.685L293.306 265.405L254.227 250.461L226.59 314.741C223.195 322.635 227.23 331.63 235.6 334.83Z" fill="#728BC4"/>
<path d="M300.765 195.122C245.909 174.145 219.377 114.989 241.619 63.2556C252.396 38.1938 272.873 18.5903 299.284 8.05383C325.671 -2.48147 354.869 -2.68721 381.444 7.47455C408.018 17.6369 428.805 36.9501 439.977 61.8558C451.149 86.7615 451.367 114.279 440.592 139.342C428.235 168.08 403.388 188.573 374.339 197.52C351.09 204.681 325.151 204.448 300.765 195.122ZM305.743 22.4554C283.412 31.3631 266.096 47.9398 256.985 69.1316C238.177 112.875 260.612 162.894 306.996 180.632C353.381 198.371 406.421 177.21 425.226 133.467C434.338 112.276 434.153 89.0069 424.707 67.948C415.262 46.8878 397.684 30.5573 375.214 21.9674C355.176 14.304 333.386 13.6126 313.069 19.8701C310.603 20.6288 308.159 21.4916 305.743 22.4554Z" fill="#839ADD"/>
<path d="M274.577 82.7126C276.512 92.6031 278.446 102.494 280.379 112.384C280.925 115.178 279.967 118.398 276.678 119.259C273.99 119.964 269.975 118.774 269.388 115.769C267.453 105.879 265.519 95.9881 263.585 86.0976C263.039 83.3041 263.998 80.0832 267.286 79.2222C269.975 78.518 273.99 79.7084 274.577 82.7126Z" fill="white"/>
<path d="M294.055 135.242C296.89 138.038 299.13 141.457 299.932 145.294C300.208 145.999 300.28 146.713 300.15 147.437C300.15 148.148 299.964 148.82 299.591 149.455C298.949 150.648 297.62 151.806 296.231 152.17C294.789 152.548 293.162 152.561 291.819 151.849C291.411 151.588 291.004 151.326 290.596 151.065C289.819 150.41 289.267 149.615 288.94 148.68C288.67 147.391 288.231 146.149 287.633 144.963C287.857 145.402 288.081 145.841 288.306 146.281C287.672 145.055 286.88 143.919 285.934 142.886C286.262 143.242 286.589 143.598 286.917 143.954C286.741 143.764 286.56 143.58 286.376 143.398C285.768 142.926 285.328 142.351 285.056 141.671C284.654 141.033 284.449 140.334 284.439 139.574C284.374 138.264 284.908 136.658 285.892 135.699C286.947 134.671 288.382 133.876 289.946 133.872C291.381 133.868 293.025 134.227 294.055 135.242Z" fill="white"/>
<path d="M249.555 293.914C248.857 301.28 246.249 308.511 242.06 314.762C241.253 315.966 239.622 316.727 238.174 315.96C236.914 315.291 236.042 313.582 236.905 312.295C240.967 306.231 243.221 299.959 243.904 292.759C244.039 291.333 245.961 290.33 247.341 290.672C249.009 291.085 249.7 292.388 249.555 293.914Z" fill="white"/>
<defs>
<linearGradient id="paint0_linear_106_755" x1="185.907" y1="417.871" x2="98.6424" y2="116.822" gradientUnits="userSpaceOnUse">
<stop stop-color="#FDFDFE" stop-opacity="0"/>
<stop offset="0.1996" stop-color="#FAFBFC" stop-opacity="0.1996"/>
<stop offset="0.3599" stop-color="#F0F4F6" stop-opacity="0.3599"/>
<stop offset="0.5066" stop-color="#DFE9EB" stop-opacity="0.5066"/>
<stop offset="0.6452" stop-color="#C7DADD" stop-opacity="0.6452"/>
<stop offset="0.7781" stop-color="#A8C6CA" stop-opacity="0.7781"/>
<stop offset="0.9049" stop-color="#83AEB3" stop-opacity="0.9049"/>
<stop offset="1" stop-color="#62989E"/>
</linearGradient>
<linearGradient id="paint1_linear_106_755" x1="212.664" y1="382.538" x2="129.116" y2="94.3797" gradientUnits="userSpaceOnUse">
<stop stop-color="#FDFDFE" stop-opacity="0"/>
<stop offset="0.1996" stop-color="#FAFBFC" stop-opacity="0.1996"/>
<stop offset="0.3599" stop-color="#F0F4F6" stop-opacity="0.3599"/>
<stop offset="0.5066" stop-color="#DFE9EB" stop-opacity="0.5066"/>
<stop offset="0.6452" stop-color="#C7DADD" stop-opacity="0.6452"/>
<stop offset="0.7781" stop-color="#A8C6CA" stop-opacity="0.7781"/>
<stop offset="0.9049" stop-color="#83AEB3" stop-opacity="0.9049"/>
<stop offset="1" stop-color="#62989E"/>
</linearGradient>
<linearGradient id="paint2_linear_106_755" x1="370.606" y1="411.528" x2="283.341" y2="110.479" gradientUnits="userSpaceOnUse">
<stop stop-color="#FDFDFE" stop-opacity="0"/>
<stop offset="0.1996" stop-color="#FAFBFC" stop-opacity="0.1996"/>
<stop offset="0.3599" stop-color="#F0F4F6" stop-opacity="0.3599"/>
<stop offset="0.5066" stop-color="#DFE9EB" stop-opacity="0.5066"/>
<stop offset="0.6452" stop-color="#C7DADD" stop-opacity="0.6452"/>
<stop offset="0.7781" stop-color="#A8C6CA" stop-opacity="0.7781"/>
<stop offset="0.9049" stop-color="#83AEB3" stop-opacity="0.9049"/>
<stop offset="1" stop-color="#62989E"/>
</linearGradient>
<linearGradient id="paint3_linear_106_755" x1="397.363" y1="376.195" x2="313.816" y2="88.0365" gradientUnits="userSpaceOnUse">
<stop stop-color="#FDFDFE" stop-opacity="0"/>
<stop offset="0.1996" stop-color="#FAFBFC" stop-opacity="0.1996"/>
<stop offset="0.3599" stop-color="#F0F4F6" stop-opacity="0.3599"/>
<stop offset="0.5066" stop-color="#DFE9EB" stop-opacity="0.5066"/>
<stop offset="0.6452" stop-color="#C7DADD" stop-opacity="0.6452"/>
<stop offset="0.7781" stop-color="#A8C6CA" stop-opacity="0.7781"/>
<stop offset="0.9049" stop-color="#83AEB3" stop-opacity="0.9049"/>
<stop offset="1" stop-color="#62989E"/>
</linearGradient>
<linearGradient id="paint4_linear_106_755" x1="589.263" y1="421.164" x2="501.998" y2="120.115" gradientUnits="userSpaceOnUse">
<stop stop-color="#FDFDFE" stop-opacity="0"/>
<stop offset="0.1996" stop-color="#FAFBFC" stop-opacity="0.1996"/>
<stop offset="0.3599" stop-color="#F0F4F6" stop-opacity="0.3599"/>
<stop offset="0.5066" stop-color="#DFE9EB" stop-opacity="0.5066"/>
<stop offset="0.6452" stop-color="#C7DADD" stop-opacity="0.6452"/>
<stop offset="0.7781" stop-color="#A8C6CA" stop-opacity="0.7781"/>
<stop offset="0.9049" stop-color="#83AEB3" stop-opacity="0.9049"/>
<stop offset="1" stop-color="#62989E"/>
</linearGradient>
<linearGradient id="paint5_linear_106_755" x1="616.019" y1="385.831" x2="532.472" y2="97.6727" gradientUnits="userSpaceOnUse">
<stop stop-color="#FDFDFE" stop-opacity="0"/>
<stop offset="0.1996" stop-color="#FAFBFC" stop-opacity="0.1996"/>
<stop offset="0.3599" stop-color="#F0F4F6" stop-opacity="0.3599"/>
<stop offset="0.5066" stop-color="#DFE9EB" stop-opacity="0.5066"/>
<stop offset="0.6452" stop-color="#C7DADD" stop-opacity="0.6452"/>
<stop offset="0.7781" stop-color="#A8C6CA" stop-opacity="0.7781"/>
<stop offset="0.9049" stop-color="#83AEB3" stop-opacity="0.9049"/>
<stop offset="1" stop-color="#62989E"/>
</linearGradient>
<linearGradient id="paint6_linear_106_755" x1="799.739" y1="411.528" x2="712.474" y2="110.479" gradientUnits="userSpaceOnUse">
<stop stop-color="#FDFDFE" stop-opacity="0"/>
<stop offset="0.1996" stop-color="#FAFBFC" stop-opacity="0.1996"/>
<stop offset="0.3599" stop-color="#F0F4F6" stop-opacity="0.3599"/>
<stop offset="0.5066" stop-color="#DFE9EB" stop-opacity="0.5066"/>
<stop offset="0.6452" stop-color="#C7DADD" stop-opacity="0.6452"/>
<stop offset="0.7781" stop-color="#A8C6CA" stop-opacity="0.7781"/>
<stop offset="0.9049" stop-color="#83AEB3" stop-opacity="0.9049"/>
<stop offset="1" stop-color="#62989E"/>
</linearGradient>
<linearGradient id="paint7_linear_106_755" x1="826.496" y1="376.195" x2="742.948" y2="88.0366" gradientUnits="userSpaceOnUse">
<stop stop-color="#FDFDFE" stop-opacity="0"/>
<stop offset="0.1996" stop-color="#FAFBFC" stop-opacity="0.1996"/>
<stop offset="0.3599" stop-color="#F0F4F6" stop-opacity="0.3599"/>
<stop offset="0.5066" stop-color="#DFE9EB" stop-opacity="0.5066"/>
<stop offset="0.6452" stop-color="#C7DADD" stop-opacity="0.6452"/>
<stop offset="0.7781" stop-color="#A8C6CA" stop-opacity="0.7781"/>
<stop offset="0.9049" stop-color="#83AEB3" stop-opacity="0.9049"/>
<stop offset="1" stop-color="#62989E"/>
</linearGradient>
<radialGradient id="paint8_radial_106_755" cx="0" cy="0" r="1" gradientUnits="userSpaceOnUse" gradientTransform="translate(430.098 303.71) scale(15.0059 14.1518)">
<stop stop-color="#FF0050"/>
<stop offset="0.3019" stop-color="#FA1348"/>
<stop offset="0.7183" stop-color="#F52740"/>
<stop offset="1" stop-color="#F32E3D"/>
</radialGradient>
<radialGradient id="paint9_radial_106_755" cx="0" cy="0" r="1" gradientUnits="userSpaceOnUse" gradientTransform="translate(615 303.71) scale(15.0059 14.1518)">
<stop stop-color="#FF0050"/>
<stop offset="0.3019" stop-color="#FA1348"/>
<stop offset="0.7183" stop-color="#F52740"/>
<stop offset="1" stop-color="#F32E3D"/>
</radialGradient>
</defs>
</svg>
