<svg width="315" height="132" viewBox="0 0 315 132" fill="none" xmlns="http://www.w3.org/2000/svg">
<path d="M197.94 5.07001V114.48H98.87C96.79 114.48 95.31 112.63 95.53 110.56C95.53 97.39 83.82 89.46 70.65 89.46C57.48 89.46 45.4 100.86 45.4 114.03C45.4 114.18 45.4 114.33 45.41 114.49H14.07C11.55 114.49 9.51001 112.45 9.51001 109.93V5.07999C9.51001 2.54999 11.56 0.5 14.09 0.5H193.35C195.88 0.5 197.93 2.54999 197.93 5.07999L197.94 5.07001Z" fill="#E6E7E8"/>
<path d="M70.6499 89.46C83.8199 89.46 95.5299 97.39 95.5299 110.56C95.5299 110.56 95.5299 110.57 95.5299 110.58H45.6799C47.5499 98.93 58.6499 89.46 70.6499 89.46Z" fill="#231F20"/>
<path d="M229.82 26.64C232.2 26.69 234.47 27.59 236.24 29.18L271.12 60.68L302.86 70.43C306.18 71.23 308.51 74.2 308.51 77.61V107.72C308.51 111.46 305.48 114.48 301.75 114.48H301.17L299.97 104.25C299.01 96.11 292.49 89.99 284.75 89.99H270.09C262.61 89.99 256.23 95.71 254.97 103.52L253.87 110.38C253.49 112.74 251.45 114.48 249.06 114.48H197.95V26.02L229.83 26.63L229.82 26.64Z" fill="#F1F2F2"/>
<path d="M270.08 89.99H284.74C292.48 89.99 299 96.1 299.96 104.25L300.7 110.58H253.82C253.83 110.51 253.85 110.45 253.86 110.38L254.96 103.52C256.22 95.71 262.6 89.99 270.08 89.99Z" fill="#231F20"/>
<path d="M198.33 82.09H197.54V110.59H198.33V82.09Z" fill="#D1D3D4"/>
<path d="M242.72 108.54H203.78C202.8 108.54 201.88 108.16 201.19 107.46C200.5 106.77 200.12 105.84 200.13 104.86C200.18 95.6399 200.35 65.3299 200.33 62.7099L200.12 35.3199C200.11 33.6399 200.68 32.0799 201.73 30.9399C202.91 29.6499 204.53 28.9299 206.28 28.9299H229.98C231.56 28.9299 233.06 29.5299 234.21 30.6199L263.62 58.4699C264.81 59.5999 265.49 61.1799 265.49 62.8199C265.49 65.4099 262.87 86.92 259.61 88.17C251.85 91.13 248.79 99.7699 247.66 104.65C247.13 106.94 245.11 108.53 242.74 108.53L242.72 108.54ZM206.26 29.7299C204.74 29.7299 203.33 30.3499 202.3 31.4799C201.39 32.4799 200.89 33.8399 200.9 35.3199L201.11 62.7099C201.13 65.2699 200.98 93.0499 200.92 104.87C200.92 105.64 201.21 106.36 201.75 106.9C202.29 107.44 203.01 107.74 203.78 107.74H242.72C244.72 107.74 246.42 106.4 246.87 104.47C248.04 99.4299 251.21 90.5299 259.31 87.4299C261.73 86.5099 264.68 66.7999 264.68 62.8199C264.68 61.3999 264.09 60.0199 263.06 59.0499L233.65 31.2C232.65 30.25 231.34 29.7299 229.96 29.7299H206.26Z" fill="#D1D3D4"/>
<path d="M206.26 30.79H229.96C231.06 30.79 232.12 31.21 232.92 31.97L262.33 59.82C263.15 60.6 263.62 61.69 263.62 62.82C263.62 65.1 261.77 66.96 259.48 66.96H206.47C204.11 66.96 202.19 65.06 202.17 62.7L201.96 35.13C201.94 32.74 203.87 30.8 206.26 30.8V30.79Z" fill="#010101"/>
<path d="M265.63 111.82C265.63 105.36 270.87 100.12 277.33 100.12C283.79 100.12 289.03 105.36 289.03 111.82C289.03 118.28 283.79 123.52 277.33 123.52C270.87 123.52 265.63 118.28 265.63 111.82Z" fill="#231F20"/>
<path d="M59.8401 111.82C59.8401 105.36 65.0801 100.12 71.5401 100.12C78.0001 100.12 83.2401 105.36 83.2401 111.82C83.2401 118.28 78.0001 123.52 71.5401 123.52C65.0801 123.52 59.8401 118.28 59.8401 111.82Z" fill="#231F20"/>
<path d="M273.23 112.01C273.23 111.92 273.22 111.82 273.22 111.73C273.22 110.83 273.53 110.01 274.05 109.36L269.03 102.76C270.07 101.81 271.27 101.03 272.59 100.48L276.04 108.04C276.36 107.95 276.7 107.9 277.05 107.9C277.51 107.9 277.94 107.98 278.35 108.13L282.39 100.62C283.71 101.22 284.91 102.04 285.93 103.04L280.23 109.59C280.64 110.2 280.88 110.93 280.88 111.73C280.88 111.82 280.88 111.9 280.87 111.99L289.37 114.28C289.08 115.72 288.53 117.07 287.79 118.27L280.01 114.16C279.56 114.71 278.96 115.12 278.27 115.35L279.41 123.92C278.73 124.04 278.04 124.1 277.33 124.1C276.62 124.1 275.87 124.03 275.16 123.91L275.93 115.39C275.22 115.17 274.6 114.75 274.13 114.2L266.76 118.09C266.05 116.9 265.54 115.57 265.27 114.16L273.24 112.01H273.23Z" fill="#E6E7E8"/>
<path d="M276.43 109.84C276.43 110.25 276.76 110.58 277.17 110.58C277.58 110.58 277.91 110.25 277.91 109.84C277.91 109.43 277.58 109.1 277.17 109.1C276.76 109.1 276.43 109.43 276.43 109.84Z" fill="#D1D3D4"/>
<path d="M276.43 113.63C276.43 114.04 276.76 114.37 277.17 114.37C277.58 114.37 277.91 114.04 277.91 113.63C277.91 113.22 277.58 112.89 277.17 112.89C276.76 112.89 276.43 113.22 276.43 113.63Z" fill="#D1D3D4"/>
<path d="M275.27 112.47C275.679 112.47 276.01 112.139 276.01 111.73C276.01 111.321 275.679 110.99 275.27 110.99C274.861 110.99 274.53 111.321 274.53 111.73C274.53 112.139 274.861 112.47 275.27 112.47Z" fill="#D1D3D4"/>
<path d="M279.06 112.47C279.469 112.47 279.8 112.139 279.8 111.73C279.8 111.321 279.469 110.99 279.06 110.99C278.651 110.99 278.32 111.321 278.32 111.73C278.32 112.139 278.651 112.47 279.06 112.47Z" fill="#D1D3D4"/>
<path d="M257.64 111.82C257.64 122.69 266.45 131.5 277.32 131.5C288.19 131.5 297 122.69 297 111.82C297 100.95 288.19 92.14 277.32 92.14C266.45 92.14 257.64 100.95 257.64 111.82ZM264.73 111.82C264.73 104.86 270.37 99.23 277.32 99.23C284.27 99.23 289.91 104.87 289.91 111.82C289.91 118.77 284.27 124.41 277.32 124.41C270.37 124.41 264.73 118.77 264.73 111.82Z" fill="#010101"/>
<path d="M263.55 111.82C263.55 119.42 269.71 125.59 277.32 125.59C284.93 125.59 291.09 119.43 291.09 111.82C291.09 104.21 284.93 98.05 277.32 98.05C269.71 98.05 263.55 104.21 263.55 111.82ZM265.62 111.82C265.62 105.36 270.86 100.12 277.32 100.12C283.78 100.12 289.02 105.36 289.02 111.82C289.02 118.28 283.78 123.52 277.32 123.52C270.86 123.52 265.62 118.28 265.62 111.82Z" fill="#D1D3D4"/>
<path d="M67.44 112.01C67.44 111.92 67.43 111.82 67.43 111.73C67.43 110.83 67.74 110.01 68.26 109.36L63.24 102.76C64.28 101.81 65.48 101.03 66.8 100.48L70.25 108.04C70.57 107.95 70.91 107.9 71.26 107.9C71.72 107.9 72.15 107.98 72.56 108.13L76.6 100.62C77.92 101.22 79.12 102.04 80.14 103.04L74.44 109.59C74.85 110.2 75.09 110.93 75.09 111.73C75.09 111.82 75.09 111.9 75.08 111.99L83.58 114.28C83.29 115.72 82.74 117.07 82 118.27L74.22 114.16C73.77 114.71 73.17 115.12 72.48 115.35L73.62 123.92C72.94 124.04 72.25 124.1 71.54 124.1C70.83 124.1 70.08 124.03 69.37 123.91L70.14 115.39C69.43 115.17 68.81 114.75 68.34 114.2L60.97 118.09C60.26 116.9 59.75 115.57 59.48 114.16L67.45 112.01H67.44Z" fill="#E6E7E8"/>
<path d="M71.3799 110.58C71.7886 110.58 72.1199 110.249 72.1199 109.84C72.1199 109.431 71.7886 109.1 71.3799 109.1C70.9712 109.1 70.6399 109.431 70.6399 109.84C70.6399 110.249 70.9712 110.58 71.3799 110.58Z" fill="#D1D3D4"/>
<path d="M71.3799 114.37C71.7886 114.37 72.1199 114.039 72.1199 113.63C72.1199 113.221 71.7886 112.89 71.3799 112.89C70.9712 112.89 70.6399 113.221 70.6399 113.63C70.6399 114.039 70.9712 114.37 71.3799 114.37Z" fill="#D1D3D4"/>
<path d="M69.49 112.47C69.8987 112.47 70.23 112.139 70.23 111.73C70.23 111.321 69.8987 110.99 69.49 110.99C69.0813 110.99 68.75 111.321 68.75 111.73C68.75 112.139 69.0813 112.47 69.49 112.47Z" fill="#D1D3D4"/>
<path d="M73.27 112.47C73.6787 112.47 74.01 112.139 74.01 111.73C74.01 111.321 73.6787 110.99 73.27 110.99C72.8613 110.99 72.53 111.321 72.53 111.73C72.53 112.139 72.8613 112.47 73.27 112.47Z" fill="#D1D3D4"/>
<path d="M51.8501 111.82C51.8501 122.69 60.6601 131.5 71.5301 131.5C82.4001 131.5 91.2101 122.69 91.2101 111.82C91.2101 100.95 82.4001 92.14 71.5301 92.14C60.6601 92.14 51.8501 100.95 51.8501 111.82ZM58.9401 111.82C58.9401 104.86 64.5801 99.23 71.5301 99.23C78.4801 99.23 84.1201 104.87 84.1201 111.82C84.1201 118.77 78.4801 124.41 71.5301 124.41C64.5801 124.41 58.9401 118.77 58.9401 111.82Z" fill="#010101"/>
<path d="M57.77 111.82C57.77 119.42 63.93 125.59 71.54 125.59C79.15 125.59 85.31 119.43 85.31 111.82C85.31 104.21 79.15 98.05 71.54 98.05C63.93 98.05 57.77 104.21 57.77 111.82ZM59.84 111.82C59.84 105.36 65.08 100.12 71.54 100.12C78 100.12 83.24 105.36 83.24 111.82C83.24 118.28 78 123.52 71.54 123.52C65.08 123.52 59.84 118.28 59.84 111.82Z" fill="#D1D3D4"/>
<path d="M259.96 69.86H204.37V70.65H259.96V69.86Z" fill="#D1D3D4"/>
<path d="M4.80001 114.48H45.41C45.41 114.33 45.4 114.18 45.4 114.02C45.4 110.2 46.42 106.53 48.19 103.25H6.93001C3.24001 103.25 0.26001 106.24 0.26001 109.92C0.26001 112.44 2.30001 114.48 4.82001 114.48H4.80001Z" fill="#231F20"/>
<path d="M94.1699 103.25C95.0399 105.46 95.5199 107.9 95.5199 110.55C95.3099 112.62 96.7799 114.47 98.8599 114.47H197.93V103.24H94.1599L94.1699 103.25Z" fill="#231F20"/>
<path d="M189.88 7.77002H15.3801V16.01H189.88V7.77002Z" fill="#F1F2F2"/>
<path d="M189.88 78.04H15.3801V86.28H189.88V78.04Z" fill="#F1F2F2"/>
<path d="M189.88 66.3301H15.3801V74.5701H189.88V66.3301Z" fill="#F1F2F2"/>
<path d="M189.88 54.62H15.3801V62.86H189.88V54.62Z" fill="#F1F2F2"/>
<path d="M189.88 42.9H15.3801V51.14H189.88V42.9Z" fill="#F1F2F2"/>
<path d="M189.88 31.1901H15.3801V39.4301H189.88V31.1901Z" fill="#F1F2F2"/>
<path d="M189.88 19.48H15.3801V27.72H189.88V19.48Z" fill="#F1F2F2"/>
<path d="M66.9701 89.75H15.3801V97.99H51.9301C55.8601 93.71 61.2001 90.68 66.9701 89.75Z" fill="#F1F2F2"/>
<path d="M74.9602 89.75C81.4502 90.63 87.2602 93.49 91.0402 97.99H189.88V89.75H74.9602Z" fill="#F1F2F2"/>
<path d="M267.27 71.52H261.19C260.42 71.52 259.84 70.82 259.98 70.06L261.49 62.14C261.6 61.56 262.11 61.14 262.7 61.14H267.27C271.08 61.14 274.17 63.46 274.17 66.33C274.17 69.2 271.08 71.52 267.27 71.52Z" fill="white"/>
<path d="M267.27 68.41H261.19C260.87 68.41 260.58 68.29 260.36 68.09L259.98 70.07C259.84 70.83 260.42 71.53 261.19 71.53H267.27C271.08 71.53 274.17 69.21 274.17 66.34C274.17 65.8 274.06 65.28 273.85 64.79C272.97 66.9 270.36 68.42 267.26 68.42L267.27 68.41Z" fill="#D1D3D4"/>
<path d="M301.2 90.83L308.51 93.7V77.61C308.51 77.61 308.51 77.6 308.51 77.59H302.12C300.73 77.59 299.6 78.72 299.6 80.11V88.48C299.6 89.52 300.24 90.45 301.2 90.83Z" fill="#BCBEC0"/>
<path d="M301.73 89.47C301.32 89.31 301.05 88.92 301.05 88.48V80.11C301.05 79.52 301.53 79.04 302.12 79.04H307.05V91.55L301.73 89.46V89.47Z" fill="white"/>
<path d="M314.61 114.48H300.12L299.92 103.63L308.73 103.83C311.98 103.83 314.62 106.47 314.62 109.72V114.48H314.61Z" fill="#231F20"/>
<path d="M228.76 33.33H218.05L204.86 60.66V60.77C204.88 62.8 206.53 64.44 208.56 64.44H214.02L229.03 33.34C228.94 33.34 228.86 33.33 228.77 33.33H228.76Z" fill="#28211F"/>
<path d="M237.95 40.6299L232.42 35.3999L218.41 64.4299H226.46L237.95 40.6299Z" fill="#28211F"/>
<path d="M204.86 74.5601V82.9201L253.22 74.5601H204.86Z" fill="white"/>
<path d="M189.88 19.48H15.3801V19.93H189.88V19.48Z" fill="#D1D3D4"/>
<path d="M189.88 31.1899H15.3801V31.64H189.88V31.1899Z" fill="#D1D3D4"/>
<path d="M189.88 42.6799H15.3801V43.1299H189.88V42.6799Z" fill="#D1D3D4"/>
<path d="M189.88 54.39H15.3801V54.84H189.88V54.39Z" fill="#D1D3D4"/>
<path d="M189.88 66.1H15.3801V66.55H189.88V66.1Z" fill="#D1D3D4"/>
<path d="M189.88 77.8201H15.3801V78.2701H189.88V77.8201Z" fill="#D1D3D4"/>
<path d="M189.88 89.23H15.3801V89.68H189.88V89.23Z" fill="#D1D3D4"/>
</svg>
