<svg width="533" height="419" viewBox="0 0 533 419" fill="none" xmlns="http://www.w3.org/2000/svg">
<path d="M519.927 274.988H435.457V386.674H519.927V274.988Z" fill="#DF4040"/>
<path d="M454.704 311.736C454.603 310.883 454.193 310.221 453.475 309.75C452.756 309.278 451.875 309.042 450.831 309.042C450.068 309.042 449.4 309.166 448.828 309.413C448.261 309.66 447.817 309.999 447.497 310.431C447.183 310.864 447.026 311.355 447.026 311.905C447.026 312.365 447.135 312.761 447.354 313.092C447.579 313.417 447.865 313.69 448.213 313.909C448.561 314.122 448.926 314.299 449.308 314.439C449.689 314.574 450.04 314.683 450.36 314.767L452.111 315.239C452.56 315.357 453.06 315.519 453.61 315.727C454.165 315.935 454.696 316.218 455.201 316.577C455.712 316.931 456.132 317.386 456.464 317.941C456.795 318.497 456.96 319.179 456.96 319.987C456.96 320.919 456.716 321.761 456.228 322.513C455.745 323.265 455.038 323.862 454.106 324.306C453.18 324.749 452.055 324.971 450.73 324.971C449.496 324.971 448.426 324.772 447.523 324.373C446.625 323.975 445.918 323.419 445.401 322.706C444.89 321.993 444.601 321.166 444.534 320.223H446.689C446.745 320.874 446.964 321.413 447.346 321.839C447.733 322.26 448.222 322.574 448.811 322.782C449.406 322.984 450.046 323.085 450.73 323.085C451.527 323.085 452.243 322.956 452.877 322.698C453.511 322.434 454.014 322.069 454.384 321.603C454.755 321.132 454.94 320.582 454.94 319.953C454.94 319.381 454.78 318.915 454.46 318.556C454.14 318.197 453.719 317.905 453.197 317.68C452.675 317.456 452.111 317.259 451.505 317.091L449.383 316.485C448.036 316.097 446.97 315.545 446.184 314.826C445.398 314.108 445.005 313.168 445.005 312.006C445.005 311.04 445.266 310.199 445.788 309.48C446.316 308.756 447.023 308.195 447.91 307.796C448.802 307.392 449.799 307.19 450.899 307.19C452.01 307.19 452.998 307.389 453.862 307.788C454.727 308.181 455.411 308.72 455.916 309.404C456.427 310.089 456.697 310.866 456.725 311.736H454.704ZM461.1 324.668H458.911L465.242 307.426H467.398L473.729 324.668H471.54L466.387 310.154H466.253L461.1 324.668ZM461.909 317.933H470.732V319.785H461.909V317.933ZM476.414 324.668V307.426H478.502V322.816H486.517V324.668H476.414ZM489.75 324.668V307.426H500.156V309.278H491.838V315.104H499.617V316.956H491.838V322.816H500.29V324.668H489.75Z" fill="white"/>
<path d="M448.891 287.482C449.686 287.482 450.331 286.822 450.331 286.007C450.331 285.192 449.686 284.532 448.891 284.532C448.096 284.532 447.452 285.192 447.452 286.007C447.452 286.822 448.096 287.482 448.891 287.482Z" fill="#F5F5F5"/>
<path d="M506.207 287.482C507.002 287.482 507.647 286.822 507.647 286.007C507.647 285.192 507.002 284.532 506.207 284.532C505.412 284.532 504.767 285.192 504.767 286.007C504.767 286.822 505.412 287.482 506.207 287.482Z" fill="#F5F5F5"/>
<path d="M448.978 285.804V272.324C448.978 256.132 461.79 243.007 477.592 243.007C493.396 243.007 506.207 256.134 506.207 272.324V285.804" stroke="#595646" stroke-miterlimit="10" stroke-linecap="round" stroke-linejoin="round"/>
<path d="M220.482 271.741H22.2489C21.1827 271.741 20.3183 270.856 20.3183 269.763V184.237C20.3183 183.145 21.1827 182.259 22.2489 182.259H220.482C221.549 182.259 222.413 183.145 222.413 184.237V269.763C222.413 270.856 221.549 271.741 220.482 271.741Z" fill="#D1652B"/>
<path d="M40.1779 183.83V172.166L202.555 160.502V183.83H40.1779Z" fill="#5F9133"/>
<path d="M35.6839 191.197V179.533L207.049 167.869V191.197H35.6839Z" fill="#689F38"/>
<path d="M137.333 191.202C134.414 185.195 128.36 181.068 121.366 181.068C114.374 181.068 108.322 185.193 105.402 191.196L137.333 191.202Z" fill="#81C445"/>
<path d="M31.9067 191.197H210.461" stroke="#994A1F" stroke-width="2" stroke-miterlimit="10" stroke-linecap="round"/>
<path d="M121.366 194.726C121.366 194.726 121.573 195.841 121.841 197.793C122.109 199.744 122.456 202.531 122.738 205.877C123.375 212.568 123.758 221.489 123.766 230.408C123.763 239.329 123.385 248.25 122.744 254.941C122.462 258.285 122.111 261.074 121.842 263.025C121.575 264.976 121.364 266.092 121.364 266.092C121.364 266.092 121.154 264.977 120.887 263.025C120.618 261.074 120.267 258.285 119.985 254.941C119.344 248.25 118.966 239.329 118.963 230.408C118.972 221.488 119.353 212.567 119.991 205.877C120.273 202.531 120.621 199.744 120.888 197.793C121.158 195.842 121.366 194.726 121.366 194.726Z" fill="#994A1F"/>
<path d="M135.563 203.475H210.461" stroke="#994A1F" stroke-width="2" stroke-miterlimit="10" stroke-linecap="round"/>
<path d="M135.563 213.296H210.461" stroke="#994A1F" stroke-width="2" stroke-miterlimit="10" stroke-linecap="round"/>
<path d="M31.9067 203.475H106.803" stroke="#994A1F" stroke-width="2" stroke-miterlimit="10" stroke-linecap="round"/>
<path d="M31.9067 213.296H106.803" stroke="#994A1F" stroke-width="2" stroke-miterlimit="10" stroke-linecap="round"/>
<path d="M15.9528 170.094C24.7632 170.094 31.9055 162.777 31.9055 153.75C31.9055 144.723 24.7632 137.405 15.9528 137.405C7.1423 137.405 0 144.723 0 153.75C0 162.777 7.1423 170.094 15.9528 170.094Z" fill="#FFD600"/>
<path d="M14.9421 158.951V142.618H15.9884V158.951H14.9421ZM18.4638 147.518C18.3873 146.871 18.0768 146.369 17.5324 146.012C16.988 145.655 16.3202 145.476 15.5291 145.476C14.9507 145.476 14.4445 145.57 14.0107 145.757C13.5811 145.944 13.2451 146.201 13.0027 146.529C12.7645 146.856 12.6454 147.229 12.6454 147.645C12.6454 147.994 12.7283 148.294 12.8942 148.545C13.0643 148.792 13.2812 148.998 13.5449 149.164C13.8086 149.325 14.0851 149.459 14.3743 149.566C14.6636 149.668 14.9294 149.751 15.1718 149.815L16.4988 150.172C16.8391 150.261 17.2176 150.385 17.6345 150.542C18.0555 150.699 18.4575 150.914 18.8403 151.186C19.2273 151.454 19.5463 151.799 19.7972 152.22C20.0482 152.641 20.1737 153.158 20.1737 153.77C20.1737 154.476 19.9886 155.114 19.6186 155.684C19.2528 156.254 18.7169 156.707 18.0109 157.043C17.3091 157.379 16.4563 157.547 15.4525 157.547C14.5168 157.547 13.7066 157.396 13.0218 157.094C12.3413 156.792 11.8054 156.371 11.4141 155.831C11.027 155.291 10.808 154.663 10.7569 153.949H12.3902C12.4327 154.442 12.5986 154.85 12.8878 155.174C13.1813 155.493 13.5513 155.731 13.9979 155.888C14.4488 156.041 14.9336 156.118 15.4525 156.118C16.0565 156.118 16.5988 156.02 17.0794 155.824C17.56 155.625 17.9407 155.348 18.2214 154.995C18.5021 154.638 18.6425 154.221 18.6425 153.745C18.6425 153.311 18.5213 152.958 18.2788 152.686C18.0364 152.413 17.7174 152.192 17.3218 152.022C16.9263 151.852 16.4988 151.703 16.0395 151.575L14.4318 151.116C13.411 150.823 12.6028 150.404 12.0074 149.859C11.4119 149.315 11.1142 148.602 11.1142 147.722C11.1142 146.99 11.312 146.352 11.7075 145.808C12.1073 145.259 12.6433 144.834 13.3153 144.532C13.9915 144.226 14.7465 144.073 15.5801 144.073C16.4223 144.073 17.1709 144.224 17.8259 144.526C18.4809 144.823 18.9998 145.232 19.3826 145.751C19.7696 146.27 19.9738 146.859 19.995 147.518H18.4638Z" fill="#B39600"/>
<path d="M247.052 259.351C255.863 259.351 263.005 252.033 263.005 243.006C263.005 233.979 255.863 226.661 247.052 226.661C238.242 226.661 231.1 233.979 231.1 243.006C231.1 252.033 238.242 259.351 247.052 259.351Z" fill="#FFD600"/>
<path d="M246.042 248.208V231.876H247.088V248.208H246.042ZM249.564 236.775C249.487 236.129 249.177 235.627 248.632 235.27C248.088 234.912 247.42 234.734 246.629 234.734C246.051 234.734 245.545 234.827 245.111 235.015C244.681 235.202 244.345 235.459 244.103 235.787C243.864 236.114 243.745 236.486 243.745 236.903C243.745 237.252 243.828 237.552 243.994 237.803C244.164 238.049 244.381 238.256 244.645 238.421C244.909 238.583 245.185 238.717 245.474 238.823C245.764 238.925 246.029 239.008 246.272 239.072L247.599 239.429C247.939 239.519 248.318 239.642 248.734 239.799C249.156 239.957 249.557 240.172 249.94 240.444C250.327 240.712 250.646 241.056 250.897 241.477C251.148 241.898 251.274 242.415 251.274 243.028C251.274 243.734 251.089 244.372 250.719 244.942C250.353 245.512 249.817 245.965 249.111 246.301C248.409 246.637 247.556 246.805 246.553 246.805C245.617 246.805 244.807 246.654 244.122 246.352C243.441 246.05 242.905 245.629 242.514 245.088C242.127 244.548 241.908 243.921 241.857 243.206H243.49C243.533 243.7 243.699 244.108 243.988 244.431C244.281 244.75 244.651 244.988 245.098 245.146C245.549 245.299 246.034 245.376 246.553 245.376C247.157 245.376 247.699 245.278 248.179 245.082C248.66 244.882 249.041 244.606 249.321 244.253C249.602 243.895 249.743 243.479 249.743 243.002C249.743 242.568 249.621 242.215 249.379 241.943C249.136 241.671 248.817 241.45 248.422 241.28C248.026 241.11 247.599 240.961 247.14 240.833L245.532 240.374C244.511 240.08 243.703 239.661 243.107 239.117C242.512 238.572 242.214 237.86 242.214 236.98C242.214 236.248 242.412 235.61 242.808 235.066C243.207 234.517 243.743 234.092 244.415 233.79C245.092 233.483 245.847 233.33 246.68 233.33C247.522 233.33 248.271 233.481 248.926 233.783C249.581 234.081 250.1 234.489 250.483 235.008C250.87 235.527 251.074 236.116 251.095 236.775H249.564Z" fill="#B39600"/>
<path d="M100.907 153.75V150.674" stroke="white" stroke-width="2" stroke-linecap="round" stroke-linejoin="round"/>
<path d="M100.907 145.112V114.524" stroke="white" stroke-width="2" stroke-linecap="round" stroke-linejoin="round" stroke-dasharray="4.52 4.52"/>
<path d="M100.907 111.742V108.667H103.908" stroke="white" stroke-width="2" stroke-linecap="round" stroke-linejoin="round"/>
<path d="M109.557 108.667H185.814" stroke="white" stroke-width="2" stroke-linecap="round" stroke-linejoin="round" stroke-dasharray="4.7 4.7"/>
<path d="M188.638 108.667H191.64" stroke="white" stroke-width="2" stroke-linecap="round" stroke-linejoin="round"/>
<path d="M312.754 105.66H221.679C220.464 105.66 219.479 104.65 219.479 103.405V48.3434C219.479 47.0973 220.464 46.0886 221.679 46.0886H312.754C313.971 46.0886 314.955 47.0985 314.955 48.3434V103.405C314.956 104.651 313.971 105.66 312.754 105.66Z" fill="#00A0B8"/>
<path d="M244.731 78.7051H228.136C227.86 78.7051 227.636 78.4751 227.636 78.1922V69.184C227.636 68.9011 227.86 68.6711 228.136 68.6711H244.731C245.008 68.6711 245.232 68.8999 245.232 69.184V78.1922C245.232 78.4763 245.008 78.7051 244.731 78.7051Z" fill="#E0E0E0"/>
<path opacity="0.3" d="M301.31 67.0327H219.479V102.212C219.479 104.116 220.985 105.661 222.845 105.661H304.677V70.4819C304.675 68.5765 303.169 67.0327 301.31 67.0327Z" fill="#00B8D4"/>
<path d="M298.573 131.223H207.498C206.281 131.223 205.297 130.213 205.297 128.968V73.9065C205.297 72.6604 206.283 71.6517 207.498 71.6517H298.573C299.789 71.6517 300.773 72.6617 300.773 73.9065V128.968C300.774 130.213 299.789 131.223 298.573 131.223Z" fill="#00B8D4"/>
<path d="M231.996 83.0955H214.554V94.2256H231.996V83.0955Z" fill="#FFAB00"/>
<path d="M214.554 88.6605H222.587V91.443H231.996" stroke="#D48D00" stroke-width="0.25" stroke-miterlimit="10" stroke-linejoin="round"/>
<path d="M214.554 85.4462H231.996" stroke="#D48D00" stroke-width="0.25" stroke-miterlimit="10" stroke-linejoin="round"/>
<path d="M217.308 88.6605V94.2256" stroke="#D48D00" stroke-width="0.25" stroke-miterlimit="10" stroke-linejoin="round"/>
<path d="M228.899 85.4462V83.0955" stroke="#D48D00" stroke-width="0.25" stroke-miterlimit="10" stroke-linejoin="round"/>
<path d="M219.259 85.4462V83.0955" stroke="#D48D00" stroke-width="0.25" stroke-miterlimit="10" stroke-linejoin="round"/>
<path d="M231.996 87.7982H227.636V91.4431" stroke="#D48D00" stroke-width="0.25" stroke-miterlimit="10" stroke-linejoin="round"/>
<path d="M215.245 117.432V121.975H214.695V118.009H214.668L213.559 118.745V118.186L214.695 117.432H215.245ZM216.552 121.975V121.575L218.051 119.934C218.227 119.742 218.372 119.575 218.486 119.433C218.6 119.289 218.684 119.155 218.739 119.029C218.795 118.902 218.823 118.769 218.823 118.63C218.823 118.47 218.784 118.332 218.708 118.215C218.632 118.098 218.529 118.008 218.397 117.944C218.265 117.881 218.118 117.849 217.953 117.849C217.779 117.849 217.627 117.885 217.496 117.958C217.368 118.029 217.268 118.128 217.197 118.257C217.128 118.386 217.093 118.537 217.093 118.71H216.569C216.569 118.443 216.631 118.21 216.753 118.009C216.876 117.808 217.043 117.651 217.255 117.538C217.468 117.426 217.706 117.37 217.971 117.37C218.237 117.37 218.473 117.426 218.679 117.538C218.884 117.651 219.045 117.802 219.162 117.993C219.279 118.184 219.337 118.396 219.337 118.63C219.337 118.797 219.307 118.96 219.247 119.12C219.187 119.278 219.084 119.455 218.936 119.65C218.79 119.844 218.586 120.08 218.326 120.36L217.306 121.451V121.487H219.417V121.975H216.552ZM221.868 122.037C221.576 122.037 221.315 121.986 221.085 121.886C220.858 121.785 220.676 121.646 220.542 121.467C220.409 121.286 220.336 121.077 220.325 120.839H220.883C220.895 120.985 220.946 121.112 221.034 121.218C221.123 121.323 221.239 121.405 221.383 121.462C221.526 121.52 221.685 121.549 221.859 121.549C222.055 121.549 222.228 121.515 222.378 121.447C222.529 121.379 222.648 121.284 222.733 121.163C222.819 121.042 222.862 120.901 222.862 120.741C222.862 120.574 222.821 120.427 222.738 120.3C222.655 120.171 222.534 120.071 222.374 119.998C222.214 119.926 222.019 119.89 221.788 119.89H221.425V119.402H221.788C221.969 119.402 222.127 119.369 222.263 119.304C222.401 119.239 222.508 119.147 222.585 119.029C222.663 118.911 222.702 118.772 222.702 118.612C222.702 118.458 222.668 118.324 222.6 118.211C222.532 118.097 222.436 118.008 222.312 117.944C222.189 117.881 222.044 117.849 221.877 117.849C221.72 117.849 221.573 117.878 221.434 117.935C221.296 117.992 221.184 118.074 221.096 118.182C221.009 118.288 220.962 118.417 220.954 118.568H220.422C220.431 118.33 220.503 118.121 220.637 117.942C220.772 117.762 220.948 117.621 221.165 117.521C221.384 117.42 221.624 117.37 221.886 117.37C222.167 117.37 222.408 117.427 222.609 117.541C222.81 117.653 222.965 117.802 223.073 117.987C223.181 118.171 223.235 118.371 223.235 118.585C223.235 118.841 223.167 119.059 223.033 119.24C222.9 119.42 222.719 119.545 222.489 119.615V119.65C222.776 119.697 223 119.819 223.161 120.016C223.323 120.211 223.403 120.453 223.403 120.741C223.403 120.988 223.336 121.21 223.201 121.407C223.068 121.602 222.886 121.756 222.656 121.868C222.425 121.981 222.163 122.037 221.868 122.037ZM224.204 121.043V120.591L226.2 117.432H226.528V118.133H226.307L224.798 120.52V120.555H227.487V121.043H224.204ZM226.342 121.975V120.905V120.695V117.432H226.866V121.975H226.342ZM231.494 122.037C231.234 122.037 231 121.985 230.791 121.881C230.583 121.778 230.415 121.636 230.29 121.456C230.164 121.275 230.095 121.07 230.083 120.839H230.616C230.637 121.044 230.73 121.215 230.895 121.349C231.062 121.482 231.262 121.549 231.494 121.549C231.681 121.549 231.846 121.505 231.991 121.418C232.137 121.331 232.252 121.211 232.335 121.059C232.419 120.905 232.461 120.731 232.461 120.537C232.461 120.339 232.418 120.162 232.33 120.007C232.245 119.85 232.126 119.727 231.976 119.637C231.825 119.547 231.652 119.501 231.459 119.499C231.32 119.498 231.177 119.519 231.031 119.564C230.884 119.606 230.764 119.662 230.669 119.73L230.154 119.668L230.43 117.432H232.79V117.92H230.891L230.731 119.26H230.758C230.851 119.186 230.968 119.124 231.108 119.076C231.249 119.027 231.395 119.002 231.547 119.002C231.825 119.002 232.073 119.069 232.29 119.202C232.509 119.334 232.681 119.514 232.805 119.743C232.931 119.972 232.994 120.234 232.994 120.528C232.994 120.818 232.929 121.077 232.798 121.305C232.67 121.531 232.492 121.71 232.266 121.842C232.04 121.972 231.783 122.037 231.494 122.037ZM235.383 122.037C235.197 122.034 235.01 121.998 234.824 121.93C234.638 121.862 234.468 121.748 234.314 121.586C234.16 121.424 234.037 121.204 233.943 120.928C233.85 120.65 233.804 120.301 233.804 119.881C233.804 119.479 233.841 119.122 233.917 118.812C233.992 118.5 234.102 118.237 234.245 118.024C234.389 117.81 234.562 117.647 234.764 117.536C234.968 117.425 235.198 117.37 235.454 117.37C235.708 117.37 235.935 117.421 236.133 117.523C236.332 117.623 236.495 117.764 236.621 117.944C236.746 118.125 236.828 118.333 236.865 118.568H236.323C236.273 118.364 236.176 118.194 236.031 118.06C235.886 117.925 235.694 117.858 235.454 117.858C235.102 117.858 234.825 118.011 234.622 118.317C234.421 118.623 234.32 119.053 234.318 119.606H234.354C234.437 119.48 234.535 119.373 234.649 119.284C234.764 119.194 234.891 119.124 235.03 119.076C235.169 119.027 235.316 119.002 235.472 119.002C235.732 119.002 235.97 119.067 236.186 119.198C236.402 119.326 236.575 119.504 236.705 119.732C236.835 119.958 236.9 120.218 236.9 120.511C236.9 120.792 236.837 121.049 236.712 121.283C236.586 121.515 236.409 121.7 236.182 121.837C235.955 121.973 235.689 122.04 235.383 122.037ZM235.383 121.549C235.569 121.549 235.736 121.502 235.884 121.409C236.034 121.316 236.151 121.191 236.237 121.034C236.324 120.877 236.368 120.703 236.368 120.511C236.368 120.323 236.326 120.152 236.241 119.998C236.159 119.843 236.044 119.72 235.898 119.628C235.753 119.536 235.587 119.49 235.401 119.49C235.26 119.49 235.129 119.518 235.008 119.575C234.887 119.629 234.78 119.705 234.689 119.801C234.599 119.897 234.528 120.007 234.476 120.131C234.424 120.254 234.398 120.384 234.398 120.52C234.398 120.7 234.44 120.869 234.525 121.025C234.61 121.182 234.727 121.308 234.875 121.405C235.024 121.501 235.194 121.549 235.383 121.549ZM237.914 121.975L239.946 117.955V117.92H237.604V117.432H240.514V117.947L238.491 121.975H237.914ZM242.704 122.037C242.4 122.037 242.131 121.983 241.897 121.875C241.665 121.765 241.484 121.615 241.354 121.425C241.223 121.232 241.159 121.013 241.161 120.768C241.159 120.576 241.197 120.398 241.274 120.236C241.351 120.072 241.456 119.935 241.589 119.825C241.723 119.714 241.873 119.644 242.039 119.615V119.588C241.822 119.532 241.649 119.41 241.52 119.222C241.391 119.033 241.328 118.818 241.329 118.577C241.328 118.346 241.386 118.14 241.504 117.958C241.623 117.776 241.785 117.632 241.992 117.527C242.201 117.422 242.438 117.37 242.704 117.37C242.968 117.37 243.203 117.422 243.41 117.527C243.617 117.632 243.779 117.776 243.898 117.958C244.017 118.14 244.078 118.346 244.08 118.577C244.078 118.818 244.012 119.033 243.882 119.222C243.753 119.41 243.583 119.532 243.37 119.588V119.615C243.534 119.644 243.682 119.714 243.813 119.825C243.945 119.935 244.05 120.072 244.128 120.236C244.207 120.398 244.247 120.576 244.248 120.768C244.247 121.013 244.18 121.232 244.048 121.425C243.918 121.615 243.737 121.765 243.505 121.875C243.274 121.983 243.007 122.037 242.704 122.037ZM242.704 121.549C242.91 121.549 243.087 121.515 243.237 121.449C243.386 121.382 243.501 121.288 243.583 121.167C243.664 121.046 243.705 120.904 243.707 120.741C243.705 120.57 243.661 120.418 243.574 120.287C243.487 120.155 243.368 120.052 243.217 119.976C243.067 119.901 242.897 119.863 242.704 119.863C242.511 119.863 242.338 119.901 242.185 119.976C242.034 120.052 241.915 120.155 241.828 120.287C241.742 120.418 241.7 120.57 241.702 120.741C241.7 120.904 241.739 121.046 241.819 121.167C241.901 121.288 242.017 121.382 242.168 121.449C242.318 121.515 242.497 121.549 242.704 121.549ZM242.704 119.393C242.867 119.393 243.011 119.36 243.137 119.295C243.264 119.23 243.364 119.139 243.436 119.022C243.509 118.906 243.546 118.769 243.547 118.612C243.546 118.458 243.509 118.324 243.439 118.211C243.368 118.095 243.269 118.006 243.144 117.944C243.018 117.881 242.871 117.849 242.704 117.849C242.534 117.849 242.386 117.881 242.259 117.944C242.131 118.006 242.033 118.095 241.963 118.211C241.894 118.324 241.86 118.458 241.861 118.612C241.86 118.769 241.895 118.906 241.966 119.022C242.038 119.139 242.138 119.23 242.265 119.295C242.392 119.36 242.539 119.393 242.704 119.393ZM248.301 117.37C248.487 117.371 248.674 117.407 248.86 117.476C249.046 117.546 249.216 117.661 249.37 117.822C249.524 117.982 249.647 118.2 249.741 118.477C249.834 118.753 249.88 119.1 249.88 119.517C249.88 119.921 249.842 120.279 249.765 120.593C249.69 120.905 249.58 121.168 249.437 121.382C249.295 121.597 249.122 121.759 248.918 121.87C248.715 121.981 248.486 122.037 248.23 122.037C247.976 122.037 247.749 121.986 247.549 121.886C247.351 121.784 247.188 121.643 247.061 121.462C246.935 121.28 246.855 121.07 246.819 120.83H247.361C247.409 121.039 247.506 121.211 247.651 121.347C247.798 121.481 247.991 121.549 248.23 121.549C248.581 121.549 248.857 121.396 249.06 121.09C249.264 120.784 249.366 120.351 249.366 119.792H249.33C249.247 119.916 249.149 120.023 249.035 120.114C248.921 120.204 248.795 120.273 248.656 120.322C248.517 120.371 248.369 120.395 248.212 120.395C247.952 120.395 247.713 120.331 247.496 120.202C247.28 120.072 247.107 119.894 246.977 119.668C246.848 119.44 246.784 119.18 246.784 118.887C246.784 118.609 246.846 118.355 246.97 118.124C247.096 117.892 247.272 117.707 247.498 117.57C247.726 117.432 247.994 117.365 248.301 117.37ZM248.301 117.858C248.115 117.858 247.947 117.904 247.798 117.998C247.65 118.089 247.532 118.213 247.445 118.37C247.359 118.526 247.316 118.698 247.316 118.887C247.316 119.076 247.358 119.249 247.44 119.404C247.525 119.558 247.639 119.68 247.784 119.772C247.931 119.862 248.097 119.907 248.283 119.907C248.424 119.907 248.555 119.88 248.676 119.825C248.797 119.769 248.903 119.693 248.993 119.597C249.085 119.499 249.157 119.389 249.208 119.266C249.26 119.142 249.286 119.013 249.286 118.878C249.286 118.701 249.243 118.534 249.157 118.379C249.073 118.224 248.956 118.098 248.807 118.002C248.659 117.906 248.49 117.858 248.301 117.858ZM252.234 122.037C251.9 122.037 251.615 121.946 251.38 121.764C251.145 121.581 250.966 121.315 250.841 120.968C250.717 120.619 250.655 120.197 250.655 119.703C250.655 119.212 250.717 118.793 250.841 118.446C250.967 118.097 251.147 117.831 251.383 117.647C251.619 117.462 251.903 117.37 252.234 117.37C252.566 117.37 252.849 117.462 253.084 117.647C253.32 117.831 253.501 118.097 253.625 118.446C253.751 118.793 253.814 119.212 253.814 119.703C253.814 120.197 253.751 120.619 253.627 120.968C253.503 121.315 253.323 121.581 253.088 121.764C252.853 121.946 252.568 122.037 252.234 122.037ZM252.234 121.549C252.566 121.549 252.823 121.389 253.006 121.07C253.19 120.75 253.281 120.295 253.281 119.703C253.281 119.31 253.239 118.975 253.155 118.699C253.072 118.422 252.952 118.211 252.795 118.066C252.64 117.921 252.453 117.849 252.234 117.849C251.906 117.849 251.649 118.011 251.465 118.335C251.28 118.657 251.187 119.113 251.187 119.703C251.187 120.097 251.229 120.431 251.312 120.706C251.394 120.981 251.513 121.19 251.669 121.334C251.825 121.477 252.014 121.549 252.234 121.549ZM256.253 117.432V121.975H255.703V118.009H255.677L254.568 118.745V118.186L255.703 117.432H256.253ZM257.56 121.975V121.575L259.059 119.934C259.235 119.742 259.38 119.575 259.494 119.433C259.608 119.289 259.692 119.155 259.747 119.029C259.803 118.902 259.831 118.769 259.831 118.63C259.831 118.47 259.793 118.332 259.716 118.215C259.64 118.098 259.537 118.008 259.405 117.944C259.274 117.881 259.126 117.849 258.962 117.849C258.787 117.849 258.635 117.885 258.505 117.958C258.376 118.029 258.276 118.128 258.205 118.257C258.136 118.386 258.101 118.537 258.101 118.71H257.578C257.578 118.443 257.639 118.21 257.762 118.009C257.884 117.808 258.052 117.651 258.263 117.538C258.476 117.426 258.715 117.37 258.979 117.37C259.246 117.37 259.481 117.426 259.687 117.538C259.893 117.651 260.054 117.802 260.171 117.993C260.287 118.184 260.346 118.396 260.346 118.63C260.346 118.797 260.315 118.96 260.255 119.12C260.196 119.278 260.092 119.455 259.944 119.65C259.798 119.844 259.595 120.08 259.334 120.36L258.314 121.451V121.487H260.426V121.975H257.56ZM262.992 121.043V120.591L264.988 117.432H265.317V118.133H265.095L263.586 120.52V120.555H266.275V121.043H262.992ZM265.13 121.975V120.905V120.695V117.432H265.654V121.975H265.13ZM268.526 122.037C268.265 122.037 268.031 121.985 267.822 121.881C267.614 121.778 267.447 121.636 267.321 121.456C267.195 121.275 267.127 121.07 267.115 120.839H267.647C267.668 121.044 267.761 121.215 267.927 121.349C268.094 121.482 268.293 121.549 268.526 121.549C268.712 121.549 268.877 121.505 269.022 121.418C269.169 121.331 269.283 121.211 269.366 121.059C269.45 120.905 269.493 120.731 269.493 120.537C269.493 120.339 269.449 120.162 269.362 120.007C269.276 119.85 269.158 119.727 269.007 119.637C268.856 119.547 268.684 119.501 268.49 119.499C268.351 119.498 268.208 119.519 268.062 119.564C267.916 119.606 267.795 119.662 267.7 119.73L267.186 119.668L267.461 117.432H269.821V117.92H267.922L267.762 119.26H267.789C267.882 119.186 267.999 119.124 268.14 119.076C268.28 119.027 268.426 119.002 268.579 119.002C268.857 119.002 269.104 119.069 269.322 119.202C269.541 119.334 269.712 119.514 269.836 119.743C269.962 119.972 270.025 120.234 270.025 120.528C270.025 120.818 269.96 121.077 269.83 121.305C269.701 121.531 269.524 121.71 269.297 121.842C269.071 121.972 268.814 122.037 268.526 122.037ZM272.414 122.037C272.228 122.034 272.042 121.998 271.855 121.93C271.669 121.862 271.499 121.748 271.345 121.586C271.191 121.424 271.068 121.204 270.975 120.928C270.882 120.65 270.835 120.301 270.835 119.881C270.835 119.479 270.873 119.122 270.948 118.812C271.024 118.5 271.133 118.237 271.276 118.024C271.42 117.81 271.593 117.647 271.796 117.536C272 117.425 272.23 117.37 272.485 117.37C272.74 117.37 272.966 117.421 273.164 117.523C273.364 117.623 273.526 117.764 273.652 117.944C273.778 118.125 273.859 118.333 273.896 118.568H273.355C273.305 118.364 273.207 118.194 273.062 118.06C272.917 117.925 272.725 117.858 272.485 117.858C272.133 117.858 271.856 118.011 271.654 118.317C271.452 118.623 271.351 119.053 271.35 119.606H271.385C271.468 119.48 271.566 119.373 271.68 119.284C271.796 119.194 271.923 119.124 272.062 119.076C272.201 119.027 272.348 119.002 272.503 119.002C272.763 119.002 273.001 119.067 273.217 119.198C273.433 119.326 273.606 119.504 273.736 119.732C273.866 119.958 273.932 120.218 273.932 120.511C273.932 120.792 273.869 121.049 273.743 121.283C273.617 121.515 273.441 121.7 273.213 121.837C272.987 121.973 272.72 122.04 272.414 122.037ZM272.414 121.549C272.601 121.549 272.768 121.502 272.916 121.409C273.065 121.316 273.183 121.191 273.268 121.034C273.356 120.877 273.399 120.703 273.399 120.511C273.399 120.323 273.357 120.152 273.273 119.998C273.19 119.843 273.075 119.72 272.929 119.628C272.784 119.536 272.618 119.49 272.432 119.49C272.292 119.49 272.161 119.518 272.039 119.575C271.918 119.629 271.812 119.705 271.72 119.801C271.63 119.897 271.559 120.007 271.507 120.131C271.455 120.254 271.43 120.384 271.43 120.52C271.43 120.7 271.472 120.869 271.556 121.025C271.642 121.182 271.759 121.308 271.906 121.405C272.056 121.501 272.225 121.549 272.414 121.549Z" fill="#FAFAFA"/>
<path d="M211.647 86.8585V91.0519L208.127 88.9558L211.647 86.8585Z" fill="#FAFAFA"/>
<path d="M314.956 51.8198H219.479V62.8711H314.956V51.8198Z" fill="#424242"/>
<path d="M247.052 143.061V146.137" stroke="white" stroke-width="2" stroke-linecap="round" stroke-linejoin="round"/>
<path d="M247.052 152.81V176.165" stroke="white" stroke-width="2" stroke-linecap="round" stroke-linejoin="round" stroke-dasharray="5.42 5.42"/>
<path d="M247.052 179.501V182.576H250.054" stroke="white" stroke-width="2" stroke-linecap="round" stroke-linejoin="round"/>
<path d="M256.361 182.576H303.662" stroke="white" stroke-width="2" stroke-linecap="round" stroke-linejoin="round" stroke-dasharray="5.25 5.25"/>
<path d="M306.815 182.576H309.816" stroke="white" stroke-width="2" stroke-linecap="round" stroke-linejoin="round"/>
<path d="M337.505 299.214V222.363C337.505 221.117 338.491 220.108 339.706 220.108H383.662C384.877 220.108 385.863 221.118 385.863 222.363V299.214C385.863 300.458 384.877 301.468 383.662 301.468H339.706C338.491 301.468 337.505 300.458 337.505 299.214Z" fill="#00B8D4"/>
<path d="M376.574 242.86V227.996H367.538V242.86H376.574Z" fill="#FFAB00"/>
<path d="M372.057 227.996V234.842H369.797V242.859" stroke="#D48D00" stroke-width="0.25" stroke-miterlimit="10" stroke-linejoin="round"/>
<path d="M374.665 227.996V242.859" stroke="#D48D00" stroke-width="0.25" stroke-miterlimit="10" stroke-linejoin="round"/>
<path d="M372.057 230.343H367.539" stroke="#D48D00" stroke-width="0.25" stroke-miterlimit="10" stroke-linejoin="round"/>
<path d="M374.665 240.22H376.574" stroke="#D48D00" stroke-width="0.25" stroke-miterlimit="10" stroke-linejoin="round"/>
<path d="M374.665 232.005H376.574" stroke="#D48D00" stroke-width="0.25" stroke-miterlimit="10" stroke-linejoin="round"/>
<path d="M372.756 242.859V239.145H369.797" stroke="#D48D00" stroke-width="0.25" stroke-miterlimit="10" stroke-linejoin="round"/>
<path d="M348.663 228.542H344.885V228.085H348.183V228.062L347.571 227.14H348.036L348.663 228.085V228.542ZM344.885 229.629H345.217L346.582 230.876C346.742 231.022 346.881 231.143 346.999 231.237C347.118 231.332 347.23 231.402 347.335 231.448C347.441 231.494 347.551 231.518 347.667 231.518C347.8 231.518 347.915 231.486 348.012 231.422C348.109 231.359 348.184 231.273 348.237 231.164C348.29 231.054 348.316 230.931 348.316 230.795C348.316 230.65 348.286 230.523 348.226 230.415C348.167 230.308 348.084 230.225 347.977 230.166C347.87 230.108 347.744 230.079 347.6 230.079V229.643C347.822 229.643 348.016 229.695 348.183 229.797C348.351 229.899 348.481 230.038 348.575 230.214C348.668 230.391 348.715 230.589 348.715 230.809C348.715 231.031 348.668 231.227 348.575 231.398C348.481 231.569 348.355 231.703 348.196 231.8C348.038 231.897 347.861 231.946 347.667 231.946C347.528 231.946 347.392 231.921 347.259 231.87C347.128 231.821 346.981 231.735 346.818 231.612C346.657 231.49 346.46 231.321 346.228 231.105L345.32 230.256H345.291V232.012H344.885V229.629ZM344.833 234.051C344.833 233.807 344.875 233.59 344.959 233.4C345.042 233.21 345.159 233.059 345.307 232.948C345.457 232.837 345.631 232.777 345.829 232.767V233.232C345.708 233.241 345.603 233.283 345.514 233.357C345.427 233.431 345.359 233.527 345.311 233.647C345.263 233.766 345.239 233.898 345.239 234.043C345.239 234.206 345.267 234.35 345.324 234.475C345.381 234.6 345.459 234.699 345.56 234.77C345.661 234.842 345.778 234.877 345.911 234.877C346.05 234.877 346.172 234.843 346.278 234.774C346.385 234.705 346.468 234.604 346.529 234.471C346.589 234.339 346.619 234.176 346.619 233.984V233.682H347.025V233.984C347.025 234.134 347.052 234.266 347.106 234.379C347.16 234.493 347.236 234.583 347.335 234.647C347.433 234.712 347.549 234.744 347.682 234.744C347.81 234.744 347.921 234.716 348.016 234.66C348.11 234.603 348.184 234.523 348.237 234.42C348.29 234.318 348.316 234.197 348.316 234.058C348.316 233.928 348.292 233.805 348.244 233.689C348.198 233.575 348.129 233.481 348.04 233.409C347.951 233.336 347.844 233.297 347.719 233.291V232.848C347.917 232.855 348.09 232.915 348.239 233.027C348.389 233.139 348.506 233.285 348.589 233.466C348.673 233.648 348.715 233.848 348.715 234.065C348.715 234.299 348.667 234.5 348.573 234.667C348.479 234.834 348.356 234.963 348.202 235.052C348.048 235.142 347.882 235.187 347.704 235.187C347.491 235.187 347.31 235.131 347.16 235.019C347.01 234.909 346.906 234.758 346.848 234.567H346.818C346.779 234.806 346.677 234.992 346.514 235.126C346.352 235.26 346.15 235.327 345.911 235.327C345.705 235.327 345.521 235.271 345.357 235.159C345.195 235.049 345.067 234.898 344.973 234.706C344.88 234.514 344.833 234.295 344.833 234.051ZM345.66 235.993H346.036L348.663 237.654V237.927H348.08V237.742L346.095 236.488H346.066V238.724H345.66V235.993ZM344.885 237.772H345.774H345.949H348.663V238.207H344.885V237.772ZM344.833 242.057C344.833 241.84 344.876 241.645 344.962 241.472C345.048 241.299 345.167 241.16 345.317 241.055C345.467 240.951 345.638 240.893 345.829 240.883V241.326C345.658 241.343 345.517 241.421 345.405 241.559C345.294 241.698 345.239 241.864 345.239 242.057C345.239 242.212 345.275 242.349 345.348 242.47C345.421 242.592 345.52 242.687 345.647 242.756C345.775 242.826 345.919 242.861 346.08 242.861C346.245 242.861 346.392 242.825 346.521 242.752C346.652 242.681 346.754 242.583 346.829 242.457C346.904 242.332 346.942 242.188 346.944 242.027C346.945 241.912 346.927 241.793 346.89 241.671C346.855 241.549 346.808 241.449 346.752 241.371L346.804 240.943L348.663 241.171V243.134H348.257V241.555L347.143 241.422V241.444C347.204 241.522 347.255 241.619 347.296 241.736C347.337 241.853 347.357 241.974 347.357 242.101C347.357 242.332 347.302 242.538 347.191 242.719C347.081 242.901 346.931 243.044 346.741 243.147C346.55 243.252 346.332 243.304 346.088 243.304C345.847 243.304 345.631 243.25 345.442 243.142C345.254 243.035 345.105 242.887 344.996 242.699C344.887 242.511 344.833 242.297 344.833 242.057ZM344.833 245.291C344.836 245.136 344.865 244.981 344.922 244.826C344.978 244.671 345.074 244.53 345.208 244.402C345.343 244.274 345.526 244.171 345.756 244.094C345.987 244.016 346.277 243.978 346.626 243.978C346.961 243.978 347.257 244.009 347.516 244.072C347.775 244.135 347.993 244.226 348.171 244.345C348.349 244.464 348.484 244.608 348.576 244.776C348.669 244.946 348.715 245.137 348.715 245.35C348.715 245.562 348.672 245.75 348.587 245.915C348.504 246.081 348.387 246.216 348.237 246.321C348.087 246.425 347.914 246.493 347.719 246.524V246.073C347.888 246.032 348.029 245.95 348.141 245.83C348.253 245.709 348.309 245.549 348.309 245.35C348.309 245.058 348.182 244.827 347.927 244.658C347.672 244.491 347.315 244.407 346.855 244.406V244.435C346.96 244.504 347.049 244.586 347.123 244.681C347.198 244.776 347.255 244.882 347.296 244.998C347.337 245.113 347.357 245.236 347.357 245.365C347.357 245.581 347.303 245.779 347.195 245.959C347.088 246.139 346.939 246.282 346.75 246.391C346.562 246.499 346.346 246.553 346.102 246.553C345.869 246.553 345.655 246.501 345.46 246.396C345.267 246.292 345.114 246.145 344.999 245.955C344.886 245.767 344.831 245.546 344.833 245.291ZM345.239 245.291C345.239 245.446 345.278 245.585 345.355 245.708C345.433 245.832 345.537 245.93 345.667 246.001C345.797 246.074 345.943 246.11 346.102 246.11C346.259 246.11 346.401 246.075 346.529 246.005C346.658 245.936 346.76 245.841 346.837 245.719C346.913 245.599 346.951 245.461 346.951 245.306C346.951 245.189 346.928 245.08 346.881 244.979C346.835 244.879 346.773 244.79 346.693 244.714C346.613 244.639 346.521 244.58 346.418 244.537C346.316 244.494 346.208 244.472 346.095 244.472C345.945 244.472 345.805 244.507 345.674 244.577C345.544 244.649 345.439 244.746 345.359 244.869C345.279 244.993 345.239 245.134 345.239 245.291ZM344.885 247.397L348.228 249.086H348.257V247.138H348.663V249.559H348.235L344.885 247.876V247.397ZM344.833 251.38C344.833 251.127 344.878 250.903 344.968 250.709C345.059 250.516 345.184 250.365 345.342 250.257C345.502 250.149 345.684 250.095 345.888 250.096C346.048 250.095 346.196 250.127 346.331 250.191C346.468 250.255 346.582 250.342 346.673 250.453C346.765 250.564 346.823 250.689 346.848 250.827H346.87C346.917 250.646 347.018 250.502 347.174 250.395C347.332 250.288 347.511 250.235 347.711 250.237C347.903 250.235 348.075 250.284 348.226 250.382C348.377 250.481 348.496 250.616 348.584 250.788C348.671 250.962 348.715 251.159 348.715 251.38C348.715 251.599 348.671 251.795 348.584 251.967C348.496 252.139 348.377 252.275 348.226 252.373C348.075 252.473 347.903 252.523 347.711 252.524C347.511 252.523 347.332 252.468 347.174 252.36C347.018 252.253 346.917 252.111 346.87 251.934H346.848C346.823 252.07 346.765 252.193 346.673 252.303C346.582 252.412 346.468 252.5 346.331 252.565C346.196 252.63 346.048 252.663 345.888 252.664C345.684 252.663 345.502 252.608 345.342 252.498C345.184 252.39 345.059 252.24 344.968 252.046C344.878 251.855 344.833 251.633 344.833 251.38ZM345.239 251.38C345.239 251.551 345.267 251.699 345.322 251.823C345.377 251.947 345.456 252.043 345.556 252.111C345.657 252.179 345.775 252.213 345.911 252.214C346.053 252.213 346.179 252.176 346.289 252.104C346.398 252.031 346.484 251.932 346.547 251.807C346.61 251.682 346.641 251.54 346.641 251.38C346.641 251.219 346.61 251.075 346.547 250.949C346.484 250.823 346.398 250.724 346.289 250.652C346.179 250.58 346.053 250.545 345.911 250.547C345.775 250.545 345.657 250.578 345.556 250.644C345.456 250.712 345.377 250.809 345.322 250.934C345.267 251.059 345.239 251.208 345.239 251.38ZM347.032 251.38C347.032 251.516 347.059 251.636 347.113 251.74C347.168 251.846 347.243 251.929 347.34 251.989C347.438 252.05 347.551 252.08 347.682 252.082C347.81 252.08 347.921 252.05 348.016 251.991C348.111 251.932 348.185 251.85 348.237 251.746C348.29 251.641 348.316 251.519 348.316 251.38C348.316 251.239 348.29 251.115 348.237 251.01C348.185 250.904 348.111 250.822 348.016 250.764C347.921 250.707 347.81 250.678 347.682 250.679C347.551 250.678 347.438 250.707 347.34 250.766C347.243 250.826 347.168 250.909 347.113 251.015C347.059 251.121 347.032 251.243 347.032 251.38ZM348.715 256.035C348.714 256.19 348.684 256.345 348.626 256.5C348.568 256.655 348.472 256.797 348.338 256.925C348.206 257.053 348.024 257.155 347.794 257.233C347.564 257.31 347.276 257.349 346.929 257.349C346.593 257.349 346.295 257.317 346.034 257.253C345.775 257.19 345.556 257.099 345.377 256.98C345.199 256.862 345.064 256.718 344.972 256.548C344.879 256.38 344.833 256.189 344.833 255.976C344.833 255.765 344.875 255.576 344.959 255.41C345.044 255.245 345.161 255.11 345.311 255.004C345.462 254.9 345.638 254.833 345.837 254.803V255.253C345.663 255.294 345.52 255.374 345.407 255.495C345.295 255.617 345.239 255.777 345.239 255.976C345.239 256.268 345.366 256.498 345.621 256.666C345.876 256.836 346.235 256.921 346.7 256.921V256.891C346.597 256.823 346.508 256.741 346.433 256.646C346.358 256.551 346.3 256.446 346.259 256.331C346.219 256.215 346.198 256.092 346.198 255.962C346.198 255.745 346.252 255.547 346.359 255.366C346.467 255.186 346.615 255.042 346.804 254.934C346.993 254.827 347.209 254.774 347.453 254.774C347.684 254.774 347.896 254.825 348.088 254.929C348.281 255.033 348.434 255.179 348.549 255.368C348.663 255.557 348.718 255.78 348.715 256.035ZM348.309 256.035C348.309 255.88 348.27 255.741 348.193 255.617C348.116 255.494 348.013 255.396 347.883 255.323C347.754 255.252 347.61 255.216 347.453 255.216C347.295 255.216 347.152 255.251 347.023 255.32C346.895 255.39 346.793 255.485 346.717 255.606C346.642 255.727 346.604 255.866 346.604 256.021C346.604 256.137 346.627 256.246 346.673 256.347C346.719 256.448 346.783 256.536 346.863 256.611C346.944 256.687 347.035 256.747 347.137 256.79C347.241 256.833 347.348 256.855 347.46 256.855C347.608 256.855 347.746 256.819 347.875 256.748C348.004 256.677 348.109 256.58 348.189 256.456C348.269 256.333 348.309 256.193 348.309 256.035ZM344.833 259.307C344.833 259.029 344.909 258.792 345.06 258.596C345.213 258.401 345.433 258.251 345.722 258.148C346.013 258.045 346.363 257.993 346.774 257.993C347.182 257.993 347.531 258.045 347.82 258.148C348.11 258.253 348.332 258.403 348.484 258.598C348.638 258.795 348.715 259.031 348.715 259.307C348.715 259.582 348.638 259.818 348.484 260.013C348.332 260.21 348.11 260.36 347.82 260.463C347.531 260.568 347.182 260.62 346.774 260.62C346.363 260.62 346.013 260.569 345.722 260.465C345.433 260.362 345.213 260.213 345.06 260.017C344.909 259.821 344.833 259.585 344.833 259.307ZM345.239 259.307C345.239 259.582 345.372 259.796 345.638 259.949C345.903 260.101 346.282 260.177 346.774 260.177C347.101 260.177 347.38 260.142 347.61 260.072C347.84 260.003 348.015 259.904 348.135 259.773C348.256 259.644 348.316 259.489 348.316 259.307C348.316 259.034 348.182 258.82 347.912 258.667C347.644 258.513 347.265 258.436 346.774 258.436C346.447 258.436 346.169 258.47 345.94 258.539C345.711 258.608 345.537 258.707 345.418 258.836C345.299 258.967 345.239 259.123 345.239 259.307ZM348.663 262.65H344.885V262.192H348.183V262.17L347.571 261.247H348.036L348.663 262.192V262.65ZM344.885 263.736H345.217L346.582 264.983C346.742 265.13 346.881 265.25 346.999 265.345C347.118 265.44 347.23 265.51 347.335 265.555C347.441 265.602 347.551 265.625 347.667 265.625C347.8 265.625 347.915 265.593 348.012 265.529C348.109 265.467 348.184 265.38 348.237 265.271C348.29 265.162 348.316 265.039 348.316 264.902C348.316 264.757 348.286 264.63 348.226 264.522C348.167 264.415 348.084 264.332 347.977 264.273C347.87 264.215 347.744 264.186 347.6 264.186V263.751C347.822 263.751 348.016 263.802 348.183 263.904C348.351 264.006 348.481 264.145 348.575 264.321C348.668 264.498 348.715 264.697 348.715 264.917C348.715 265.138 348.668 265.334 348.575 265.505C348.481 265.676 348.355 265.81 348.196 265.907C348.038 266.005 347.861 266.053 347.667 266.053C347.528 266.053 347.392 266.028 347.259 265.978C347.128 265.928 346.981 265.842 346.818 265.719C346.657 265.598 346.46 265.428 346.228 265.212L345.32 264.363H345.291V266.12H344.885V263.736ZM345.66 268.254H346.036L348.663 269.914V270.187H348.08V270.003L346.095 268.748H346.066V270.984H345.66V268.254ZM344.885 270.032H345.774H345.949H348.663V270.468H344.885V270.032ZM344.833 272.856C344.833 272.64 344.876 272.445 344.962 272.272C345.048 272.098 345.167 271.959 345.317 271.855C345.467 271.75 345.638 271.693 345.829 271.683V272.126C345.658 272.143 345.517 272.221 345.405 272.358C345.294 272.497 345.239 272.663 345.239 272.856C345.239 273.011 345.275 273.149 345.348 273.27C345.421 273.391 345.52 273.487 345.647 273.556C345.775 273.626 345.919 273.661 346.08 273.661C346.245 273.661 346.392 273.624 346.521 273.552C346.652 273.481 346.754 273.382 346.829 273.257C346.904 273.131 346.942 272.988 346.944 272.827C346.945 272.711 346.927 272.593 346.89 272.471C346.855 272.349 346.808 272.249 346.752 272.17L346.804 271.742L348.663 271.971V273.934H348.257V272.355L347.143 272.222V272.244C347.204 272.321 347.255 272.419 347.296 272.535C347.337 272.652 347.357 272.774 347.357 272.901C347.357 273.132 347.302 273.338 347.191 273.519C347.081 273.701 346.931 273.843 346.741 273.947C346.55 274.051 346.332 274.104 346.088 274.104C345.847 274.104 345.631 274.049 345.442 273.941C345.254 273.834 345.105 273.687 344.996 273.498C344.887 273.31 344.833 273.096 344.833 272.856ZM344.833 276.091C344.836 275.936 344.865 275.781 344.922 275.626C344.978 275.471 345.074 275.33 345.208 275.202C345.343 275.074 345.526 274.971 345.756 274.894C345.987 274.816 346.277 274.777 346.626 274.777C346.961 274.777 347.257 274.809 347.516 274.871C347.775 274.934 347.993 275.025 348.171 275.144C348.349 275.264 348.484 275.408 348.576 275.576C348.669 275.746 348.715 275.937 348.715 276.15C348.715 276.361 348.672 276.55 348.587 276.714C348.504 276.88 348.387 277.016 348.237 277.12C348.087 277.225 347.914 277.292 347.719 277.323V276.873C347.888 276.831 348.029 276.75 348.141 276.63C348.253 276.509 348.309 276.349 348.309 276.15C348.309 275.857 348.182 275.627 347.927 275.458C347.672 275.291 347.315 275.207 346.855 275.205V275.235C346.96 275.304 347.049 275.386 347.123 275.48C347.198 275.576 347.255 275.682 347.296 275.798C347.337 275.913 347.357 276.036 347.357 276.165C347.357 276.381 347.303 276.579 347.195 276.759C347.088 276.938 346.939 277.082 346.75 277.19C346.562 277.299 346.346 277.353 346.102 277.353C345.869 277.353 345.655 277.3 345.46 277.196C345.267 277.091 345.114 276.944 344.999 276.755C344.886 276.567 344.831 276.345 344.833 276.091ZM345.239 276.091C345.239 276.246 345.278 276.385 345.355 276.508C345.433 276.632 345.537 276.73 345.667 276.801C345.797 276.874 345.943 276.91 346.102 276.91C346.259 276.91 346.401 276.875 346.529 276.805C346.658 276.736 346.76 276.641 346.837 276.519C346.913 276.398 346.951 276.261 346.951 276.106C346.951 275.989 346.928 275.88 346.881 275.779C346.835 275.678 346.773 275.59 346.693 275.513C346.613 275.438 346.521 275.379 346.418 275.336C346.316 275.293 346.208 275.272 346.095 275.272C345.945 275.272 345.805 275.307 345.674 275.377C345.544 275.448 345.439 275.545 345.359 275.668C345.279 275.793 345.239 275.933 345.239 276.091Z" fill="#FAFAFA"/>
<path d="M373.519 225.518H370.114L371.817 222.519L373.519 225.518Z" fill="#FAFAFA"/>
<path d="M361.685 114.218C340.318 114.218 322.998 118.194 322.998 123.1V244.62C322.998 251.821 328.696 257.659 335.725 257.659H387.647C394.676 257.659 400.374 251.821 400.374 244.62V123.1C400.373 118.194 383.051 114.218 361.685 114.218Z" fill="#00695C"/>
<path d="M338.253 130.402H385.116" stroke="#00453C" stroke-miterlimit="10" stroke-linecap="round"/>
<path d="M391.972 136.531H331.397V180.147H391.972V136.531Z" fill="#005E53"/>
<path d="M389.682 138.683H333.687V177.993H389.682V138.683Z" fill="#00544A"/>
<path d="M384.685 174.246H338.684C337.751 174.246 336.996 173.472 336.996 172.516V144.161C336.996 143.205 337.751 142.431 338.684 142.431H384.685C385.617 142.431 386.373 143.205 386.373 144.161V172.516C386.373 173.471 385.618 174.246 384.685 174.246Z" fill="#4FC3F7"/>
<path d="M384.685 174.246H338.684C337.751 174.246 336.996 173.472 336.996 172.516V144.161C336.996 143.205 337.751 142.431 338.684 142.431H384.685C385.617 142.431 386.373 143.205 386.373 144.161V172.516C386.373 173.471 385.618 174.246 384.685 174.246Z" stroke="#173847" stroke-miterlimit="10"/>
<path d="M341.623 196.244H334.882C333.053 196.244 331.571 194.725 331.571 192.853C331.571 190.979 333.053 189.46 334.882 189.46H341.623C343.452 189.46 344.934 190.979 344.934 192.853C344.934 194.725 343.452 196.244 341.623 196.244Z" fill="#ABCDC9"/>
<path d="M358.04 196.244H351.298C349.47 196.244 347.988 194.725 347.988 192.853C347.988 190.979 349.47 189.46 351.298 189.46H358.04C359.868 189.46 361.35 190.979 361.35 192.853C361.351 194.725 359.868 196.244 358.04 196.244Z" fill="#ABCDC9"/>
<path d="M374.456 196.244H367.716C365.887 196.244 364.404 194.725 364.404 192.853C364.404 190.979 365.887 189.46 367.716 189.46H374.456C376.284 189.46 377.767 190.979 377.767 192.853C377.767 194.725 376.284 196.244 374.456 196.244Z" fill="#ABCDC9"/>
<path d="M341.623 206.219H334.882C333.053 206.219 331.571 204.701 331.571 202.828C331.571 200.954 333.053 199.435 334.882 199.435H341.623C343.452 199.435 344.934 200.954 344.934 202.828C344.934 204.7 343.452 206.219 341.623 206.219Z" fill="#ABCDC9"/>
<path d="M358.04 206.219H351.298C349.47 206.219 347.988 204.701 347.988 202.828C347.988 200.954 349.47 199.435 351.298 199.435H358.04C359.868 199.435 361.35 200.954 361.35 202.828C361.351 204.7 359.868 206.219 358.04 206.219Z" fill="#ABCDC9"/>
<path d="M374.456 206.219H367.716C365.887 206.219 364.404 204.701 364.404 202.828C364.404 200.954 365.887 199.435 367.716 199.435H374.456C376.284 199.435 377.767 200.954 377.767 202.828C377.767 204.7 376.284 206.219 374.456 206.219Z" fill="#ABCDC9"/>
<path d="M341.623 216.193H334.882C333.053 216.193 331.571 214.675 331.571 212.802C331.571 210.928 333.053 209.41 334.882 209.41H341.623C343.452 209.41 344.934 210.928 344.934 212.802C344.934 214.675 343.452 216.193 341.623 216.193Z" fill="#ABCDC9"/>
<path d="M358.04 216.193H351.298C349.47 216.193 347.988 214.675 347.988 212.802C347.988 210.928 349.47 209.41 351.298 209.41H358.04C359.868 209.41 361.35 210.928 361.35 212.802C361.351 214.675 359.868 216.193 358.04 216.193Z" fill="#ABCDC9"/>
<path d="M374.456 216.193H367.716C365.887 216.193 364.404 214.675 364.404 212.802C364.404 210.928 365.887 209.41 367.716 209.41H374.456C376.284 209.41 377.767 210.928 377.767 212.802C377.767 214.675 376.284 216.193 374.456 216.193Z" fill="#ABCDC9"/>
<path d="M391.369 196.244H381.536C381.299 196.244 381.107 196.047 381.107 195.805V189.899C381.107 189.657 381.299 189.46 381.536 189.46H391.369C391.606 189.46 391.798 189.657 391.798 189.899V195.805C391.798 196.047 391.606 196.244 391.369 196.244Z" fill="#ABCDC9"/>
<path d="M391.35 216.193H381.554C381.307 216.193 381.107 215.988 381.107 215.735V199.893C381.107 199.639 381.308 199.435 381.554 199.435H391.35C391.597 199.435 391.797 199.64 391.797 199.893V215.735C391.798 215.988 391.597 216.193 391.35 216.193Z" fill="#ABCDC9"/>
<path d="M347.3 230.518H332.26C331.831 230.518 331.484 230.162 331.484 229.723V221.728C331.484 221.289 331.831 220.934 332.26 220.934H347.3C347.729 220.934 348.076 221.289 348.076 221.728V229.723C348.076 230.162 347.729 230.518 347.3 230.518Z" fill="#DF4040"/>
<path d="M368.958 230.518H353.918C353.489 230.518 353.142 230.162 353.142 229.723V221.728C353.142 221.289 353.489 220.934 353.918 220.934H368.958C369.387 220.934 369.734 221.289 369.734 221.728V229.723C369.734 230.162 369.387 230.518 368.958 230.518Z" fill="#FFFF40"/>
<path d="M391.11 230.518H376.07C375.641 230.518 375.294 230.162 375.294 229.723V221.728C375.294 221.289 375.641 220.934 376.07 220.934H391.11C391.538 220.934 391.885 221.289 391.885 221.728V229.723C391.885 230.162 391.538 230.518 391.11 230.518Z" fill="#40D67E"/>
<path d="M387.646 257.659H335.724V263.918H387.646V257.659Z" fill="#00544A"/>
<path d="M403.077 138.683H400.373V230.342H403.077V138.683Z" fill="#00544A"/>
<path d="M405.558 235.431C404.187 235.431 403.077 234.293 403.077 232.888V136.335C403.077 134.93 404.187 133.792 405.558 133.792C406.929 133.792 408.04 134.93 408.04 136.335V232.888C408.04 234.292 406.928 235.431 405.558 235.431Z" fill="#005E53"/>
<path d="M381.442 80.9859H342.039V130.402H381.442V80.9859Z" fill="#EEEEEE"/>
<path d="M346.669 88.2214H377.767" stroke="#616161" stroke-miterlimit="10" stroke-linecap="round"/>
<path d="M346.669 95.6538H377.767" stroke="#616161" stroke-miterlimit="10" stroke-linecap="round"/>
<path d="M346.669 103.086H377.767" stroke="#616161" stroke-miterlimit="10" stroke-linecap="round"/>
<path d="M346.669 110.519H377.767" stroke="#616161" stroke-miterlimit="10" stroke-linecap="round"/>
<path d="M346.669 117.95H377.767" stroke="#616161" stroke-miterlimit="10" stroke-linecap="round"/>
<path d="M346.669 125.382H377.767" stroke="#616161" stroke-miterlimit="10" stroke-linecap="round"/>
<path d="M419.759 182.576H422.761" stroke="white" stroke-width="2" stroke-linecap="round" stroke-linejoin="round"/>
<path d="M428.867 182.576H450.24" stroke="white" stroke-width="2" stroke-linecap="round" stroke-linejoin="round" stroke-dasharray="5.09 5.09"/>
<path d="M453.292 182.576H456.293V185.652" stroke="white" stroke-width="2" stroke-linecap="round" stroke-linejoin="round"/>
<path d="M456.293 192.187V228.13" stroke="white" stroke-width="2" stroke-linecap="round" stroke-linejoin="round" stroke-dasharray="5.31 5.31"/>
<path d="M456.293 231.397V234.473" stroke="white" stroke-width="2" stroke-linecap="round" stroke-linejoin="round"/>
<path d="M523.701 331.7H508.322C507.733 331.7 507.254 331.21 507.254 330.605V324.272C507.254 323.668 507.732 323.178 508.322 323.178H523.701C524.291 323.178 524.77 323.667 524.77 324.272V330.605C524.77 331.209 524.292 331.7 523.701 331.7Z" fill="#E0E0E0"/>
<path d="M396.559 331.7H381.181C380.591 331.7 380.112 331.21 380.112 330.605V324.272C380.112 323.668 380.59 323.178 381.181 323.178H396.559C397.149 323.178 397.628 323.667 397.628 324.272V330.605C397.628 331.209 397.15 331.7 396.559 331.7Z" fill="#E0E0E0"/>
<path d="M508.206 331.7H396.699L404.006 291.276C404.18 290.313 405 289.614 405.957 289.614H498.949C499.905 289.614 500.725 290.313 500.9 291.276L508.206 331.7Z" fill="#43A047"/>
<path d="M498.21 327.023H406.689C406.172 327.023 405.775 326.552 405.852 326.028L410.206 296.023C410.351 295.026 411.186 294.29 412.168 294.29H492.559C493.538 294.29 494.37 295.021 494.52 296.012L499.046 326.024C499.126 326.549 498.729 327.023 498.21 327.023Z" fill="#7DD3F9"/>
<path d="M526.493 365.992H378.412V335.607C378.412 333.449 380.119 331.699 382.226 331.699H522.68C524.787 331.699 526.494 333.448 526.494 335.607V365.992H526.493Z" fill="#38853B"/>
<path d="M529.63 377.552H375.269C373.626 377.552 372.295 376.188 372.295 374.505V365.992H532.603V374.505C532.604 376.188 531.273 377.552 529.63 377.552Z" fill="#E0E0E0"/>
<path d="M400.816 352.483H385.868C385.095 352.483 384.467 351.841 384.467 351.047V339.37C384.467 338.577 385.093 337.934 385.868 337.934H400.816C401.589 337.934 402.217 338.576 402.217 339.37V351.047C402.216 351.841 401.589 352.483 400.816 352.483Z" fill="#FFFF8D"/>
<path d="M519.23 352.483H504.282C503.509 352.483 502.881 351.841 502.881 351.047V339.37C502.881 338.577 503.508 337.934 504.282 337.934H519.23C520.003 337.934 520.631 338.576 520.631 339.37V351.047C520.63 351.841 520.003 352.483 519.23 352.483Z" fill="#FFFF8D"/>
<path d="M488.202 365.992H416.698V340.728C416.698 339.758 417.464 338.974 418.41 338.974H486.491C487.438 338.974 488.204 339.758 488.204 340.728V365.992H488.202Z" fill="#EEEEEE"/>
<path d="M401.366 362.063H385.317C384.847 362.063 384.467 361.673 384.467 361.192V357.284C384.467 356.803 384.847 356.413 385.317 356.413H401.366C401.835 356.413 402.216 356.803 402.216 357.284V361.192C402.216 361.673 401.835 362.063 401.366 362.063Z" fill="#FFFF8D"/>
<path d="M519.78 362.063H503.731C503.262 362.063 502.881 361.673 502.881 361.192V357.284C502.881 356.803 503.262 356.413 503.731 356.413H519.78C520.25 356.413 520.63 356.803 520.63 357.284V361.192C520.63 361.673 520.25 362.063 519.78 362.063Z" fill="#FFFF8D"/>
<path d="M399.226 395.496H387.456C385.87 395.496 384.584 394.179 384.584 392.554V377.552H402.097V392.554C402.098 394.179 400.812 395.496 399.226 395.496Z" fill="#616161"/>
<path d="M517.641 395.496H505.871C504.285 395.496 502.999 394.179 502.999 392.554V377.552H520.511V392.554C520.512 394.179 519.227 395.496 517.641 395.496Z" fill="#616161"/>
<path d="M422.495 327.023H445.922L461.804 294.29H438.379L422.495 327.023Z" fill="white"/>
<path d="M478.982 294.29H468.867L452.984 327.023H463.1L478.982 294.29Z" fill="white"/>
<path d="M364.405 355.611H361.404" stroke="white" stroke-width="2" stroke-linecap="round" stroke-linejoin="round"/>
<path d="M355.57 355.611H288.487" stroke="white" stroke-width="2" stroke-linecap="round" stroke-linejoin="round" stroke-dasharray="4.86 4.86"/>
<path d="M285.571 355.611H282.569" stroke="white" stroke-width="2" stroke-linecap="round" stroke-linejoin="round"/>
<path d="M137.333 355.611H134.331" stroke="white" stroke-width="2" stroke-linecap="round" stroke-linejoin="round"/>
<path d="M128.246 355.611H106.951" stroke="white" stroke-width="2" stroke-linecap="round" stroke-linejoin="round" stroke-dasharray="5.07 5.07"/>
<path d="M103.908 355.611H100.907V352.535" stroke="white" stroke-width="2" stroke-linecap="round" stroke-linejoin="round"/>
<path d="M100.907 346.633V290.558" stroke="white" stroke-width="2" stroke-linecap="round" stroke-linejoin="round" stroke-dasharray="4.8 4.8"/>
<path d="M100.907 287.607V284.532" stroke="white" stroke-width="2" stroke-linecap="round" stroke-linejoin="round"/>
<path d="M271.929 323.133H148.329V419H271.929V323.133Z" fill="#C4CFC4"/>
<path d="M271.929 319.128H148.329V414.995H271.929V319.128Z" fill="#E8F5E9"/>
<path d="M271.929 301.943H148.329V319.128H271.929V301.943Z" fill="#DF4040"/>
<path d="M188.536 332.335H176.201V340.826H188.536V332.335Z" fill="#B0BAB1"/>
<path d="M207.043 332.335H194.707V340.826H207.043V332.335Z" fill="#B0BAB1"/>
<path d="M225.55 332.335H213.215V340.826H225.55V332.335Z" fill="#B0BAB1"/>
<path d="M244.058 332.335H231.723V340.826H244.058V332.335Z" fill="#B0BAB1"/>
<path d="M262.566 332.335H250.23V340.826H262.566V332.335Z" fill="#B0BAB1"/>
<path d="M170.028 349.543H157.693V358.034H170.028V349.543Z" fill="#B0BAB1"/>
<path d="M188.536 349.543H176.201V358.034H188.536V349.543Z" fill="#B0BAB1"/>
<path d="M207.043 349.543H194.707V358.034H207.043V349.543Z" fill="#B0BAB1"/>
<path d="M225.55 349.543H213.215V358.034H225.55V349.543Z" fill="#B0BAB1"/>
<path d="M244.058 349.543H231.723V358.034H244.058V349.543Z" fill="#B0BAB1"/>
<path d="M262.566 349.543H250.23V358.034H262.566V349.543Z" fill="#B0BAB1"/>
<path d="M170.028 366.75H157.693V375.241H170.028V366.75Z" fill="#B0BAB1"/>
<path d="M188.536 366.75H176.201V375.241H188.536V366.75Z" fill="#B0BAB1"/>
<path d="M207.043 366.75H194.707V375.241H207.043V366.75Z" fill="#B0BAB1"/>
<path d="M225.55 366.75H213.215V375.241H225.55V366.75Z" fill="#B0BAB1"/>
<path d="M244.058 366.75H231.723V375.241H244.058V366.75Z" fill="#B0BAB1"/>
<path d="M262.566 366.75H250.23V375.241H262.566V366.75Z" fill="#B0BAB1"/>
<path d="M170.028 383.956H157.693V392.448H170.028V383.956Z" fill="#B0BAB1"/>
<path d="M188.536 383.956H176.201V392.448H188.536V383.956Z" fill="#B0BAB1"/>
<path d="M207.043 383.956H194.707V392.448H207.043V383.956Z" fill="#B0BAB1"/>
<path d="M225.55 383.956H213.215V392.448H225.55V383.956Z" fill="#B0BAB1"/>
<path d="M244.058 383.956H231.723V392.448H244.058V383.956Z" fill="#B0BAB1"/>
<path d="M175.052 310.536H167.918C167.146 310.536 166.52 309.895 166.52 309.104V293.655C166.52 292.864 167.146 292.223 167.918 292.223H175.052C175.824 292.223 176.45 292.864 176.45 293.655V309.103C176.449 309.894 175.824 310.536 175.052 310.536Z" fill="#E8F5E9"/>
<path d="M252.341 310.536H245.207C244.435 310.536 243.808 309.895 243.808 309.104V293.656C243.808 292.865 244.434 292.224 245.207 292.224H252.341C253.113 292.224 253.74 292.865 253.74 293.656V309.104C253.739 309.894 253.113 310.536 252.341 310.536Z" fill="#E8F5E9"/>
<path d="M211.918 363.987L220.702 376.61L217.161 376.77L241.529 343.112L220.815 379.248L219.351 381.803L217.274 379.409L207.223 367.82L211.918 363.987Z" fill="#00C853"/>
<path d="M394.891 104.701C402.506 107.984 408.55 113.484 412.61 120.161" stroke="#00C8B0" stroke-width="4" stroke-miterlimit="10" stroke-linecap="round"/>
<path d="M394.565 91.9758C396.182 92.4826 397.79 93.078 399.382 93.7644C411.144 98.8337 420.026 107.971 425.125 118.907" stroke="#00C8B0" stroke-width="4" stroke-miterlimit="10" stroke-linecap="round"/>
<path d="M394.071 79.4163C397.384 80.2158 400.679 81.3094 403.922 82.7068C420.209 89.7271 432.022 103.069 437.784 118.776" stroke="#00C8B0" stroke-width="4" stroke-miterlimit="10" stroke-linecap="round"/>
<path d="M222.289 32.3999C213.133 36.3461 205.866 42.9605 200.985 50.9882" stroke="#00C8B0" stroke-width="4" stroke-miterlimit="10" stroke-linecap="round"/>
<path d="M222.681 17.0997C220.737 17.7099 218.804 18.4258 216.889 19.25C202.748 25.3452 192.069 36.3302 185.938 49.4789" stroke="#00C8B0" stroke-width="4" stroke-miterlimit="10" stroke-linecap="round"/>
<path d="M223.275 2C219.29 2.96195 215.33 4.27572 211.431 5.95729C191.847 14.3984 177.645 30.4391 170.717 49.3251" stroke="#00C8B0" stroke-width="4" stroke-miterlimit="10" stroke-linecap="round"/>
<path d="M483.68 209.782L490.001 209.306L488.858 237.715L485.697 237.953L482.537 238.19L477.358 210.256L483.68 209.782Z" fill="#00C8B0"/>
<path d="M511.197 216.448L516.642 219.773L499.8 242.374L497.079 240.71L494.357 239.047L505.753 213.121L511.197 216.448Z" fill="#00C8B0"/>
<path d="M530.006 238.079L532.604 244.004L506.157 252.619L504.857 249.657L503.558 246.695L527.408 232.156L530.006 238.079Z" fill="#00C8B0"/>
<path d="M284.447 285.675H276.908L280.077 321.748H284.447H288.817L291.987 285.675H284.447Z" fill="#DF4040"/>
<path d="M288.834 331.143C288.834 333.625 286.87 335.637 284.447 335.637C282.024 335.637 280.06 333.625 280.06 331.143C280.06 328.66 282.024 326.648 284.447 326.648C286.87 326.648 288.834 328.66 288.834 331.143Z" fill="#DF4040"/>
</svg>
