<svg width="179" height="664" viewBox="0 0 179 664" fill="none" xmlns="http://www.w3.org/2000/svg">
<path d="M70.8075 1.24683L59.7416 5.14807C57.3868 5.98108 55.4404 7.7027 54.3379 9.9657C52.7862 13.1312 50.6085 18.504 48.6621 26.5287C45.1776 40.8426 39.665 122.117 39.665 122.117C2.71058 193.839 0.0700073 206.32 0.0700073 282.929C0.0700073 359.538 8.71312 369.09 8.71312 369.09L53.8343 425.138V414.531C53.8343 414.531 20.9632 374.588 14.4843 363.203C8.00534 351.819 8.40007 337.088 8.40007 285.858C8.40007 280.291 8.78119 274.974 9.44814 269.906L48.5123 255.009C49.4651 260.063 50.309 264.769 50.9487 268.726C54.0657 288.066 53.8343 288.802 53.8343 425.138C53.8343 510.021 63.9747 579.341 71.6242 619.59C71.6242 619.59 71.6242 619.59 71.6242 619.617C71.6242 619.631 71.6242 619.645 71.6242 619.673C71.8283 620.964 74.5642 637.888 77.8581 649.148C78.2256 650.425 78.6067 651.633 79.0014 652.743C79.8453 655.173 80.7165 657.089 81.574 658.172C81.574 658.172 81.5876 658.186 81.6012 658.214C82.4043 659.227 83.5204 659.935 84.759 660.227C88.4885 661.087 96.6824 662.615 102.181 660.865L103.175 662.531C103.856 663.67 105.366 663.975 106.414 663.17L118.283 654.132C118.787 653.743 119.086 653.132 119.086 652.494V649.606L137.802 627.087L118.923 645.149L118.719 642.775C118.542 640.776 116.215 639.832 114.745 641.179L103.393 651.563C102.916 652.008 102.631 652.619 102.603 653.285C102.576 654.187 102.413 656.45 102.331 657.464C101.651 657.63 99.9627 658.269 97.4174 658.7C88.9512 659.88 84.3098 656.076 84.2009 655.964C83.534 655.326 82.9351 654.618 82.4315 653.826C80.0767 650.133 77.5723 643.886 75.4897 633.168C74.7684 628.739 74.0742 624.255 73.4209 619.715C73.4209 619.687 73.4209 619.645 73.4209 619.617C58.3669 515.908 59.1155 385.236 57.4141 321.386C55.4949 249.428 43.0134 213.928 42.782 195.324C42.5642 179.108 50.3771 63.7087 52.3915 34.2479C52.7046 29.7358 53.8343 25.3209 55.7399 21.2252L59.8368 12.423C60.9666 10.0073 63.0219 8.18866 65.4991 7.36951L64.6688 183.398C64.6416 188.563 65.1997 193.714 66.3158 198.739L73.2847 229.991C74.5098 235.461 75.2448 241.042 75.5578 246.638C74.85 246.776 74.1422 246.915 73.4753 247.068C72.4953 247.318 71.5425 247.54 70.6442 247.79C68.8339 248.262 67.2141 248.831 65.785 249.345C64.3558 249.858 63.1444 250.386 62.1508 250.83C61.1571 251.275 60.4085 251.691 59.8913 251.955C59.3741 252.233 59.1155 252.399 59.1155 252.399C59.1155 252.399 59.4149 252.302 59.9594 252.135C60.5174 251.969 61.3341 251.747 62.3685 251.469C63.403 251.205 64.6824 250.914 66.1388 250.594C66.8739 250.442 67.6497 250.289 68.4664 250.15C68.8747 250.081 69.2967 249.997 69.7322 249.928C70.1678 249.859 70.6033 249.789 71.0525 249.72C72.4953 249.498 74.0742 249.303 75.6939 249.109C75.6939 249.248 75.7075 249.386 75.7211 249.525L80.9887 434.467C79.5051 434.134 78.0759 433.759 76.7828 433.357C74.9861 432.787 73.3392 432.163 71.8556 431.621C70.3855 431.08 69.0925 430.635 68.0308 430.274C66.9691 429.9 66.1252 429.636 65.5536 429.441C64.9819 429.261 64.6688 429.164 64.6688 429.164C64.6688 429.164 64.9547 429.33 65.4719 429.622C66.0027 429.914 66.765 430.358 67.7586 430.899C68.7522 431.441 69.95 432.107 71.3383 432.829C72.0325 433.19 72.7675 433.579 73.5434 433.995C73.9653 434.217 74.3464 434.398 74.7684 434.592C75.1767 434.8 75.6123 434.995 76.075 435.189C76.987 435.606 77.9398 435.953 78.9334 436.342C79.6139 436.578 80.3217 436.8 81.0295 437.008L84.269 531.291L82.7309 437.466C84.7318 437.966 86.8551 438.369 89.0738 438.577C91.5374 438.813 94.1099 438.854 96.7097 438.646C97.363 438.605 98.0163 438.535 98.656 438.452C99.3094 438.382 99.9627 438.285 100.616 438.16C101.269 438.063 101.909 437.924 102.562 437.785C103.216 437.647 103.842 437.508 104.454 437.355C106.945 436.758 109.436 436.161 111.873 435.536C114.323 434.925 116.718 434.301 119.046 433.69C121.373 433.079 123.605 432.454 125.729 431.857C127.852 431.274 129.853 430.691 131.69 430.136C133.542 429.594 135.216 429.067 136.713 428.608C138.21 428.15 139.503 427.72 140.579 427.373C141.654 427.026 142.484 426.734 143.056 426.54C143.628 426.332 143.927 426.234 143.927 426.234C143.927 426.234 143.614 426.276 143.015 426.345C142.416 426.429 141.545 426.54 140.429 426.706C139.313 426.873 137.965 427.067 136.427 427.331C134.889 427.581 133.147 427.873 131.255 428.22C129.363 428.553 127.308 428.928 125.157 429.372C122.993 429.802 120.72 430.233 118.365 430.733C116.01 431.232 113.588 431.746 111.138 432.301C108.674 432.843 106.183 433.44 103.692 434.023C103.066 434.176 102.44 434.328 101.855 434.453C101.256 434.592 100.657 434.717 100.044 434.814C99.4455 434.925 98.833 435.037 98.2341 435.106C97.6352 435.203 97.0227 435.286 96.4238 435.328C94.001 435.578 91.6054 435.647 89.2915 435.55C87.0048 435.439 84.7862 435.203 82.7037 434.814L79.6684 248.748C80.8934 248.665 82.132 248.595 83.4115 248.526C85.6846 248.456 88.0257 248.387 90.4077 248.442C92.7896 248.47 95.1988 248.595 97.6216 248.776C98.833 248.887 100.031 248.984 101.229 249.095C102.426 249.248 103.624 249.359 104.808 249.511C105.993 249.678 107.163 249.845 108.32 250.011C109.477 250.206 110.62 250.4 111.736 250.58C112.853 250.789 113.955 251.025 115.03 251.219C116.106 251.441 117.154 251.677 118.175 251.899C119.209 252.108 120.189 252.385 121.142 252.607C122.095 252.843 123.034 253.038 123.918 253.288C125.688 253.788 127.321 254.176 128.75 254.621C130.18 255.051 131.459 255.37 132.48 255.717C133.501 256.051 134.331 256.273 134.875 256.439C135.434 256.606 135.733 256.689 135.733 256.689C135.733 256.689 135.461 256.536 134.957 256.259C134.44 255.995 133.691 255.579 132.725 255.079C131.759 254.565 130.574 254.01 129.186 253.385C128.492 253.079 127.77 252.719 126.981 252.413C126.192 252.094 125.361 251.761 124.504 251.413C123.646 251.052 122.721 250.747 121.768 250.4C120.815 250.067 119.835 249.72 118.814 249.414C117.793 249.109 116.745 248.776 115.656 248.47C114.568 248.179 113.451 247.901 112.322 247.609C111.178 247.346 110.021 247.11 108.837 246.86C107.653 246.624 106.455 246.429 105.244 246.221C104.032 246.027 102.807 245.874 101.569 245.707C100.33 245.582 99.0916 245.457 97.8394 245.346C95.3485 245.194 92.844 245.069 90.394 245.11C89.7815 245.11 89.169 245.124 88.5565 245.138C87.944 245.166 87.3451 245.194 86.7462 245.235C85.5484 245.277 84.3507 245.402 83.1937 245.499C81.9551 245.624 80.7437 245.777 79.5595 245.943C79.3689 240.529 78.7701 235.142 77.7356 229.825L71.1886 196.296C70.3175 191.839 69.8956 187.299 69.9092 182.746L70.7531 6.11993L71.2567 6.00885C72.9853 5.62012 74.7956 5.96722 76.252 6.98071L96.3558 20.892L77.2456 2.6908C75.517 1.03864 73.0261 0.497192 70.7939 1.28851L70.8075 1.24683ZM47.6548 250.622L10.0334 265.7C16.4851 226.618 39.6514 203.613 39.6514 203.613C39.6514 210.11 44.0751 231.866 47.6548 250.622Z" fill="white"/>
<path d="M87.4132 174.485C96.7777 206.056 141.096 203.918 139.245 203.363C98.9283 191.367 92.4493 190.146 88.3659 144.038C84.2826 97.9314 125.565 84.6449 125.565 84.6449C79.7364 91.5033 78.0486 142.9 87.4132 174.471V174.485Z" fill="white"/>
<path d="M92.531 553.157C92.531 599.334 145.016 588.491 143.723 588.407C88.2026 584.492 97.0091 559.113 97.0091 523.294C97.0091 493.305 149.004 469.606 149.004 469.606C92.0546 487.724 92.531 506.981 92.531 553.157Z" fill="white"/>
<path d="M91.9457 225.271L92.6535 233.129C92.7351 234.045 93.4293 234.795 94.3277 234.92C100.357 235.767 122.163 238.849 122.993 239.279C123.551 239.557 125.239 241.334 126.559 242.778C127.117 243.389 128.111 242.931 128.043 242.098L127.076 231.102C126.886 228.922 125.239 227.173 123.102 226.881C115.929 225.923 100.126 223.813 94.0963 223.119C92.8576 222.98 91.8232 224.021 91.9321 225.285L91.9457 225.271Z" fill="white"/>
<path d="M128.056 225.882L127.09 214.886C126.899 212.706 125.252 210.957 123.115 210.665C115.942 209.707 100.14 207.597 94.1099 206.903C92.8712 206.764 91.8368 207.805 91.9457 209.069L92.6535 216.927C92.7351 217.843 93.4293 218.593 94.3277 218.718C100.357 219.565 122.163 222.647 122.993 223.077C123.551 223.369 125.239 225.132 126.559 226.576C127.117 227.187 128.111 226.729 128.043 225.896L128.056 225.882Z" fill="white"/>
<path d="M79.8862 25.7788C79.859 29.8606 79.7909 42.1891 79.8454 46.9651C79.8454 48.048 80.662 48.9643 81.7237 49.0754L85.1946 49.4642C86.4468 49.603 87.5357 48.6033 87.5357 47.326V29.4164C87.5357 28.861 87.3179 28.3196 86.9504 27.9308L83.5204 24.2934C82.8807 23.627 81.9006 23.4465 81.084 23.8491C80.3626 24.2101 79.8998 24.9459 79.8998 25.765L79.8862 25.7788Z" fill="white"/>
<path d="M144.362 205.223L142.947 348.82C142.947 349.028 142.947 349.237 142.947 349.445C142.947 352.707 143.505 355.928 144.58 358.997L147.071 366.036C147.711 367.854 148.065 369.756 148.119 371.686L150.841 467.01C150.855 467.552 151.291 467.982 151.835 467.968C152.366 467.968 152.801 467.524 152.801 466.969V370.923C152.801 368.771 152.461 366.633 151.808 364.592L149.303 356.872C148.446 354.221 148.01 351.458 148.01 348.667L149.712 205.237C149.712 204.932 147.262 204.432 147.058 204.432C146.84 204.432 144.403 204.932 144.376 205.223H144.362Z" fill="white"/>
<path d="M128.083 95.7517C127.008 95.8489 126.437 95.9045 126.437 95.9045C126.437 95.9045 127.008 95.9878 128.07 96.1405C128.601 96.196 129.254 96.321 130.016 96.4737C130.397 96.5431 130.792 96.6264 131.228 96.7097C131.663 96.8069 132.112 96.918 132.589 97.0291C132.834 97.0846 133.079 97.1401 133.324 97.1956C133.569 97.2651 133.827 97.3345 134.1 97.4039C134.617 97.5566 135.175 97.6955 135.733 97.8621C136.291 98.0426 136.876 98.2369 137.475 98.4452C138.074 98.6395 138.687 98.9033 139.326 99.1393C141.844 100.139 144.594 101.472 147.384 103.235C150.174 104.984 152.978 107.206 155.633 109.843C155.973 110.163 156.286 110.524 156.613 110.871C156.939 111.218 157.28 111.551 157.579 111.912C158.205 112.634 158.845 113.37 159.43 114.147C160.043 114.911 160.601 115.73 161.186 116.535C161.472 116.938 161.73 117.368 162.016 117.785L162.425 118.424L162.806 119.076C163.854 120.811 164.779 122.658 165.61 124.56C165.814 125.046 166.004 125.518 166.208 126.004C166.385 126.49 166.562 126.99 166.739 127.489C166.93 127.975 167.08 128.489 167.243 128.989C167.393 129.489 167.583 129.988 167.706 130.502C168.305 132.543 168.672 134.653 168.999 136.777C169.298 138.902 169.421 141.067 169.434 143.219L169.394 144.872C169.394 145.149 169.394 145.469 169.366 145.718L169.312 146.496C169.271 147.024 169.257 147.523 169.189 148.051L168.999 149.647C168.672 151.772 168.291 153.882 167.706 155.923C167.583 156.436 167.393 156.936 167.243 157.436C167.08 157.936 166.93 158.45 166.739 158.936C166.562 159.435 166.385 159.921 166.208 160.421C166.004 160.907 165.8 161.393 165.61 161.865C164.766 163.767 163.854 165.613 162.806 167.349L162.425 168.001L162.016 168.64C161.744 169.057 161.472 169.487 161.186 169.89C160.601 170.695 160.043 171.514 159.43 172.278C158.246 173.832 156.939 175.249 155.633 176.581C154.966 177.234 154.312 177.886 153.618 178.483C153.278 178.775 152.951 179.094 152.597 179.372C152.243 179.65 151.903 179.941 151.563 180.219C150.882 180.788 150.161 181.274 149.48 181.802C148.773 182.274 148.078 182.746 147.384 183.204C144.594 184.967 141.844 186.3 139.326 187.299C138.687 187.536 138.088 187.785 137.475 187.994C136.876 188.188 136.291 188.382 135.733 188.577C135.161 188.743 134.617 188.896 134.1 189.035C133.841 189.104 133.582 189.174 133.324 189.243C133.065 189.299 132.82 189.354 132.589 189.41C132.112 189.521 131.65 189.632 131.228 189.729C130.792 189.812 130.384 189.896 130.016 189.965C129.254 190.118 128.614 190.229 128.083 190.298C127.022 190.451 126.45 190.534 126.45 190.534C126.45 190.534 127.022 190.59 128.097 190.687C128.642 190.743 129.295 190.77 130.084 190.784C130.479 190.784 130.901 190.812 131.35 190.812C131.799 190.798 132.276 190.784 132.793 190.77C134.821 190.687 137.298 190.451 140.089 189.826C142.879 189.202 145.996 188.216 149.249 186.703C152.488 185.189 155.823 183.093 159.035 180.441C160.628 179.094 162.193 177.623 163.663 175.984C165.16 174.374 166.535 172.569 167.842 170.667C169.162 168.779 170.305 166.71 171.354 164.572C172.415 162.434 173.273 160.157 174.008 157.825C174.743 155.492 175.274 153.077 175.655 150.619L175.886 148.773C175.968 148.162 175.995 147.496 176.049 146.871L176.117 145.913C176.145 145.58 176.145 145.316 176.158 145.024L176.213 143.192C176.172 140.707 176.009 138.221 175.641 135.764C175.559 135.153 175.437 134.542 175.328 133.931L175.151 133.015L174.933 132.113C174.784 131.516 174.661 130.919 174.498 130.322C174.321 129.739 174.157 129.142 173.98 128.558C173.245 126.226 172.388 123.963 171.326 121.825C170.278 119.687 169.135 117.618 167.815 115.73L167.338 115.022L166.835 114.328C166.494 113.87 166.168 113.412 165.814 112.967C165.106 112.093 164.412 111.218 163.65 110.427C162.18 108.788 160.614 107.317 159.022 105.97C155.81 103.318 152.488 101.222 149.249 99.7086C146.009 98.1953 142.892 97.1956 140.102 96.5709C137.312 95.9322 134.835 95.6962 132.807 95.6268C132.303 95.6129 131.827 95.599 131.364 95.5852C130.915 95.5852 130.479 95.6129 130.098 95.6129C129.308 95.6268 128.655 95.6546 128.111 95.7101L128.083 95.7517Z" fill="white"/>
<path d="M98.8466 138.069L98.9555 137.61C99.1052 137 99.2413 136.403 99.391 135.792C100.112 133.418 101.024 131.141 102.277 129.1C103.529 127.101 104.904 125.213 106.496 123.713C107.231 122.894 108.102 122.269 108.864 121.575C109.055 121.395 109.259 121.256 109.477 121.103C109.681 120.95 109.885 120.811 110.089 120.673C110.498 120.395 110.892 120.09 111.301 119.826C111.723 119.59 112.131 119.354 112.526 119.132C112.934 118.909 113.315 118.66 113.724 118.493C114.118 118.312 114.513 118.118 114.894 117.951C115.275 117.785 115.643 117.577 116.024 117.466C116.773 117.202 117.48 116.966 118.134 116.73C118.801 116.549 119.413 116.397 119.971 116.258C120.257 116.188 120.516 116.119 120.774 116.049C121.033 115.994 121.264 115.966 121.482 115.924C121.931 115.855 122.312 115.786 122.612 115.744C123.238 115.633 123.565 115.577 123.565 115.577C123.565 115.577 123.224 115.55 122.612 115.508C122.299 115.494 121.904 115.466 121.455 115.439C121.223 115.439 120.978 115.411 120.72 115.411C120.461 115.425 120.175 115.439 119.89 115.466C119.304 115.508 118.637 115.536 117.929 115.605C117.222 115.716 116.459 115.869 115.629 116.022C115.207 116.077 114.813 116.244 114.377 116.355C113.941 116.48 113.506 116.605 113.057 116.744C112.594 116.855 112.158 117.077 111.696 117.257C111.233 117.452 110.77 117.646 110.28 117.854C109.804 118.076 109.354 118.354 108.864 118.604C108.619 118.729 108.388 118.868 108.143 118.993C107.898 119.118 107.653 119.257 107.422 119.423C106.496 120.076 105.489 120.7 104.59 121.52C102.685 123.033 100.984 125.018 99.4455 127.212C99.0916 127.781 98.7241 128.35 98.3566 128.933C98.0027 129.516 97.7304 130.155 97.4038 130.78C97.2541 131.085 97.0907 131.405 96.941 131.724C96.8185 132.057 96.6824 132.376 96.5599 132.71C96.3285 133.376 96.0426 134.029 95.8385 134.709C95.6615 135.403 95.471 136.097 95.294 136.791L95.1579 137.319L95.0626 137.874L94.8993 138.985L94.736 140.096C94.7087 140.29 94.6951 140.457 94.6815 140.623L94.6543 141.137L94.5454 143.275C94.6135 146.177 94.9946 149.078 95.8385 151.813C96.0426 152.494 96.3149 153.146 96.5599 153.813C96.6824 154.146 96.8185 154.465 96.941 154.798C97.0907 155.118 97.2541 155.423 97.4038 155.742C97.7304 156.353 98.0027 156.992 98.3566 157.589C98.7241 158.172 99.078 158.741 99.4455 159.31C100.984 161.504 102.685 163.475 104.59 165.003C105.489 165.822 106.496 166.447 107.422 167.099C107.653 167.266 107.898 167.404 108.143 167.529C108.388 167.668 108.633 167.793 108.864 167.932C109.341 168.182 109.804 168.46 110.28 168.682C110.756 168.89 111.233 169.084 111.696 169.279C112.158 169.459 112.594 169.681 113.057 169.792C113.506 169.931 113.955 170.056 114.377 170.181C114.813 170.292 115.207 170.459 115.629 170.514C116.459 170.667 117.222 170.82 117.929 170.931C118.651 171 119.318 171.028 119.903 171.07C120.203 171.084 120.475 171.111 120.747 171.125C121.006 171.125 121.251 171.097 121.482 171.097C121.931 171.07 122.326 171.056 122.639 171.028C123.265 170.986 123.605 170.959 123.605 170.959C123.605 170.959 123.279 170.903 122.653 170.792C122.34 170.737 121.958 170.681 121.509 170.612C121.291 170.57 121.046 170.542 120.788 170.487C120.543 170.417 120.271 170.362 119.998 170.278C119.44 170.139 118.828 169.987 118.174 169.806C117.521 169.556 116.813 169.334 116.065 169.07C115.684 168.959 115.33 168.751 114.935 168.585C114.554 168.404 114.159 168.224 113.764 168.043C113.356 167.877 112.975 167.613 112.567 167.391C112.172 167.168 111.75 166.932 111.342 166.696C110.933 166.447 110.539 166.141 110.13 165.849C109.926 165.711 109.722 165.558 109.518 165.419C109.314 165.28 109.096 165.128 108.905 164.947C108.129 164.253 107.258 163.628 106.537 162.809C104.944 161.31 103.57 159.421 102.317 157.422C101.079 155.395 100.167 153.104 99.4319 150.73C99.2821 150.12 99.146 149.523 98.9963 148.912L98.8874 148.453L98.8193 147.981L98.6832 147.051L98.5471 146.121C98.4927 145.816 98.5063 145.496 98.4791 145.177L98.3974 143.289L98.4927 141.359L98.5199 140.845C98.5199 140.679 98.5335 140.512 98.5607 140.359L98.6968 139.457L98.833 138.555L98.8874 138.11L98.8466 138.069Z" fill="white"/>
<path d="M127.525 138.777C127.43 138.818 127.376 138.832 127.376 138.832C127.376 138.832 127.43 138.86 127.525 138.916C127.621 138.957 127.77 139.027 127.934 139.124C128.015 139.165 128.097 139.221 128.192 139.277C128.288 139.346 128.383 139.401 128.478 139.471C128.682 139.61 128.887 139.79 129.077 139.971C129.268 140.165 129.472 140.387 129.635 140.637C129.812 140.873 129.962 141.151 130.084 141.428C130.207 141.706 130.302 142.012 130.37 142.303C130.425 142.609 130.465 142.914 130.465 143.219V143.247V143.331V143.497C130.465 143.622 130.452 143.678 130.438 143.733C130.438 143.844 130.397 144.011 130.37 144.164C130.289 144.455 130.207 144.761 130.084 145.038C129.948 145.316 129.812 145.594 129.635 145.83C129.472 146.079 129.268 146.288 129.077 146.496C128.873 146.69 128.669 146.857 128.478 146.996C128.274 147.135 128.097 147.26 127.92 147.343C127.757 147.44 127.621 147.496 127.525 147.551C127.43 147.607 127.376 147.634 127.376 147.634C127.376 147.634 127.43 147.662 127.525 147.69C127.621 147.718 127.784 147.801 127.988 147.829C128.097 147.843 128.206 147.87 128.329 147.884C128.451 147.884 128.587 147.884 128.737 147.898C129.036 147.898 129.363 147.843 129.73 147.732C130.084 147.621 130.479 147.454 130.833 147.19C131.214 146.94 131.554 146.607 131.867 146.218C132.18 145.816 132.425 145.358 132.602 144.844C132.684 144.58 132.766 144.33 132.807 144.025C132.834 143.872 132.847 143.719 132.847 143.622V143.456L132.861 143.372V143.331V143.233C132.847 142.678 132.766 142.137 132.589 141.623C132.412 141.109 132.167 140.637 131.854 140.248C131.541 139.86 131.2 139.526 130.819 139.277C130.452 139.027 130.071 138.86 129.717 138.735C129.349 138.624 129.023 138.582 128.723 138.568C128.574 138.568 128.437 138.569 128.315 138.582C128.179 138.596 128.07 138.624 127.961 138.638C127.757 138.666 127.621 138.749 127.512 138.777H127.525Z" fill="white"/>
<path d="M130.493 485.475C129.417 485.572 128.846 485.628 128.846 485.628C128.846 485.628 129.417 485.711 130.479 485.864C131.01 485.919 131.663 486.044 132.425 486.197C132.807 486.266 133.201 486.35 133.637 486.433C134.072 486.53 134.522 486.641 134.998 486.752C135.243 486.808 135.488 486.863 135.733 486.919C135.978 486.988 136.237 487.058 136.509 487.127C137.026 487.28 137.584 487.419 138.142 487.585C138.7 487.766 139.286 487.96 139.884 488.169C140.483 488.363 141.096 488.627 141.736 488.863C144.254 489.862 147.003 491.195 149.793 492.958C152.584 494.708 155.388 496.929 158.042 499.567C158.382 499.886 158.695 500.247 159.022 500.594C159.348 500.941 159.689 501.275 159.988 501.636C160.614 502.357 161.254 503.093 161.839 503.871C162.452 504.634 163.01 505.453 163.595 506.259C163.881 506.661 164.14 507.092 164.425 507.508L164.834 508.147L165.215 508.799C166.263 510.535 167.188 512.381 168.019 514.283C168.223 514.769 168.414 515.241 168.618 515.727C168.795 516.213 168.972 516.713 169.149 517.213C169.339 517.699 169.489 518.212 169.652 518.712C169.802 519.212 169.992 519.712 170.115 520.225C170.714 522.266 171.081 524.377 171.408 526.501C171.707 528.625 171.83 530.791 171.844 532.943L171.803 534.595C171.803 534.873 171.803 535.192 171.775 535.442L171.721 536.219C171.68 536.747 171.667 537.247 171.599 537.774L171.408 539.371C171.081 541.495 170.7 543.605 170.115 545.632C169.992 546.146 169.802 546.646 169.652 547.146C169.489 547.645 169.339 548.159 169.149 548.645C168.972 549.145 168.795 549.631 168.618 550.131C168.414 550.616 168.209 551.102 168.019 551.574C167.175 553.476 166.263 555.323 165.215 557.058L164.834 557.711L164.425 558.35C164.153 558.766 163.881 559.196 163.595 559.599C163.01 560.404 162.452 561.223 161.839 561.987C160.655 563.542 159.348 564.958 158.042 566.291C157.375 566.943 156.721 567.596 156.027 568.193C155.687 568.485 155.36 568.804 155.006 569.082C154.653 569.359 154.312 569.651 153.972 569.928C153.291 570.498 152.57 570.984 151.889 571.511C151.182 571.983 150.488 572.455 149.793 572.913C147.003 574.677 144.254 576.009 141.736 577.009C141.096 577.245 140.497 577.495 139.884 577.703C139.286 577.898 138.7 578.092 138.142 578.286C137.571 578.453 137.026 578.606 136.509 578.744C136.25 578.814 135.992 578.883 135.733 578.953C135.474 579.008 135.229 579.064 134.998 579.119C134.522 579.23 134.059 579.341 133.637 579.439C133.201 579.522 132.793 579.605 132.425 579.675C131.663 579.827 131.024 579.938 130.493 580.008C129.431 580.161 128.859 580.244 128.859 580.244C128.859 580.244 129.431 580.299 130.506 580.397C131.051 580.452 131.704 580.48 132.494 580.494C132.888 580.494 133.31 580.521 133.759 580.521C134.209 580.508 134.685 580.494 135.202 580.48C137.23 580.397 139.707 580.161 142.498 579.536C145.288 578.911 148.405 577.925 151.658 576.412C154.898 574.899 158.232 572.802 161.445 570.151C163.037 568.804 164.602 567.332 166.072 565.694C167.57 564.083 168.944 562.279 170.251 560.377C171.571 558.488 172.715 556.42 173.763 554.282C174.824 552.144 175.682 549.867 176.417 547.534C177.152 545.202 177.683 542.786 178.064 540.329L178.295 538.482C178.377 537.871 178.404 537.205 178.459 536.58L178.527 535.622C178.554 535.289 178.554 535.025 178.567 534.734L178.622 532.901C178.581 530.416 178.418 527.931 178.05 525.473C177.969 524.863 177.846 524.252 177.737 523.641L177.56 522.725L177.342 521.822C177.193 521.225 177.07 520.628 176.907 520.031C176.73 519.448 176.567 518.851 176.39 518.268C175.655 515.935 174.797 513.672 173.736 511.534C172.687 509.396 171.544 507.328 170.224 505.44L169.747 504.732L169.244 504.037C168.904 503.579 168.577 503.121 168.223 502.677C167.515 501.802 166.821 500.927 166.059 500.136C164.589 498.498 163.023 497.026 161.431 495.679C158.219 493.028 154.898 490.931 151.658 489.418C148.419 487.905 145.302 486.905 142.498 486.28C139.707 485.642 137.23 485.406 135.202 485.336C134.699 485.322 134.222 485.309 133.759 485.295C133.31 485.295 132.875 485.322 132.494 485.322C131.704 485.336 131.051 485.364 130.506 485.42L130.493 485.475Z" fill="white"/>
<path d="M103.896 527.778L104.005 527.32C104.155 526.709 104.291 526.112 104.441 525.501C105.162 523.127 106.074 520.836 107.326 518.809C108.579 516.81 109.953 514.922 111.546 513.423C112.281 512.603 113.152 511.979 113.914 511.285C114.105 511.104 114.309 510.965 114.527 510.813C114.731 510.66 114.935 510.521 115.139 510.382C115.548 510.104 115.942 509.799 116.351 509.535C116.773 509.299 117.181 509.063 117.576 508.841C117.984 508.619 118.365 508.369 118.773 508.202C119.168 508.022 119.563 507.828 119.944 507.661C120.325 507.494 120.693 507.286 121.074 507.175C121.822 506.911 122.53 506.675 123.183 506.439C123.85 506.259 124.463 506.106 125.021 505.967C125.307 505.898 125.565 505.828 125.824 505.759C126.083 505.703 126.314 505.676 126.532 505.634C126.981 505.565 127.362 505.495 127.662 505.453C128.288 505.342 128.614 505.287 128.614 505.287C128.614 505.287 128.274 505.259 127.662 505.217C127.348 505.204 126.954 505.176 126.505 505.148C126.273 505.148 126.028 505.12 125.77 505.12C125.511 505.134 125.225 505.148 124.939 505.176C124.354 505.217 123.687 505.245 122.979 505.315C122.271 505.426 121.509 505.578 120.679 505.731C120.257 505.787 119.862 505.953 119.427 506.064C118.991 506.189 118.556 506.314 118.106 506.453C117.644 506.564 117.208 506.786 116.745 506.967C116.283 507.161 115.82 507.356 115.33 507.564C114.853 507.786 114.404 508.064 113.914 508.313C113.669 508.438 113.438 508.577 113.193 508.702C112.948 508.827 112.703 508.966 112.471 509.133C111.546 509.785 110.539 510.41 109.64 511.229C107.735 512.742 106.033 514.728 104.495 516.921C104.141 517.49 103.774 518.06 103.406 518.643C103.052 519.226 102.78 519.865 102.454 520.489C102.304 520.795 102.141 521.114 101.991 521.433C101.868 521.767 101.732 522.086 101.61 522.419C101.378 523.086 101.092 523.738 100.888 524.418C100.711 525.113 100.521 525.807 100.344 526.501L100.208 527.028L100.112 527.584L99.9491 528.694L99.7858 529.805C99.7585 529.999 99.7449 530.166 99.7313 530.333L99.7041 530.846L99.5952 532.984C99.6633 535.886 100.044 538.788 100.888 541.523C101.092 542.203 101.365 542.856 101.61 543.522C101.732 543.855 101.868 544.175 101.991 544.508C102.141 544.827 102.304 545.132 102.454 545.452C102.767 546.063 103.052 546.701 103.406 547.298C103.774 547.881 104.128 548.451 104.495 549.02C106.033 551.213 107.735 553.185 109.64 554.712C110.539 555.531 111.546 556.156 112.471 556.809C112.703 556.975 112.948 557.114 113.193 557.239C113.438 557.378 113.683 557.503 113.914 557.642C114.391 557.891 114.853 558.169 115.33 558.391C115.806 558.599 116.283 558.794 116.745 558.988C117.208 559.169 117.644 559.405 118.106 559.502C118.556 559.641 119.005 559.766 119.427 559.891C119.862 560.002 120.257 560.168 120.679 560.224C121.509 560.377 122.271 560.529 122.979 560.64C123.701 560.71 124.368 560.738 124.953 560.779C125.252 560.793 125.525 560.821 125.797 560.835C126.055 560.835 126.3 560.807 126.532 560.807C126.981 560.779 127.376 560.765 127.689 560.738C128.315 560.696 128.655 560.668 128.655 560.668C128.655 560.668 128.328 560.613 127.702 560.502C127.389 560.446 127.008 560.39 126.559 560.321C126.341 560.279 126.096 560.252 125.838 560.196C125.593 560.127 125.32 560.071 125.048 560.002C124.49 559.863 123.878 559.71 123.224 559.53C122.571 559.28 121.863 559.058 121.115 558.794C120.733 558.683 120.38 558.475 119.985 558.308C119.604 558.127 119.209 557.947 118.814 557.766C118.406 557.6 118.025 557.336 117.616 557.114C117.222 556.892 116.8 556.656 116.391 556.42C115.983 556.17 115.588 555.864 115.18 555.573C114.976 555.434 114.772 555.281 114.568 555.142C114.363 555.004 114.146 554.851 113.955 554.67C113.179 553.976 112.308 553.352 111.587 552.532C109.994 551.033 108.619 549.145 107.367 547.146C106.129 545.119 105.217 542.828 104.482 540.454C104.332 539.843 104.196 539.246 104.046 538.635L103.937 538.177L103.869 537.705L103.733 536.775L103.597 535.844C103.542 535.539 103.556 535.22 103.529 534.9L103.447 533.012L103.542 531.082L103.57 530.569C103.57 530.402 103.583 530.236 103.611 530.083L103.747 529.18L103.883 528.278L103.937 527.834L103.896 527.778Z" fill="white"/>
<path d="M129.921 528.5C129.826 528.542 129.771 528.556 129.771 528.556C129.771 528.556 129.826 528.583 129.921 528.639C130.016 528.681 130.166 528.75 130.329 528.847C130.411 528.889 130.493 528.944 130.588 529C130.683 529.069 130.778 529.125 130.874 529.194C131.078 529.333 131.282 529.514 131.473 529.694C131.663 529.889 131.867 530.111 132.031 530.361C132.208 530.597 132.357 530.874 132.48 531.152C132.602 531.43 132.698 531.735 132.766 532.027C132.82 532.332 132.861 532.637 132.861 532.943V532.971V533.054V533.221C132.861 533.346 132.847 533.401 132.834 533.457C132.834 533.568 132.793 533.734 132.766 533.887C132.684 534.179 132.602 534.484 132.48 534.762C132.344 535.039 132.208 535.317 132.031 535.553C131.867 535.803 131.663 536.011 131.473 536.219C131.268 536.414 131.064 536.58 130.874 536.719C130.67 536.858 130.493 536.983 130.316 537.066C130.152 537.163 130.016 537.219 129.921 537.275C129.826 537.33 129.771 537.358 129.771 537.358C129.771 537.358 129.826 537.386 129.921 537.427C130.016 537.455 130.18 537.538 130.384 537.566C130.493 537.58 130.602 537.608 130.724 537.622C130.847 537.622 130.983 537.622 131.132 537.635C131.432 537.635 131.758 537.58 132.126 537.469C132.48 537.358 132.875 537.191 133.228 536.927C133.61 536.678 133.95 536.344 134.263 535.956C134.576 535.553 134.821 535.095 134.998 534.581C135.08 534.317 135.161 534.067 135.202 533.762C135.229 533.609 135.243 533.457 135.243 533.359V533.193L135.257 533.109V533.068V532.971C135.243 532.415 135.161 531.874 134.984 531.36C134.807 530.846 134.562 530.374 134.249 529.986C133.936 529.597 133.596 529.25 133.215 529.014C132.847 528.764 132.466 528.597 132.112 528.472C131.745 528.361 131.418 528.32 131.119 528.306C130.969 528.306 130.833 528.306 130.71 528.32C130.574 528.334 130.465 528.361 130.357 528.375C130.152 528.403 130.016 528.486 129.907 528.514L129.921 528.5Z" fill="white"/>
<path d="M99.568 611.94V632.779C99.568 633.82 100.711 634.431 101.555 633.848L103.611 632.404C104.944 631.474 105.734 629.933 105.734 628.281V611.94C105.734 610.565 104.645 609.455 103.297 609.455H102.018C100.671 609.455 99.5816 610.565 99.5816 611.94H99.568Z" fill="white"/>
</svg>
