<svg width="179" height="664" viewBox="0 0 179 664" fill="none" xmlns="http://www.w3.org/2000/svg">
<path d="M107.884 663.305L118.95 659.404C121.305 658.571 123.252 656.849 124.354 654.586C125.906 651.421 128.083 646.048 130.03 638.023C133.514 623.709 139.027 542.435 139.027 542.435C175.981 470.713 178.622 458.232 178.622 381.623C178.622 305.014 169.979 295.462 169.979 295.462L124.858 239.414L124.858 250.021C124.858 250.021 157.729 289.964 164.208 301.349C170.687 312.733 170.292 327.464 170.292 378.694C170.292 384.261 169.911 389.578 169.244 394.646L130.18 409.543C129.227 404.489 128.383 399.783 127.743 395.826C124.626 376.486 124.858 375.75 124.858 239.414C124.858 154.531 114.717 85.2105 107.068 44.9623C107.068 44.9623 107.068 44.9623 107.068 44.9345C107.068 44.9206 107.068 44.9067 107.068 44.879C106.864 43.5878 104.128 26.6638 100.834 15.4043C100.466 14.127 100.085 12.9192 99.6905 11.8085C98.8466 9.37889 97.9755 7.46297 97.118 6.38005C97.118 6.38005 97.1044 6.36617 97.0908 6.3384C96.2877 5.32491 95.1716 4.61686 93.933 4.3253C90.2035 3.46453 82.0095 1.93733 76.5106 3.68665L75.517 2.02064C74.8364 0.882193 73.3256 0.576757 72.2775 1.382L60.4085 10.4202C59.9049 10.8089 59.6055 11.4198 59.6055 12.0584V14.9462L40.89 37.4652L59.7688 19.4028L59.973 21.7768C60.1499 23.7761 62.4774 24.7201 63.9474 23.3734L75.2992 12.9886C75.7756 12.5443 76.0614 11.9335 76.0887 11.267C76.1159 10.3646 76.2792 8.10161 76.3609 7.08811C77.0414 6.92151 78.7292 6.28287 81.2745 5.85248C89.7407 4.67239 94.3821 8.47647 94.491 8.58753C95.158 9.22617 95.7569 9.93423 96.2605 10.7256C98.6152 14.4186 101.12 20.6662 103.202 31.3842C103.924 35.8131 104.618 40.2974 105.271 44.8373C105.271 44.8651 105.271 44.9067 105.271 44.9345C120.325 148.644 119.576 279.316 121.278 343.166C123.197 415.124 135.679 450.624 135.91 469.228C136.128 485.444 128.315 600.843 126.3 630.304C125.987 634.816 124.858 639.231 122.952 643.327L118.855 652.129C117.725 654.545 115.67 656.363 113.193 657.182L114.023 481.154C114.05 475.989 113.492 470.838 112.376 465.813L105.407 434.561C104.182 429.091 103.447 423.51 103.134 417.914C103.842 417.776 104.55 417.637 105.217 417.484C106.197 417.234 107.149 417.012 108.048 416.762C109.858 416.29 111.478 415.721 112.907 415.207C114.336 414.694 115.548 414.166 116.541 413.722C117.535 413.277 118.283 412.861 118.801 412.597C119.318 412.319 119.576 412.153 119.576 412.153C119.576 412.153 119.277 412.25 118.733 412.417C118.175 412.583 117.358 412.805 116.323 413.083C115.289 413.347 114.01 413.638 112.553 413.958C111.818 414.11 111.042 414.263 110.226 414.402C109.817 414.471 109.395 414.555 108.96 414.624C108.524 414.693 108.089 414.763 107.639 414.832C106.197 415.054 104.618 415.249 102.998 415.443C102.998 415.304 102.984 415.166 102.971 415.027L97.7033 230.085C99.1869 230.418 100.616 230.793 101.909 231.195C103.706 231.765 105.353 232.389 106.836 232.931C108.306 233.472 109.599 233.917 110.661 234.278C111.723 234.652 112.567 234.916 113.138 235.111C113.71 235.291 114.023 235.388 114.023 235.388C114.023 235.388 113.737 235.222 113.22 234.93C112.689 234.638 111.927 234.194 110.933 233.653C109.94 233.111 108.742 232.445 107.354 231.723C106.659 231.362 105.924 230.973 105.149 230.557C104.727 230.335 104.346 230.154 103.924 229.96C103.515 229.752 103.08 229.557 102.617 229.363C101.705 228.946 100.752 228.599 99.7586 228.21C99.078 227.974 98.3702 227.752 97.6624 227.544L94.423 133.261L95.961 227.086C93.9602 226.586 91.8368 226.183 89.6182 225.975C87.1546 225.739 84.582 225.698 81.9823 225.906C81.329 225.947 80.6756 226.017 80.0359 226.1C79.3826 226.17 78.7292 226.267 78.0759 226.392C77.4226 226.489 76.7828 226.628 76.1295 226.767C75.4762 226.905 74.85 227.044 74.2375 227.197C71.7467 227.794 69.2558 228.391 66.8194 229.016C64.3694 229.627 61.9738 230.251 59.6463 230.862C57.3188 231.473 55.0865 232.098 52.9632 232.695C50.8398 233.278 48.839 233.861 47.0015 234.416C45.1503 234.958 43.4762 235.485 41.979 235.944C40.4817 236.402 39.1887 236.832 38.1134 237.179C37.0381 237.526 36.2078 237.818 35.6361 238.012C35.0645 238.22 34.765 238.318 34.765 238.318C34.765 238.318 35.0781 238.276 35.677 238.207C36.2758 238.123 37.147 238.012 38.2631 237.846C39.3792 237.679 40.7267 237.485 42.2648 237.221C43.8028 236.971 45.5451 236.679 47.437 236.332C49.329 235.999 51.3843 235.624 53.5349 235.18C55.6991 234.75 57.9721 234.319 60.3269 233.819C62.6816 233.32 65.1044 232.806 67.5544 232.251C70.0181 231.709 72.5089 231.112 74.9998 230.529C75.6259 230.376 76.252 230.224 76.8373 230.099C77.4362 229.96 78.0351 229.835 78.6476 229.738C79.2465 229.627 79.859 229.515 80.4579 229.446C81.0567 229.349 81.6693 229.266 82.2682 229.224C84.6909 228.974 87.0865 228.905 89.4004 229.002C91.6871 229.113 93.9057 229.349 95.9883 229.738L99.0236 415.804C97.7985 415.887 96.5599 415.957 95.2805 416.026C93.0074 416.096 90.6663 416.165 88.2843 416.11C85.9023 416.082 83.4931 415.957 81.0704 415.776C79.859 415.665 78.6612 415.568 77.4634 415.457C76.2656 415.304 75.0678 415.193 73.8836 415.041C72.6995 414.874 71.5289 414.707 70.3719 414.541C69.215 414.346 68.0716 414.152 66.9555 413.972C65.8394 413.763 64.7369 413.527 63.6616 413.333C62.5863 413.111 61.5383 412.875 60.5174 412.653C59.483 412.444 58.503 412.167 57.5502 411.945C56.5974 411.709 55.6582 411.514 54.7735 411.264C53.004 410.764 51.3707 410.376 49.9415 409.931C48.5123 409.501 47.2329 409.182 46.212 408.835C45.1912 408.501 44.3609 408.279 43.8165 408.113C43.2584 407.946 42.959 407.863 42.959 407.863C42.959 407.863 43.2312 408.016 43.7348 408.293C44.252 408.557 45.0006 408.973 45.967 409.473C46.9334 409.987 48.1176 410.542 49.506 411.167C50.2001 411.473 50.9215 411.833 51.711 412.139C52.5004 412.458 53.3307 412.791 54.1882 413.139C55.0457 413.5 55.9713 413.805 56.9241 414.152C57.8769 414.485 58.8569 414.832 59.8777 415.138C60.8985 415.443 61.9466 415.776 63.0355 416.082C64.1244 416.373 65.2405 416.651 66.3703 416.943C67.5136 417.206 68.6705 417.442 69.8547 417.692C71.0389 417.928 72.2367 418.123 73.4481 418.331C74.6595 418.525 75.8845 418.678 77.1231 418.845C78.3617 418.97 79.6004 419.095 80.8526 419.206C83.3434 419.358 85.8479 419.483 88.2979 419.442C88.9104 419.442 89.5229 419.428 90.1354 419.414C90.7479 419.386 91.3468 419.358 91.9457 419.317C93.1435 419.275 94.3413 419.15 95.4983 419.053C96.7369 418.928 97.9483 418.775 99.1324 418.609C99.323 424.023 99.9219 429.41 100.956 434.727L107.503 468.256C108.374 472.713 108.796 477.253 108.783 481.806L107.939 658.432L107.435 658.543C105.707 658.932 103.896 658.585 102.44 657.571L82.3362 643.66L101.446 661.861C103.175 663.513 105.666 664.055 107.898 663.263L107.884 663.305ZM131.037 413.93L168.659 398.852C162.207 437.934 139.041 460.939 139.041 460.939C139.041 454.442 134.617 432.686 131.037 413.93Z" fill="white"/>
<path d="M91.2788 490.067C81.9143 458.496 37.5961 460.634 39.4473 461.189C79.7637 473.185 86.2426 474.406 90.326 520.514C94.4094 566.621 53.1265 579.907 53.1265 579.907C98.9555 573.049 100.643 521.652 91.2788 490.081V490.067Z" fill="white"/>
<path d="M86.1609 111.395C86.1609 65.2182 33.6761 76.0612 34.9692 76.1445C90.4893 80.0597 81.6829 105.439 81.6829 141.258C81.6829 171.246 29.688 194.946 29.688 194.946C86.6373 176.828 86.1609 157.571 86.1609 111.395Z" fill="white"/>
<path d="M86.7463 439.281L86.0385 431.423C85.9568 430.507 85.2626 429.757 84.3643 429.632C78.3345 428.785 56.5294 425.703 55.6991 425.273C55.141 424.995 53.4532 423.218 52.1329 421.774C51.5749 421.163 50.5813 421.621 50.6493 422.454L51.6157 433.45C51.8063 435.63 53.4532 437.379 55.5902 437.671C62.7633 438.629 78.5659 440.739 84.5957 441.433C85.8343 441.572 86.8688 440.531 86.7599 439.267L86.7463 439.281Z" fill="white"/>
<path d="M50.6357 438.67L51.6021 449.666C51.7927 451.846 53.4396 453.595 55.5766 453.887C62.7497 454.845 78.5523 456.955 84.5821 457.649C85.8207 457.788 86.8552 456.747 86.7463 455.483L86.0385 447.625C85.9568 446.709 85.2626 445.959 84.3643 445.834C78.3345 444.987 56.5294 441.905 55.6991 441.475C55.141 441.183 53.4532 439.42 52.133 437.976C51.5749 437.365 50.5813 437.823 50.6493 438.656L50.6357 438.67Z" fill="white"/>
<path d="M98.8058 638.773C98.833 634.691 98.9011 622.363 98.8466 617.587C98.8466 616.504 98.0299 615.588 96.9683 615.477L93.4974 615.088C92.2452 614.949 91.1563 615.949 91.1563 617.226L91.1563 635.136C91.1563 635.691 91.374 636.232 91.7415 636.621L95.1716 640.259C95.8113 640.925 96.7913 641.106 97.608 640.703C98.3294 640.342 98.7921 639.606 98.7921 638.787L98.8058 638.773Z" fill="white"/>
<path d="M34.3295 459.329L35.745 315.732C35.745 315.524 35.745 315.315 35.745 315.107C35.745 311.845 35.187 308.624 34.1117 305.555L31.6208 298.516C30.9811 296.698 30.6272 294.796 30.5727 292.866L27.8505 197.542C27.8369 197 27.4013 196.57 26.8569 196.584C26.326 196.584 25.8905 197.028 25.8905 197.583L25.8905 293.629C25.8905 295.781 26.2308 297.919 26.8841 299.96L29.3886 307.68C30.2461 310.331 30.6816 313.094 30.6816 315.885L28.9802 459.315C28.9802 459.62 31.4303 460.12 31.6344 460.12C31.8522 460.12 34.2886 459.62 34.3158 459.329H34.3295Z" fill="white"/>
<path d="M50.6085 568.8C51.6837 568.703 52.2554 568.648 52.2554 568.648C52.2554 568.648 51.6837 568.564 50.6221 568.412C50.0912 568.356 49.4379 568.231 48.6757 568.078C48.2946 568.009 47.8998 567.926 47.4643 567.842C47.0287 567.745 46.5795 567.634 46.1031 567.523C45.8581 567.467 45.6131 567.412 45.3681 567.356C45.1231 567.287 44.8645 567.218 44.5923 567.148C44.0751 566.995 43.517 566.857 42.959 566.69C42.4009 566.509 41.8156 566.315 41.2167 566.107C40.6178 565.912 40.0053 565.649 39.3656 565.413C36.8475 564.413 34.0981 563.08 31.3078 561.317C28.5175 559.568 25.7136 557.346 23.0594 554.709C22.7191 554.389 22.406 554.028 22.0794 553.681C21.7527 553.334 21.4124 553.001 21.1129 552.64C20.4868 551.918 19.8471 551.182 19.2618 550.405C18.6493 549.641 18.0913 548.822 17.506 548.017C17.2201 547.614 16.9615 547.184 16.6757 546.767L16.2673 546.128L15.8862 545.476C14.8382 543.741 13.9126 541.894 13.0823 539.992C12.8782 539.506 12.6876 539.034 12.4834 538.548C12.3065 538.062 12.1296 537.562 11.9526 537.063C11.7621 536.577 11.6123 536.063 11.449 535.563C11.2992 535.063 11.1087 534.564 10.9862 534.05C10.3873 532.009 10.0198 529.899 9.69314 527.775C9.3937 525.65 9.27118 523.485 9.25757 521.333L9.2984 519.68C9.2984 519.403 9.29839 519.083 9.32561 518.834L9.38007 518.056C9.4209 517.528 9.43451 517.029 9.50257 516.501L9.69314 514.905C10.0198 512.78 10.4009 510.67 10.9862 508.629C11.1087 508.116 11.2992 507.616 11.449 507.116C11.6123 506.616 11.7621 506.102 11.9526 505.616C12.1296 505.117 12.3065 504.631 12.4834 504.131C12.6876 503.645 12.8918 503.159 13.0823 502.687C13.9262 500.785 14.8382 498.939 15.8862 497.203L16.2673 496.551L16.6757 495.912C16.9479 495.495 17.2201 495.065 17.506 494.662C18.0913 493.857 18.6493 493.038 19.2618 492.274C20.446 490.72 21.7527 489.303 23.0594 487.971C23.7263 487.318 24.3796 486.666 25.0738 486.069C25.4141 485.777 25.7407 485.458 26.0946 485.18C26.4485 484.902 26.7888 484.611 27.1291 484.333C27.8097 483.764 28.5311 483.278 29.2116 482.75C29.9194 482.278 30.6136 481.806 31.3078 481.348C34.0981 479.585 36.8475 478.252 39.3656 477.253C40.0053 477.016 40.6042 476.767 41.2167 476.558C41.8156 476.364 42.4009 476.17 42.959 475.975C43.5306 475.809 44.0751 475.656 44.5923 475.517C44.8509 475.448 45.1095 475.378 45.3681 475.309C45.6267 475.253 45.8718 475.198 46.1031 475.142C46.5795 475.031 47.0423 474.92 47.4643 474.823C47.8998 474.74 48.3082 474.656 48.6757 474.587C49.4379 474.434 50.0776 474.323 50.6085 474.254C51.6701 474.101 52.2418 474.018 52.2418 474.018C52.2418 474.018 51.6701 473.962 50.5948 473.865C50.0504 473.809 49.3971 473.782 48.6076 473.768C48.2129 473.768 47.7909 473.74 47.3418 473.74C46.8926 473.754 46.4162 473.768 45.899 473.782C43.8709 473.865 41.3937 474.101 38.6034 474.726C35.8131 475.35 32.6961 476.336 29.443 477.849C26.2035 479.363 22.8688 481.459 19.6566 484.111C18.064 485.458 16.4987 486.929 15.0287 488.568C13.5315 490.178 12.1568 491.983 10.8501 493.885C9.52982 495.773 8.38645 497.842 7.33839 499.98C6.27671 502.118 5.41923 504.395 4.68422 506.727C3.94922 509.06 3.41835 511.475 3.03724 513.933L2.80587 515.779C2.7242 516.39 2.69699 517.056 2.64254 517.681L2.57446 518.639C2.54724 518.972 2.54724 519.236 2.53363 519.528L2.47917 521.36C2.52001 523.845 2.68336 526.331 3.05086 528.788C3.13253 529.399 3.25505 530.01 3.36393 530.621L3.54085 531.537L3.75863 532.439C3.90835 533.036 4.03086 533.633 4.1942 534.23C4.37114 534.813 4.53448 535.41 4.71143 535.994C5.44644 538.326 6.30392 540.589 7.36559 542.727C8.41366 544.865 9.55702 546.934 10.8773 548.822L11.3537 549.53L11.8573 550.224C12.1976 550.682 12.5243 551.14 12.8782 551.585C13.5859 552.459 14.2801 553.334 15.0423 554.125C16.5124 555.764 18.0776 557.235 19.6701 558.582C22.8824 561.234 26.2035 563.33 29.443 564.843C32.6825 566.357 35.7994 567.356 38.5897 567.981C41.38 568.62 43.8573 568.856 45.8854 568.925C46.389 568.939 46.8654 568.953 47.3281 568.967C47.7773 568.967 48.2129 568.939 48.594 568.939C49.3834 568.925 50.0368 568.897 50.5812 568.842L50.6085 568.8Z" fill="white"/>
<path d="M79.8453 526.483L79.7364 526.942C79.5867 527.552 79.4506 528.149 79.3009 528.76C78.5795 531.134 77.6675 533.411 76.4153 535.452C75.1631 537.451 73.7883 539.339 72.1958 540.839C71.4608 541.658 70.5897 542.283 69.8275 542.977C69.6369 543.157 69.4328 543.296 69.215 543.449C69.0108 543.602 68.8066 543.741 68.6025 543.879C68.1941 544.157 67.7994 544.462 67.3911 544.726C66.9691 544.962 66.5608 545.198 66.1661 545.42C65.7577 545.643 65.3766 545.892 64.9683 546.059C64.5735 546.24 64.1788 546.434 63.7977 546.601C63.4166 546.767 63.0491 546.975 62.668 547.086C61.9194 547.35 61.2116 547.586 60.5582 547.822C59.8913 548.003 59.2788 548.155 58.7207 548.294C58.4349 548.364 58.1763 548.433 57.9177 548.503C57.659 548.558 57.4277 548.586 57.2099 548.628C56.7607 548.697 56.3796 548.766 56.0801 548.808C55.454 548.919 55.1274 548.975 55.1274 548.975C55.1274 548.975 55.4676 549.002 56.0801 549.044C56.3932 549.058 56.7879 549.086 57.2371 549.113C57.4685 549.113 57.7135 549.141 57.9721 549.141C58.2307 549.127 58.5165 549.113 58.8024 549.086C59.3877 549.044 60.0546 549.016 60.7624 548.947C61.4702 548.836 62.2324 548.683 63.0627 548.53C63.4846 548.475 63.8794 548.308 64.3149 548.197C64.7505 548.072 65.1861 547.947 65.6352 547.808C66.098 547.697 66.5336 547.475 66.9963 547.295C67.4591 547.1 67.9219 546.906 68.4119 546.698C68.8883 546.476 69.3375 546.198 69.8275 545.948C70.0725 545.823 70.3039 545.684 70.5489 545.559C70.7939 545.434 71.0389 545.295 71.2703 545.129C72.1958 544.476 73.2031 543.852 74.1014 543.032C76.007 541.519 77.7084 539.534 79.2464 537.34C79.6003 536.771 79.9678 536.202 80.3353 535.619C80.6892 535.036 80.9615 534.397 81.2881 533.772C81.4378 533.467 81.6012 533.147 81.7509 532.828C81.8734 532.495 82.0095 532.176 82.132 531.842C82.3634 531.176 82.6493 530.523 82.8534 529.843C83.0304 529.149 83.2209 528.455 83.3979 527.761L83.534 527.233L83.6293 526.678L83.7926 525.567L83.9559 524.456C83.9832 524.262 83.9968 524.095 84.0104 523.929L84.0376 523.415L84.1465 521.277C84.0784 518.375 83.6973 515.474 82.8534 512.739C82.6493 512.058 82.377 511.406 82.132 510.739C82.0095 510.406 81.8734 510.087 81.7509 509.754C81.6012 509.434 81.4378 509.129 81.2881 508.81C80.9615 508.199 80.6892 507.56 80.3353 506.963C79.9678 506.38 79.6139 505.811 79.2464 505.242C77.7084 503.048 76.007 501.077 74.1014 499.549C73.2031 498.73 72.1958 498.105 71.2703 497.453C71.0389 497.286 70.7939 497.148 70.5489 497.023C70.3039 496.884 70.0589 496.759 69.8275 496.62C69.3511 496.37 68.8883 496.092 68.4119 495.87C67.9355 495.662 67.4591 495.468 66.9963 495.273C66.5336 495.093 66.098 494.871 65.6352 494.76C65.1861 494.621 64.7369 494.496 64.3149 494.371C63.8794 494.26 63.4846 494.093 63.0627 494.038C62.2324 493.885 61.4702 493.732 60.7624 493.621C60.041 493.552 59.3741 493.524 58.7888 493.482C58.4893 493.468 58.2171 493.441 57.9449 493.427C57.6863 493.427 57.4413 493.455 57.2099 493.455C56.7607 493.482 56.366 493.496 56.0529 493.524C55.4268 493.566 55.0865 493.593 55.0865 493.593C55.0865 493.593 55.4132 493.649 56.0393 493.76C56.3524 493.815 56.7335 493.871 57.1827 493.94C57.4004 493.982 57.6454 494.01 57.9041 494.065C58.1491 494.135 58.4213 494.19 58.6935 494.274C59.2516 494.413 59.8641 494.565 60.5174 494.746C61.1707 494.996 61.8785 495.218 62.6272 495.482C63.0083 495.593 63.3621 495.801 63.7569 495.967C64.138 496.148 64.5327 496.328 64.9274 496.509C65.3358 496.675 65.7169 496.939 66.1252 497.161C66.52 497.384 66.9419 497.62 67.3502 497.856C67.7586 498.105 68.1533 498.411 68.5616 498.703C68.7658 498.841 68.97 498.994 69.1741 499.133C69.3783 499.272 69.5961 499.424 69.7866 499.605C70.5625 500.299 71.4336 500.924 72.155 501.743C73.7475 503.242 75.1222 505.131 76.3745 507.13C77.6131 509.157 78.525 511.448 79.26 513.822C79.4098 514.432 79.5459 515.029 79.6956 515.64L79.8045 516.099L79.8726 516.571L80.0087 517.501L80.1448 518.431C80.1992 518.736 80.1856 519.056 80.2128 519.375L80.2945 521.263L80.1992 523.193L80.172 523.707C80.172 523.873 80.1584 524.04 80.1312 524.193L79.9951 525.095L79.8589 525.997L79.8045 526.442L79.8453 526.483Z" fill="white"/>
<path d="M51.1665 525.775C51.2618 525.734 51.3162 525.72 51.3162 525.72C51.3162 525.72 51.2618 525.692 51.1665 525.636C51.0712 525.595 50.9215 525.525 50.7582 525.428C50.6765 525.387 50.5948 525.331 50.4996 525.275C50.4043 525.206 50.309 525.151 50.2137 525.081C50.0095 524.942 49.8054 524.762 49.6148 524.581C49.4243 524.387 49.2201 524.165 49.0568 523.915C48.8798 523.679 48.7301 523.401 48.6076 523.124C48.4851 522.846 48.3898 522.54 48.3218 522.249C48.2673 521.943 48.2265 521.638 48.2265 521.333V521.305V521.221V521.055C48.2265 520.93 48.2401 520.874 48.2537 520.819C48.2537 520.708 48.2945 520.541 48.3218 520.388C48.4034 520.097 48.4851 519.791 48.6076 519.514C48.7437 519.236 48.8798 518.958 49.0568 518.722C49.2201 518.473 49.4243 518.264 49.6148 518.056C49.819 517.862 50.0232 517.695 50.2137 517.556C50.4179 517.417 50.5948 517.292 50.7718 517.209C50.9351 517.112 51.0712 517.056 51.1665 517.001C51.2618 516.945 51.3162 516.918 51.3162 516.918C51.3162 516.918 51.2618 516.89 51.1665 516.862C51.0712 516.834 50.9079 516.751 50.7037 516.723C50.5948 516.709 50.4859 516.682 50.3634 516.668C50.2409 516.668 50.1048 516.668 49.9551 516.654C49.6557 516.654 49.329 516.709 48.9615 516.82C48.6076 516.931 48.2129 517.098 47.859 517.362C47.4779 517.612 47.1376 517.945 46.8245 518.334C46.5115 518.736 46.2665 519.194 46.0895 519.708C46.0079 519.972 45.9262 520.222 45.8854 520.527C45.8581 520.68 45.8445 520.833 45.8445 520.93V521.096L45.8309 521.18V521.221V521.319C45.8445 521.874 45.9262 522.415 46.1031 522.929C46.2801 523.443 46.5251 523.915 46.8381 524.304C47.1512 524.692 47.4915 525.026 47.8726 525.275C48.2401 525.525 48.6212 525.692 48.9751 525.817C49.3426 525.928 49.6693 525.97 49.9687 525.984C50.1184 525.984 50.2546 525.984 50.3771 525.97C50.5132 525.956 50.6221 525.928 50.731 525.914C50.9351 525.886 51.0712 525.803 51.1801 525.775H51.1665Z" fill="white"/>
<path d="M48.1993 179.077C49.2746 178.98 49.8463 178.924 49.8463 178.924C49.8463 178.924 49.2746 178.841 48.2129 178.688C47.6821 178.632 47.0287 178.508 46.2665 178.355C45.8854 178.285 45.4907 178.202 45.0551 178.119C44.6195 178.022 44.1703 177.911 43.694 177.799C43.449 177.744 43.204 177.688 42.959 177.633C42.714 177.563 42.4554 177.494 42.1831 177.425C41.6659 177.272 41.1078 177.133 40.5498 176.966C39.9917 176.786 39.4064 176.592 38.8075 176.383C38.2086 176.189 37.5962 175.925 36.9564 175.689C34.4384 174.69 31.6889 173.357 28.8986 171.594C26.1083 169.844 23.3044 167.623 20.6502 164.985C20.3099 164.666 19.9968 164.305 19.6702 163.958C19.3435 163.611 19.0032 163.277 18.7038 162.916C18.0777 162.194 17.4379 161.459 16.8526 160.681C16.2401 159.918 15.6821 159.098 15.0968 158.293C14.811 157.891 14.5523 157.46 14.2665 157.044L13.8582 156.405L13.4771 155.752C12.429 154.017 11.5035 152.171 10.6732 150.269C10.469 149.783 10.2784 149.311 10.0743 148.825C9.89733 148.339 9.72036 147.839 9.54342 147.339C9.35286 146.853 9.20314 146.339 9.03981 145.84C8.89009 145.34 8.69954 144.84 8.57703 144.326C7.97814 142.286 7.61062 140.175 7.28395 138.051C6.9845 135.927 6.86203 133.761 6.84842 131.609L6.88926 129.957C6.88926 129.679 6.88924 129.36 6.91646 129.11L6.97092 128.333C7.01175 127.805 7.02536 127.305 7.09342 126.778L7.28395 125.181C7.61062 123.057 7.99175 120.947 8.57703 118.92C8.69954 118.406 8.89009 117.906 9.03981 117.406C9.20314 116.906 9.35286 116.393 9.54342 115.907C9.72036 115.407 9.89733 114.921 10.0743 114.421C10.2784 113.935 10.4826 113.449 10.6732 112.977C11.5171 111.075 12.429 109.229 13.4771 107.493L13.8582 106.841L14.2665 106.202C14.5387 105.786 14.811 105.355 15.0968 104.953C15.6821 104.148 16.2401 103.328 16.8526 102.565C18.0368 101.01 19.3435 99.5938 20.6502 98.261C21.3171 97.6084 21.9705 96.9559 22.6647 96.3589C23.0049 96.0674 23.3316 95.748 23.6855 95.4704C24.0394 95.1927 24.3796 94.9012 24.7199 94.6235C25.4005 94.0543 26.1219 93.5683 26.8025 93.0408C27.5103 92.5687 28.2044 92.0967 28.8986 91.6385C31.6889 89.8753 34.4384 88.5425 36.9564 87.5429C37.5962 87.3069 38.195 87.057 38.8075 86.8487C39.4064 86.6544 39.9917 86.46 40.5498 86.2656C41.1214 86.099 41.6659 85.9463 42.1831 85.8075C42.4417 85.7381 42.7004 85.6686 42.959 85.5992C43.2176 85.5437 43.4626 85.4882 43.694 85.4326C44.1703 85.3216 44.6332 85.2105 45.0551 85.1133C45.4907 85.03 45.899 84.9467 46.2665 84.8773C47.0287 84.7246 47.6684 84.6135 48.1993 84.5441C49.261 84.3914 49.8326 84.3081 49.8326 84.3081C49.8326 84.3081 49.261 84.2525 48.1857 84.1553C47.6412 84.0998 46.9879 84.072 46.1984 84.0581C45.8037 84.0581 45.3818 84.0304 44.9326 84.0304C44.4834 84.0443 44.007 84.0582 43.4898 84.072C41.4617 84.1553 38.9845 84.3914 36.1942 85.0161C33.4039 85.6409 30.2869 86.6266 27.0338 88.1399C23.7944 89.6532 20.4596 91.7496 17.2474 94.4013C15.6549 95.748 14.0896 97.2197 12.6196 98.858C11.1223 100.468 9.74759 102.273 8.44091 104.175C7.12062 106.063 5.9773 108.132 4.92924 110.27C3.86756 112.408 3.01004 114.685 2.27504 117.018C1.54003 119.35 1.0092 121.766 0.62809 124.223L0.396679 126.07C0.315014 126.68 0.287796 127.347 0.233353 127.972L0.165314 128.93C0.138088 129.263 0.138092 129.527 0.124481 129.818L0.0700226 131.651C0.110859 134.136 0.274212 136.621 0.641712 139.078C0.723381 139.689 0.845856 140.3 0.954742 140.911L1.1317 141.827L1.34948 142.73C1.4992 143.327 1.62172 143.924 1.78505 144.521C1.96199 145.104 2.12534 145.701 2.30228 146.284C3.03729 148.616 3.89477 150.879 4.95644 153.017C6.00451 155.156 7.14787 157.224 8.46816 159.112L8.94452 159.82L9.44817 160.515C9.78845 160.973 10.1151 161.431 10.469 161.875C11.1768 162.75 11.871 163.624 12.6332 164.416C14.1032 166.054 15.6685 167.526 17.261 168.872C20.4732 171.524 23.7944 173.621 27.0338 175.134C30.2733 176.647 33.3903 177.647 36.1942 178.272C38.9845 178.91 41.4617 179.146 43.4898 179.216C43.9934 179.229 44.4698 179.243 44.9326 179.257C45.3818 179.257 45.8173 179.229 46.1984 179.229C46.9879 179.216 47.6412 179.188 48.1857 179.132L48.1993 179.077Z" fill="white"/>
<path d="M74.7956 136.774L74.6867 137.232C74.537 137.843 74.4009 138.44 74.2512 139.051C73.5298 141.425 72.6178 143.716 71.3656 145.742C70.1133 147.742 68.7386 149.63 67.1461 151.129C66.4111 151.948 65.54 152.573 64.7777 153.267C64.5872 153.448 64.383 153.587 64.1652 153.739C63.9611 153.892 63.7569 154.031 63.5527 154.17C63.1444 154.447 62.7497 154.753 62.3413 155.017C61.9194 155.253 61.5111 155.489 61.1163 155.711C60.708 155.933 60.3269 156.183 59.9185 156.349C59.5238 156.53 59.1291 156.724 58.748 156.891C58.3669 157.058 57.9994 157.266 57.6182 157.377C56.8696 157.641 56.1618 157.877 55.5085 158.113C54.8415 158.293 54.2291 158.446 53.671 158.585C53.3852 158.654 53.1265 158.724 52.8679 158.793C52.6093 158.848 52.3779 158.876 52.1602 158.918C51.711 158.987 51.3299 159.057 51.0304 159.098C50.4043 159.209 50.0776 159.265 50.0776 159.265C50.0776 159.265 50.4179 159.293 51.0304 159.334C51.3435 159.348 51.7382 159.376 52.1874 159.404C52.4187 159.404 52.6638 159.432 52.9224 159.432C53.181 159.418 53.4668 159.404 53.7527 159.376C54.3379 159.334 55.0049 159.307 55.7127 159.237C56.4205 159.126 57.1827 158.973 58.013 158.821C58.4349 158.765 58.8296 158.599 59.2652 158.488C59.7008 158.363 60.1363 158.238 60.5855 158.099C61.0483 157.988 61.4838 157.766 61.9466 157.585C62.4094 157.391 62.8722 157.196 63.3622 156.988C63.8386 156.766 64.2877 156.488 64.7777 156.238C65.0227 156.113 65.2541 155.975 65.4991 155.85C65.7441 155.725 65.9892 155.586 66.2205 155.419C67.1461 154.767 68.1533 154.142 69.0517 153.323C70.9572 151.81 72.6586 149.824 74.1967 147.631C74.5506 147.061 74.9181 146.492 75.2856 145.909C75.6395 145.326 75.9117 144.687 76.2384 144.063C76.3881 143.757 76.5515 143.438 76.7012 143.119C76.8237 142.785 76.9598 142.466 77.0823 142.133C77.3137 141.466 77.5995 140.814 77.8037 140.134C77.9806 139.439 78.1712 138.745 78.3481 138.051L78.4842 137.523L78.5795 136.968L78.7429 135.857L78.9062 134.747C78.9334 134.552 78.947 134.386 78.9606 134.219L78.9878 133.706L79.0967 131.567C79.0287 128.666 78.6476 125.764 77.8037 123.029C77.5995 122.349 77.3273 121.696 77.0823 121.03C76.9598 120.697 76.8237 120.377 76.7012 120.044C76.5515 119.725 76.3881 119.419 76.2384 119.1C75.9253 118.489 75.6395 117.851 75.2856 117.254C74.9181 116.67 74.5642 116.101 74.1967 115.532C72.6586 113.338 70.9572 111.367 69.0517 109.84C68.1533 109.021 67.1461 108.396 66.2205 107.743C65.9892 107.577 65.7441 107.438 65.4991 107.313C65.2541 107.174 65.0091 107.049 64.7777 106.91C64.3013 106.66 63.8386 106.383 63.3622 106.161C62.8858 105.952 62.4094 105.758 61.9466 105.564C61.4838 105.383 61.0483 105.147 60.5855 105.05C60.1363 104.911 59.6872 104.786 59.2652 104.661C58.8296 104.55 58.4349 104.384 58.013 104.328C57.1827 104.175 56.4205 104.023 55.7127 103.912C54.9913 103.842 54.3243 103.814 53.739 103.773C53.4396 103.759 53.1674 103.731 52.8951 103.717C52.6365 103.717 52.3915 103.745 52.1602 103.745C51.711 103.773 51.3162 103.787 51.0032 103.814C50.3771 103.856 50.0368 103.884 50.0368 103.884C50.0368 103.884 50.3635 103.939 50.9896 104.05C51.3026 104.106 51.6838 104.161 52.1329 104.231C52.3507 104.272 52.5957 104.3 52.8543 104.356C53.0993 104.425 53.3715 104.481 53.6438 104.55C54.2018 104.689 54.8143 104.842 55.4677 105.022C56.121 105.272 56.8288 105.494 57.5774 105.758C57.9585 105.869 58.3124 106.077 58.7071 106.244C59.0883 106.424 59.483 106.605 59.8777 106.785C60.286 106.952 60.6672 107.216 61.0755 107.438C61.4702 107.66 61.8922 107.896 62.3005 108.132C62.7088 108.382 63.1036 108.687 63.5119 108.979C63.7161 109.118 63.9202 109.271 64.1244 109.409C64.3286 109.548 64.5463 109.701 64.7369 109.881C65.5127 110.576 66.3839 111.2 67.1053 112.019C68.6978 113.519 70.0725 115.407 71.3247 117.406C72.5634 119.433 73.4753 121.724 74.2103 124.098C74.36 124.709 74.4961 125.306 74.6459 125.917L74.7548 126.375L74.8228 126.847L74.9589 127.777L75.095 128.707C75.1495 129.013 75.1359 129.332 75.1631 129.652L75.2448 131.54L75.1495 133.469L75.1223 133.983C75.1223 134.15 75.1087 134.316 75.0814 134.469L74.9453 135.372L74.8092 136.274L74.7548 136.718L74.7956 136.774Z" fill="white"/>
<path d="M48.771 136.052C48.8662 136.01 48.9207 135.996 48.9207 135.996C48.9207 135.996 48.8662 135.969 48.771 135.913C48.6757 135.871 48.526 135.802 48.3626 135.705C48.281 135.663 48.1993 135.608 48.104 135.552C48.0087 135.483 47.9135 135.427 47.8182 135.358C47.614 135.219 47.4098 135.038 47.2193 134.858C47.0287 134.663 46.8246 134.441 46.6612 134.191C46.4843 133.955 46.3345 133.678 46.212 133.4C46.0895 133.122 45.9943 132.817 45.9262 132.525C45.8718 132.22 45.8309 131.915 45.8309 131.609V131.581V131.498V131.331C45.8309 131.206 45.8445 131.151 45.8582 131.095C45.8582 130.984 45.899 130.818 45.9262 130.665C46.0079 130.373 46.0895 130.068 46.212 129.79C46.3482 129.513 46.4843 129.235 46.6612 128.999C46.8246 128.749 47.0287 128.541 47.2193 128.333C47.4235 128.138 47.6276 127.972 47.8182 127.833C48.0223 127.694 48.1993 127.569 48.3762 127.486C48.5396 127.389 48.6757 127.333 48.771 127.277C48.8662 127.222 48.9207 127.194 48.9207 127.194C48.9207 127.194 48.8662 127.166 48.771 127.125C48.6757 127.097 48.5124 127.014 48.3082 126.986C48.1993 126.972 48.0904 126.944 47.9679 126.93C47.8454 126.93 47.7093 126.93 47.5596 126.917C47.2601 126.917 46.9335 126.972 46.566 127.083C46.2121 127.194 45.8173 127.361 45.4634 127.625C45.0823 127.874 44.742 128.208 44.429 128.596C44.1159 128.999 43.8709 129.457 43.694 129.971C43.6123 130.235 43.5306 130.485 43.4898 130.79C43.4626 130.943 43.449 131.095 43.449 131.193V131.359L43.4353 131.443V131.484V131.581C43.449 132.137 43.5306 132.678 43.7076 133.192C43.8845 133.706 44.1295 134.178 44.4426 134.566C44.7557 134.955 45.0959 135.302 45.477 135.538C45.8446 135.788 46.2257 135.955 46.5796 136.08C46.9471 136.191 47.2737 136.232 47.5732 136.246C47.7229 136.246 47.859 136.246 47.9815 136.232C48.1176 136.218 48.2265 136.191 48.3354 136.177C48.5396 136.149 48.6757 136.066 48.7846 136.038L48.771 136.052Z" fill="white"/>
<path d="M79.124 52.6121L79.124 31.7729C79.124 30.7317 77.9806 30.1208 77.1367 30.7039L75.0814 32.1478C73.7475 33.078 72.9581 34.619 72.9581 36.2712L72.9581 52.6121C72.9581 53.9865 74.047 55.0972 75.3945 55.0972H76.6739C78.0214 55.0972 79.1104 53.9865 79.1104 52.6121H79.124Z" fill="white"/>
</svg>
