<svg width="897" height="216" viewBox="0 0 897 216" fill="none" xmlns="http://www.w3.org/2000/svg">
<g filter="url(#filter0_d_12_12)">
<path d="M894.056 187.215H775.227V194.443H894.056V187.215Z" fill="white"/>
<path d="M894.056 198.417H775.227V202.283H894.056V198.417Z" fill="white"/>
<path d="M894.056 206.353H775.227V208.313H894.056V206.353Z" fill="white"/>
<path d="M120.829 187.215H2V194.443H120.829V187.215Z" fill="white"/>
<path d="M120.829 198.417H2V202.283H120.829V198.417Z" fill="white"/>
<path d="M120.829 206.353H2V208.313H120.829V206.353Z" fill="white"/>
<path d="M781.933 71.7375L778.032 60.6716C777.199 58.3168 775.477 56.3704 773.214 55.2679C770.049 53.7162 764.676 51.5384 756.651 49.592C742.337 46.1076 661.063 40.595 661.063 40.595C589.341 3.64057 576.86 1 500.251 1C423.642 1 414.09 9.64311 414.09 9.64311L358.042 54.7643H368.649C368.649 54.7643 408.592 21.8932 419.976 15.4143C431.361 8.93533 446.091 9.33006 497.321 9.33006C502.889 9.33006 508.206 9.71118 513.273 10.3781L528.17 49.4423C523.117 50.3951 518.41 51.239 514.454 51.8787C495.114 54.9957 494.378 54.7643 358.042 54.7643C273.158 54.7643 203.838 64.9047 163.59 72.5542C163.59 72.5542 163.59 72.5542 163.562 72.5542C163.548 72.5542 163.534 72.5542 163.507 72.5542C162.215 72.7583 145.292 75.4942 134.032 78.7881C132.755 79.1556 131.547 79.5367 130.436 79.9314C128.007 80.7753 126.091 81.6465 125.008 82.504C125.008 82.504 124.994 82.5176 124.966 82.5312C123.953 83.3343 123.245 84.4504 122.953 85.689C122.092 89.4184 120.565 97.6124 122.314 103.111L120.648 104.105C119.51 104.786 119.204 106.296 120.01 107.344L129.048 119.213C129.437 119.717 130.047 120.016 130.686 120.016H133.574L156.093 138.732L138.03 119.853L140.405 119.649C142.404 119.472 143.348 117.145 142.001 115.675L131.616 104.323C131.172 103.846 130.561 103.561 129.895 103.533C128.992 103.506 126.729 103.343 125.716 103.261C125.549 102.581 124.911 100.893 124.48 98.3474C123.3 89.8812 127.104 85.2398 127.215 85.1309C127.854 84.464 128.562 83.8651 129.353 83.3615C133.046 81.0067 139.294 78.5023 150.012 76.4197C154.441 75.6983 158.925 75.0042 163.465 74.3509C163.493 74.3509 163.534 74.3509 163.562 74.3509C267.272 59.2968 397.943 60.0454 461.793 58.344C533.752 56.4249 569.252 43.9434 587.856 43.712C604.071 43.4942 719.471 51.307 748.932 53.3215C753.444 53.6346 757.859 54.7643 761.954 56.6699L770.757 60.7668C773.172 61.8966 774.991 63.9519 775.81 66.4291L599.781 65.5988C594.617 65.5716 589.466 66.1297 584.44 67.2458L553.188 74.2147C547.718 75.4397 542.137 76.1747 536.542 76.4878C536.403 75.78 536.264 75.0722 536.112 74.4053C535.862 73.4253 535.64 72.4725 535.39 71.5742C534.918 69.7639 534.349 68.1441 533.835 66.715C533.321 65.2858 532.794 64.0744 532.349 63.0807C531.905 62.0871 531.489 61.3385 531.225 60.8213C530.947 60.3041 530.78 60.0454 530.78 60.0454C530.78 60.0454 530.878 60.3449 531.044 60.8894C531.211 61.4474 531.433 62.2641 531.711 63.2985C531.974 64.333 532.266 65.6124 532.585 67.0688C532.738 67.8038 532.891 68.5797 533.03 69.3964C533.099 69.8047 533.182 70.2266 533.252 70.6622C533.321 71.0978 533.391 71.5333 533.46 71.9825C533.682 73.4253 533.877 75.0042 534.071 76.6239C533.932 76.6239 533.793 76.6375 533.654 76.6511L348.712 81.9187C349.046 80.4351 349.42 79.0059 349.823 77.7128C350.392 75.9161 351.017 74.2692 351.559 72.7855C352.1 71.3155 352.544 70.0225 352.905 68.9608C353.28 67.8991 353.544 67.0552 353.738 66.4836C353.919 65.9119 354.016 65.5988 354.016 65.5988C354.016 65.5988 353.849 65.8847 353.558 66.4019C353.266 66.9327 352.822 67.695 352.28 68.6886C351.739 69.6822 351.073 70.88 350.351 72.2683C349.99 72.9625 349.601 73.6975 349.184 74.4734C348.962 74.8953 348.782 75.2764 348.587 75.6983C348.379 76.1067 348.185 76.5423 347.99 77.005C347.574 77.917 347.227 78.8698 346.838 79.8634C346.602 80.5439 346.38 81.2517 346.172 81.9595L251.889 85.199L345.714 83.6609C345.214 85.6618 344.811 87.7851 344.603 90.0038C344.367 92.4674 344.325 95.0399 344.533 97.6396C344.575 98.293 344.645 98.9463 344.728 99.586C344.797 100.239 344.894 100.893 345.019 101.546C345.117 102.199 345.255 102.839 345.394 103.492C345.533 104.146 345.672 104.772 345.825 105.384C346.422 107.875 347.019 110.366 347.643 112.803C348.254 115.253 348.879 117.648 349.49 119.976C350.101 122.303 350.725 124.535 351.322 126.659C351.906 128.782 352.489 130.783 353.044 132.62C353.586 134.472 354.113 136.146 354.571 137.643C355.029 139.14 355.46 140.433 355.807 141.509C356.154 142.584 356.445 143.414 356.64 143.986C356.848 144.557 356.945 144.857 356.945 144.857C356.945 144.857 356.904 144.544 356.834 143.945C356.751 143.346 356.64 142.475 356.473 141.359C356.307 140.243 356.112 138.895 355.849 137.357C355.599 135.819 355.307 134.077 354.96 132.185C354.627 130.293 354.252 128.238 353.808 126.087C353.377 123.923 352.947 121.65 352.447 119.295C351.947 116.94 351.434 114.518 350.878 112.068C350.337 109.604 349.74 107.113 349.157 104.622C349.004 103.996 348.851 103.37 348.726 102.785C348.587 102.186 348.463 101.587 348.365 100.974C348.254 100.375 348.143 99.763 348.074 99.1641C347.977 98.5652 347.893 97.9527 347.852 97.3538C347.602 94.931 347.532 92.5354 347.63 90.2215C347.741 87.9348 347.977 85.7162 348.365 83.6337L534.432 80.5984C534.515 81.8234 534.585 83.062 534.654 84.3415C534.723 86.6146 534.793 88.9557 534.737 91.3376C534.71 93.7196 534.585 96.1288 534.404 98.5516C534.293 99.763 534.196 100.961 534.085 102.159C533.932 103.356 533.821 104.554 533.668 105.738C533.502 106.922 533.335 108.093 533.168 109.25C532.974 110.407 532.78 111.55 532.599 112.666C532.391 113.783 532.155 114.885 531.961 115.96C531.738 117.036 531.502 118.084 531.28 119.105C531.072 120.139 530.794 121.119 530.572 122.072C530.336 123.025 530.142 123.964 529.892 124.848C529.392 126.618 529.003 128.251 528.559 129.68C528.129 131.11 527.809 132.389 527.462 133.41C527.129 134.431 526.907 135.261 526.74 135.805C526.574 136.364 526.491 136.663 526.491 136.663C526.491 136.663 526.643 136.391 526.921 135.887C527.185 135.37 527.601 134.621 528.101 133.655C528.615 132.689 529.17 131.504 529.795 130.116C530.1 129.422 530.461 128.7 530.767 127.911C531.086 127.122 531.419 126.291 531.766 125.434C532.127 124.576 532.433 123.651 532.78 122.698C533.113 121.745 533.46 120.765 533.765 119.744C534.071 118.723 534.404 117.675 534.71 116.586C535.001 115.498 535.279 114.381 535.57 113.252C535.834 112.108 536.07 110.951 536.32 109.767C536.556 108.583 536.75 107.385 536.959 106.174C537.153 104.962 537.306 103.737 537.472 102.499C537.597 101.26 537.722 100.022 537.833 98.7694C537.986 96.2785 538.111 93.774 538.069 91.324C538.069 90.7115 538.055 90.099 538.042 89.4865C538.014 88.874 537.986 88.2751 537.944 87.6762C537.903 86.4784 537.778 85.2806 537.681 84.1237C537.556 82.8851 537.403 81.6737 537.236 80.4895C542.651 80.2989 548.038 79.7001 553.355 78.6656L586.884 72.1186C591.34 71.2475 595.88 70.8255 600.434 70.8392L777.06 71.683L777.171 72.1867C777.56 73.9153 777.212 75.7256 776.199 77.182L762.288 97.2857L780.489 78.1756C782.141 76.447 782.682 73.9561 781.891 71.7239L781.933 71.7375ZM532.558 48.5848L517.48 10.9634C556.562 17.4151 579.567 40.5814 579.567 40.5814C573.07 40.5814 551.314 45.0051 532.558 48.5848Z" fill="white"/>
<path d="M608.695 88.3432C577.124 97.7077 579.262 142.026 579.817 140.175C591.812 99.8583 593.034 93.3794 639.141 89.296C685.248 85.2126 698.535 126.495 698.535 126.495C691.676 80.6665 640.28 78.9787 608.709 88.3432H608.695Z" fill="white"/>
<path d="M230.022 93.4611C183.846 93.4611 194.689 145.946 194.772 144.653C198.687 89.1327 224.066 97.9391 259.886 97.9391C289.874 97.9391 313.573 149.934 313.573 149.934C295.455 92.9847 276.199 93.4611 230.022 93.4611Z" fill="white"/>
<path d="M557.909 92.8758L550.051 93.5835C549.135 93.6652 548.385 94.3594 548.26 95.2577C547.413 101.287 544.331 123.093 543.9 123.923C543.623 124.481 541.846 126.169 540.402 127.489C539.791 128.047 540.249 129.041 541.082 128.973L552.078 128.006C554.258 127.816 556.007 126.169 556.298 124.032C557.256 116.859 559.367 101.056 560.061 95.0263C560.2 93.7877 559.158 92.7532 557.895 92.8621L557.909 92.8758Z" fill="white"/>
<path d="M557.298 128.986L568.294 128.02C570.473 127.829 572.223 126.182 572.514 124.045C573.472 116.872 575.583 101.07 576.277 95.04C576.416 93.8014 575.374 92.7669 574.111 92.8758L566.253 93.5836C565.337 93.6652 564.587 94.3594 564.462 95.2578C563.615 101.288 560.533 123.093 560.102 123.923C559.811 124.481 558.048 126.169 556.604 127.489C555.993 128.047 556.451 129.041 557.284 128.973L557.298 128.986Z" fill="white"/>
<path d="M757.401 80.8163C753.319 80.789 740.99 80.721 736.215 80.7754C735.132 80.7754 734.215 81.5921 734.104 82.6538L733.715 86.1246C733.577 87.3769 734.576 88.4658 735.854 88.4658H753.763C754.319 88.4658 754.86 88.248 755.249 87.8805L758.886 84.4504C759.553 83.8107 759.733 82.8307 759.331 82.014C758.97 81.2926 758.234 80.8299 757.415 80.8299L757.401 80.8163Z" fill="white"/>
<path d="M577.957 145.292L434.36 143.877C434.151 143.877 433.943 143.877 433.735 143.877C430.472 143.877 427.251 144.435 424.183 145.51L417.144 148.001C415.325 148.641 413.423 148.995 411.494 149.049L316.17 151.771C315.628 151.785 315.198 152.221 315.212 152.765C315.212 153.296 315.656 153.731 316.211 153.731H412.257C414.409 153.731 416.547 153.391 418.588 152.738L426.307 150.233C428.959 149.376 431.722 148.94 434.512 148.94L577.943 150.642C578.248 150.642 578.748 148.192 578.748 147.988C578.748 147.77 578.248 145.333 577.957 145.306V145.292Z" fill="white"/>
<path d="M687.428 129.013C687.331 127.938 687.275 127.366 687.275 127.366C687.275 127.366 687.192 127.938 687.039 129C686.984 129.531 686.859 130.184 686.706 130.946C686.637 131.327 686.553 131.722 686.47 132.158C686.373 132.593 686.262 133.042 686.151 133.519C686.095 133.764 686.04 134.009 685.984 134.254C685.915 134.499 685.845 134.757 685.776 135.03C685.623 135.547 685.484 136.105 685.318 136.663C685.137 137.221 684.943 137.806 684.735 138.405C684.54 139.004 684.276 139.617 684.04 140.256C683.041 142.774 681.708 145.524 679.945 148.314C678.195 151.104 675.974 153.908 673.336 156.562C673.017 156.903 672.656 157.216 672.309 157.542C671.962 157.869 671.629 158.209 671.268 158.509C670.546 159.135 669.81 159.775 669.032 160.36C668.269 160.973 667.45 161.531 666.644 162.116C666.242 162.402 665.811 162.66 665.395 162.946L664.756 163.355L664.104 163.736C662.368 164.784 660.522 165.709 658.62 166.54C658.134 166.744 657.662 166.934 657.176 167.138C656.69 167.315 656.19 167.492 655.69 167.669C655.204 167.86 654.691 168.01 654.191 168.173C653.691 168.323 653.191 168.513 652.678 168.636C650.637 169.235 648.526 169.602 646.402 169.929C644.278 170.228 642.112 170.351 639.96 170.364L638.308 170.323C638.03 170.323 637.711 170.323 637.461 170.296L636.684 170.242C636.156 170.201 635.656 170.187 635.129 170.119L633.532 169.929C631.408 169.602 629.298 169.221 627.257 168.636C626.743 168.513 626.243 168.323 625.744 168.173C625.244 168.01 624.73 167.86 624.244 167.669C623.744 167.492 623.258 167.315 622.759 167.138C622.273 166.934 621.787 166.73 621.315 166.54C619.413 165.696 617.566 164.784 615.831 163.736L615.178 163.355L614.54 162.946C614.123 162.674 613.693 162.402 613.29 162.116C612.485 161.531 611.666 160.973 610.902 160.36C609.347 159.176 607.931 157.869 606.598 156.562C605.946 155.896 605.293 155.242 604.696 154.548C604.405 154.208 604.085 153.881 603.808 153.527C603.53 153.173 603.238 152.833 602.961 152.493C602.392 151.812 601.906 151.091 601.378 150.41C600.906 149.702 600.434 149.008 599.976 148.314C598.213 145.524 596.88 142.774 595.88 140.256C595.644 139.617 595.394 139.018 595.186 138.405C594.992 137.806 594.797 137.221 594.603 136.663C594.436 136.091 594.284 135.547 594.145 135.03C594.075 134.771 594.006 134.512 593.937 134.254C593.881 133.995 593.825 133.75 593.77 133.519C593.659 133.042 593.548 132.58 593.451 132.158C593.367 131.722 593.284 131.314 593.215 130.946C593.062 130.184 592.951 129.544 592.881 129.013C592.729 127.952 592.645 127.38 592.645 127.38C592.645 127.38 592.59 127.952 592.493 129.027C592.437 129.571 592.409 130.225 592.395 131.014C592.395 131.409 592.368 131.831 592.368 132.28C592.382 132.729 592.395 133.206 592.409 133.723C592.493 135.751 592.729 138.228 593.353 141.019C593.978 143.809 594.964 146.926 596.477 150.179C597.99 153.418 600.087 156.753 602.739 159.965C604.085 161.558 605.557 163.123 607.195 164.593C608.806 166.09 610.611 167.465 612.513 168.772C614.401 170.092 616.469 171.235 618.607 172.283C620.746 173.345 623.022 174.203 625.355 174.938C627.687 175.673 630.103 176.204 632.56 176.585L634.407 176.816C635.018 176.898 635.684 176.925 636.309 176.979L637.267 177.047C637.6 177.075 637.864 177.075 638.155 177.088L639.988 177.143C642.473 177.102 644.958 176.938 647.416 176.571C648.027 176.489 648.637 176.367 649.248 176.258L650.165 176.081L651.067 175.863C651.664 175.714 652.261 175.591 652.858 175.428C653.441 175.251 654.038 175.087 654.621 174.91C656.954 174.175 659.217 173.318 661.355 172.256C663.493 171.208 665.561 170.065 667.45 168.745L668.158 168.268L668.852 167.765C669.31 167.424 669.768 167.098 670.212 166.744C671.087 166.036 671.962 165.342 672.753 164.58C674.391 163.11 675.863 161.544 677.21 159.952C679.861 156.739 681.958 153.418 683.471 150.179C684.984 146.939 685.984 143.822 686.609 141.032C687.247 138.242 687.483 135.765 687.553 133.736C687.567 133.233 687.581 132.756 687.595 132.294C687.595 131.845 687.567 131.409 687.567 131.028C687.553 130.238 687.525 129.585 687.47 129.041L687.428 129.013Z" fill="white"/>
<path d="M645.111 99.7765L645.569 99.8854C646.18 100.035 646.777 100.171 647.388 100.321C649.762 101.042 652.039 101.954 654.08 103.207C656.079 104.459 657.967 105.833 659.467 107.426C660.286 108.161 660.91 109.032 661.605 109.794C661.785 109.985 661.924 110.189 662.077 110.407C662.229 110.611 662.368 110.815 662.507 111.019C662.785 111.428 663.09 111.822 663.354 112.231C663.59 112.653 663.826 113.061 664.048 113.456C664.27 113.864 664.52 114.245 664.687 114.654C664.867 115.048 665.062 115.443 665.228 115.824C665.395 116.205 665.603 116.573 665.714 116.954C665.978 117.702 666.214 118.41 666.45 119.064C666.63 119.731 666.783 120.343 666.922 120.901C666.991 121.187 667.061 121.446 667.13 121.704C667.186 121.963 667.214 122.194 667.255 122.412C667.325 122.861 667.394 123.242 667.436 123.542C667.547 124.168 667.602 124.494 667.602 124.494C667.602 124.494 667.63 124.154 667.672 123.542C667.686 123.229 667.713 122.834 667.741 122.385C667.741 122.153 667.769 121.908 667.769 121.65C667.755 121.391 667.741 121.105 667.713 120.819C667.672 120.234 667.644 119.567 667.575 118.859C667.463 118.152 667.311 117.389 667.158 116.559C667.102 116.137 666.936 115.742 666.825 115.307C666.7 114.871 666.575 114.436 666.436 113.987C666.325 113.524 666.103 113.088 665.922 112.625C665.728 112.163 665.534 111.7 665.325 111.21C665.103 110.734 664.826 110.284 664.576 109.794C664.451 109.549 664.312 109.318 664.187 109.073C664.062 108.828 663.923 108.583 663.757 108.352C663.104 107.426 662.479 106.419 661.66 105.52C660.147 103.615 658.162 101.913 655.968 100.375C655.399 100.021 654.829 99.654 654.246 99.2865C653.663 98.9326 653.025 98.6604 652.4 98.3337C652.094 98.184 651.775 98.0207 651.456 97.8709C651.123 97.7484 650.803 97.6123 650.47 97.4898C649.804 97.2584 649.151 96.9726 648.471 96.7684C647.777 96.5915 647.083 96.4009 646.388 96.224L645.861 96.0878L645.305 95.9926L644.195 95.8292L643.084 95.6659C642.89 95.6387 642.723 95.6251 642.556 95.6115L642.043 95.5842L639.905 95.4753C637.003 95.5434 634.101 95.9245 631.366 96.7684C630.686 96.9726 630.034 97.2448 629.367 97.4898C629.034 97.6123 628.715 97.7484 628.381 97.8709C628.062 98.0207 627.757 98.184 627.437 98.3337C626.826 98.6604 626.188 98.9326 625.591 99.2865C625.008 99.654 624.439 100.008 623.869 100.375C621.676 101.913 619.704 103.615 618.177 105.52C617.358 106.419 616.733 107.426 616.081 108.352C615.914 108.583 615.775 108.828 615.65 109.073C615.511 109.318 615.387 109.563 615.248 109.794C614.998 110.271 614.72 110.734 614.498 111.21C614.29 111.686 614.095 112.163 613.901 112.625C613.72 113.088 613.498 113.524 613.387 113.987C613.248 114.436 613.123 114.885 612.999 115.307C612.887 115.742 612.721 116.137 612.665 116.559C612.513 117.389 612.36 118.152 612.249 118.859C612.179 119.581 612.152 120.248 612.11 120.833C612.096 121.132 612.068 121.405 612.054 121.677C612.054 121.936 612.082 122.181 612.082 122.412C612.11 122.861 612.124 123.256 612.152 123.569C612.193 124.195 612.221 124.535 612.221 124.535C612.221 124.535 612.277 124.209 612.388 123.583C612.443 123.269 612.499 122.888 612.568 122.439C612.61 122.221 612.638 121.976 612.693 121.718C612.762 121.473 612.818 121.201 612.901 120.928C613.04 120.37 613.193 119.758 613.373 119.104C613.623 118.451 613.845 117.743 614.109 116.995C614.22 116.614 614.429 116.26 614.595 115.865C614.776 115.484 614.956 115.089 615.137 114.694C615.303 114.286 615.567 113.905 615.789 113.497C616.011 113.102 616.247 112.68 616.483 112.272C616.733 111.863 617.039 111.469 617.33 111.06C617.469 110.856 617.622 110.652 617.761 110.448C617.899 110.244 618.052 110.026 618.233 109.835C618.927 109.059 619.552 108.188 620.371 107.467C621.87 105.874 623.758 104.5 625.757 103.247C627.784 102.009 630.075 101.097 632.449 100.362C633.06 100.212 633.657 100.076 634.268 99.9262L634.726 99.8173L635.198 99.7493L636.128 99.6132L637.059 99.477C637.364 99.4226 637.683 99.4362 638.003 99.409L639.891 99.3273L641.821 99.4226L642.334 99.4498C642.501 99.4498 642.668 99.4634 642.82 99.4906L643.723 99.6268L644.625 99.7629L645.069 99.8173L645.111 99.7765Z" fill="white"/>
<path d="M644.403 128.455C644.361 128.36 644.347 128.306 644.347 128.306C644.347 128.306 644.32 128.36 644.264 128.455C644.223 128.551 644.153 128.7 644.056 128.864C644.014 128.945 643.959 129.027 643.903 129.122C643.834 129.218 643.778 129.313 643.709 129.408C643.57 129.612 643.39 129.817 643.209 130.007C643.015 130.198 642.792 130.402 642.543 130.565C642.307 130.742 642.029 130.892 641.751 131.014C641.474 131.137 641.168 131.232 640.877 131.3C640.571 131.355 640.266 131.395 639.96 131.395H639.933H639.849H639.683C639.558 131.395 639.502 131.382 639.447 131.368C639.336 131.368 639.169 131.327 639.016 131.3C638.725 131.218 638.419 131.137 638.142 131.014C637.864 130.878 637.586 130.742 637.35 130.565C637.1 130.402 636.892 130.198 636.684 130.007C636.489 129.803 636.323 129.599 636.184 129.408C636.045 129.204 635.92 129.027 635.837 128.85C635.74 128.687 635.684 128.551 635.629 128.455C635.573 128.36 635.545 128.306 635.545 128.306C635.545 128.306 635.518 128.36 635.49 128.455C635.462 128.551 635.379 128.714 635.351 128.918C635.337 129.027 635.309 129.136 635.295 129.258C635.295 129.381 635.295 129.517 635.282 129.667C635.282 129.966 635.337 130.293 635.448 130.66C635.559 131.014 635.726 131.409 635.99 131.763C636.239 132.144 636.573 132.484 636.961 132.797C637.364 133.11 637.822 133.355 638.336 133.532C638.6 133.614 638.85 133.696 639.155 133.737C639.308 133.764 639.46 133.777 639.558 133.777H639.724L639.808 133.791H639.849H639.946C640.502 133.777 641.043 133.696 641.557 133.519C642.071 133.342 642.543 133.097 642.931 132.784C643.32 132.471 643.653 132.13 643.903 131.749C644.153 131.382 644.32 131.001 644.445 130.647C644.556 130.279 644.597 129.953 644.611 129.653C644.611 129.503 644.611 129.367 644.597 129.245C644.583 129.109 644.556 129 644.542 128.891C644.514 128.687 644.431 128.551 644.403 128.442V128.455Z" fill="white"/>
<path d="M297.704 131.423C297.607 130.347 297.552 129.776 297.552 129.776C297.552 129.776 297.468 130.347 297.316 131.409C297.26 131.94 297.135 132.593 296.982 133.355C296.913 133.737 296.83 134.131 296.746 134.567C296.649 135.002 296.538 135.452 296.427 135.928C296.372 136.173 296.316 136.418 296.261 136.663C296.191 136.908 296.122 137.167 296.052 137.439C295.9 137.956 295.761 138.514 295.594 139.072C295.414 139.63 295.219 140.215 295.011 140.814C294.817 141.413 294.553 142.026 294.317 142.665C293.317 145.184 291.984 147.933 290.221 150.723C288.472 153.514 286.251 156.318 283.613 158.972C283.293 159.312 282.932 159.625 282.585 159.952C282.238 160.278 281.905 160.619 281.544 160.918C280.822 161.544 280.086 162.184 279.309 162.769C278.545 163.382 277.726 163.94 276.921 164.525C276.518 164.811 276.088 165.07 275.671 165.355L275.033 165.764L274.38 166.145C272.645 167.193 270.798 168.118 268.896 168.949C268.41 169.153 267.938 169.343 267.452 169.548C266.966 169.725 266.467 169.902 265.967 170.078C265.481 170.269 264.967 170.419 264.467 170.582C263.968 170.732 263.468 170.922 262.954 171.045C260.913 171.644 258.803 172.011 256.679 172.338C254.555 172.637 252.389 172.76 250.237 172.773L248.585 172.733C248.307 172.733 247.988 172.733 247.738 172.705L246.96 172.651C246.433 172.61 245.933 172.597 245.405 172.528L243.809 172.338C241.685 172.011 239.574 171.63 237.547 171.045C237.034 170.922 236.534 170.732 236.034 170.582C235.534 170.419 235.02 170.269 234.535 170.078C234.035 169.902 233.549 169.725 233.049 169.548C232.563 169.343 232.077 169.139 231.605 168.949C229.703 168.105 227.857 167.193 226.121 166.145L225.469 165.764L224.83 165.355C224.413 165.083 223.983 164.811 223.58 164.525C222.775 163.94 221.956 163.382 221.193 162.769C219.638 161.585 218.221 160.278 216.889 158.972C216.236 158.305 215.584 157.651 214.987 156.957C214.695 156.617 214.376 156.29 214.098 155.936C213.82 155.583 213.529 155.242 213.251 154.902C212.682 154.221 212.196 153.5 211.668 152.819C211.196 152.112 210.724 151.417 210.266 150.723C208.503 147.933 207.17 145.184 206.171 142.665C205.935 142.026 205.685 141.427 205.476 140.814C205.282 140.215 205.088 139.63 204.893 139.072C204.727 138.5 204.574 137.956 204.435 137.439C204.366 137.18 204.296 136.922 204.227 136.663C204.171 136.404 204.116 136.159 204.06 135.928C203.949 135.452 203.838 134.989 203.741 134.567C203.658 134.131 203.574 133.723 203.505 133.355C203.352 132.593 203.241 131.953 203.172 131.423C203.019 130.361 202.936 129.789 202.936 129.789C202.936 129.789 202.88 130.361 202.783 131.436C202.727 131.981 202.7 132.634 202.686 133.423C202.686 133.818 202.658 134.24 202.658 134.689C202.672 135.138 202.686 135.615 202.7 136.132C202.783 138.16 203.019 140.637 203.644 143.428C204.269 146.218 205.254 149.335 206.768 152.588C208.281 155.828 210.377 159.162 213.029 162.375C214.376 163.967 215.847 165.532 217.486 167.002C219.096 168.5 220.901 169.874 222.803 171.181C224.691 172.501 226.76 173.645 228.898 174.693C231.036 175.754 233.313 176.612 235.645 177.347C237.978 178.082 240.393 178.613 242.851 178.994L244.697 179.225C245.308 179.307 245.975 179.334 246.599 179.389L247.557 179.457C247.89 179.484 248.154 179.484 248.446 179.497L250.278 179.552C252.764 179.511 255.249 179.348 257.706 178.98C258.317 178.899 258.928 178.776 259.539 178.667L260.455 178.49L261.357 178.272C261.954 178.123 262.551 178 263.148 177.837C263.732 177.66 264.329 177.497 264.912 177.32C267.244 176.585 269.507 175.727 271.645 174.665C273.783 173.617 275.852 172.474 277.74 171.154L278.448 170.677L279.142 170.174C279.6 169.833 280.059 169.507 280.503 169.153C281.377 168.445 282.252 167.751 283.043 166.989C284.682 165.519 286.153 163.953 287.5 162.361C290.152 159.149 292.248 155.828 293.762 152.588C295.275 149.349 296.274 146.232 296.899 143.428C297.538 140.637 297.774 138.16 297.843 136.132C297.857 135.628 297.871 135.152 297.885 134.689C297.885 134.24 297.857 133.805 297.857 133.423C297.843 132.634 297.816 131.981 297.76 131.436L297.704 131.423Z" fill="white"/>
<path d="M255.401 104.826L255.86 104.935C256.47 105.085 257.067 105.221 257.678 105.371C260.052 106.092 262.343 107.004 264.37 108.256C266.369 109.509 268.258 110.883 269.757 112.476C270.576 113.211 271.201 114.082 271.895 114.844C272.076 115.035 272.214 115.239 272.367 115.457C272.52 115.661 272.659 115.865 272.797 116.069C273.075 116.477 273.381 116.872 273.644 117.281C273.88 117.702 274.116 118.111 274.339 118.506C274.561 118.914 274.811 119.295 274.977 119.703C275.158 120.098 275.352 120.493 275.519 120.874C275.685 121.255 275.893 121.623 276.005 122.004C276.268 122.752 276.504 123.46 276.74 124.113C276.921 124.78 277.074 125.393 277.212 125.951C277.282 126.237 277.351 126.495 277.421 126.754C277.476 127.013 277.504 127.244 277.546 127.462C277.615 127.911 277.684 128.292 277.726 128.591C277.837 129.218 277.893 129.544 277.893 129.544C277.893 129.544 277.92 129.204 277.962 128.591C277.976 128.278 278.004 127.884 278.032 127.435C278.032 127.203 278.059 126.958 278.059 126.7C278.045 126.441 278.032 126.155 278.004 125.869C277.962 125.284 277.934 124.617 277.865 123.909C277.754 123.201 277.601 122.439 277.448 121.609C277.393 121.187 277.226 120.792 277.115 120.357C276.99 119.921 276.865 119.486 276.726 119.036C276.615 118.574 276.393 118.138 276.213 117.675C276.018 117.212 275.824 116.75 275.616 116.26C275.394 115.783 275.116 115.334 274.866 114.844C274.741 114.599 274.602 114.368 274.477 114.123C274.352 113.878 274.214 113.633 274.047 113.401C273.394 112.476 272.77 111.469 271.951 110.57C270.437 108.665 268.452 106.963 266.258 105.425C265.689 105.071 265.12 104.704 264.537 104.336C263.954 103.982 263.315 103.71 262.69 103.383C262.385 103.234 262.066 103.07 261.746 102.921C261.413 102.798 261.094 102.662 260.76 102.54C260.094 102.308 259.442 102.022 258.761 101.818C258.067 101.641 257.373 101.451 256.679 101.274L256.151 101.138L255.596 101.042L254.485 100.879L253.374 100.716C253.18 100.688 253.013 100.675 252.847 100.661L252.333 100.634L250.195 100.525C247.293 100.593 244.392 100.974 241.657 101.818C240.976 102.022 240.324 102.295 239.658 102.54C239.324 102.662 239.005 102.798 238.672 102.921C238.353 103.07 238.047 103.234 237.728 103.383C237.117 103.697 236.478 103.982 235.881 104.336C235.298 104.704 234.729 105.058 234.16 105.425C231.966 106.963 229.995 108.665 228.467 110.57C227.648 111.469 227.024 112.476 226.371 113.401C226.204 113.633 226.066 113.878 225.941 114.123C225.802 114.368 225.677 114.613 225.538 114.844C225.288 115.321 225.01 115.783 224.788 116.26C224.58 116.736 224.386 117.212 224.191 117.675C224.011 118.138 223.775 118.574 223.678 119.036C223.539 119.486 223.414 119.935 223.289 120.357C223.178 120.792 223.011 121.187 222.956 121.609C222.803 122.439 222.65 123.201 222.539 123.909C222.47 124.631 222.442 125.298 222.4 125.883C222.386 126.182 222.359 126.455 222.345 126.727C222.345 126.985 222.373 127.23 222.373 127.462C222.4 127.911 222.414 128.306 222.442 128.619C222.484 129.245 222.511 129.585 222.511 129.585C222.511 129.585 222.567 129.258 222.678 128.632C222.734 128.319 222.789 127.938 222.859 127.489C222.9 127.271 222.928 127.026 222.983 126.768C223.053 126.523 223.108 126.25 223.178 125.978C223.317 125.42 223.469 124.808 223.65 124.154C223.9 123.501 224.122 122.793 224.386 122.044C224.497 121.663 224.705 121.309 224.872 120.915C225.052 120.534 225.233 120.139 225.413 119.744C225.58 119.336 225.843 118.955 226.066 118.546C226.288 118.152 226.524 117.73 226.76 117.321C227.01 116.913 227.315 116.518 227.607 116.11C227.746 115.906 227.898 115.702 228.037 115.497C228.176 115.293 228.329 115.076 228.509 114.885C229.203 114.109 229.828 113.238 230.647 112.517C232.147 110.924 234.035 109.549 236.034 108.297C238.061 107.059 240.352 106.147 242.726 105.412C243.337 105.262 243.934 105.126 244.545 104.976L245.003 104.867L245.475 104.799L246.405 104.663L247.335 104.527C247.641 104.472 247.96 104.486 248.279 104.459L250.167 104.377L252.097 104.472L252.611 104.5C252.777 104.5 252.944 104.513 253.097 104.54L253.999 104.677L254.902 104.813L255.346 104.867L255.401 104.826Z" fill="white"/>
<path d="M254.68 130.851C254.638 130.756 254.624 130.701 254.624 130.701C254.624 130.701 254.596 130.756 254.541 130.851C254.499 130.946 254.43 131.096 254.332 131.259C254.291 131.341 254.235 131.423 254.18 131.518C254.11 131.613 254.055 131.708 253.985 131.804C253.846 132.008 253.666 132.212 253.486 132.403C253.291 132.593 253.069 132.797 252.819 132.961C252.583 133.138 252.305 133.287 252.028 133.41C251.75 133.532 251.445 133.628 251.153 133.696C250.848 133.75 250.542 133.791 250.237 133.791H250.209H250.126H249.959C249.834 133.791 249.779 133.777 249.723 133.764C249.612 133.764 249.445 133.723 249.293 133.696C249.001 133.614 248.696 133.532 248.418 133.41C248.14 133.274 247.863 133.138 247.627 132.961C247.377 132.797 247.169 132.593 246.96 132.403C246.766 132.198 246.599 131.994 246.46 131.804C246.322 131.6 246.197 131.423 246.113 131.246C246.016 131.082 245.961 130.946 245.905 130.851C245.85 130.756 245.822 130.701 245.822 130.701C245.822 130.701 245.794 130.756 245.752 130.851C245.725 130.946 245.641 131.11 245.614 131.314C245.6 131.423 245.572 131.531 245.558 131.654C245.558 131.776 245.558 131.913 245.544 132.062C245.544 132.362 245.6 132.688 245.711 133.056C245.822 133.41 245.988 133.805 246.252 134.158C246.502 134.54 246.835 134.88 247.224 135.193C247.627 135.506 248.085 135.751 248.599 135.928C248.862 136.01 249.112 136.091 249.418 136.132C249.57 136.159 249.723 136.173 249.82 136.173H249.987L250.07 136.187H250.112H250.209C250.764 136.173 251.306 136.091 251.82 135.914C252.333 135.737 252.805 135.492 253.194 135.179C253.583 134.866 253.93 134.526 254.166 134.145C254.416 133.777 254.582 133.396 254.707 133.042C254.818 132.675 254.86 132.348 254.874 132.049C254.874 131.899 254.874 131.763 254.86 131.64C254.846 131.504 254.818 131.395 254.804 131.286C254.777 131.082 254.693 130.946 254.666 130.837L254.68 130.851Z" fill="white"/>
<path d="M171.24 100.498H150.401C149.359 100.498 148.748 101.641 149.332 102.485L150.775 104.541C151.706 105.874 153.247 106.664 154.899 106.664H171.24C172.614 106.664 173.725 105.575 173.725 104.228V102.948C173.725 101.601 172.614 100.512 171.24 100.512V100.498Z" fill="white"/>
<path d="M159.416 206.608C159.416 207.995 159.069 209.155 158.376 210.088C157.683 211.022 156.696 211.728 155.416 212.208C154.136 212.688 152.616 212.928 150.856 212.928C149.363 212.928 148.069 212.808 146.976 212.568C145.909 212.328 144.963 211.995 144.136 211.568V208.368C144.989 208.795 146.016 209.195 147.216 209.568C148.443 209.915 149.683 210.088 150.936 210.088C152.723 210.088 154.016 209.808 154.816 209.248C155.616 208.662 156.016 207.888 156.016 206.928C156.016 206.395 155.869 205.915 155.576 205.488C155.283 205.062 154.749 204.635 153.976 204.208C153.229 203.782 152.149 203.302 150.736 202.768C149.349 202.235 148.163 201.702 147.176 201.168C146.189 200.635 145.429 199.995 144.896 199.248C144.363 198.502 144.096 197.542 144.096 196.368C144.096 194.555 144.829 193.155 146.296 192.168C147.789 191.182 149.736 190.688 152.136 190.688C153.443 190.688 154.656 190.822 155.776 191.088C156.923 191.328 157.989 191.675 158.976 192.128L157.776 194.928C157.189 194.662 156.563 194.435 155.896 194.248C155.256 194.035 154.603 193.875 153.936 193.768C153.269 193.635 152.589 193.568 151.896 193.568C150.456 193.568 149.349 193.808 148.576 194.288C147.829 194.742 147.456 195.368 147.456 196.168C147.456 196.755 147.629 197.262 147.976 197.688C148.323 198.088 148.896 198.488 149.696 198.888C150.523 199.262 151.616 199.715 152.976 200.248C154.336 200.755 155.496 201.275 156.456 201.808C157.416 202.342 158.149 202.995 158.656 203.768C159.163 204.515 159.416 205.462 159.416 206.608Z" fill="white"/>
<path d="M268.156 191.048C268.156 191.555 268.129 192.075 268.076 192.608C268.049 193.142 268.009 193.622 267.956 194.048H268.196C268.649 193.302 269.222 192.688 269.916 192.208C270.609 191.728 271.382 191.368 272.236 191.128C273.089 190.862 273.969 190.728 274.876 190.728C276.609 190.728 278.049 191.008 279.196 191.568C280.369 192.102 281.249 192.942 281.836 194.088C282.422 195.235 282.716 196.728 282.716 198.568V212.528H279.236V198.808C279.236 197.075 278.849 195.782 278.076 194.928C277.302 194.075 276.089 193.648 274.436 193.648C272.836 193.648 271.582 193.955 270.676 194.568C269.769 195.155 269.116 196.035 268.716 197.208C268.342 198.355 268.156 199.768 268.156 201.448V212.528H264.636V182.128H268.156V191.048Z" fill="white"/>
<path d="M392.882 191.088V212.528H389.362V191.088H392.882ZM391.162 183.048C391.696 183.048 392.162 183.235 392.562 183.608C392.989 183.955 393.202 184.515 393.202 185.288C393.202 186.035 392.989 186.595 392.562 186.968C392.162 187.342 391.696 187.528 391.162 187.528C390.576 187.528 390.082 187.342 389.682 186.968C389.282 186.595 389.082 186.035 389.082 185.288C389.082 184.515 389.282 183.955 389.682 183.608C390.082 183.235 390.576 183.048 391.162 183.048Z" fill="white"/>
<path d="M508.275 212.928C506.381 212.928 504.688 212.542 503.195 211.768C501.728 210.995 500.568 209.795 499.715 208.168C498.888 206.542 498.475 204.462 498.475 201.928C498.475 199.288 498.915 197.142 499.795 195.488C500.675 193.835 501.861 192.622 503.355 191.848C504.875 191.075 506.595 190.688 508.515 190.688C509.608 190.688 510.661 190.808 511.675 191.048C512.688 191.262 513.515 191.528 514.155 191.848L513.075 194.768C512.435 194.528 511.688 194.302 510.835 194.088C509.981 193.875 509.181 193.768 508.435 193.768C506.995 193.768 505.808 194.075 504.875 194.688C503.941 195.302 503.248 196.208 502.795 197.408C502.341 198.608 502.115 200.102 502.115 201.888C502.115 203.595 502.341 205.048 502.795 206.248C503.248 207.448 503.928 208.355 504.835 208.968C505.741 209.582 506.875 209.888 508.235 209.888C509.408 209.888 510.435 209.768 511.315 209.528C512.221 209.288 513.048 208.995 513.795 208.648V211.768C513.075 212.142 512.275 212.422 511.395 212.608C510.541 212.822 509.501 212.928 508.275 212.928Z" fill="white"/>
<path d="M622.413 191.048C622.413 191.555 622.387 192.075 622.333 192.608C622.307 193.142 622.267 193.622 622.213 194.048H622.453C622.907 193.302 623.48 192.688 624.173 192.208C624.867 191.728 625.64 191.368 626.493 191.128C627.347 190.862 628.227 190.728 629.133 190.728C630.867 190.728 632.307 191.008 633.453 191.568C634.627 192.102 635.507 192.942 636.093 194.088C636.68 195.235 636.973 196.728 636.973 198.568V212.528H633.493V198.808C633.493 197.075 633.107 195.782 632.333 194.928C631.56 194.075 630.347 193.648 628.693 193.648C627.093 193.648 625.84 193.955 624.933 194.568C624.027 195.155 623.373 196.035 622.973 197.208C622.6 198.355 622.413 199.768 622.413 201.448V212.528H618.893V182.128H622.413V191.048Z" fill="white"/>
<path d="M747.14 191.088V212.528H743.62V191.088H747.14ZM745.42 183.048C745.953 183.048 746.42 183.235 746.82 183.608C747.247 183.955 747.46 184.515 747.46 185.288C747.46 186.035 747.247 186.595 746.82 186.968C746.42 187.342 745.953 187.528 745.42 187.528C744.833 187.528 744.34 187.342 743.94 186.968C743.54 186.595 743.34 186.035 743.34 185.288C743.34 184.515 743.54 183.955 743.94 183.608C744.34 183.235 744.833 183.048 745.42 183.048Z" fill="white"/>
</g>
<defs>
<filter id="filter0_d_12_12" x="0" y="0" width="896.056" height="215.928" filterUnits="userSpaceOnUse" color-interpolation-filters="sRGB">
<feFlood flood-opacity="0" result="BackgroundImageFix"/>
<feColorMatrix in="SourceAlpha" type="matrix" values="0 0 0 0 0 0 0 0 0 0 0 0 0 0 0 0 0 0 127 0" result="hardAlpha"/>
<feOffset dy="1"/>
<feGaussianBlur stdDeviation="1"/>
<feComposite in2="hardAlpha" operator="out"/>
<feColorMatrix type="matrix" values="0 0 0 0 1 0 0 0 0 1 0 0 0 0 1 0 0 0 1 0"/>
<feBlend mode="normal" in2="BackgroundImageFix" result="effect1_dropShadow_12_12"/>
<feBlend mode="normal" in="SourceGraphic" in2="effect1_dropShadow_12_12" result="shape"/>
</filter>
</defs>
</svg>
