<svg width="664" height="179" viewBox="0 0 664 179" fill="none" xmlns="http://www.w3.org/2000/svg">
<path d="M662.933 70.7375L659.032 59.6716C658.199 57.3168 656.477 55.3704 654.214 54.2679C651.049 52.7162 645.676 50.5384 637.651 48.592C623.337 45.1076 542.063 39.595 542.063 39.595C470.341 2.64057 457.86 0 381.251 0C304.642 0 295.09 8.64311 295.09 8.64311L239.042 53.7643H249.649C249.649 53.7643 289.592 20.8932 300.976 14.4143C312.361 7.93533 327.091 8.33006 378.321 8.33006C383.889 8.33006 389.206 8.71118 394.273 9.37813L409.17 48.4423C404.117 49.3951 399.41 50.239 395.454 50.8787C376.114 53.9957 375.378 53.7643 239.042 53.7643C154.158 53.7643 84.8382 63.9047 44.59 71.5542C44.59 71.5542 44.59 71.5542 44.5622 71.5542C44.5483 71.5542 44.5344 71.5542 44.5067 71.5542C43.2155 71.7583 26.2915 74.4942 15.032 77.7881C13.7547 78.1556 12.5469 78.5367 11.4362 78.9314C9.00658 79.7753 7.09065 80.6465 6.00774 81.504C6.00774 81.504 5.99386 81.5176 5.96609 81.5312C4.9526 82.3343 4.24454 83.4504 3.95299 84.689C3.09221 88.4184 1.56502 96.6124 3.31434 102.111L1.64832 103.105C0.509878 103.786 0.204443 105.296 1.00969 106.344L10.0478 118.213C10.4366 118.717 11.0475 119.016 11.6861 119.016H14.5738L37.0929 137.732L19.0305 118.853L21.4045 118.649C23.4038 118.472 24.3478 116.145 23.0011 114.675L12.6163 103.323C12.172 102.846 11.5611 102.561 10.8947 102.533C9.99231 102.506 7.72929 102.343 6.7158 102.261C6.5492 101.581 5.91056 99.8927 5.48017 97.3474C4.30007 88.8812 8.10415 84.2398 8.21522 84.1309C8.85386 83.464 9.56192 82.8651 10.3533 82.3615C14.0463 80.0067 20.2939 77.5023 31.0119 75.4197C35.4407 74.6983 39.9251 74.0042 44.465 73.3509C44.4928 73.3509 44.5344 73.3509 44.5622 73.3509C148.272 58.2968 278.943 59.0454 342.793 57.344C414.752 55.4249 450.252 42.9434 468.856 42.712C485.071 42.4942 600.471 50.307 629.932 52.3215C634.444 52.6346 638.859 53.7643 642.954 55.6699L651.757 59.7668C654.172 60.8966 655.991 62.9519 656.81 65.4291L480.781 64.5988C475.617 64.5716 470.466 65.1297 465.44 66.2458L434.188 73.2147C428.718 74.4397 423.137 75.1747 417.542 75.4878C417.403 74.78 417.264 74.0722 417.112 73.4053C416.862 72.4253 416.64 71.4725 416.39 70.5742C415.918 68.7639 415.349 67.1441 414.835 65.715C414.321 64.2858 413.794 63.0744 413.349 62.0807C412.905 61.0871 412.489 60.3385 412.225 59.8213C411.947 59.3041 411.78 59.0454 411.78 59.0454C411.78 59.0454 411.878 59.3449 412.044 59.8894C412.211 60.4474 412.433 61.2641 412.711 62.2985C412.974 63.333 413.266 64.6124 413.585 66.0688C413.738 66.8038 413.891 67.5797 414.03 68.3964C414.099 68.8047 414.182 69.2266 414.252 69.6622C414.321 70.0978 414.391 70.5333 414.46 70.9825C414.682 72.4253 414.877 74.0042 415.071 75.6239C414.932 75.6239 414.793 75.6375 414.654 75.6511L229.712 80.9187C230.046 79.4351 230.42 78.0059 230.823 76.7128C231.392 74.9161 232.017 73.2692 232.559 71.7855C233.1 70.3155 233.544 69.0225 233.905 67.9608C234.28 66.8991 234.544 66.0552 234.738 65.4836C234.919 64.9119 235.016 64.5988 235.016 64.5988C235.016 64.5988 234.849 64.8847 234.558 65.4019C234.266 65.9327 233.822 66.695 233.28 67.6886C232.739 68.6822 232.073 69.88 231.351 71.2683C230.99 71.9625 230.601 72.6975 230.184 73.4734C229.962 73.8953 229.782 74.2764 229.587 74.6983C229.379 75.1067 229.185 75.5423 228.99 76.005C228.574 76.917 228.227 77.8698 227.838 78.8634C227.602 79.5439 227.38 80.2517 227.172 80.9595L132.889 84.199L226.714 82.6609C226.214 84.6618 225.811 86.7851 225.603 89.0038C225.367 91.4674 225.325 94.0399 225.533 96.6396C225.575 97.293 225.645 97.9463 225.728 98.586C225.797 99.2394 225.894 99.8927 226.019 100.546C226.117 101.199 226.255 101.839 226.394 102.492C226.533 103.146 226.672 103.772 226.825 104.384C227.422 106.875 228.019 109.366 228.643 111.803C229.254 114.253 229.879 116.648 230.49 118.976C231.101 121.303 231.725 123.535 232.322 125.659C232.906 127.782 233.489 129.783 234.044 131.62C234.586 133.472 235.113 135.146 235.571 136.643C236.029 138.14 236.46 139.433 236.807 140.509C237.154 141.584 237.445 142.414 237.64 142.986C237.848 143.557 237.945 143.857 237.945 143.857C237.945 143.857 237.904 143.544 237.834 142.945C237.751 142.346 237.64 141.475 237.473 140.359C237.307 139.243 237.112 137.895 236.849 136.357C236.599 134.819 236.307 133.077 235.96 131.185C235.627 129.293 235.252 127.238 234.808 125.087C234.377 122.923 233.947 120.65 233.447 118.295C232.947 115.94 232.434 113.518 231.878 111.068C231.337 108.604 230.74 106.113 230.157 103.622C230.004 102.996 229.851 102.37 229.726 101.785C229.587 101.186 229.463 100.587 229.365 99.9744C229.254 99.3755 229.143 98.763 229.074 98.1641C228.977 97.5652 228.893 96.9527 228.852 96.3538C228.602 93.931 228.532 91.5354 228.63 89.2215C228.741 86.9348 228.977 84.7162 229.365 82.6337L415.432 79.5984C415.515 80.8234 415.585 82.062 415.654 83.3415C415.723 85.6146 415.793 87.9557 415.737 90.3376C415.71 92.7196 415.585 95.1288 415.404 97.5516C415.293 98.763 415.196 99.9608 415.085 101.159C414.932 102.356 414.821 103.554 414.668 104.738C414.502 105.922 414.335 107.093 414.168 108.25C413.974 109.407 413.78 110.55 413.599 111.666C413.391 112.783 413.155 113.885 412.961 114.96C412.738 116.036 412.502 117.084 412.28 118.105C412.072 119.139 411.794 120.119 411.572 121.072C411.336 122.025 411.142 122.964 410.892 123.848C410.392 125.618 410.003 127.251 409.559 128.68C409.129 130.11 408.809 131.389 408.462 132.41C408.129 133.431 407.907 134.261 407.74 134.805C407.574 135.364 407.491 135.663 407.491 135.663C407.491 135.663 407.643 135.391 407.921 134.887C408.185 134.37 408.601 133.621 409.101 132.655C409.615 131.689 410.17 130.504 410.795 129.116C411.1 128.422 411.461 127.7 411.767 126.911C412.086 126.122 412.419 125.291 412.766 124.434C413.127 123.576 413.433 122.651 413.78 121.698C414.113 120.745 414.46 119.765 414.765 118.744C415.071 117.723 415.404 116.675 415.71 115.586C416.001 114.498 416.279 113.381 416.57 112.252C416.834 111.108 417.07 109.951 417.32 108.767C417.556 107.583 417.75 106.385 417.959 105.174C418.153 103.962 418.306 102.737 418.472 101.499C418.597 100.26 418.722 99.0216 418.833 97.7694C418.986 95.2785 419.111 92.774 419.069 90.324C419.069 89.7115 419.055 89.099 419.042 88.4865C419.014 87.874 418.986 87.2751 418.944 86.6762C418.903 85.4784 418.778 84.2806 418.681 83.1237C418.556 81.8851 418.403 80.6737 418.236 79.4895C423.651 79.2989 429.038 78.7001 434.355 77.6656L467.884 71.1186C472.34 70.2475 476.88 69.8255 481.434 69.8392L658.06 70.683L658.171 71.1867C658.56 72.9153 658.212 74.7256 657.199 76.182L643.288 96.2857L661.489 77.1756C663.141 75.447 663.682 72.9561 662.891 70.7239L662.933 70.7375ZM413.558 47.5848L398.48 9.9634C437.562 16.4151 460.567 39.5814 460.567 39.5814C454.07 39.5814 432.314 44.0051 413.558 47.5848Z" fill="white"/>
<path d="M489.695 87.3432C458.124 96.7077 460.262 141.026 460.817 139.175C472.812 98.8583 474.034 92.3794 520.141 88.296C566.248 84.2126 579.535 125.495 579.535 125.495C572.676 79.6665 521.28 77.9787 489.709 87.3432H489.695Z" fill="white"/>
<path d="M111.022 92.4611C64.846 92.4611 75.689 144.946 75.7723 143.653C79.6874 88.1327 105.066 96.9391 140.886 96.9391C170.874 96.9391 194.573 148.934 194.573 148.934C176.455 91.9847 157.199 92.4611 111.022 92.4611Z" fill="white"/>
<path d="M438.909 91.8758L431.051 92.5835C430.135 92.6652 429.385 93.3594 429.26 94.2577C428.413 100.287 425.331 122.093 424.9 122.923C424.623 123.481 422.846 125.169 421.402 126.489C420.791 127.047 421.249 128.041 422.082 127.973L433.078 127.006C435.258 126.816 437.007 125.169 437.298 123.032C438.256 115.859 440.367 100.056 441.061 94.0263C441.2 92.7877 440.158 91.7532 438.895 91.8621L438.909 91.8758Z" fill="white"/>
<path d="M438.298 127.986L449.294 127.02C451.473 126.829 453.223 125.182 453.514 123.045C454.472 115.872 456.583 100.07 457.277 94.04C457.416 92.8014 456.374 91.7669 455.111 91.8758L447.253 92.5836C446.337 92.6652 445.587 93.3594 445.462 94.2578C444.615 100.288 441.533 122.093 441.102 122.923C440.811 123.481 439.048 125.169 437.604 126.489C436.993 127.047 437.451 128.041 438.284 127.973L438.298 127.986Z" fill="white"/>
<path d="M638.401 79.8163C634.319 79.789 621.99 79.721 617.215 79.7754C616.132 79.7754 615.215 80.5921 615.104 81.6538L614.715 85.1246C614.577 86.3769 615.576 87.4658 616.854 87.4658H634.763C635.319 87.4658 635.86 87.248 636.249 86.8805L639.886 83.4504C640.553 82.8107 640.733 81.8307 640.331 81.014C639.97 80.2926 639.234 79.8299 638.415 79.8299L638.401 79.8163Z" fill="white"/>
<path d="M458.957 144.292L315.36 142.877C315.151 142.877 314.943 142.877 314.735 142.877C311.472 142.877 308.251 143.435 305.183 144.51L298.144 147.001C296.325 147.641 294.423 147.995 292.494 148.049L197.17 150.771C196.628 150.785 196.198 151.221 196.212 151.765C196.212 152.296 196.656 152.731 197.211 152.731H293.257C295.409 152.731 297.547 152.391 299.588 151.738L307.307 149.233C309.959 148.376 312.722 147.94 315.512 147.94L458.943 149.642C459.248 149.642 459.748 147.192 459.748 146.988C459.748 146.77 459.248 144.333 458.957 144.306V144.292Z" fill="white"/>
<path d="M568.428 128.013C568.331 126.938 568.275 126.366 568.275 126.366C568.275 126.366 568.192 126.938 568.039 128C567.984 128.531 567.859 129.184 567.706 129.946C567.637 130.327 567.553 130.722 567.47 131.158C567.373 131.593 567.262 132.042 567.151 132.519C567.095 132.764 567.04 133.009 566.984 133.254C566.915 133.499 566.845 133.757 566.776 134.03C566.623 134.547 566.484 135.105 566.318 135.663C566.137 136.221 565.943 136.806 565.735 137.405C565.54 138.004 565.276 138.617 565.04 139.256C564.041 141.774 562.708 144.524 560.945 147.314C559.195 150.104 556.974 152.908 554.336 155.562C554.017 155.903 553.656 156.216 553.309 156.542C552.962 156.869 552.629 157.209 552.268 157.509C551.546 158.135 550.81 158.775 550.032 159.36C549.269 159.973 548.45 160.531 547.644 161.116C547.242 161.402 546.811 161.66 546.395 161.946L545.756 162.355L545.104 162.736C543.368 163.784 541.522 164.709 539.62 165.54C539.134 165.744 538.662 165.934 538.176 166.138C537.69 166.315 537.19 166.492 536.69 166.669C536.204 166.86 535.691 167.01 535.191 167.173C534.691 167.323 534.191 167.513 533.678 167.636C531.637 168.235 529.526 168.602 527.402 168.929C525.278 169.228 523.112 169.351 520.96 169.364L519.308 169.323C519.03 169.323 518.711 169.323 518.461 169.296L517.684 169.242C517.156 169.201 516.656 169.187 516.129 169.119L514.532 168.929C512.408 168.602 510.298 168.221 508.257 167.636C507.743 167.513 507.243 167.323 506.744 167.173C506.244 167.01 505.73 166.86 505.244 166.669C504.744 166.492 504.258 166.315 503.759 166.138C503.273 165.934 502.787 165.73 502.315 165.54C500.413 164.696 498.566 163.784 496.831 162.736L496.178 162.355L495.54 161.946C495.123 161.674 494.693 161.402 494.29 161.116C493.485 160.531 492.666 159.973 491.902 159.36C490.347 158.176 488.931 156.869 487.598 155.562C486.946 154.896 486.293 154.242 485.696 153.548C485.405 153.208 485.085 152.881 484.808 152.527C484.53 152.173 484.238 151.833 483.961 151.493C483.392 150.812 482.906 150.091 482.378 149.41C481.906 148.702 481.434 148.008 480.976 147.314C479.213 144.524 477.88 141.774 476.88 139.256C476.644 138.617 476.394 138.018 476.186 137.405C475.992 136.806 475.797 136.221 475.603 135.663C475.436 135.091 475.284 134.547 475.145 134.03C475.075 133.771 475.006 133.512 474.937 133.254C474.881 132.995 474.825 132.75 474.77 132.519C474.659 132.042 474.548 131.58 474.451 131.158C474.367 130.722 474.284 130.314 474.215 129.946C474.062 129.184 473.951 128.544 473.881 128.013C473.729 126.952 473.645 126.38 473.645 126.38C473.645 126.38 473.59 126.952 473.493 128.027C473.437 128.571 473.409 129.225 473.395 130.014C473.395 130.409 473.368 130.831 473.368 131.28C473.382 131.729 473.395 132.206 473.409 132.723C473.493 134.751 473.729 137.228 474.353 140.019C474.978 142.809 475.964 145.926 477.477 149.179C478.99 152.418 481.087 155.753 483.739 158.965C485.085 160.558 486.557 162.123 488.195 163.593C489.806 165.09 491.611 166.465 493.513 167.772C495.401 169.092 497.469 170.235 499.607 171.283C501.746 172.345 504.022 173.203 506.355 173.938C508.687 174.673 511.103 175.204 513.56 175.585L515.407 175.816C516.018 175.898 516.684 175.925 517.309 175.979L518.267 176.047C518.6 176.075 518.864 176.075 519.155 176.088L520.988 176.143C523.473 176.102 525.958 175.938 528.416 175.571C529.027 175.489 529.637 175.367 530.248 175.258L531.165 175.081L532.067 174.863C532.664 174.714 533.261 174.591 533.858 174.428C534.441 174.251 535.038 174.087 535.621 173.91C537.954 173.175 540.217 172.318 542.355 171.256C544.493 170.208 546.561 169.065 548.45 167.745L549.158 167.268L549.852 166.765C550.31 166.424 550.768 166.098 551.212 165.744C552.087 165.036 552.962 164.342 553.753 163.58C555.391 162.11 556.863 160.544 558.21 158.952C560.861 155.739 562.958 152.418 564.471 149.179C565.984 145.939 566.984 142.822 567.609 140.032C568.247 137.242 568.483 134.765 568.553 132.736C568.567 132.233 568.581 131.756 568.595 131.294C568.595 130.845 568.567 130.409 568.567 130.028C568.553 129.238 568.525 128.585 568.47 128.041L568.428 128.013Z" fill="white"/>
<path d="M526.111 98.7765L526.569 98.8854C527.18 99.0351 527.777 99.1712 528.388 99.3209C530.762 100.042 533.039 100.954 535.08 102.207C537.079 103.459 538.967 104.833 540.467 106.426C541.286 107.161 541.91 108.032 542.605 108.794C542.785 108.985 542.924 109.189 543.077 109.407C543.229 109.611 543.368 109.815 543.507 110.019C543.785 110.428 544.09 110.822 544.354 111.231C544.59 111.653 544.826 112.061 545.048 112.456C545.27 112.864 545.52 113.245 545.687 113.654C545.867 114.048 546.062 114.443 546.228 114.824C546.395 115.205 546.603 115.573 546.714 115.954C546.978 116.702 547.214 117.41 547.45 118.064C547.63 118.731 547.783 119.343 547.922 119.901C547.991 120.187 548.061 120.446 548.13 120.704C548.186 120.963 548.214 121.194 548.255 121.412C548.325 121.861 548.394 122.242 548.436 122.542C548.547 123.168 548.602 123.494 548.602 123.494C548.602 123.494 548.63 123.154 548.672 122.542C548.686 122.229 548.713 121.834 548.741 121.385C548.741 121.153 548.769 120.908 548.769 120.65C548.755 120.391 548.741 120.105 548.713 119.819C548.672 119.234 548.644 118.567 548.575 117.859C548.463 117.152 548.311 116.389 548.158 115.559C548.102 115.137 547.936 114.742 547.825 114.307C547.7 113.871 547.575 113.436 547.436 112.987C547.325 112.524 547.103 112.088 546.922 111.625C546.728 111.163 546.534 110.7 546.325 110.21C546.103 109.734 545.826 109.284 545.576 108.794C545.451 108.549 545.312 108.318 545.187 108.073C545.062 107.828 544.923 107.583 544.757 107.352C544.104 106.426 543.479 105.419 542.66 104.52C541.147 102.615 539.162 100.913 536.968 99.3754C536.399 99.0215 535.829 98.654 535.246 98.2865C534.663 97.9326 534.025 97.6604 533.4 97.3337C533.094 97.184 532.775 97.0207 532.456 96.8709C532.123 96.7484 531.803 96.6123 531.47 96.4898C530.804 96.2584 530.151 95.9726 529.471 95.7684C528.777 95.5915 528.083 95.4009 527.388 95.224L526.861 95.0878L526.305 94.9926L525.195 94.8292L524.084 94.6659C523.89 94.6387 523.723 94.6251 523.556 94.6115L523.043 94.5842L520.905 94.4753C518.003 94.5434 515.101 94.9245 512.366 95.7684C511.686 95.9726 511.034 96.2448 510.367 96.4898C510.034 96.6123 509.715 96.7484 509.381 96.8709C509.062 97.0207 508.757 97.184 508.437 97.3337C507.826 97.6604 507.188 97.9326 506.591 98.2865C506.008 98.654 505.439 99.0079 504.869 99.3754C502.676 100.913 500.704 102.615 499.177 104.52C498.358 105.419 497.733 106.426 497.081 107.352C496.914 107.583 496.775 107.828 496.65 108.073C496.511 108.318 496.387 108.563 496.248 108.794C495.998 109.271 495.72 109.734 495.498 110.21C495.29 110.686 495.095 111.163 494.901 111.625C494.72 112.088 494.498 112.524 494.387 112.987C494.248 113.436 494.123 113.885 493.999 114.307C493.887 114.742 493.721 115.137 493.665 115.559C493.513 116.389 493.36 117.152 493.249 117.859C493.179 118.581 493.152 119.248 493.11 119.833C493.096 120.132 493.068 120.405 493.054 120.677C493.054 120.936 493.082 121.181 493.082 121.412C493.11 121.861 493.124 122.256 493.152 122.569C493.193 123.195 493.221 123.535 493.221 123.535C493.221 123.535 493.277 123.209 493.388 122.583C493.443 122.269 493.499 121.888 493.568 121.439C493.61 121.221 493.638 120.976 493.693 120.718C493.762 120.473 493.818 120.201 493.901 119.928C494.04 119.37 494.193 118.758 494.373 118.104C494.623 117.451 494.845 116.743 495.109 115.995C495.22 115.614 495.429 115.26 495.595 114.865C495.776 114.484 495.956 114.089 496.137 113.694C496.303 113.286 496.567 112.905 496.789 112.497C497.011 112.102 497.247 111.68 497.483 111.272C497.733 110.863 498.039 110.469 498.33 110.06C498.469 109.856 498.622 109.652 498.761 109.448C498.899 109.244 499.052 109.026 499.233 108.835C499.927 108.059 500.552 107.188 501.371 106.467C502.87 104.874 504.758 103.5 506.757 102.247C508.784 101.009 511.075 100.097 513.449 99.3618C514.06 99.2121 514.657 99.0759 515.268 98.9262L515.726 98.8173L516.198 98.7493L517.128 98.6132L518.059 98.477C518.364 98.4226 518.683 98.4362 519.003 98.409L520.891 98.3273L522.821 98.4226L523.334 98.4498C523.501 98.4498 523.668 98.4634 523.82 98.4906L524.723 98.6268L525.625 98.7629L526.069 98.8173L526.111 98.7765Z" fill="white"/>
<path d="M525.403 127.455C525.361 127.36 525.347 127.306 525.347 127.306C525.347 127.306 525.32 127.36 525.264 127.455C525.223 127.551 525.153 127.7 525.056 127.864C525.014 127.945 524.959 128.027 524.903 128.122C524.834 128.218 524.778 128.313 524.709 128.408C524.57 128.612 524.39 128.817 524.209 129.007C524.015 129.198 523.792 129.402 523.543 129.565C523.307 129.742 523.029 129.892 522.751 130.014C522.474 130.137 522.168 130.232 521.877 130.3C521.571 130.355 521.266 130.395 520.96 130.395H520.933H520.849H520.683C520.558 130.395 520.502 130.382 520.447 130.368C520.336 130.368 520.169 130.327 520.016 130.3C519.725 130.218 519.419 130.137 519.142 130.014C518.864 129.878 518.586 129.742 518.35 129.565C518.1 129.402 517.892 129.198 517.684 129.007C517.489 128.803 517.323 128.599 517.184 128.408C517.045 128.204 516.92 128.027 516.837 127.85C516.74 127.687 516.684 127.551 516.629 127.455C516.573 127.36 516.545 127.306 516.545 127.306C516.545 127.306 516.518 127.36 516.49 127.455C516.462 127.551 516.379 127.714 516.351 127.918C516.337 128.027 516.309 128.136 516.295 128.258C516.295 128.381 516.295 128.517 516.282 128.667C516.282 128.966 516.337 129.293 516.448 129.66C516.559 130.014 516.726 130.409 516.99 130.763C517.239 131.144 517.573 131.484 517.961 131.797C518.364 132.11 518.822 132.355 519.336 132.532C519.6 132.614 519.85 132.696 520.155 132.737C520.308 132.764 520.46 132.777 520.558 132.777H520.724L520.808 132.791H520.849H520.946C521.502 132.777 522.043 132.696 522.557 132.519C523.071 132.342 523.543 132.097 523.931 131.784C524.32 131.471 524.653 131.13 524.903 130.749C525.153 130.382 525.32 130.001 525.445 129.647C525.556 129.279 525.597 128.953 525.611 128.653C525.611 128.503 525.611 128.367 525.597 128.245C525.583 128.109 525.556 128 525.542 127.891C525.514 127.687 525.431 127.551 525.403 127.442V127.455Z" fill="white"/>
<path d="M178.704 130.423C178.607 129.347 178.552 128.776 178.552 128.776C178.552 128.776 178.468 129.347 178.316 130.409C178.26 130.94 178.135 131.593 177.982 132.355C177.913 132.737 177.83 133.131 177.746 133.567C177.649 134.002 177.538 134.452 177.427 134.928C177.372 135.173 177.316 135.418 177.261 135.663C177.191 135.908 177.122 136.167 177.052 136.439C176.9 136.956 176.761 137.514 176.594 138.072C176.414 138.63 176.219 139.215 176.011 139.814C175.817 140.413 175.553 141.026 175.317 141.665C174.317 144.184 172.984 146.933 171.221 149.723C169.472 152.514 167.251 155.318 164.613 157.972C164.293 158.312 163.932 158.625 163.585 158.952C163.238 159.278 162.905 159.619 162.544 159.918C161.822 160.544 161.086 161.184 160.309 161.769C159.545 162.382 158.726 162.94 157.921 163.525C157.518 163.811 157.088 164.07 156.671 164.355L156.033 164.764L155.38 165.145C153.645 166.193 151.798 167.118 149.896 167.949C149.41 168.153 148.938 168.343 148.452 168.548C147.966 168.725 147.467 168.902 146.967 169.078C146.481 169.269 145.967 169.419 145.467 169.582C144.968 169.732 144.468 169.922 143.954 170.045C141.913 170.644 139.803 171.011 137.679 171.338C135.555 171.637 133.389 171.76 131.237 171.773L129.585 171.733C129.307 171.733 128.988 171.733 128.738 171.705L127.96 171.651C127.433 171.61 126.933 171.597 126.405 171.528L124.809 171.338C122.685 171.011 120.574 170.63 118.547 170.045C118.034 169.922 117.534 169.732 117.034 169.582C116.534 169.419 116.02 169.269 115.535 169.078C115.035 168.902 114.549 168.725 114.049 168.548C113.563 168.343 113.077 168.139 112.605 167.949C110.703 167.105 108.857 166.193 107.121 165.145L106.469 164.764L105.83 164.355C105.413 164.083 104.983 163.811 104.58 163.525C103.775 162.94 102.956 162.382 102.193 161.769C100.638 160.585 99.2215 159.278 97.8887 157.972C97.2361 157.305 96.5836 156.651 95.9866 155.957C95.6951 155.617 95.3757 155.29 95.0981 154.936C94.8204 154.583 94.5288 154.242 94.2512 153.902C93.6819 153.221 93.196 152.5 92.6685 151.819C92.1964 151.112 91.7244 150.417 91.2662 149.723C89.503 146.933 88.1702 144.184 87.1706 141.665C86.9346 141.026 86.6847 140.427 86.4764 139.814C86.2821 139.215 86.0877 138.63 85.8933 138.072C85.7267 137.5 85.574 136.956 85.4352 136.439C85.3657 136.18 85.2963 135.922 85.2269 135.663C85.1714 135.404 85.1158 135.159 85.0603 134.928C84.9492 134.452 84.8382 133.989 84.741 133.567C84.6577 133.131 84.5744 132.723 84.505 132.355C84.3523 131.593 84.2412 130.953 84.1718 130.423C84.019 129.361 83.9357 128.789 83.9357 128.789C83.9357 128.789 83.8802 129.361 83.783 130.436C83.7275 130.981 83.6997 131.634 83.6858 132.423C83.6858 132.818 83.6581 133.24 83.6581 133.689C83.672 134.138 83.6858 134.615 83.6997 135.132C83.783 137.16 84.019 139.637 84.6438 142.428C85.2686 145.218 86.2543 148.335 87.7676 151.588C89.2809 154.828 91.3773 158.162 94.029 161.375C95.3757 162.967 96.8474 164.532 98.4856 166.002C100.096 167.5 101.901 168.874 103.803 170.181C105.691 171.501 107.76 172.645 109.898 173.693C112.036 174.754 114.313 175.612 116.645 176.347C118.978 177.082 121.393 177.613 123.851 177.994L125.697 178.225C126.308 178.307 126.975 178.334 127.599 178.389L128.557 178.457C128.89 178.484 129.154 178.484 129.446 178.497L131.278 178.552C133.764 178.511 136.249 178.348 138.706 177.98C139.317 177.899 139.928 177.776 140.539 177.667L141.455 177.49L142.357 177.272C142.954 177.123 143.551 177 144.148 176.837C144.732 176.66 145.329 176.497 145.912 176.32C148.244 175.585 150.507 174.727 152.645 173.665C154.783 172.617 156.852 171.474 158.74 170.154L159.448 169.677L160.142 169.174C160.6 168.833 161.059 168.507 161.503 168.153C162.377 167.445 163.252 166.751 164.043 165.989C165.682 164.519 167.153 162.953 168.5 161.361C171.152 158.149 173.248 154.828 174.762 151.588C176.275 148.349 177.274 145.232 177.899 142.428C178.538 139.637 178.774 137.16 178.843 135.132C178.857 134.628 178.871 134.152 178.885 133.689C178.885 133.24 178.857 132.805 178.857 132.423C178.843 131.634 178.816 130.981 178.76 130.436L178.704 130.423Z" fill="white"/>
<path d="M136.401 103.826L136.86 103.935C137.47 104.085 138.067 104.221 138.678 104.371C141.052 105.092 143.343 106.004 145.37 107.256C147.369 108.509 149.258 109.883 150.757 111.476C151.576 112.211 152.201 113.082 152.895 113.844C153.076 114.035 153.214 114.239 153.367 114.457C153.52 114.661 153.659 114.865 153.797 115.069C154.075 115.477 154.381 115.872 154.644 116.281C154.88 116.702 155.116 117.111 155.339 117.506C155.561 117.914 155.811 118.295 155.977 118.703C156.158 119.098 156.352 119.493 156.519 119.874C156.685 120.255 156.893 120.623 157.005 121.004C157.268 121.752 157.504 122.46 157.74 123.113C157.921 123.78 158.074 124.393 158.212 124.951C158.282 125.237 158.351 125.495 158.421 125.754C158.476 126.013 158.504 126.244 158.546 126.462C158.615 126.911 158.684 127.292 158.726 127.591C158.837 128.218 158.893 128.544 158.893 128.544C158.893 128.544 158.92 128.204 158.962 127.591C158.976 127.278 159.004 126.884 159.032 126.435C159.032 126.203 159.059 125.958 159.059 125.7C159.045 125.441 159.032 125.155 159.004 124.869C158.962 124.284 158.934 123.617 158.865 122.909C158.754 122.201 158.601 121.439 158.448 120.609C158.393 120.187 158.226 119.792 158.115 119.357C157.99 118.921 157.865 118.486 157.726 118.036C157.615 117.574 157.393 117.138 157.213 116.675C157.018 116.212 156.824 115.75 156.616 115.26C156.394 114.783 156.116 114.334 155.866 113.844C155.741 113.599 155.602 113.368 155.477 113.123C155.352 112.878 155.214 112.633 155.047 112.401C154.394 111.476 153.77 110.469 152.951 109.57C151.437 107.665 149.452 105.963 147.258 104.425C146.689 104.071 146.12 103.704 145.537 103.336C144.954 102.982 144.315 102.71 143.69 102.383C143.385 102.234 143.066 102.07 142.746 101.921C142.413 101.798 142.094 101.662 141.76 101.54C141.094 101.308 140.442 101.022 139.761 100.818C139.067 100.641 138.373 100.451 137.679 100.274L137.151 100.138L136.596 100.042L135.485 99.879L134.374 99.7157C134.18 99.6885 134.013 99.6749 133.847 99.6612L133.333 99.634L131.195 99.5251C128.293 99.5932 125.392 99.9743 122.657 100.818C121.976 101.022 121.324 101.295 120.658 101.54C120.324 101.662 120.005 101.798 119.672 101.921C119.353 102.07 119.047 102.234 118.728 102.383C118.117 102.697 117.478 102.982 116.881 103.336C116.298 103.704 115.729 104.058 115.16 104.425C112.966 105.963 110.995 107.665 109.467 109.57C108.648 110.469 108.024 111.476 107.371 112.401C107.204 112.633 107.066 112.878 106.941 113.123C106.802 113.368 106.677 113.613 106.538 113.844C106.288 114.321 106.01 114.783 105.788 115.26C105.58 115.736 105.386 116.212 105.191 116.675C105.011 117.138 104.775 117.574 104.678 118.036C104.539 118.486 104.414 118.935 104.289 119.357C104.178 119.792 104.011 120.187 103.956 120.609C103.803 121.439 103.65 122.201 103.539 122.909C103.47 123.631 103.442 124.298 103.4 124.883C103.386 125.182 103.359 125.455 103.345 125.727C103.345 125.985 103.373 126.23 103.373 126.462C103.4 126.911 103.414 127.306 103.442 127.619C103.484 128.245 103.511 128.585 103.511 128.585C103.511 128.585 103.567 128.258 103.678 127.632C103.734 127.319 103.789 126.938 103.859 126.489C103.9 126.271 103.928 126.026 103.983 125.768C104.053 125.523 104.108 125.25 104.178 124.978C104.317 124.42 104.469 123.808 104.65 123.154C104.9 122.501 105.122 121.793 105.386 121.044C105.497 120.663 105.705 120.309 105.872 119.915C106.052 119.534 106.233 119.139 106.413 118.744C106.58 118.336 106.843 117.955 107.066 117.546C107.288 117.152 107.524 116.73 107.76 116.321C108.01 115.913 108.315 115.518 108.607 115.11C108.746 114.906 108.898 114.702 109.037 114.497C109.176 114.293 109.329 114.076 109.509 113.885C110.203 113.109 110.828 112.238 111.647 111.517C113.147 109.924 115.035 108.549 117.034 107.297C119.061 106.059 121.352 105.147 123.726 104.412C124.337 104.262 124.934 104.126 125.545 103.976L126.003 103.867L126.475 103.799L127.405 103.663L128.335 103.527C128.641 103.472 128.96 103.486 129.279 103.459L131.167 103.377L133.097 103.472L133.611 103.5C133.777 103.5 133.944 103.513 134.097 103.54L134.999 103.677L135.902 103.813L136.346 103.867L136.401 103.826Z" fill="white"/>
<path d="M135.68 129.851C135.638 129.756 135.624 129.701 135.624 129.701C135.624 129.701 135.596 129.756 135.541 129.851C135.499 129.946 135.43 130.096 135.332 130.259C135.291 130.341 135.235 130.423 135.18 130.518C135.11 130.613 135.055 130.708 134.985 130.804C134.846 131.008 134.666 131.212 134.486 131.403C134.291 131.593 134.069 131.797 133.819 131.961C133.583 132.138 133.305 132.287 133.028 132.41C132.75 132.532 132.445 132.628 132.153 132.696C131.848 132.75 131.542 132.791 131.237 132.791H131.209H131.126H130.959C130.834 132.791 130.779 132.777 130.723 132.764C130.612 132.764 130.445 132.723 130.293 132.696C130.001 132.614 129.696 132.532 129.418 132.41C129.14 132.274 128.863 132.138 128.627 131.961C128.377 131.797 128.169 131.593 127.96 131.403C127.766 131.198 127.599 130.994 127.46 130.804C127.322 130.6 127.197 130.423 127.113 130.246C127.016 130.082 126.961 129.946 126.905 129.851C126.85 129.756 126.822 129.701 126.822 129.701C126.822 129.701 126.794 129.756 126.752 129.851C126.725 129.946 126.641 130.11 126.614 130.314C126.6 130.423 126.572 130.531 126.558 130.654C126.558 130.776 126.558 130.913 126.544 131.062C126.544 131.362 126.6 131.688 126.711 132.056C126.822 132.41 126.988 132.805 127.252 133.158C127.502 133.54 127.835 133.88 128.224 134.193C128.627 134.506 129.085 134.751 129.599 134.928C129.862 135.01 130.112 135.091 130.418 135.132C130.57 135.159 130.723 135.173 130.82 135.173H130.987L131.07 135.187H131.112H131.209C131.764 135.173 132.306 135.091 132.82 134.914C133.333 134.737 133.805 134.492 134.194 134.179C134.583 133.866 134.93 133.526 135.166 133.145C135.416 132.777 135.582 132.396 135.707 132.042C135.818 131.675 135.86 131.348 135.874 131.049C135.874 130.899 135.874 130.763 135.86 130.64C135.846 130.504 135.818 130.395 135.804 130.286C135.777 130.082 135.693 129.946 135.666 129.837L135.68 129.851Z" fill="white"/>
<path d="M52.2397 99.498H31.4006C30.3594 99.498 29.7485 100.641 30.3316 101.485L31.7755 103.541C32.7057 104.874 34.2467 105.664 35.8989 105.664H52.2397C53.6142 105.664 54.7249 104.575 54.7249 103.228V101.948C54.7249 100.601 53.6142 99.5117 52.2397 99.5117V99.498Z" fill="white"/>
</svg>
